%TF.GenerationSoftware,KiCad,Pcbnew,7.0.7*%
%TF.CreationDate,2023-09-03T21:13:37-04:00*%
%TF.ProjectId,eOPRA_interface,654f5052-415f-4696-9e74-657266616365,rev?*%
%TF.SameCoordinates,Original*%
%TF.FileFunction,Paste,Top*%
%TF.FilePolarity,Positive*%
%FSLAX46Y46*%
G04 Gerber Fmt 4.6, Leading zero omitted, Abs format (unit mm)*
G04 Created by KiCad (PCBNEW 7.0.7) date 2023-09-03 21:13:37*
%MOMM*%
%LPD*%
G01*
G04 APERTURE LIST*
G04 Aperture macros list*
%AMRoundRect*
0 Rectangle with rounded corners*
0 $1 Rounding radius*
0 $2 $3 $4 $5 $6 $7 $8 $9 X,Y pos of 4 corners*
0 Add a 4 corners polygon primitive as box body*
4,1,4,$2,$3,$4,$5,$6,$7,$8,$9,$2,$3,0*
0 Add four circle primitives for the rounded corners*
1,1,$1+$1,$2,$3*
1,1,$1+$1,$4,$5*
1,1,$1+$1,$6,$7*
1,1,$1+$1,$8,$9*
0 Add four rect primitives between the rounded corners*
20,1,$1+$1,$2,$3,$4,$5,0*
20,1,$1+$1,$4,$5,$6,$7,0*
20,1,$1+$1,$6,$7,$8,$9,0*
20,1,$1+$1,$8,$9,$2,$3,0*%
%AMRotRect*
0 Rectangle, with rotation*
0 The origin of the aperture is its center*
0 $1 length*
0 $2 width*
0 $3 Rotation angle, in degrees counterclockwise*
0 Add horizontal line*
21,1,$1,$2,0,0,$3*%
G04 Aperture macros list end*
%ADD10C,0.010000*%
%ADD11RoundRect,0.150000X0.250000X-0.150000X0.250000X0.150000X-0.250000X0.150000X-0.250000X-0.150000X0*%
%ADD12RotRect,0.500000X0.600000X135.000000*%
%ADD13RotRect,0.450000X0.700000X225.000000*%
%ADD14R,1.200000X0.800000*%
%ADD15R,2.000000X1.200000*%
%ADD16R,1.100000X1.700000*%
%ADD17RotRect,0.500000X0.600000X45.000000*%
%ADD18R,0.600000X0.800000*%
%ADD19RoundRect,0.006000X-0.431500X-0.094000X0.431500X-0.094000X0.431500X0.094000X-0.431500X0.094000X0*%
%ADD20RoundRect,0.020000X-0.080000X-0.417500X0.080000X-0.417500X0.080000X0.417500X-0.080000X0.417500X0*%
%ADD21RoundRect,0.187500X0.312500X0.187500X-0.312500X0.187500X-0.312500X-0.187500X0.312500X-0.187500X0*%
%ADD22RoundRect,0.150000X0.150000X-0.825000X0.150000X0.825000X-0.150000X0.825000X-0.150000X-0.825000X0*%
%ADD23R,3.750000X4.000000*%
%ADD24R,2.500000X3.200000*%
%ADD25R,1.300000X2.200000*%
%ADD26R,1.300000X2.400000*%
%ADD27R,0.600000X0.500000*%
%ADD28R,1.100000X1.100000*%
%ADD29R,0.500000X0.600000*%
%ADD30R,1.000000X2.700000*%
%ADD31R,0.600000X1.700000*%
%ADD32RoundRect,0.150000X0.282843X0.070711X0.070711X0.282843X-0.282843X-0.070711X-0.070711X-0.282843X0*%
%ADD33RotRect,0.500000X0.600000X315.000000*%
%ADD34RoundRect,0.150000X-0.150000X-0.250000X0.150000X-0.250000X0.150000X0.250000X-0.150000X0.250000X0*%
%ADD35R,0.300000X1.150000*%
%ADD36R,0.800000X0.600000*%
%ADD37RoundRect,0.150000X-0.250000X0.150000X-0.250000X-0.150000X0.250000X-0.150000X0.250000X0.150000X0*%
%ADD38R,1.100000X1.400000*%
%ADD39RoundRect,0.085000X-0.340000X0.515000X-0.340000X-0.515000X0.340000X-0.515000X0.340000X0.515000X0*%
%ADD40R,1.800000X0.850000*%
%ADD41R,1.600000X0.600000*%
%ADD42RotRect,1.400000X1.100000X315.000000*%
%ADD43O,0.850000X0.300000*%
%ADD44O,0.300000X0.850000*%
%ADD45RoundRect,0.150000X-0.150000X0.825000X-0.150000X-0.825000X0.150000X-0.825000X0.150000X0.825000X0*%
%ADD46RoundRect,0.250000X0.555000X-0.435000X0.555000X0.435000X-0.555000X0.435000X-0.555000X-0.435000X0*%
%ADD47RoundRect,0.125000X0.125000X-0.262500X0.125000X0.262500X-0.125000X0.262500X-0.125000X-0.262500X0*%
%ADD48RotRect,1.000000X0.370000X225.000000*%
%ADD49RotRect,1.000000X0.370000X315.000000*%
%ADD50RotRect,4.200000X4.200000X225.000000*%
%ADD51R,0.990600X2.794000*%
%ADD52R,0.660400X1.803400*%
%ADD53R,0.760000X2.600000*%
G04 APERTURE END LIST*
%TO.C,U10*%
D10*
X127105000Y-96790000D02*
X125145000Y-96790000D01*
X125145000Y-94830000D01*
X127105000Y-94830000D01*
X127105000Y-96790000D01*
G36*
X127105000Y-96790000D02*
G01*
X125145000Y-96790000D01*
X125145000Y-94830000D01*
X127105000Y-94830000D01*
X127105000Y-96790000D01*
G37*
%TO.C,U17*%
X163736592Y-83715000D02*
X162125000Y-83715000D01*
X162125000Y-83104397D01*
X163736592Y-83104397D01*
X163736592Y-83715000D01*
G36*
X163736592Y-83715000D02*
G01*
X162125000Y-83715000D01*
X162125000Y-83104397D01*
X163736592Y-83104397D01*
X163736592Y-83715000D01*
G37*
%TD*%
D11*
%TO.C,R29*%
X163175000Y-79075000D03*
X163175000Y-77375000D03*
%TD*%
D12*
%TO.C,C35*%
X118738909Y-102713909D03*
X117961091Y-101936091D03*
%TD*%
%TO.C,C33*%
X117138909Y-101138909D03*
X116361091Y-100361091D03*
%TD*%
D13*
%TO.C,D1*%
X108252513Y-100008274D03*
X107333274Y-100927513D03*
X109207107Y-101882107D03*
%TD*%
D14*
%TO.C,Q30*%
X140820000Y-89520000D03*
X140820000Y-92060000D03*
X146970000Y-92060000D03*
X146970000Y-89520000D03*
%TD*%
D15*
%TO.C,U16*%
X149800000Y-123075000D03*
X149800000Y-121075000D03*
X149800000Y-119075000D03*
X149800000Y-117075000D03*
X149800000Y-115075000D03*
X149800000Y-113075000D03*
X149800000Y-111075000D03*
X149800000Y-109075000D03*
D16*
X147300000Y-107575000D03*
X145300000Y-107575000D03*
X143300000Y-107575000D03*
X141300000Y-107575000D03*
X139300000Y-107575000D03*
X137300000Y-107575000D03*
D15*
X134800000Y-109075000D03*
X134800000Y-111075000D03*
X134800000Y-113075000D03*
X134800000Y-115075000D03*
X134800000Y-117075000D03*
X134800000Y-119075000D03*
X134800000Y-121075000D03*
X134800000Y-123075000D03*
%TD*%
D14*
%TO.C,Q27*%
X140837500Y-85525000D03*
X140837500Y-88065000D03*
X146987500Y-88065000D03*
X146987500Y-85525000D03*
%TD*%
D17*
%TO.C,C22*%
X111760050Y-112139950D03*
X112537868Y-111362132D03*
%TD*%
D18*
%TO.C,D3*%
X136425000Y-79775000D03*
X134725000Y-79775000D03*
%TD*%
%TO.C,D11*%
X152410000Y-115840000D03*
X154110000Y-115840000D03*
%TD*%
D14*
%TO.C,Q7*%
X148825000Y-97605000D03*
X148825000Y-100145000D03*
X154975000Y-100145000D03*
X154975000Y-97605000D03*
%TD*%
D19*
%TO.C,U10*%
X122690000Y-93210000D03*
X122690000Y-93610000D03*
X122690000Y-94010000D03*
X122690000Y-94410000D03*
X122690000Y-94810000D03*
X122690000Y-95210000D03*
X122690000Y-95610000D03*
X122690000Y-96010000D03*
X122690000Y-96410000D03*
X122690000Y-96810000D03*
X122690000Y-97210000D03*
X122690000Y-97610000D03*
X122690000Y-98010000D03*
X122690000Y-98410000D03*
D20*
X123525000Y-99245000D03*
X123925000Y-99245000D03*
X124325000Y-99245000D03*
X124725000Y-99245000D03*
X125125000Y-99245000D03*
X125525000Y-99245000D03*
X125925000Y-99245000D03*
X126325000Y-99245000D03*
X126725000Y-99245000D03*
X127125000Y-99245000D03*
X127525000Y-99245000D03*
X127925000Y-99245000D03*
X128325000Y-99245000D03*
X128725000Y-99245000D03*
D19*
X129560000Y-98410000D03*
X129560000Y-98010000D03*
X129560000Y-97610000D03*
X129560000Y-97210000D03*
X129560000Y-96810000D03*
X129560000Y-96410000D03*
X129560000Y-96010000D03*
X129560000Y-95610000D03*
X129560000Y-95210000D03*
X129560000Y-94810000D03*
X129560000Y-94410000D03*
X129560000Y-94010000D03*
X129560000Y-93610000D03*
X129560000Y-93210000D03*
D20*
X128725000Y-92375000D03*
X128325000Y-92375000D03*
X127925000Y-92375000D03*
X127525000Y-92375000D03*
X127125000Y-92375000D03*
X126725000Y-92375000D03*
X126325000Y-92375000D03*
X125925000Y-92375000D03*
X125525000Y-92375000D03*
X125125000Y-92375000D03*
X124725000Y-92375000D03*
X124325000Y-92375000D03*
X123925000Y-92375000D03*
X123525000Y-92375000D03*
%TD*%
D21*
%TO.C,SW2*%
X137400000Y-78330000D03*
X137400000Y-76180000D03*
X132900000Y-78330000D03*
X132900000Y-76180000D03*
%TD*%
D22*
%TO.C,U15*%
X145270000Y-83275000D03*
X146540000Y-83275000D03*
X147810000Y-83275000D03*
X149080000Y-83275000D03*
X149080000Y-78325000D03*
X147810000Y-78325000D03*
X146540000Y-78325000D03*
X145270000Y-78325000D03*
%TD*%
D14*
%TO.C,Q17*%
X140860000Y-97600000D03*
X140860000Y-100140000D03*
X147010000Y-100140000D03*
X147010000Y-97600000D03*
%TD*%
D23*
%TO.C,SW7*%
X172325000Y-114400000D03*
D24*
X170950000Y-122600000D03*
X170950000Y-106200000D03*
X160950000Y-122600000D03*
X160950000Y-106200000D03*
D23*
X159575000Y-114400000D03*
D25*
X168450000Y-106700000D03*
X163450000Y-106700000D03*
X165950000Y-106700000D03*
D26*
X168450000Y-121400000D03*
X163450000Y-121400000D03*
%TD*%
D27*
%TO.C,R18*%
X112575000Y-122100000D03*
X112575000Y-123200000D03*
%TD*%
D12*
%TO.C,C24*%
X108013909Y-103413909D03*
X107236091Y-102636091D03*
%TD*%
D28*
%TO.C,D4*%
X120030000Y-84160000D03*
X120030000Y-86960000D03*
%TD*%
D29*
%TO.C,C30*%
X148125000Y-76225000D03*
X149225000Y-76225000D03*
%TD*%
D30*
%TO.C,J2*%
X125200000Y-123050000D03*
X132650000Y-123050000D03*
D31*
X127050000Y-119850000D03*
X128300000Y-119850000D03*
X129550000Y-119850000D03*
X130800000Y-119850000D03*
%TD*%
D21*
%TO.C,SW3*%
X111150000Y-123255000D03*
X111150000Y-121105000D03*
X106650000Y-123255000D03*
X106650000Y-121105000D03*
%TD*%
D32*
%TO.C,R15*%
X106826041Y-105251041D03*
X105623959Y-104048959D03*
%TD*%
D21*
%TO.C,SW6*%
X143650000Y-78330000D03*
X143650000Y-76180000D03*
X139150000Y-78330000D03*
X139150000Y-76180000D03*
%TD*%
D33*
%TO.C,C20*%
X105686091Y-107036091D03*
X106463909Y-107813909D03*
%TD*%
D14*
%TO.C,Q15*%
X173300000Y-103025000D03*
X173300000Y-100485000D03*
X167150000Y-100485000D03*
X167150000Y-103025000D03*
%TD*%
D34*
%TO.C,R16*%
X114675000Y-98775000D03*
X116375000Y-98775000D03*
%TD*%
D27*
%TO.C,C14*%
X123875000Y-89325000D03*
X123875000Y-88225000D03*
%TD*%
D14*
%TO.C,Q22*%
X148845000Y-89515000D03*
X148845000Y-92055000D03*
X154995000Y-92055000D03*
X154995000Y-89515000D03*
%TD*%
D27*
%TO.C,C10*%
X126050000Y-89325000D03*
X126050000Y-88225000D03*
%TD*%
%TO.C,C34*%
X151800000Y-109125000D03*
X151800000Y-108025000D03*
%TD*%
D35*
%TO.C,U1*%
X129985000Y-83445000D03*
X129185000Y-83445000D03*
X127885000Y-83445000D03*
X126885000Y-83445000D03*
X126385000Y-83445000D03*
X125385000Y-83445000D03*
X124085000Y-83445000D03*
X123285000Y-83445000D03*
X123585000Y-83445000D03*
X124385000Y-83445000D03*
X124885000Y-83445000D03*
X125885000Y-83445000D03*
X127385000Y-83445000D03*
X128385000Y-83445000D03*
X128885000Y-83445000D03*
X129685000Y-83445000D03*
%TD*%
D17*
%TO.C,C19*%
X107186091Y-106988909D03*
X107963909Y-106211091D03*
%TD*%
D27*
%TO.C,C12*%
X131450000Y-90250000D03*
X131450000Y-89150000D03*
%TD*%
D11*
%TO.C,R28*%
X114650000Y-119475000D03*
X114650000Y-117775000D03*
%TD*%
D14*
%TO.C,Q14*%
X154900000Y-104835000D03*
X154900000Y-102295000D03*
X148750000Y-102295000D03*
X148750000Y-104835000D03*
%TD*%
D36*
%TO.C,C2*%
X111775000Y-96050000D03*
X111775000Y-97750000D03*
%TD*%
D27*
%TO.C,R4*%
X127275000Y-103275000D03*
X127275000Y-102175000D03*
%TD*%
D29*
%TO.C,C32*%
X135180000Y-93430000D03*
X136280000Y-93430000D03*
%TD*%
D14*
%TO.C,Q26*%
X173300000Y-95025000D03*
X173300000Y-92485000D03*
X167150000Y-92485000D03*
X167150000Y-95025000D03*
%TD*%
D27*
%TO.C,C8*%
X128360000Y-102150000D03*
X128360000Y-103250000D03*
%TD*%
D14*
%TO.C,Q34*%
X148837500Y-85510000D03*
X148837500Y-88050000D03*
X154987500Y-88050000D03*
X154987500Y-85510000D03*
%TD*%
D29*
%TO.C,C13*%
X120525000Y-93225000D03*
X119425000Y-93225000D03*
%TD*%
D27*
%TO.C,C15*%
X129450000Y-102150000D03*
X129450000Y-103250000D03*
%TD*%
D11*
%TO.C,R25*%
X118550000Y-115475000D03*
X118550000Y-113775000D03*
%TD*%
D29*
%TO.C,C7*%
X131835000Y-93235000D03*
X132935000Y-93235000D03*
%TD*%
D37*
%TO.C,R11*%
X119950000Y-113775000D03*
X119950000Y-115475000D03*
%TD*%
D38*
%TO.C,Y3*%
X125885000Y-104485000D03*
X125885000Y-102285000D03*
X124285000Y-102285000D03*
X124285000Y-104485000D03*
%TD*%
D36*
%TO.C,C29*%
X150600000Y-83825000D03*
X150600000Y-82125000D03*
%TD*%
%TO.C,D10*%
X164750000Y-79075000D03*
X164750000Y-77375000D03*
%TD*%
D12*
%TO.C,C23*%
X110788909Y-100713909D03*
X110011091Y-99936091D03*
%TD*%
D34*
%TO.C,R2*%
X128825000Y-86075000D03*
X130525000Y-86075000D03*
%TD*%
D14*
%TO.C,Q20*%
X173290000Y-99010000D03*
X173290000Y-96470000D03*
X167140000Y-96470000D03*
X167140000Y-99010000D03*
%TD*%
D27*
%TO.C,C3*%
X111750000Y-93500000D03*
X111750000Y-92400000D03*
%TD*%
D39*
%TO.C,D9*%
X114300000Y-120850000D03*
X114300000Y-123900000D03*
%TD*%
D27*
%TO.C,C17*%
X130375000Y-90250000D03*
X130375000Y-89150000D03*
%TD*%
%TO.C,R24*%
X128225000Y-89150000D03*
X128225000Y-90250000D03*
%TD*%
D29*
%TO.C,C25*%
X131825000Y-96800000D03*
X132925000Y-96800000D03*
%TD*%
D14*
%TO.C,Q11*%
X140875000Y-93625000D03*
X140875000Y-96165000D03*
X147025000Y-96165000D03*
X147025000Y-93625000D03*
%TD*%
D40*
%TO.C,J6*%
X160348175Y-98315000D03*
X160348175Y-86665000D03*
D41*
X163548175Y-96990000D03*
X157948175Y-96990000D03*
X163548175Y-95990000D03*
X157948175Y-95990000D03*
X163548175Y-94990000D03*
X157948175Y-94990000D03*
X163548175Y-93990000D03*
X157948175Y-93990000D03*
X163548175Y-92990000D03*
X157948175Y-92990000D03*
X163548175Y-91990000D03*
X157948175Y-91990000D03*
X163548175Y-90990000D03*
X157948175Y-90990000D03*
X163548175Y-89990000D03*
X157948175Y-89990000D03*
X163548175Y-88990000D03*
X157948175Y-88990000D03*
X163548175Y-87990000D03*
X157948175Y-87990000D03*
%TD*%
D14*
%TO.C,Q23*%
X173325000Y-91000000D03*
X173325000Y-88460000D03*
X167175000Y-88460000D03*
X167175000Y-91000000D03*
%TD*%
D27*
%TO.C,C28*%
X143900000Y-81875000D03*
X143900000Y-82975000D03*
%TD*%
%TO.C,R23*%
X127150000Y-89150000D03*
X127150000Y-90250000D03*
%TD*%
D33*
%TO.C,C21*%
X107661091Y-110411091D03*
X108438909Y-111188909D03*
%TD*%
D29*
%TO.C,C9*%
X120710000Y-97890000D03*
X119610000Y-97890000D03*
%TD*%
D34*
%TO.C,R1*%
X123310000Y-86090000D03*
X125010000Y-86090000D03*
%TD*%
D42*
%TO.C,Y1*%
X108923134Y-109631587D03*
X110478769Y-111187222D03*
X111610140Y-110055851D03*
X110054505Y-108500216D03*
%TD*%
D18*
%TO.C,D12*%
X152400000Y-117790000D03*
X154100000Y-117790000D03*
%TD*%
D17*
%TO.C,R81*%
X108436091Y-107938909D03*
X109213909Y-107161091D03*
%TD*%
D27*
%TO.C,C6*%
X105350000Y-100375000D03*
X105350000Y-101475000D03*
%TD*%
D22*
%TO.C,U4*%
X135020000Y-91500000D03*
X136290000Y-91500000D03*
X137560000Y-91500000D03*
X138830000Y-91500000D03*
X138830000Y-86550000D03*
X137560000Y-86550000D03*
X136290000Y-86550000D03*
X135020000Y-86550000D03*
%TD*%
D14*
%TO.C,Q9*%
X164250000Y-102800000D03*
X164250000Y-100260000D03*
X158100000Y-100260000D03*
X158100000Y-102800000D03*
%TD*%
D27*
%TO.C,C4*%
X122900000Y-104400000D03*
X122900000Y-103300000D03*
%TD*%
D43*
%TO.C,U17*%
X164630000Y-83160000D03*
D44*
X164180000Y-82210000D03*
X163680000Y-82210000D03*
X163180000Y-82210000D03*
X162680000Y-82210000D03*
X162180000Y-82210000D03*
X161680000Y-82210000D03*
D43*
X161230000Y-83160000D03*
X161230000Y-83660000D03*
D44*
X161680000Y-84610000D03*
X162180000Y-84610000D03*
X162680000Y-84610000D03*
X163180000Y-84610000D03*
X163680000Y-84610000D03*
X164180000Y-84610000D03*
D43*
X164630000Y-83660000D03*
%TD*%
D27*
%TO.C,C11*%
X124975000Y-89325000D03*
X124975000Y-88225000D03*
%TD*%
D29*
%TO.C,R17*%
X132525000Y-79550000D03*
X133625000Y-79550000D03*
%TD*%
D30*
%TO.C,J5*%
X116100000Y-123075000D03*
X123550000Y-123075000D03*
D31*
X117950000Y-119875000D03*
X119200000Y-119875000D03*
X120450000Y-119875000D03*
X121700000Y-119875000D03*
%TD*%
D39*
%TO.C,D8*%
X116325000Y-114980000D03*
X116325000Y-118030000D03*
%TD*%
D27*
%TO.C,C16*%
X129300000Y-90250000D03*
X129300000Y-89150000D03*
%TD*%
D45*
%TO.C,U3*%
X109930000Y-92800000D03*
X108660000Y-92800000D03*
X107390000Y-92800000D03*
X106120000Y-92800000D03*
X106120000Y-97750000D03*
X107390000Y-97750000D03*
X108660000Y-97750000D03*
X109930000Y-97750000D03*
%TD*%
D46*
%TO.C,U11*%
X114455000Y-95122500D03*
X116455000Y-95122500D03*
X114455000Y-93422500D03*
X116455000Y-93422500D03*
D47*
X113550000Y-96935000D03*
X114820000Y-96935000D03*
X116090000Y-96935000D03*
X117360000Y-96935000D03*
X117360000Y-91610000D03*
X116090000Y-91610000D03*
X114820000Y-91610000D03*
X113550000Y-91610000D03*
%TD*%
D48*
%TO.C,U13*%
X116944113Y-103963604D03*
X116484493Y-103503984D03*
X116024874Y-103044365D03*
X115565254Y-102584746D03*
X115105635Y-102125126D03*
X114646016Y-101665507D03*
X114186396Y-101205887D03*
D49*
X112913604Y-101205887D03*
X112453984Y-101665507D03*
X111994365Y-102125126D03*
X111534746Y-102584746D03*
X111075126Y-103044365D03*
X110615507Y-103503984D03*
X110155887Y-103963604D03*
D48*
X110155887Y-105236396D03*
X110615507Y-105696016D03*
X111075126Y-106155635D03*
X111534746Y-106615254D03*
X111994365Y-107074874D03*
X112453984Y-107534493D03*
X112913604Y-107994113D03*
D49*
X114186396Y-107994113D03*
X114646016Y-107534493D03*
X115105635Y-107074874D03*
X115565254Y-106615254D03*
X116024874Y-106155635D03*
X116484493Y-105696016D03*
X116944113Y-105236396D03*
D50*
X113550000Y-104600000D03*
%TD*%
D29*
%TO.C,C1*%
X109800000Y-90950000D03*
X108700000Y-90950000D03*
%TD*%
D51*
%TO.C,J4*%
X161474999Y-76909978D03*
X156525001Y-76909978D03*
D52*
X159625000Y-80119979D03*
X158375000Y-80119979D03*
%TD*%
D53*
%TO.C,U2*%
X109965000Y-114750000D03*
X109965000Y-119050000D03*
X108695000Y-114750000D03*
X108695000Y-119050000D03*
X107425000Y-114750000D03*
X107425000Y-119050000D03*
X106155000Y-114750000D03*
X106155000Y-119050000D03*
X104885000Y-114750000D03*
X104885000Y-119050000D03*
%TD*%
D14*
%TO.C,Q1*%
X140780000Y-102280000D03*
X140780000Y-104820000D03*
X146930000Y-104820000D03*
X146930000Y-102280000D03*
%TD*%
D29*
%TO.C,C5*%
X127225000Y-104450000D03*
X128325000Y-104450000D03*
%TD*%
D14*
%TO.C,Q18*%
X148835000Y-93610000D03*
X148835000Y-96150000D03*
X154985000Y-96150000D03*
X154985000Y-93610000D03*
%TD*%
D29*
%TO.C,C18*%
X105720000Y-90950000D03*
X106820000Y-90950000D03*
%TD*%
D14*
%TO.C,Q31*%
X173325000Y-87000000D03*
X173325000Y-84460000D03*
X167175000Y-84460000D03*
X167175000Y-87000000D03*
%TD*%
D11*
%TO.C,R27*%
X114650000Y-116600000D03*
X114650000Y-114900000D03*
%TD*%
M02*
