%TF.GenerationSoftware,KiCad,Pcbnew,7.0.7*%
%TF.CreationDate,2023-09-03T21:13:37-04:00*%
%TF.ProjectId,eOPRA_interface,654f5052-415f-4696-9e74-657266616365,rev?*%
%TF.SameCoordinates,Original*%
%TF.FileFunction,Legend,Top*%
%TF.FilePolarity,Positive*%
%FSLAX46Y46*%
G04 Gerber Fmt 4.6, Leading zero omitted, Abs format (unit mm)*
G04 Created by KiCad (PCBNEW 7.0.7) date 2023-09-03 21:13:37*
%MOMM*%
%LPD*%
G01*
G04 APERTURE LIST*
%ADD10C,0.100000*%
%ADD11C,0.120000*%
%ADD12C,0.250000*%
%ADD13C,0.127000*%
%ADD14C,0.200000*%
%ADD15C,0.240000*%
%ADD16C,0.150000*%
%ADD17C,0.152400*%
G04 APERTURE END LIST*
D10*
%TO.C,R29*%
X163725000Y-77675000D02*
X163725000Y-78775000D01*
X162625000Y-78775000D02*
X162625000Y-77675000D01*
%TO.C,C35*%
X118261612Y-102837652D02*
X117837348Y-102413388D01*
X118438388Y-101812348D02*
X118862652Y-102236612D01*
%TO.C,C33*%
X116661612Y-101262652D02*
X116237348Y-100838388D01*
X116838388Y-100237348D02*
X117262652Y-100661612D01*
D11*
%TO.C,D1*%
X107198924Y-101514411D02*
X108195944Y-102511432D01*
X109836432Y-100870944D02*
X108401005Y-99435517D01*
X109836432Y-100870944D02*
X109369741Y-101337635D01*
X108662635Y-102044741D02*
X108195944Y-102511432D01*
D12*
%TO.C,Q30*%
X140920000Y-90320000D02*
G75*
G03*
X140920000Y-90320000I-125000J0D01*
G01*
D13*
%TO.C,U5*%
X105625000Y-88800000D02*
X106625000Y-88800000D01*
X106125000Y-89300000D02*
X106125000Y-88300000D01*
X116975000Y-88800000D02*
X117975000Y-88800000D01*
%TO.C,U16*%
X150300000Y-108075000D02*
X150300000Y-107575000D01*
X150300000Y-107575000D02*
X148300000Y-107575000D01*
X148300000Y-123815000D02*
X136300000Y-123815000D01*
X148300000Y-108815000D02*
X148300000Y-123815000D01*
X136300000Y-123815000D02*
X136300000Y-108815000D01*
X136300000Y-108815000D02*
X148300000Y-108815000D01*
X134300000Y-108075000D02*
X134300000Y-107575000D01*
X134300000Y-107575000D02*
X136300000Y-107575000D01*
X151800000Y-123950000D02*
G75*
G03*
X151800000Y-123950000I-250000J0D01*
G01*
D12*
%TO.C,Q27*%
X140937500Y-86325000D02*
G75*
G03*
X140937500Y-86325000I-125000J0D01*
G01*
D11*
%TO.C,SW4*%
X166725000Y-82725000D02*
X173200000Y-82725000D01*
X173200000Y-82725000D02*
X173200000Y-76250000D01*
X173200000Y-76250000D02*
X166725000Y-76250000D01*
X166725000Y-76250000D02*
X166725000Y-82725000D01*
D10*
%TO.C,C22*%
X111636307Y-111662653D02*
X112060571Y-111238389D01*
X112661611Y-111839429D02*
X112237347Y-112263693D01*
D11*
%TO.C,D3*%
X136875000Y-80475000D02*
X136875000Y-79075000D01*
X136875000Y-80475000D02*
X134775000Y-80475000D01*
X136875000Y-79075000D02*
X134775000Y-79075000D01*
%TO.C,D11*%
X151960000Y-115140000D02*
X151960000Y-116540000D01*
X151960000Y-115140000D02*
X154060000Y-115140000D01*
X151960000Y-116540000D02*
X154060000Y-116540000D01*
D12*
%TO.C,Q7*%
X148925000Y-98405000D02*
G75*
G03*
X148925000Y-98405000I-125000J0D01*
G01*
D13*
%TO.C,U10*%
X122625000Y-92310000D02*
X122625000Y-92790000D01*
X122625000Y-92310000D02*
X123105000Y-92310000D01*
X122625000Y-99310000D02*
X122625000Y-98830000D01*
X122625000Y-99310000D02*
X123105000Y-99310000D01*
X129625000Y-92310000D02*
X129145000Y-92310000D01*
X129625000Y-92310000D02*
X129625000Y-92790000D01*
X129625000Y-99310000D02*
X129145000Y-99310000D01*
X129625000Y-99310000D02*
X129625000Y-98830000D01*
D14*
X121750000Y-93210000D02*
G75*
G03*
X121750000Y-93210000I-100000J0D01*
G01*
D11*
%TO.C,U15*%
X144615000Y-80800000D02*
X144615000Y-84250000D01*
X144615000Y-80800000D02*
X144615000Y-78850000D01*
X149735000Y-80800000D02*
X149735000Y-82750000D01*
X149735000Y-80800000D02*
X149735000Y-78850000D01*
D12*
%TO.C,Q17*%
X140960000Y-98400000D02*
G75*
G03*
X140960000Y-98400000I-125000J0D01*
G01*
D11*
%TO.C,SW7*%
X174450000Y-124450000D02*
X157450000Y-124450000D01*
X157450000Y-124450000D02*
X157450000Y-104350000D01*
X157450000Y-104350000D02*
X174450000Y-104350000D01*
X174450000Y-104350000D02*
X174450000Y-124450000D01*
D10*
%TO.C,R18*%
X113000000Y-122350000D02*
X113000000Y-122950000D01*
X112150000Y-122950000D02*
X112150000Y-122350000D01*
%TO.C,C24*%
X107536612Y-103537652D02*
X107112348Y-103113388D01*
X107713388Y-102512348D02*
X108137652Y-102936612D01*
D11*
%TO.C,D4*%
X121030000Y-83360000D02*
X119030000Y-83360000D01*
X121030000Y-83360000D02*
X121030000Y-87210000D01*
X119030000Y-83360000D02*
X119030000Y-87210000D01*
D10*
%TO.C,C30*%
X148375000Y-75800000D02*
X148975000Y-75800000D01*
X148975000Y-76650000D02*
X148375000Y-76650000D01*
D13*
%TO.C,J2*%
X124800000Y-120100000D02*
X126565000Y-120100000D01*
X124800000Y-121520000D02*
X124800000Y-120100000D01*
X125885000Y-124150000D02*
X131975000Y-124150000D01*
X133050000Y-120100000D02*
X131285000Y-120100000D01*
X133050000Y-121530000D02*
X133050000Y-120100000D01*
D14*
X126425000Y-119475000D02*
G75*
G03*
X126425000Y-119475000I-100000J0D01*
G01*
D10*
%TO.C,R15*%
X106225000Y-105427817D02*
X105447183Y-104650000D01*
X106225000Y-103872183D02*
X107002817Y-104650000D01*
%TO.C,C20*%
X106163388Y-106912348D02*
X106587652Y-107336612D01*
X105986612Y-107937652D02*
X105562348Y-107513388D01*
D12*
%TO.C,Q15*%
X173450000Y-102225000D02*
G75*
G03*
X173450000Y-102225000I-125000J0D01*
G01*
D10*
%TO.C,R16*%
X114975000Y-98225000D02*
X116075000Y-98225000D01*
X116075000Y-99325000D02*
X114975000Y-99325000D01*
%TO.C,C14*%
X123450000Y-89075000D02*
X123450000Y-88475000D01*
X124300000Y-88475000D02*
X124300000Y-89075000D01*
D12*
%TO.C,Q22*%
X148945000Y-90315000D02*
G75*
G03*
X148945000Y-90315000I-125000J0D01*
G01*
D10*
%TO.C,C10*%
X125625000Y-89075000D02*
X125625000Y-88475000D01*
X126475000Y-88475000D02*
X126475000Y-89075000D01*
%TO.C,C34*%
X151375000Y-108875000D02*
X151375000Y-108275000D01*
X152225000Y-108275000D02*
X152225000Y-108875000D01*
D11*
%TO.C,U1*%
X131215000Y-81625000D02*
X131215000Y-79705000D01*
X131215000Y-75990000D02*
X131215000Y-77695000D01*
X122055000Y-79705000D02*
X122055000Y-81625000D01*
X122055000Y-77695000D02*
X122055000Y-75990000D01*
X122055000Y-75990000D02*
X131215000Y-75990000D01*
D10*
%TO.C,C19*%
X107062348Y-106511612D02*
X107486612Y-106087348D01*
X108087652Y-106688388D02*
X107663388Y-107112652D01*
%TO.C,C12*%
X131025000Y-90000000D02*
X131025000Y-89400000D01*
X131875000Y-89400000D02*
X131875000Y-90000000D01*
%TO.C,R28*%
X114100000Y-119175000D02*
X114100000Y-118075000D01*
X115200000Y-118075000D02*
X115200000Y-119175000D01*
D12*
%TO.C,Q14*%
X155050000Y-104035000D02*
G75*
G03*
X155050000Y-104035000I-125000J0D01*
G01*
D10*
%TO.C,C2*%
X112325000Y-96350000D02*
X112325000Y-97450000D01*
X111225000Y-97450000D02*
X111225000Y-96350000D01*
%TO.C,R4*%
X126850000Y-103025000D02*
X126850000Y-102425000D01*
X127700000Y-102425000D02*
X127700000Y-103025000D01*
%TO.C,C32*%
X135430000Y-93005000D02*
X136030000Y-93005000D01*
X136030000Y-93855000D02*
X135430000Y-93855000D01*
D12*
%TO.C,Q26*%
X173450000Y-94225000D02*
G75*
G03*
X173450000Y-94225000I-125000J0D01*
G01*
D10*
%TO.C,C8*%
X128785000Y-102400000D02*
X128785000Y-103000000D01*
X127935000Y-103000000D02*
X127935000Y-102400000D01*
D12*
%TO.C,Q34*%
X148937500Y-86310000D02*
G75*
G03*
X148937500Y-86310000I-125000J0D01*
G01*
D10*
%TO.C,C13*%
X120275000Y-93650000D02*
X119675000Y-93650000D01*
X119675000Y-92800000D02*
X120275000Y-92800000D01*
%TO.C,C15*%
X129875000Y-102400000D02*
X129875000Y-103000000D01*
X129025000Y-103000000D02*
X129025000Y-102400000D01*
%TO.C,R25*%
X118000000Y-115175000D02*
X118000000Y-114075000D01*
X119100000Y-114075000D02*
X119100000Y-115175000D01*
%TO.C,C7*%
X132085000Y-92810000D02*
X132685000Y-92810000D01*
X132685000Y-93660000D02*
X132085000Y-93660000D01*
%TO.C,R11*%
X120500000Y-114075000D02*
X120500000Y-115175000D01*
X119400000Y-115175000D02*
X119400000Y-114075000D01*
D11*
%TO.C,Y3*%
X123585000Y-105335000D02*
X126585000Y-105335000D01*
X126585000Y-105335000D02*
X126585000Y-101435000D01*
X126585000Y-101435000D02*
X123585000Y-101435000D01*
X123585000Y-101435000D02*
X123585000Y-105335000D01*
D10*
%TO.C,C29*%
X150050000Y-83525000D02*
X150050000Y-82425000D01*
X151150000Y-82425000D02*
X151150000Y-83525000D01*
D11*
%TO.C,D10*%
X164050000Y-79525000D02*
X165450000Y-79525000D01*
X164050000Y-79525000D02*
X164050000Y-77425000D01*
X165450000Y-79525000D02*
X165450000Y-77425000D01*
D10*
%TO.C,C23*%
X110311612Y-100837652D02*
X109887348Y-100413388D01*
X110488388Y-99812348D02*
X110912652Y-100236612D01*
%TO.C,R2*%
X129125000Y-85525000D02*
X130225000Y-85525000D01*
X130225000Y-86625000D02*
X129125000Y-86625000D01*
D12*
%TO.C,Q20*%
X173440000Y-98210000D02*
G75*
G03*
X173440000Y-98210000I-125000J0D01*
G01*
D10*
%TO.C,C3*%
X111325000Y-93250000D02*
X111325000Y-92650000D01*
X112175000Y-92650000D02*
X112175000Y-93250000D01*
D11*
%TO.C,D9*%
X115150000Y-120150000D02*
X113450000Y-120150000D01*
X115150000Y-120150000D02*
X115150000Y-122700000D01*
X113450000Y-120150000D02*
X113450000Y-122700000D01*
D10*
%TO.C,C17*%
X129950000Y-90000000D02*
X129950000Y-89400000D01*
X130800000Y-89400000D02*
X130800000Y-90000000D01*
%TO.C,R24*%
X128650000Y-89400000D02*
X128650000Y-90000000D01*
X127800000Y-90000000D02*
X127800000Y-89400000D01*
%TO.C,C25*%
X132075000Y-96375000D02*
X132675000Y-96375000D01*
X132675000Y-97225000D02*
X132075000Y-97225000D01*
D12*
%TO.C,Q11*%
X140975000Y-94425000D02*
G75*
G03*
X140975000Y-94425000I-125000J0D01*
G01*
D13*
%TO.C,J6*%
X159108175Y-98640000D02*
X157708175Y-98640000D01*
X161598175Y-98640000D02*
X164818175Y-98640000D01*
X164818175Y-98640000D02*
X164818175Y-86340000D01*
X157708175Y-86340000D02*
X159108175Y-86340000D01*
X164818175Y-86340000D02*
X161598175Y-86340000D01*
D11*
X165523453Y-97010000D02*
G75*
G03*
X165523453Y-97010000I-180278J0D01*
G01*
D12*
%TO.C,Q23*%
X173475000Y-90200000D02*
G75*
G03*
X173475000Y-90200000I-125000J0D01*
G01*
D10*
%TO.C,C28*%
X144325000Y-82125000D02*
X144325000Y-82725000D01*
X143475000Y-82725000D02*
X143475000Y-82125000D01*
%TO.C,R23*%
X127575000Y-89400000D02*
X127575000Y-90000000D01*
X126725000Y-90000000D02*
X126725000Y-89400000D01*
%TO.C,C21*%
X108138388Y-110287348D02*
X108562652Y-110711612D01*
X107961612Y-111312652D02*
X107537348Y-110888388D01*
%TO.C,C9*%
X120460000Y-98315000D02*
X119860000Y-98315000D01*
X119860000Y-97465000D02*
X120460000Y-97465000D01*
%TO.C,R1*%
X123610000Y-85540000D02*
X124710000Y-85540000D01*
X124710000Y-86640000D02*
X123610000Y-86640000D01*
D11*
%TO.C,Y1*%
X109948439Y-107404200D02*
X112706155Y-110161917D01*
X112706155Y-110161917D02*
X110584835Y-112283237D01*
X110584835Y-112283237D02*
X107827118Y-109525521D01*
X107827118Y-109525521D02*
X109948439Y-107404200D01*
%TO.C,D12*%
X151950000Y-117090000D02*
X151950000Y-118490000D01*
X151950000Y-117090000D02*
X154050000Y-117090000D01*
X151950000Y-118490000D02*
X154050000Y-118490000D01*
D10*
%TO.C,R81*%
X108312348Y-107461612D02*
X108736612Y-107037348D01*
X109337652Y-107638388D02*
X108913388Y-108062652D01*
%TO.C,C6*%
X105775000Y-100625000D02*
X105775000Y-101225000D01*
X104925000Y-101225000D02*
X104925000Y-100625000D01*
D11*
%TO.C,U4*%
X134365000Y-89025000D02*
X134365000Y-92475000D01*
X134365000Y-89025000D02*
X134365000Y-87075000D01*
X139485000Y-89025000D02*
X139485000Y-90975000D01*
X139485000Y-89025000D02*
X139485000Y-87075000D01*
D12*
%TO.C,Q9*%
X164400000Y-102000000D02*
G75*
G03*
X164400000Y-102000000I-125000J0D01*
G01*
D10*
%TO.C,C4*%
X122475000Y-104150000D02*
X122475000Y-103550000D01*
X123325000Y-103550000D02*
X123325000Y-104150000D01*
D13*
%TO.C,U17*%
X165708575Y-83193000D02*
G75*
G03*
X165708575Y-83193000I-108575J0D01*
G01*
D10*
%TO.C,C11*%
X124550000Y-89075000D02*
X124550000Y-88475000D01*
X125400000Y-88475000D02*
X125400000Y-89075000D01*
%TO.C,R17*%
X132775000Y-79125000D02*
X133375000Y-79125000D01*
X133375000Y-79975000D02*
X132775000Y-79975000D01*
D13*
%TO.C,J5*%
X115700000Y-120125000D02*
X117465000Y-120125000D01*
X115700000Y-121545000D02*
X115700000Y-120125000D01*
X116785000Y-124175000D02*
X122875000Y-124175000D01*
X123950000Y-120125000D02*
X122185000Y-120125000D01*
X123950000Y-121555000D02*
X123950000Y-120125000D01*
D14*
X117325000Y-119500000D02*
G75*
G03*
X117325000Y-119500000I-100000J0D01*
G01*
D11*
%TO.C,D8*%
X117175000Y-114280000D02*
X115475000Y-114280000D01*
X117175000Y-114280000D02*
X117175000Y-116830000D01*
X115475000Y-114280000D02*
X115475000Y-116830000D01*
D10*
%TO.C,C16*%
X128875000Y-90000000D02*
X128875000Y-89400000D01*
X129725000Y-89400000D02*
X129725000Y-90000000D01*
D11*
%TO.C,U3*%
X110585000Y-95275000D02*
X110585000Y-91825000D01*
X110585000Y-95275000D02*
X110585000Y-97225000D01*
X105465000Y-95275000D02*
X105465000Y-93325000D01*
X105465000Y-95275000D02*
X105465000Y-97225000D01*
D15*
%TO.C,SP1*%
X122625000Y-114075000D02*
X123625000Y-114075000D01*
X123125000Y-113575000D02*
X123125000Y-114575000D01*
D11*
%TO.C,U11*%
X118065000Y-97272500D02*
X118065000Y-91272500D01*
X112845000Y-94272500D02*
X112845000Y-91272500D01*
D16*
%TO.C,U13*%
X117898707Y-104600000D02*
X117499191Y-104999515D01*
X117499191Y-104200485D02*
X117898707Y-104600000D01*
X113550000Y-100251293D02*
X113949515Y-100650809D01*
X113550000Y-100251293D02*
X113150485Y-100650809D01*
X113949515Y-108549191D02*
X113550000Y-108948707D01*
X109600809Y-104200485D02*
X109201293Y-104600000D01*
X113150485Y-108549191D02*
X113550000Y-108948707D01*
X109201293Y-104600000D02*
X109600809Y-104999515D01*
D12*
X117864608Y-103168109D02*
G75*
G03*
X117864608Y-103168109I-125000J0D01*
G01*
D10*
%TO.C,C1*%
X109550000Y-91375000D02*
X108950000Y-91375000D01*
X108950000Y-90525000D02*
X109550000Y-90525000D01*
D17*
%TO.C,J4*%
X161997200Y-79921300D02*
X161997200Y-78638628D01*
X160646959Y-75628700D02*
X157353041Y-75628700D01*
X160287940Y-79921300D02*
X161997200Y-79921300D01*
X156002800Y-79921300D02*
X157712060Y-79921300D01*
X156002800Y-78638628D02*
X156002800Y-79921300D01*
D14*
X160601554Y-80500000D02*
G75*
G03*
X160601554Y-80500000I-201554J0D01*
G01*
%TO.C,G\u002A\u002A\u002A*%
G36*
X137824333Y-101764667D02*
G01*
X137824333Y-102653667D01*
X137528000Y-102653667D01*
X137329388Y-102666774D01*
X137247936Y-102740720D01*
X137231703Y-102927445D01*
X137231667Y-102950001D01*
X137244773Y-103148612D01*
X137318719Y-103230065D01*
X137505444Y-103246297D01*
X137528000Y-103246334D01*
X137824333Y-103246334D01*
X137824333Y-104135334D01*
X137824333Y-105024334D01*
X135750000Y-105024334D01*
X133675667Y-105024334D01*
X133675667Y-102950001D01*
X133675667Y-101468334D01*
X134268333Y-101468334D01*
X134268333Y-102950001D01*
X134268333Y-104431667D01*
X135750000Y-104431667D01*
X137231667Y-104431667D01*
X137231667Y-103839001D01*
X137231667Y-103246334D01*
X136342667Y-103246334D01*
X135453667Y-103246334D01*
X135453667Y-102950001D01*
X135453667Y-102653667D01*
X136342667Y-102653667D01*
X137231667Y-102653667D01*
X137231667Y-102061001D01*
X137231667Y-101468334D01*
X135750000Y-101468334D01*
X134268333Y-101468334D01*
X133675667Y-101468334D01*
X133675667Y-100875667D01*
X135750000Y-100875667D01*
X137824333Y-100875667D01*
X137824333Y-101764667D01*
G37*
D11*
%TO.C,JP4*%
X118425000Y-117675000D02*
X118425000Y-117075000D01*
X119125000Y-116375000D02*
X120525000Y-116375000D01*
X120525000Y-118375000D02*
X119125000Y-118375000D01*
X121225000Y-117075000D02*
X121225000Y-117675000D01*
X119125000Y-116375000D02*
G75*
G03*
X118425000Y-117075000I-1J-699999D01*
G01*
X118425000Y-117675000D02*
G75*
G03*
X119125000Y-118375000I699999J-1D01*
G01*
X121225000Y-117075000D02*
G75*
G03*
X120525000Y-116375000I-700000J0D01*
G01*
X120525000Y-118375000D02*
G75*
G03*
X121225000Y-117675000I0J700000D01*
G01*
D13*
%TO.C,U2*%
X113925000Y-114200000D02*
X110625000Y-114200000D01*
X100925000Y-114200000D02*
X104225000Y-114200000D01*
X113925000Y-119600000D02*
X113925000Y-114200000D01*
X110625000Y-119600000D02*
X113925000Y-119600000D01*
X104225000Y-119600000D02*
X100925000Y-119600000D01*
X100925000Y-119600000D02*
X100925000Y-114200000D01*
D11*
X111010078Y-113650000D02*
G75*
G03*
X111010078Y-113650000I-160078J0D01*
G01*
D12*
%TO.C,Q1*%
X140880000Y-103080000D02*
G75*
G03*
X140880000Y-103080000I-125000J0D01*
G01*
D10*
%TO.C,C5*%
X127475000Y-104025000D02*
X128075000Y-104025000D01*
X128075000Y-104875000D02*
X127475000Y-104875000D01*
D12*
%TO.C,Q18*%
X148935000Y-94410000D02*
G75*
G03*
X148935000Y-94410000I-125000J0D01*
G01*
D10*
%TO.C,C18*%
X105970000Y-90525000D02*
X106570000Y-90525000D01*
X106570000Y-91375000D02*
X105970000Y-91375000D01*
D12*
%TO.C,Q31*%
X173475000Y-86200000D02*
G75*
G03*
X173475000Y-86200000I-125000J0D01*
G01*
D10*
%TO.C,R27*%
X114100000Y-116300000D02*
X114100000Y-115200000D01*
X115200000Y-115200000D02*
X115200000Y-116300000D01*
%TD*%
M02*
