%TF.GenerationSoftware,KiCad,Pcbnew,7.0.7*%
%TF.CreationDate,2023-09-03T21:13:37-04:00*%
%TF.ProjectId,eOPRA_interface,654f5052-415f-4696-9e74-657266616365,rev?*%
%TF.SameCoordinates,Original*%
%TF.FileFunction,Copper,L1,Top*%
%TF.FilePolarity,Positive*%
%FSLAX46Y46*%
G04 Gerber Fmt 4.6, Leading zero omitted, Abs format (unit mm)*
G04 Created by KiCad (PCBNEW 7.0.7) date 2023-09-03 21:13:37*
%MOMM*%
%LPD*%
G01*
G04 APERTURE LIST*
G04 Aperture macros list*
%AMRoundRect*
0 Rectangle with rounded corners*
0 $1 Rounding radius*
0 $2 $3 $4 $5 $6 $7 $8 $9 X,Y pos of 4 corners*
0 Add a 4 corners polygon primitive as box body*
4,1,4,$2,$3,$4,$5,$6,$7,$8,$9,$2,$3,0*
0 Add four circle primitives for the rounded corners*
1,1,$1+$1,$2,$3*
1,1,$1+$1,$4,$5*
1,1,$1+$1,$6,$7*
1,1,$1+$1,$8,$9*
0 Add four rect primitives between the rounded corners*
20,1,$1+$1,$2,$3,$4,$5,0*
20,1,$1+$1,$4,$5,$6,$7,0*
20,1,$1+$1,$6,$7,$8,$9,0*
20,1,$1+$1,$8,$9,$2,$3,0*%
%AMRotRect*
0 Rectangle, with rotation*
0 The origin of the aperture is its center*
0 $1 length*
0 $2 width*
0 $3 Rotation angle, in degrees counterclockwise*
0 Add horizontal line*
21,1,$1,$2,0,0,$3*%
%AMFreePoly0*
4,1,19,0.500000,-0.750000,0.000000,-0.750000,0.000000,-0.744911,-0.071157,-0.744911,-0.207708,-0.704816,-0.327430,-0.627875,-0.420627,-0.520320,-0.479746,-0.390866,-0.500000,-0.250000,-0.500000,0.250000,-0.479746,0.390866,-0.420627,0.520320,-0.327430,0.627875,-0.207708,0.704816,-0.071157,0.744911,0.000000,0.744911,0.000000,0.750000,0.500000,0.750000,0.500000,-0.750000,0.500000,-0.750000,
$1*%
%AMFreePoly1*
4,1,19,0.000000,0.744911,0.071157,0.744911,0.207708,0.704816,0.327430,0.627875,0.420627,0.520320,0.479746,0.390866,0.500000,0.250000,0.500000,-0.250000,0.479746,-0.390866,0.420627,-0.520320,0.327430,-0.627875,0.207708,-0.704816,0.071157,-0.744911,0.000000,-0.744911,0.000000,-0.750000,-0.500000,-0.750000,-0.500000,0.750000,0.000000,0.750000,0.000000,0.744911,0.000000,0.744911,
$1*%
G04 Aperture macros list end*
%TA.AperFunction,SMDPad,CuDef*%
%ADD10RoundRect,0.150000X0.250000X-0.150000X0.250000X0.150000X-0.250000X0.150000X-0.250000X-0.150000X0*%
%TD*%
%TA.AperFunction,SMDPad,CuDef*%
%ADD11RotRect,0.500000X0.600000X135.000000*%
%TD*%
%TA.AperFunction,SMDPad,CuDef*%
%ADD12RotRect,0.450000X0.700000X225.000000*%
%TD*%
%TA.AperFunction,SMDPad,CuDef*%
%ADD13R,1.200000X0.800000*%
%TD*%
%TA.AperFunction,ComponentPad*%
%ADD14C,1.508000*%
%TD*%
%TA.AperFunction,ComponentPad*%
%ADD15C,2.550000*%
%TD*%
%TA.AperFunction,ComponentPad*%
%ADD16R,2.550000X2.550000*%
%TD*%
%TA.AperFunction,SMDPad,CuDef*%
%ADD17R,2.000000X1.200000*%
%TD*%
%TA.AperFunction,SMDPad,CuDef*%
%ADD18R,1.100000X1.700000*%
%TD*%
%TA.AperFunction,ComponentPad*%
%ADD19C,1.200000*%
%TD*%
%TA.AperFunction,SMDPad,CuDef*%
%ADD20RotRect,0.500000X0.600000X45.000000*%
%TD*%
%TA.AperFunction,SMDPad,CuDef*%
%ADD21R,0.600000X0.800000*%
%TD*%
%TA.AperFunction,ComponentPad*%
%ADD22C,3.600000*%
%TD*%
%TA.AperFunction,SMDPad,CuDef*%
%ADD23RoundRect,0.006000X-0.431500X-0.094000X0.431500X-0.094000X0.431500X0.094000X-0.431500X0.094000X0*%
%TD*%
%TA.AperFunction,SMDPad,CuDef*%
%ADD24RoundRect,0.020000X-0.080000X-0.417500X0.080000X-0.417500X0.080000X0.417500X-0.080000X0.417500X0*%
%TD*%
%TA.AperFunction,SMDPad,CuDef*%
%ADD25R,3.200000X3.200000*%
%TD*%
%TA.AperFunction,SMDPad,CuDef*%
%ADD26RoundRect,0.187500X0.312500X0.187500X-0.312500X0.187500X-0.312500X-0.187500X0.312500X-0.187500X0*%
%TD*%
%TA.AperFunction,SMDPad,CuDef*%
%ADD27RoundRect,0.150000X0.150000X-0.825000X0.150000X0.825000X-0.150000X0.825000X-0.150000X-0.825000X0*%
%TD*%
%TA.AperFunction,SMDPad,CuDef*%
%ADD28R,3.750000X4.000000*%
%TD*%
%TA.AperFunction,SMDPad,CuDef*%
%ADD29R,2.500000X3.200000*%
%TD*%
%TA.AperFunction,ComponentPad*%
%ADD30C,3.000000*%
%TD*%
%TA.AperFunction,ComponentPad*%
%ADD31RoundRect,0.750000X0.750000X1.000000X-0.750000X1.000000X-0.750000X-1.000000X0.750000X-1.000000X0*%
%TD*%
%TA.AperFunction,SMDPad,CuDef*%
%ADD32R,1.300000X2.200000*%
%TD*%
%TA.AperFunction,SMDPad,CuDef*%
%ADD33R,1.300000X2.400000*%
%TD*%
%TA.AperFunction,SMDPad,CuDef*%
%ADD34R,0.600000X0.500000*%
%TD*%
%TA.AperFunction,SMDPad,CuDef*%
%ADD35R,1.100000X1.100000*%
%TD*%
%TA.AperFunction,SMDPad,CuDef*%
%ADD36R,0.500000X0.600000*%
%TD*%
%TA.AperFunction,SMDPad,CuDef*%
%ADD37R,1.000000X2.700000*%
%TD*%
%TA.AperFunction,SMDPad,CuDef*%
%ADD38R,0.600000X1.700000*%
%TD*%
%TA.AperFunction,SMDPad,CuDef*%
%ADD39RoundRect,0.150000X0.282843X0.070711X0.070711X0.282843X-0.282843X-0.070711X-0.070711X-0.282843X0*%
%TD*%
%TA.AperFunction,SMDPad,CuDef*%
%ADD40RotRect,0.500000X0.600000X315.000000*%
%TD*%
%TA.AperFunction,SMDPad,CuDef*%
%ADD41RoundRect,0.150000X-0.150000X-0.250000X0.150000X-0.250000X0.150000X0.250000X-0.150000X0.250000X0*%
%TD*%
%TA.AperFunction,SMDPad,CuDef*%
%ADD42R,0.300000X1.150000*%
%TD*%
%TA.AperFunction,ComponentPad*%
%ADD43O,1.000000X2.100000*%
%TD*%
%TA.AperFunction,ComponentPad*%
%ADD44O,1.000000X1.600000*%
%TD*%
%TA.AperFunction,SMDPad,CuDef*%
%ADD45R,0.800000X0.600000*%
%TD*%
%TA.AperFunction,SMDPad,CuDef*%
%ADD46C,0.500000*%
%TD*%
%TA.AperFunction,SMDPad,CuDef*%
%ADD47RoundRect,0.150000X-0.250000X0.150000X-0.250000X-0.150000X0.250000X-0.150000X0.250000X0.150000X0*%
%TD*%
%TA.AperFunction,SMDPad,CuDef*%
%ADD48R,1.100000X1.400000*%
%TD*%
%TA.AperFunction,SMDPad,CuDef*%
%ADD49RoundRect,0.085000X-0.340000X0.515000X-0.340000X-0.515000X0.340000X-0.515000X0.340000X0.515000X0*%
%TD*%
%TA.AperFunction,SMDPad,CuDef*%
%ADD50R,1.800000X0.850000*%
%TD*%
%TA.AperFunction,SMDPad,CuDef*%
%ADD51R,1.600000X0.600000*%
%TD*%
%TA.AperFunction,SMDPad,CuDef*%
%ADD52RotRect,1.400000X1.100000X315.000000*%
%TD*%
%TA.AperFunction,SMDPad,CuDef*%
%ADD53R,2.150000X1.150000*%
%TD*%
%TA.AperFunction,SMDPad,CuDef*%
%ADD54O,0.850000X0.300000*%
%TD*%
%TA.AperFunction,SMDPad,CuDef*%
%ADD55O,0.300000X0.850000*%
%TD*%
%TA.AperFunction,SMDPad,CuDef*%
%ADD56RoundRect,0.150000X-0.150000X0.825000X-0.150000X-0.825000X0.150000X-0.825000X0.150000X0.825000X0*%
%TD*%
%TA.AperFunction,ComponentPad*%
%ADD57C,1.524000*%
%TD*%
%TA.AperFunction,SMDPad,CuDef*%
%ADD58R,4.000000X3.400000*%
%TD*%
%TA.AperFunction,SMDPad,CuDef*%
%ADD59RoundRect,0.125000X0.125000X-0.262500X0.125000X0.262500X-0.125000X0.262500X-0.125000X-0.262500X0*%
%TD*%
%TA.AperFunction,SMDPad,CuDef*%
%ADD60RotRect,1.000000X0.370000X225.000000*%
%TD*%
%TA.AperFunction,SMDPad,CuDef*%
%ADD61RotRect,1.000000X0.370000X315.000000*%
%TD*%
%TA.AperFunction,SMDPad,CuDef*%
%ADD62RotRect,4.200000X4.200000X225.000000*%
%TD*%
%TA.AperFunction,SMDPad,CuDef*%
%ADD63R,0.990600X2.794000*%
%TD*%
%TA.AperFunction,SMDPad,CuDef*%
%ADD64R,0.660400X1.803400*%
%TD*%
%TA.AperFunction,SMDPad,CuDef*%
%ADD65FreePoly0,0.000000*%
%TD*%
%TA.AperFunction,SMDPad,CuDef*%
%ADD66FreePoly1,0.000000*%
%TD*%
%TA.AperFunction,SMDPad,CuDef*%
%ADD67R,0.760000X2.600000*%
%TD*%
%TA.AperFunction,ComponentPad*%
%ADD68C,3.750000*%
%TD*%
%TA.AperFunction,ComponentPad*%
%ADD69C,1.500000*%
%TD*%
%TA.AperFunction,ViaPad*%
%ADD70C,0.600000*%
%TD*%
%TA.AperFunction,ViaPad*%
%ADD71C,1.000000*%
%TD*%
%TA.AperFunction,Conductor*%
%ADD72C,0.200000*%
%TD*%
%TA.AperFunction,Conductor*%
%ADD73C,0.500000*%
%TD*%
%TA.AperFunction,Conductor*%
%ADD74C,0.600000*%
%TD*%
G04 APERTURE END LIST*
%TA.AperFunction,EtchedComponent*%
%TO.C,NT2*%
G36*
X151750000Y-80450000D02*
G01*
X150750000Y-80450000D01*
X150750000Y-79950000D01*
X151750000Y-79950000D01*
X151750000Y-80450000D01*
G37*
%TD.AperFunction*%
%TA.AperFunction,EtchedComponent*%
%TO.C,JP4*%
G36*
X120075000Y-117675000D02*
G01*
X119575000Y-117675000D01*
X119575000Y-117075000D01*
X120075000Y-117075000D01*
X120075000Y-117675000D01*
G37*
%TD.AperFunction*%
%TD*%
D10*
%TO.P,R29,1*%
%TO.N,SWITCHING_3V3*%
X163175000Y-79075000D03*
%TO.P,R29,2*%
%TO.N,Net-(D10-A)*%
X163175000Y-77375000D03*
%TD*%
D11*
%TO.P,C35,1*%
%TO.N,GNDISO2*%
X118738909Y-102713909D03*
%TO.P,C35,2*%
%TO.N,+3V3*%
X117961091Y-101936091D03*
%TD*%
%TO.P,C33,1*%
%TO.N,+3V3*%
X117138909Y-101138909D03*
%TO.P,C33,2*%
%TO.N,GNDISO2*%
X116361091Y-100361091D03*
%TD*%
D12*
%TO.P,D1,1,A1*%
%TO.N,/CAN_L*%
X108252513Y-100008274D03*
%TO.P,D1,2,A2*%
%TO.N,/CAN_H*%
X107333274Y-100927513D03*
%TO.P,D1,3,common*%
%TO.N,GNDISO2*%
X109207107Y-101882107D03*
%TD*%
D13*
%TO.P,Q30,1*%
%TO.N,SWITCHING_3V3*%
X140820000Y-89520000D03*
%TO.P,Q30,2*%
%TO.N,Net-(Q30-Pad2)*%
X140820000Y-92060000D03*
%TO.P,Q30,3*%
%TO.N,CHAN_5B_OUT*%
X146970000Y-92060000D03*
%TO.P,Q30,4*%
%TO.N,EMG_LOW*%
X146970000Y-89520000D03*
%TD*%
D14*
%TO.P,U5,*%
%TO.N,*%
X106300000Y-78800000D03*
X117300000Y-78800000D03*
D15*
%TO.P,U5,1,-*%
%TO.N,GND*%
X114300000Y-88800000D03*
D16*
%TO.P,U5,2,+*%
%TO.N,Net-(U5-+)*%
X109300000Y-88800000D03*
%TD*%
D17*
%TO.P,U16,1,RESET*%
%TO.N,/ESP-Wifi/~{RESET}*%
X149800000Y-123075000D03*
%TO.P,U16,2,ADC*%
%TO.N,unconnected-(U16-ADC-Pad2)*%
X149800000Y-121075000D03*
%TO.P,U16,3,EN*%
%TO.N,/ESP-Wifi/EN*%
X149800000Y-119075000D03*
%TO.P,U16,4,IO16*%
%TO.N,Net-(U16-IO16)*%
X149800000Y-117075000D03*
%TO.P,U16,5,IO14*%
%TO.N,/ESP-Wifi/ESP_INT*%
X149800000Y-115075000D03*
%TO.P,U16,6,IO12*%
%TO.N,/ESP-Wifi/LED1*%
X149800000Y-113075000D03*
%TO.P,U16,7,IO13*%
%TO.N,/ESP-Wifi/LED2*%
X149800000Y-111075000D03*
%TO.P,U16,8,VCC*%
%TO.N,+3V3*%
X149800000Y-109075000D03*
D18*
%TO.P,U16,9,CS0*%
%TO.N,Net-(U16-CS0)*%
X147300000Y-107575000D03*
%TO.P,U16,10,MISO*%
%TO.N,Net-(U16-MISO)*%
X145300000Y-107575000D03*
%TO.P,U16,11,IO9*%
%TO.N,Net-(U16-IO9)*%
X143300000Y-107575000D03*
%TO.P,U16,12,IO10*%
%TO.N,Net-(U16-IO10)*%
X141300000Y-107575000D03*
%TO.P,U16,13,MOSI*%
%TO.N,Net-(U16-MOSI)*%
X139300000Y-107575000D03*
%TO.P,U16,14,SCLK*%
%TO.N,Net-(U16-SCLK)*%
X137300000Y-107575000D03*
D17*
%TO.P,U16,15,GND*%
%TO.N,GND*%
X134800000Y-109075000D03*
%TO.P,U16,16,IO15*%
%TO.N,Net-(U16-IO15)*%
X134800000Y-111075000D03*
%TO.P,U16,17,IO2*%
%TO.N,/ESP-Wifi/GPIO2*%
X134800000Y-113075000D03*
%TO.P,U16,18,IO0*%
%TO.N,/ESP-Wifi/GPIO0*%
X134800000Y-115075000D03*
%TO.P,U16,19,IO4*%
%TO.N,Net-(U16-IO4)*%
X134800000Y-117075000D03*
%TO.P,U16,20,IO5*%
%TO.N,Net-(U16-IO5)*%
X134800000Y-119075000D03*
%TO.P,U16,21,RXD*%
%TO.N,/RXD*%
X134800000Y-121075000D03*
%TO.P,U16,22,TXD*%
%TO.N,/TXD*%
X134800000Y-123075000D03*
%TD*%
D13*
%TO.P,Q27,1*%
%TO.N,SWITCHING_3V3*%
X140837500Y-85525000D03*
%TO.P,Q27,2*%
%TO.N,Net-(Q27-Pad2)*%
X140837500Y-88065000D03*
%TO.P,Q27,3*%
%TO.N,CHAN_6B_OUT*%
X146987500Y-88065000D03*
%TO.P,Q27,4*%
%TO.N,EMG_LOW*%
X146987500Y-85525000D03*
%TD*%
D19*
%TO.P,SW4,*%
%TO.N,*%
X172505000Y-82025000D03*
X172505000Y-76945000D03*
%TO.P,SW4,1,A*%
%TO.N,Net-(D10-K)*%
X167425000Y-82025000D03*
%TO.P,SW4,2,B*%
%TO.N,GNDREF*%
X167425000Y-76945000D03*
%TD*%
D20*
%TO.P,C22,1*%
%TO.N,GNDISO2*%
X111760050Y-112139950D03*
%TO.P,C22,2*%
%TO.N,Net-(U13-OSC1)*%
X112537868Y-111362132D03*
%TD*%
D21*
%TO.P,D3,1,K*%
%TO.N,Net-(D3-K)*%
X136425000Y-79775000D03*
%TO.P,D3,2,A*%
%TO.N,Net-(D3-A)*%
X134725000Y-79775000D03*
%TD*%
%TO.P,D11,1,K*%
%TO.N,Net-(D11-K)*%
X152410000Y-115840000D03*
%TO.P,D11,2,A*%
%TO.N,+3V3*%
X154110000Y-115840000D03*
%TD*%
D22*
%TO.P,U7,1*%
%TO.N,unconnected-(U7-Pad1)*%
X153250000Y-77850000D03*
%TD*%
D13*
%TO.P,Q7,1*%
%TO.N,SWITCHING_3V3*%
X148825000Y-97605000D03*
%TO.P,Q7,2*%
%TO.N,Net-(Q7-Pad2)*%
X148825000Y-100145000D03*
%TO.P,Q7,3*%
%TO.N,CHAN_0B_OUT*%
X154975000Y-100145000D03*
%TO.P,Q7,4*%
%TO.N,EMG_LOW*%
X154975000Y-97605000D03*
%TD*%
D23*
%TO.P,U10,1,IOVDD*%
%TO.N,+3V3*%
X122690000Y-93210000D03*
%TO.P,U10,2,GPIO0*%
%TO.N,/TX*%
X122690000Y-93610000D03*
%TO.P,U10,3,GPIO1*%
%TO.N,/RX*%
X122690000Y-94010000D03*
%TO.P,U10,4,GPIO2*%
%TO.N,/SCK0*%
X122690000Y-94410000D03*
%TO.P,U10,5,GPIO3*%
%TO.N,/MOSI0*%
X122690000Y-94810000D03*
%TO.P,U10,6,GPIO4*%
%TO.N,/MISO0*%
X122690000Y-95210000D03*
%TO.P,U10,7,GPIO5*%
%TO.N,/TFT_DC*%
X122690000Y-95610000D03*
%TO.P,U10,8,GPIO6*%
%TO.N,/SD_CS*%
X122690000Y-96010000D03*
%TO.P,U10,9,GPIO7*%
%TO.N,/ESP-Wifi/ESP_INT*%
X122690000Y-96410000D03*
%TO.P,U10,10,IOVDD*%
%TO.N,+3V3*%
X122690000Y-96810000D03*
%TO.P,U10,11,GPIO8*%
%TO.N,/BUZZER*%
X122690000Y-97210000D03*
%TO.P,U10,12,GPIO9*%
%TO.N,/TFT_CS*%
X122690000Y-97610000D03*
%TO.P,U10,13,GPIO10*%
%TO.N,/processor/SCK1*%
X122690000Y-98010000D03*
%TO.P,U10,14,GPIO11*%
%TO.N,/processor/MOSI1*%
X122690000Y-98410000D03*
D24*
%TO.P,U10,15,GPIO12*%
%TO.N,/processor/MISO1*%
X123525000Y-99245000D03*
%TO.P,U10,16,GPIO13*%
%TO.N,/processor/ENC_CTL_0*%
X123925000Y-99245000D03*
%TO.P,U10,17,GPIO14*%
%TO.N,/processor/ENC_CTL_1*%
X124325000Y-99245000D03*
%TO.P,U10,18,GPIO15*%
%TO.N,/processor/ENC_CTL_2*%
X124725000Y-99245000D03*
%TO.P,U10,19,TESTEN*%
%TO.N,GNDISO1*%
X125125000Y-99245000D03*
%TO.P,U10,20,XIN*%
%TO.N,Net-(U10-XIN)*%
X125525000Y-99245000D03*
%TO.P,U10,21,XOUT*%
%TO.N,Net-(U10-XOUT)*%
X125925000Y-99245000D03*
%TO.P,U10,22,IOVDD*%
%TO.N,+3V3*%
X126325000Y-99245000D03*
%TO.P,U10,23,DVDD*%
%TO.N,+1V1*%
X126725000Y-99245000D03*
%TO.P,U10,24,SWCLK*%
%TO.N,/SWCLK*%
X127125000Y-99245000D03*
%TO.P,U10,25,SWD*%
%TO.N,/SWDIO*%
X127525000Y-99245000D03*
%TO.P,U10,26,~{RUN}*%
%TO.N,/~{RESET}*%
X127925000Y-99245000D03*
%TO.P,U10,27,GPIO16*%
%TO.N,/processor/CAN_STBY*%
X128325000Y-99245000D03*
%TO.P,U10,28,GPIO17*%
%TO.N,/processor/~{Tx0RTS}*%
X128725000Y-99245000D03*
D23*
%TO.P,U10,29,GPIO18*%
%TO.N,/SDA1*%
X129560000Y-98410000D03*
%TO.P,U10,30,GPIO19*%
%TO.N,/SCL1*%
X129560000Y-98010000D03*
%TO.P,U10,31,GPIO20*%
%TO.N,/SDA0*%
X129560000Y-97610000D03*
%TO.P,U10,32,GPIO21*%
%TO.N,/SCL0*%
X129560000Y-97210000D03*
%TO.P,U10,33,IOVDD*%
%TO.N,+3V3*%
X129560000Y-96810000D03*
%TO.P,U10,34,GPIO22*%
%TO.N,/processor/CAN_INT*%
X129560000Y-96410000D03*
%TO.P,U10,35,GPIO23*%
%TO.N,/processor/~{Rx0BF}*%
X129560000Y-96010000D03*
%TO.P,U10,36,GPIO24*%
%TO.N,/ROT_ENC_0*%
X129560000Y-95610000D03*
%TO.P,U10,37,GPIO25*%
%TO.N,/ROT_ENC_1*%
X129560000Y-95210000D03*
%TO.P,U10,38,GPIO26_ADC0*%
%TO.N,/processor/A_IN_2_PIN*%
X129560000Y-94810000D03*
%TO.P,U10,39,GPIO27_ADC1*%
%TO.N,/processor/A_IN_3_PIN*%
X129560000Y-94410000D03*
%TO.P,U10,40,GPIO28_ADC2*%
%TO.N,/processor/CAN_CS*%
X129560000Y-94010000D03*
%TO.P,U10,41,GPIO29_ADC3*%
%TO.N,/processor/CAN_RESET*%
X129560000Y-93610000D03*
%TO.P,U10,42,IOVDD*%
%TO.N,+3V3*%
X129560000Y-93210000D03*
D24*
%TO.P,U10,43,ADC_AVDD*%
X128725000Y-92375000D03*
%TO.P,U10,44,VREG_VIN*%
X128325000Y-92375000D03*
%TO.P,U10,45,VREG_VOUT*%
%TO.N,+1V1*%
X127925000Y-92375000D03*
%TO.P,U10,46,USB_D-*%
%TO.N,Net-(U10-USB_D-)*%
X127525000Y-92375000D03*
%TO.P,U10,47,USB_D+*%
%TO.N,Net-(U10-USB_D+)*%
X127125000Y-92375000D03*
%TO.P,U10,48,USB_VDD*%
%TO.N,+3V3*%
X126725000Y-92375000D03*
%TO.P,U10,49,IOVDD*%
X126325000Y-92375000D03*
%TO.P,U10,50,DVDD*%
%TO.N,+1V1*%
X125925000Y-92375000D03*
%TO.P,U10,51,QSPI_SD3*%
%TO.N,/processor/QSPI_SD3*%
X125525000Y-92375000D03*
%TO.P,U10,52,QSPI_SCLK*%
%TO.N,/processor/QSPI_SCLK*%
X125125000Y-92375000D03*
%TO.P,U10,53,QSPI_SD0*%
%TO.N,/processor/QSPI_SD0*%
X124725000Y-92375000D03*
%TO.P,U10,54,QSPI_SD2*%
%TO.N,/processor/QSPI_SD2*%
X124325000Y-92375000D03*
%TO.P,U10,55,QSPI_SD1*%
%TO.N,/processor/QSPI_SD1*%
X123925000Y-92375000D03*
%TO.P,U10,56,QSPI_SS*%
%TO.N,/processor/QSPI_CS*%
X123525000Y-92375000D03*
D25*
%TO.P,U10,57,GND*%
%TO.N,GNDISO1*%
X126125000Y-95810000D03*
%TD*%
D26*
%TO.P,SW2,1,1*%
%TO.N,Net-(D3-K)*%
X137400000Y-78330000D03*
%TO.P,SW2,2,2*%
%TO.N,GND*%
X137400000Y-76180000D03*
%TO.P,SW2,3,3*%
%TO.N,Net-(D3-K)*%
X132900000Y-78330000D03*
%TO.P,SW2,4,4*%
%TO.N,GND*%
X132900000Y-76180000D03*
%TD*%
D27*
%TO.P,U15,1,EN*%
%TO.N,/regulator/SYS_PWR*%
X145270000Y-83275000D03*
%TO.P,U15,2,VIN*%
X146540000Y-83275000D03*
%TO.P,U15,3,VOUT*%
%TO.N,SWITCHING_3V3*%
X147810000Y-83275000D03*
%TO.P,U15,4,BYP*%
%TO.N,Net-(U15-BYP)*%
X149080000Y-83275000D03*
%TO.P,U15,5,GND*%
%TO.N,GND*%
X149080000Y-78325000D03*
%TO.P,U15,6,GND*%
X147810000Y-78325000D03*
%TO.P,U15,7,GND*%
X146540000Y-78325000D03*
%TO.P,U15,8,GND*%
X145270000Y-78325000D03*
%TD*%
D13*
%TO.P,Q17,1*%
%TO.N,SWITCHING_3V3*%
X140860000Y-97600000D03*
%TO.P,Q17,2*%
%TO.N,Net-(Q17-Pad2)*%
X140860000Y-100140000D03*
%TO.P,Q17,3*%
%TO.N,CHAN_1B_OUT*%
X147010000Y-100140000D03*
%TO.P,Q17,4*%
%TO.N,EMG_LOW*%
X147010000Y-97600000D03*
%TD*%
D28*
%TO.P,SW7,*%
%TO.N,*%
X172325000Y-114400000D03*
D29*
X170950000Y-122600000D03*
X170950000Y-106200000D03*
D30*
X165950000Y-114400000D03*
D31*
X165950000Y-109900000D03*
D29*
X160950000Y-122600000D03*
X160950000Y-106200000D03*
D28*
X159575000Y-114400000D03*
D32*
%TO.P,SW7,A,A*%
%TO.N,Net-(R75-Pad1)*%
X168450000Y-106700000D03*
%TO.P,SW7,B,B*%
%TO.N,Net-(R76-Pad2)*%
X163450000Y-106700000D03*
%TO.P,SW7,C,C*%
%TO.N,GND*%
X165950000Y-106700000D03*
D33*
%TO.P,SW7,S1,S1*%
%TO.N,/peripherals/switch*%
X168450000Y-121400000D03*
%TO.P,SW7,S2,S2*%
%TO.N,GND*%
X163450000Y-121400000D03*
%TD*%
D34*
%TO.P,R18,1*%
%TO.N,+3V3*%
X112575000Y-122100000D03*
%TO.P,R18,2*%
%TO.N,/peripherals/~{TFT_RESET}*%
X112575000Y-123200000D03*
%TD*%
D11*
%TO.P,C24,1*%
%TO.N,GNDISO2*%
X108013909Y-103413909D03*
%TO.P,C24,2*%
%TO.N,/CAN_H*%
X107236091Y-102636091D03*
%TD*%
D35*
%TO.P,D4,1,K*%
%TO.N,/regulator/SYS_PWR*%
X120030000Y-84160000D03*
%TO.P,D4,2,A*%
%TO.N,VUSB*%
X120030000Y-86960000D03*
%TD*%
D36*
%TO.P,C30,1*%
%TO.N,SWITCHING_3V3*%
X148125000Y-76225000D03*
%TO.P,C30,2*%
%TO.N,GND*%
X149225000Y-76225000D03*
%TD*%
D37*
%TO.P,J2,*%
%TO.N,*%
X125200000Y-123050000D03*
X132650000Y-123050000D03*
D38*
%TO.P,J2,1,1*%
%TO.N,GND*%
X127050000Y-119850000D03*
%TO.P,J2,2,2*%
%TO.N,/SCL1*%
X128300000Y-119850000D03*
%TO.P,J2,3,3*%
%TO.N,/SDA1*%
X129550000Y-119850000D03*
%TO.P,J2,4,4*%
%TO.N,+3V3*%
X130800000Y-119850000D03*
%TD*%
D26*
%TO.P,SW3,1,1*%
%TO.N,/peripherals/~{TFT_RESET}*%
X111150000Y-123255000D03*
%TO.P,SW3,2,2*%
%TO.N,GND*%
X111150000Y-121105000D03*
%TO.P,SW3,3,3*%
%TO.N,/peripherals/~{TFT_RESET}*%
X106650000Y-123255000D03*
%TO.P,SW3,4,4*%
%TO.N,GND*%
X106650000Y-121105000D03*
%TD*%
D39*
%TO.P,R15,1*%
%TO.N,/processor/CAN_STBY*%
X106826041Y-105251041D03*
%TO.P,R15,2*%
%TO.N,GNDISO2*%
X105623959Y-104048959D03*
%TD*%
D26*
%TO.P,SW6,1,1*%
%TO.N,/~{RESET}*%
X143650000Y-78330000D03*
%TO.P,SW6,2,2*%
%TO.N,GND*%
X143650000Y-76180000D03*
%TO.P,SW6,3,3*%
%TO.N,/~{RESET}*%
X139150000Y-78330000D03*
%TO.P,SW6,4,4*%
%TO.N,GND*%
X139150000Y-76180000D03*
%TD*%
D40*
%TO.P,C20,1*%
%TO.N,+5V*%
X105686091Y-107036091D03*
%TO.P,C20,2*%
%TO.N,GNDISO2*%
X106463909Y-107813909D03*
%TD*%
D13*
%TO.P,Q15,1*%
%TO.N,SWITCHING_3V3*%
X173300000Y-103025000D03*
%TO.P,Q15,2*%
%TO.N,Net-(Q15-Pad2)*%
X173300000Y-100485000D03*
%TO.P,Q15,3*%
%TO.N,CHAN_3A_OUT*%
X167150000Y-100485000D03*
%TO.P,Q15,4*%
%TO.N,EMG_HIGH*%
X167150000Y-103025000D03*
%TD*%
D41*
%TO.P,R16,1*%
%TO.N,/processor/QSPI_CS*%
X114675000Y-98775000D03*
%TO.P,R16,2*%
%TO.N,+3V3*%
X116375000Y-98775000D03*
%TD*%
D34*
%TO.P,C14,1*%
%TO.N,+1V1*%
X123875000Y-89325000D03*
%TO.P,C14,2*%
%TO.N,GNDISO1*%
X123875000Y-88225000D03*
%TD*%
D13*
%TO.P,Q22,1*%
%TO.N,SWITCHING_3V3*%
X148845000Y-89515000D03*
%TO.P,Q22,2*%
%TO.N,Net-(Q22-Pad2)*%
X148845000Y-92055000D03*
%TO.P,Q22,3*%
%TO.N,CHAN_4B_OUT*%
X154995000Y-92055000D03*
%TO.P,Q22,4*%
%TO.N,EMG_LOW*%
X154995000Y-89515000D03*
%TD*%
D34*
%TO.P,C10,1*%
%TO.N,+3V3*%
X126050000Y-89325000D03*
%TO.P,C10,2*%
%TO.N,GNDISO1*%
X126050000Y-88225000D03*
%TD*%
%TO.P,C34,1*%
%TO.N,+3V3*%
X151800000Y-109125000D03*
%TO.P,C34,2*%
%TO.N,GND*%
X151800000Y-108025000D03*
%TD*%
D42*
%TO.P,U1,A1,GND*%
%TO.N,GND*%
X129985000Y-83445000D03*
%TO.P,U1,A4,VBUS*%
%TO.N,VUSB*%
X129185000Y-83445000D03*
%TO.P,U1,A5,CC1*%
%TO.N,Net-(U1-CC1)*%
X127885000Y-83445000D03*
%TO.P,U1,A6,D+*%
%TO.N,/USB_D+*%
X126885000Y-83445000D03*
%TO.P,U1,A7,D-*%
%TO.N,/USB_D-*%
X126385000Y-83445000D03*
%TO.P,U1,A8,SBU1*%
%TO.N,unconnected-(U1-SBU1-PadA8)*%
X125385000Y-83445000D03*
%TO.P,U1,A9,VBUS*%
%TO.N,VUSB*%
X124085000Y-83445000D03*
%TO.P,U1,A12,GND*%
%TO.N,GND*%
X123285000Y-83445000D03*
%TO.P,U1,B1,GND*%
X123585000Y-83445000D03*
%TO.P,U1,B4,VBUS*%
%TO.N,VUSB*%
X124385000Y-83445000D03*
%TO.P,U1,B5,CC2*%
%TO.N,Net-(U1-CC2)*%
X124885000Y-83445000D03*
%TO.P,U1,B6,D+*%
%TO.N,/USB_D+*%
X125885000Y-83445000D03*
%TO.P,U1,B7,D-*%
%TO.N,/USB_D-*%
X127385000Y-83445000D03*
%TO.P,U1,B8,SBU2*%
%TO.N,unconnected-(U1-SBU2-PadB8)*%
X128385000Y-83445000D03*
%TO.P,U1,B9,VBUS*%
%TO.N,VUSB*%
X128885000Y-83445000D03*
%TO.P,U1,B12,GND*%
%TO.N,GND*%
X129685000Y-83445000D03*
D43*
%TO.P,U1,S1,SHIELD*%
X130955000Y-82880000D03*
D44*
X130955000Y-78700000D03*
D43*
X122315000Y-82880000D03*
D44*
X122315000Y-78700000D03*
%TD*%
D20*
%TO.P,C19,1*%
%TO.N,GNDISO2*%
X107186091Y-106988909D03*
%TO.P,C19,2*%
%TO.N,+5V*%
X107963909Y-106211091D03*
%TD*%
D34*
%TO.P,C12,1*%
%TO.N,+3V3*%
X131450000Y-90250000D03*
%TO.P,C12,2*%
%TO.N,GNDISO1*%
X131450000Y-89150000D03*
%TD*%
D10*
%TO.P,R28,1*%
%TO.N,/A_IN_3*%
X114650000Y-119475000D03*
%TO.P,R28,2*%
%TO.N,/processor/A_IN_3_PIN*%
X114650000Y-117775000D03*
%TD*%
D13*
%TO.P,Q14,1*%
%TO.N,SWITCHING_3V3*%
X154900000Y-104835000D03*
%TO.P,Q14,2*%
%TO.N,Net-(Q14-Pad2)*%
X154900000Y-102295000D03*
%TO.P,Q14,3*%
%TO.N,CHAN_1A_OUT*%
X148750000Y-102295000D03*
%TO.P,Q14,4*%
%TO.N,EMG_HIGH*%
X148750000Y-104835000D03*
%TD*%
D45*
%TO.P,C2,1*%
%TO.N,Net-(U3-BYP)*%
X111775000Y-96050000D03*
%TO.P,C2,2*%
%TO.N,GND*%
X111775000Y-97750000D03*
%TD*%
D22*
%TO.P,U8,1*%
%TO.N,unconnected-(U8-Pad1)*%
X153250000Y-121900000D03*
%TD*%
D34*
%TO.P,R4,1*%
%TO.N,Net-(C5-Pad1)*%
X127275000Y-103275000D03*
%TO.P,R4,2*%
%TO.N,Net-(U10-XOUT)*%
X127275000Y-102175000D03*
%TD*%
D36*
%TO.P,C32,1*%
%TO.N,GND*%
X135180000Y-93430000D03*
%TO.P,C32,2*%
%TO.N,+3V3*%
X136280000Y-93430000D03*
%TD*%
D46*
%TO.P,NT2,1*%
%TO.N,GNDREF*%
X151750000Y-80200000D03*
%TO.P,NT2,2*%
%TO.N,GND*%
X150750000Y-80200000D03*
%TD*%
D13*
%TO.P,Q26,1*%
%TO.N,SWITCHING_3V3*%
X173300000Y-95025000D03*
%TO.P,Q26,2*%
%TO.N,Net-(Q26-Pad2)*%
X173300000Y-92485000D03*
%TO.P,Q26,3*%
%TO.N,CHAN_5A_OUT*%
X167150000Y-92485000D03*
%TO.P,Q26,4*%
%TO.N,EMG_HIGH*%
X167150000Y-95025000D03*
%TD*%
D34*
%TO.P,C8,1*%
%TO.N,+3V3*%
X128360000Y-102150000D03*
%TO.P,C8,2*%
%TO.N,GNDISO1*%
X128360000Y-103250000D03*
%TD*%
D13*
%TO.P,Q34,1*%
%TO.N,SWITCHING_3V3*%
X148837500Y-85510000D03*
%TO.P,Q34,2*%
%TO.N,Net-(Q34-Pad2)*%
X148837500Y-88050000D03*
%TO.P,Q34,3*%
%TO.N,CHAN_7B_OUT*%
X154987500Y-88050000D03*
%TO.P,Q34,4*%
%TO.N,EMG_LOW*%
X154987500Y-85510000D03*
%TD*%
D36*
%TO.P,C13,1*%
%TO.N,+3V3*%
X120525000Y-93225000D03*
%TO.P,C13,2*%
%TO.N,GNDISO1*%
X119425000Y-93225000D03*
%TD*%
D34*
%TO.P,C15,1*%
%TO.N,+1V1*%
X129450000Y-102150000D03*
%TO.P,C15,2*%
%TO.N,GNDISO1*%
X129450000Y-103250000D03*
%TD*%
D10*
%TO.P,R25,1*%
%TO.N,+3V3*%
X118550000Y-115475000D03*
%TO.P,R25,2*%
%TO.N,/processor/CAN_RESET*%
X118550000Y-113775000D03*
%TD*%
D36*
%TO.P,C7,1*%
%TO.N,+3V3*%
X131835000Y-93235000D03*
%TO.P,C7,2*%
%TO.N,GNDISO1*%
X132935000Y-93235000D03*
%TD*%
D47*
%TO.P,R11,1*%
%TO.N,/processor/CAN_CS*%
X119950000Y-113775000D03*
%TO.P,R11,2*%
%TO.N,+3V3*%
X119950000Y-115475000D03*
%TD*%
D48*
%TO.P,Y3,1,1*%
%TO.N,Net-(C5-Pad1)*%
X125885000Y-104485000D03*
%TO.P,Y3,2,2*%
%TO.N,GNDISO1*%
X125885000Y-102285000D03*
%TO.P,Y3,3,3*%
%TO.N,Net-(U10-XIN)*%
X124285000Y-102285000D03*
%TO.P,Y3,4,4*%
%TO.N,GNDISO1*%
X124285000Y-104485000D03*
%TD*%
D45*
%TO.P,C29,1*%
%TO.N,Net-(U15-BYP)*%
X150600000Y-83825000D03*
%TO.P,C29,2*%
%TO.N,GND*%
X150600000Y-82125000D03*
%TD*%
%TO.P,D10,1,K*%
%TO.N,Net-(D10-K)*%
X164750000Y-79075000D03*
%TO.P,D10,2,A*%
%TO.N,Net-(D10-A)*%
X164750000Y-77375000D03*
%TD*%
D11*
%TO.P,C23,1*%
%TO.N,GNDISO2*%
X110788909Y-100713909D03*
%TO.P,C23,2*%
%TO.N,/CAN_L*%
X110011091Y-99936091D03*
%TD*%
D41*
%TO.P,R2,1*%
%TO.N,Net-(U1-CC1)*%
X128825000Y-86075000D03*
%TO.P,R2,2*%
%TO.N,GND*%
X130525000Y-86075000D03*
%TD*%
D13*
%TO.P,Q20,1*%
%TO.N,SWITCHING_3V3*%
X173290000Y-99010000D03*
%TO.P,Q20,2*%
%TO.N,Net-(Q20-Pad2)*%
X173290000Y-96470000D03*
%TO.P,Q20,3*%
%TO.N,CHAN_4A_OUT*%
X167140000Y-96470000D03*
%TO.P,Q20,4*%
%TO.N,EMG_HIGH*%
X167140000Y-99010000D03*
%TD*%
D34*
%TO.P,C3,1*%
%TO.N,+3V3*%
X111750000Y-93500000D03*
%TO.P,C3,2*%
%TO.N,GND*%
X111750000Y-92400000D03*
%TD*%
D49*
%TO.P,D9,1,K*%
%TO.N,/processor/A_IN_3_PIN*%
X114300000Y-120850000D03*
%TO.P,D9,2,A*%
%TO.N,GND*%
X114300000Y-123900000D03*
%TD*%
D34*
%TO.P,C17,1*%
%TO.N,+3V3*%
X130375000Y-90250000D03*
%TO.P,C17,2*%
%TO.N,GNDISO1*%
X130375000Y-89150000D03*
%TD*%
%TO.P,R24,1*%
%TO.N,/USB_D-*%
X128225000Y-89150000D03*
%TO.P,R24,2*%
%TO.N,Net-(U10-USB_D-)*%
X128225000Y-90250000D03*
%TD*%
D36*
%TO.P,C25,1*%
%TO.N,+3V3*%
X131825000Y-96800000D03*
%TO.P,C25,2*%
%TO.N,GNDISO1*%
X132925000Y-96800000D03*
%TD*%
D13*
%TO.P,Q11,1*%
%TO.N,SWITCHING_3V3*%
X140875000Y-93625000D03*
%TO.P,Q11,2*%
%TO.N,Net-(Q11-Pad2)*%
X140875000Y-96165000D03*
%TO.P,Q11,3*%
%TO.N,CHAN_2B_OUT*%
X147025000Y-96165000D03*
%TO.P,Q11,4*%
%TO.N,EMG_LOW*%
X147025000Y-93625000D03*
%TD*%
D22*
%TO.P,U6,1*%
%TO.N,unconnected-(U6-Pad1)*%
X103100000Y-121900000D03*
%TD*%
D50*
%TO.P,J6,*%
%TO.N,*%
X160348175Y-98315000D03*
X160348175Y-86665000D03*
D51*
%TO.P,J6,1,P1*%
%TO.N,CHAN_0A_OUT*%
X163548175Y-96990000D03*
%TO.P,J6,2,P2*%
%TO.N,CHAN_0B_OUT*%
X157948175Y-96990000D03*
%TO.P,J6,3,P3*%
%TO.N,CHAN_1A_OUT*%
X163548175Y-95990000D03*
%TO.P,J6,4,P4*%
%TO.N,CHAN_1B_OUT*%
X157948175Y-95990000D03*
%TO.P,J6,5,P5*%
%TO.N,CHAN_2A_OUT*%
X163548175Y-94990000D03*
%TO.P,J6,6,P6*%
%TO.N,CHAN_2B_OUT*%
X157948175Y-94990000D03*
%TO.P,J6,7,P7*%
%TO.N,CHAN_3A_OUT*%
X163548175Y-93990000D03*
%TO.P,J6,8,P8*%
%TO.N,CHAN_3B_OUT*%
X157948175Y-93990000D03*
%TO.P,J6,9,P9*%
%TO.N,CHAN_4A_OUT*%
X163548175Y-92990000D03*
%TO.P,J6,10,P10*%
%TO.N,CHAN_4B_OUT*%
X157948175Y-92990000D03*
%TO.P,J6,11,P11*%
%TO.N,CHAN_5A_OUT*%
X163548175Y-91990000D03*
%TO.P,J6,12,P12*%
%TO.N,CHAN_5B_OUT*%
X157948175Y-91990000D03*
%TO.P,J6,13,P13*%
%TO.N,CHAN_6A_OUT*%
X163548175Y-90990000D03*
%TO.P,J6,14,P14*%
%TO.N,CHAN_6B_OUT*%
X157948175Y-90990000D03*
%TO.P,J6,15,P15*%
%TO.N,CHAN_7A_OUT*%
X163548175Y-89990000D03*
%TO.P,J6,16,P16*%
%TO.N,CHAN_7B_OUT*%
X157948175Y-89990000D03*
%TO.P,J6,17,P17*%
%TO.N,unconnected-(J6-P17-Pad17)*%
X163548175Y-88990000D03*
%TO.P,J6,18,P18*%
%TO.N,unconnected-(J6-P18-Pad18)*%
X157948175Y-88990000D03*
%TO.P,J6,19,P19*%
%TO.N,unconnected-(J6-P19-Pad19)*%
X163548175Y-87990000D03*
%TO.P,J6,20,P20*%
%TO.N,unconnected-(J6-P20-Pad20)*%
X157948175Y-87990000D03*
%TD*%
D13*
%TO.P,Q23,1*%
%TO.N,SWITCHING_3V3*%
X173325000Y-91000000D03*
%TO.P,Q23,2*%
%TO.N,Net-(Q23-Pad2)*%
X173325000Y-88460000D03*
%TO.P,Q23,3*%
%TO.N,CHAN_6A_OUT*%
X167175000Y-88460000D03*
%TO.P,Q23,4*%
%TO.N,EMG_HIGH*%
X167175000Y-91000000D03*
%TD*%
D22*
%TO.P,U9,1*%
%TO.N,unconnected-(U9-Pad1)*%
X102520000Y-77858175D03*
%TD*%
D34*
%TO.P,C28,1*%
%TO.N,GND*%
X143900000Y-81875000D03*
%TO.P,C28,2*%
%TO.N,/regulator/SYS_PWR*%
X143900000Y-82975000D03*
%TD*%
%TO.P,R23,1*%
%TO.N,/USB_D+*%
X127150000Y-89150000D03*
%TO.P,R23,2*%
%TO.N,Net-(U10-USB_D+)*%
X127150000Y-90250000D03*
%TD*%
D40*
%TO.P,C21,1*%
%TO.N,Net-(C21-Pad1)*%
X107661091Y-110411091D03*
%TO.P,C21,2*%
%TO.N,GNDISO2*%
X108438909Y-111188909D03*
%TD*%
D36*
%TO.P,C9,1*%
%TO.N,+3V3*%
X120710000Y-97890000D03*
%TO.P,C9,2*%
%TO.N,GNDISO1*%
X119610000Y-97890000D03*
%TD*%
D41*
%TO.P,R1,1*%
%TO.N,GND*%
X123310000Y-86090000D03*
%TO.P,R1,2*%
%TO.N,Net-(U1-CC2)*%
X125010000Y-86090000D03*
%TD*%
D52*
%TO.P,Y1,1,1*%
%TO.N,Net-(C21-Pad1)*%
X108923134Y-109631587D03*
%TO.P,Y1,2,2*%
%TO.N,GNDISO2*%
X110478769Y-111187222D03*
%TO.P,Y1,3,3*%
%TO.N,Net-(U13-OSC1)*%
X111610140Y-110055851D03*
%TO.P,Y1,4,4*%
%TO.N,GNDISO2*%
X110054505Y-108500216D03*
%TD*%
D21*
%TO.P,D12,1,K*%
%TO.N,Net-(D12-K)*%
X152400000Y-117790000D03*
%TO.P,D12,2,A*%
%TO.N,+3V3*%
X154100000Y-117790000D03*
%TD*%
D20*
%TO.P,R81,1*%
%TO.N,Net-(C21-Pad1)*%
X108436091Y-107938909D03*
%TO.P,R81,2*%
%TO.N,Net-(U13-OSC2)*%
X109213909Y-107161091D03*
%TD*%
D34*
%TO.P,C6,1*%
%TO.N,GND*%
X105350000Y-100375000D03*
%TO.P,C6,2*%
%TO.N,/regulator/SYS_PWR*%
X105350000Y-101475000D03*
%TD*%
D27*
%TO.P,U4,1,32khz*%
%TO.N,unconnected-(U4-32khz-Pad1)*%
X135020000Y-91500000D03*
%TO.P,U4,2,VCC*%
%TO.N,+3V3*%
X136290000Y-91500000D03*
%TO.P,U4,3,INT*%
%TO.N,unconnected-(U4-INT-Pad3)*%
X137560000Y-91500000D03*
%TO.P,U4,4,~{RST}*%
%TO.N,unconnected-(U4-~{RST}-Pad4)*%
X138830000Y-91500000D03*
%TO.P,U4,5,GND*%
%TO.N,GND*%
X138830000Y-86550000D03*
%TO.P,U4,6,VBAT*%
X137560000Y-86550000D03*
%TO.P,U4,7,SDA*%
%TO.N,/SDA1*%
X136290000Y-86550000D03*
%TO.P,U4,8,SCL*%
%TO.N,/SCL1*%
X135020000Y-86550000D03*
%TD*%
D13*
%TO.P,Q9,1*%
%TO.N,SWITCHING_3V3*%
X164250000Y-102800000D03*
%TO.P,Q9,2*%
%TO.N,Net-(Q9-Pad2)*%
X164250000Y-100260000D03*
%TO.P,Q9,3*%
%TO.N,CHAN_2A_OUT*%
X158100000Y-100260000D03*
%TO.P,Q9,4*%
%TO.N,EMG_HIGH*%
X158100000Y-102800000D03*
%TD*%
D34*
%TO.P,C4,1*%
%TO.N,GNDISO1*%
X122900000Y-104400000D03*
%TO.P,C4,2*%
%TO.N,Net-(U10-XIN)*%
X122900000Y-103300000D03*
%TD*%
D53*
%TO.P,U17,*%
%TO.N,*%
X162930000Y-83410000D03*
D54*
%TO.P,U17,1,A0*%
%TO.N,/processor/ENC_CTL_0*%
X164630000Y-83160000D03*
D55*
%TO.P,U17,2,A1*%
%TO.N,/processor/ENC_CTL_1*%
X164180000Y-82210000D03*
%TO.P,U17,3,A2*%
%TO.N,/processor/ENC_CTL_2*%
X163680000Y-82210000D03*
%TO.P,U17,4,~{G2A}*%
%TO.N,GNDREF*%
X163180000Y-82210000D03*
%TO.P,U17,5,~{G2B}*%
X162680000Y-82210000D03*
%TO.P,U17,6,G1*%
%TO.N,Net-(D10-A)*%
X162180000Y-82210000D03*
%TO.P,U17,7,Y7*%
%TO.N,/switch_control/CHAN_7*%
X161680000Y-82210000D03*
D54*
%TO.P,U17,8,GND*%
%TO.N,GNDREF*%
X161230000Y-83160000D03*
%TO.P,U17,9,Y6*%
%TO.N,/switch_control/CHAN_6*%
X161230000Y-83660000D03*
D55*
%TO.P,U17,10,Y5*%
%TO.N,/switch_control/CHAN_5*%
X161680000Y-84610000D03*
%TO.P,U17,11,Y4*%
%TO.N,/switch_control/CHAN_4*%
X162180000Y-84610000D03*
%TO.P,U17,12,Y3*%
%TO.N,/switch_control/CHAN_3*%
X162680000Y-84610000D03*
%TO.P,U17,13,Y2*%
%TO.N,/switch_control/CHAN_2*%
X163180000Y-84610000D03*
%TO.P,U17,14,Y1*%
%TO.N,/switch_control/CHAN_1*%
X163680000Y-84610000D03*
%TO.P,U17,15,Y0*%
%TO.N,/switch_control/CHAN_0*%
X164180000Y-84610000D03*
D54*
%TO.P,U17,16,VDD*%
%TO.N,SWITCHING_3V3*%
X164630000Y-83660000D03*
%TD*%
D34*
%TO.P,C11,1*%
%TO.N,+3V3*%
X124975000Y-89325000D03*
%TO.P,C11,2*%
%TO.N,GNDISO1*%
X124975000Y-88225000D03*
%TD*%
D36*
%TO.P,R17,1*%
%TO.N,/processor/QSPI_CS*%
X132525000Y-79550000D03*
%TO.P,R17,2*%
%TO.N,Net-(D3-A)*%
X133625000Y-79550000D03*
%TD*%
D37*
%TO.P,J5,*%
%TO.N,*%
X116100000Y-123075000D03*
X123550000Y-123075000D03*
D38*
%TO.P,J5,1,1*%
%TO.N,GND*%
X117950000Y-119875000D03*
%TO.P,J5,2,2*%
%TO.N,/CAN_L*%
X119200000Y-119875000D03*
%TO.P,J5,3,3*%
%TO.N,/CAN_H*%
X120450000Y-119875000D03*
%TO.P,J5,4,4*%
%TO.N,+3V3*%
X121700000Y-119875000D03*
%TD*%
D49*
%TO.P,D8,1,K*%
%TO.N,/processor/A_IN_2_PIN*%
X116325000Y-114980000D03*
%TO.P,D8,2,A*%
%TO.N,GND*%
X116325000Y-118030000D03*
%TD*%
D34*
%TO.P,C16,1*%
%TO.N,+1V1*%
X129300000Y-90250000D03*
%TO.P,C16,2*%
%TO.N,GNDISO1*%
X129300000Y-89150000D03*
%TD*%
D56*
%TO.P,U3,1,EN*%
%TO.N,/regulator/SYS_PWR*%
X109930000Y-92800000D03*
%TO.P,U3,2,VIN*%
X108660000Y-92800000D03*
%TO.P,U3,3,VOUT*%
%TO.N,+3V3*%
X107390000Y-92800000D03*
%TO.P,U3,4,BYP*%
%TO.N,Net-(U3-BYP)*%
X106120000Y-92800000D03*
%TO.P,U3,5,GND*%
%TO.N,GND*%
X106120000Y-97750000D03*
%TO.P,U3,6,GND*%
X107390000Y-97750000D03*
%TO.P,U3,7,GND*%
X108660000Y-97750000D03*
%TO.P,U3,8,GND*%
X109930000Y-97750000D03*
%TD*%
D57*
%TO.P,SP1,1,+*%
%TO.N,Net-(SP1-+)*%
X123125000Y-112325000D03*
%TO.P,SP1,2,-*%
%TO.N,Net-(Q3-D)*%
X130725000Y-112325000D03*
%TD*%
D58*
%TO.P,U11,*%
%TO.N,*%
X115455000Y-94272500D03*
D59*
%TO.P,U11,1,~{CS}*%
%TO.N,/processor/QSPI_CS*%
X113550000Y-96935000D03*
%TO.P,U11,2,DO(IO1)*%
%TO.N,/processor/QSPI_SD1*%
X114820000Y-96935000D03*
%TO.P,U11,3,WP(IO2)*%
%TO.N,/processor/QSPI_SD2*%
X116090000Y-96935000D03*
%TO.P,U11,4,GND*%
%TO.N,GND*%
X117360000Y-96935000D03*
%TO.P,U11,5,DI(IO0)*%
%TO.N,/processor/QSPI_SD0*%
X117360000Y-91610000D03*
%TO.P,U11,6,CLK*%
%TO.N,/processor/QSPI_SCLK*%
X116090000Y-91610000D03*
%TO.P,U11,7,HOLD(IO3)*%
%TO.N,/processor/QSPI_SD3*%
X114820000Y-91610000D03*
%TO.P,U11,8,VCC*%
%TO.N,+3V3*%
X113550000Y-91610000D03*
%TD*%
D60*
%TO.P,U13,1,~{CS}*%
%TO.N,/processor/CAN_CS*%
X116944113Y-103963604D03*
%TO.P,U13,2,~{RESET}*%
%TO.N,/processor/CAN_RESET*%
X116484493Y-103503984D03*
%TO.P,U13,3,VDD*%
%TO.N,+3V3*%
X116024874Y-103044365D03*
%TO.P,U13,4,TxCAN*%
%TO.N,Net-(U13-TXD)*%
X115565254Y-102584746D03*
%TO.P,U13,5,RxCAN*%
%TO.N,Net-(U13-RXD)*%
X115105635Y-102125126D03*
%TO.P,U13,6,CLKOUT*%
%TO.N,unconnected-(U13-CLKOUT-Pad6)*%
X114646016Y-101665507D03*
%TO.P,U13,7,~{Tx0RTS}*%
%TO.N,/processor/~{Tx0RTS}*%
X114186396Y-101205887D03*
D61*
%TO.P,U13,8,~{Tx1RTS}*%
%TO.N,unconnected-(U13-~{Tx1RTS}-Pad8)*%
X112913604Y-101205887D03*
%TO.P,U13,9,~{Tx2RTS}*%
%TO.N,unconnected-(U13-~{Tx2RTS}-Pad9)*%
X112453984Y-101665507D03*
%TO.P,U13,10,RXD*%
%TO.N,Net-(U13-RXD)*%
X111994365Y-102125126D03*
%TO.P,U13,11,VIO*%
%TO.N,+3V3*%
X111534746Y-102584746D03*
%TO.P,U13,12,CANL*%
%TO.N,/CAN_L*%
X111075126Y-103044365D03*
%TO.P,U13,13,CANH*%
%TO.N,/CAN_H*%
X110615507Y-103503984D03*
%TO.P,U13,14,NC*%
%TO.N,unconnected-(U13-NC-Pad14)*%
X110155887Y-103963604D03*
D60*
%TO.P,U13,15,STBY*%
%TO.N,/processor/CAN_STBY*%
X110155887Y-105236396D03*
%TO.P,U13,16,TXD*%
%TO.N,Net-(U13-TXD)*%
X110615507Y-105696016D03*
%TO.P,U13,17,NC*%
%TO.N,unconnected-(U13-NC-Pad17)*%
X111075126Y-106155635D03*
%TO.P,U13,18,VSS*%
%TO.N,GNDISO2*%
X111534746Y-106615254D03*
%TO.P,U13,19,VDDA*%
%TO.N,+5V*%
X111994365Y-107074874D03*
%TO.P,U13,20,OSC2*%
%TO.N,Net-(U13-OSC2)*%
X112453984Y-107534493D03*
%TO.P,U13,21,OSC1*%
%TO.N,Net-(U13-OSC1)*%
X112913604Y-107994113D03*
D61*
%TO.P,U13,22,GND*%
%TO.N,GNDISO2*%
X114186396Y-107994113D03*
%TO.P,U13,23,~{Rx1BF}*%
%TO.N,unconnected-(U13-~{Rx1BF}-Pad23)*%
X114646016Y-107534493D03*
%TO.P,U13,24,~{Rx0BF}*%
%TO.N,/processor/~{Rx0BF}*%
X115105635Y-107074874D03*
%TO.P,U13,25,~{INT}*%
%TO.N,/processor/CAN_INT*%
X115565254Y-106615254D03*
%TO.P,U13,26,SCK*%
%TO.N,/processor/SCK1*%
X116024874Y-106155635D03*
%TO.P,U13,27,MOSI*%
%TO.N,/processor/MOSI1*%
X116484493Y-105696016D03*
%TO.P,U13,28,MISO*%
%TO.N,/processor/MISO1*%
X116944113Y-105236396D03*
D62*
%TO.P,U13,29,EP*%
%TO.N,GNDISO2*%
X113550000Y-104600000D03*
%TD*%
D36*
%TO.P,C1,1*%
%TO.N,GND*%
X109800000Y-90950000D03*
%TO.P,C1,2*%
%TO.N,/regulator/SYS_PWR*%
X108700000Y-90950000D03*
%TD*%
D63*
%TO.P,J4,*%
%TO.N,*%
X161474999Y-76909978D03*
X156525001Y-76909978D03*
D64*
%TO.P,J4,1,1*%
%TO.N,EMG_HIGH*%
X159625000Y-80119979D03*
%TO.P,J4,2,2*%
%TO.N,EMG_LOW*%
X158375000Y-80119979D03*
%TD*%
D65*
%TO.P,JP4,1,1*%
%TO.N,/CAN_L*%
X119175000Y-117375000D03*
D66*
%TO.P,JP4,2,2*%
%TO.N,Net-(JP4-Pad2)*%
X120475000Y-117375000D03*
%TD*%
D67*
%TO.P,U2,1,Vref*%
%TO.N,+3V3*%
X109965000Y-114750000D03*
%TO.P,U2,2,SWDIO/TMS*%
%TO.N,/SWDIO*%
X109965000Y-119050000D03*
%TO.P,U2,3,GND*%
%TO.N,GND*%
X108695000Y-114750000D03*
%TO.P,U2,4,SWDCLK/TCK*%
%TO.N,/SWCLK*%
X108695000Y-119050000D03*
%TO.P,U2,5,GND*%
%TO.N,GND*%
X107425000Y-114750000D03*
%TO.P,U2,6,SWO/TDO*%
%TO.N,unconnected-(U2-SWO{slash}TDO-Pad6)*%
X107425000Y-119050000D03*
%TO.P,U2,7,KEY*%
%TO.N,unconnected-(U2-KEY-Pad7)*%
X106155000Y-114750000D03*
%TO.P,U2,8,NC/TDI*%
%TO.N,unconnected-(U2-NC{slash}TDI-Pad8)*%
X106155000Y-119050000D03*
%TO.P,U2,9,GNDDetect*%
%TO.N,unconnected-(U2-GNDDetect-Pad9)*%
X104885000Y-114750000D03*
%TO.P,U2,10,~{RESET}*%
%TO.N,/~{RESET}*%
X104885000Y-119050000D03*
%TD*%
D13*
%TO.P,Q1,1*%
%TO.N,SWITCHING_3V3*%
X140780000Y-102280000D03*
%TO.P,Q1,2*%
%TO.N,Net-(Q1-Pad2)*%
X140780000Y-104820000D03*
%TO.P,Q1,3*%
%TO.N,CHAN_0A_OUT*%
X146930000Y-104820000D03*
%TO.P,Q1,4*%
%TO.N,EMG_HIGH*%
X146930000Y-102280000D03*
%TD*%
D36*
%TO.P,C5,1*%
%TO.N,Net-(C5-Pad1)*%
X127225000Y-104450000D03*
%TO.P,C5,2*%
%TO.N,GNDISO1*%
X128325000Y-104450000D03*
%TD*%
D68*
%TO.P,U12,*%
%TO.N,*%
X102450000Y-82613175D03*
X102450000Y-111823175D03*
X153250000Y-82613175D03*
X153250000Y-111823175D03*
D69*
%TO.P,U12,1,LITE*%
%TO.N,Net-(U12-LITE)*%
X102450000Y-108648175D03*
%TO.P,U12,2,MISO*%
%TO.N,/MISO0*%
X102450000Y-106108175D03*
%TO.P,U12,3,SCK*%
%TO.N,/SCK0*%
X102450000Y-103568175D03*
%TO.P,U12,4,MOSI*%
%TO.N,/MOSI0*%
X102450000Y-101028175D03*
%TO.P,U12,5,TFT_CS*%
%TO.N,/TFT_CS*%
X102450000Y-98488175D03*
%TO.P,U12,6,SD_CS*%
%TO.N,/SD_CS*%
X102450000Y-95948175D03*
%TO.P,U12,7,D/C*%
%TO.N,/TFT_DC*%
X102450000Y-93408175D03*
%TO.P,U12,8,~{RESET}*%
%TO.N,/peripherals/~{TFT_RESET}*%
X102450000Y-90868175D03*
%TO.P,U12,9,VCC*%
%TO.N,+3V3*%
X102450000Y-88328175D03*
%TO.P,U12,10,GND*%
%TO.N,GND*%
X102450000Y-85788175D03*
%TD*%
D13*
%TO.P,Q18,1*%
%TO.N,SWITCHING_3V3*%
X148835000Y-93610000D03*
%TO.P,Q18,2*%
%TO.N,Net-(Q18-Pad2)*%
X148835000Y-96150000D03*
%TO.P,Q18,3*%
%TO.N,CHAN_3B_OUT*%
X154985000Y-96150000D03*
%TO.P,Q18,4*%
%TO.N,EMG_LOW*%
X154985000Y-93610000D03*
%TD*%
D36*
%TO.P,C18,1*%
%TO.N,GND*%
X105720000Y-90950000D03*
%TO.P,C18,2*%
%TO.N,+3V3*%
X106820000Y-90950000D03*
%TD*%
D13*
%TO.P,Q31,1*%
%TO.N,SWITCHING_3V3*%
X173325000Y-87000000D03*
%TO.P,Q31,2*%
%TO.N,Net-(Q31-Pad2)*%
X173325000Y-84460000D03*
%TO.P,Q31,3*%
%TO.N,CHAN_7A_OUT*%
X167175000Y-84460000D03*
%TO.P,Q31,4*%
%TO.N,EMG_HIGH*%
X167175000Y-87000000D03*
%TD*%
D10*
%TO.P,R27,1*%
%TO.N,/A_IN_2*%
X114650000Y-116600000D03*
%TO.P,R27,2*%
%TO.N,/processor/A_IN_2_PIN*%
X114650000Y-114900000D03*
%TD*%
D70*
%TO.N,/regulator/SYS_PWR*%
X106826138Y-99228811D03*
X107137500Y-95762500D03*
X105375000Y-102250500D03*
X108660000Y-94300000D03*
X115080000Y-84900000D03*
%TO.N,+3V3*%
X119950000Y-114625000D03*
X110900000Y-114700000D03*
X131850000Y-92500000D03*
X143870000Y-117980000D03*
X122475000Y-119875000D03*
X131900000Y-116550000D03*
X131970000Y-97650000D03*
X131900000Y-117975000D03*
X108775000Y-121250000D03*
X111125000Y-101500000D03*
X132200000Y-90275000D03*
X129475000Y-91475000D03*
X118550000Y-114625000D03*
X120030000Y-97160000D03*
X125644085Y-90125000D03*
X112575000Y-121375000D03*
X146430000Y-112910000D03*
X122730000Y-110310000D03*
X148150000Y-121275000D03*
X102450000Y-118300000D03*
X113550000Y-90800000D03*
X120500000Y-93150000D03*
X136790000Y-113110000D03*
X154550000Y-119830000D03*
X117175000Y-99400000D03*
X126079500Y-97925000D03*
X136290000Y-90030000D03*
X130825000Y-121129502D03*
X149800000Y-108025000D03*
X154280000Y-114760000D03*
X111780000Y-94270000D03*
X126275000Y-119875000D03*
X118025000Y-101050000D03*
X156500000Y-112100000D03*
X137800000Y-111025000D03*
X106825000Y-89925000D03*
%TO.N,+5V*%
X111247506Y-107602922D03*
X106400000Y-106300000D03*
X108437500Y-105762500D03*
%TO.N,/CAN_L*%
X110533564Y-102263929D03*
X118575000Y-116400000D03*
%TO.N,/CAN_H*%
X118075000Y-116950000D03*
X120450000Y-118675000D03*
X109925000Y-102915653D03*
%TO.N,/ROT_ENC_0*%
X128700000Y-96200000D03*
X133920500Y-100080000D03*
%TO.N,/ROT_ENC_1*%
X134470000Y-99160000D03*
X128481500Y-95384566D03*
%TO.N,/ESP-Wifi/EN*%
X147260000Y-118050000D03*
%TO.N,/A_IN_2*%
X115500000Y-117625000D03*
%TO.N,/A_IN_3*%
X115399414Y-119900586D03*
%TO.N,Net-(D10-A)*%
X162270000Y-80269500D03*
X163938233Y-78001472D03*
%TO.N,/RX*%
X111900000Y-116850000D03*
X123936423Y-94248750D03*
%TO.N,/TX*%
X111015952Y-116989463D03*
X123550000Y-93630000D03*
%TO.N,/SCL1*%
X131930000Y-98740000D03*
X128760603Y-115884431D03*
%TO.N,/SDA1*%
X128525000Y-114900000D03*
X131937311Y-99491895D03*
%TO.N,EMG_HIGH*%
X148360498Y-104026500D03*
X160340274Y-78320570D03*
X145740000Y-101990000D03*
%TO.N,EMG_LOW*%
X155840000Y-90740000D03*
X155853819Y-92797760D03*
X157650000Y-80080000D03*
%TO.N,CHAN_0A_OUT*%
X162290000Y-96990000D03*
%TO.N,CHAN_0B_OUT*%
X157920000Y-97740000D03*
X153900000Y-100650000D03*
%TO.N,CHAN_1A_OUT*%
X162290000Y-95980000D03*
%TO.N,CHAN_1B_OUT*%
X147875000Y-99376500D03*
X159330000Y-95990000D03*
X153180000Y-99480500D03*
%TO.N,CHAN_2A_OUT*%
X162280000Y-94990000D03*
%TO.N,CHAN_2B_OUT*%
X159310000Y-95000000D03*
%TO.N,CHAN_3A_OUT*%
X162280000Y-94010000D03*
%TO.N,CHAN_3B_OUT*%
X155200000Y-95340000D03*
X156770000Y-94010000D03*
X159370000Y-94030000D03*
%TO.N,CHAN_4A_OUT*%
X162260000Y-92990000D03*
%TO.N,CHAN_4B_OUT*%
X154950000Y-92783498D03*
X159310000Y-93000000D03*
X156739157Y-92629160D03*
%TO.N,CHAN_5A_OUT*%
X162270000Y-91990000D03*
X166980000Y-93290000D03*
X164890000Y-92380000D03*
%TO.N,CHAN_5B_OUT*%
X159330000Y-91960000D03*
%TO.N,CHAN_6A_OUT*%
X162250000Y-90990000D03*
X166425000Y-89275000D03*
X164820000Y-90980000D03*
%TO.N,CHAN_6B_OUT*%
X159320000Y-90970000D03*
%TO.N,CHAN_7A_OUT*%
X162260000Y-89990000D03*
%TO.N,CHAN_7B_OUT*%
X155900000Y-88060000D03*
X156620000Y-89750000D03*
X159320000Y-90020000D03*
%TO.N,/SCL0*%
X131150174Y-97336500D03*
X128919246Y-118712679D03*
%TO.N,/SDA0*%
X130773500Y-98062366D03*
X127329500Y-117975000D03*
%TO.N,Net-(Q1-Pad2)*%
X141690000Y-104870000D03*
%TO.N,GNDISO1*%
X123025000Y-88225000D03*
X126120000Y-94570000D03*
X118910000Y-97890000D03*
X124979500Y-101159920D03*
X122168756Y-104348756D03*
X131107843Y-103257843D03*
X129907843Y-104457843D03*
X132930000Y-97550000D03*
X119971297Y-92621297D03*
X132940000Y-92500000D03*
X131350000Y-89125000D03*
%TO.N,Net-(Q7-Pad2)*%
X149859782Y-100277460D03*
%TO.N,Net-(Q9-Pad2)*%
X163225000Y-100250000D03*
%TO.N,Net-(Q11-Pad2)*%
X141850000Y-96295000D03*
%TO.N,Net-(Q14-Pad2)*%
X153725500Y-102500000D03*
%TO.N,Net-(Q15-Pad2)*%
X171525000Y-100175000D03*
%TO.N,Net-(Q17-Pad2)*%
X141966170Y-100135390D03*
%TO.N,Net-(Q18-Pad2)*%
X149866892Y-96198211D03*
%TO.N,Net-(Q20-Pad2)*%
X171425000Y-96100000D03*
%TO.N,Net-(Q22-Pad2)*%
X150000000Y-92300000D03*
%TO.N,Net-(Q23-Pad2)*%
X172390943Y-88281625D03*
%TO.N,Net-(Q26-Pad2)*%
X171424500Y-92100000D03*
%TO.N,Net-(Q27-Pad2)*%
X141857406Y-88103453D03*
%TO.N,Net-(Q30-Pad2)*%
X141850000Y-92525000D03*
%TO.N,Net-(Q31-Pad2)*%
X172323340Y-84341689D03*
%TO.N,Net-(Q34-Pad2)*%
X149950000Y-88280000D03*
%TO.N,/switch_control/CHAN_0*%
X150500000Y-97829500D03*
X143900000Y-101150000D03*
X164510000Y-86030000D03*
%TO.N,/BUZZER*%
X130575000Y-107675000D03*
X123686494Y-96896494D03*
%TO.N,/processor/CAN_CS*%
X130220000Y-101340000D03*
X119800000Y-112425000D03*
X130460000Y-94320000D03*
X116259260Y-108928844D03*
X118300000Y-103750000D03*
%TO.N,/processor/CAN_STBY*%
X114957890Y-108532890D03*
X128693000Y-98378000D03*
X109125000Y-104775000D03*
X122397292Y-106447292D03*
%TO.N,/processor/QSPI_CS*%
X132250000Y-80200000D03*
X119266571Y-92416571D03*
%TO.N,/peripherals/~{TFT_RESET}*%
X105800000Y-122600000D03*
%TO.N,/switch_control/CHAN_1*%
X143320000Y-98070000D03*
X163709116Y-86082057D03*
X152520000Y-104720000D03*
%TO.N,/processor/CAN_RESET*%
X115725000Y-109425000D03*
X129809050Y-100566500D03*
X119097222Y-112647222D03*
X117225000Y-102725000D03*
X130980000Y-93736500D03*
%TO.N,/switch_control/CHAN_2*%
X140925000Y-94950000D03*
X163750000Y-87260498D03*
X162000000Y-102474500D03*
%TO.N,/switch_control/CHAN_3*%
X151175000Y-94250000D03*
X162650721Y-85680558D03*
X173050000Y-101875000D03*
%TO.N,/switch_control/CHAN_4*%
X173050000Y-97825000D03*
X161590000Y-85730000D03*
X151290000Y-90150000D03*
%TO.N,/switch_control/CHAN_6*%
X143225000Y-86025000D03*
X160150000Y-84475000D03*
X173150000Y-89634500D03*
%TO.N,/switch_control/CHAN_5*%
X173125000Y-93750000D03*
X161020000Y-84540000D03*
X143190000Y-90200000D03*
%TO.N,/switch_control/CHAN_7*%
X173100000Y-85800000D03*
X160839458Y-82595197D03*
X154950000Y-84750000D03*
%TO.N,Net-(R75-Pad1)*%
X167150000Y-104790000D03*
X168790000Y-108250000D03*
%TO.N,Net-(R76-Pad2)*%
X163525000Y-106950000D03*
%TO.N,/~{RESET}*%
X111900068Y-118706783D03*
X129270000Y-100040000D03*
X134880000Y-90098500D03*
X139330000Y-79650000D03*
%TO.N,/TFT_CS*%
X118025000Y-98700000D03*
X103900000Y-98480000D03*
%TO.N,/SWDIO*%
X110825000Y-118529500D03*
X128755550Y-100613363D03*
%TO.N,/SWCLK*%
X108425000Y-117250000D03*
X127900001Y-100835501D03*
%TO.N,/SCK0*%
X121040000Y-94280500D03*
%TO.N,/MOSI0*%
X120370982Y-94570500D03*
%TO.N,/MISO0*%
X120359287Y-95629500D03*
%TO.N,/SD_CS*%
X119014253Y-93923286D03*
X105075000Y-93680000D03*
%TO.N,/TFT_DC*%
X105120000Y-92730000D03*
X121080000Y-95739500D03*
%TO.N,/processor/SCK1*%
X122163500Y-98936273D03*
X118403335Y-108338143D03*
%TO.N,/processor/MOSI1*%
X118665267Y-107660502D03*
X122572804Y-99597096D03*
%TO.N,/processor/MISO1*%
X122548500Y-100417539D03*
X119028387Y-106928387D03*
%TO.N,/processor/ENC_CTL_0*%
X159924413Y-83374413D03*
X123600000Y-98378000D03*
X131975000Y-84150000D03*
X165343672Y-83130500D03*
X139450500Y-83740994D03*
%TO.N,/processor/ENC_CTL_1*%
X139450500Y-84470497D03*
X124166109Y-97917898D03*
X164096030Y-81269500D03*
X131262869Y-84689499D03*
X159110000Y-84190000D03*
%TO.N,/processor/ENC_CTL_2*%
X124996417Y-97839502D03*
X163370462Y-81345166D03*
X139450500Y-85200000D03*
X158548669Y-84400499D03*
X131900000Y-85218999D03*
%TO.N,/processor/~{Tx0RTS}*%
X122051500Y-107270990D03*
X129011000Y-99300000D03*
X115150000Y-100400000D03*
%TO.N,/processor/CAN_INT*%
X131175000Y-96283500D03*
X120373448Y-108948448D03*
%TO.N,/processor/~{Rx0BF}*%
X119441643Y-109391643D03*
X130595607Y-95786500D03*
%TO.N,Net-(U13-TXD)*%
X116250000Y-101825000D03*
X109500000Y-106025000D03*
%TO.N,Net-(U13-RXD)*%
X111722630Y-101086910D03*
X115628129Y-101077422D03*
%TO.N,GNDREF*%
X153957998Y-88350500D03*
X154265584Y-90798498D03*
X160525000Y-81208697D03*
X154741026Y-98933367D03*
X156405498Y-102275000D03*
X166050000Y-81075000D03*
X164750000Y-81828102D03*
X154358430Y-94919868D03*
X160423500Y-79213500D03*
%TO.N,SWITCHING_3V3*%
X150975000Y-104873500D03*
X172800000Y-83150000D03*
X151499606Y-89450207D03*
X165950000Y-83650000D03*
X148075000Y-76850000D03*
X151581787Y-97379500D03*
X162030000Y-79080000D03*
X148025000Y-83275000D03*
X151242000Y-86225000D03*
X161450000Y-80815666D03*
X148175000Y-86125000D03*
X151677149Y-93394649D03*
%TO.N,/processor/A_IN_2_PIN*%
X128481500Y-94658063D03*
X113801500Y-114900000D03*
%TO.N,/processor/A_IN_3_PIN*%
X128671498Y-93956845D03*
X113371326Y-115946326D03*
%TO.N,GND*%
X104175000Y-105700000D03*
X143880000Y-115000000D03*
X106273995Y-102203503D03*
X103975000Y-87300000D03*
X117275000Y-117950000D03*
X134800000Y-108000000D03*
X116764661Y-97270600D03*
X139300000Y-119850000D03*
X139275000Y-77225000D03*
X143880000Y-110500000D03*
X113475000Y-123625000D03*
X139070000Y-80910000D03*
X112700000Y-97750000D03*
X111750000Y-91700000D03*
X107525000Y-121100000D03*
X151470000Y-120030000D03*
X110250000Y-121200000D03*
X113375586Y-120674414D03*
X131625000Y-119850000D03*
X129375000Y-109900000D03*
X110550000Y-90925000D03*
X151486502Y-114570000D03*
X106125000Y-96300000D03*
X140425000Y-110450000D03*
X104925000Y-90950000D03*
X136825000Y-76227500D03*
X136750000Y-111050000D03*
X103925000Y-100350000D03*
X156500000Y-119950000D03*
X127050000Y-121200000D03*
X152789502Y-119060000D03*
X140400000Y-114950000D03*
D71*
X112910000Y-79850000D03*
D70*
X137019500Y-86575000D03*
X107425000Y-116675000D03*
X132100000Y-109900000D03*
X110825000Y-98150000D03*
X165920000Y-104940000D03*
X135190000Y-94210000D03*
X133150000Y-108600000D03*
X156475000Y-111075000D03*
X151775000Y-107375000D03*
X117950000Y-119750000D03*
X134150000Y-76202500D03*
%TO.N,/RXD*%
X143000000Y-120400000D03*
%TO.N,/TXD*%
X141775000Y-121500000D03*
%TO.N,/ESP-Wifi/GPIO0*%
X136725000Y-115075000D03*
X132310000Y-115075000D03*
%TO.N,Net-(U16-SCLK)*%
X137300000Y-106325000D03*
%TO.N,Net-(U16-CS0)*%
X147300000Y-106253500D03*
%TO.N,Net-(U16-MOSI)*%
X139300000Y-106325000D03*
%TO.N,Net-(U16-MISO)*%
X145300000Y-106253500D03*
%TO.N,Net-(U16-IO5)*%
X136750000Y-119075000D03*
%TO.N,Net-(U16-IO9)*%
X143300000Y-106300000D03*
%TO.N,Net-(U16-IO10)*%
X141300000Y-106350000D03*
%TO.N,/ESP-Wifi/ESP_INT*%
X128400000Y-108025000D03*
X121033270Y-96907105D03*
%TO.N,Net-(D11-K)*%
X152410000Y-116620000D03*
%TO.N,Net-(D12-K)*%
X151449740Y-118400644D03*
%TO.N,Net-(U16-IO4)*%
X136725000Y-117075000D03*
%TO.N,Net-(JP4-Pad2)*%
X121650000Y-117375000D03*
%TO.N,/peripherals/switch*%
X160700000Y-118125000D03*
X168450000Y-114500000D03*
%TO.N,/ESP-Wifi/GPIO2*%
X132240000Y-113110000D03*
%TO.N,/ESP-Wifi/~{RESET}*%
X149850000Y-122104502D03*
%TO.N,Net-(U16-IO15)*%
X133440000Y-111050000D03*
%TO.N,/ESP-Wifi/LED2*%
X149940000Y-112045498D03*
%TO.N,/ESP-Wifi/LED1*%
X149760000Y-114045498D03*
%TO.N,Net-(U16-IO16)*%
X147220000Y-117070000D03*
%TO.N,GNDISO2*%
X115750000Y-99750000D03*
X106500000Y-104475000D03*
X111300000Y-100200000D03*
X119300000Y-102150000D03*
X109850000Y-112125000D03*
X110231605Y-109778004D03*
X108625000Y-101300000D03*
X107750000Y-107525000D03*
X110669198Y-107024613D03*
X109025000Y-111750000D03*
X112350000Y-112725000D03*
X108525000Y-102925000D03*
%TD*%
D72*
%TO.N,Net-(C21-Pad1)*%
X107925000Y-108450000D02*
X107925000Y-108750000D01*
X107925000Y-108750000D02*
X108800000Y-109625000D01*
X108436091Y-107938909D02*
X107925000Y-108450000D01*
X108800000Y-109625000D02*
X108950000Y-109625000D01*
%TO.N,Net-(U13-OSC2)*%
X112453984Y-107534493D02*
X111788477Y-108200000D01*
X109775000Y-106875000D02*
X109475000Y-106875000D01*
X111788477Y-108200000D02*
X111100000Y-108200000D01*
X111100000Y-108200000D02*
X109775000Y-106875000D01*
X109475000Y-106875000D02*
X109225000Y-107125000D01*
%TO.N,GNDISO2*%
X110231605Y-108677316D02*
X109979289Y-108425000D01*
X110231605Y-109778004D02*
X110231605Y-108677316D01*
%TO.N,SWITCHING_3V3*%
X162030000Y-79080000D02*
X163145000Y-79080000D01*
X163145000Y-79080000D02*
X163150000Y-79075000D01*
%TO.N,Net-(D10-A)*%
X163175000Y-77375000D02*
X163925000Y-77375000D01*
%TO.N,Net-(U10-XIN)*%
X122900000Y-102700000D02*
X123330000Y-102270000D01*
X124285000Y-100990000D02*
X125525000Y-99750000D01*
X125525000Y-99750000D02*
X125525000Y-99245000D01*
X123330000Y-102270000D02*
X124260000Y-102270000D01*
X124285000Y-102285000D02*
X124285000Y-100990000D01*
X122900000Y-103300000D02*
X122900000Y-102700000D01*
%TO.N,Net-(C5-Pad1)*%
X125890000Y-104485000D02*
X127225000Y-103150000D01*
X127225000Y-104450000D02*
X126075000Y-104450000D01*
X126075000Y-104450000D02*
X126050000Y-104475000D01*
X125885000Y-104485000D02*
X125890000Y-104485000D01*
D73*
%TO.N,/regulator/SYS_PWR*%
X109930000Y-92800000D02*
X108725000Y-92800000D01*
X115090000Y-84890000D02*
X115080000Y-84900000D01*
X107645000Y-90345000D02*
X107645000Y-87215000D01*
D72*
X142225000Y-81600000D02*
X143900000Y-83275000D01*
X120030000Y-84160000D02*
X120030000Y-82470000D01*
D73*
X115090000Y-84110000D02*
X120050000Y-84110000D01*
X108250000Y-90950000D02*
X108675000Y-90950000D01*
X107645000Y-90345000D02*
X108250000Y-90950000D01*
D72*
X143900000Y-83275000D02*
X146540000Y-83275000D01*
X106826138Y-96073862D02*
X106826138Y-99228811D01*
X108660000Y-94300000D02*
X108660000Y-92800000D01*
D73*
X115090000Y-84110000D02*
X115090000Y-84890000D01*
D72*
X105350000Y-101475000D02*
X105350000Y-102225500D01*
D73*
X107645000Y-87215000D02*
X110750000Y-84110000D01*
X110750000Y-84110000D02*
X115090000Y-84110000D01*
D72*
X120030000Y-82470000D02*
X120900000Y-81600000D01*
X105350000Y-102225500D02*
X105375000Y-102250500D01*
D73*
X108700000Y-90950000D02*
X108700000Y-93125000D01*
D72*
X107137500Y-95762500D02*
X106826138Y-96073862D01*
X120900000Y-81600000D02*
X142225000Y-81600000D01*
D73*
X120040000Y-84120000D02*
X119970000Y-84190000D01*
D72*
%TO.N,+3V3*%
X122190000Y-96800000D02*
X122740000Y-96800000D01*
X117537500Y-101537500D02*
X117950000Y-101950000D01*
X107390000Y-91540000D02*
X106850000Y-91000000D01*
X126725000Y-92375000D02*
X126325000Y-92375000D01*
X116925000Y-99400000D02*
X117175000Y-99400000D01*
X131500000Y-90275000D02*
X131475000Y-90250000D01*
X111750000Y-94240000D02*
X111780000Y-94270000D01*
X128325000Y-92375000D02*
X128325000Y-91750000D01*
X121700000Y-119875000D02*
X122475000Y-119875000D01*
X111025000Y-102075000D02*
X111534746Y-102584746D01*
X151800000Y-109125000D02*
X150025000Y-109125000D01*
X110850000Y-114750000D02*
X110900000Y-114700000D01*
X131835000Y-93235000D02*
X131835000Y-92515000D01*
X122690000Y-93210000D02*
X121350000Y-93210000D01*
X131835000Y-92515000D02*
X131850000Y-92500000D01*
X120710000Y-97890000D02*
X120710000Y-97840000D01*
X126325000Y-99245000D02*
X126325000Y-100533310D01*
X154110000Y-114930000D02*
X154110000Y-115840000D01*
X127486690Y-101695000D02*
X127905000Y-101695000D01*
X131825000Y-96800000D02*
X131825000Y-97505000D01*
X120535000Y-93210000D02*
X120525000Y-93200000D01*
X121350000Y-93210000D02*
X120535000Y-93210000D01*
X120560000Y-93210000D02*
X120500000Y-93150000D01*
X128325000Y-91750000D02*
X129100000Y-90975000D01*
X117138909Y-101138909D02*
X117537500Y-101537500D01*
X129950000Y-90975000D02*
X130375000Y-90550000D01*
X136280000Y-93430000D02*
X136280000Y-91610000D01*
X126075000Y-89350000D02*
X126050000Y-89325000D01*
X112575000Y-122100000D02*
X112575000Y-121375000D01*
X116375000Y-98775000D02*
X116375000Y-98850000D01*
X113550000Y-91610000D02*
X113550000Y-90800000D01*
X126325000Y-99245000D02*
X126325000Y-98170500D01*
X154100000Y-117790000D02*
X154100000Y-119380000D01*
X126050000Y-89325000D02*
X125025000Y-89325000D01*
X132200000Y-90275000D02*
X131500000Y-90275000D01*
X111750000Y-93500000D02*
X111750000Y-94240000D01*
X116024874Y-103044365D02*
X116030635Y-103044365D01*
X129525000Y-90975000D02*
X129525000Y-91425000D01*
X126075000Y-90500000D02*
X126075000Y-90125000D01*
X121100000Y-97890000D02*
X122190000Y-96800000D01*
X131400000Y-90300000D02*
X131425000Y-90300000D01*
X109965000Y-114750000D02*
X110850000Y-114750000D01*
X117537500Y-101537500D02*
X118025000Y-101050000D01*
X106820000Y-89930000D02*
X106825000Y-89925000D01*
X127905000Y-101695000D02*
X128360000Y-102150000D01*
X126325000Y-92375000D02*
X126325000Y-90750000D01*
X154100000Y-119380000D02*
X154550000Y-119830000D01*
X131825000Y-97505000D02*
X131970000Y-97650000D01*
X130800000Y-119850000D02*
X130800000Y-121104502D01*
X154280000Y-114760000D02*
X154110000Y-114930000D01*
X125025000Y-89325000D02*
X125000000Y-89350000D01*
X130375000Y-90550000D02*
X130375000Y-90250000D01*
X131810000Y-93210000D02*
X131835000Y-93235000D01*
X126075000Y-90125000D02*
X126075000Y-89350000D01*
X111125000Y-101500000D02*
X111025000Y-101600000D01*
X129525000Y-90975000D02*
X129950000Y-90975000D01*
X130475000Y-91225000D02*
X131400000Y-90300000D01*
X136290000Y-91500000D02*
X136290000Y-90030000D01*
X131840000Y-96810000D02*
X131850000Y-96800000D01*
X136280000Y-91610000D02*
X136330000Y-91560000D01*
X129325000Y-92375000D02*
X130475000Y-91225000D01*
X111025000Y-101600000D02*
X111025000Y-102075000D01*
X129560000Y-96810000D02*
X131840000Y-96810000D01*
X149800000Y-109075000D02*
X149800000Y-108025000D01*
X120710000Y-97890000D02*
X121100000Y-97890000D01*
X126325000Y-98170500D02*
X126079500Y-97925000D01*
X116375000Y-98850000D02*
X116925000Y-99400000D01*
X130800000Y-121104502D02*
X130825000Y-121129502D01*
X107390000Y-92800000D02*
X107390000Y-91540000D01*
X119950000Y-114625000D02*
X119950000Y-115475000D01*
X129560000Y-93210000D02*
X131810000Y-93210000D01*
X129100000Y-90975000D02*
X129525000Y-90975000D01*
X120710000Y-97840000D02*
X120030000Y-97160000D01*
X118550000Y-114625000D02*
X118550000Y-115475000D01*
X106820000Y-90950000D02*
X106820000Y-89930000D01*
X129525000Y-91425000D02*
X129475000Y-91475000D01*
X116030635Y-103044365D02*
X116875000Y-102200000D01*
X126325000Y-90750000D02*
X126075000Y-90500000D01*
X126325000Y-100533310D02*
X127486690Y-101695000D01*
X116875000Y-102200000D02*
X117537500Y-101537500D01*
X128725000Y-92375000D02*
X129325000Y-92375000D01*
X150025000Y-109125000D02*
X149975000Y-109075000D01*
X126075000Y-90125000D02*
X125644085Y-90125000D01*
%TO.N,+1V1*%
X129300000Y-90250000D02*
X127925000Y-91625000D01*
X127955000Y-97570000D02*
X127955000Y-93110000D01*
X125925000Y-91425000D02*
X123975000Y-89475000D01*
X127673380Y-101365000D02*
X128041691Y-101365001D01*
X127925000Y-93005000D02*
X127887500Y-93042500D01*
X127887500Y-93042500D02*
X126117500Y-93042500D01*
X129100000Y-101575000D02*
X129435000Y-101910000D01*
X126947500Y-98577500D02*
X127955000Y-97570000D01*
X126941447Y-98577500D02*
X126947500Y-98577500D01*
X126725000Y-99245000D02*
X126725000Y-100416620D01*
X125925000Y-92375000D02*
X125925000Y-91425000D01*
X128251690Y-101575000D02*
X129100000Y-101575000D01*
X128041691Y-101365001D02*
X128251690Y-101575000D01*
X126725000Y-100416620D02*
X127673380Y-101365000D01*
X126117500Y-93042500D02*
X125925000Y-92850000D01*
X127955000Y-93110000D02*
X127887500Y-93042500D01*
X127925000Y-91625000D02*
X127925000Y-92375000D01*
X126725000Y-98793947D02*
X126941447Y-98577500D01*
X123975000Y-89475000D02*
X123975000Y-89350000D01*
X125925000Y-92850000D02*
X125925000Y-92300000D01*
X126725000Y-99245000D02*
X126725000Y-98793947D01*
X127925000Y-92375000D02*
X127925000Y-93005000D01*
%TO.N,+5V*%
X105686091Y-107036091D02*
X105686091Y-107013909D01*
X111994365Y-107074874D02*
X111994365Y-107080635D01*
X108437500Y-105762500D02*
X107988909Y-106211091D01*
X111472078Y-107602922D02*
X111247506Y-107602922D01*
X107988909Y-106211091D02*
X107963909Y-106211091D01*
X111994365Y-107080635D02*
X111472078Y-107602922D01*
X105686091Y-107013909D02*
X106400000Y-106300000D01*
%TO.N,Net-(C21-Pad1)*%
X107661091Y-110411091D02*
X108213909Y-110411091D01*
X108213909Y-110411091D02*
X108975000Y-109650000D01*
%TO.N,Net-(U13-OSC1)*%
X112537868Y-111362132D02*
X112537868Y-110987868D01*
X111610140Y-110055851D02*
X111610140Y-109264860D01*
X111610140Y-109264860D02*
X112900000Y-107975000D01*
X112537868Y-110987868D02*
X111650000Y-110100000D01*
%TO.N,/CAN_L*%
X119175000Y-117000000D02*
X118575000Y-116400000D01*
X108710787Y-99550000D02*
X109575000Y-99550000D01*
X108367390Y-100075000D02*
X108300000Y-100075000D01*
X108252513Y-100008274D02*
X108710787Y-99550000D01*
X109575000Y-99550000D02*
X109975000Y-99950000D01*
X110550000Y-102519239D02*
X110550000Y-102257610D01*
X111075126Y-103044365D02*
X110550000Y-102519239D01*
X119175000Y-117375000D02*
X119175000Y-117000000D01*
X110550000Y-102257610D02*
X108367390Y-100075000D01*
X119175000Y-117375000D02*
X119175000Y-119750000D01*
%TO.N,/CAN_H*%
X106800000Y-101500000D02*
X107300000Y-101000000D01*
X109925000Y-102915653D02*
X110027176Y-102915653D01*
X120450000Y-119875000D02*
X120450000Y-118675000D01*
X107236091Y-102636091D02*
X106800000Y-102200000D01*
X109290653Y-102915653D02*
X107350000Y-100975000D01*
X110027176Y-102915653D02*
X110615507Y-103503984D01*
X109925000Y-102915653D02*
X109290653Y-102915653D01*
X106800000Y-102200000D02*
X106800000Y-101500000D01*
%TO.N,/ROT_ENC_0*%
X129100746Y-95610000D02*
X129560000Y-95610000D01*
X128700000Y-96010746D02*
X129100746Y-95610000D01*
X128700000Y-96200000D02*
X128700000Y-96010746D01*
%TO.N,/ROT_ENC_1*%
X128656066Y-95210000D02*
X129560000Y-95210000D01*
X128481500Y-95384566D02*
X128656066Y-95210000D01*
%TO.N,Net-(D3-K)*%
X137450000Y-78750000D02*
X137450000Y-78500000D01*
X137327500Y-78402500D02*
X133125000Y-78402500D01*
X137400000Y-78330000D02*
X137327500Y-78402500D01*
X137575000Y-78445000D02*
X137550000Y-78420000D01*
X137450000Y-78500000D02*
X137575000Y-78375000D01*
X136425000Y-79775000D02*
X137450000Y-78750000D01*
%TO.N,Net-(D3-A)*%
X133625000Y-79550000D02*
X134700000Y-79550000D01*
X134900000Y-79775000D02*
X134975000Y-79850000D01*
X134725000Y-79775000D02*
X134900000Y-79775000D01*
X134700000Y-79550000D02*
X135000000Y-79850000D01*
%TO.N,VUSB*%
X124270000Y-86110000D02*
X124270000Y-83430000D01*
X128365000Y-82240000D02*
X124905000Y-82240000D01*
X124430000Y-82715000D02*
X124430000Y-83475000D01*
X120030000Y-86960000D02*
X123420000Y-86960000D01*
X128835000Y-83395000D02*
X128835000Y-82710000D01*
X123420000Y-86960000D02*
X124270000Y-86110000D01*
X124905000Y-82240000D02*
X124430000Y-82715000D01*
X128835000Y-82710000D02*
X128365000Y-82240000D01*
%TO.N,/ESP-Wifi/EN*%
X149800000Y-119075000D02*
X149385000Y-119075000D01*
X148360000Y-118050000D02*
X147260000Y-118050000D01*
X149385000Y-119075000D02*
X148360000Y-118050000D01*
%TO.N,/A_IN_2*%
X115500000Y-117350000D02*
X114775000Y-116625000D01*
X114775000Y-116625000D02*
X114625000Y-116625000D01*
X115500000Y-117625000D02*
X115500000Y-117350000D01*
%TO.N,/A_IN_3*%
X114650000Y-119475000D02*
X114775000Y-119475000D01*
X114775000Y-119475000D02*
X115200586Y-119900586D01*
X115200586Y-119900586D02*
X115399414Y-119900586D01*
%TO.N,Net-(D10-K)*%
X167425000Y-80350000D02*
X167425000Y-82025000D01*
X164760000Y-79120000D02*
X164770000Y-79130000D01*
X166110000Y-79035000D02*
X167425000Y-80350000D01*
X164760000Y-79035000D02*
X166110000Y-79035000D01*
%TO.N,Net-(D10-A)*%
X163925000Y-77375000D02*
X163925000Y-77988239D01*
X164750000Y-77375000D02*
X163925000Y-77375000D01*
X163925000Y-77988239D02*
X163938233Y-78001472D01*
X162180000Y-82210000D02*
X162180000Y-80359500D01*
X162180000Y-80359500D02*
X162270000Y-80269500D01*
%TO.N,/RX*%
X123149254Y-94010000D02*
X122690000Y-94010000D01*
X123388004Y-94248750D02*
X123149254Y-94010000D01*
X123936423Y-94248750D02*
X123388004Y-94248750D01*
%TO.N,/TX*%
X123530000Y-93610000D02*
X123550000Y-93630000D01*
X122690000Y-93610000D02*
X123530000Y-93610000D01*
%TO.N,/SCL1*%
X133500000Y-87300000D02*
X134390000Y-86410000D01*
X130145500Y-98010000D02*
X129560000Y-98010000D01*
X128300000Y-119850000D02*
X128300000Y-116345034D01*
X134390000Y-86410000D02*
X135000000Y-86410000D01*
X128300000Y-116345034D02*
X128760603Y-115884431D01*
X131930000Y-98740000D02*
X132485291Y-98740000D01*
X131930000Y-98740000D02*
X130705843Y-98740000D01*
X130705843Y-98740000D02*
X130220000Y-98254157D01*
X130220000Y-98254157D02*
X130220000Y-98084500D01*
X132485291Y-98740000D02*
X133500000Y-97725291D01*
X133500000Y-97725291D02*
X133500000Y-87300000D01*
X130220000Y-98084500D02*
X130145500Y-98010000D01*
%TO.N,/SDA1*%
X136350000Y-87140000D02*
X136350000Y-86640000D01*
X133827000Y-89663000D02*
X136350000Y-87140000D01*
X132195844Y-99491895D02*
X133827000Y-97860739D01*
X128525000Y-114900000D02*
X129550000Y-115925000D01*
X129560000Y-98840000D02*
X129560000Y-98410000D01*
X133827000Y-97860739D02*
X133827000Y-89663000D01*
X131937311Y-99491895D02*
X130211895Y-99491895D01*
X130211895Y-99491895D02*
X129560000Y-98840000D01*
X131937311Y-99491895D02*
X132195844Y-99491895D01*
X129550000Y-115925000D02*
X129550000Y-119850000D01*
%TO.N,EMG_HIGH*%
X163935000Y-79740000D02*
X168005000Y-83810000D01*
X167320000Y-87000000D02*
X167175000Y-87000000D01*
X167175000Y-95125000D02*
X167855000Y-95125000D01*
X156279314Y-102905000D02*
X157895000Y-102905000D01*
X145756853Y-101980000D02*
X145750000Y-101980000D01*
X167975000Y-102375000D02*
X167975000Y-101114000D01*
X167975000Y-101114000D02*
X167977000Y-101112000D01*
X167977000Y-99752000D02*
X167350000Y-99125000D01*
X157895000Y-102905000D02*
X157975000Y-102825000D01*
X148360498Y-104026500D02*
X148350000Y-104036998D01*
X148350000Y-104036998D02*
X148350000Y-104825000D01*
X167855000Y-95125000D02*
X168040000Y-95310000D01*
X168005000Y-83810000D02*
X168005000Y-86315000D01*
X167350000Y-99125000D02*
X167225000Y-99125000D01*
X167380000Y-89740000D02*
X168780000Y-89740000D01*
X167245000Y-95025000D02*
X168050000Y-94220000D01*
X167150000Y-95025000D02*
X167245000Y-95025000D01*
X167340000Y-98130000D02*
X167740000Y-98130000D01*
X146930000Y-102280000D02*
X146630000Y-101980000D01*
X168040000Y-95310000D02*
X168040000Y-96630000D01*
X167370000Y-91050000D02*
X167200000Y-91050000D01*
X168080000Y-90995000D02*
X168075000Y-91000000D01*
X168005000Y-86315000D02*
X167320000Y-87000000D01*
X160950000Y-79740000D02*
X160950000Y-78920466D01*
X168080000Y-90640000D02*
X168080000Y-90995000D01*
X165825000Y-101875000D02*
X159050000Y-101875000D01*
X167780000Y-90340000D02*
X167380000Y-90340000D01*
X167175000Y-91000000D02*
X168075000Y-91000000D01*
X155094314Y-104090000D02*
X156279314Y-102905000D01*
X168740000Y-97530000D02*
X167340000Y-97530000D01*
X168050000Y-91730000D02*
X167370000Y-91050000D01*
X159050000Y-101875000D02*
X158100000Y-102825000D01*
X166975000Y-103025000D02*
X165825000Y-101875000D01*
X168040000Y-98430000D02*
X168040000Y-98910000D01*
X167150000Y-103025000D02*
X166975000Y-103025000D01*
X168050000Y-94220000D02*
X168050000Y-91730000D01*
X167150000Y-103025000D02*
X167325000Y-103025000D01*
X146630000Y-101980000D02*
X145756853Y-101980000D01*
X158100000Y-102825000D02*
X158000000Y-102825000D01*
X168375000Y-89140000D02*
X168780000Y-89140000D01*
X167940000Y-99010000D02*
X167140000Y-99010000D01*
X155094314Y-104090000D02*
X148423998Y-104090000D01*
X148423998Y-104090000D02*
X148360498Y-104026500D01*
X145750000Y-101980000D02*
X145740000Y-101990000D01*
X168040000Y-98910000D02*
X167940000Y-99010000D01*
X160350104Y-78320570D02*
X160340274Y-78320570D01*
X168340000Y-96930000D02*
X168740000Y-96930000D01*
X160950000Y-78920466D02*
X160350104Y-78320570D01*
X167977000Y-101112000D02*
X167977000Y-99752000D01*
X160950000Y-79740000D02*
X163935000Y-79740000D01*
X168075000Y-87800000D02*
X168075000Y-88840000D01*
X159605000Y-79740000D02*
X160950000Y-79740000D01*
X167250000Y-86975000D02*
X168075000Y-87800000D01*
X167325000Y-103025000D02*
X167975000Y-102375000D01*
X168075000Y-88840000D02*
G75*
G03*
X168375000Y-89140000I300000J0D01*
G01*
X169080000Y-89440000D02*
G75*
G03*
X168780000Y-89140000I-300000J0D01*
G01*
X167040000Y-97830000D02*
G75*
G03*
X167340000Y-98130000I300000J0D01*
G01*
X168040000Y-96630000D02*
G75*
G03*
X168340000Y-96930000I300000J0D01*
G01*
X168780000Y-89740000D02*
G75*
G03*
X169080000Y-89440000I0J300000D01*
G01*
X168080000Y-90640000D02*
G75*
G03*
X167780000Y-90340000I-300000J0D01*
G01*
X169040000Y-97230000D02*
G75*
G03*
X168740000Y-96930000I-300000J0D01*
G01*
X168740000Y-97530000D02*
G75*
G03*
X169040000Y-97230000I0J300000D01*
G01*
X168040000Y-98430000D02*
G75*
G03*
X167740000Y-98130000I-300000J0D01*
G01*
X167380000Y-89740000D02*
G75*
G03*
X167080000Y-90040000I0J-300000D01*
G01*
X167080000Y-90040000D02*
G75*
G03*
X167380000Y-90340000I300000J0D01*
G01*
X167340000Y-97530000D02*
G75*
G03*
X167040000Y-97830000I0J-300000D01*
G01*
%TO.N,EMG_LOW*%
X156005700Y-84057906D02*
X156005700Y-84057905D01*
X156005700Y-84057905D02*
X156818872Y-84871076D01*
X157384561Y-83315440D02*
X157537501Y-83162500D01*
X146195000Y-93620000D02*
X146980000Y-93620000D01*
X154985000Y-93610000D02*
X154775000Y-93820000D01*
X157695000Y-80125000D02*
X158425000Y-80125000D01*
X145495000Y-95100000D02*
X146895000Y-95100000D01*
X146987500Y-85525000D02*
X147155000Y-85525000D01*
X146987500Y-85525000D02*
X147122500Y-85525000D01*
X154790000Y-93560000D02*
X155000000Y-93560000D01*
X146895000Y-94500000D02*
X146495000Y-94500000D01*
X156677455Y-83032598D02*
X156960298Y-83315441D01*
X157243136Y-84446810D02*
X157243136Y-84446811D01*
X154775000Y-93820000D02*
X154710000Y-93820000D01*
X147130000Y-97600000D02*
X147889500Y-98359500D01*
X155090000Y-89515000D02*
X154995000Y-89515000D01*
X145495000Y-96300000D02*
X145895000Y-96300000D01*
X146835000Y-85525000D02*
X146062500Y-86297500D01*
X147155000Y-85525000D02*
X147800000Y-84880000D01*
X155581435Y-84057905D02*
X155581434Y-84057906D01*
X155165000Y-89555000D02*
X155000000Y-89555000D01*
X155853819Y-93071181D02*
X155365000Y-93560000D01*
X155840000Y-90740000D02*
X155840000Y-90265000D01*
X146987500Y-85525000D02*
X146835000Y-85525000D01*
X155853819Y-92797760D02*
X155853819Y-93071181D01*
X154710000Y-93820000D02*
X153750000Y-94780000D01*
X147800000Y-84880000D02*
X154250000Y-84880000D01*
X147150000Y-89570000D02*
X148270000Y-90690000D01*
X152140283Y-94780000D02*
X148270000Y-94780000D01*
X146180748Y-97090748D02*
X146179064Y-97090748D01*
X154790000Y-97620000D02*
X154980000Y-97620000D01*
X155687500Y-84588236D02*
X155581434Y-84482170D01*
X158386029Y-82313971D02*
X158400000Y-82300001D01*
X145895000Y-95700000D02*
X145495000Y-95700000D01*
X153630000Y-90690000D02*
X154810000Y-89510000D01*
X157243136Y-84446811D02*
X156253189Y-83456863D01*
X157384562Y-83315441D02*
X157384561Y-83315440D01*
X158456739Y-82808945D02*
X158386028Y-82738234D01*
X155840000Y-90265000D02*
X155090000Y-89515000D01*
X153750000Y-94780000D02*
X153490000Y-94780000D01*
X147010000Y-97600000D02*
X147130000Y-97600000D01*
X145895000Y-96900000D02*
X145495000Y-96900000D01*
X146690000Y-97600000D02*
X146180748Y-97090748D01*
X154050500Y-98359500D02*
X154790000Y-97620000D01*
X148270000Y-94780000D02*
X147250000Y-93760000D01*
X156677455Y-83032599D02*
X156677455Y-83032598D01*
X153190000Y-95080000D02*
X153190000Y-95480000D01*
X155365000Y-93560000D02*
X155150000Y-93560000D01*
X157961765Y-83162500D02*
X158032475Y-83233210D01*
X147889500Y-98359500D02*
X154050500Y-98359500D01*
X146195000Y-94200000D02*
X146195000Y-93620000D01*
X152590000Y-95480000D02*
X152590000Y-95080000D01*
X152290000Y-94780000D02*
X152140283Y-94780000D01*
X158400000Y-82300001D02*
X158400000Y-80075000D01*
X157650000Y-80080000D02*
X157695000Y-80125000D01*
X147010000Y-97600000D02*
X146690000Y-97600000D01*
X154810000Y-89510000D02*
X154900000Y-89510000D01*
X158456739Y-82808944D02*
X158456739Y-82808945D01*
X155190000Y-85510000D02*
X155687500Y-85012500D01*
X148270000Y-90690000D02*
X153630000Y-90690000D01*
X146062500Y-86297500D02*
X146062500Y-88790000D01*
X158386028Y-82313970D02*
X158386029Y-82313971D01*
X154250000Y-84880000D02*
X154930000Y-85560000D01*
X146062500Y-88790000D02*
X146807500Y-89535000D01*
X154987500Y-85510000D02*
X155190000Y-85510000D01*
X157243093Y-84871033D02*
G75*
G03*
X157243136Y-84446810I-212093J212133D01*
G01*
X152590000Y-95480000D02*
G75*
G03*
X152890000Y-95780000I300000J0D01*
G01*
X146195000Y-94200000D02*
G75*
G03*
X146495000Y-94500000I300000J0D01*
G01*
X152890000Y-95780000D02*
G75*
G03*
X153190000Y-95480000I0J300000D01*
G01*
X157961764Y-83162501D02*
G75*
G03*
X157537502Y-83162501I-212131J-212131D01*
G01*
X155581398Y-84057868D02*
G75*
G03*
X155581435Y-84482169I212202J-212132D01*
G01*
X156960299Y-83315440D02*
G75*
G03*
X157384561Y-83315440I212131J212131D01*
G01*
X158386026Y-82313968D02*
G75*
G03*
X158386028Y-82738234I212174J-212132D01*
G01*
X156005699Y-84057907D02*
G75*
G03*
X155581435Y-84057907I-212132J-212130D01*
G01*
X158456761Y-83233232D02*
G75*
G03*
X158456738Y-82808945I-212161J212132D01*
G01*
X156818873Y-84871075D02*
G75*
G03*
X157243135Y-84871075I212131J212131D01*
G01*
X146179014Y-97090769D02*
G75*
G03*
X145895000Y-96900000I-288714J-123031D01*
G01*
X145495000Y-96300000D02*
G75*
G03*
X145195000Y-96600000I0J-300000D01*
G01*
X145195000Y-95400000D02*
G75*
G03*
X145495000Y-95700000I300000J0D01*
G01*
X146895000Y-95100000D02*
G75*
G03*
X147195000Y-94800000I0J300000D01*
G01*
X147195000Y-94800000D02*
G75*
G03*
X146895000Y-94500000I-300000J0D01*
G01*
X152590000Y-95080000D02*
G75*
G03*
X152290000Y-94780000I-300000J0D01*
G01*
X146195000Y-96000000D02*
G75*
G03*
X145895000Y-95700000I-300000J0D01*
G01*
X156253158Y-83032568D02*
G75*
G03*
X156253189Y-83456863I212142J-212132D01*
G01*
X158032476Y-83233209D02*
G75*
G03*
X158456738Y-83233209I212131J212131D01*
G01*
X153490000Y-94780000D02*
G75*
G03*
X153190000Y-95080000I0J-300000D01*
G01*
X156677454Y-83032600D02*
G75*
G03*
X156253190Y-83032600I-212132J-212130D01*
G01*
X145495000Y-95100000D02*
G75*
G03*
X145195000Y-95400000I0J-300000D01*
G01*
X155687531Y-85012531D02*
G75*
G03*
X155687499Y-84588237I-212131J212131D01*
G01*
X145195000Y-96600000D02*
G75*
G03*
X145495000Y-96900000I300000J0D01*
G01*
X145895000Y-96300000D02*
G75*
G03*
X146195000Y-96000000I0J300000D01*
G01*
%TO.N,CHAN_0A_OUT*%
X147775000Y-104095000D02*
X147050000Y-104820000D01*
X162809597Y-99240000D02*
X157210000Y-99240000D01*
X147775000Y-101810000D02*
X147775000Y-104095000D01*
X147050000Y-104820000D02*
X146930000Y-104820000D01*
X148247000Y-101338000D02*
X147775000Y-101810000D01*
X163548175Y-96990000D02*
X163550000Y-96991825D01*
X155112000Y-101338000D02*
X148247000Y-101338000D01*
X157210000Y-99240000D02*
X155112000Y-101338000D01*
X163550000Y-98499597D02*
X162809597Y-99240000D01*
X163550000Y-96991825D02*
X163550000Y-98499597D01*
X163548175Y-96990000D02*
X162290000Y-96990000D01*
%TO.N,CHAN_0B_OUT*%
X154880000Y-100145000D02*
X154975000Y-100145000D01*
X157920000Y-97050000D02*
X157880000Y-97010000D01*
X154375000Y-100650000D02*
X154880000Y-100145000D01*
X153900000Y-100650000D02*
X154375000Y-100650000D01*
X157920000Y-97740000D02*
X157920000Y-97050000D01*
%TO.N,CHAN_1A_OUT*%
X155331690Y-101665000D02*
X157426690Y-99570000D01*
X164670000Y-99570000D02*
X165050000Y-99190000D01*
X148750000Y-102295000D02*
X148905000Y-102295000D01*
X148905000Y-102295000D02*
X149535000Y-101665000D01*
X162300000Y-95990000D02*
X162290000Y-95980000D01*
X165050000Y-99190000D02*
X165050000Y-96450000D01*
X165050000Y-96450000D02*
X164570000Y-95970000D01*
X157426690Y-99570000D02*
X164670000Y-99570000D01*
X164570000Y-95970000D02*
X163550000Y-95970000D01*
X163548175Y-95990000D02*
X162300000Y-95990000D01*
X149535000Y-101665000D02*
X155331690Y-101665000D01*
%TO.N,CHAN_1B_OUT*%
X156230000Y-98195000D02*
X156230000Y-96800000D01*
X159330000Y-95990000D02*
X157948175Y-95990000D01*
X147875000Y-99400000D02*
X147135000Y-100140000D01*
X156230000Y-96800000D02*
X157010000Y-96020000D01*
X157010000Y-96020000D02*
X157950000Y-96020000D01*
X153180000Y-99480500D02*
X154944500Y-99480500D01*
X154944500Y-99480500D02*
X156230000Y-98195000D01*
X147875000Y-99376500D02*
X147875000Y-99400000D01*
X147135000Y-100140000D02*
X147010000Y-100140000D01*
%TO.N,CHAN_2A_OUT*%
X158100000Y-100260000D02*
X158120000Y-100260000D01*
X158120000Y-100260000D02*
X158760000Y-100900000D01*
X164970000Y-100900000D02*
X165520000Y-100350000D01*
X165520000Y-96020000D02*
X164490000Y-94990000D01*
X164490000Y-94990000D02*
X163548175Y-94990000D01*
X165520000Y-100350000D02*
X165520000Y-96020000D01*
X162280000Y-94990000D02*
X163850000Y-94990000D01*
X158760000Y-100900000D02*
X164970000Y-100900000D01*
%TO.N,CHAN_2B_OUT*%
X147175000Y-96175000D02*
X147025000Y-96175000D01*
X159310000Y-95000000D02*
X157900000Y-95000000D01*
X153220000Y-97550000D02*
X153220000Y-96450000D01*
X152320000Y-96850000D02*
X147850000Y-96850000D01*
X155640000Y-96850000D02*
X154120000Y-96850000D01*
X157500000Y-94990000D02*
X155640000Y-96850000D01*
X153820000Y-97150000D02*
X153820000Y-97550000D01*
X157900000Y-95000000D02*
X157870000Y-95030000D01*
X147850000Y-96850000D02*
X147175000Y-96175000D01*
X152620000Y-96450000D02*
X152620000Y-96550000D01*
X157948175Y-94990000D02*
X157500000Y-94990000D01*
X154120000Y-96850000D02*
G75*
G03*
X153820000Y-97150000I0J-300000D01*
G01*
X153220000Y-96450000D02*
G75*
G03*
X152920000Y-96150000I-300000J0D01*
G01*
X152320000Y-96850000D02*
G75*
G03*
X152620000Y-96550000I0J300000D01*
G01*
X153220000Y-97550000D02*
G75*
G03*
X153520000Y-97850000I300000J0D01*
G01*
X152920000Y-96150000D02*
G75*
G03*
X152620000Y-96450000I0J-300000D01*
G01*
X153520000Y-97850000D02*
G75*
G03*
X153820000Y-97550000I0J300000D01*
G01*
%TO.N,CHAN_3A_OUT*%
X164600000Y-93990000D02*
X163548175Y-93990000D01*
X166965000Y-100485000D02*
X165850000Y-99370000D01*
X162280000Y-94010000D02*
X163280000Y-94010000D01*
X165850000Y-99370000D02*
X165850000Y-95240000D01*
X167150000Y-100485000D02*
X166965000Y-100485000D01*
X165850000Y-95240000D02*
X164600000Y-93990000D01*
%TO.N,CHAN_3B_OUT*%
X159330000Y-93990000D02*
X159370000Y-94030000D01*
X156770000Y-94010000D02*
X158220000Y-94010000D01*
X155200000Y-95340000D02*
X155200000Y-95935000D01*
X155200000Y-95935000D02*
X154985000Y-96150000D01*
%TO.N,CHAN_4A_OUT*%
X166250000Y-94550000D02*
X164690000Y-92990000D01*
X167020000Y-96470000D02*
X166250000Y-95700000D01*
X164690000Y-92990000D02*
X163548175Y-92990000D01*
X163548175Y-92990000D02*
X162260000Y-92990000D01*
X166250000Y-95700000D02*
X166250000Y-94550000D01*
X167140000Y-96470000D02*
X167020000Y-96470000D01*
%TO.N,CHAN_4B_OUT*%
X154995000Y-92738498D02*
X154995000Y-92055000D01*
X157390000Y-92990000D02*
X157948175Y-92990000D01*
X157029160Y-92629160D02*
X157390000Y-92990000D01*
X156739157Y-92629160D02*
X157029160Y-92629160D01*
X154950000Y-92783498D02*
X154995000Y-92738498D01*
X157980000Y-93000000D02*
X157950000Y-92970000D01*
X159310000Y-93000000D02*
X157980000Y-93000000D01*
%TO.N,CHAN_5A_OUT*%
X164500000Y-91990000D02*
X163548175Y-91990000D01*
X163548175Y-91990000D02*
X162270000Y-91990000D01*
X166980000Y-93290000D02*
X167150000Y-93120000D01*
X164890000Y-92380000D02*
X164500000Y-91990000D01*
X167150000Y-93120000D02*
X167150000Y-92485000D01*
%TO.N,CHAN_5B_OUT*%
X146970000Y-92060000D02*
X147170000Y-92060000D01*
X156918175Y-91410000D02*
X157518175Y-92010000D01*
X147820000Y-91410000D02*
X156918175Y-91410000D01*
X147170000Y-92060000D02*
X147820000Y-91410000D01*
X158280000Y-91960000D02*
X158270000Y-91950000D01*
X159330000Y-91960000D02*
X158280000Y-91960000D01*
%TO.N,CHAN_6A_OUT*%
X163548175Y-90990000D02*
X162250000Y-90990000D01*
X166425000Y-89275000D02*
X166425000Y-88950000D01*
X164810000Y-90990000D02*
X163548175Y-90990000D01*
X166425000Y-88950000D02*
X166915000Y-88460000D01*
X164820000Y-90980000D02*
X164810000Y-90990000D01*
X166915000Y-88460000D02*
X167175000Y-88460000D01*
%TO.N,CHAN_6B_OUT*%
X156050000Y-89175000D02*
X155755000Y-88880000D01*
X157948175Y-90990000D02*
X156920000Y-90990000D01*
X159320000Y-90970000D02*
X158060000Y-90970000D01*
X155755000Y-88880000D02*
X147955000Y-88880000D01*
X156050000Y-90103310D02*
X156050000Y-89175000D01*
X147955000Y-88880000D02*
X147175000Y-88100000D01*
X158060000Y-90970000D02*
X158040000Y-90990000D01*
X156920000Y-90990000D02*
X156170000Y-90240000D01*
X147175000Y-88100000D02*
X146975000Y-88100000D01*
X156170000Y-90223310D02*
X156050000Y-90103310D01*
X156170000Y-90240000D02*
X156170000Y-90223310D01*
%TO.N,CHAN_7A_OUT*%
X166120000Y-85455000D02*
X167200000Y-84375000D01*
X162260000Y-89990000D02*
X163170000Y-89990000D01*
X163170000Y-89990000D02*
X163200000Y-90020000D01*
X163548175Y-89990000D02*
X164510000Y-89990000D01*
X166120000Y-88380000D02*
X166120000Y-85455000D01*
X164510000Y-89990000D02*
X166120000Y-88380000D01*
%TO.N,CHAN_7B_OUT*%
X156620000Y-89750000D02*
X156860000Y-89990000D01*
X159290000Y-89990000D02*
X159320000Y-90020000D01*
X156860000Y-89990000D02*
X157948175Y-89990000D01*
X155900000Y-88060000D02*
X155890000Y-88050000D01*
X157948175Y-89990000D02*
X159290000Y-89990000D01*
X155890000Y-88050000D02*
X154987500Y-88050000D01*
%TO.N,/SCL0*%
X131023674Y-97210000D02*
X129560000Y-97210000D01*
X131150174Y-97336500D02*
X131023674Y-97210000D01*
%TO.N,/SDA0*%
X130773500Y-98062366D02*
X130773500Y-97943500D01*
X130773500Y-97943500D02*
X130440000Y-97610000D01*
X130440000Y-97610000D02*
X129560000Y-97610000D01*
%TO.N,Net-(Q1-Pad2)*%
X140790000Y-104870000D02*
X140770000Y-104890000D01*
X141690000Y-104870000D02*
X140790000Y-104870000D01*
%TO.N,GNDISO1*%
X131325000Y-89150000D02*
X131350000Y-89125000D01*
X129457843Y-103257843D02*
X129450000Y-103250000D01*
X128360000Y-103250000D02*
X129450000Y-103250000D01*
X125125000Y-99245000D02*
X125125000Y-98793947D01*
X129907843Y-104457843D02*
X128332843Y-104457843D01*
X119610000Y-97890000D02*
X118910000Y-97890000D01*
X126200000Y-102720000D02*
X127830000Y-102720000D01*
X127830000Y-102720000D02*
X128360000Y-103250000D01*
X131107843Y-103257843D02*
X129457843Y-103257843D01*
X126120000Y-95805000D02*
X126125000Y-95810000D01*
X126120000Y-94570000D02*
X126120000Y-95805000D01*
X123025000Y-88225000D02*
X123875000Y-88225000D01*
X125885000Y-102285000D02*
X125885000Y-102465000D01*
X125550000Y-97225000D02*
X125200000Y-96875000D01*
X125550000Y-98368947D02*
X125550000Y-97225000D01*
X132940000Y-92500000D02*
X132940000Y-93230000D01*
X125885000Y-102065420D02*
X125885000Y-102285000D01*
X119425000Y-93167594D02*
X119425000Y-93225000D01*
X132940000Y-93230000D02*
X132935000Y-93235000D01*
X122910000Y-104485000D02*
X122900000Y-104475000D01*
X125885000Y-102465000D02*
X126170000Y-102750000D01*
X124285000Y-104485000D02*
X122910000Y-104485000D01*
X128332843Y-104457843D02*
X128325000Y-104450000D01*
X124979500Y-101159920D02*
X125885000Y-102065420D01*
X122848756Y-104348756D02*
X122900000Y-104400000D01*
X125125000Y-98793947D02*
X125550000Y-98368947D01*
X126170000Y-102750000D02*
X126200000Y-102720000D01*
X119971297Y-92621297D02*
X119425000Y-93167594D01*
X129300000Y-89150000D02*
X131325000Y-89150000D01*
X122168756Y-104348756D02*
X122848756Y-104348756D01*
X126050000Y-88225000D02*
X123925000Y-88225000D01*
X132925000Y-97545000D02*
X132930000Y-97550000D01*
X132925000Y-96800000D02*
X132925000Y-97545000D01*
%TO.N,Net-(Q7-Pad2)*%
X149859782Y-100277460D02*
X148977460Y-100277460D01*
X148977460Y-100277460D02*
X148975000Y-100275000D01*
%TO.N,Net-(Q9-Pad2)*%
X163225000Y-100250000D02*
X164200000Y-100250000D01*
%TO.N,Net-(Q11-Pad2)*%
X141000000Y-96295000D02*
X140925000Y-96220000D01*
X141850000Y-96295000D02*
X141000000Y-96295000D01*
%TO.N,Net-(Q14-Pad2)*%
X153725500Y-102500000D02*
X154000500Y-102225000D01*
X154000500Y-102225000D02*
X154925000Y-102225000D01*
%TO.N,Net-(Q15-Pad2)*%
X171525000Y-100175000D02*
X173040000Y-100175000D01*
X173040000Y-100175000D02*
X173375000Y-100510000D01*
%TO.N,Net-(Q17-Pad2)*%
X141966170Y-100135390D02*
X140855390Y-100135390D01*
X140855390Y-100135390D02*
X140825000Y-100105000D01*
%TO.N,Net-(Q18-Pad2)*%
X149866892Y-96198211D02*
X148888211Y-96198211D01*
%TO.N,Net-(Q20-Pad2)*%
X172940000Y-96100000D02*
X173375000Y-96535000D01*
X171425000Y-96100000D02*
X172940000Y-96100000D01*
%TO.N,Net-(Q22-Pad2)*%
X149140000Y-92300000D02*
X148900000Y-92060000D01*
X150000000Y-92300000D02*
X149140000Y-92300000D01*
%TO.N,Net-(Q23-Pad2)*%
X173146625Y-88281625D02*
X173250000Y-88385000D01*
X172390943Y-88281625D02*
X173146625Y-88281625D01*
%TO.N,Net-(Q26-Pad2)*%
X171424500Y-92100000D02*
X173040000Y-92100000D01*
X173040000Y-92100000D02*
X173375000Y-92435000D01*
%TO.N,Net-(Q27-Pad2)*%
X140837500Y-88065000D02*
X141818953Y-88065000D01*
X140857464Y-88020036D02*
X140837500Y-88040000D01*
X141818953Y-88065000D02*
X141857406Y-88103453D01*
%TO.N,Net-(Q30-Pad2)*%
X141475000Y-92525000D02*
X141035000Y-92085000D01*
X141850000Y-92525000D02*
X141475000Y-92525000D01*
X141035000Y-92085000D02*
X140850000Y-92085000D01*
%TO.N,Net-(Q31-Pad2)*%
X173306689Y-84341689D02*
X173325000Y-84360000D01*
X172323340Y-84341689D02*
X173306689Y-84341689D01*
%TO.N,Net-(Q34-Pad2)*%
X149950000Y-88280000D02*
X149117500Y-88280000D01*
X149117500Y-88280000D02*
X148862500Y-88025000D01*
%TO.N,Net-(U1-CC2)*%
X125010000Y-86090000D02*
X124905000Y-85985000D01*
X124905000Y-85985000D02*
X124905000Y-83450000D01*
%TO.N,Net-(U1-CC1)*%
X128825000Y-86075000D02*
X128825000Y-85375000D01*
X128825000Y-85375000D02*
X127900000Y-84450000D01*
X127900000Y-84450000D02*
X127900000Y-83300000D01*
%TO.N,/switch_control/CHAN_0*%
X164510000Y-86030000D02*
X164510000Y-84940000D01*
X164510000Y-84940000D02*
X164180000Y-84610000D01*
%TO.N,Net-(U10-XOUT)*%
X126775000Y-101465466D02*
X126775000Y-102175000D01*
X125925000Y-100615466D02*
X126775000Y-101465466D01*
X125925000Y-99245000D02*
X125925000Y-100615466D01*
X126775000Y-102175000D02*
X127275000Y-102175000D01*
%TO.N,/BUZZER*%
X123372988Y-97210000D02*
X123686494Y-96896494D01*
X122690000Y-97210000D02*
X123372988Y-97210000D01*
%TO.N,/processor/CAN_CS*%
X116944113Y-103963604D02*
X116944113Y-103955887D01*
X119950000Y-113775000D02*
X119950000Y-112575000D01*
X117925000Y-103375000D02*
X118300000Y-103750000D01*
X130150000Y-94010000D02*
X130460000Y-94320000D01*
X117525000Y-103375000D02*
X117925000Y-103375000D01*
X116944113Y-103955887D02*
X117525000Y-103375000D01*
X119950000Y-112575000D02*
X119800000Y-112425000D01*
X129560000Y-94010000D02*
X130150000Y-94010000D01*
%TO.N,/USB_D+*%
X125885000Y-83445000D02*
X125885000Y-82620000D01*
D74*
X127150000Y-86157376D02*
X127150000Y-89150000D01*
D72*
X126875000Y-82610000D02*
X126875000Y-83500000D01*
D74*
X125925000Y-84350000D02*
X125925000Y-84932376D01*
X125925000Y-84932376D02*
X127150000Y-86157376D01*
D72*
X125925000Y-84350000D02*
X125925000Y-83350000D01*
X125885000Y-82620000D02*
X125935000Y-82570000D01*
X125935000Y-82570000D02*
X126835000Y-82570000D01*
X126835000Y-82570000D02*
X126875000Y-82610000D01*
%TO.N,/USB_D-*%
X127350000Y-84425000D02*
X127350000Y-84275000D01*
D74*
X128052500Y-88527499D02*
X128225000Y-88699999D01*
D72*
X126505000Y-84250000D02*
X126575000Y-84320000D01*
D74*
X128687500Y-88095000D02*
X128417500Y-88095000D01*
D72*
X126575000Y-84320000D02*
X127305000Y-84320000D01*
D74*
X127350000Y-85325000D02*
X128052500Y-86027500D01*
X127350000Y-84425000D02*
X127350000Y-85325000D01*
X128417500Y-87365000D02*
X128687500Y-87365000D01*
X128052500Y-86027500D02*
X128052500Y-87000000D01*
X128225000Y-88699999D02*
X128225000Y-89150000D01*
X128052500Y-88460000D02*
X128052500Y-88527499D01*
D72*
X126505000Y-84055000D02*
X126505000Y-84250000D01*
X127350000Y-84275000D02*
X127350000Y-83475000D01*
X127305000Y-84320000D02*
X127350000Y-84275000D01*
X126385000Y-83935000D02*
X126505000Y-84055000D01*
X126385000Y-83445000D02*
X126385000Y-83935000D01*
D74*
X129052500Y-87730000D02*
G75*
G03*
X128687500Y-87365000I-365000J0D01*
G01*
X128052500Y-87000000D02*
G75*
G03*
X128417500Y-87365000I365000J0D01*
G01*
X128687500Y-88095000D02*
G75*
G03*
X129052500Y-87730000I0J365000D01*
G01*
X128417500Y-88095000D02*
G75*
G03*
X128052500Y-88460000I0J-365000D01*
G01*
D72*
%TO.N,/processor/CAN_STBY*%
X110155887Y-105236396D02*
X109694491Y-104775000D01*
X109694491Y-104775000D02*
X107275000Y-104775000D01*
X107275000Y-104775000D02*
X106875000Y-105175000D01*
X128693000Y-98378000D02*
X128325000Y-98746000D01*
X128325000Y-98746000D02*
X128325000Y-99245000D01*
%TO.N,/processor/QSPI_CS*%
X123197500Y-92047500D02*
X123200000Y-92050000D01*
X117723000Y-98127000D02*
X115198000Y-98127000D01*
X123197500Y-92047500D02*
X119552500Y-92047500D01*
X113550000Y-97625000D02*
X114700000Y-98775000D01*
X119552500Y-92047500D02*
X119225000Y-92375000D01*
X132525000Y-79925000D02*
X132250000Y-80200000D01*
X114725000Y-98600000D02*
X114725000Y-98725000D01*
X123200000Y-92050000D02*
X123525000Y-92050000D01*
X113550000Y-96935000D02*
X113550000Y-97625000D01*
X119266571Y-92416571D02*
X118485000Y-93198142D01*
X118485000Y-97365000D02*
X117723000Y-98127000D01*
X115198000Y-98127000D02*
X114725000Y-98600000D01*
X118485000Y-93198142D02*
X118485000Y-97365000D01*
X119225000Y-92375000D02*
X119266571Y-92416571D01*
X114700000Y-98775000D02*
X114725000Y-98775000D01*
X132525000Y-79550000D02*
X132525000Y-79925000D01*
%TO.N,/peripherals/~{TFT_RESET}*%
X106455000Y-123255000D02*
X105800000Y-122600000D01*
X106650000Y-123255000D02*
X106455000Y-123255000D01*
X106650000Y-123255000D02*
X112445000Y-123255000D01*
%TO.N,/switch_control/CHAN_1*%
X163680000Y-86052941D02*
X163680000Y-84610000D01*
X163709116Y-86082057D02*
X163680000Y-86052941D01*
%TO.N,/processor/CAN_RESET*%
X116450000Y-103500000D02*
X116450000Y-103525000D01*
X130853500Y-93610000D02*
X130980000Y-93736500D01*
X118550000Y-113775000D02*
X118550000Y-113194444D01*
X118550000Y-113194444D02*
X119097222Y-112647222D01*
X129560000Y-93610000D02*
X130853500Y-93610000D01*
X117225000Y-102725000D02*
X116450000Y-103500000D01*
%TO.N,/switch_control/CHAN_2*%
X163750000Y-87260498D02*
X163180000Y-86690498D01*
X163180000Y-86690498D02*
X163180000Y-84610000D01*
%TO.N,/switch_control/CHAN_3*%
X162650721Y-85680558D02*
X162680000Y-85651279D01*
X162680000Y-85651279D02*
X162680000Y-84610000D01*
%TO.N,/switch_control/CHAN_4*%
X161685000Y-85730000D02*
X162180000Y-85235000D01*
X162180000Y-85235000D02*
X162180000Y-84610000D01*
X161590000Y-85730000D02*
X161685000Y-85730000D01*
%TO.N,/switch_control/CHAN_6*%
X160965000Y-83660000D02*
X161230000Y-83660000D01*
X160150000Y-84475000D02*
X160965000Y-83660000D01*
%TO.N,/switch_control/CHAN_5*%
X161020000Y-84540000D02*
X161610000Y-84540000D01*
X161610000Y-84540000D02*
X161680000Y-84610000D01*
%TO.N,/switch_control/CHAN_7*%
X161224655Y-82210000D02*
X161680000Y-82210000D01*
X160839458Y-82595197D02*
X161224655Y-82210000D01*
%TO.N,Net-(R75-Pad1)*%
X167150000Y-104790000D02*
X167960000Y-104790000D01*
X167960000Y-104790000D02*
X168540000Y-105370000D01*
X168800000Y-108240000D02*
X168790000Y-108250000D01*
X168540000Y-105370000D02*
X168540000Y-106320000D01*
X168800000Y-106100000D02*
X168800000Y-108240000D01*
%TO.N,/~{RESET}*%
X132134497Y-100040000D02*
X134154000Y-98020497D01*
X111880000Y-121495000D02*
X111600000Y-121775000D01*
X111880000Y-118726851D02*
X111880000Y-121495000D01*
X134154000Y-90824500D02*
X134880000Y-90098500D01*
X106050000Y-121775000D02*
X104885000Y-120610000D01*
X134154000Y-98020497D02*
X134154000Y-90824500D01*
X127925000Y-99800000D02*
X127925000Y-99245000D01*
X128100502Y-99975502D02*
X127925000Y-99800000D01*
X129270000Y-100040000D02*
X132134497Y-100040000D01*
X129270000Y-100040000D02*
X129205502Y-99975502D01*
X104885000Y-120610000D02*
X104885000Y-119050000D01*
X111600000Y-121775000D02*
X106050000Y-121775000D01*
X139370000Y-78380000D02*
X139300000Y-78450000D01*
X143600000Y-78380000D02*
X139370000Y-78380000D01*
X139330000Y-79650000D02*
X139330000Y-78380000D01*
X129205502Y-99975502D02*
X128100502Y-99975502D01*
X111900068Y-118706783D02*
X111880000Y-118726851D01*
X143650000Y-78330000D02*
X143600000Y-78380000D01*
%TO.N,/TFT_CS*%
X118145000Y-98580000D02*
X121194056Y-98580000D01*
X121194056Y-98580000D02*
X122164056Y-97610000D01*
X122164056Y-97610000D02*
X122690000Y-97610000D01*
X118025000Y-98700000D02*
X118145000Y-98580000D01*
%TO.N,/SWDIO*%
X110129500Y-118529500D02*
X110100000Y-118500000D01*
X110825000Y-118529500D02*
X110129500Y-118529500D01*
X128119535Y-100305501D02*
X127797191Y-100305501D01*
X128427397Y-100613363D02*
X128119535Y-100305501D01*
X127525000Y-100033310D02*
X127525000Y-99225000D01*
X109870000Y-118762998D02*
X109870000Y-118960039D01*
X127797191Y-100305501D02*
X127525000Y-100033310D01*
X128755550Y-100613363D02*
X128427397Y-100613363D01*
%TO.N,/SWCLK*%
X127860501Y-100835501D02*
X127125000Y-100100000D01*
X127125000Y-100100000D02*
X127125000Y-99225000D01*
X127900001Y-100835501D02*
X127860501Y-100835501D01*
X108695000Y-119050000D02*
X108695000Y-117520000D01*
X108695000Y-117520000D02*
X108425000Y-117250000D01*
%TO.N,/SCK0*%
X121118746Y-94201754D02*
X122022500Y-94201754D01*
X121040000Y-94280500D02*
X121118746Y-94201754D01*
X122230746Y-94410000D02*
X122690000Y-94410000D01*
X122022500Y-94201754D02*
X122230746Y-94410000D01*
%TO.N,/MOSI0*%
X120610482Y-94810000D02*
X122690000Y-94810000D01*
X120370982Y-94570500D02*
X120610482Y-94810000D01*
%TO.N,/MISO0*%
X120359287Y-95629500D02*
X120359287Y-95480713D01*
X120630000Y-95210000D02*
X122690000Y-95210000D01*
X120359287Y-95480713D02*
X120630000Y-95210000D01*
%TO.N,/SD_CS*%
X121299534Y-96269500D02*
X121559034Y-96010000D01*
X104870000Y-93680000D02*
X102650000Y-95900000D01*
X121559034Y-96010000D02*
X122690000Y-96010000D01*
X120152557Y-96269500D02*
X121299534Y-96269500D01*
X105075000Y-93680000D02*
X104870000Y-93680000D01*
X119014253Y-93923286D02*
X119014253Y-95131196D01*
X119014253Y-95131196D02*
X120152557Y-96269500D01*
%TO.N,/TFT_DC*%
X102450000Y-93408175D02*
X102450000Y-93300000D01*
X121209500Y-95610000D02*
X122690000Y-95610000D01*
X102450000Y-93300000D02*
X103020000Y-92730000D01*
X121080000Y-95739500D02*
X121209500Y-95610000D01*
X103020000Y-92730000D02*
X105120000Y-92730000D01*
%TO.N,/processor/SCK1*%
X118207382Y-108338143D02*
X116024874Y-106155635D01*
X121960580Y-98280166D02*
X122230746Y-98010000D01*
X122163500Y-98936273D02*
X121960580Y-98733353D01*
X122230746Y-98010000D02*
X122690000Y-98010000D01*
X121960580Y-98733353D02*
X121960580Y-98280166D01*
X118403335Y-108338143D02*
X118207382Y-108338143D01*
%TO.N,/processor/MOSI1*%
X118460502Y-107660502D02*
X116496016Y-105696016D01*
X122690000Y-99479900D02*
X122690000Y-98410000D01*
X118665267Y-107660502D02*
X118460502Y-107660502D01*
X122572804Y-99597096D02*
X122690000Y-99479900D01*
X116496016Y-105696016D02*
X116484493Y-105696016D01*
%TO.N,/processor/MISO1*%
X116961396Y-105236396D02*
X116944113Y-105236396D01*
X122548500Y-100417539D02*
X123525000Y-99441039D01*
X118653387Y-106928387D02*
X116961396Y-105236396D01*
X123525000Y-99441039D02*
X123525000Y-99245000D01*
X119028387Y-106928387D02*
X118653387Y-106928387D01*
%TO.N,/processor/ENC_CTL_0*%
X123600000Y-98378000D02*
X123925000Y-98703000D01*
X164630000Y-83160000D02*
X165314172Y-83160000D01*
X123925000Y-98703000D02*
X123925000Y-99245000D01*
X165314172Y-83160000D02*
X165343672Y-83130500D01*
%TO.N,/processor/ENC_CTL_1*%
X124166109Y-97917898D02*
X124325000Y-98076789D01*
X124325000Y-98076789D02*
X124325000Y-99245000D01*
X164180000Y-82210000D02*
X164180000Y-81353470D01*
X164180000Y-81353470D02*
X164096030Y-81269500D01*
%TO.N,/processor/ENC_CTL_2*%
X163680000Y-81654704D02*
X163370462Y-81345166D01*
X124996417Y-97839502D02*
X124725000Y-98110919D01*
X124725000Y-98110919D02*
X124725000Y-99245000D01*
X163680000Y-82210000D02*
X163680000Y-81654704D01*
%TO.N,/processor/~{Tx0RTS}*%
X115150000Y-100400000D02*
X115000000Y-100400000D01*
X114194113Y-101205887D02*
X114186396Y-101205887D01*
X128800000Y-99300000D02*
X128725000Y-99225000D01*
X115000000Y-100400000D02*
X114194113Y-101205887D01*
X129011000Y-99300000D02*
X128800000Y-99300000D01*
%TO.N,/processor/CAN_INT*%
X120289643Y-108864643D02*
X117814643Y-108864643D01*
X117814643Y-108864643D02*
X115550000Y-106600000D01*
X120373448Y-108948448D02*
X120289643Y-108864643D01*
X131048500Y-96410000D02*
X129560000Y-96410000D01*
X131175000Y-96283500D02*
X131048500Y-96410000D01*
%TO.N,/processor/~{Rx0BF}*%
X130595607Y-95786500D02*
X130580353Y-95801754D01*
X130323246Y-95801754D02*
X130115000Y-96010000D01*
X119441643Y-109391643D02*
X117466643Y-109391643D01*
X117466643Y-109391643D02*
X115125000Y-107050000D01*
X130115000Y-96010000D02*
X129560000Y-96010000D01*
X130580353Y-95801754D02*
X130323246Y-95801754D01*
%TO.N,/processor/QSPI_SD3*%
X114885000Y-91410000D02*
X114885000Y-91660000D01*
X116045000Y-90250000D02*
X114885000Y-91410000D01*
X124174792Y-90250000D02*
X116045000Y-90250000D01*
X125525000Y-92375000D02*
X125525000Y-91600208D01*
X125525000Y-91600208D02*
X124174792Y-90250000D01*
%TO.N,/processor/QSPI_SCLK*%
X116984500Y-90590500D02*
X116135000Y-91440000D01*
X116135000Y-91440000D02*
X116135000Y-91685000D01*
X125125000Y-91662656D02*
X124052844Y-90590500D01*
X124052844Y-90590500D02*
X116984500Y-90590500D01*
X125125000Y-92375000D02*
X125125000Y-91662656D01*
%TO.N,/processor/QSPI_SD0*%
X124725000Y-92375000D02*
X124725000Y-91725104D01*
X123917396Y-90917500D02*
X117932500Y-90917500D01*
X117385000Y-91465000D02*
X117385000Y-91635000D01*
X124725000Y-91725104D02*
X123917396Y-90917500D01*
X117932500Y-90917500D02*
X117385000Y-91465000D01*
%TO.N,/processor/QSPI_SD2*%
X123854948Y-91317500D02*
X119051129Y-91317500D01*
X116085000Y-96760000D02*
X116085000Y-97010000D01*
X117557500Y-96310000D02*
X116535000Y-96310000D01*
X117825000Y-92543629D02*
X117825000Y-96042500D01*
X117825000Y-96042500D02*
X117557500Y-96310000D01*
X119051129Y-91317500D02*
X117825000Y-92543629D01*
X116535000Y-96310000D02*
X116085000Y-96760000D01*
X124325000Y-92375000D02*
X124325000Y-91787552D01*
X124325000Y-91787552D02*
X123854948Y-91317500D01*
%TO.N,/processor/QSPI_SD1*%
X123750000Y-91675000D02*
X123925000Y-91850000D01*
X123925000Y-91850000D02*
X123925000Y-92375000D01*
X114820000Y-96935000D02*
X114820000Y-97070000D01*
X118155000Y-92779315D02*
X119259315Y-91675000D01*
X118155000Y-97095000D02*
X118155000Y-92779315D01*
X117450000Y-97800000D02*
X118155000Y-97095000D01*
X115560000Y-97800000D02*
X117450000Y-97800000D01*
X114860000Y-97100000D02*
X115560000Y-97800000D01*
X119259315Y-91675000D02*
X123750000Y-91675000D01*
%TO.N,Net-(U13-TXD)*%
X116250000Y-101825000D02*
X116250000Y-101900000D01*
X110286523Y-106025000D02*
X110615507Y-105696016D01*
X109500000Y-106025000D02*
X110286523Y-106025000D01*
X116250000Y-101900000D02*
X115565254Y-102584746D01*
%TO.N,Net-(U13-RXD)*%
X111722630Y-101086910D02*
X111742616Y-101106896D01*
X111742616Y-101106896D02*
X111742616Y-101873377D01*
X111742616Y-101873377D02*
X111994365Y-102125126D01*
X115628129Y-101596871D02*
X115105635Y-102119365D01*
X115105635Y-102119365D02*
X115105635Y-102125126D01*
X115628129Y-101077422D02*
X115628129Y-101596871D01*
%TO.N,GNDREF*%
X160525000Y-81208697D02*
X160309458Y-81424239D01*
X164740561Y-81198922D02*
X164740561Y-80916078D01*
X162680000Y-82210000D02*
X163180000Y-82210000D01*
X164564483Y-80740000D02*
X163186690Y-80740000D01*
X154750000Y-80250000D02*
X151775000Y-80250000D01*
X160605000Y-83160000D02*
X161230000Y-83160000D01*
X164740561Y-80916078D02*
X164564483Y-80740000D01*
X164750000Y-81828102D02*
X164750000Y-81208361D01*
X160309458Y-81424239D02*
X160309458Y-82864458D01*
X162680000Y-81246690D02*
X162680000Y-82210000D01*
X160309458Y-82864458D02*
X160605000Y-83160000D01*
X160185000Y-78975000D02*
X156025000Y-78975000D01*
X156025000Y-78975000D02*
X154750000Y-80250000D01*
X164750000Y-81208361D02*
X164740561Y-81198922D01*
X160423500Y-79213500D02*
X160185000Y-78975000D01*
X163186690Y-80740000D02*
X162680000Y-81246690D01*
%TO.N,Net-(U3-BYP)*%
X108425000Y-96050000D02*
X106175000Y-93800000D01*
X111775000Y-96050000D02*
X108425000Y-96050000D01*
X106175000Y-93800000D02*
X106175000Y-93150000D01*
%TO.N,Net-(U15-BYP)*%
X149080000Y-83275000D02*
X149950000Y-83275000D01*
X150500000Y-83825000D02*
X150775000Y-83825000D01*
X149950000Y-83275000D02*
X150500000Y-83825000D01*
%TO.N,SWITCHING_3V3*%
X154070000Y-105480000D02*
X154500000Y-105050000D01*
X173300000Y-103025000D02*
X173525000Y-103025000D01*
X165940000Y-83660000D02*
X164630000Y-83660000D01*
X140030000Y-101680000D02*
X140650000Y-102300000D01*
X174225000Y-90275000D02*
X174225000Y-87900000D01*
X174225000Y-87900000D02*
X173325000Y-87000000D01*
X174117000Y-95742000D02*
X173325000Y-94950000D01*
X150975000Y-104873500D02*
X150368500Y-105480000D01*
X173325000Y-91000000D02*
X173500000Y-91000000D01*
X174200000Y-94325000D02*
X174200000Y-91650000D01*
X164325000Y-102800000D02*
X165200000Y-103675000D01*
X173500000Y-91000000D02*
X174225000Y-90275000D01*
X148125000Y-76225000D02*
X148125000Y-76800000D01*
X148125000Y-76800000D02*
X148075000Y-76850000D01*
X140045000Y-95535000D02*
X140045000Y-96870000D01*
X174225000Y-86100000D02*
X173325000Y-87000000D01*
X173290000Y-99010000D02*
X173515000Y-99010000D01*
X148775000Y-93535000D02*
X148825000Y-93535000D01*
X174200000Y-91650000D02*
X173500000Y-90950000D01*
X140000000Y-88795000D02*
X140800000Y-89595000D01*
X140050000Y-94310000D02*
X140050000Y-95530000D01*
X151394813Y-89555000D02*
X148850000Y-89555000D01*
X148175000Y-86125000D02*
X148175000Y-85875000D01*
X151499606Y-89450207D02*
X151394813Y-89555000D01*
X140875000Y-93610000D02*
X140750000Y-93610000D01*
X151677149Y-93394649D02*
X151461798Y-93610000D01*
X150527000Y-85510000D02*
X148837500Y-85510000D01*
X148540000Y-85510000D02*
X148837500Y-85510000D01*
X140045000Y-96870000D02*
X140875000Y-97700000D01*
X140650000Y-102300000D02*
X140750000Y-102300000D01*
X173550000Y-83150000D02*
X172800000Y-83150000D01*
X140860000Y-97600000D02*
X140625000Y-97600000D01*
X148835000Y-93610000D02*
X148650000Y-93610000D01*
X140000000Y-86240000D02*
X140000000Y-88795000D01*
X148775000Y-89560000D02*
X148825000Y-89560000D01*
X151581787Y-97379500D02*
X151502287Y-97300000D01*
X173500000Y-95025000D02*
X174200000Y-94325000D01*
X140675000Y-89570000D02*
X139975000Y-90270000D01*
X140610000Y-93560000D02*
X140875000Y-93560000D01*
X174225000Y-83825000D02*
X174225000Y-86100000D01*
X140625000Y-97600000D02*
X140030000Y-98195000D01*
X151502287Y-97300000D02*
X149215000Y-97300000D01*
X165200000Y-103675000D02*
X172475000Y-103675000D01*
X149215000Y-97300000D02*
X148835000Y-97680000D01*
X144050000Y-105480000D02*
X140900000Y-102330000D01*
X148570000Y-97650000D02*
X148850000Y-97650000D01*
X173515000Y-99010000D02*
X174117000Y-98408000D01*
X140837500Y-85525000D02*
X140715000Y-85525000D01*
X151242000Y-86225000D02*
X150527000Y-85510000D01*
X140030000Y-98195000D02*
X140030000Y-101680000D01*
X140750000Y-93610000D02*
X140050000Y-94310000D01*
X151581500Y-105480000D02*
X154070000Y-105480000D01*
X139975000Y-92925000D02*
X140610000Y-93560000D01*
X148175000Y-85875000D02*
X148540000Y-85510000D01*
X151461798Y-93610000D02*
X148835000Y-93610000D01*
X174127000Y-99677000D02*
X173525000Y-99075000D01*
X140850000Y-89570000D02*
X140675000Y-89570000D01*
X173075000Y-103075000D02*
X173375000Y-103075000D01*
X173300000Y-95025000D02*
X173500000Y-95025000D01*
X139975000Y-90270000D02*
X139975000Y-92925000D01*
X174117000Y-98408000D02*
X174117000Y-95742000D01*
X140715000Y-85525000D02*
X140000000Y-86240000D01*
X172475000Y-103675000D02*
X173075000Y-103075000D01*
X150368500Y-105480000D02*
X144050000Y-105480000D01*
X150975000Y-104873500D02*
X151581500Y-105480000D01*
X173500000Y-90950000D02*
X173275000Y-90950000D01*
X140050000Y-95530000D02*
X140045000Y-95535000D01*
X165950000Y-83650000D02*
X165940000Y-83660000D01*
X173525000Y-103025000D02*
X174127000Y-102423000D01*
X173550000Y-83150000D02*
X174225000Y-83825000D01*
X164250000Y-102800000D02*
X164325000Y-102800000D01*
X154500000Y-105050000D02*
X154975000Y-105050000D01*
X174127000Y-102423000D02*
X174127000Y-99677000D01*
%TO.N,Net-(U10-USB_D+)*%
X127125000Y-92375000D02*
X127125000Y-90350000D01*
X127125000Y-90350000D02*
X127100000Y-90325000D01*
%TO.N,Net-(U10-USB_D-)*%
X127525000Y-91025000D02*
X128300000Y-90250000D01*
X127525000Y-92375000D02*
X127525000Y-91025000D01*
%TO.N,/processor/A_IN_2_PIN*%
X114650000Y-114900000D02*
X116250000Y-114900000D01*
X113851500Y-114850000D02*
X114600000Y-114850000D01*
X128633437Y-94810000D02*
X129560000Y-94810000D01*
X113801500Y-114900000D02*
X113851500Y-114850000D01*
X128481500Y-94658063D02*
X128633437Y-94810000D01*
X116250000Y-114900000D02*
X116375000Y-115025000D01*
%TO.N,/processor/A_IN_3_PIN*%
X113371326Y-116571326D02*
X114575000Y-117775000D01*
X113371326Y-115946326D02*
X113371326Y-116571326D01*
X129100746Y-94410000D02*
X128671498Y-93980752D01*
X113975000Y-120525000D02*
X113975000Y-118375000D01*
X114500000Y-117850000D02*
X114550000Y-117850000D01*
X128671498Y-93980752D02*
X128671498Y-93956845D01*
X114575000Y-117775000D02*
X114650000Y-117775000D01*
X113975000Y-118375000D02*
X114500000Y-117850000D01*
X129560000Y-94410000D02*
X129100746Y-94410000D01*
X114300000Y-120850000D02*
X113975000Y-120525000D01*
%TO.N,GND*%
X107425000Y-114750000D02*
X107425000Y-116675000D01*
X144870000Y-78320000D02*
X149330000Y-78320000D01*
X157100000Y-120550000D02*
X156500000Y-119950000D01*
X123310000Y-86090000D02*
X123310000Y-83615000D01*
X143395500Y-81070500D02*
X143900000Y-81575000D01*
X129985000Y-83445000D02*
X130895000Y-83445000D01*
X134800000Y-108000000D02*
X134800000Y-109075000D01*
X165950000Y-104970000D02*
X165920000Y-104940000D01*
X122395000Y-83445000D02*
X122375000Y-83425000D01*
X107390000Y-97750000D02*
X109900000Y-97750000D01*
X106120000Y-96305000D02*
X106125000Y-96300000D01*
X110425000Y-97750000D02*
X110825000Y-98150000D01*
X135180000Y-93430000D02*
X135180000Y-94200000D01*
X149225000Y-78225000D02*
X149300000Y-78300000D01*
X111750000Y-91700000D02*
X111750000Y-92400000D01*
X105720000Y-90950000D02*
X104925000Y-90950000D01*
X143650000Y-76180000D02*
X143600000Y-76230000D01*
X117360000Y-97040000D02*
X117129400Y-97270600D01*
X150750000Y-80200000D02*
X150750000Y-82125000D01*
X165950000Y-106700000D02*
X165950000Y-104970000D01*
X117275000Y-117950000D02*
X117250000Y-117925000D01*
X137400000Y-76180000D02*
X136872500Y-76180000D01*
X151800000Y-108025000D02*
X151800000Y-107400000D01*
X143780000Y-76180000D02*
X144505000Y-76905000D01*
X132922500Y-76202500D02*
X134150000Y-76202500D01*
X114275000Y-123700000D02*
X114275000Y-123925000D01*
X111775000Y-97750000D02*
X112700000Y-97750000D01*
X108800000Y-114750000D02*
X108825000Y-114775000D01*
X144505000Y-76905000D02*
X144505000Y-77955000D01*
X110525000Y-90950000D02*
X110550000Y-90925000D01*
X107425000Y-114750000D02*
X108800000Y-114750000D01*
X109800000Y-90950000D02*
X110525000Y-90950000D01*
X106650000Y-121105000D02*
X107520000Y-121105000D01*
X137560000Y-86550000D02*
X138825000Y-86550000D01*
X139230500Y-81070500D02*
X143395500Y-81070500D01*
X165950000Y-106700000D02*
X164975000Y-106700000D01*
X150750000Y-80200000D02*
X150450000Y-80200000D01*
X139420000Y-76230000D02*
X139400000Y-76250000D01*
X137019500Y-86575000D02*
X137535000Y-86575000D01*
X117360000Y-96935000D02*
X117360000Y-97040000D01*
X127050000Y-119850000D02*
X127050000Y-121200000D01*
X106120000Y-97750000D02*
X106120000Y-96305000D01*
X164330000Y-108030000D02*
X161285000Y-111075000D01*
X117129400Y-97270600D02*
X116764661Y-97270600D01*
X111050000Y-121200000D02*
X111100000Y-121150000D01*
X117250000Y-117925000D02*
X116450000Y-117925000D01*
X123285000Y-83445000D02*
X122395000Y-83445000D01*
X130525000Y-86075000D02*
X130025000Y-85575000D01*
X110250000Y-121200000D02*
X111050000Y-121200000D01*
X163350000Y-120550000D02*
X157100000Y-120550000D01*
X149275000Y-79025000D02*
X149275000Y-78625000D01*
X151800000Y-107400000D02*
X151775000Y-107375000D01*
X143600000Y-76230000D02*
X139420000Y-76230000D01*
X130895000Y-83445000D02*
X130900000Y-83450000D01*
X103950000Y-100375000D02*
X103925000Y-100350000D01*
X113475000Y-123625000D02*
X114200000Y-123625000D01*
X132900000Y-76180000D02*
X132922500Y-76202500D01*
X139275000Y-76305000D02*
X139150000Y-76180000D01*
X164975000Y-106700000D02*
X164330000Y-107345000D01*
X144505000Y-77955000D02*
X144870000Y-78320000D01*
X149330000Y-78320000D02*
X149350000Y-78300000D01*
X114200000Y-123625000D02*
X114275000Y-123700000D01*
X161285000Y-111075000D02*
X156475000Y-111075000D01*
X139275000Y-77225000D02*
X139275000Y-76305000D01*
X137535000Y-86575000D02*
X137560000Y-86550000D01*
X136872500Y-76180000D02*
X136825000Y-76227500D01*
X130025000Y-83625000D02*
X129875000Y-83475000D01*
X164330000Y-107345000D02*
X164330000Y-108030000D01*
X109930000Y-97750000D02*
X110425000Y-97750000D01*
X130025000Y-85575000D02*
X130025000Y-83625000D01*
X123310000Y-83615000D02*
X123425000Y-83500000D01*
X117950000Y-119750000D02*
X117950000Y-119875000D01*
X107520000Y-121105000D02*
X107525000Y-121100000D01*
X105350000Y-100375000D02*
X103950000Y-100375000D01*
X139070000Y-80910000D02*
X139230500Y-81070500D01*
X150450000Y-80200000D02*
X149275000Y-79025000D01*
X149225000Y-76225000D02*
X149225000Y-78225000D01*
X135180000Y-94200000D02*
X135190000Y-94210000D01*
%TO.N,/RXD*%
X141550000Y-120400000D02*
X140875000Y-121075000D01*
X139443253Y-121075000D02*
X134800000Y-121075000D01*
X143000000Y-120400000D02*
X141550000Y-120400000D01*
X139675000Y-121075000D02*
X139443253Y-121075000D01*
X140575000Y-120775000D02*
X140575000Y-120375000D01*
X139975000Y-120375000D02*
X139975000Y-120775000D01*
X140275000Y-120075000D02*
G75*
G03*
X139975000Y-120375000I0J-300000D01*
G01*
X140575000Y-120775000D02*
G75*
G03*
X140875000Y-121075000I300000J0D01*
G01*
X140575000Y-120375000D02*
G75*
G03*
X140275000Y-120075000I-300000J0D01*
G01*
X139675000Y-121075000D02*
G75*
G03*
X139975000Y-120775000I0J300000D01*
G01*
%TO.N,/TXD*%
X135175000Y-123075000D02*
X134800000Y-123075000D01*
X141775000Y-121500000D02*
X141680000Y-121405000D01*
X136845000Y-121405000D02*
X135175000Y-123075000D01*
X141680000Y-121405000D02*
X136845000Y-121405000D01*
%TO.N,/ESP-Wifi/GPIO0*%
X132310000Y-115075000D02*
X134875000Y-115075000D01*
X136725000Y-115075000D02*
X134800000Y-115075000D01*
%TO.N,Net-(U16-SCLK)*%
X137300000Y-107575000D02*
X137300000Y-106325000D01*
%TO.N,Net-(U16-CS0)*%
X147300000Y-107575000D02*
X147300000Y-106253500D01*
%TO.N,Net-(U16-MOSI)*%
X139300000Y-107575000D02*
X139300000Y-106325000D01*
%TO.N,Net-(U16-MISO)*%
X145300000Y-107575000D02*
X145300000Y-106253500D01*
%TO.N,Net-(U16-IO5)*%
X136750000Y-119075000D02*
X135025000Y-119075000D01*
X135025000Y-119075000D02*
X135000000Y-119050000D01*
%TO.N,Net-(U16-IO9)*%
X143300000Y-107575000D02*
X143300000Y-106300000D01*
%TO.N,Net-(U16-IO10)*%
X141300000Y-107575000D02*
X141300000Y-106350000D01*
%TO.N,/ESP-Wifi/ESP_INT*%
X149800000Y-115075000D02*
X149415000Y-115075000D01*
X130580000Y-116020000D02*
X128400000Y-113840000D01*
X121963986Y-96410000D02*
X122690000Y-96410000D01*
X148470000Y-116020000D02*
X130580000Y-116020000D01*
X128400000Y-113840000D02*
X128400000Y-108025000D01*
X121723986Y-96650000D02*
X121963986Y-96410000D01*
X121290375Y-96650000D02*
X121723986Y-96650000D01*
X149415000Y-115075000D02*
X148470000Y-116020000D01*
X121033270Y-96907105D02*
X121290375Y-96650000D01*
%TO.N,Net-(D11-K)*%
X152410000Y-116620000D02*
X152410000Y-115840000D01*
%TO.N,Net-(D12-K)*%
X151449740Y-118400644D02*
X151879356Y-118400644D01*
X151879356Y-118400644D02*
X152400000Y-117880000D01*
X152400000Y-117880000D02*
X152400000Y-117790000D01*
%TO.N,Net-(U16-IO4)*%
X136725000Y-117075000D02*
X136700000Y-117100000D01*
X136700000Y-117100000D02*
X134975000Y-117100000D01*
%TO.N,Net-(JP4-Pad2)*%
X121650000Y-117375000D02*
X120400000Y-117375000D01*
%TO.N,/peripherals/switch*%
X168450000Y-121400000D02*
X168450000Y-118150000D01*
X168450000Y-118150000D02*
X168450000Y-114500000D01*
X168450000Y-118150000D02*
X160725000Y-118150000D01*
X160725000Y-118150000D02*
X160700000Y-118125000D01*
%TO.N,/ESP-Wifi/GPIO2*%
X132240000Y-113110000D02*
X134910000Y-113110000D01*
X134910000Y-113110000D02*
X134960000Y-113060000D01*
%TO.N,/ESP-Wifi/~{RESET}*%
X149825000Y-122129502D02*
X149850000Y-122104502D01*
X149825000Y-123100000D02*
X149825000Y-122129502D01*
%TO.N,Net-(U16-IO15)*%
X133440000Y-111050000D02*
X133465000Y-111075000D01*
X133465000Y-111075000D02*
X134800000Y-111075000D01*
%TO.N,/ESP-Wifi/LED2*%
X149940000Y-111360000D02*
X149930000Y-111350000D01*
X149940000Y-112045498D02*
X149940000Y-111360000D01*
%TO.N,/ESP-Wifi/LED1*%
X149800000Y-113075000D02*
X149800000Y-114005498D01*
X149800000Y-114005498D02*
X149760000Y-114045498D01*
%TO.N,Net-(U16-IO16)*%
X149800000Y-117075000D02*
X147225000Y-117075000D01*
X147225000Y-117075000D02*
X147220000Y-117070000D01*
%TO.N,GNDISO2*%
X114186396Y-107994113D02*
X114169113Y-107994113D01*
X106463909Y-107813909D02*
X107150000Y-107127818D01*
X111300000Y-100202818D02*
X110788909Y-100713909D01*
X108463909Y-111188909D02*
X109025000Y-111750000D01*
X111534746Y-106615254D02*
X111125000Y-107025000D01*
X111300000Y-100200000D02*
X111300000Y-100202818D01*
X107750000Y-107525000D02*
X107213909Y-106988909D01*
X108013909Y-103413909D02*
X108502818Y-102925000D01*
X110478769Y-111187222D02*
X110478769Y-111496231D01*
X111125000Y-107025000D02*
X110650000Y-107025000D01*
X111534746Y-106615254D02*
X112700000Y-105450000D01*
X113450000Y-107275000D02*
X113450000Y-107175000D01*
X111764950Y-112139950D02*
X112350000Y-112725000D01*
X107150000Y-107127818D02*
X107150000Y-107050000D01*
X108438909Y-111188909D02*
X108463909Y-111188909D01*
X118738909Y-102711091D02*
X119300000Y-102150000D01*
X109207107Y-101882107D02*
X108625000Y-101300000D01*
X114169113Y-107994113D02*
X113450000Y-107275000D01*
X106500000Y-104475000D02*
X106073959Y-104048959D01*
X108502818Y-102925000D02*
X108525000Y-102925000D01*
X107213909Y-106988909D02*
X107186091Y-106988909D01*
X116361091Y-100361091D02*
X115750000Y-99750000D01*
X106073959Y-104048959D02*
X105623959Y-104048959D01*
X111760050Y-112139950D02*
X111764950Y-112139950D01*
X110478769Y-111496231D02*
X109850000Y-112125000D01*
X118738909Y-102713909D02*
X118738909Y-102711091D01*
%TD*%
M02*
