M48
; DRILL file {KiCad 7.0.7} date 2023 August 17, Thursday 16:48:47
; FORMAT={-:-/ absolute / metric / decimal}
; #@! TF.CreationDate,2023-08-17T16:48:47-04:00
; #@! TF.GenerationSoftware,Kicad,Pcbnew,7.0.7
; #@! TF.FileFunction,MixedPlating,1,4
FMAT,2
METRIC
; #@! TA.AperFunction,Plated,PTH,ViaDrill
T1C0.300
; #@! TA.AperFunction,Plated,PTH,ViaDrill
T2C0.600
; #@! TA.AperFunction,Plated,PTH,ComponentDrill
T3C0.600
; #@! TA.AperFunction,Plated,PTH,ComponentDrill
T4C0.800
; #@! TA.AperFunction,Plated,PTH,ComponentDrill
T5C0.900
; #@! TA.AperFunction,Plated,PTH,ComponentDrill
T6C1.000
; #@! TA.AperFunction,Plated,PTH,ComponentDrill
T7C1.700
; #@! TA.AperFunction,Plated,PTH,ComponentDrill
T8C2.150
; #@! TA.AperFunction,Plated,PTH,ComponentDrill
T9C2.200
; #@! TA.AperFunction,Plated,PTH,ComponentDrill
T10C2.500
; #@! TA.AperFunction,Plated,PTH,ComponentDrill
T11C3.000
; #@! TA.AperFunction,NonPlated,NPTH,ComponentDrill
T12C0.650
; #@! TA.AperFunction,NonPlated,NPTH,ComponentDrill
T13C1.000
%
G90
G05
T1
X103.45Y-94.4
X103.8Y-97.25
X104.1Y-99.825
X104.85Y-91.125
X105.625Y-102.3
X105.625Y-123.25
X105.65Y-107.175
X105.65Y-109.325
X106.425Y-91.15
X106.55Y-90.325
X107.075Y-107.525
X107.15Y-108.9
X107.525Y-121.1
X108.275Y-102.525
X108.55Y-101.55
X108.725Y-94.1
X108.75Y-112.975
X108.775Y-120.975
X108.8Y-118.558
X109.327Y-110.45
X109.425Y-100.75
X109.85Y-112.75
X110.025Y-121.0
X110.425Y-121.725
X110.549Y-116.501
X110.825Y-118.529
X110.85Y-91.15
X111.1Y-98.625
X111.3Y-116.55
X111.525Y-101.775
X111.55Y-104.675
X111.75Y-93.625
X111.775Y-91.65
X111.9Y-118.707
X112.55Y-103.025
X112.625Y-122.075
X112.675Y-114.1
X112.7Y-97.75
X112.75Y-106.563
X112.817Y-112.107
X113.032Y-113.388
X113.04Y-105.86
X113.041Y-120.595
X113.225Y-110.675
X113.291Y-112.662
X113.371Y-111.578
X113.371Y-115.946
X113.445Y-122.475
X113.55Y-90.8
X113.9Y-103.835
X113.9Y-115.417
X114.6Y-118.475
X114.875Y-102.625
X114.954Y-114.364
X115.213Y-104.75
X115.475Y-113.376
X115.625Y-119.475
X116.0Y-99.14
X116.275Y-118.992
X116.329Y-102.85
X116.804Y-119.65
X116.825Y-96.984
X116.84Y-103.718
X117.35Y-116.5
X117.375Y-118.0
X117.875Y-102.375
X117.95Y-119.75
X118.675Y-105.8
X118.725Y-113.7
X119.014Y-94.5
X119.267Y-92.417
X119.35Y-97.075
X119.577Y-97.929
X119.725Y-113.575
X119.743Y-94.536
X119.884Y-95.596
X119.971Y-92.621
X120.1Y-96.3
X120.297Y-112.2
X120.35Y-97.85
X120.385Y-95.066
X120.5Y-93.15
X120.75Y-105.2
X121.097Y-97.704
X121.3Y-114.125
X121.605Y-96.504
X121.638Y-93.739
X121.875Y-111.175
X122.14Y-107.178
X122.156Y-98.993
X122.169Y-104.349
X122.367Y-106.484
X122.475Y-119.875
X122.969Y-99.778
X123.025Y-88.225
X123.45Y-94.025
X123.525Y-100.25
X123.6Y-98.378
X124.303Y-97.778
X124.32Y-118.825
X124.925Y-98.225
X124.979Y-101.16
X125.39Y-95.11
X125.525Y-89.325
X125.675Y-107.55
X126.079Y-97.925
X126.304Y-119.45
X126.304Y-120.475
X126.596Y-116.46
X127.325Y-117.12
X127.9Y-100.836
X127.925Y-107.6
X128.144Y-105.472
X128.35Y-114.54
X128.49Y-121.13
X128.693Y-98.378
X128.7Y-94.978
X128.7Y-94.239
X128.7Y-95.708
X128.739Y-93.51
X128.756Y-100.613
X129.0Y-115.475
X129.011Y-99.3
X129.05Y-116.55
X129.13Y-117.65
X129.55Y-92.375
X129.564Y-100.537
X129.72Y-121.13
X130.07Y-99.125
X130.25Y-101.402
X130.427Y-95.579
X130.56Y-104.31
X130.627Y-96.281
X130.77Y-98.058
X130.86Y-94.05
X131.0Y-121.13
X131.141Y-97.388
X131.263Y-84.689
X131.35Y-89.125
X131.741Y-94.749
X131.775Y-119.85
X131.85Y-92.5
X131.9Y-85.219
X131.975Y-84.15
X132.25Y-80.2
X132.529Y-97.53
X132.94Y-92.5
X133.075Y-116.95
X133.3Y-96.84
X133.365Y-90.235
X133.921Y-98.36
X134.15Y-76.203
X134.45Y-96.37
X134.725Y-119.075
X135.675Y-93.475
X136.29Y-90.03
X136.35Y-109.075
X136.825Y-76.227
X137.019Y-86.575
X137.21Y-84.494
X137.3Y-107.55
X137.707Y-83.96
X137.715Y-85.019
X138.425Y-79.475
X138.85Y-115.15
X139.25Y-107.625
X139.275Y-77.225
X139.475Y-81.0
X140.525Y-118.45
X140.925Y-94.95
X141.275Y-107.525
X141.69Y-104.87
X141.775Y-121.5
X141.85Y-92.525
X141.85Y-96.295
X141.857Y-88.103
X141.966Y-100.135
X143.0Y-120.4
X143.19Y-90.2
X143.225Y-86.025
X143.25Y-107.575
X143.32Y-98.07
X143.85Y-101.836
X143.85Y-115.225
X143.925Y-110.85
X145.275Y-107.575
X145.74Y-101.99
X146.625Y-116.4
X147.25Y-112.6
X147.275Y-76.225
X147.3Y-107.575
X147.375Y-113.775
X147.56Y-99.78
X148.025Y-83.275
X148.175Y-86.125
X148.35Y-109.075
X148.35Y-116.025
X148.363Y-104.11
X149.75Y-123.1
X149.775Y-111.075
X149.8Y-113.075
X149.86Y-100.277
X149.867Y-96.198
X149.922Y-88.093
X149.978Y-92.113
X150.5Y-97.829
X151.175Y-94.25
X151.242Y-86.225
X151.28Y-105.054
X151.29Y-90.15
X151.5Y-89.45
X151.582Y-97.379
X151.677Y-93.395
X151.775Y-107.375
X152.425Y-118.575
X152.52Y-104.72
X153.18Y-99.48
X153.725Y-102.5
X153.958Y-88.35
X154.358Y-94.92
X154.369Y-100.65
X154.45Y-98.708
X154.7Y-90.86
X155.279Y-92.26
X155.395Y-95.882
X155.84Y-90.74
X155.854Y-92.798
X155.9Y-88.06
X155.925Y-83.85
X156.405Y-102.275
X156.475Y-111.075
X156.5Y-111.9
X156.62Y-89.75
X157.31Y-93.99
X158.04Y-93.02
X158.05Y-96.98
X158.365Y-84.596
X158.825Y-83.879
X159.924Y-83.374
X160.15Y-84.475
X160.33Y-79.05
X160.335Y-80.269
X160.335Y-80.999
X160.839Y-82.595
X161.02Y-84.54
X161.59Y-85.73
X162.0Y-102.474
X162.651Y-85.681
X163.2Y-79.15
X163.225Y-100.25
X163.37Y-81.345
X163.525Y-106.95
X163.709Y-85.56
X164.08Y-86.94
X164.096Y-81.269
X164.51Y-86.03
X164.67Y-91.96
X164.71Y-90.98
X164.75Y-81.828
X165.271Y-80.979
X165.344Y-83.13
X165.65Y-79.075
X165.86Y-81.77
X165.875Y-105.45
X165.95Y-83.65
X167.175Y-105.525
X167.286Y-92.4
X167.416Y-88.435
X168.425Y-120.875
X168.8Y-106.975
X171.424Y-92.1
X171.425Y-96.1
X171.525Y-100.175
X172.323Y-84.342
X172.391Y-88.282
X172.8Y-83.15
X173.05Y-97.825
X173.05Y-101.875
X173.1Y-85.8
X173.125Y-93.75
X173.15Y-89.635
T2
X118.425Y-101.7
X120.04Y-81.23
T4
X123.125Y-112.325
X130.725Y-112.325
T5
X102.45Y-85.788
X102.45Y-88.333
X102.45Y-90.873
X102.45Y-93.413
X102.45Y-95.953
X102.45Y-98.493
X102.45Y-101.033
X102.45Y-103.573
X102.45Y-106.113
X102.45Y-108.653
X167.425Y-76.945
X167.425Y-82.025
X172.505Y-76.945
X172.505Y-82.025
T6
X106.3Y-78.8
X117.3Y-78.8
T7
X109.3Y-88.8
X114.3Y-88.8
T8
X165.95Y-114.4
T10
X102.45Y-82.613
X102.45Y-111.823
X153.25Y-82.613
X153.25Y-111.823
T11
X102.52Y-77.858
X103.1Y-121.9
X153.25Y-77.85
X153.25Y-121.9
T12
X123.745Y-82.38
X129.525Y-82.38
T13
X105.52Y-116.9
X109.33Y-116.9
T3
G00X122.315Y-79.0
M15
G01X122.315Y-78.4
M16
G05
G00X122.315Y-83.43
M15
G01X122.315Y-82.33
M16
G05
G00X130.955Y-79.0
M15
G01X130.955Y-78.4
M16
G05
G00X130.955Y-83.43
M15
G01X130.955Y-82.33
M16
G05
T9
G00X165.95Y-110.3
M15
G01X165.95Y-109.5
M16
G05
T0
M30
