%TF.GenerationSoftware,KiCad,Pcbnew,7.0.7*%
%TF.CreationDate,2023-08-17T16:49:06-04:00*%
%TF.ProjectId,eOPRA_interface,654f5052-415f-4696-9e74-657266616365,rev?*%
%TF.SameCoordinates,Original*%
%TF.FileFunction,Paste,Bot*%
%TF.FilePolarity,Positive*%
%FSLAX46Y46*%
G04 Gerber Fmt 4.6, Leading zero omitted, Abs format (unit mm)*
G04 Created by KiCad (PCBNEW 7.0.7) date 2023-08-17 16:49:06*
%MOMM*%
%LPD*%
G01*
G04 APERTURE LIST*
G04 Aperture macros list*
%AMRoundRect*
0 Rectangle with rounded corners*
0 $1 Rounding radius*
0 $2 $3 $4 $5 $6 $7 $8 $9 X,Y pos of 4 corners*
0 Add a 4 corners polygon primitive as box body*
4,1,4,$2,$3,$4,$5,$6,$7,$8,$9,$2,$3,0*
0 Add four circle primitives for the rounded corners*
1,1,$1+$1,$2,$3*
1,1,$1+$1,$4,$5*
1,1,$1+$1,$6,$7*
1,1,$1+$1,$8,$9*
0 Add four rect primitives between the rounded corners*
20,1,$1+$1,$2,$3,$4,$5,0*
20,1,$1+$1,$4,$5,$6,$7,0*
20,1,$1+$1,$6,$7,$8,$9,0*
20,1,$1+$1,$8,$9,$2,$3,0*%
G04 Aperture macros list end*
%ADD10RoundRect,0.187500X-0.187500X0.312500X-0.187500X-0.312500X0.187500X-0.312500X0.187500X0.312500X0*%
%ADD11RoundRect,0.187500X0.187500X-0.312500X0.187500X0.312500X-0.187500X0.312500X-0.187500X-0.312500X0*%
%ADD12R,0.520000X0.830000*%
%ADD13RoundRect,0.150000X-0.150000X-0.250000X0.150000X-0.250000X0.150000X0.250000X-0.150000X0.250000X0*%
%ADD14RoundRect,0.150000X0.150000X0.250000X-0.150000X0.250000X-0.150000X-0.250000X0.150000X-0.250000X0*%
%ADD15R,1.000000X1.000000*%
%ADD16RoundRect,0.150000X0.250000X-0.150000X0.250000X0.150000X-0.250000X0.150000X-0.250000X-0.150000X0*%
%ADD17R,2.000000X2.000000*%
%ADD18RoundRect,0.150000X-0.250000X0.150000X-0.250000X-0.150000X0.250000X-0.150000X0.250000X0.150000X0*%
%ADD19R,1.000000X2.700000*%
%ADD20R,0.600000X1.700000*%
%ADD21R,2.200000X1.200000*%
%ADD22R,3.050000X2.750000*%
%ADD23R,0.600000X0.800000*%
%ADD24R,3.500000X1.780000*%
%ADD25R,0.600000X0.500000*%
%ADD26R,0.800000X0.600000*%
G04 APERTURE END LIST*
D10*
%TO.C,SW1*%
X139545000Y-110700000D03*
X141695000Y-110700000D03*
X139545000Y-115200000D03*
X141695000Y-115200000D03*
%TD*%
D11*
%TO.C,SW5*%
X145200000Y-115250000D03*
X143050000Y-115250000D03*
X145200000Y-110750000D03*
X143050000Y-110750000D03*
%TD*%
D12*
%TO.C,Q12*%
X150350000Y-104145000D03*
X149050000Y-104145000D03*
X149700000Y-102675000D03*
%TD*%
%TO.C,Q21*%
X168750000Y-90370000D03*
X167450000Y-90370000D03*
X168100000Y-88900000D03*
%TD*%
D13*
%TO.C,R43*%
X151625000Y-102625000D03*
X153325000Y-102625000D03*
%TD*%
D12*
%TO.C,Q10*%
X145400000Y-94250000D03*
X146700000Y-94250000D03*
X146050000Y-95720000D03*
%TD*%
D14*
%TO.C,R77*%
X164501748Y-107000000D03*
X162801748Y-107000000D03*
%TD*%
D15*
%TO.C,TP6*%
X147300000Y-107575000D03*
%TD*%
D16*
%TO.C,R51*%
X125725000Y-110125000D03*
X125725000Y-108425000D03*
%TD*%
D14*
%TO.C,R26*%
X144055000Y-102660000D03*
X142355000Y-102660000D03*
%TD*%
D13*
%TO.C,R68*%
X170145000Y-84900000D03*
X171845000Y-84900000D03*
%TD*%
D12*
%TO.C,Q29*%
X168800000Y-86410000D03*
X167500000Y-86410000D03*
X168150000Y-84940000D03*
%TD*%
%TO.C,Q25*%
X145425000Y-86130000D03*
X146725000Y-86130000D03*
X146075000Y-87600000D03*
%TD*%
D16*
%TO.C,R69*%
X141085000Y-91715000D03*
X141085000Y-90015000D03*
%TD*%
D12*
%TO.C,Q8*%
X159725000Y-102285000D03*
X158425000Y-102285000D03*
X159075000Y-100815000D03*
%TD*%
D13*
%TO.C,R78*%
X167175000Y-105550000D03*
X168875000Y-105550000D03*
%TD*%
D12*
%TO.C,Q19*%
X168525000Y-98495000D03*
X167225000Y-98495000D03*
X167875000Y-97025000D03*
%TD*%
D17*
%TO.C,TP2*%
X106020000Y-96358175D03*
%TD*%
D18*
%TO.C,R63*%
X173125000Y-92770000D03*
X173125000Y-94470000D03*
%TD*%
%TO.C,R22*%
X146575000Y-113775000D03*
X146575000Y-115475000D03*
%TD*%
D12*
%TO.C,Q2*%
X145380000Y-102865000D03*
X146680000Y-102865000D03*
X146030000Y-104335000D03*
%TD*%
D14*
%TO.C,R32*%
X152125000Y-99580000D03*
X150425000Y-99580000D03*
%TD*%
D19*
%TO.C,J1*%
X114375000Y-123037500D03*
X106925000Y-123037500D03*
D20*
X112525000Y-119837500D03*
X111275000Y-119837500D03*
X110025000Y-119837500D03*
X108775000Y-119837500D03*
%TD*%
D14*
%TO.C,R73*%
X144085000Y-91665000D03*
X142385000Y-91665000D03*
%TD*%
D18*
%TO.C,R33*%
X164100000Y-100750000D03*
X164100000Y-102450000D03*
%TD*%
D13*
%TO.C,R54*%
X170050000Y-90425000D03*
X171750000Y-90425000D03*
%TD*%
D18*
%TO.C,R8*%
X124350000Y-108425000D03*
X124350000Y-110125000D03*
%TD*%
D14*
%TO.C,R71*%
X144085000Y-90115000D03*
X142385000Y-90115000D03*
%TD*%
D12*
%TO.C,Q32*%
X145360000Y-90155000D03*
X146660000Y-90155000D03*
X146010000Y-91625000D03*
%TD*%
D16*
%TO.C,R19*%
X141125000Y-99645000D03*
X141125000Y-97945000D03*
%TD*%
%TO.C,R58*%
X141062500Y-87600000D03*
X141062500Y-85900000D03*
%TD*%
D13*
%TO.C,R34*%
X161050000Y-102350000D03*
X162750000Y-102350000D03*
%TD*%
D18*
%TO.C,R39*%
X154625000Y-102600000D03*
X154625000Y-104300000D03*
%TD*%
D21*
%TO.C,Q5*%
X111640000Y-85723175D03*
D22*
X116265000Y-81918175D03*
X116265000Y-84968175D03*
X119615000Y-81918175D03*
X119615000Y-84968175D03*
D21*
X111640000Y-81163175D03*
%TD*%
D13*
%TO.C,R41*%
X151625000Y-104200000D03*
X153325000Y-104200000D03*
%TD*%
D14*
%TO.C,R31*%
X152150000Y-98030000D03*
X150450000Y-98030000D03*
%TD*%
%TO.C,R49*%
X152075000Y-95795000D03*
X150375000Y-95795000D03*
%TD*%
%TO.C,R59*%
X152260000Y-90155000D03*
X150560000Y-90155000D03*
%TD*%
D12*
%TO.C,Q6*%
X153450000Y-98070000D03*
X154750000Y-98070000D03*
X154100000Y-99540000D03*
%TD*%
D16*
%TO.C,R79*%
X168450000Y-119625000D03*
X168450000Y-117925000D03*
%TD*%
D14*
%TO.C,R60*%
X144100000Y-86025000D03*
X142400000Y-86025000D03*
%TD*%
D15*
%TO.C,TP5*%
X137300000Y-107550000D03*
%TD*%
D13*
%TO.C,R44*%
X170000000Y-101010000D03*
X171700000Y-101010000D03*
%TD*%
D16*
%TO.C,R57*%
X149235000Y-91755000D03*
X149235000Y-90055000D03*
%TD*%
D13*
%TO.C,R42*%
X170000000Y-102535000D03*
X171700000Y-102535000D03*
%TD*%
D14*
%TO.C,R74*%
X152167500Y-87600000D03*
X150467500Y-87600000D03*
%TD*%
%TO.C,R47*%
X152075000Y-94245000D03*
X150375000Y-94245000D03*
%TD*%
D12*
%TO.C,Q16*%
X153375000Y-94285000D03*
X154675000Y-94285000D03*
X154025000Y-95755000D03*
%TD*%
D15*
%TO.C,TP7*%
X139305000Y-107600000D03*
%TD*%
%TO.C,TP10*%
X134725000Y-119075000D03*
%TD*%
D23*
%TO.C,C27*%
X162801748Y-105575000D03*
X164501748Y-105575000D03*
%TD*%
D12*
%TO.C,Q24*%
X153560000Y-90170000D03*
X154860000Y-90170000D03*
X154210000Y-91640000D03*
%TD*%
D16*
%TO.C,R70*%
X149092500Y-87650000D03*
X149092500Y-85950000D03*
%TD*%
D14*
%TO.C,R61*%
X152235000Y-91680000D03*
X150535000Y-91680000D03*
%TD*%
%TO.C,R9*%
X126000000Y-116450000D03*
X124300000Y-116450000D03*
%TD*%
D15*
%TO.C,TP13*%
X149750000Y-123100000D03*
%TD*%
D13*
%TO.C,R56*%
X170050000Y-88850000D03*
X171750000Y-88850000D03*
%TD*%
D16*
%TO.C,R45*%
X149000000Y-95845000D03*
X149000000Y-94145000D03*
%TD*%
D13*
%TO.C,R66*%
X170145000Y-86450000D03*
X171845000Y-86450000D03*
%TD*%
D14*
%TO.C,R72*%
X152142500Y-86050000D03*
X150442500Y-86050000D03*
%TD*%
%TO.C,R5*%
X144055000Y-104385000D03*
X142355000Y-104385000D03*
%TD*%
D13*
%TO.C,R65*%
X170038690Y-94480000D03*
X171738690Y-94480000D03*
%TD*%
D12*
%TO.C,Q28*%
X168738690Y-94425000D03*
X167438690Y-94425000D03*
X168088690Y-92955000D03*
%TD*%
D16*
%TO.C,R36*%
X140975000Y-95810000D03*
X140975000Y-94110000D03*
%TD*%
D12*
%TO.C,Q4*%
X145500000Y-98110000D03*
X146800000Y-98110000D03*
X146150000Y-99580000D03*
%TD*%
D14*
%TO.C,R62*%
X144100000Y-87600000D03*
X142400000Y-87600000D03*
%TD*%
D24*
%TO.C,F1*%
X107895000Y-86395675D03*
X107895000Y-81165675D03*
%TD*%
D18*
%TO.C,R76*%
X161501748Y-105400000D03*
X161501748Y-107100000D03*
%TD*%
D15*
%TO.C,TP9*%
X149800000Y-113075000D03*
%TD*%
D13*
%TO.C,R53*%
X169950000Y-98535000D03*
X171650000Y-98535000D03*
%TD*%
D19*
%TO.C,J3*%
X123550000Y-123075000D03*
X116100000Y-123075000D03*
D20*
X121700000Y-119875000D03*
X120450000Y-119875000D03*
X119200000Y-119875000D03*
X117950000Y-119875000D03*
%TD*%
D13*
%TO.C,R55*%
X169950000Y-96960000D03*
X171650000Y-96960000D03*
%TD*%
D12*
%TO.C,Q33*%
X153467500Y-85980000D03*
X154767500Y-85980000D03*
X154117500Y-87450000D03*
%TD*%
D14*
%TO.C,R21*%
X125990000Y-117850000D03*
X124290000Y-117850000D03*
%TD*%
D13*
%TO.C,R35*%
X161050000Y-100875000D03*
X162750000Y-100875000D03*
%TD*%
D14*
%TO.C,R48*%
X144150000Y-99620000D03*
X142450000Y-99620000D03*
%TD*%
D18*
%TO.C,R50*%
X173050000Y-96885000D03*
X173050000Y-98585000D03*
%TD*%
D16*
%TO.C,R30*%
X149050000Y-99685000D03*
X149050000Y-97985000D03*
%TD*%
D18*
%TO.C,R52*%
X173150000Y-88835000D03*
X173150000Y-90535000D03*
%TD*%
D15*
%TO.C,TP11*%
X143275000Y-107575000D03*
%TD*%
D19*
%TO.C,J7*%
X146125000Y-123050000D03*
X138675000Y-123050000D03*
D20*
X144275000Y-119850000D03*
X143025000Y-119850000D03*
X141775000Y-119850000D03*
X140525000Y-119850000D03*
%TD*%
D12*
%TO.C,Q13*%
X168700000Y-102495000D03*
X167400000Y-102495000D03*
X168050000Y-101025000D03*
%TD*%
D25*
%TO.C,C35*%
X146500000Y-111525000D03*
X146500000Y-112625000D03*
%TD*%
D13*
%TO.C,R12*%
X127330000Y-117870000D03*
X129030000Y-117870000D03*
%TD*%
%TO.C,R67*%
X170038690Y-92905000D03*
X171738690Y-92905000D03*
%TD*%
D18*
%TO.C,R40*%
X173050000Y-100935000D03*
X173050000Y-102635000D03*
%TD*%
D16*
%TO.C,R3*%
X140960000Y-104260000D03*
X140960000Y-102560000D03*
%TD*%
D18*
%TO.C,R64*%
X173145000Y-84800000D03*
X173145000Y-86500000D03*
%TD*%
D15*
%TO.C,TP12*%
X141305000Y-107600000D03*
%TD*%
%TO.C,TP4*%
X144275000Y-118100000D03*
%TD*%
D26*
%TO.C,C26*%
X165875000Y-107125000D03*
X165875000Y-105425000D03*
%TD*%
D19*
%TO.C,J8*%
X132650000Y-123050000D03*
X125200000Y-123050000D03*
D20*
X130800000Y-119850000D03*
X129550000Y-119850000D03*
X128300000Y-119850000D03*
X127050000Y-119850000D03*
%TD*%
D14*
%TO.C,R75*%
X168900000Y-106975000D03*
X167200000Y-106975000D03*
%TD*%
%TO.C,R37*%
X144050000Y-94185000D03*
X142350000Y-94185000D03*
%TD*%
D13*
%TO.C,R10*%
X127325000Y-116450000D03*
X129025000Y-116450000D03*
%TD*%
D15*
%TO.C,TP8*%
X145300000Y-107600000D03*
%TD*%
D14*
%TO.C,R38*%
X144050000Y-95760000D03*
X142350000Y-95760000D03*
%TD*%
D15*
%TO.C,TP1*%
X149775000Y-111075000D03*
%TD*%
D14*
%TO.C,R46*%
X144175000Y-98045000D03*
X142475000Y-98045000D03*
%TD*%
M02*
