%TF.GenerationSoftware,KiCad,Pcbnew,7.0.7*%
%TF.CreationDate,2023-08-17T16:49:06-04:00*%
%TF.ProjectId,eOPRA_interface,654f5052-415f-4696-9e74-657266616365,rev?*%
%TF.SameCoordinates,Original*%
%TF.FileFunction,Copper,L4,Bot*%
%TF.FilePolarity,Positive*%
%FSLAX46Y46*%
G04 Gerber Fmt 4.6, Leading zero omitted, Abs format (unit mm)*
G04 Created by KiCad (PCBNEW 7.0.7) date 2023-08-17 16:49:06*
%MOMM*%
%LPD*%
G01*
G04 APERTURE LIST*
G04 Aperture macros list*
%AMRoundRect*
0 Rectangle with rounded corners*
0 $1 Rounding radius*
0 $2 $3 $4 $5 $6 $7 $8 $9 X,Y pos of 4 corners*
0 Add a 4 corners polygon primitive as box body*
4,1,4,$2,$3,$4,$5,$6,$7,$8,$9,$2,$3,0*
0 Add four circle primitives for the rounded corners*
1,1,$1+$1,$2,$3*
1,1,$1+$1,$4,$5*
1,1,$1+$1,$6,$7*
1,1,$1+$1,$8,$9*
0 Add four rect primitives between the rounded corners*
20,1,$1+$1,$2,$3,$4,$5,0*
20,1,$1+$1,$4,$5,$6,$7,0*
20,1,$1+$1,$6,$7,$8,$9,0*
20,1,$1+$1,$8,$9,$2,$3,0*%
%AMFreePoly0*
4,1,19,0.500000,-0.750000,0.000000,-0.750000,0.000000,-0.744911,-0.071157,-0.744911,-0.207708,-0.704816,-0.327430,-0.627875,-0.420627,-0.520320,-0.479746,-0.390866,-0.500000,-0.250000,-0.500000,0.250000,-0.479746,0.390866,-0.420627,0.520320,-0.327430,0.627875,-0.207708,0.704816,-0.071157,0.744911,0.000000,0.744911,0.000000,0.750000,0.500000,0.750000,0.500000,-0.750000,0.500000,-0.750000,
$1*%
%AMFreePoly1*
4,1,19,0.000000,0.744911,0.071157,0.744911,0.207708,0.704816,0.327430,0.627875,0.420627,0.520320,0.479746,0.390866,0.500000,0.250000,0.500000,-0.250000,0.479746,-0.390866,0.420627,-0.520320,0.327430,-0.627875,0.207708,-0.704816,0.071157,-0.744911,0.000000,-0.744911,0.000000,-0.750000,-0.500000,-0.750000,-0.500000,0.750000,0.000000,0.750000,0.000000,0.744911,0.000000,0.744911,
$1*%
G04 Aperture macros list end*
%TA.AperFunction,SMDPad,CuDef*%
%ADD10RoundRect,0.187500X-0.187500X0.312500X-0.187500X-0.312500X0.187500X-0.312500X0.187500X0.312500X0*%
%TD*%
%TA.AperFunction,SMDPad,CuDef*%
%ADD11RoundRect,0.187500X0.187500X-0.312500X0.187500X0.312500X-0.187500X0.312500X-0.187500X-0.312500X0*%
%TD*%
%TA.AperFunction,ComponentPad*%
%ADD12C,1.508000*%
%TD*%
%TA.AperFunction,ComponentPad*%
%ADD13C,2.550000*%
%TD*%
%TA.AperFunction,ComponentPad*%
%ADD14R,2.550000X2.550000*%
%TD*%
%TA.AperFunction,ComponentPad*%
%ADD15C,1.200000*%
%TD*%
%TA.AperFunction,ComponentPad*%
%ADD16C,3.600000*%
%TD*%
%TA.AperFunction,ComponentPad*%
%ADD17C,3.000000*%
%TD*%
%TA.AperFunction,ComponentPad*%
%ADD18RoundRect,0.750000X0.750000X1.000000X-0.750000X1.000000X-0.750000X-1.000000X0.750000X-1.000000X0*%
%TD*%
%TA.AperFunction,ComponentPad*%
%ADD19O,1.000000X2.100000*%
%TD*%
%TA.AperFunction,ComponentPad*%
%ADD20O,1.000000X1.600000*%
%TD*%
%TA.AperFunction,ComponentPad*%
%ADD21C,1.524000*%
%TD*%
%TA.AperFunction,ComponentPad*%
%ADD22C,3.500000*%
%TD*%
%TA.AperFunction,ComponentPad*%
%ADD23C,1.500000*%
%TD*%
%TA.AperFunction,SMDPad,CuDef*%
%ADD24R,0.520000X0.830000*%
%TD*%
%TA.AperFunction,SMDPad,CuDef*%
%ADD25C,0.500000*%
%TD*%
%TA.AperFunction,SMDPad,CuDef*%
%ADD26RoundRect,0.150000X-0.150000X-0.250000X0.150000X-0.250000X0.150000X0.250000X-0.150000X0.250000X0*%
%TD*%
%TA.AperFunction,SMDPad,CuDef*%
%ADD27RoundRect,0.150000X0.150000X0.250000X-0.150000X0.250000X-0.150000X-0.250000X0.150000X-0.250000X0*%
%TD*%
%TA.AperFunction,SMDPad,CuDef*%
%ADD28R,1.000000X1.000000*%
%TD*%
%TA.AperFunction,SMDPad,CuDef*%
%ADD29RoundRect,0.150000X0.250000X-0.150000X0.250000X0.150000X-0.250000X0.150000X-0.250000X-0.150000X0*%
%TD*%
%TA.AperFunction,SMDPad,CuDef*%
%ADD30R,2.000000X2.000000*%
%TD*%
%TA.AperFunction,SMDPad,CuDef*%
%ADD31RoundRect,0.150000X-0.250000X0.150000X-0.250000X-0.150000X0.250000X-0.150000X0.250000X0.150000X0*%
%TD*%
%TA.AperFunction,SMDPad,CuDef*%
%ADD32R,1.000000X2.700000*%
%TD*%
%TA.AperFunction,SMDPad,CuDef*%
%ADD33R,0.600000X1.700000*%
%TD*%
%TA.AperFunction,SMDPad,CuDef*%
%ADD34R,2.200000X1.200000*%
%TD*%
%TA.AperFunction,SMDPad,CuDef*%
%ADD35R,3.050000X2.750000*%
%TD*%
%TA.AperFunction,SMDPad,CuDef*%
%ADD36R,6.400000X5.800000*%
%TD*%
%TA.AperFunction,SMDPad,CuDef*%
%ADD37R,0.600000X0.800000*%
%TD*%
%TA.AperFunction,SMDPad,CuDef*%
%ADD38R,3.500000X1.780000*%
%TD*%
%TA.AperFunction,SMDPad,CuDef*%
%ADD39FreePoly0,0.000000*%
%TD*%
%TA.AperFunction,SMDPad,CuDef*%
%ADD40FreePoly1,0.000000*%
%TD*%
%TA.AperFunction,SMDPad,CuDef*%
%ADD41R,0.600000X0.500000*%
%TD*%
%TA.AperFunction,SMDPad,CuDef*%
%ADD42R,0.800000X0.600000*%
%TD*%
%TA.AperFunction,ViaPad*%
%ADD43C,0.600000*%
%TD*%
%TA.AperFunction,ViaPad*%
%ADD44C,1.000000*%
%TD*%
%TA.AperFunction,Conductor*%
%ADD45C,0.200000*%
%TD*%
%TA.AperFunction,Conductor*%
%ADD46C,0.250000*%
%TD*%
%TA.AperFunction,Conductor*%
%ADD47C,0.500000*%
%TD*%
G04 APERTURE END LIST*
%TA.AperFunction,EtchedComponent*%
%TO.C,NT1*%
G36*
X119500000Y-101950000D02*
G01*
X118500000Y-101950000D01*
X118500000Y-101450000D01*
X119500000Y-101450000D01*
X119500000Y-101950000D01*
G37*
%TD.AperFunction*%
%TD*%
D10*
%TO.P,SW1,1,1*%
%TO.N,/ESP-Wifi/GPIO0*%
X139545000Y-110700000D03*
%TO.P,SW1,2,2*%
%TO.N,GND*%
X141695000Y-110700000D03*
%TO.P,SW1,3,3*%
%TO.N,/ESP-Wifi/GPIO0*%
X139545000Y-115200000D03*
%TO.P,SW1,4,4*%
%TO.N,GND*%
X141695000Y-115200000D03*
%TD*%
D11*
%TO.P,SW5,1,1*%
%TO.N,/ESP-Wifi/EN*%
X145200000Y-115250000D03*
%TO.P,SW5,2,2*%
%TO.N,GND*%
X143050000Y-115250000D03*
%TO.P,SW5,3,3*%
%TO.N,/ESP-Wifi/EN*%
X145200000Y-110750000D03*
%TO.P,SW5,4,4*%
%TO.N,GND*%
X143050000Y-110750000D03*
%TD*%
D12*
%TO.P,U5,*%
%TO.N,*%
X106300000Y-78800000D03*
X117300000Y-78800000D03*
D13*
%TO.P,U5,1,-*%
%TO.N,GND*%
X114300000Y-88800000D03*
D14*
%TO.P,U5,2,+*%
%TO.N,Net-(U5-+)*%
X109300000Y-88800000D03*
%TD*%
D15*
%TO.P,SW4,*%
%TO.N,*%
X172505000Y-82025000D03*
X172505000Y-76945000D03*
%TO.P,SW4,1,A*%
%TO.N,Net-(D10-K)*%
X167425000Y-82025000D03*
%TO.P,SW4,2,B*%
%TO.N,GNDREF*%
X167425000Y-76945000D03*
%TD*%
D16*
%TO.P,U7,1*%
%TO.N,unconnected-(U7-Pad1)*%
X153250000Y-77850000D03*
%TD*%
D17*
%TO.P,SW7,*%
%TO.N,*%
X165950000Y-114400000D03*
D18*
X165950000Y-109900000D03*
%TD*%
D19*
%TO.P,U1,S1,SHIELD*%
%TO.N,GND*%
X130955000Y-82880000D03*
D20*
X130955000Y-78700000D03*
D19*
X122315000Y-82880000D03*
D20*
X122315000Y-78700000D03*
%TD*%
D16*
%TO.P,U8,1*%
%TO.N,unconnected-(U8-Pad1)*%
X153250000Y-121900000D03*
%TD*%
%TO.P,U6,1*%
%TO.N,unconnected-(U6-Pad1)*%
X103100000Y-121900000D03*
%TD*%
%TO.P,U9,1*%
%TO.N,unconnected-(U9-Pad1)*%
X102520000Y-77858175D03*
%TD*%
D21*
%TO.P,SP1,1,+*%
%TO.N,Net-(SP1-+)*%
X123125000Y-112325000D03*
%TO.P,SP1,2,-*%
%TO.N,Net-(Q3-D)*%
X130725000Y-112325000D03*
%TD*%
D22*
%TO.P,U12,*%
%TO.N,*%
X102450000Y-82613175D03*
X102450000Y-111823175D03*
X153250000Y-82613175D03*
X153250000Y-111823175D03*
D23*
%TO.P,U12,1,LITE*%
%TO.N,Net-(U12-LITE)*%
X102450000Y-85788175D03*
%TO.P,U12,2,MISO*%
%TO.N,/MISO0*%
X102450000Y-88333175D03*
%TO.P,U12,3,SCK*%
%TO.N,/SCK0*%
X102450000Y-90873175D03*
%TO.P,U12,4,MOSI*%
%TO.N,/MOSI0*%
X102450000Y-93413175D03*
%TO.P,U12,5,TFT_CS*%
%TO.N,/TFT_CS*%
X102450000Y-95953175D03*
%TO.P,U12,6,SD_CS*%
%TO.N,/SD_CS*%
X102450000Y-98493175D03*
%TO.P,U12,7,D/C*%
%TO.N,/TFT_DC*%
X102450000Y-101033175D03*
%TO.P,U12,8,~{RESET}*%
%TO.N,/peripherals/~{TFT_RESET}*%
X102450000Y-103573175D03*
%TO.P,U12,9,VCC*%
%TO.N,+3V3*%
X102450000Y-106113175D03*
%TO.P,U12,10,GND*%
%TO.N,GND*%
X102450000Y-108653175D03*
%TD*%
D24*
%TO.P,Q12,1,G*%
%TO.N,Net-(Q12-G)*%
X150350000Y-104145000D03*
%TO.P,Q12,2,S*%
%TO.N,GNDREF*%
X149050000Y-104145000D03*
%TO.P,Q12,3,D*%
%TO.N,Net-(Q12-D)*%
X149700000Y-102675000D03*
%TD*%
%TO.P,Q21,1,G*%
%TO.N,Net-(Q21-G)*%
X168750000Y-90370000D03*
%TO.P,Q21,2,S*%
%TO.N,GNDREF*%
X167450000Y-90370000D03*
%TO.P,Q21,3,D*%
%TO.N,Net-(Q21-D)*%
X168100000Y-88900000D03*
%TD*%
D25*
%TO.P,NT1,1*%
%TO.N,GNDD*%
X119500000Y-101700000D03*
%TO.P,NT1,2*%
%TO.N,GND*%
X118500000Y-101700000D03*
%TD*%
D26*
%TO.P,R43,1*%
%TO.N,Net-(Q12-D)*%
X151625000Y-102625000D03*
%TO.P,R43,2*%
%TO.N,Net-(Q14-Pad2)*%
X153325000Y-102625000D03*
%TD*%
D24*
%TO.P,Q10,1,G*%
%TO.N,Net-(Q10-G)*%
X145400000Y-94250000D03*
%TO.P,Q10,2,S*%
%TO.N,GNDREF*%
X146700000Y-94250000D03*
%TO.P,Q10,3,D*%
%TO.N,Net-(Q10-D)*%
X146050000Y-95720000D03*
%TD*%
D27*
%TO.P,R77,1*%
%TO.N,+3V3*%
X164501748Y-107000000D03*
%TO.P,R77,2*%
%TO.N,Net-(R76-Pad2)*%
X162801748Y-107000000D03*
%TD*%
D28*
%TO.P,TP6,1*%
%TO.N,Net-(U16-CS0)*%
X147300000Y-107575000D03*
%TD*%
D29*
%TO.P,R51,1*%
%TO.N,Net-(SP1-+)*%
X125725000Y-110125000D03*
%TO.P,R51,2*%
%TO.N,+3V3*%
X125725000Y-108425000D03*
%TD*%
D27*
%TO.P,R26,1*%
%TO.N,Net-(Q2-G)*%
X144055000Y-102660000D03*
%TO.P,R26,2*%
%TO.N,/switch_control/CHAN_0*%
X142355000Y-102660000D03*
%TD*%
D26*
%TO.P,R68,1*%
%TO.N,Net-(Q29-D)*%
X170145000Y-84900000D03*
%TO.P,R68,2*%
%TO.N,Net-(Q31-Pad2)*%
X171845000Y-84900000D03*
%TD*%
D24*
%TO.P,Q29,1,G*%
%TO.N,Net-(Q29-G)*%
X168800000Y-86410000D03*
%TO.P,Q29,2,S*%
%TO.N,GNDREF*%
X167500000Y-86410000D03*
%TO.P,Q29,3,D*%
%TO.N,Net-(Q29-D)*%
X168150000Y-84940000D03*
%TD*%
%TO.P,Q25,1,G*%
%TO.N,Net-(Q25-G)*%
X145425000Y-86130000D03*
%TO.P,Q25,2,S*%
%TO.N,GNDREF*%
X146725000Y-86130000D03*
%TO.P,Q25,3,D*%
%TO.N,Net-(Q25-D)*%
X146075000Y-87600000D03*
%TD*%
D29*
%TO.P,R69,1*%
%TO.N,GNDREF*%
X141085000Y-91715000D03*
%TO.P,R69,2*%
%TO.N,/switch_control/CHAN_5*%
X141085000Y-90015000D03*
%TD*%
D24*
%TO.P,Q8,1,G*%
%TO.N,Net-(Q8-G)*%
X159725000Y-102285000D03*
%TO.P,Q8,2,S*%
%TO.N,GNDREF*%
X158425000Y-102285000D03*
%TO.P,Q8,3,D*%
%TO.N,Net-(Q8-D)*%
X159075000Y-100815000D03*
%TD*%
D26*
%TO.P,R78,1*%
%TO.N,Net-(R75-Pad1)*%
X167175000Y-105550000D03*
%TO.P,R78,2*%
%TO.N,+3V3*%
X168875000Y-105550000D03*
%TD*%
D24*
%TO.P,Q19,1,G*%
%TO.N,Net-(Q19-G)*%
X168525000Y-98495000D03*
%TO.P,Q19,2,S*%
%TO.N,GNDREF*%
X167225000Y-98495000D03*
%TO.P,Q19,3,D*%
%TO.N,Net-(Q19-D)*%
X167875000Y-97025000D03*
%TD*%
D30*
%TO.P,TP2,1*%
%TO.N,/TFT_CS*%
X106020000Y-96358175D03*
%TD*%
D31*
%TO.P,R63,1*%
%TO.N,GNDREF*%
X173125000Y-92770000D03*
%TO.P,R63,2*%
%TO.N,/switch_control/CHAN_5*%
X173125000Y-94470000D03*
%TD*%
%TO.P,R22,1*%
%TO.N,+3V3*%
X146575000Y-113775000D03*
%TO.P,R22,2*%
%TO.N,/ESP-Wifi/EN*%
X146575000Y-115475000D03*
%TD*%
D24*
%TO.P,Q2,1,G*%
%TO.N,Net-(Q2-G)*%
X145380000Y-102865000D03*
%TO.P,Q2,2,S*%
%TO.N,GNDREF*%
X146680000Y-102865000D03*
%TO.P,Q2,3,D*%
%TO.N,Net-(Q2-D)*%
X146030000Y-104335000D03*
%TD*%
D27*
%TO.P,R32,1*%
%TO.N,Net-(Q6-D)*%
X152125000Y-99580000D03*
%TO.P,R32,2*%
%TO.N,Net-(Q7-Pad2)*%
X150425000Y-99580000D03*
%TD*%
D32*
%TO.P,J1,*%
%TO.N,*%
X114375000Y-123037500D03*
X106925000Y-123037500D03*
D33*
%TO.P,J1,1,1*%
%TO.N,GND*%
X112525000Y-119837500D03*
%TO.P,J1,2,2*%
%TO.N,/RX*%
X111275000Y-119837500D03*
%TO.P,J1,3,3*%
%TO.N,/TX*%
X110025000Y-119837500D03*
%TO.P,J1,4,4*%
%TO.N,+3V3*%
X108775000Y-119837500D03*
%TD*%
D27*
%TO.P,R73,1*%
%TO.N,Net-(Q32-D)*%
X144085000Y-91665000D03*
%TO.P,R73,2*%
%TO.N,Net-(Q30-Pad2)*%
X142385000Y-91665000D03*
%TD*%
D31*
%TO.P,R33,1*%
%TO.N,GNDREF*%
X164100000Y-100750000D03*
%TO.P,R33,2*%
%TO.N,/switch_control/CHAN_2*%
X164100000Y-102450000D03*
%TD*%
D26*
%TO.P,R54,1*%
%TO.N,Net-(Q21-G)*%
X170050000Y-90425000D03*
%TO.P,R54,2*%
%TO.N,/switch_control/CHAN_6*%
X171750000Y-90425000D03*
%TD*%
D31*
%TO.P,R8,1*%
%TO.N,+3V3*%
X124350000Y-108425000D03*
%TO.P,R8,2*%
%TO.N,Net-(SP1-+)*%
X124350000Y-110125000D03*
%TD*%
D27*
%TO.P,R71,1*%
%TO.N,Net-(Q32-G)*%
X144085000Y-90115000D03*
%TO.P,R71,2*%
%TO.N,/switch_control/CHAN_5*%
X142385000Y-90115000D03*
%TD*%
D24*
%TO.P,Q32,1,G*%
%TO.N,Net-(Q32-G)*%
X145360000Y-90155000D03*
%TO.P,Q32,2,S*%
%TO.N,GNDREF*%
X146660000Y-90155000D03*
%TO.P,Q32,3,D*%
%TO.N,Net-(Q32-D)*%
X146010000Y-91625000D03*
%TD*%
D29*
%TO.P,R19,1*%
%TO.N,GNDREF*%
X141125000Y-99645000D03*
%TO.P,R19,2*%
%TO.N,/switch_control/CHAN_1*%
X141125000Y-97945000D03*
%TD*%
%TO.P,R58,1*%
%TO.N,GNDREF*%
X141062500Y-87600000D03*
%TO.P,R58,2*%
%TO.N,/switch_control/CHAN_6*%
X141062500Y-85900000D03*
%TD*%
D26*
%TO.P,R34,1*%
%TO.N,Net-(Q8-G)*%
X161050000Y-102350000D03*
%TO.P,R34,2*%
%TO.N,/switch_control/CHAN_2*%
X162750000Y-102350000D03*
%TD*%
D31*
%TO.P,R39,1*%
%TO.N,GNDREF*%
X154625000Y-102600000D03*
%TO.P,R39,2*%
%TO.N,/switch_control/CHAN_1*%
X154625000Y-104300000D03*
%TD*%
D34*
%TO.P,Q5,1,G*%
%TO.N,GND*%
X111640000Y-85723175D03*
D35*
%TO.P,Q5,2,S*%
%TO.N,+BATT*%
X116265000Y-81918175D03*
X116265000Y-84968175D03*
D36*
X117940000Y-83443175D03*
D35*
X119615000Y-81918175D03*
X119615000Y-84968175D03*
D34*
%TO.P,Q5,3,D*%
%TO.N,Net-(Q5-D)*%
X111640000Y-81163175D03*
%TD*%
D26*
%TO.P,R41,1*%
%TO.N,Net-(Q12-G)*%
X151625000Y-104200000D03*
%TO.P,R41,2*%
%TO.N,/switch_control/CHAN_1*%
X153325000Y-104200000D03*
%TD*%
D27*
%TO.P,R31,1*%
%TO.N,Net-(Q6-G)*%
X152150000Y-98030000D03*
%TO.P,R31,2*%
%TO.N,/switch_control/CHAN_0*%
X150450000Y-98030000D03*
%TD*%
%TO.P,R49,1*%
%TO.N,Net-(Q16-D)*%
X152075000Y-95795000D03*
%TO.P,R49,2*%
%TO.N,Net-(Q18-Pad2)*%
X150375000Y-95795000D03*
%TD*%
%TO.P,R59,1*%
%TO.N,Net-(Q24-G)*%
X152260000Y-90155000D03*
%TO.P,R59,2*%
%TO.N,/switch_control/CHAN_4*%
X150560000Y-90155000D03*
%TD*%
D24*
%TO.P,Q6,1,G*%
%TO.N,Net-(Q6-G)*%
X153450000Y-98070000D03*
%TO.P,Q6,2,S*%
%TO.N,GNDREF*%
X154750000Y-98070000D03*
%TO.P,Q6,3,D*%
%TO.N,Net-(Q6-D)*%
X154100000Y-99540000D03*
%TD*%
D29*
%TO.P,R79,1*%
%TO.N,/ENC_BUTTON*%
X168450000Y-119625000D03*
%TO.P,R79,2*%
%TO.N,+3V3*%
X168450000Y-117925000D03*
%TD*%
D27*
%TO.P,R60,1*%
%TO.N,Net-(Q25-G)*%
X144100000Y-86025000D03*
%TO.P,R60,2*%
%TO.N,/switch_control/CHAN_6*%
X142400000Y-86025000D03*
%TD*%
D28*
%TO.P,TP5,1*%
%TO.N,Net-(U16-SCLK)*%
X137300000Y-107550000D03*
%TD*%
D26*
%TO.P,R44,1*%
%TO.N,Net-(Q13-D)*%
X170000000Y-101010000D03*
%TO.P,R44,2*%
%TO.N,Net-(Q15-Pad2)*%
X171700000Y-101010000D03*
%TD*%
D29*
%TO.P,R57,1*%
%TO.N,GNDREF*%
X149235000Y-91755000D03*
%TO.P,R57,2*%
%TO.N,/switch_control/CHAN_4*%
X149235000Y-90055000D03*
%TD*%
D26*
%TO.P,R42,1*%
%TO.N,Net-(Q13-G)*%
X170000000Y-102535000D03*
%TO.P,R42,2*%
%TO.N,/switch_control/CHAN_3*%
X171700000Y-102535000D03*
%TD*%
D27*
%TO.P,R74,1*%
%TO.N,Net-(Q33-D)*%
X152167500Y-87600000D03*
%TO.P,R74,2*%
%TO.N,Net-(Q34-Pad2)*%
X150467500Y-87600000D03*
%TD*%
%TO.P,R47,1*%
%TO.N,Net-(Q16-G)*%
X152075000Y-94245000D03*
%TO.P,R47,2*%
%TO.N,/switch_control/CHAN_3*%
X150375000Y-94245000D03*
%TD*%
D24*
%TO.P,Q16,1,G*%
%TO.N,Net-(Q16-G)*%
X153375000Y-94285000D03*
%TO.P,Q16,2,S*%
%TO.N,GNDREF*%
X154675000Y-94285000D03*
%TO.P,Q16,3,D*%
%TO.N,Net-(Q16-D)*%
X154025000Y-95755000D03*
%TD*%
D28*
%TO.P,TP7,1*%
%TO.N,Net-(U16-MOSI)*%
X139305000Y-107600000D03*
%TD*%
%TO.P,TP10,1*%
%TO.N,Net-(U16-IO5)*%
X134725000Y-119075000D03*
%TD*%
D37*
%TO.P,C27,1*%
%TO.N,/ROT_ENC_1*%
X162801748Y-105575000D03*
%TO.P,C27,2*%
%TO.N,GND*%
X164501748Y-105575000D03*
%TD*%
D24*
%TO.P,Q24,1,G*%
%TO.N,Net-(Q24-G)*%
X153560000Y-90170000D03*
%TO.P,Q24,2,S*%
%TO.N,GNDREF*%
X154860000Y-90170000D03*
%TO.P,Q24,3,D*%
%TO.N,Net-(Q24-D)*%
X154210000Y-91640000D03*
%TD*%
D29*
%TO.P,R70,1*%
%TO.N,GNDREF*%
X149092500Y-87650000D03*
%TO.P,R70,2*%
%TO.N,/switch_control/CHAN_7*%
X149092500Y-85950000D03*
%TD*%
D27*
%TO.P,R61,1*%
%TO.N,Net-(Q24-D)*%
X152235000Y-91680000D03*
%TO.P,R61,2*%
%TO.N,Net-(Q22-Pad2)*%
X150535000Y-91680000D03*
%TD*%
%TO.P,R9,1*%
%TO.N,/SDA0*%
X126000000Y-116450000D03*
%TO.P,R9,2*%
%TO.N,+3V3*%
X124300000Y-116450000D03*
%TD*%
D28*
%TO.P,TP13,1*%
%TO.N,Net-(U16-RESET)*%
X149750000Y-123100000D03*
%TD*%
D26*
%TO.P,R56,1*%
%TO.N,Net-(Q21-D)*%
X170050000Y-88850000D03*
%TO.P,R56,2*%
%TO.N,Net-(Q23-Pad2)*%
X171750000Y-88850000D03*
%TD*%
D29*
%TO.P,R45,1*%
%TO.N,GNDREF*%
X149000000Y-95845000D03*
%TO.P,R45,2*%
%TO.N,/switch_control/CHAN_3*%
X149000000Y-94145000D03*
%TD*%
D26*
%TO.P,R66,1*%
%TO.N,Net-(Q29-G)*%
X170145000Y-86450000D03*
%TO.P,R66,2*%
%TO.N,/switch_control/CHAN_7*%
X171845000Y-86450000D03*
%TD*%
D27*
%TO.P,R72,1*%
%TO.N,Net-(Q33-G)*%
X152142500Y-86050000D03*
%TO.P,R72,2*%
%TO.N,/switch_control/CHAN_7*%
X150442500Y-86050000D03*
%TD*%
%TO.P,R5,1*%
%TO.N,Net-(Q2-D)*%
X144055000Y-104385000D03*
%TO.P,R5,2*%
%TO.N,Net-(Q1-Pad2)*%
X142355000Y-104385000D03*
%TD*%
D26*
%TO.P,R65,1*%
%TO.N,Net-(Q28-G)*%
X170038690Y-94480000D03*
%TO.P,R65,2*%
%TO.N,/switch_control/CHAN_5*%
X171738690Y-94480000D03*
%TD*%
D24*
%TO.P,Q28,1,G*%
%TO.N,Net-(Q28-G)*%
X168738690Y-94425000D03*
%TO.P,Q28,2,S*%
%TO.N,GNDREF*%
X167438690Y-94425000D03*
%TO.P,Q28,3,D*%
%TO.N,Net-(Q28-D)*%
X168088690Y-92955000D03*
%TD*%
D29*
%TO.P,R36,1*%
%TO.N,GNDREF*%
X140975000Y-95810000D03*
%TO.P,R36,2*%
%TO.N,/switch_control/CHAN_2*%
X140975000Y-94110000D03*
%TD*%
D24*
%TO.P,Q4,1,G*%
%TO.N,Net-(Q4-G)*%
X145500000Y-98110000D03*
%TO.P,Q4,2,S*%
%TO.N,GNDREF*%
X146800000Y-98110000D03*
%TO.P,Q4,3,D*%
%TO.N,Net-(Q4-D)*%
X146150000Y-99580000D03*
%TD*%
D27*
%TO.P,R62,1*%
%TO.N,Net-(Q25-D)*%
X144100000Y-87600000D03*
%TO.P,R62,2*%
%TO.N,Net-(Q27-Pad2)*%
X142400000Y-87600000D03*
%TD*%
D38*
%TO.P,F1,1*%
%TO.N,Net-(U5-+)*%
X107895000Y-86395675D03*
%TO.P,F1,2*%
%TO.N,Net-(Q5-D)*%
X107895000Y-81165675D03*
%TD*%
D31*
%TO.P,R76,1*%
%TO.N,/ROT_ENC_1*%
X161501748Y-105400000D03*
%TO.P,R76,2*%
%TO.N,Net-(R76-Pad2)*%
X161501748Y-107100000D03*
%TD*%
D28*
%TO.P,TP9,1*%
%TO.N,Net-(U16-IO12)*%
X149800000Y-113075000D03*
%TD*%
D26*
%TO.P,R53,1*%
%TO.N,Net-(Q19-G)*%
X169950000Y-98535000D03*
%TO.P,R53,2*%
%TO.N,/switch_control/CHAN_4*%
X171650000Y-98535000D03*
%TD*%
D32*
%TO.P,J3,*%
%TO.N,*%
X123550000Y-123075000D03*
X116100000Y-123075000D03*
D33*
%TO.P,J3,1,1*%
%TO.N,+3V3*%
X121700000Y-119875000D03*
%TO.P,J3,2,2*%
%TO.N,/A_IN_2*%
X120450000Y-119875000D03*
%TO.P,J3,3,3*%
%TO.N,/A_IN_3*%
X119200000Y-119875000D03*
%TO.P,J3,4,4*%
%TO.N,GND*%
X117950000Y-119875000D03*
%TD*%
D26*
%TO.P,R55,1*%
%TO.N,Net-(Q19-D)*%
X169950000Y-96960000D03*
%TO.P,R55,2*%
%TO.N,Net-(Q20-Pad2)*%
X171650000Y-96960000D03*
%TD*%
D24*
%TO.P,Q33,1,G*%
%TO.N,Net-(Q33-G)*%
X153467500Y-85980000D03*
%TO.P,Q33,2,S*%
%TO.N,GNDREF*%
X154767500Y-85980000D03*
%TO.P,Q33,3,D*%
%TO.N,Net-(Q33-D)*%
X154117500Y-87450000D03*
%TD*%
D27*
%TO.P,R21,1*%
%TO.N,/SCL1*%
X125990000Y-117850000D03*
%TO.P,R21,2*%
%TO.N,+3V3*%
X124290000Y-117850000D03*
%TD*%
D26*
%TO.P,R35,1*%
%TO.N,Net-(Q8-D)*%
X161050000Y-100875000D03*
%TO.P,R35,2*%
%TO.N,Net-(Q9-Pad2)*%
X162750000Y-100875000D03*
%TD*%
D27*
%TO.P,R48,1*%
%TO.N,Net-(Q4-D)*%
X144150000Y-99620000D03*
%TO.P,R48,2*%
%TO.N,Net-(Q17-Pad2)*%
X142450000Y-99620000D03*
%TD*%
D31*
%TO.P,R50,1*%
%TO.N,GNDREF*%
X173050000Y-96885000D03*
%TO.P,R50,2*%
%TO.N,/switch_control/CHAN_4*%
X173050000Y-98585000D03*
%TD*%
D39*
%TO.P,JP1,1,1*%
%TO.N,Net-(U12-LITE)*%
X105945000Y-89158175D03*
D40*
%TO.P,JP1,2,2*%
%TO.N,+3V3*%
X107245000Y-89158175D03*
%TD*%
D29*
%TO.P,R30,1*%
%TO.N,GNDREF*%
X149050000Y-99685000D03*
%TO.P,R30,2*%
%TO.N,/switch_control/CHAN_0*%
X149050000Y-97985000D03*
%TD*%
D31*
%TO.P,R52,1*%
%TO.N,GNDREF*%
X173150000Y-88835000D03*
%TO.P,R52,2*%
%TO.N,/switch_control/CHAN_6*%
X173150000Y-90535000D03*
%TD*%
D28*
%TO.P,TP11,1*%
%TO.N,Net-(U16-IO9)*%
X143275000Y-107575000D03*
%TD*%
D32*
%TO.P,J7,*%
%TO.N,*%
X146125000Y-123050000D03*
X138675000Y-123050000D03*
D33*
%TO.P,J7,1,1*%
%TO.N,Net-(J7-Pad1)*%
X144275000Y-119850000D03*
%TO.P,J7,2,2*%
%TO.N,/RXD*%
X143025000Y-119850000D03*
%TO.P,J7,3,3*%
%TO.N,/TXD*%
X141775000Y-119850000D03*
%TO.P,J7,4,4*%
%TO.N,GND*%
X140525000Y-119850000D03*
%TD*%
D24*
%TO.P,Q13,1,G*%
%TO.N,Net-(Q13-G)*%
X168700000Y-102495000D03*
%TO.P,Q13,2,S*%
%TO.N,GNDREF*%
X167400000Y-102495000D03*
%TO.P,Q13,3,D*%
%TO.N,Net-(Q13-D)*%
X168050000Y-101025000D03*
%TD*%
D41*
%TO.P,C35,1*%
%TO.N,/ESP-Wifi/EN*%
X146500000Y-111525000D03*
%TO.P,C35,2*%
%TO.N,GND*%
X146500000Y-112625000D03*
%TD*%
D26*
%TO.P,R12,1*%
%TO.N,/SDA1*%
X127330000Y-117870000D03*
%TO.P,R12,2*%
%TO.N,+3V3*%
X129030000Y-117870000D03*
%TD*%
%TO.P,R67,1*%
%TO.N,Net-(Q28-D)*%
X170038690Y-92905000D03*
%TO.P,R67,2*%
%TO.N,Net-(Q26-Pad2)*%
X171738690Y-92905000D03*
%TD*%
D31*
%TO.P,R40,1*%
%TO.N,GNDREF*%
X173050000Y-100935000D03*
%TO.P,R40,2*%
%TO.N,/switch_control/CHAN_3*%
X173050000Y-102635000D03*
%TD*%
D29*
%TO.P,R3,1*%
%TO.N,GNDREF*%
X140960000Y-104260000D03*
%TO.P,R3,2*%
%TO.N,/switch_control/CHAN_0*%
X140960000Y-102560000D03*
%TD*%
D31*
%TO.P,R64,1*%
%TO.N,GNDREF*%
X173145000Y-84800000D03*
%TO.P,R64,2*%
%TO.N,/switch_control/CHAN_7*%
X173145000Y-86500000D03*
%TD*%
D28*
%TO.P,TP12,1*%
%TO.N,Net-(U16-IO10)*%
X141305000Y-107600000D03*
%TD*%
%TO.P,TP4,1*%
%TO.N,Net-(J7-Pad1)*%
X144275000Y-118100000D03*
%TD*%
D42*
%TO.P,C26,1*%
%TO.N,/ROT_ENC_0*%
X165875000Y-107125000D03*
%TO.P,C26,2*%
%TO.N,GND*%
X165875000Y-105425000D03*
%TD*%
D32*
%TO.P,J8,*%
%TO.N,*%
X132650000Y-123050000D03*
X125200000Y-123050000D03*
D33*
%TO.P,J8,1,1*%
%TO.N,GND*%
X130800000Y-119850000D03*
%TO.P,J8,2,2*%
%TO.N,/SCL0*%
X129550000Y-119850000D03*
%TO.P,J8,3,3*%
%TO.N,/SDA0*%
X128300000Y-119850000D03*
%TO.P,J8,4,4*%
%TO.N,+3V3*%
X127050000Y-119850000D03*
%TD*%
D27*
%TO.P,R75,1*%
%TO.N,Net-(R75-Pad1)*%
X168900000Y-106975000D03*
%TO.P,R75,2*%
%TO.N,/ROT_ENC_0*%
X167200000Y-106975000D03*
%TD*%
%TO.P,R37,1*%
%TO.N,Net-(Q10-G)*%
X144050000Y-94185000D03*
%TO.P,R37,2*%
%TO.N,/switch_control/CHAN_2*%
X142350000Y-94185000D03*
%TD*%
D26*
%TO.P,R10,1*%
%TO.N,/SCL0*%
X127325000Y-116450000D03*
%TO.P,R10,2*%
%TO.N,+3V3*%
X129025000Y-116450000D03*
%TD*%
D28*
%TO.P,TP8,1*%
%TO.N,Net-(U16-MISO)*%
X145300000Y-107600000D03*
%TD*%
D27*
%TO.P,R38,1*%
%TO.N,Net-(Q10-D)*%
X144050000Y-95760000D03*
%TO.P,R38,2*%
%TO.N,Net-(Q11-Pad2)*%
X142350000Y-95760000D03*
%TD*%
D28*
%TO.P,TP1,1*%
%TO.N,Net-(U16-IO13)*%
X149775000Y-111075000D03*
%TD*%
D27*
%TO.P,R46,1*%
%TO.N,Net-(Q4-G)*%
X144175000Y-98045000D03*
%TO.P,R46,2*%
%TO.N,/switch_control/CHAN_1*%
X142475000Y-98045000D03*
%TD*%
D43*
%TO.N,/peripherals/~{TFT_RESET}*%
X105625000Y-123250000D03*
%TO.N,/regulator/SYS_PWR*%
X109425000Y-100750000D03*
X108725000Y-94100000D03*
%TO.N,+3V3*%
X106550000Y-90325000D03*
X131850000Y-92500000D03*
X109850000Y-112750000D03*
X129050000Y-116550000D03*
X116000000Y-99140000D03*
X122475000Y-119875000D03*
X116329500Y-102850000D03*
X156500000Y-111900000D03*
X131775000Y-119850000D03*
X108775000Y-120975000D03*
X124320000Y-118825000D03*
X111775000Y-91650000D03*
X125675000Y-107550000D03*
X112625000Y-122075000D03*
X126304500Y-119450000D03*
X121875000Y-111175000D03*
X113550000Y-90800000D03*
X120500000Y-93150000D03*
X125525000Y-89325000D03*
X118725000Y-113700000D03*
X106425000Y-91150000D03*
X105650000Y-107175000D03*
X132529500Y-97530000D03*
X126079500Y-97925000D03*
X136290000Y-90030000D03*
X148350000Y-109075000D03*
X119577101Y-97928988D03*
X129550000Y-92375000D03*
X147375000Y-113775000D03*
X129130000Y-117650000D03*
%TO.N,/CAN_L*%
X115213498Y-104750000D03*
X116804500Y-119650000D03*
%TO.N,/CAN_H*%
X116275000Y-118992000D03*
X113900000Y-103835000D03*
%TO.N,/ROT_ENC_0*%
X128700224Y-95707611D03*
X133920500Y-98360000D03*
%TO.N,/ROT_ENC_1*%
X128699590Y-94978109D03*
X134450000Y-96370000D03*
D44*
%TO.N,+BATT*%
X120040000Y-81230000D03*
D43*
%TO.N,/ESP-Wifi/EN*%
X146625000Y-116400000D03*
%TO.N,/A_IN_2*%
X114600000Y-118475000D03*
%TO.N,/A_IN_3*%
X115625000Y-119475000D03*
%TO.N,Net-(D10-K)*%
X165270561Y-80979388D03*
X165650000Y-79075000D03*
%TO.N,/RX*%
X111300000Y-116550000D03*
X123450000Y-94025000D03*
%TO.N,/TX*%
X110025000Y-121000000D03*
X121638067Y-93739016D03*
X110548637Y-116500590D03*
%TO.N,/SCL1*%
X129000000Y-115475000D03*
X130860000Y-94050000D03*
X148350000Y-116025000D03*
X128490000Y-121129502D03*
%TO.N,/SDA1*%
X131740586Y-94749414D03*
X128350000Y-114540000D03*
X129720000Y-121129502D03*
%TO.N,EMG_HIGH*%
X148363498Y-104110000D03*
X145740000Y-101990000D03*
%TO.N,EMG_LOW*%
X155840000Y-90740000D03*
X155853819Y-92797760D03*
%TO.N,CHAN_0B_OUT*%
X158050000Y-96980000D03*
X154369500Y-100650000D03*
%TO.N,CHAN_1B_OUT*%
X147560000Y-99780000D03*
X153180000Y-99480500D03*
%TO.N,CHAN_3B_OUT*%
X155395242Y-95881610D03*
X157310000Y-93990000D03*
%TO.N,CHAN_4B_OUT*%
X155279500Y-92260000D03*
X158040000Y-93020000D03*
%TO.N,CHAN_5A_OUT*%
X167285586Y-92400000D03*
X164670000Y-91960000D03*
%TO.N,CHAN_6A_OUT*%
X167416488Y-88434591D03*
X164710000Y-90980000D03*
%TO.N,CHAN_7B_OUT*%
X155900000Y-88060000D03*
X156620000Y-89750000D03*
%TO.N,/SCL0*%
X131140881Y-97387946D03*
X127325000Y-117120500D03*
%TO.N,/SDA0*%
X130770500Y-98058464D03*
X126595500Y-116460000D03*
%TO.N,Net-(Q1-Pad2)*%
X141690000Y-104870000D03*
%TO.N,GNDD*%
X123025000Y-88225000D03*
X125390000Y-95110000D03*
X119350000Y-97075000D03*
X124979500Y-101159920D03*
X122168756Y-104348756D03*
X130560000Y-104310000D03*
X128143941Y-105471507D03*
X119971297Y-92621297D03*
X132940000Y-92500000D03*
X133300000Y-96840000D03*
X131350000Y-89125000D03*
%TO.N,Net-(Q7-Pad2)*%
X149859782Y-100277460D03*
%TO.N,Net-(Q9-Pad2)*%
X163225000Y-100250000D03*
%TO.N,Net-(Q11-Pad2)*%
X141850000Y-96295000D03*
%TO.N,Net-(Q14-Pad2)*%
X153725500Y-102500000D03*
%TO.N,Net-(Q15-Pad2)*%
X171525000Y-100175000D03*
%TO.N,Net-(Q17-Pad2)*%
X141966170Y-100135390D03*
%TO.N,Net-(Q18-Pad2)*%
X149866892Y-96198211D03*
%TO.N,Net-(Q20-Pad2)*%
X171425000Y-96100000D03*
%TO.N,Net-(Q22-Pad2)*%
X149978451Y-92113374D03*
%TO.N,Net-(Q23-Pad2)*%
X172390943Y-88281625D03*
%TO.N,Net-(Q26-Pad2)*%
X171424500Y-92100000D03*
%TO.N,Net-(Q27-Pad2)*%
X141857406Y-88103453D03*
%TO.N,Net-(Q30-Pad2)*%
X141850000Y-92525000D03*
%TO.N,Net-(Q31-Pad2)*%
X172323340Y-84341689D03*
%TO.N,Net-(Q34-Pad2)*%
X149922255Y-88092805D03*
%TO.N,/switch_control/CHAN_0*%
X150500000Y-97829500D03*
X143849500Y-101836297D03*
X164510000Y-86030000D03*
%TO.N,/BUZZER*%
X121096837Y-97704500D03*
X121300000Y-114125000D03*
%TO.N,/processor/CAN_CS*%
X130249518Y-101401585D03*
X120297500Y-112200000D03*
%TO.N,/processor/CAN_STBY*%
X122367051Y-106484499D03*
X128693000Y-98378000D03*
X113040000Y-105860000D03*
%TO.N,/processor/QSPI_CS*%
X132250000Y-80200000D03*
X119266571Y-92416571D03*
%TO.N,/switch_control/CHAN_1*%
X143320000Y-98070000D03*
X163709500Y-85560000D03*
X152520000Y-104720000D03*
%TO.N,/processor/CAN_RESET*%
X119725000Y-113575000D03*
X130070500Y-99125000D03*
%TO.N,/switch_control/CHAN_2*%
X140925000Y-94950000D03*
X164080000Y-86940000D03*
X162000000Y-102474500D03*
%TO.N,/switch_control/CHAN_3*%
X151175000Y-94250000D03*
X162650721Y-85680558D03*
X173050000Y-101875000D03*
%TO.N,/switch_control/CHAN_4*%
X173050000Y-97825000D03*
X161590000Y-85730000D03*
X151290000Y-90150000D03*
%TO.N,/switch_control/CHAN_6*%
X143225000Y-86025000D03*
X160150000Y-84475000D03*
X173150000Y-89634500D03*
%TO.N,/switch_control/CHAN_5*%
X173125000Y-93750000D03*
X161020000Y-84540000D03*
X143190000Y-90200000D03*
%TO.N,/switch_control/CHAN_7*%
X173100000Y-85800000D03*
X160839458Y-82595197D03*
X155925000Y-83850000D03*
%TO.N,Net-(R75-Pad1)*%
X167175000Y-105525000D03*
X168800000Y-106975000D03*
%TO.N,Net-(R76-Pad2)*%
X163525000Y-106950000D03*
%TO.N,/ENC_BUTTON*%
X168425000Y-120875000D03*
%TO.N,/~{RESET}*%
X111900068Y-118706783D03*
X129564199Y-100536974D03*
X133365233Y-90235233D03*
X138425000Y-79475000D03*
%TO.N,/TFT_CS*%
X120350000Y-97850000D03*
X104100000Y-99825000D03*
%TO.N,/SWDIO*%
X110825000Y-118529500D03*
X128755550Y-100613363D03*
%TO.N,/SWCLK*%
X108800000Y-118557998D03*
X127900001Y-100835501D03*
%TO.N,unconnected-(U7-Pad1)*%
X160334502Y-80269500D03*
%TO.N,/SCK0*%
X119014500Y-94500000D03*
%TO.N,/MOSI0*%
X119743094Y-94536398D03*
%TO.N,/MISO0*%
X103450000Y-94400000D03*
X120384567Y-95065898D03*
%TO.N,/SD_CS*%
X120100000Y-96300000D03*
%TO.N,/TFT_DC*%
X119883546Y-95595500D03*
X103800000Y-97250000D03*
%TO.N,/processor/SCK1*%
X122156337Y-98992921D03*
X113290555Y-112661976D03*
%TO.N,/processor/MOSI1*%
X113031647Y-113387573D03*
X122969124Y-99777584D03*
%TO.N,/processor/MISO1*%
X123525000Y-100250000D03*
X112675000Y-114100000D03*
%TO.N,/processor/ENC_CTL_0*%
X159924413Y-83374413D03*
X123600000Y-98378000D03*
X131975000Y-84150000D03*
X165343672Y-83130500D03*
X137706983Y-83960499D03*
%TO.N,/processor/ENC_CTL_1*%
X137209629Y-84493841D03*
X124303419Y-97777931D03*
X164096030Y-81269500D03*
X131262869Y-84689499D03*
X158825000Y-83879500D03*
%TO.N,/processor/ENC_CTL_2*%
X124925000Y-98225000D03*
X163370462Y-81345166D03*
X137715453Y-85019499D03*
X158365318Y-84595500D03*
X131900000Y-85218999D03*
%TO.N,/processor/~{Tx0RTS}*%
X122140422Y-107177906D03*
X118675000Y-105800000D03*
X129011000Y-99300000D03*
%TO.N,/processor/CAN_INT*%
X112817019Y-112107054D03*
X130627378Y-96280905D03*
X114954085Y-114363567D03*
%TO.N,/processor/~{Rx0BF}*%
X113370789Y-111577554D03*
X115475005Y-113376380D03*
X130427000Y-95579462D03*
%TO.N,Net-(U13-TXD)*%
X112750000Y-106563498D03*
X116840400Y-103718500D03*
%TO.N,GNDREF*%
X153957998Y-88350500D03*
X154700000Y-90860000D03*
X160334502Y-80999500D03*
X154450338Y-98708489D03*
X156405498Y-102275000D03*
X165860000Y-81770000D03*
X154358430Y-94919868D03*
X160330000Y-79050000D03*
%TO.N,SWITCHING_3V3*%
X151280000Y-105054500D03*
X172800000Y-83150000D03*
X151499606Y-89450207D03*
X165950000Y-83650000D03*
X163200000Y-79150000D03*
X151581787Y-97379500D03*
X148025000Y-83275000D03*
X151242000Y-86225000D03*
X164750000Y-81828102D03*
X148175000Y-86125000D03*
X147275000Y-76225000D03*
X151677149Y-93394649D03*
%TO.N,/processor/A_IN_2_PIN*%
X128699947Y-94238519D03*
X113900399Y-115417253D03*
%TO.N,/processor/A_IN_3_PIN*%
X113371326Y-115946326D03*
X128739144Y-93510070D03*
%TO.N,GND*%
X111750000Y-93625000D03*
X165875000Y-105450000D03*
X143925000Y-110850000D03*
X114875000Y-102625000D03*
X117375000Y-118000000D03*
X140525000Y-118450000D03*
X143850000Y-115225000D03*
X135675000Y-93475000D03*
X139275000Y-77225000D03*
X108750000Y-112975000D03*
X113445498Y-122475000D03*
X104850000Y-91125000D03*
X139475000Y-81000000D03*
X105625000Y-102300000D03*
X112700000Y-97750000D03*
X117875000Y-102375000D03*
X107525000Y-121100000D03*
X105650000Y-109325000D03*
X113041195Y-120594842D03*
X110425000Y-121725000D03*
X111100000Y-98625000D03*
X113225000Y-110675000D03*
X152425000Y-118575000D03*
X117350000Y-116500000D03*
D44*
X118425000Y-101700000D03*
D43*
X108550000Y-101550000D03*
X126304500Y-120475000D03*
X116825000Y-96984500D03*
X136825000Y-76227500D03*
X108275000Y-102525000D03*
X120750000Y-105200000D03*
X147250000Y-112600000D03*
X131000000Y-121129502D03*
X110850000Y-91150000D03*
X112550000Y-103025000D03*
X136350000Y-109075000D03*
X137019500Y-86575000D03*
X107150000Y-108900000D03*
X111525000Y-101775000D03*
X111550000Y-104675000D03*
X109326502Y-110450000D03*
X156475000Y-111075000D03*
X151775000Y-107375000D03*
X117950000Y-119750000D03*
X134150000Y-76202500D03*
X107075000Y-107525000D03*
%TO.N,/RXD*%
X143000000Y-120400000D03*
%TO.N,/TXD*%
X141775000Y-121500000D03*
%TO.N,/ESP-Wifi/GPIO0*%
X138850000Y-115150000D03*
%TO.N,Net-(U16-IO13)*%
X149775000Y-111075000D03*
%TO.N,Net-(U16-SCLK)*%
X137300000Y-107550000D03*
%TO.N,Net-(U16-CS0)*%
X147300000Y-107575000D03*
%TO.N,Net-(U16-MOSI)*%
X139250000Y-107625000D03*
%TO.N,Net-(U16-MISO)*%
X145275000Y-107575000D03*
%TO.N,Net-(U16-IO12)*%
X149800000Y-113075000D03*
%TO.N,Net-(U16-IO5)*%
X134725000Y-119075000D03*
%TO.N,Net-(U16-IO9)*%
X143250000Y-107575000D03*
%TO.N,Net-(U16-IO10)*%
X141275000Y-107525000D03*
%TO.N,Net-(U16-RESET)*%
X149750000Y-123100000D03*
%TO.N,/ESP-Wifi/ESP_INT*%
X127925000Y-107600000D03*
X133075000Y-116950000D03*
X121605204Y-96504045D03*
%TD*%
D45*
%TO.N,/peripherals/~{TFT_RESET}*%
X104430000Y-117012082D02*
X104430000Y-105455000D01*
X105625000Y-118207082D02*
X104430000Y-117012082D01*
X105625000Y-123250000D02*
X105625000Y-118207082D01*
X104430000Y-105455000D02*
X102525000Y-103550000D01*
%TO.N,/regulator/SYS_PWR*%
X108725000Y-94100000D02*
X109425000Y-94800000D01*
X109425000Y-94800000D02*
X109425000Y-100750000D01*
%TO.N,+3V3*%
X124350000Y-108425000D02*
X125825000Y-108425000D01*
X168240000Y-111890000D02*
X168240000Y-117765000D01*
X129025000Y-116525000D02*
X129025000Y-116450000D01*
X107245000Y-89430000D02*
X107245000Y-89158175D01*
X126304500Y-119450000D02*
X127175000Y-119450000D01*
X125725000Y-107600000D02*
X125675000Y-107550000D01*
X108775000Y-120975000D02*
X108775000Y-119837500D01*
X127245000Y-119520000D02*
X127245000Y-119837500D01*
X121700000Y-119875000D02*
X122475000Y-119875000D01*
X168335000Y-106185000D02*
X168890000Y-105630000D01*
X124300000Y-118805000D02*
X124320000Y-118825000D01*
X168240000Y-117765000D02*
X168450000Y-117975000D01*
X156500000Y-111900000D02*
X168230000Y-111900000D01*
X106550000Y-90325000D02*
X106675000Y-90200000D01*
X129050000Y-116550000D02*
X129025000Y-116525000D01*
X106675000Y-90000000D02*
X107245000Y-89430000D01*
X168240000Y-106185000D02*
X168240000Y-111890000D01*
X165295000Y-106180000D02*
X164525000Y-106950000D01*
X129025000Y-117755000D02*
X129025000Y-117950000D01*
X125725000Y-108425000D02*
X125725000Y-107600000D01*
X124300000Y-116450000D02*
X124300000Y-117850000D01*
X168320000Y-106180000D02*
X165295000Y-106180000D01*
X168230000Y-111900000D02*
X168240000Y-111890000D01*
X124300000Y-117825000D02*
X124300000Y-118805000D01*
X127175000Y-119450000D02*
X127245000Y-119520000D01*
X106675000Y-90200000D02*
X106675000Y-90000000D01*
X129130000Y-117650000D02*
X129025000Y-117755000D01*
X146575000Y-113775000D02*
X147375000Y-113775000D01*
%TO.N,/ROT_ENC_0*%
X138638309Y-106754999D02*
X133920500Y-102037190D01*
X133920500Y-102037190D02*
X133920500Y-98360000D01*
X159161690Y-106755000D02*
X138638309Y-106754999D01*
X165875000Y-107125000D02*
X165370000Y-107630000D01*
X165370000Y-107630000D02*
X160036690Y-107630000D01*
X160036690Y-107630000D02*
X159161690Y-106755000D01*
X165875000Y-107125000D02*
X167080000Y-107125000D01*
%TO.N,/ROT_ENC_1*%
X134450000Y-96370000D02*
X134450000Y-102100000D01*
D46*
X162801748Y-105575000D02*
X161686748Y-105575000D01*
X161686748Y-105575000D02*
X161516748Y-105405000D01*
D45*
X138775000Y-106425000D02*
X160455000Y-106425000D01*
X134450000Y-102100000D02*
X138775000Y-106425000D01*
X160455000Y-106425000D02*
X161480000Y-105400000D01*
X161480000Y-105400000D02*
X161501748Y-105400000D01*
%TO.N,/ESP-Wifi/EN*%
X145200000Y-115475000D02*
X145150000Y-115425000D01*
X145700000Y-110750000D02*
X146450000Y-111500000D01*
X145200000Y-115250000D02*
X145200000Y-110925000D01*
X146575000Y-115475000D02*
X145200000Y-115475000D01*
X146575000Y-116350000D02*
X146625000Y-116400000D01*
X145200000Y-110750000D02*
X145700000Y-110750000D01*
X146575000Y-115475000D02*
X146575000Y-116350000D01*
X145200000Y-110925000D02*
X145225000Y-110900000D01*
%TO.N,/A_IN_2*%
X114600000Y-119250000D02*
X114600000Y-118475000D01*
X120450000Y-120425000D02*
X119590000Y-121285000D01*
X119590000Y-121285000D02*
X116635000Y-121285000D01*
X116635000Y-121285000D02*
X114600000Y-119250000D01*
X120450000Y-119875000D02*
X120450000Y-120425000D01*
%TO.N,/A_IN_3*%
X118670000Y-120955000D02*
X117105000Y-120955000D01*
X119200000Y-120425000D02*
X118670000Y-120955000D01*
X117105000Y-120955000D02*
X115625000Y-119475000D01*
X119200000Y-119875000D02*
X119200000Y-120425000D01*
%TO.N,Net-(D10-K)*%
X165270561Y-79454439D02*
X165270561Y-80979388D01*
X165650000Y-79075000D02*
X165270561Y-79454439D01*
D47*
%TO.N,Net-(U5-+)*%
X109300000Y-88800000D02*
X109300000Y-86898175D01*
X108950000Y-86548175D02*
X107925000Y-86548175D01*
X109300000Y-86898175D02*
X108950000Y-86548175D01*
D45*
%TO.N,/RX*%
X111355000Y-116605000D02*
X111355000Y-119757500D01*
X111300000Y-116550000D02*
X111355000Y-116605000D01*
X111355000Y-119757500D02*
X111275000Y-119837500D01*
%TO.N,/TX*%
X110025000Y-121000000D02*
X110025000Y-119837500D01*
X110548637Y-116500590D02*
X110548637Y-116883445D01*
X110025000Y-117407082D02*
X110025000Y-119837500D01*
X110548637Y-116883445D02*
X110025000Y-117407082D01*
%TO.N,/SCL1*%
X125775000Y-120775000D02*
X125775000Y-118075000D01*
X126102170Y-121102170D02*
X125775000Y-120775000D01*
X125775000Y-118075000D02*
X125970000Y-117880000D01*
X128490000Y-121129502D02*
X128462668Y-121102170D01*
X128462668Y-121102170D02*
X126102170Y-121102170D01*
%TO.N,/SDA1*%
X129000000Y-120975000D02*
X129000000Y-118890000D01*
X129000000Y-118890000D02*
X127920000Y-117810000D01*
X129154502Y-121129502D02*
X129000000Y-120975000D01*
X127920000Y-117810000D02*
X127430000Y-117810000D01*
X129720000Y-121129502D02*
X129154502Y-121129502D01*
%TO.N,EMG_LOW*%
X155840000Y-90740000D02*
X155840000Y-92783941D01*
X155840000Y-92783941D02*
X155853819Y-92797760D01*
%TO.N,/SCL0*%
X127325000Y-117120500D02*
X127325000Y-116475000D01*
X129745000Y-117505000D02*
X129360500Y-117120500D01*
X129360500Y-117120500D02*
X127325000Y-117120500D01*
X129745000Y-119837500D02*
X129745000Y-117505000D01*
X127325000Y-116475000D02*
X127300000Y-116450000D01*
%TO.N,/SDA0*%
X126050000Y-116460000D02*
X126030000Y-116440000D01*
X126595500Y-116460000D02*
X126050000Y-116460000D01*
X126775000Y-118252401D02*
X127292599Y-118770000D01*
X127292599Y-118770000D02*
X127895000Y-118770000D01*
X128495000Y-119370000D02*
X128495000Y-119837500D01*
X126775000Y-116639500D02*
X126775000Y-118252401D01*
X127895000Y-118770000D02*
X128495000Y-119370000D01*
X126595500Y-116460000D02*
X126775000Y-116639500D01*
D46*
%TO.N,Net-(U12-LITE)*%
X105910000Y-89158175D02*
X102500000Y-85748175D01*
X105945000Y-89158175D02*
X105910000Y-89158175D01*
D45*
%TO.N,Net-(Q1-Pad2)*%
X142175000Y-104385000D02*
X141690000Y-104870000D01*
X142355000Y-104385000D02*
X142175000Y-104385000D01*
%TO.N,Net-(Q2-G)*%
X144825000Y-102865000D02*
X144640000Y-102680000D01*
X144640000Y-102680000D02*
X144030000Y-102680000D01*
X145380000Y-102865000D02*
X144825000Y-102865000D01*
%TO.N,Net-(Q2-D)*%
X146030000Y-104335000D02*
X144145000Y-104335000D01*
X144145000Y-104335000D02*
X144090000Y-104390000D01*
%TO.N,Net-(Q4-G)*%
X144200000Y-98125000D02*
X145480000Y-98125000D01*
X145480000Y-98125000D02*
X145500000Y-98105000D01*
%TO.N,Net-(Q4-D)*%
X144180000Y-99635000D02*
X144175000Y-99630000D01*
X146150000Y-99635000D02*
X144180000Y-99635000D01*
D47*
%TO.N,Net-(Q5-D)*%
X111667500Y-81165675D02*
X111700000Y-81198175D01*
X107895000Y-81165675D02*
X111667500Y-81165675D01*
D45*
%TO.N,Net-(Q6-G)*%
X152150000Y-98125000D02*
X153450000Y-98125000D01*
%TO.N,Net-(Q6-D)*%
X152560000Y-100010000D02*
X152175000Y-99625000D01*
X154125000Y-99660000D02*
X153775000Y-100010000D01*
X153775000Y-100010000D02*
X152560000Y-100010000D01*
%TO.N,Net-(Q7-Pad2)*%
X150425000Y-99712242D02*
X149859782Y-100277460D01*
X150425000Y-99700000D02*
X150425000Y-99712242D01*
%TO.N,Net-(Q8-G)*%
X161050000Y-102350000D02*
X159800000Y-102350000D01*
X159800000Y-102350000D02*
X159725000Y-102275000D01*
%TO.N,Net-(Q8-D)*%
X161050000Y-100875000D02*
X159200000Y-100875000D01*
X159200000Y-100875000D02*
X159150000Y-100825000D01*
%TO.N,Net-(Q9-Pad2)*%
X162750000Y-100725000D02*
X163225000Y-100250000D01*
X162750000Y-100875000D02*
X162750000Y-100725000D01*
%TO.N,Net-(Q10-G)*%
X144050000Y-94185000D02*
X145335000Y-94185000D01*
X145335000Y-94185000D02*
X145375000Y-94145000D01*
%TO.N,Net-(Q10-D)*%
X144050000Y-95760000D02*
X146035000Y-95760000D01*
X146035000Y-95760000D02*
X146050000Y-95745000D01*
%TO.N,Net-(Q11-Pad2)*%
X142350000Y-95760000D02*
X142350000Y-95795000D01*
X142350000Y-95795000D02*
X141850000Y-96295000D01*
%TO.N,Net-(Q12-G)*%
X150350000Y-104145000D02*
X150430000Y-104065000D01*
X150430000Y-104065000D02*
X151575000Y-104065000D01*
%TO.N,Net-(Q12-D)*%
X151590000Y-102590000D02*
X149600000Y-102590000D01*
X151625000Y-102625000D02*
X151590000Y-102590000D01*
%TO.N,Net-(Q13-G)*%
X168700000Y-102495000D02*
X169985000Y-102495000D01*
X169985000Y-102495000D02*
X170000000Y-102510000D01*
%TO.N,Net-(Q13-D)*%
X170000000Y-101010000D02*
X168075000Y-101010000D01*
X168075000Y-101010000D02*
X168050000Y-100985000D01*
%TO.N,Net-(Q14-Pad2)*%
X153725500Y-102500000D02*
X153600500Y-102625000D01*
X153600500Y-102625000D02*
X153325000Y-102625000D01*
%TO.N,Net-(Q15-Pad2)*%
X171700000Y-100350000D02*
X171700000Y-101010000D01*
X171525000Y-100175000D02*
X171700000Y-100350000D01*
%TO.N,Net-(Q16-G)*%
X153375000Y-94285000D02*
X152100000Y-94285000D01*
X152100000Y-94285000D02*
X152050000Y-94235000D01*
%TO.N,Net-(Q16-D)*%
X152075000Y-95795000D02*
X153890000Y-95795000D01*
X153890000Y-95795000D02*
X153925000Y-95760000D01*
%TO.N,Net-(Q17-Pad2)*%
X142069610Y-100135390D02*
X141966170Y-100135390D01*
X142475000Y-99730000D02*
X142069610Y-100135390D01*
X142475000Y-99675000D02*
X142475000Y-99730000D01*
%TO.N,Net-(Q18-Pad2)*%
X150270103Y-95795000D02*
X149866892Y-96198211D01*
X150375000Y-95795000D02*
X150270103Y-95795000D01*
%TO.N,Net-(Q19-G)*%
X169950000Y-98535000D02*
X168525000Y-98535000D01*
X168525000Y-98535000D02*
X168500000Y-98510000D01*
%TO.N,Net-(Q19-D)*%
X170085000Y-97025000D02*
X170085000Y-97020000D01*
X167875000Y-97025000D02*
X170085000Y-97025000D01*
%TO.N,Net-(Q20-Pad2)*%
X171425000Y-96100000D02*
X171650000Y-96325000D01*
X171650000Y-96325000D02*
X171650000Y-96960000D01*
%TO.N,Net-(Q21-G)*%
X168785000Y-90425000D02*
X168775000Y-90435000D01*
X170050000Y-90425000D02*
X168785000Y-90425000D01*
%TO.N,Net-(Q21-D)*%
X170000000Y-88900000D02*
X170025000Y-88875000D01*
X168100000Y-88900000D02*
X170000000Y-88900000D01*
%TO.N,Net-(Q22-Pad2)*%
X150391825Y-91700000D02*
X149978451Y-92113374D01*
X150415000Y-91700000D02*
X150391825Y-91700000D01*
%TO.N,Net-(Q23-Pad2)*%
X172228375Y-88281625D02*
X171750000Y-88760000D01*
X172390943Y-88281625D02*
X172228375Y-88281625D01*
X171750000Y-88760000D02*
X171750000Y-88850000D01*
%TO.N,Net-(Q24-G)*%
X152115000Y-90150000D02*
X153365000Y-90150000D01*
X153365000Y-90150000D02*
X153375000Y-90160000D01*
%TO.N,Net-(Q24-D)*%
X152150000Y-91660000D02*
X152125000Y-91635000D01*
X154040000Y-91660000D02*
X152150000Y-91660000D01*
%TO.N,Net-(Q25-G)*%
X145325000Y-86030000D02*
X144202500Y-86030000D01*
X145425000Y-86130000D02*
X145325000Y-86030000D01*
%TO.N,Net-(Q25-D)*%
X146075000Y-87600000D02*
X145965000Y-87490000D01*
X145965000Y-87490000D02*
X144112500Y-87490000D01*
%TO.N,Net-(Q26-Pad2)*%
X171424500Y-92100000D02*
X171738690Y-92414190D01*
X171738690Y-92414190D02*
X171738690Y-92905000D01*
%TO.N,Net-(Q27-Pad2)*%
X141971547Y-88103453D02*
X142400000Y-87675000D01*
X141857406Y-88103453D02*
X141971547Y-88103453D01*
X142400000Y-87675000D02*
X142400000Y-87575000D01*
%TO.N,Net-(Q28-G)*%
X168738690Y-94425000D02*
X170015000Y-94425000D01*
X170015000Y-94425000D02*
X170025000Y-94435000D01*
%TO.N,Net-(Q28-D)*%
X170038690Y-92905000D02*
X168130000Y-92905000D01*
%TO.N,Net-(Q29-G)*%
X168800000Y-86410000D02*
X170200000Y-86410000D01*
X170200000Y-86410000D02*
X170225000Y-86435000D01*
%TO.N,Net-(Q29-D)*%
X170145000Y-84900000D02*
X168190000Y-84900000D01*
%TO.N,Net-(Q30-Pad2)*%
X141850000Y-92425000D02*
X142540000Y-91735000D01*
X141850000Y-92525000D02*
X141850000Y-92425000D01*
%TO.N,Net-(Q31-Pad2)*%
X171845000Y-84900000D02*
X171845000Y-84820029D01*
X171845000Y-84820029D02*
X172323340Y-84341689D01*
%TO.N,Net-(Q32-G)*%
X144175000Y-90155000D02*
X144140000Y-90120000D01*
X145360000Y-90155000D02*
X144175000Y-90155000D01*
%TO.N,Net-(Q32-D)*%
X146200000Y-91735000D02*
X146225000Y-91710000D01*
X144240000Y-91735000D02*
X146200000Y-91735000D01*
%TO.N,Net-(Q33-G)*%
X153467500Y-85980000D02*
X153422500Y-86025000D01*
X153422500Y-86025000D02*
X152112500Y-86025000D01*
%TO.N,Net-(Q33-D)*%
X152312500Y-87450000D02*
X152162500Y-87600000D01*
X154117500Y-87450000D02*
X152312500Y-87450000D01*
%TO.N,Net-(Q34-Pad2)*%
X150415060Y-87600000D02*
X149922255Y-88092805D01*
X150467500Y-87600000D02*
X150415060Y-87600000D01*
%TO.N,/switch_control/CHAN_0*%
X150500000Y-97980000D02*
X150450000Y-98030000D01*
X142370000Y-102530000D02*
X142370000Y-102680000D01*
X150450000Y-98125000D02*
X149250000Y-98125000D01*
X143849500Y-101836297D02*
X143063703Y-101836297D01*
X142220000Y-102560000D02*
X142480000Y-102820000D01*
X149250000Y-98125000D02*
X149125000Y-98000000D01*
X150500000Y-97829500D02*
X150500000Y-97980000D01*
X143063703Y-101836297D02*
X142370000Y-102530000D01*
X140960000Y-102560000D02*
X142220000Y-102560000D01*
%TO.N,Net-(SP1-+)*%
X123125000Y-112325000D02*
X123275000Y-112325000D01*
X124350000Y-111250000D02*
X124350000Y-110125000D01*
X123275000Y-112325000D02*
X124350000Y-111250000D01*
X125725000Y-110125000D02*
X124375000Y-110125000D01*
X124375000Y-110125000D02*
X124350000Y-110100000D01*
%TO.N,/processor/CAN_STBY*%
X119620202Y-105604332D02*
X119265870Y-105250000D01*
X116150544Y-105899456D02*
X113079456Y-105899456D01*
X122367051Y-106484499D02*
X119826189Y-106484499D01*
X119826189Y-106484499D02*
X119620202Y-106278512D01*
X119265870Y-105250000D02*
X116800000Y-105250000D01*
X113079456Y-105899456D02*
X113040000Y-105860000D01*
X119620202Y-106278512D02*
X119620202Y-105604332D01*
X116800000Y-105250000D02*
X116150544Y-105899456D01*
%TO.N,/processor/QSPI_CS*%
X127850000Y-80200000D02*
X119266571Y-88783429D01*
X132250000Y-80200000D02*
X127850000Y-80200000D01*
X119266571Y-88783429D02*
X119266571Y-92416571D01*
%TO.N,/switch_control/CHAN_1*%
X152520000Y-104720000D02*
X152755000Y-104720000D01*
X142520000Y-98070000D02*
X142510000Y-98060000D01*
X154625000Y-104300000D02*
X153485000Y-104300000D01*
X141150000Y-98130000D02*
X142450000Y-98130000D01*
X153485000Y-104300000D02*
X153325000Y-104140000D01*
X143320000Y-98070000D02*
X142520000Y-98070000D01*
X141100000Y-98080000D02*
X141150000Y-98130000D01*
X152755000Y-104720000D02*
X153300000Y-104175000D01*
%TO.N,/switch_control/CHAN_2*%
X162124500Y-102350000D02*
X162750000Y-102350000D01*
X164100000Y-102450000D02*
X162775000Y-102450000D01*
X140975000Y-94110000D02*
X142310000Y-94110000D01*
X162000000Y-102474500D02*
X162124500Y-102350000D01*
X140925000Y-94950000D02*
X140925000Y-94100000D01*
X142310000Y-94110000D02*
X142350000Y-94070000D01*
%TO.N,/switch_control/CHAN_3*%
X149000000Y-94145000D02*
X150385000Y-94145000D01*
X173025000Y-102535000D02*
X173100000Y-102610000D01*
X173050000Y-102635000D02*
X173050000Y-101875000D01*
X171700000Y-102535000D02*
X173025000Y-102535000D01*
X150385000Y-94145000D02*
X150400000Y-94160000D01*
X151170000Y-94245000D02*
X151175000Y-94250000D01*
X150375000Y-94245000D02*
X151170000Y-94245000D01*
%TO.N,/switch_control/CHAN_4*%
X173050000Y-98585000D02*
X171825000Y-98585000D01*
X149240000Y-90150000D02*
X149150000Y-90060000D01*
X173050000Y-98585000D02*
X173050000Y-97825000D01*
X151290000Y-90150000D02*
X149240000Y-90150000D01*
%TO.N,/switch_control/CHAN_6*%
X171850000Y-90535000D02*
X171775000Y-90460000D01*
X142400000Y-86025000D02*
X143225000Y-86025000D01*
X142412500Y-85950000D02*
X141097500Y-85950000D01*
X173150000Y-90535000D02*
X173150000Y-89634500D01*
X141097500Y-85950000D02*
X141012500Y-85865000D01*
X173150000Y-90535000D02*
X171850000Y-90535000D01*
%TO.N,/switch_control/CHAN_5*%
X171738690Y-94480000D02*
X173105000Y-94480000D01*
X142565000Y-90210000D02*
X141325000Y-90210000D01*
X173105000Y-94480000D02*
X173125000Y-94460000D01*
X141325000Y-90210000D02*
X141250000Y-90135000D01*
X143190000Y-90200000D02*
X142575000Y-90200000D01*
X173125000Y-94470000D02*
X173125000Y-93750000D01*
%TO.N,/switch_control/CHAN_7*%
X151829325Y-84663175D02*
X150442500Y-86050000D01*
X173145000Y-86500000D02*
X173145000Y-85845000D01*
X149092500Y-85950000D02*
X150312500Y-85950000D01*
X173145000Y-86500000D02*
X171890000Y-86500000D01*
X150312500Y-85950000D02*
X150412500Y-86050000D01*
X173145000Y-85845000D02*
X173100000Y-85800000D01*
X155111825Y-84663175D02*
X151829325Y-84663175D01*
X155925000Y-83850000D02*
X155111825Y-84663175D01*
X171890000Y-86500000D02*
X171875000Y-86485000D01*
%TO.N,Net-(R75-Pad1)*%
X167175000Y-105550000D02*
X167175000Y-105525000D01*
D46*
%TO.N,Net-(R76-Pad2)*%
X161696748Y-107000000D02*
X161591748Y-107105000D01*
X162801748Y-107000000D02*
X161696748Y-107000000D01*
X163475000Y-107000000D02*
X163525000Y-106950000D01*
X162801748Y-107000000D02*
X163475000Y-107000000D01*
D45*
%TO.N,/ENC_BUTTON*%
X168450000Y-120850000D02*
X168425000Y-120875000D01*
X168450000Y-119625000D02*
X168450000Y-120850000D01*
%TO.N,/~{RESET}*%
X138529500Y-86970500D02*
X135264767Y-90235233D01*
X135264767Y-90235233D02*
X133365233Y-90235233D01*
X138425000Y-79475000D02*
X138529500Y-79579500D01*
X138529500Y-79579500D02*
X138529500Y-86970500D01*
%TO.N,/TFT_CS*%
X104000000Y-98657245D02*
X104000000Y-99725000D01*
X104000000Y-99725000D02*
X104100000Y-99825000D01*
X102450000Y-97107245D02*
X104000000Y-98657245D01*
X102450000Y-95953175D02*
X102450000Y-97107245D01*
X105878175Y-95953175D02*
X106050000Y-96125000D01*
X102450000Y-95953175D02*
X105878175Y-95953175D01*
%TO.N,unconnected-(U7-Pad1)*%
X155464563Y-78490000D02*
X152480000Y-78490000D01*
X156964563Y-79990000D02*
X155464563Y-78490000D01*
X160055002Y-79990000D02*
X156964563Y-79990000D01*
X160334502Y-80269500D02*
X160055002Y-79990000D01*
%TO.N,/processor/ENC_CTL_0*%
X160168326Y-83130500D02*
X165343672Y-83130500D01*
X131975000Y-84150000D02*
X131995000Y-84170000D01*
X136993437Y-83960499D02*
X137706983Y-83960499D01*
X131995000Y-84170000D02*
X136783936Y-84170000D01*
X136783936Y-84170000D02*
X136993437Y-83960499D01*
X159924413Y-83374413D02*
X160168326Y-83130500D01*
%TO.N,/processor/ENC_CTL_1*%
X131262869Y-84689499D02*
X132185035Y-84689499D01*
X163399965Y-82065197D02*
X164096030Y-81369132D01*
X160484803Y-82065197D02*
X163399965Y-82065197D01*
X132374534Y-84500000D02*
X137203470Y-84500000D01*
X158825000Y-83879500D02*
X158825000Y-83725000D01*
X132185035Y-84689499D02*
X132374534Y-84500000D01*
X158825000Y-83725000D02*
X160484803Y-82065197D01*
X164096030Y-81369132D02*
X164096030Y-81269500D01*
X137203470Y-84500000D02*
X137209629Y-84493841D01*
%TO.N,/processor/ENC_CTL_2*%
X158182908Y-84413090D02*
X158365318Y-84595500D01*
X137711111Y-85023841D02*
X132095158Y-85023841D01*
X160453537Y-81629999D02*
X160738370Y-81345166D01*
X160738370Y-81345166D02*
X163370462Y-81345166D01*
X158182908Y-83517092D02*
X158182908Y-84413090D01*
X132095158Y-85023841D02*
X131900000Y-85218999D01*
X158182908Y-83517092D02*
X160070001Y-81629999D01*
X160070001Y-81629999D02*
X160453537Y-81629999D01*
X137715453Y-85019499D02*
X137711111Y-85023841D01*
%TO.N,/processor/~{Tx0RTS}*%
X122140422Y-107177906D02*
X120052906Y-107177906D01*
X120052906Y-107177906D02*
X118675000Y-105800000D01*
%TO.N,/processor/CAN_INT*%
X113589823Y-112107054D02*
X112817019Y-112107054D01*
X114954085Y-113471316D02*
X113589823Y-112107054D01*
X114954085Y-114363567D02*
X114954085Y-113471316D01*
%TO.N,/processor/~{Rx0BF}*%
X115475005Y-113376380D02*
X113676179Y-111577554D01*
X113676179Y-111577554D02*
X113370789Y-111577554D01*
%TO.N,GNDREF*%
X149092500Y-87650000D02*
X149092500Y-86882500D01*
X154450338Y-98708489D02*
X154308827Y-98850000D01*
X149115000Y-90960000D02*
X149125000Y-90950000D01*
X149100000Y-98850000D02*
X146800000Y-98850000D01*
X167400000Y-102375000D02*
X168065000Y-101710000D01*
X154590500Y-88187000D02*
X154767500Y-88010000D01*
X148975000Y-95035000D02*
X146700000Y-95035000D01*
X146680000Y-102865000D02*
X146680000Y-103405000D01*
X142090000Y-90950000D02*
X146660000Y-90950000D01*
X159757300Y-80999500D02*
X160334502Y-80999500D01*
X168065000Y-101710000D02*
X170825000Y-101710000D01*
X154358430Y-94919868D02*
X154243298Y-95035000D01*
X141225000Y-91810000D02*
X141995000Y-91040000D01*
X149115000Y-91750000D02*
X149115000Y-90960000D01*
X170825000Y-101710000D02*
X172165000Y-101710000D01*
X170825000Y-93605000D02*
X172195000Y-93605000D01*
X170825000Y-93605000D02*
X170825000Y-89725000D01*
X146800000Y-98850000D02*
X142030000Y-98850000D01*
X159060000Y-101650000D02*
X163200000Y-101650000D01*
X167997500Y-89725000D02*
X170825000Y-89725000D01*
X154767500Y-85980000D02*
X154776800Y-85980000D01*
X154700000Y-90325000D02*
X154750000Y-90275000D01*
X140330000Y-100510000D02*
X141160000Y-99680000D01*
X164100000Y-100750000D02*
X165555498Y-102205498D01*
X167225000Y-98375000D02*
X167940000Y-97660000D01*
X156080498Y-102600000D02*
X154625000Y-102600000D01*
X165555498Y-102205498D02*
X167230498Y-102205498D01*
X167425000Y-79195000D02*
X167425000Y-76945000D01*
X149000000Y-95845000D02*
X149000000Y-95060000D01*
X154243298Y-95035000D02*
X148975000Y-95035000D01*
X154308827Y-98850000D02*
X149100000Y-98850000D01*
X149050000Y-104145000D02*
X149050000Y-103500000D01*
X146700000Y-94250000D02*
X146700000Y-95035000D01*
X156405498Y-102275000D02*
X158475000Y-102275000D01*
X170825000Y-101710000D02*
X170825000Y-97660000D01*
X170825000Y-97660000D02*
X172190000Y-97660000D01*
X142030000Y-98850000D02*
X141125000Y-99755000D01*
X172195000Y-93605000D02*
X172975000Y-92825000D01*
X146660000Y-90155000D02*
X146660000Y-90950000D01*
X170825000Y-97660000D02*
X170825000Y-93605000D01*
X141805500Y-86772000D02*
X141037500Y-87540000D01*
X153957998Y-88350500D02*
X154121498Y-88187000D01*
X167225000Y-98495000D02*
X167225000Y-98375000D01*
X165860000Y-81770000D02*
X165860000Y-80760000D01*
X154700000Y-90860000D02*
X154610000Y-90950000D01*
X146800000Y-98165000D02*
X146800000Y-98850000D01*
X158425000Y-102285000D02*
X159060000Y-101650000D01*
X141125000Y-95770000D02*
X141000000Y-95770000D01*
X156405498Y-102275000D02*
X156080498Y-102600000D01*
X173025000Y-88850000D02*
X173125000Y-88850000D01*
X167450000Y-90272500D02*
X167997500Y-89725000D01*
X149050000Y-103500000D02*
X153825000Y-103500000D01*
X154700000Y-90860000D02*
X154700000Y-90325000D01*
X146775000Y-103500000D02*
X149050000Y-103500000D01*
X167438690Y-94425000D02*
X167438690Y-94311310D01*
X149000000Y-95060000D02*
X148975000Y-95035000D01*
X170825000Y-89725000D02*
X170825000Y-85600000D01*
X142000000Y-91040000D02*
X142090000Y-90950000D01*
X167500000Y-86410000D02*
X167500000Y-86325000D01*
X165860000Y-80760000D02*
X167425000Y-79195000D01*
X167450000Y-90370000D02*
X167450000Y-90272500D01*
X140330000Y-103630000D02*
X140330000Y-100510000D01*
X172900000Y-100975000D02*
X173000000Y-100975000D01*
X154725000Y-94553298D02*
X154725000Y-94300000D01*
X172900000Y-96950000D02*
X172950000Y-96950000D01*
X146680000Y-103405000D02*
X146775000Y-103500000D01*
X141860000Y-95035000D02*
X141125000Y-95770000D01*
X154358430Y-94919868D02*
X154725000Y-94553298D01*
X141995000Y-91040000D02*
X142000000Y-91040000D01*
X163200000Y-101650000D02*
X164000000Y-100850000D01*
X173050000Y-84825000D02*
X173075000Y-84825000D01*
X154450338Y-98708489D02*
X154725000Y-98433827D01*
X154725000Y-98433827D02*
X154725000Y-98300000D01*
X146660000Y-90950000D02*
X149125000Y-90950000D01*
X168145000Y-93605000D02*
X170825000Y-93605000D01*
X168225000Y-85600000D02*
X170825000Y-85600000D01*
X167438690Y-94311310D02*
X168145000Y-93605000D01*
X167500000Y-86325000D02*
X168225000Y-85600000D01*
X154121498Y-88187000D02*
X154590500Y-88187000D01*
X149100000Y-99725000D02*
X149100000Y-98850000D01*
X154767500Y-88010000D02*
X154767500Y-85980000D01*
X146725000Y-86130000D02*
X146725000Y-86759000D01*
X167940000Y-97660000D02*
X170825000Y-97660000D01*
X146725000Y-86759000D02*
X146712000Y-86772000D01*
X170825000Y-89725000D02*
X172150000Y-89725000D01*
X154662500Y-86770000D02*
X146750000Y-86770000D01*
X170825000Y-85600000D02*
X172275000Y-85600000D01*
X153825000Y-103500000D02*
X154625000Y-102700000D01*
X154776800Y-85980000D02*
X159757300Y-80999500D01*
X172165000Y-101710000D02*
X172900000Y-100975000D01*
X172975000Y-92825000D02*
X173125000Y-92825000D01*
X145915000Y-95035000D02*
X141860000Y-95035000D01*
X154610000Y-90950000D02*
X149125000Y-90950000D01*
X140960000Y-104260000D02*
X140330000Y-103630000D01*
X172150000Y-89725000D02*
X173025000Y-88850000D01*
X167230498Y-102205498D02*
X167375000Y-102350000D01*
X146700000Y-95035000D02*
X145915000Y-95035000D01*
X146712000Y-86772000D02*
X141805500Y-86772000D01*
X172190000Y-97660000D02*
X172900000Y-96950000D01*
X172275000Y-85600000D02*
X173050000Y-84825000D01*
%TO.N,SWITCHING_3V3*%
X148025000Y-80300000D02*
X147325000Y-79600000D01*
X148050000Y-86000000D02*
X148050000Y-83300000D01*
X148050000Y-83300000D02*
X148025000Y-83275000D01*
X148175000Y-86125000D02*
X148050000Y-86000000D01*
X148025000Y-83275000D02*
X148025000Y-80300000D01*
X147325000Y-79600000D02*
X147325000Y-76275000D01*
X147325000Y-76275000D02*
X147275000Y-76225000D01*
%TO.N,GND*%
X140525000Y-119850000D02*
X140525000Y-118450000D01*
X117950000Y-119750000D02*
X117950000Y-119875000D01*
X143100000Y-110700000D02*
X143125000Y-110725000D01*
X143825000Y-115250000D02*
X143850000Y-115225000D01*
X165750000Y-105575000D02*
X164500000Y-105575000D01*
X147225000Y-112625000D02*
X147250000Y-112600000D01*
X130995000Y-119837500D02*
X130995000Y-121124502D01*
X143050000Y-115250000D02*
X141750000Y-115250000D01*
D47*
X118425000Y-101700000D02*
X118500000Y-101700000D01*
D45*
X112525000Y-120594842D02*
X112525000Y-119837500D01*
X143825000Y-110750000D02*
X143925000Y-110850000D01*
X143050000Y-115250000D02*
X143825000Y-115250000D01*
X141695000Y-110700000D02*
X143100000Y-110700000D01*
X146500000Y-112625000D02*
X147225000Y-112625000D01*
X113041195Y-120594842D02*
X112525000Y-120594842D01*
X165875000Y-105450000D02*
X165750000Y-105575000D01*
D47*
X112325000Y-85798175D02*
X112100000Y-85798175D01*
X115265750Y-88738925D02*
X112325000Y-85798175D01*
D45*
X143050000Y-110750000D02*
X143825000Y-110750000D01*
X130995000Y-121124502D02*
X131000000Y-121129502D01*
%TO.N,Net-(J7-Pad1)*%
X144275000Y-118050000D02*
X144325000Y-118000000D01*
X144275000Y-119850000D02*
X144275000Y-118050000D01*
%TO.N,/TXD*%
X141775000Y-121500000D02*
X141775000Y-119850000D01*
%TO.N,/ESP-Wifi/GPIO0*%
X138850000Y-115150000D02*
X139425000Y-115150000D01*
X139425000Y-115150000D02*
X139475000Y-115200000D01*
X139545000Y-110700000D02*
X139545000Y-115255000D01*
X139545000Y-115255000D02*
X139525000Y-115275000D01*
%TO.N,Net-(U16-MOSI)*%
X139305000Y-107600000D02*
X139275000Y-107600000D01*
X139275000Y-107600000D02*
X139250000Y-107625000D01*
%TO.N,Net-(U16-MISO)*%
X145300000Y-107600000D02*
X145275000Y-107575000D01*
%TO.N,Net-(U16-IO9)*%
X143275000Y-107575000D02*
X143250000Y-107575000D01*
%TO.N,Net-(U16-IO10)*%
X141305000Y-107555000D02*
X141275000Y-107525000D01*
X141305000Y-107600000D02*
X141305000Y-107555000D01*
%TO.N,/ESP-Wifi/ESP_INT*%
X127925000Y-111800000D02*
X127925000Y-107600000D01*
X133075000Y-116950000D02*
X127925000Y-111800000D01*
%TD*%
%TA.AperFunction,Conductor*%
%TO.N,GNDD*%
G36*
X134398039Y-87319685D02*
G01*
X134443794Y-87372489D01*
X134455000Y-87424000D01*
X134455000Y-89710733D01*
X134435315Y-89777772D01*
X134382511Y-89823527D01*
X134331000Y-89834733D01*
X133871813Y-89834733D01*
X133804774Y-89815048D01*
X133796326Y-89809109D01*
X133793516Y-89806953D01*
X133793515Y-89806951D01*
X133668074Y-89710697D01*
X133521995Y-89650189D01*
X133521993Y-89650188D01*
X133365234Y-89629551D01*
X133365232Y-89629551D01*
X133208472Y-89650188D01*
X133208470Y-89650189D01*
X133062393Y-89710696D01*
X132936951Y-89806951D01*
X132840696Y-89932393D01*
X132780189Y-90078470D01*
X132780188Y-90078472D01*
X132759551Y-90235231D01*
X132759551Y-90235234D01*
X132780188Y-90391993D01*
X132780189Y-90391995D01*
X132840697Y-90538074D01*
X132936951Y-90663515D01*
X133062392Y-90759769D01*
X133208471Y-90820277D01*
X133286851Y-90830595D01*
X133365232Y-90840915D01*
X133365233Y-90840915D01*
X133365234Y-90840915D01*
X133417486Y-90834035D01*
X133521995Y-90820277D01*
X133668074Y-90759769D01*
X133793515Y-90663515D01*
X133793516Y-90663512D01*
X133796326Y-90661357D01*
X133861496Y-90636163D01*
X133871813Y-90635733D01*
X134331000Y-90635733D01*
X134398039Y-90655418D01*
X134443794Y-90708222D01*
X134455000Y-90759733D01*
X134455000Y-95654914D01*
X134435315Y-95721953D01*
X134382511Y-95767708D01*
X134347187Y-95777853D01*
X134293238Y-95784956D01*
X134293237Y-95784956D01*
X134147160Y-95845463D01*
X134021718Y-95941718D01*
X133925463Y-96067160D01*
X133864956Y-96213237D01*
X133864955Y-96213239D01*
X133844318Y-96369998D01*
X133844318Y-96370001D01*
X133864955Y-96526760D01*
X133864956Y-96526762D01*
X133920478Y-96660805D01*
X133925464Y-96672841D01*
X134021718Y-96798282D01*
X134021720Y-96798283D01*
X134023876Y-96801093D01*
X134049070Y-96866263D01*
X134049500Y-96876580D01*
X134049500Y-97630318D01*
X134029815Y-97697357D01*
X133977011Y-97743112D01*
X133925500Y-97754318D01*
X133920499Y-97754318D01*
X133763739Y-97774955D01*
X133763737Y-97774956D01*
X133617660Y-97835463D01*
X133492218Y-97931718D01*
X133395963Y-98057160D01*
X133335456Y-98203237D01*
X133335455Y-98203239D01*
X133314818Y-98359998D01*
X133314818Y-98360001D01*
X133335455Y-98516760D01*
X133335456Y-98516762D01*
X133395964Y-98662842D01*
X133494375Y-98791094D01*
X133519569Y-98856263D01*
X133519999Y-98866580D01*
X133519999Y-102025110D01*
X133520000Y-102025120D01*
X133520000Y-102100619D01*
X133520001Y-102100629D01*
X133526846Y-102121697D01*
X133531387Y-102140608D01*
X133534854Y-102162494D01*
X133534855Y-102162497D01*
X133544912Y-102182235D01*
X133552357Y-102200208D01*
X133559204Y-102221280D01*
X133572226Y-102239204D01*
X133582390Y-102255790D01*
X133592450Y-102275532D01*
X133613364Y-102296446D01*
X133613393Y-102296477D01*
X133822482Y-102505565D01*
X134418681Y-103101764D01*
X134452166Y-103163086D01*
X134455000Y-103189444D01*
X134455000Y-106926000D01*
X134435315Y-106993039D01*
X134382511Y-107038794D01*
X134331000Y-107050000D01*
X128191031Y-107050000D01*
X128143579Y-107040561D01*
X128081765Y-107014957D01*
X128081760Y-107014955D01*
X127925001Y-106994318D01*
X127924999Y-106994318D01*
X127768239Y-107014955D01*
X127768234Y-107014957D01*
X127706421Y-107040561D01*
X127658969Y-107050000D01*
X126051908Y-107050000D01*
X125984869Y-107030315D01*
X125978561Y-107025880D01*
X125977842Y-107025465D01*
X125977841Y-107025464D01*
X125977839Y-107025463D01*
X125977837Y-107025462D01*
X125831762Y-106964956D01*
X125831760Y-106964955D01*
X125675001Y-106944318D01*
X125674999Y-106944318D01*
X125518239Y-106964955D01*
X125518237Y-106964956D01*
X125372162Y-107025462D01*
X125365125Y-107029526D01*
X125364236Y-107027987D01*
X125308411Y-107049570D01*
X125298092Y-107050000D01*
X122941488Y-107050000D01*
X122874449Y-107030315D01*
X122828694Y-106977511D01*
X122818750Y-106908353D01*
X122843111Y-106850515D01*
X122891587Y-106787340D01*
X122952095Y-106641261D01*
X122972733Y-106484499D01*
X122952095Y-106327737D01*
X122891587Y-106181658D01*
X122795333Y-106056217D01*
X122669892Y-105959963D01*
X122662164Y-105956762D01*
X122523813Y-105899455D01*
X122523811Y-105899454D01*
X122367052Y-105878817D01*
X122367050Y-105878817D01*
X122210290Y-105899454D01*
X122210288Y-105899455D01*
X122064211Y-105959962D01*
X122064209Y-105959963D01*
X122064210Y-105959963D01*
X121938769Y-106056217D01*
X121938767Y-106056219D01*
X121935958Y-106058375D01*
X121870788Y-106083569D01*
X121860471Y-106083999D01*
X120144702Y-106083999D01*
X120077663Y-106064314D01*
X120031908Y-106011510D01*
X120020702Y-105959999D01*
X120020702Y-105601282D01*
X120040387Y-105534243D01*
X120093191Y-105488488D01*
X120162349Y-105478544D01*
X120225905Y-105507569D01*
X120243077Y-105525795D01*
X120321718Y-105628282D01*
X120447159Y-105724536D01*
X120593238Y-105785044D01*
X120671619Y-105795362D01*
X120749999Y-105805682D01*
X120750000Y-105805682D01*
X120750001Y-105805682D01*
X120802253Y-105798802D01*
X120906762Y-105785044D01*
X121052841Y-105724536D01*
X121178282Y-105628282D01*
X121274536Y-105502841D01*
X121335044Y-105356762D01*
X121355682Y-105200000D01*
X121335044Y-105043238D01*
X121274536Y-104897159D01*
X121178282Y-104771718D01*
X121052841Y-104675464D01*
X120906762Y-104614956D01*
X120906760Y-104614955D01*
X120750001Y-104594318D01*
X120749999Y-104594318D01*
X120593239Y-104614955D01*
X120593237Y-104614956D01*
X120447160Y-104675463D01*
X120321718Y-104771718D01*
X120225463Y-104897160D01*
X120164956Y-105043237D01*
X120164955Y-105043239D01*
X120144318Y-105199998D01*
X120144318Y-105200001D01*
X120151530Y-105254782D01*
X120140764Y-105323817D01*
X120094384Y-105376073D01*
X120027115Y-105394958D01*
X119960315Y-105374477D01*
X119940910Y-105358648D01*
X119858544Y-105276282D01*
X119525141Y-104942878D01*
X119525126Y-104942864D01*
X119504212Y-104921950D01*
X119504211Y-104921949D01*
X119484470Y-104911890D01*
X119467884Y-104901726D01*
X119449960Y-104888704D01*
X119449961Y-104888704D01*
X119428888Y-104881857D01*
X119410915Y-104874412D01*
X119391177Y-104864355D01*
X119391174Y-104864354D01*
X119369288Y-104860887D01*
X119350377Y-104856346D01*
X119329309Y-104849501D01*
X119329304Y-104849500D01*
X119329303Y-104849500D01*
X119297389Y-104849500D01*
X119099000Y-104849500D01*
X119031961Y-104829815D01*
X118986206Y-104777011D01*
X118975000Y-104725500D01*
X118975000Y-102480249D01*
X118994685Y-102413210D01*
X119047489Y-102367455D01*
X119116647Y-102357511D01*
X119164975Y-102375257D01*
X119172528Y-102380003D01*
X119332050Y-102435822D01*
X119332058Y-102435824D01*
X119499996Y-102454746D01*
X119500004Y-102454746D01*
X119667943Y-102435824D01*
X119826713Y-102380267D01*
X119826713Y-102380266D01*
X119264272Y-101817825D01*
X119230787Y-101756502D01*
X119228733Y-101716259D01*
X119230565Y-101700001D01*
X119853553Y-101700001D01*
X120180266Y-102026714D01*
X120180267Y-102026713D01*
X120235824Y-101867943D01*
X120254746Y-101700003D01*
X120254746Y-101699996D01*
X120235824Y-101532056D01*
X120180266Y-101373285D01*
X119853553Y-101699999D01*
X119853553Y-101700001D01*
X119230565Y-101700001D01*
X119230565Y-101699997D01*
X119228733Y-101683739D01*
X119240787Y-101614917D01*
X119264272Y-101582174D01*
X119500000Y-101346447D01*
X119826714Y-101019732D01*
X119667943Y-100964176D01*
X119667938Y-100964175D01*
X119500004Y-100945254D01*
X119499996Y-100945254D01*
X119332058Y-100964175D01*
X119332050Y-100964177D01*
X119172524Y-101019997D01*
X119164969Y-101024745D01*
X119097732Y-101043744D01*
X119030898Y-101023375D01*
X118985685Y-100970106D01*
X118975000Y-100919750D01*
X118975000Y-99710043D01*
X118975000Y-98992922D01*
X121550655Y-98992922D01*
X121571292Y-99149681D01*
X121571293Y-99149683D01*
X121631801Y-99295762D01*
X121728055Y-99421203D01*
X121853496Y-99517457D01*
X121999575Y-99577965D01*
X122077956Y-99588283D01*
X122156336Y-99598603D01*
X122156337Y-99598603D01*
X122230856Y-99588792D01*
X122299890Y-99599557D01*
X122352146Y-99645937D01*
X122371032Y-99713206D01*
X122369980Y-99727915D01*
X122363442Y-99777581D01*
X122363442Y-99777585D01*
X122384079Y-99934344D01*
X122384080Y-99934346D01*
X122444588Y-100080425D01*
X122540842Y-100205866D01*
X122666283Y-100302120D01*
X122812362Y-100362628D01*
X122856999Y-100368504D01*
X122920896Y-100396770D01*
X122955376Y-100443990D01*
X123000463Y-100552839D01*
X123000464Y-100552841D01*
X123096718Y-100678282D01*
X123222159Y-100774536D01*
X123368238Y-100835044D01*
X123446618Y-100845363D01*
X123524999Y-100855682D01*
X123525000Y-100855682D01*
X123525001Y-100855682D01*
X123577254Y-100848802D01*
X123678283Y-100835502D01*
X127294319Y-100835502D01*
X127314956Y-100992261D01*
X127314957Y-100992263D01*
X127375281Y-101137899D01*
X127375465Y-101138342D01*
X127471719Y-101263783D01*
X127597160Y-101360037D01*
X127743239Y-101420545D01*
X127821619Y-101430864D01*
X127900000Y-101441183D01*
X127900001Y-101441183D01*
X127900002Y-101441183D01*
X127952254Y-101434303D01*
X128056763Y-101420545D01*
X128202842Y-101360037D01*
X128328283Y-101263783D01*
X128373668Y-101204635D01*
X128430093Y-101163434D01*
X128499839Y-101159279D01*
X128519487Y-101165559D01*
X128598788Y-101198407D01*
X128677168Y-101208725D01*
X128755549Y-101219045D01*
X128755550Y-101219045D01*
X128755551Y-101219045D01*
X128807804Y-101212165D01*
X128912312Y-101198407D01*
X129058391Y-101137899D01*
X129137402Y-101077271D01*
X129202568Y-101052079D01*
X129260339Y-101061088D01*
X129261358Y-101061510D01*
X129407437Y-101122018D01*
X129468768Y-101130092D01*
X129553047Y-101141188D01*
X129616944Y-101169455D01*
X129655415Y-101227779D01*
X129659801Y-101280312D01*
X129643836Y-101401583D01*
X129643836Y-101401586D01*
X129664473Y-101558345D01*
X129664474Y-101558347D01*
X129724982Y-101704426D01*
X129821236Y-101829867D01*
X129946677Y-101926121D01*
X130092756Y-101986629D01*
X130171136Y-101996947D01*
X130249517Y-102007267D01*
X130249518Y-102007267D01*
X130249519Y-102007267D01*
X130301772Y-102000387D01*
X130406280Y-101986629D01*
X130552359Y-101926121D01*
X130677800Y-101829867D01*
X130774054Y-101704426D01*
X130834562Y-101558347D01*
X130855200Y-101401585D01*
X130834562Y-101244823D01*
X130774054Y-101098744D01*
X130677800Y-100973303D01*
X130552359Y-100877049D01*
X130406280Y-100816541D01*
X130388009Y-100814135D01*
X130260668Y-100797370D01*
X130196772Y-100769103D01*
X130158301Y-100710778D01*
X130153915Y-100658245D01*
X130169881Y-100536973D01*
X130169881Y-100536972D01*
X130156122Y-100432466D01*
X130149243Y-100380212D01*
X130088735Y-100234133D01*
X129992481Y-100108692D01*
X129867040Y-100012438D01*
X129720961Y-99951930D01*
X129720959Y-99951929D01*
X129564200Y-99931292D01*
X129564199Y-99931292D01*
X129558613Y-99932027D01*
X129548717Y-99933330D01*
X129479682Y-99922562D01*
X129427427Y-99876180D01*
X129408544Y-99808911D01*
X129429027Y-99742111D01*
X129434783Y-99735074D01*
X129434334Y-99734730D01*
X129439282Y-99728282D01*
X129523521Y-99618499D01*
X129579948Y-99577297D01*
X129649694Y-99573142D01*
X129697381Y-99595610D01*
X129706805Y-99602841D01*
X129767657Y-99649535D01*
X129767658Y-99649535D01*
X129767659Y-99649536D01*
X129913738Y-99710044D01*
X129992119Y-99720362D01*
X130070499Y-99730682D01*
X130070500Y-99730682D01*
X130070501Y-99730682D01*
X130122753Y-99723802D01*
X130227262Y-99710044D01*
X130373341Y-99649536D01*
X130498782Y-99553282D01*
X130595036Y-99427841D01*
X130655544Y-99281762D01*
X130670133Y-99170946D01*
X130676182Y-99125001D01*
X130676182Y-99124998D01*
X130661453Y-99013118D01*
X130655544Y-98968238D01*
X130597880Y-98829025D01*
X130590411Y-98759555D01*
X130621686Y-98697076D01*
X130681775Y-98661424D01*
X130728625Y-98658633D01*
X130770500Y-98664146D01*
X130770501Y-98664146D01*
X130822754Y-98657266D01*
X130927262Y-98643508D01*
X131073341Y-98583000D01*
X131198782Y-98486746D01*
X131295036Y-98361305D01*
X131355544Y-98215226D01*
X131376182Y-98058464D01*
X131373868Y-98040895D01*
X131384634Y-97971860D01*
X131431014Y-97919604D01*
X131436745Y-97916650D01*
X131436685Y-97916545D01*
X131443717Y-97912485D01*
X131443719Y-97912482D01*
X131443722Y-97912482D01*
X131569163Y-97816228D01*
X131665417Y-97690787D01*
X131700463Y-97606177D01*
X131744303Y-97551774D01*
X131810598Y-97529709D01*
X131878297Y-97546988D01*
X131925908Y-97598125D01*
X131937963Y-97637444D01*
X131944456Y-97686760D01*
X131944456Y-97686762D01*
X131979894Y-97772318D01*
X132004964Y-97832841D01*
X132101218Y-97958282D01*
X132226659Y-98054536D01*
X132372738Y-98115044D01*
X132451118Y-98125362D01*
X132529499Y-98135682D01*
X132529500Y-98135682D01*
X132529501Y-98135682D01*
X132581754Y-98128802D01*
X132686262Y-98115044D01*
X132832341Y-98054536D01*
X132957782Y-97958282D01*
X133054036Y-97832841D01*
X133114544Y-97686762D01*
X133132847Y-97547737D01*
X133135182Y-97530001D01*
X133135182Y-97529998D01*
X133117323Y-97394345D01*
X133114544Y-97373238D01*
X133054036Y-97227159D01*
X132957782Y-97101718D01*
X132832341Y-97005464D01*
X132686262Y-96944956D01*
X132686260Y-96944955D01*
X132529501Y-96924318D01*
X132529499Y-96924318D01*
X132372739Y-96944955D01*
X132372737Y-96944956D01*
X132226660Y-97005463D01*
X132101218Y-97101718D01*
X132004964Y-97227159D01*
X131969917Y-97311769D01*
X131926075Y-97366172D01*
X131859781Y-97388236D01*
X131792082Y-97370956D01*
X131744472Y-97319819D01*
X131732417Y-97280499D01*
X131731853Y-97276218D01*
X131725925Y-97231184D01*
X131665417Y-97085105D01*
X131569163Y-96959664D01*
X131443722Y-96863410D01*
X131297643Y-96802902D01*
X131273941Y-96799781D01*
X131225485Y-96793402D01*
X131161589Y-96765135D01*
X131123118Y-96706810D01*
X131122287Y-96636946D01*
X131143297Y-96594975D01*
X131151914Y-96583746D01*
X131212422Y-96437667D01*
X131233060Y-96280905D01*
X131212422Y-96124143D01*
X131151914Y-95978064D01*
X131055660Y-95852623D01*
X131055656Y-95852619D01*
X131055653Y-95852616D01*
X131049910Y-95846872D01*
X131051633Y-95845148D01*
X131017715Y-95798680D01*
X131011472Y-95740565D01*
X131012043Y-95736225D01*
X131012044Y-95736224D01*
X131032682Y-95579462D01*
X131021454Y-95494180D01*
X131018923Y-95474954D01*
X131012044Y-95422700D01*
X130951536Y-95276621D01*
X130855282Y-95151180D01*
X130729841Y-95054926D01*
X130583762Y-94994418D01*
X130583760Y-94994417D01*
X130427001Y-94973780D01*
X130426999Y-94973780D01*
X130270239Y-94994417D01*
X130270237Y-94994418D01*
X130124160Y-95054925D01*
X129998718Y-95151180D01*
X129902463Y-95276622D01*
X129841956Y-95422699D01*
X129841955Y-95422701D01*
X129821318Y-95579460D01*
X129821318Y-95579463D01*
X129841955Y-95736222D01*
X129841956Y-95736224D01*
X129898079Y-95871718D01*
X129902464Y-95882303D01*
X129998718Y-96007744D01*
X129998720Y-96007745D01*
X129998722Y-96007748D01*
X130004465Y-96013491D01*
X130002740Y-96015215D01*
X130036658Y-96061674D01*
X130042905Y-96119799D01*
X130021696Y-96280903D01*
X130021696Y-96280906D01*
X130042333Y-96437665D01*
X130042334Y-96437667D01*
X130079237Y-96526760D01*
X130102842Y-96583746D01*
X130199096Y-96709187D01*
X130324537Y-96805441D01*
X130470616Y-96865949D01*
X130542773Y-96875448D01*
X130606668Y-96903714D01*
X130645140Y-96962038D01*
X130645972Y-97031903D01*
X130624964Y-97073872D01*
X130616345Y-97085104D01*
X130555837Y-97231183D01*
X130555836Y-97231185D01*
X130535199Y-97387944D01*
X130535199Y-97387945D01*
X130537512Y-97405519D01*
X130526744Y-97474554D01*
X130480362Y-97526808D01*
X130474635Y-97529762D01*
X130474695Y-97529866D01*
X130467658Y-97533928D01*
X130342219Y-97630180D01*
X130245963Y-97755624D01*
X130185456Y-97901701D01*
X130185455Y-97901703D01*
X130164818Y-98058462D01*
X130164818Y-98058465D01*
X130185455Y-98215224D01*
X130185457Y-98215229D01*
X130243119Y-98354439D01*
X130250588Y-98423908D01*
X130219313Y-98486387D01*
X130159223Y-98522039D01*
X130112374Y-98524830D01*
X130070503Y-98519318D01*
X130070499Y-98519318D01*
X129913739Y-98539955D01*
X129913737Y-98539956D01*
X129767660Y-98600463D01*
X129767658Y-98600464D01*
X129767659Y-98600464D01*
X129642218Y-98696718D01*
X129642217Y-98696719D01*
X129642216Y-98696720D01*
X129557978Y-98806500D01*
X129501550Y-98847703D01*
X129431804Y-98851857D01*
X129384120Y-98829390D01*
X129313841Y-98775464D01*
X129312745Y-98775010D01*
X129311962Y-98774379D01*
X129306799Y-98771398D01*
X129307263Y-98770592D01*
X129258342Y-98731168D01*
X129236278Y-98664874D01*
X129245638Y-98612996D01*
X129250829Y-98600464D01*
X129278044Y-98534762D01*
X129298682Y-98378000D01*
X129298461Y-98376325D01*
X129278044Y-98221239D01*
X129278044Y-98221238D01*
X129217536Y-98075159D01*
X129121282Y-97949718D01*
X128995841Y-97853464D01*
X128952385Y-97835464D01*
X128849762Y-97792956D01*
X128849760Y-97792955D01*
X128693001Y-97772318D01*
X128692999Y-97772318D01*
X128536239Y-97792955D01*
X128536237Y-97792956D01*
X128390160Y-97853463D01*
X128264718Y-97949718D01*
X128168463Y-98075160D01*
X128107956Y-98221237D01*
X128107955Y-98221239D01*
X128087318Y-98377998D01*
X128087318Y-98378001D01*
X128107955Y-98534760D01*
X128107956Y-98534762D01*
X128161008Y-98662842D01*
X128168464Y-98680841D01*
X128264718Y-98806282D01*
X128390159Y-98902536D01*
X128391248Y-98902987D01*
X128392027Y-98903615D01*
X128397196Y-98906599D01*
X128396730Y-98907404D01*
X128445654Y-98946825D01*
X128467722Y-99013118D01*
X128458362Y-99065002D01*
X128425957Y-99143234D01*
X128425955Y-99143239D01*
X128405318Y-99299998D01*
X128405318Y-99300001D01*
X128425955Y-99456760D01*
X128425956Y-99456762D01*
X128484708Y-99598603D01*
X128486464Y-99602841D01*
X128582718Y-99728282D01*
X128681326Y-99803946D01*
X128722527Y-99860373D01*
X128726682Y-99930119D01*
X128692470Y-99991040D01*
X128630752Y-100023792D01*
X128622025Y-100025259D01*
X128598788Y-100028319D01*
X128598787Y-100028319D01*
X128452710Y-100088826D01*
X128446960Y-100093238D01*
X128327268Y-100185081D01*
X128327267Y-100185082D01*
X128327266Y-100185083D01*
X128281883Y-100244227D01*
X128225455Y-100285429D01*
X128155709Y-100289584D01*
X128136055Y-100283301D01*
X128056763Y-100250457D01*
X128056761Y-100250456D01*
X127900002Y-100229819D01*
X127900000Y-100229819D01*
X127743240Y-100250456D01*
X127743238Y-100250457D01*
X127597161Y-100310964D01*
X127471719Y-100407219D01*
X127375464Y-100532661D01*
X127314957Y-100678738D01*
X127314956Y-100678740D01*
X127294319Y-100835499D01*
X127294319Y-100835502D01*
X123678283Y-100835502D01*
X123681762Y-100835044D01*
X123827841Y-100774536D01*
X123953282Y-100678282D01*
X124049536Y-100552841D01*
X124110044Y-100406762D01*
X124130682Y-100250000D01*
X124110044Y-100093238D01*
X124049536Y-99947159D01*
X123953282Y-99821718D01*
X123827841Y-99725464D01*
X123790611Y-99710043D01*
X123785054Y-99707741D01*
X123681762Y-99664956D01*
X123637122Y-99659079D01*
X123573226Y-99630812D01*
X123538747Y-99583593D01*
X123536416Y-99577965D01*
X123493660Y-99474743D01*
X123397406Y-99349302D01*
X123271965Y-99253048D01*
X123125886Y-99192540D01*
X123125884Y-99192539D01*
X122969125Y-99171902D01*
X122969121Y-99171902D01*
X122894603Y-99181712D01*
X122825568Y-99170946D01*
X122773313Y-99124566D01*
X122754428Y-99057297D01*
X122755480Y-99042587D01*
X122762019Y-98992920D01*
X122762019Y-98992919D01*
X122741381Y-98836160D01*
X122741381Y-98836159D01*
X122680873Y-98690080D01*
X122584619Y-98564639D01*
X122459178Y-98468385D01*
X122428510Y-98455682D01*
X122313099Y-98407877D01*
X122313097Y-98407876D01*
X122156338Y-98387239D01*
X122156336Y-98387239D01*
X121999576Y-98407876D01*
X121999574Y-98407877D01*
X121853497Y-98468384D01*
X121728055Y-98564639D01*
X121631800Y-98690081D01*
X121571293Y-98836158D01*
X121571292Y-98836160D01*
X121550655Y-98992919D01*
X121550655Y-98992922D01*
X118975000Y-98992922D01*
X118975000Y-98475336D01*
X118994684Y-98408301D01*
X119047487Y-98362546D01*
X119116646Y-98352602D01*
X119174483Y-98376962D01*
X119274260Y-98453524D01*
X119420339Y-98514032D01*
X119498719Y-98524350D01*
X119577100Y-98534670D01*
X119577101Y-98534670D01*
X119577102Y-98534670D01*
X119629355Y-98527790D01*
X119733863Y-98514032D01*
X119879942Y-98453524D01*
X119948619Y-98400826D01*
X120013786Y-98375633D01*
X120071557Y-98384642D01*
X120193238Y-98435044D01*
X120271619Y-98445363D01*
X120349999Y-98455682D01*
X120350000Y-98455682D01*
X120350001Y-98455682D01*
X120402253Y-98448802D01*
X120506762Y-98435044D01*
X120644476Y-98378001D01*
X122994318Y-98378001D01*
X123014955Y-98534760D01*
X123014956Y-98534762D01*
X123068008Y-98662842D01*
X123075464Y-98680841D01*
X123171718Y-98806282D01*
X123297159Y-98902536D01*
X123443238Y-98963044D01*
X123521619Y-98973363D01*
X123599999Y-98983682D01*
X123600000Y-98983682D01*
X123600001Y-98983682D01*
X123652253Y-98976802D01*
X123756762Y-98963044D01*
X123902841Y-98902536D01*
X124028282Y-98806282D01*
X124124536Y-98680841D01*
X124180478Y-98545784D01*
X124224317Y-98491382D01*
X124290611Y-98469317D01*
X124358311Y-98486596D01*
X124393911Y-98522623D01*
X124395516Y-98521392D01*
X124400463Y-98527839D01*
X124400464Y-98527841D01*
X124496718Y-98653282D01*
X124622159Y-98749536D01*
X124768238Y-98810044D01*
X124846618Y-98820363D01*
X124924999Y-98830682D01*
X124925000Y-98830682D01*
X124925001Y-98830682D01*
X124989739Y-98822159D01*
X125081762Y-98810044D01*
X125227841Y-98749536D01*
X125353282Y-98653282D01*
X125449536Y-98527841D01*
X125491203Y-98427247D01*
X125535042Y-98372845D01*
X125601336Y-98350780D01*
X125669036Y-98368059D01*
X125681235Y-98376315D01*
X125776659Y-98449536D01*
X125922738Y-98510044D01*
X125973767Y-98516762D01*
X126079499Y-98530682D01*
X126079500Y-98530682D01*
X126079501Y-98530682D01*
X126131754Y-98523802D01*
X126236262Y-98510044D01*
X126382341Y-98449536D01*
X126507782Y-98353282D01*
X126604036Y-98227841D01*
X126664544Y-98081762D01*
X126680800Y-97958282D01*
X126685182Y-97925001D01*
X126685182Y-97924998D01*
X126664544Y-97768239D01*
X126664544Y-97768238D01*
X126604036Y-97622159D01*
X126507782Y-97496718D01*
X126382341Y-97400464D01*
X126367568Y-97394345D01*
X126236262Y-97339956D01*
X126236260Y-97339955D01*
X126079501Y-97319318D01*
X126079499Y-97319318D01*
X125922739Y-97339955D01*
X125922737Y-97339956D01*
X125776660Y-97400463D01*
X125651218Y-97496718D01*
X125554963Y-97622160D01*
X125513297Y-97722751D01*
X125469456Y-97777154D01*
X125403161Y-97799219D01*
X125335462Y-97781940D01*
X125323260Y-97773681D01*
X125227841Y-97700464D01*
X125204471Y-97690784D01*
X125081762Y-97639956D01*
X125081760Y-97639955D01*
X124956524Y-97623468D01*
X124892627Y-97595201D01*
X124858148Y-97547982D01*
X124850700Y-97530001D01*
X124827955Y-97475090D01*
X124731701Y-97349649D01*
X124606260Y-97253395D01*
X124584346Y-97244318D01*
X124460181Y-97192887D01*
X124460179Y-97192886D01*
X124303420Y-97172249D01*
X124303418Y-97172249D01*
X124146658Y-97192886D01*
X124146656Y-97192887D01*
X124000579Y-97253394D01*
X123875137Y-97349649D01*
X123778882Y-97475091D01*
X123718375Y-97621168D01*
X123718375Y-97621170D01*
X123712632Y-97664790D01*
X123684365Y-97728687D01*
X123626040Y-97767157D01*
X123605879Y-97771543D01*
X123461846Y-97790506D01*
X123443238Y-97792956D01*
X123443237Y-97792956D01*
X123297160Y-97853463D01*
X123171718Y-97949718D01*
X123075463Y-98075160D01*
X123014956Y-98221237D01*
X123014955Y-98221239D01*
X122994318Y-98377998D01*
X122994318Y-98378001D01*
X120644476Y-98378001D01*
X120652841Y-98374536D01*
X120768674Y-98285653D01*
X120833842Y-98260461D01*
X120891611Y-98269470D01*
X120912886Y-98278282D01*
X120940075Y-98289544D01*
X121018456Y-98299863D01*
X121096836Y-98310182D01*
X121096837Y-98310182D01*
X121096838Y-98310182D01*
X121149091Y-98303302D01*
X121253599Y-98289544D01*
X121399678Y-98229036D01*
X121525119Y-98132782D01*
X121621373Y-98007341D01*
X121681881Y-97861262D01*
X121702519Y-97704500D01*
X121700183Y-97686760D01*
X121681881Y-97547739D01*
X121681881Y-97547738D01*
X121621373Y-97401659D01*
X121547180Y-97304968D01*
X121521987Y-97239801D01*
X121536025Y-97171357D01*
X121584839Y-97121367D01*
X121629370Y-97106545D01*
X121761966Y-97089089D01*
X121908045Y-97028581D01*
X122033486Y-96932327D01*
X122129740Y-96806886D01*
X122190248Y-96660807D01*
X122210886Y-96504045D01*
X122190248Y-96347283D01*
X122129740Y-96201204D01*
X122033486Y-96075763D01*
X121908045Y-95979509D01*
X121904556Y-95978064D01*
X121761966Y-95919001D01*
X121761964Y-95919000D01*
X121605205Y-95898363D01*
X121605203Y-95898363D01*
X121448443Y-95919000D01*
X121448441Y-95919001D01*
X121302364Y-95979508D01*
X121176922Y-96075763D01*
X121080667Y-96201205D01*
X121020160Y-96347282D01*
X121020159Y-96347284D01*
X120999522Y-96504043D01*
X120999522Y-96504046D01*
X121020159Y-96660805D01*
X121020160Y-96660807D01*
X121080668Y-96806887D01*
X121154859Y-96903574D01*
X121180053Y-96968743D01*
X121166015Y-97037188D01*
X121117201Y-97087177D01*
X121072669Y-97101999D01*
X120959636Y-97116880D01*
X120940075Y-97119456D01*
X120940074Y-97119456D01*
X120793994Y-97179964D01*
X120678163Y-97268845D01*
X120612994Y-97294039D01*
X120555226Y-97285030D01*
X120506762Y-97264956D01*
X120506760Y-97264955D01*
X120350001Y-97244318D01*
X120349999Y-97244318D01*
X120193239Y-97264955D01*
X120193237Y-97264956D01*
X120047158Y-97325464D01*
X119978481Y-97378161D01*
X119913312Y-97403354D01*
X119855544Y-97394345D01*
X119733866Y-97343945D01*
X119733861Y-97343943D01*
X119577102Y-97323306D01*
X119577100Y-97323306D01*
X119420340Y-97343943D01*
X119420338Y-97343944D01*
X119274258Y-97404452D01*
X119174486Y-97481011D01*
X119109317Y-97506205D01*
X119040872Y-97492167D01*
X118990883Y-97443353D01*
X118975000Y-97382635D01*
X118975000Y-95219627D01*
X118994685Y-95152588D01*
X119047489Y-95106833D01*
X119082813Y-95096688D01*
X119171262Y-95085044D01*
X119252473Y-95051404D01*
X119321943Y-95043936D01*
X119384422Y-95075211D01*
X119420074Y-95135300D01*
X119417580Y-95205125D01*
X119398302Y-95241452D01*
X119359010Y-95292657D01*
X119298502Y-95438737D01*
X119298501Y-95438739D01*
X119277864Y-95595498D01*
X119277864Y-95595501D01*
X119298501Y-95752260D01*
X119298502Y-95752262D01*
X119347981Y-95871716D01*
X119359010Y-95898341D01*
X119455264Y-96023782D01*
X119455265Y-96023783D01*
X119455267Y-96023785D01*
X119466965Y-96032761D01*
X119508168Y-96089188D01*
X119514418Y-96147322D01*
X119494317Y-96299998D01*
X119494318Y-96300001D01*
X119514955Y-96456760D01*
X119514956Y-96456762D01*
X119572204Y-96594972D01*
X119575464Y-96602841D01*
X119671718Y-96728282D01*
X119797159Y-96824536D01*
X119943238Y-96885044D01*
X120021619Y-96895363D01*
X120099999Y-96905682D01*
X120100000Y-96905682D01*
X120100001Y-96905682D01*
X120152254Y-96898802D01*
X120256762Y-96885044D01*
X120402841Y-96824536D01*
X120528282Y-96728282D01*
X120624536Y-96602841D01*
X120685044Y-96456762D01*
X120705682Y-96300000D01*
X120694259Y-96213237D01*
X120685044Y-96143239D01*
X120685044Y-96143238D01*
X120624536Y-95997159D01*
X120528282Y-95871718D01*
X120528280Y-95871717D01*
X120528280Y-95871716D01*
X120516580Y-95862739D01*
X120475377Y-95806311D01*
X120469140Y-95748081D01*
X120469171Y-95747841D01*
X120497489Y-95683970D01*
X120544643Y-95649569D01*
X120687408Y-95590434D01*
X120812849Y-95494180D01*
X120909103Y-95368739D01*
X120969611Y-95222660D01*
X120990249Y-95065898D01*
X120989595Y-95060934D01*
X120978691Y-94978110D01*
X128093908Y-94978110D01*
X128114545Y-95134869D01*
X128114546Y-95134871D01*
X128173261Y-95276622D01*
X128175056Y-95280954D01*
X128175324Y-95281419D01*
X128175430Y-95281859D01*
X128178164Y-95288458D01*
X128177134Y-95288884D01*
X128191790Y-95349321D01*
X128177831Y-95396861D01*
X128178798Y-95397262D01*
X128115180Y-95550848D01*
X128115179Y-95550850D01*
X128094542Y-95707609D01*
X128094542Y-95707612D01*
X128115179Y-95864371D01*
X128115180Y-95864373D01*
X128162870Y-95979508D01*
X128175688Y-96010452D01*
X128271942Y-96135893D01*
X128397383Y-96232147D01*
X128543462Y-96292655D01*
X128599238Y-96299998D01*
X128700223Y-96313293D01*
X128700224Y-96313293D01*
X128700225Y-96313293D01*
X128752477Y-96306413D01*
X128856986Y-96292655D01*
X129003065Y-96232147D01*
X129128506Y-96135893D01*
X129224760Y-96010452D01*
X129285268Y-95864373D01*
X129305906Y-95707611D01*
X129298445Y-95650942D01*
X129292147Y-95603102D01*
X129285268Y-95550849D01*
X129261795Y-95494180D01*
X129224761Y-95404770D01*
X129224499Y-95404317D01*
X129224394Y-95403885D01*
X129221650Y-95397260D01*
X129222682Y-95396832D01*
X129208022Y-95336418D01*
X129221986Y-95288861D01*
X129221016Y-95288460D01*
X129266895Y-95177696D01*
X129284634Y-95134871D01*
X129305272Y-94978109D01*
X129296191Y-94909135D01*
X129284634Y-94821348D01*
X129284634Y-94821347D01*
X129224126Y-94675268D01*
X129224124Y-94675265D01*
X129221443Y-94670620D01*
X129204972Y-94602719D01*
X129221450Y-94546612D01*
X129224482Y-94541361D01*
X129224483Y-94541360D01*
X129284991Y-94395281D01*
X129305629Y-94238519D01*
X129303863Y-94225108D01*
X129284991Y-94081758D01*
X129284991Y-94081757D01*
X129271837Y-94050001D01*
X130254318Y-94050001D01*
X130274955Y-94206760D01*
X130274956Y-94206762D01*
X130323542Y-94324060D01*
X130335464Y-94352841D01*
X130431718Y-94478282D01*
X130557159Y-94574536D01*
X130703238Y-94635044D01*
X130781619Y-94645363D01*
X130859999Y-94655682D01*
X130860000Y-94655682D01*
X130995154Y-94637888D01*
X131064185Y-94648653D01*
X131116441Y-94695033D01*
X131134275Y-94744641D01*
X131155542Y-94906175D01*
X131155542Y-94906176D01*
X131192573Y-94995578D01*
X131216050Y-95052255D01*
X131312304Y-95177696D01*
X131437745Y-95273950D01*
X131583824Y-95334458D01*
X131644499Y-95342446D01*
X131740585Y-95355096D01*
X131740586Y-95355096D01*
X131740587Y-95355096D01*
X131792840Y-95348216D01*
X131897348Y-95334458D01*
X132043427Y-95273950D01*
X132168868Y-95177696D01*
X132265122Y-95052255D01*
X132325630Y-94906176D01*
X132346268Y-94749414D01*
X132325630Y-94592652D01*
X132265122Y-94446573D01*
X132168868Y-94321132D01*
X132043427Y-94224878D01*
X131999686Y-94206760D01*
X131897348Y-94164370D01*
X131897346Y-94164369D01*
X131740587Y-94143732D01*
X131740585Y-94143732D01*
X131605434Y-94161525D01*
X131536399Y-94150759D01*
X131484143Y-94104379D01*
X131466310Y-94054771D01*
X131446370Y-93903311D01*
X131445044Y-93893238D01*
X131384536Y-93747159D01*
X131288282Y-93621718D01*
X131162841Y-93525464D01*
X131102483Y-93500463D01*
X131016762Y-93464956D01*
X131016760Y-93464955D01*
X130860001Y-93444318D01*
X130859999Y-93444318D01*
X130703239Y-93464955D01*
X130703237Y-93464956D01*
X130557160Y-93525463D01*
X130431718Y-93621718D01*
X130335463Y-93747160D01*
X130274956Y-93893237D01*
X130274955Y-93893239D01*
X130254318Y-94049998D01*
X130254318Y-94050001D01*
X129271837Y-94050001D01*
X129232595Y-93955264D01*
X129225127Y-93885795D01*
X129248782Y-93832325D01*
X129263680Y-93812911D01*
X129324188Y-93666832D01*
X129342799Y-93525464D01*
X129344826Y-93510071D01*
X129344826Y-93510068D01*
X129324188Y-93353309D01*
X129324188Y-93353308D01*
X129263680Y-93207229D01*
X129206987Y-93133346D01*
X129181795Y-93068180D01*
X129195833Y-92999735D01*
X129244647Y-92949745D01*
X129312738Y-92934081D01*
X129352815Y-92943300D01*
X129393238Y-92960044D01*
X129471618Y-92970363D01*
X129549999Y-92980682D01*
X129550000Y-92980682D01*
X129550001Y-92980682D01*
X129602254Y-92973802D01*
X129706762Y-92960044D01*
X129852841Y-92899536D01*
X129978282Y-92803282D01*
X130074536Y-92677841D01*
X130135044Y-92531762D01*
X130139225Y-92500001D01*
X131244318Y-92500001D01*
X131264955Y-92656760D01*
X131264956Y-92656762D01*
X131322095Y-92794709D01*
X131325464Y-92802841D01*
X131421718Y-92928282D01*
X131547159Y-93024536D01*
X131693238Y-93085044D01*
X131771618Y-93095363D01*
X131849999Y-93105682D01*
X131850000Y-93105682D01*
X131850001Y-93105682D01*
X131902253Y-93098802D01*
X132006762Y-93085044D01*
X132152841Y-93024536D01*
X132278282Y-92928282D01*
X132374536Y-92802841D01*
X132435044Y-92656762D01*
X132449847Y-92544318D01*
X132455682Y-92500001D01*
X132455682Y-92499998D01*
X132439226Y-92375001D01*
X132435044Y-92343238D01*
X132374536Y-92197159D01*
X132278282Y-92071718D01*
X132152841Y-91975464D01*
X132006762Y-91914956D01*
X132006760Y-91914955D01*
X131850001Y-91894318D01*
X131849999Y-91894318D01*
X131693239Y-91914955D01*
X131693237Y-91914956D01*
X131547160Y-91975463D01*
X131421718Y-92071718D01*
X131325463Y-92197160D01*
X131264956Y-92343237D01*
X131264955Y-92343239D01*
X131244318Y-92499998D01*
X131244318Y-92500001D01*
X130139225Y-92500001D01*
X130155682Y-92375000D01*
X130151500Y-92343238D01*
X130135044Y-92218239D01*
X130135044Y-92218238D01*
X130074536Y-92072159D01*
X129978282Y-91946718D01*
X129852841Y-91850464D01*
X129706762Y-91789956D01*
X129706760Y-91789955D01*
X129550001Y-91769318D01*
X129549999Y-91769318D01*
X129393239Y-91789955D01*
X129393237Y-91789956D01*
X129247160Y-91850463D01*
X129121718Y-91946718D01*
X129025463Y-92072160D01*
X128964956Y-92218237D01*
X128964955Y-92218239D01*
X128944318Y-92374998D01*
X128944318Y-92375001D01*
X128964955Y-92531760D01*
X128964956Y-92531762D01*
X129025464Y-92677841D01*
X129082154Y-92751722D01*
X129107348Y-92816890D01*
X129093310Y-92885334D01*
X129044496Y-92935324D01*
X128976405Y-92950988D01*
X128936326Y-92941768D01*
X128895909Y-92925027D01*
X128895904Y-92925025D01*
X128739145Y-92904388D01*
X128739143Y-92904388D01*
X128582383Y-92925025D01*
X128582381Y-92925026D01*
X128436304Y-92985533D01*
X128310862Y-93081788D01*
X128214607Y-93207230D01*
X128154100Y-93353307D01*
X128154099Y-93353309D01*
X128133462Y-93510068D01*
X128133462Y-93510071D01*
X128154099Y-93666830D01*
X128154100Y-93666832D01*
X128206494Y-93793322D01*
X128213963Y-93862792D01*
X128190310Y-93916259D01*
X128175412Y-93935674D01*
X128175412Y-93935675D01*
X128114903Y-94081756D01*
X128114902Y-94081758D01*
X128094265Y-94238517D01*
X128094265Y-94238520D01*
X128114902Y-94395279D01*
X128114903Y-94395281D01*
X128175410Y-94541358D01*
X128178093Y-94546005D01*
X128194564Y-94613906D01*
X128178096Y-94669997D01*
X128175056Y-94675262D01*
X128114546Y-94821346D01*
X128114545Y-94821348D01*
X128093908Y-94978107D01*
X128093908Y-94978110D01*
X120978691Y-94978110D01*
X120969611Y-94909137D01*
X120969611Y-94909136D01*
X120909103Y-94763057D01*
X120812849Y-94637616D01*
X120687408Y-94541362D01*
X120687403Y-94541360D01*
X120587551Y-94500000D01*
X120541329Y-94480854D01*
X120496811Y-94474993D01*
X120430599Y-94466276D01*
X120366703Y-94438009D01*
X120332743Y-94386525D01*
X120331248Y-94387145D01*
X120313061Y-94343238D01*
X120267630Y-94233557D01*
X120171376Y-94108116D01*
X120045935Y-94011862D01*
X119899856Y-93951354D01*
X119899854Y-93951353D01*
X119743095Y-93930716D01*
X119743093Y-93930716D01*
X119586333Y-93951353D01*
X119586328Y-93951355D01*
X119457377Y-94004768D01*
X119387908Y-94012237D01*
X119334440Y-93988584D01*
X119317341Y-93975464D01*
X119268576Y-93955265D01*
X119171262Y-93914956D01*
X119156576Y-93913022D01*
X119082814Y-93903311D01*
X119018917Y-93875044D01*
X118980447Y-93816719D01*
X118975000Y-93780372D01*
X118975000Y-93150001D01*
X119894318Y-93150001D01*
X119914955Y-93306760D01*
X119914956Y-93306762D01*
X119971933Y-93444318D01*
X119975464Y-93452841D01*
X120071718Y-93578282D01*
X120197159Y-93674536D01*
X120343238Y-93735044D01*
X120421619Y-93745363D01*
X120499999Y-93755682D01*
X120500000Y-93755682D01*
X120500001Y-93755682D01*
X120564739Y-93747159D01*
X120656762Y-93735044D01*
X120802841Y-93674536D01*
X120833221Y-93651224D01*
X120898388Y-93626029D01*
X120966834Y-93640066D01*
X121016824Y-93688879D01*
X121031647Y-93733413D01*
X121039534Y-93793322D01*
X121052688Y-93893237D01*
X121053023Y-93895777D01*
X121053023Y-93895778D01*
X121106548Y-94025000D01*
X121113531Y-94041857D01*
X121209785Y-94167298D01*
X121335226Y-94263552D01*
X121481305Y-94324060D01*
X121510010Y-94327839D01*
X121638066Y-94344698D01*
X121638067Y-94344698D01*
X121638068Y-94344698D01*
X121690320Y-94337818D01*
X121794829Y-94324060D01*
X121940908Y-94263552D01*
X122066349Y-94167298D01*
X122162603Y-94041857D01*
X122169585Y-94025001D01*
X122844318Y-94025001D01*
X122864955Y-94181760D01*
X122864956Y-94181762D01*
X122898834Y-94263552D01*
X122925464Y-94327841D01*
X123021718Y-94453282D01*
X123147159Y-94549536D01*
X123293238Y-94610044D01*
X123371618Y-94620363D01*
X123449999Y-94630682D01*
X123450000Y-94630682D01*
X123450001Y-94630682D01*
X123502253Y-94623802D01*
X123606762Y-94610044D01*
X123752841Y-94549536D01*
X123878282Y-94453282D01*
X123974536Y-94327841D01*
X124035044Y-94181762D01*
X124048802Y-94077254D01*
X124055682Y-94025001D01*
X124055682Y-94024998D01*
X124041366Y-93916259D01*
X124035044Y-93868238D01*
X123974536Y-93722159D01*
X123878282Y-93596718D01*
X123752841Y-93500464D01*
X123606762Y-93439956D01*
X123606760Y-93439955D01*
X123450001Y-93419318D01*
X123449999Y-93419318D01*
X123293239Y-93439955D01*
X123293237Y-93439956D01*
X123147160Y-93500463D01*
X123021718Y-93596718D01*
X122925463Y-93722160D01*
X122864956Y-93868237D01*
X122864955Y-93868239D01*
X122844318Y-94024998D01*
X122844318Y-94025001D01*
X122169585Y-94025001D01*
X122223111Y-93895778D01*
X122243749Y-93739016D01*
X122243011Y-93733413D01*
X122228874Y-93626029D01*
X122223111Y-93582254D01*
X122162603Y-93436175D01*
X122066349Y-93310734D01*
X121940908Y-93214480D01*
X121906271Y-93200133D01*
X121794829Y-93153972D01*
X121794827Y-93153971D01*
X121638068Y-93133334D01*
X121638066Y-93133334D01*
X121481306Y-93153971D01*
X121481304Y-93153972D01*
X121335225Y-93214480D01*
X121304843Y-93237793D01*
X121239674Y-93262986D01*
X121171229Y-93248947D01*
X121121240Y-93200133D01*
X121106419Y-93155601D01*
X121105681Y-93149998D01*
X121085044Y-92993238D01*
X121024536Y-92847159D01*
X120928282Y-92721718D01*
X120802841Y-92625464D01*
X120656762Y-92564956D01*
X120656760Y-92564955D01*
X120500001Y-92544318D01*
X120499999Y-92544318D01*
X120343239Y-92564955D01*
X120343237Y-92564956D01*
X120197160Y-92625463D01*
X120134438Y-92673590D01*
X120072279Y-92721288D01*
X120071717Y-92721719D01*
X120033240Y-92771863D01*
X119976811Y-92813065D01*
X119937327Y-92815416D01*
X119953176Y-92845280D01*
X119947363Y-92914907D01*
X119946266Y-92917647D01*
X119914957Y-92993234D01*
X119914955Y-92993239D01*
X119894318Y-93149998D01*
X119894318Y-93150001D01*
X118975000Y-93150001D01*
X118975000Y-93125261D01*
X118994685Y-93058222D01*
X119047489Y-93012467D01*
X119115182Y-93002322D01*
X119266571Y-93022253D01*
X119266572Y-93022253D01*
X119340903Y-93012467D01*
X119423333Y-93001615D01*
X119569412Y-92941107D01*
X119694853Y-92844853D01*
X119733330Y-92794707D01*
X119789756Y-92753506D01*
X119829242Y-92751153D01*
X119813393Y-92721288D01*
X119819208Y-92651660D01*
X119820264Y-92649018D01*
X119851615Y-92573333D01*
X119872253Y-92416571D01*
X119862598Y-92343237D01*
X119851615Y-92259810D01*
X119851615Y-92259809D01*
X119791107Y-92113730D01*
X119791106Y-92113729D01*
X119791106Y-92113728D01*
X119692695Y-91985476D01*
X119667501Y-91920307D01*
X119667071Y-91909990D01*
X119667071Y-89325001D01*
X124919318Y-89325001D01*
X124939955Y-89481760D01*
X124939956Y-89481762D01*
X125000464Y-89627841D01*
X125096718Y-89753282D01*
X125222159Y-89849536D01*
X125368238Y-89910044D01*
X125446618Y-89920363D01*
X125524999Y-89930682D01*
X125525000Y-89930682D01*
X125525001Y-89930682D01*
X125577253Y-89923802D01*
X125681762Y-89910044D01*
X125827841Y-89849536D01*
X125953282Y-89753282D01*
X126049536Y-89627841D01*
X126110044Y-89481762D01*
X126130682Y-89325000D01*
X126110044Y-89168238D01*
X126049536Y-89022159D01*
X125953282Y-88896718D01*
X125827841Y-88800464D01*
X125710621Y-88751910D01*
X125681762Y-88739956D01*
X125681760Y-88739955D01*
X125525001Y-88719318D01*
X125524999Y-88719318D01*
X125368239Y-88739955D01*
X125368237Y-88739956D01*
X125222160Y-88800463D01*
X125096718Y-88896718D01*
X125000463Y-89022160D01*
X124939956Y-89168237D01*
X124939955Y-89168239D01*
X124919318Y-89324998D01*
X124919318Y-89325001D01*
X119667071Y-89325001D01*
X119667071Y-89000684D01*
X119686756Y-88933645D01*
X119703390Y-88913003D01*
X121280074Y-87336319D01*
X121341397Y-87302834D01*
X121367755Y-87300000D01*
X134331000Y-87300000D01*
X134398039Y-87319685D01*
G37*
%TD.AperFunction*%
%TD*%
M02*
