%TF.GenerationSoftware,KiCad,Pcbnew,7.0.7*%
%TF.CreationDate,2023-08-17T16:49:06-04:00*%
%TF.ProjectId,eOPRA_interface,654f5052-415f-4696-9e74-657266616365,rev?*%
%TF.SameCoordinates,Original*%
%TF.FileFunction,Paste,Top*%
%TF.FilePolarity,Positive*%
%FSLAX46Y46*%
G04 Gerber Fmt 4.6, Leading zero omitted, Abs format (unit mm)*
G04 Created by KiCad (PCBNEW 7.0.7) date 2023-08-17 16:49:06*
%MOMM*%
%LPD*%
G01*
G04 APERTURE LIST*
G04 Aperture macros list*
%AMRoundRect*
0 Rectangle with rounded corners*
0 $1 Rounding radius*
0 $2 $3 $4 $5 $6 $7 $8 $9 X,Y pos of 4 corners*
0 Add a 4 corners polygon primitive as box body*
4,1,4,$2,$3,$4,$5,$6,$7,$8,$9,$2,$3,0*
0 Add four circle primitives for the rounded corners*
1,1,$1+$1,$2,$3*
1,1,$1+$1,$4,$5*
1,1,$1+$1,$6,$7*
1,1,$1+$1,$8,$9*
0 Add four rect primitives between the rounded corners*
20,1,$1+$1,$2,$3,$4,$5,0*
20,1,$1+$1,$4,$5,$6,$7,0*
20,1,$1+$1,$6,$7,$8,$9,0*
20,1,$1+$1,$8,$9,$2,$3,0*%
G04 Aperture macros list end*
%ADD10C,0.010000*%
%ADD11R,0.600000X0.500000*%
%ADD12R,1.400000X1.100000*%
%ADD13R,1.100000X1.400000*%
%ADD14R,2.000000X1.200000*%
%ADD15R,1.100000X1.700000*%
%ADD16RoundRect,0.187500X0.312500X0.187500X-0.312500X0.187500X-0.312500X-0.187500X0.312500X-0.187500X0*%
%ADD17R,0.800000X0.900000*%
%ADD18R,1.200000X0.800000*%
%ADD19RoundRect,0.175000X-0.425000X0.175000X-0.425000X-0.175000X0.425000X-0.175000X0.425000X0.175000X0*%
%ADD20R,0.600000X0.800000*%
%ADD21RoundRect,0.006000X-0.431500X-0.094000X0.431500X-0.094000X0.431500X0.094000X-0.431500X0.094000X0*%
%ADD22RoundRect,0.020000X-0.080000X-0.417500X0.080000X-0.417500X0.080000X0.417500X-0.080000X0.417500X0*%
%ADD23RoundRect,0.150000X0.150000X-0.825000X0.150000X0.825000X-0.150000X0.825000X-0.150000X-0.825000X0*%
%ADD24R,3.750000X4.000000*%
%ADD25R,2.500000X3.200000*%
%ADD26R,1.300000X2.200000*%
%ADD27R,1.300000X2.400000*%
%ADD28RoundRect,0.175000X0.425000X-0.175000X0.425000X0.175000X-0.425000X0.175000X-0.425000X-0.175000X0*%
%ADD29R,1.100000X1.100000*%
%ADD30R,1.000000X2.700000*%
%ADD31R,0.600000X1.700000*%
%ADD32RoundRect,0.150000X0.250000X-0.150000X0.250000X0.150000X-0.250000X0.150000X-0.250000X-0.150000X0*%
%ADD33RoundRect,0.150000X-0.250000X0.150000X-0.250000X-0.150000X0.250000X-0.150000X0.250000X0.150000X0*%
%ADD34R,0.300000X1.150000*%
%ADD35R,0.800000X0.600000*%
%ADD36RoundRect,0.150000X0.150000X0.250000X-0.150000X0.250000X-0.150000X-0.250000X0.150000X-0.250000X0*%
%ADD37R,0.500000X0.600000*%
%ADD38RoundRect,0.150000X-0.150000X-0.250000X0.150000X-0.250000X0.150000X0.250000X-0.150000X0.250000X0*%
%ADD39R,0.650000X1.220000*%
%ADD40RoundRect,0.083000X-0.332000X0.479500X-0.332000X-0.479500X0.332000X-0.479500X0.332000X0.479500X0*%
%ADD41R,1.800000X0.850000*%
%ADD42R,1.600000X0.600000*%
%ADD43RoundRect,0.175000X0.175000X0.425000X-0.175000X0.425000X-0.175000X-0.425000X0.175000X-0.425000X0*%
%ADD44R,0.520000X0.830000*%
%ADD45O,0.850000X0.300000*%
%ADD46O,0.300000X0.850000*%
%ADD47RoundRect,0.150000X-0.150000X0.825000X-0.150000X-0.825000X0.150000X-0.825000X0.150000X0.825000X0*%
%ADD48RoundRect,0.250000X0.555000X-0.435000X0.555000X0.435000X-0.555000X0.435000X-0.555000X-0.435000X0*%
%ADD49RoundRect,0.125000X0.125000X-0.262500X0.125000X0.262500X-0.125000X0.262500X-0.125000X-0.262500X0*%
%ADD50R,1.000000X0.370000*%
%ADD51R,0.370000X1.000000*%
%ADD52R,4.250000X4.250000*%
%ADD53R,0.760000X2.600000*%
G04 APERTURE END LIST*
%TO.C,U10*%
D10*
X127105000Y-96790000D02*
X125145000Y-96790000D01*
X125145000Y-94830000D01*
X127105000Y-94830000D01*
X127105000Y-96790000D01*
G36*
X127105000Y-96790000D02*
G01*
X125145000Y-96790000D01*
X125145000Y-94830000D01*
X127105000Y-94830000D01*
X127105000Y-96790000D01*
G37*
%TO.C,U17*%
X163736592Y-83715000D02*
X162125000Y-83715000D01*
X162125000Y-83104397D01*
X163736592Y-83104397D01*
X163736592Y-83715000D01*
G36*
X163736592Y-83715000D02*
G01*
X162125000Y-83715000D01*
X162125000Y-83104397D01*
X163736592Y-83104397D01*
X163736592Y-83715000D01*
G37*
%TD*%
D11*
%TO.C,R24*%
X128225000Y-89150000D03*
X128225000Y-90250000D03*
%TD*%
%TO.C,R23*%
X127150000Y-89150000D03*
X127150000Y-90250000D03*
%TD*%
D12*
%TO.C,Y1*%
X110400000Y-108900000D03*
X108200000Y-108900000D03*
X108200000Y-110500000D03*
X110400000Y-110500000D03*
%TD*%
D13*
%TO.C,Y3*%
X125885000Y-104485000D03*
X125885000Y-102285000D03*
X124285000Y-102285000D03*
X124285000Y-104485000D03*
%TD*%
D14*
%TO.C,U16*%
X149800000Y-123075000D03*
X149800000Y-121075000D03*
X149800000Y-119075000D03*
X149800000Y-117075000D03*
X149800000Y-115075000D03*
X149800000Y-113075000D03*
X149800000Y-111075000D03*
X149800000Y-109075000D03*
D15*
X147300000Y-107575000D03*
X145300000Y-107575000D03*
X143300000Y-107575000D03*
X141300000Y-107575000D03*
X139300000Y-107575000D03*
X137300000Y-107575000D03*
D14*
X134800000Y-109075000D03*
X134800000Y-111075000D03*
X134800000Y-113075000D03*
X134800000Y-115075000D03*
X134800000Y-117075000D03*
X134800000Y-119075000D03*
X134800000Y-121075000D03*
X134800000Y-123075000D03*
%TD*%
D16*
%TO.C,SW3*%
X111150000Y-123255000D03*
X111150000Y-121105000D03*
X106650000Y-123255000D03*
X106650000Y-121105000D03*
%TD*%
%TO.C,SW6*%
X143650000Y-78330000D03*
X143650000Y-76180000D03*
X139150000Y-78330000D03*
X139150000Y-76180000D03*
%TD*%
%TO.C,SW2*%
X137400000Y-78330000D03*
X137400000Y-76180000D03*
X132900000Y-78330000D03*
X132900000Y-76180000D03*
%TD*%
D11*
%TO.C,C33*%
X120300000Y-108475000D03*
X120300000Y-107375000D03*
%TD*%
D17*
%TO.C,D1*%
X115825000Y-101500000D03*
X113925000Y-101500000D03*
X114875000Y-103500000D03*
%TD*%
D18*
%TO.C,Q30*%
X140820000Y-89520000D03*
X140820000Y-92060000D03*
X146970000Y-92060000D03*
X146970000Y-89520000D03*
%TD*%
%TO.C,Q27*%
X140837500Y-85525000D03*
X140837500Y-88065000D03*
X146987500Y-88065000D03*
X146987500Y-85525000D03*
%TD*%
D19*
%TO.C,C20*%
X105625000Y-103200000D03*
X105625000Y-105200000D03*
%TD*%
D11*
%TO.C,C22*%
X106675000Y-109750000D03*
X106675000Y-110850000D03*
%TD*%
D20*
%TO.C,D3*%
X136425000Y-79775000D03*
X134725000Y-79775000D03*
%TD*%
%TO.C,C32*%
X134920000Y-93470000D03*
X136620000Y-93470000D03*
%TD*%
D18*
%TO.C,Q7*%
X148825000Y-97605000D03*
X148825000Y-100145000D03*
X154975000Y-100145000D03*
X154975000Y-97605000D03*
%TD*%
D21*
%TO.C,U10*%
X122690000Y-93210000D03*
X122690000Y-93610000D03*
X122690000Y-94010000D03*
X122690000Y-94410000D03*
X122690000Y-94810000D03*
X122690000Y-95210000D03*
X122690000Y-95610000D03*
X122690000Y-96010000D03*
X122690000Y-96410000D03*
X122690000Y-96810000D03*
X122690000Y-97210000D03*
X122690000Y-97610000D03*
X122690000Y-98010000D03*
X122690000Y-98410000D03*
D22*
X123525000Y-99245000D03*
X123925000Y-99245000D03*
X124325000Y-99245000D03*
X124725000Y-99245000D03*
X125125000Y-99245000D03*
X125525000Y-99245000D03*
X125925000Y-99245000D03*
X126325000Y-99245000D03*
X126725000Y-99245000D03*
X127125000Y-99245000D03*
X127525000Y-99245000D03*
X127925000Y-99245000D03*
X128325000Y-99245000D03*
X128725000Y-99245000D03*
D21*
X129560000Y-98410000D03*
X129560000Y-98010000D03*
X129560000Y-97610000D03*
X129560000Y-97210000D03*
X129560000Y-96810000D03*
X129560000Y-96410000D03*
X129560000Y-96010000D03*
X129560000Y-95610000D03*
X129560000Y-95210000D03*
X129560000Y-94810000D03*
X129560000Y-94410000D03*
X129560000Y-94010000D03*
X129560000Y-93610000D03*
X129560000Y-93210000D03*
D22*
X128725000Y-92375000D03*
X128325000Y-92375000D03*
X127925000Y-92375000D03*
X127525000Y-92375000D03*
X127125000Y-92375000D03*
X126725000Y-92375000D03*
X126325000Y-92375000D03*
X125925000Y-92375000D03*
X125525000Y-92375000D03*
X125125000Y-92375000D03*
X124725000Y-92375000D03*
X124325000Y-92375000D03*
X123925000Y-92375000D03*
X123525000Y-92375000D03*
%TD*%
D20*
%TO.C,D2*%
X151800000Y-118550000D03*
X153500000Y-118550000D03*
%TD*%
D23*
%TO.C,U15*%
X145420000Y-83275000D03*
X146690000Y-83275000D03*
X147960000Y-83275000D03*
X149230000Y-83275000D03*
X149230000Y-78325000D03*
X147960000Y-78325000D03*
X146690000Y-78325000D03*
X145420000Y-78325000D03*
%TD*%
D18*
%TO.C,Q17*%
X140860000Y-97600000D03*
X140860000Y-100140000D03*
X147010000Y-100140000D03*
X147010000Y-97600000D03*
%TD*%
D24*
%TO.C,SW7*%
X172325000Y-114400000D03*
D25*
X170950000Y-122600000D03*
X170950000Y-106200000D03*
X160950000Y-122600000D03*
X160950000Y-106200000D03*
D24*
X159575000Y-114400000D03*
D26*
X168450000Y-106700000D03*
X163450000Y-106700000D03*
X165950000Y-106700000D03*
D27*
X168450000Y-121400000D03*
X163450000Y-121400000D03*
%TD*%
D28*
%TO.C,C31*%
X105625000Y-108525000D03*
X105625000Y-106525000D03*
%TD*%
D11*
%TO.C,C24*%
X112550000Y-102375000D03*
X112550000Y-101275000D03*
%TD*%
D29*
%TO.C,D4*%
X120030000Y-84160000D03*
X120030000Y-86960000D03*
%TD*%
D30*
%TO.C,J2*%
X125200000Y-123050000D03*
X132650000Y-123050000D03*
D31*
X127050000Y-119850000D03*
X128300000Y-119850000D03*
X129550000Y-119850000D03*
X130800000Y-119850000D03*
%TD*%
D32*
%TO.C,R15*%
X110700000Y-103475000D03*
X110700000Y-101775000D03*
%TD*%
D18*
%TO.C,Q15*%
X173300000Y-103025000D03*
X173300000Y-100485000D03*
X167150000Y-100485000D03*
X167150000Y-103025000D03*
%TD*%
D11*
%TO.C,C14*%
X123875000Y-89325000D03*
X123875000Y-88225000D03*
%TD*%
D18*
%TO.C,Q22*%
X148845000Y-89515000D03*
X148845000Y-92055000D03*
X154995000Y-92055000D03*
X154995000Y-89515000D03*
%TD*%
D11*
%TO.C,C10*%
X126050000Y-89325000D03*
X126050000Y-88225000D03*
%TD*%
%TO.C,C34*%
X151800000Y-109125000D03*
X151800000Y-108025000D03*
%TD*%
D33*
%TO.C,R18*%
X112625000Y-121300000D03*
X112625000Y-123000000D03*
%TD*%
D34*
%TO.C,U1*%
X129985000Y-83445000D03*
X129185000Y-83445000D03*
X127885000Y-83445000D03*
X126885000Y-83445000D03*
X126385000Y-83445000D03*
X125385000Y-83445000D03*
X124085000Y-83445000D03*
X123285000Y-83445000D03*
X123585000Y-83445000D03*
X124385000Y-83445000D03*
X124885000Y-83445000D03*
X125885000Y-83445000D03*
X127385000Y-83445000D03*
X128385000Y-83445000D03*
X128885000Y-83445000D03*
X129685000Y-83445000D03*
%TD*%
D35*
%TO.C,C19*%
X110705000Y-104655000D03*
X110705000Y-106355000D03*
%TD*%
D11*
%TO.C,C12*%
X131450000Y-90250000D03*
X131450000Y-89150000D03*
%TD*%
D36*
%TO.C,R28*%
X114700000Y-119400000D03*
X113000000Y-119400000D03*
%TD*%
D18*
%TO.C,Q14*%
X154900000Y-104835000D03*
X154900000Y-102295000D03*
X148750000Y-102295000D03*
X148750000Y-104835000D03*
%TD*%
D35*
%TO.C,C2*%
X111775000Y-96050000D03*
X111775000Y-97750000D03*
%TD*%
D11*
%TO.C,R4*%
X127275000Y-103275000D03*
X127275000Y-102175000D03*
%TD*%
D18*
%TO.C,Q26*%
X173300000Y-95025000D03*
X173300000Y-92485000D03*
X167150000Y-92485000D03*
X167150000Y-95025000D03*
%TD*%
D11*
%TO.C,C8*%
X128360000Y-102150000D03*
X128360000Y-103250000D03*
%TD*%
D18*
%TO.C,Q34*%
X148837500Y-85510000D03*
X148837500Y-88050000D03*
X154987500Y-88050000D03*
X154987500Y-85510000D03*
%TD*%
D37*
%TO.C,C13*%
X120525000Y-93225000D03*
X119425000Y-93225000D03*
%TD*%
D29*
%TO.C,D5*%
X120040000Y-82430000D03*
X120040000Y-79630000D03*
%TD*%
D11*
%TO.C,C15*%
X129450000Y-102150000D03*
X129450000Y-103250000D03*
%TD*%
D28*
%TO.C,C3*%
X111750000Y-94525000D03*
X111750000Y-92525000D03*
%TD*%
D38*
%TO.C,R16*%
X113575000Y-99125000D03*
X115275000Y-99125000D03*
%TD*%
D32*
%TO.C,R7*%
X120650000Y-118100000D03*
X120650000Y-116400000D03*
%TD*%
D38*
%TO.C,R25*%
X117900000Y-113700000D03*
X119600000Y-113700000D03*
%TD*%
D37*
%TO.C,C7*%
X131835000Y-93235000D03*
X132935000Y-93235000D03*
%TD*%
D36*
%TO.C,R11*%
X119600000Y-112300000D03*
X117900000Y-112300000D03*
%TD*%
D39*
%TO.C,U14*%
X109225000Y-103425000D03*
X108275000Y-103425000D03*
X107325000Y-103425000D03*
X107325000Y-106045000D03*
X109225000Y-106045000D03*
%TD*%
D35*
%TO.C,C29*%
X150800000Y-83825000D03*
X150800000Y-82125000D03*
%TD*%
%TO.C,D10*%
X165675000Y-79100000D03*
X165675000Y-77400000D03*
%TD*%
D11*
%TO.C,C23*%
X117200000Y-102350000D03*
X117200000Y-101250000D03*
%TD*%
D38*
%TO.C,R2*%
X128825000Y-86075000D03*
X130525000Y-86075000D03*
%TD*%
D18*
%TO.C,Q20*%
X173290000Y-99010000D03*
X173290000Y-96470000D03*
X167140000Y-96470000D03*
X167140000Y-99010000D03*
%TD*%
D40*
%TO.C,D9*%
X114300000Y-120850000D03*
X114300000Y-122950000D03*
%TD*%
D11*
%TO.C,C17*%
X130375000Y-90250000D03*
X130375000Y-89150000D03*
%TD*%
D20*
%TO.C,C6*%
X107730000Y-101585000D03*
X109430000Y-101585000D03*
%TD*%
D37*
%TO.C,C25*%
X131825000Y-96800000D03*
X132925000Y-96800000D03*
%TD*%
D18*
%TO.C,Q11*%
X140875000Y-93625000D03*
X140875000Y-96165000D03*
X147025000Y-96165000D03*
X147025000Y-93625000D03*
%TD*%
D41*
%TO.C,J6*%
X160348175Y-98315000D03*
X160348175Y-86665000D03*
D42*
X163548175Y-96990000D03*
X157948175Y-96990000D03*
X163548175Y-95990000D03*
X157948175Y-95990000D03*
X163548175Y-94990000D03*
X157948175Y-94990000D03*
X163548175Y-93990000D03*
X157948175Y-93990000D03*
X163548175Y-92990000D03*
X157948175Y-92990000D03*
X163548175Y-91990000D03*
X157948175Y-91990000D03*
X163548175Y-90990000D03*
X157948175Y-90990000D03*
X163548175Y-89990000D03*
X157948175Y-89990000D03*
X163548175Y-88990000D03*
X157948175Y-88990000D03*
X163548175Y-87990000D03*
X157948175Y-87990000D03*
%TD*%
D18*
%TO.C,Q23*%
X173325000Y-91000000D03*
X173325000Y-88460000D03*
X167175000Y-88460000D03*
X167175000Y-91000000D03*
%TD*%
D43*
%TO.C,C30*%
X149200000Y-76175000D03*
X147200000Y-76175000D03*
%TD*%
D35*
%TO.C,C28*%
X143900000Y-81575000D03*
X143900000Y-83275000D03*
%TD*%
D37*
%TO.C,C21*%
X108825000Y-107525000D03*
X107725000Y-107525000D03*
%TD*%
%TO.C,C9*%
X120625000Y-97000000D03*
X119525000Y-97000000D03*
%TD*%
D38*
%TO.C,R1*%
X123310000Y-86090000D03*
X125010000Y-86090000D03*
%TD*%
D44*
%TO.C,Q3*%
X119275000Y-116505000D03*
X117975000Y-116505000D03*
X118625000Y-117975000D03*
%TD*%
D37*
%TO.C,R81*%
X109800000Y-107525000D03*
X110900000Y-107525000D03*
%TD*%
D38*
%TO.C,R20*%
X151800000Y-117050000D03*
X153500000Y-117050000D03*
%TD*%
D23*
%TO.C,U4*%
X135020000Y-91500000D03*
X136290000Y-91500000D03*
X137560000Y-91500000D03*
X138830000Y-91500000D03*
X138830000Y-86550000D03*
X137560000Y-86550000D03*
X136290000Y-86550000D03*
X135020000Y-86550000D03*
%TD*%
D18*
%TO.C,Q9*%
X164125000Y-102800000D03*
X164125000Y-100260000D03*
X157975000Y-100260000D03*
X157975000Y-102800000D03*
%TD*%
D11*
%TO.C,C4*%
X122900000Y-104400000D03*
X122900000Y-103300000D03*
%TD*%
D45*
%TO.C,U17*%
X164630000Y-83160000D03*
D46*
X164180000Y-82210000D03*
X163680000Y-82210000D03*
X163180000Y-82210000D03*
X162680000Y-82210000D03*
X162180000Y-82210000D03*
X161680000Y-82210000D03*
D45*
X161230000Y-83160000D03*
X161230000Y-83660000D03*
D46*
X161680000Y-84610000D03*
X162180000Y-84610000D03*
X162680000Y-84610000D03*
X163180000Y-84610000D03*
X163680000Y-84610000D03*
X164180000Y-84610000D03*
D45*
X164630000Y-83660000D03*
%TD*%
D11*
%TO.C,C11*%
X124975000Y-89325000D03*
X124975000Y-88225000D03*
%TD*%
D37*
%TO.C,R17*%
X132525000Y-79550000D03*
X133625000Y-79550000D03*
%TD*%
D38*
%TO.C,R6*%
X117900000Y-115075000D03*
X119600000Y-115075000D03*
%TD*%
D30*
%TO.C,J5*%
X116100000Y-123075000D03*
X123550000Y-123075000D03*
D31*
X117950000Y-119875000D03*
X119200000Y-119875000D03*
X120450000Y-119875000D03*
X121700000Y-119875000D03*
%TD*%
D32*
%TO.C,R29*%
X163225000Y-79075000D03*
X163225000Y-77375000D03*
%TD*%
D40*
%TO.C,D8*%
X116275000Y-115900000D03*
X116275000Y-118000000D03*
%TD*%
D11*
%TO.C,C16*%
X129300000Y-90250000D03*
X129300000Y-89150000D03*
%TD*%
D47*
%TO.C,U3*%
X109980000Y-93150000D03*
X108710000Y-93150000D03*
X107440000Y-93150000D03*
X106170000Y-93150000D03*
X106170000Y-98100000D03*
X107440000Y-98100000D03*
X108710000Y-98100000D03*
X109980000Y-98100000D03*
%TD*%
D48*
%TO.C,U11*%
X114455000Y-95122500D03*
X116455000Y-95122500D03*
X114455000Y-93422500D03*
X116455000Y-93422500D03*
D49*
X113550000Y-96935000D03*
X114820000Y-96935000D03*
X116090000Y-96935000D03*
X117360000Y-96935000D03*
X117360000Y-91610000D03*
X116090000Y-91610000D03*
X114820000Y-91610000D03*
X113550000Y-91610000D03*
%TD*%
D50*
%TO.C,U13*%
X118675000Y-109775000D03*
X118675000Y-109125000D03*
X118675000Y-108475000D03*
X118675000Y-107825000D03*
X118675000Y-107175000D03*
X118675000Y-106525000D03*
X118675000Y-105875000D03*
D51*
X117775000Y-104975000D03*
X117125000Y-104975000D03*
X116475000Y-104975000D03*
X115825000Y-104975000D03*
X115175000Y-104975000D03*
X114525000Y-104975000D03*
X113875000Y-104975000D03*
D50*
X112975000Y-105875000D03*
X112975000Y-106525000D03*
X112975000Y-107175000D03*
X112975000Y-107825000D03*
X112975000Y-108475000D03*
X112975000Y-109125000D03*
X112975000Y-109775000D03*
D51*
X113875000Y-110675000D03*
X114525000Y-110675000D03*
X115175000Y-110675000D03*
X115825000Y-110675000D03*
X116475000Y-110675000D03*
X117125000Y-110675000D03*
X117775000Y-110675000D03*
D52*
X115825000Y-107825000D03*
%TD*%
D20*
%TO.C,C1*%
X110150000Y-91150000D03*
X108450000Y-91150000D03*
%TD*%
D30*
%TO.C,J4*%
X161455000Y-76882500D03*
X156505000Y-76882500D03*
D31*
X159605000Y-80082500D03*
X158355000Y-80082500D03*
%TD*%
D53*
%TO.C,U2*%
X109965000Y-114750000D03*
X109965000Y-119050000D03*
X108695000Y-114750000D03*
X108695000Y-119050000D03*
X107425000Y-114750000D03*
X107425000Y-119050000D03*
X106155000Y-114750000D03*
X106155000Y-119050000D03*
X104885000Y-114750000D03*
X104885000Y-119050000D03*
%TD*%
D18*
%TO.C,Q1*%
X140780000Y-102280000D03*
X140780000Y-104820000D03*
X146930000Y-104820000D03*
X146930000Y-102280000D03*
%TD*%
D37*
%TO.C,C5*%
X127225000Y-104450000D03*
X128325000Y-104450000D03*
%TD*%
D18*
%TO.C,Q18*%
X148835000Y-93610000D03*
X148835000Y-96150000D03*
X154985000Y-96150000D03*
X154985000Y-93610000D03*
%TD*%
D20*
%TO.C,C18*%
X105420000Y-91150000D03*
X107120000Y-91150000D03*
%TD*%
D18*
%TO.C,Q31*%
X173325000Y-87000000D03*
X173325000Y-84460000D03*
X167175000Y-84460000D03*
X167175000Y-87000000D03*
%TD*%
D32*
%TO.C,R27*%
X114600000Y-118125000D03*
X114600000Y-116425000D03*
%TD*%
M02*
