%TF.GenerationSoftware,KiCad,Pcbnew,7.0.7*%
%TF.CreationDate,2023-08-17T16:49:06-04:00*%
%TF.ProjectId,eOPRA_interface,654f5052-415f-4696-9e74-657266616365,rev?*%
%TF.SameCoordinates,Original*%
%TF.FileFunction,Copper,L3,Inr*%
%TF.FilePolarity,Positive*%
%FSLAX46Y46*%
G04 Gerber Fmt 4.6, Leading zero omitted, Abs format (unit mm)*
G04 Created by KiCad (PCBNEW 7.0.7) date 2023-08-17 16:49:06*
%MOMM*%
%LPD*%
G01*
G04 APERTURE LIST*
G04 Aperture macros list*
%AMRoundRect*
0 Rectangle with rounded corners*
0 $1 Rounding radius*
0 $2 $3 $4 $5 $6 $7 $8 $9 X,Y pos of 4 corners*
0 Add a 4 corners polygon primitive as box body*
4,1,4,$2,$3,$4,$5,$6,$7,$8,$9,$2,$3,0*
0 Add four circle primitives for the rounded corners*
1,1,$1+$1,$2,$3*
1,1,$1+$1,$4,$5*
1,1,$1+$1,$6,$7*
1,1,$1+$1,$8,$9*
0 Add four rect primitives between the rounded corners*
20,1,$1+$1,$2,$3,$4,$5,0*
20,1,$1+$1,$4,$5,$6,$7,0*
20,1,$1+$1,$6,$7,$8,$9,0*
20,1,$1+$1,$8,$9,$2,$3,0*%
G04 Aperture macros list end*
%TA.AperFunction,ComponentPad*%
%ADD10C,1.508000*%
%TD*%
%TA.AperFunction,ComponentPad*%
%ADD11C,2.550000*%
%TD*%
%TA.AperFunction,ComponentPad*%
%ADD12R,2.550000X2.550000*%
%TD*%
%TA.AperFunction,ComponentPad*%
%ADD13C,1.200000*%
%TD*%
%TA.AperFunction,ComponentPad*%
%ADD14C,3.600000*%
%TD*%
%TA.AperFunction,ComponentPad*%
%ADD15C,3.000000*%
%TD*%
%TA.AperFunction,ComponentPad*%
%ADD16RoundRect,0.750000X0.750000X1.000000X-0.750000X1.000000X-0.750000X-1.000000X0.750000X-1.000000X0*%
%TD*%
%TA.AperFunction,ComponentPad*%
%ADD17O,1.000000X2.100000*%
%TD*%
%TA.AperFunction,ComponentPad*%
%ADD18O,1.000000X1.600000*%
%TD*%
%TA.AperFunction,ComponentPad*%
%ADD19C,1.524000*%
%TD*%
%TA.AperFunction,ComponentPad*%
%ADD20C,3.500000*%
%TD*%
%TA.AperFunction,ComponentPad*%
%ADD21C,1.500000*%
%TD*%
%TA.AperFunction,ViaPad*%
%ADD22C,0.600000*%
%TD*%
%TA.AperFunction,ViaPad*%
%ADD23C,1.000000*%
%TD*%
%TA.AperFunction,Conductor*%
%ADD24C,0.200000*%
%TD*%
G04 APERTURE END LIST*
D10*
%TO.N,*%
%TO.C,U5*%
X106300000Y-78800000D03*
X117300000Y-78800000D03*
D11*
%TO.N,GND*%
X114300000Y-88800000D03*
D12*
%TO.N,Net-(U5-+)*%
X109300000Y-88800000D03*
%TD*%
D13*
%TO.N,*%
%TO.C,SW4*%
X172505000Y-82025000D03*
X172505000Y-76945000D03*
%TO.N,Net-(D10-K)*%
X167425000Y-82025000D03*
%TO.N,GNDREF*%
X167425000Y-76945000D03*
%TD*%
D14*
%TO.N,unconnected-(U7-Pad1)*%
%TO.C,U7*%
X153250000Y-77850000D03*
%TD*%
D15*
%TO.N,*%
%TO.C,SW7*%
X165950000Y-114400000D03*
D16*
X165950000Y-109900000D03*
%TD*%
D17*
%TO.N,GND*%
%TO.C,U1*%
X130955000Y-82880000D03*
D18*
X130955000Y-78700000D03*
D17*
X122315000Y-82880000D03*
D18*
X122315000Y-78700000D03*
%TD*%
D14*
%TO.N,unconnected-(U8-Pad1)*%
%TO.C,U8*%
X153250000Y-121900000D03*
%TD*%
%TO.N,unconnected-(U6-Pad1)*%
%TO.C,U6*%
X103100000Y-121900000D03*
%TD*%
%TO.N,unconnected-(U9-Pad1)*%
%TO.C,U9*%
X102520000Y-77858175D03*
%TD*%
D19*
%TO.N,Net-(SP1-+)*%
%TO.C,SP1*%
X123125000Y-112325000D03*
%TO.N,Net-(Q3-D)*%
X130725000Y-112325000D03*
%TD*%
D20*
%TO.N,*%
%TO.C,U12*%
X102450000Y-82613175D03*
X102450000Y-111823175D03*
X153250000Y-82613175D03*
X153250000Y-111823175D03*
D21*
%TO.N,Net-(U12-LITE)*%
X102450000Y-85788175D03*
%TO.N,/MISO0*%
X102450000Y-88333175D03*
%TO.N,/SCK0*%
X102450000Y-90873175D03*
%TO.N,/MOSI0*%
X102450000Y-93413175D03*
%TO.N,/TFT_CS*%
X102450000Y-95953175D03*
%TO.N,/SD_CS*%
X102450000Y-98493175D03*
%TO.N,/TFT_DC*%
X102450000Y-101033175D03*
%TO.N,/peripherals/~{TFT_RESET}*%
X102450000Y-103573175D03*
%TO.N,+3V3*%
X102450000Y-106113175D03*
%TO.N,GND*%
X102450000Y-108653175D03*
%TD*%
D22*
%TO.N,/peripherals/~{TFT_RESET}*%
X105625000Y-123250000D03*
%TO.N,/regulator/SYS_PWR*%
X109425000Y-100750000D03*
X108725000Y-94100000D03*
%TO.N,+3V3*%
X106550000Y-90325000D03*
X131850000Y-92500000D03*
X109850000Y-112750000D03*
X129050000Y-116550000D03*
X116000000Y-99140000D03*
X122475000Y-119875000D03*
X116329500Y-102850000D03*
X156500000Y-111900000D03*
X131775000Y-119850000D03*
X108775000Y-120975000D03*
X124320000Y-118825000D03*
X111775000Y-91650000D03*
X125675000Y-107550000D03*
X112625000Y-122075000D03*
X126304500Y-119450000D03*
X121875000Y-111175000D03*
X113550000Y-90800000D03*
X120500000Y-93150000D03*
X125525000Y-89325000D03*
X118725000Y-113700000D03*
X106425000Y-91150000D03*
X105650000Y-107175000D03*
X132529500Y-97530000D03*
X126079500Y-97925000D03*
X136290000Y-90030000D03*
X148350000Y-109075000D03*
X119577101Y-97928988D03*
X129550000Y-92375000D03*
X147375000Y-113775000D03*
X129130000Y-117650000D03*
%TO.N,/CAN_L*%
X115213498Y-104750000D03*
X116804500Y-119650000D03*
%TO.N,/CAN_H*%
X116275000Y-118992000D03*
X113900000Y-103835000D03*
%TO.N,/ROT_ENC_0*%
X128700224Y-95707611D03*
X133920500Y-98360000D03*
%TO.N,/ROT_ENC_1*%
X128699590Y-94978109D03*
X134450000Y-96370000D03*
D23*
%TO.N,+BATT*%
X120040000Y-81230000D03*
D22*
%TO.N,/ESP-Wifi/EN*%
X146625000Y-116400000D03*
%TO.N,/A_IN_2*%
X114600000Y-118475000D03*
%TO.N,/A_IN_3*%
X115625000Y-119475000D03*
%TO.N,Net-(D10-K)*%
X165270561Y-80979388D03*
X165650000Y-79075000D03*
%TO.N,/RX*%
X111300000Y-116550000D03*
X123450000Y-94025000D03*
%TO.N,/TX*%
X110025000Y-121000000D03*
X121638067Y-93739016D03*
X110548637Y-116500590D03*
%TO.N,/SCL1*%
X129000000Y-115475000D03*
X130860000Y-94050000D03*
X148350000Y-116025000D03*
X128490000Y-121129502D03*
%TO.N,/SDA1*%
X131740586Y-94749414D03*
X128350000Y-114540000D03*
X129720000Y-121129502D03*
%TO.N,EMG_HIGH*%
X148363498Y-104110000D03*
X145740000Y-101990000D03*
%TO.N,EMG_LOW*%
X155840000Y-90740000D03*
X155853819Y-92797760D03*
%TO.N,CHAN_0B_OUT*%
X158050000Y-96980000D03*
X154369500Y-100650000D03*
%TO.N,CHAN_1B_OUT*%
X147560000Y-99780000D03*
X153180000Y-99480500D03*
%TO.N,CHAN_3B_OUT*%
X155395242Y-95881610D03*
X157310000Y-93990000D03*
%TO.N,CHAN_4B_OUT*%
X155279500Y-92260000D03*
X158040000Y-93020000D03*
%TO.N,CHAN_5A_OUT*%
X167285586Y-92400000D03*
X164670000Y-91960000D03*
%TO.N,CHAN_6A_OUT*%
X167416488Y-88434591D03*
X164710000Y-90980000D03*
%TO.N,CHAN_7B_OUT*%
X155900000Y-88060000D03*
X156620000Y-89750000D03*
%TO.N,/SCL0*%
X131140881Y-97387946D03*
X127325000Y-117120500D03*
%TO.N,/SDA0*%
X130770500Y-98058464D03*
X126595500Y-116460000D03*
%TO.N,Net-(Q1-Pad2)*%
X141690000Y-104870000D03*
%TO.N,GNDD*%
X123025000Y-88225000D03*
X125390000Y-95110000D03*
X119350000Y-97075000D03*
X124979500Y-101159920D03*
X122168756Y-104348756D03*
X130560000Y-104310000D03*
X128143941Y-105471507D03*
X119971297Y-92621297D03*
X132940000Y-92500000D03*
X133300000Y-96840000D03*
X131350000Y-89125000D03*
%TO.N,Net-(Q7-Pad2)*%
X149859782Y-100277460D03*
%TO.N,Net-(Q9-Pad2)*%
X163225000Y-100250000D03*
%TO.N,Net-(Q11-Pad2)*%
X141850000Y-96295000D03*
%TO.N,Net-(Q14-Pad2)*%
X153725500Y-102500000D03*
%TO.N,Net-(Q15-Pad2)*%
X171525000Y-100175000D03*
%TO.N,Net-(Q17-Pad2)*%
X141966170Y-100135390D03*
%TO.N,Net-(Q18-Pad2)*%
X149866892Y-96198211D03*
%TO.N,Net-(Q20-Pad2)*%
X171425000Y-96100000D03*
%TO.N,Net-(Q22-Pad2)*%
X149978451Y-92113374D03*
%TO.N,Net-(Q23-Pad2)*%
X172390943Y-88281625D03*
%TO.N,Net-(Q26-Pad2)*%
X171424500Y-92100000D03*
%TO.N,Net-(Q27-Pad2)*%
X141857406Y-88103453D03*
%TO.N,Net-(Q30-Pad2)*%
X141850000Y-92525000D03*
%TO.N,Net-(Q31-Pad2)*%
X172323340Y-84341689D03*
%TO.N,Net-(Q34-Pad2)*%
X149922255Y-88092805D03*
%TO.N,/switch_control/CHAN_0*%
X150500000Y-97829500D03*
X143849500Y-101836297D03*
X164510000Y-86030000D03*
%TO.N,/BUZZER*%
X121096837Y-97704500D03*
X121300000Y-114125000D03*
%TO.N,/processor/CAN_CS*%
X130249518Y-101401585D03*
X120297500Y-112200000D03*
%TO.N,/processor/CAN_STBY*%
X122367051Y-106484499D03*
X128693000Y-98378000D03*
X113040000Y-105860000D03*
%TO.N,/processor/QSPI_CS*%
X132250000Y-80200000D03*
X119266571Y-92416571D03*
%TO.N,/switch_control/CHAN_1*%
X143320000Y-98070000D03*
X163709500Y-85560000D03*
X152520000Y-104720000D03*
%TO.N,/processor/CAN_RESET*%
X119725000Y-113575000D03*
X130070500Y-99125000D03*
%TO.N,/switch_control/CHAN_2*%
X140925000Y-94950000D03*
X164080000Y-86940000D03*
X162000000Y-102474500D03*
%TO.N,/switch_control/CHAN_3*%
X151175000Y-94250000D03*
X162650721Y-85680558D03*
X173050000Y-101875000D03*
%TO.N,/switch_control/CHAN_4*%
X173050000Y-97825000D03*
X161590000Y-85730000D03*
X151290000Y-90150000D03*
%TO.N,/switch_control/CHAN_6*%
X143225000Y-86025000D03*
X160150000Y-84475000D03*
X173150000Y-89634500D03*
%TO.N,/switch_control/CHAN_5*%
X173125000Y-93750000D03*
X161020000Y-84540000D03*
X143190000Y-90200000D03*
%TO.N,/switch_control/CHAN_7*%
X173100000Y-85800000D03*
X160839458Y-82595197D03*
X155925000Y-83850000D03*
%TO.N,Net-(R75-Pad1)*%
X167175000Y-105525000D03*
X168800000Y-106975000D03*
%TO.N,Net-(R76-Pad2)*%
X163525000Y-106950000D03*
%TO.N,/ENC_BUTTON*%
X168425000Y-120875000D03*
%TO.N,/~{RESET}*%
X111900068Y-118706783D03*
X129564199Y-100536974D03*
X133365233Y-90235233D03*
X138425000Y-79475000D03*
%TO.N,/TFT_CS*%
X120350000Y-97850000D03*
X104100000Y-99825000D03*
%TO.N,/SWDIO*%
X110825000Y-118529500D03*
X128755550Y-100613363D03*
%TO.N,/SWCLK*%
X108800000Y-118557998D03*
X127900001Y-100835501D03*
%TO.N,unconnected-(U7-Pad1)*%
X160334502Y-80269500D03*
%TO.N,/SCK0*%
X119014500Y-94500000D03*
%TO.N,/MOSI0*%
X119743094Y-94536398D03*
%TO.N,/MISO0*%
X103450000Y-94400000D03*
X120384567Y-95065898D03*
%TO.N,/SD_CS*%
X120100000Y-96300000D03*
%TO.N,/TFT_DC*%
X119883546Y-95595500D03*
X103800000Y-97250000D03*
%TO.N,/processor/SCK1*%
X122156337Y-98992921D03*
X113290555Y-112661976D03*
%TO.N,/processor/MOSI1*%
X113031647Y-113387573D03*
X122969124Y-99777584D03*
%TO.N,/processor/MISO1*%
X123525000Y-100250000D03*
X112675000Y-114100000D03*
%TO.N,/processor/ENC_CTL_0*%
X159924413Y-83374413D03*
X123600000Y-98378000D03*
X131975000Y-84150000D03*
X165343672Y-83130500D03*
X137706983Y-83960499D03*
%TO.N,/processor/ENC_CTL_1*%
X137209629Y-84493841D03*
X124303419Y-97777931D03*
X164096030Y-81269500D03*
X131262869Y-84689499D03*
X158825000Y-83879500D03*
%TO.N,/processor/ENC_CTL_2*%
X124925000Y-98225000D03*
X163370462Y-81345166D03*
X137715453Y-85019499D03*
X158365318Y-84595500D03*
X131900000Y-85218999D03*
%TO.N,/processor/~{Tx0RTS}*%
X122140422Y-107177906D03*
X118675000Y-105800000D03*
X129011000Y-99300000D03*
%TO.N,/processor/CAN_INT*%
X112817019Y-112107054D03*
X130627378Y-96280905D03*
X114954085Y-114363567D03*
%TO.N,/processor/~{Rx0BF}*%
X113370789Y-111577554D03*
X115475005Y-113376380D03*
X130427000Y-95579462D03*
%TO.N,Net-(U13-TXD)*%
X112750000Y-106563498D03*
X116840400Y-103718500D03*
%TO.N,GNDREF*%
X153957998Y-88350500D03*
X154700000Y-90860000D03*
X160334502Y-80999500D03*
X154450338Y-98708489D03*
X156405498Y-102275000D03*
X165860000Y-81770000D03*
X154358430Y-94919868D03*
X160330000Y-79050000D03*
%TO.N,SWITCHING_3V3*%
X151280000Y-105054500D03*
X172800000Y-83150000D03*
X151499606Y-89450207D03*
X165950000Y-83650000D03*
X163200000Y-79150000D03*
X151581787Y-97379500D03*
X148025000Y-83275000D03*
X151242000Y-86225000D03*
X164750000Y-81828102D03*
X148175000Y-86125000D03*
X147275000Y-76225000D03*
X151677149Y-93394649D03*
%TO.N,/processor/A_IN_2_PIN*%
X128699947Y-94238519D03*
X113900399Y-115417253D03*
%TO.N,/processor/A_IN_3_PIN*%
X113371326Y-115946326D03*
X128739144Y-93510070D03*
%TO.N,GND*%
X111750000Y-93625000D03*
X165875000Y-105450000D03*
X143925000Y-110850000D03*
X114875000Y-102625000D03*
X117375000Y-118000000D03*
X140525000Y-118450000D03*
X143850000Y-115225000D03*
X135675000Y-93475000D03*
X139275000Y-77225000D03*
X108750000Y-112975000D03*
X113445498Y-122475000D03*
X104850000Y-91125000D03*
X139475000Y-81000000D03*
X105625000Y-102300000D03*
X112700000Y-97750000D03*
X117875000Y-102375000D03*
X107525000Y-121100000D03*
X105650000Y-109325000D03*
X113041195Y-120594842D03*
X110425000Y-121725000D03*
X111100000Y-98625000D03*
X113225000Y-110675000D03*
X152425000Y-118575000D03*
X117350000Y-116500000D03*
D23*
X118425000Y-101700000D03*
D22*
X108550000Y-101550000D03*
X126304500Y-120475000D03*
X116825000Y-96984500D03*
X136825000Y-76227500D03*
X108275000Y-102525000D03*
X120750000Y-105200000D03*
X147250000Y-112600000D03*
X131000000Y-121129502D03*
X110850000Y-91150000D03*
X112550000Y-103025000D03*
X136350000Y-109075000D03*
X137019500Y-86575000D03*
X107150000Y-108900000D03*
X111525000Y-101775000D03*
X111550000Y-104675000D03*
X109326502Y-110450000D03*
X156475000Y-111075000D03*
X151775000Y-107375000D03*
X117950000Y-119750000D03*
X134150000Y-76202500D03*
X107075000Y-107525000D03*
%TO.N,/RXD*%
X143000000Y-120400000D03*
%TO.N,/TXD*%
X141775000Y-121500000D03*
%TO.N,/ESP-Wifi/GPIO0*%
X138850000Y-115150000D03*
%TO.N,Net-(U16-IO13)*%
X149775000Y-111075000D03*
%TO.N,Net-(U16-SCLK)*%
X137300000Y-107550000D03*
%TO.N,Net-(U16-CS0)*%
X147300000Y-107575000D03*
%TO.N,Net-(U16-MOSI)*%
X139250000Y-107625000D03*
%TO.N,Net-(U16-MISO)*%
X145275000Y-107575000D03*
%TO.N,Net-(U16-IO12)*%
X149800000Y-113075000D03*
%TO.N,Net-(U16-IO5)*%
X134725000Y-119075000D03*
%TO.N,Net-(U16-IO9)*%
X143250000Y-107575000D03*
%TO.N,Net-(U16-IO10)*%
X141275000Y-107525000D03*
%TO.N,Net-(U16-RESET)*%
X149750000Y-123100000D03*
%TO.N,/ESP-Wifi/ESP_INT*%
X127925000Y-107600000D03*
X133075000Y-116950000D03*
X121605204Y-96504045D03*
%TD*%
D24*
%TO.N,/CAN_L*%
X114230000Y-105095000D02*
X114575000Y-104750000D01*
X114575000Y-104750000D02*
X115213498Y-104750000D01*
X116918658Y-119535842D02*
X116918658Y-118418658D01*
X116399999Y-117899999D02*
X116399999Y-116558309D01*
X116804500Y-119650000D02*
X116918658Y-119535842D01*
X114230000Y-114388310D02*
X114230000Y-105095000D01*
X116399999Y-116558309D02*
X114230000Y-114388310D01*
X116918658Y-118418658D02*
X116399999Y-117899999D01*
%TO.N,/CAN_H*%
X116070000Y-118075170D02*
X116070000Y-116695000D01*
X113900000Y-114525000D02*
X113900000Y-103835000D01*
X116275000Y-118992000D02*
X116275000Y-118280170D01*
X116275000Y-118280170D02*
X116070000Y-118075170D01*
X116070000Y-116695000D02*
X113900000Y-114525000D01*
%TO.N,/ROT_ENC_0*%
X128700224Y-95707611D02*
X128902348Y-95707611D01*
X133230000Y-95860000D02*
X133920500Y-96550500D01*
X133920500Y-96550500D02*
X133920500Y-98360000D01*
X128902348Y-95707611D02*
X129559959Y-95050000D01*
X130780000Y-95050000D02*
X131589999Y-95859999D01*
X131589999Y-95859999D02*
X133230000Y-95860000D01*
X129559959Y-95050000D02*
X130780000Y-95050000D01*
%TO.N,/ROT_ENC_1*%
X128957699Y-94720000D02*
X130961638Y-94720000D01*
X130961638Y-94720000D02*
X131771638Y-95530000D01*
X133610000Y-95530000D02*
X134450000Y-96370000D01*
X128699590Y-94978109D02*
X128957699Y-94720000D01*
X131771638Y-95530000D02*
X133610000Y-95530000D01*
%TO.N,/switch_control/CHAN_0*%
X151051787Y-97277714D02*
X151051787Y-95801920D01*
X150500000Y-97829500D02*
X151051787Y-97277714D01*
X143849500Y-101836297D02*
X144525797Y-101160000D01*
X163646190Y-86090000D02*
X164450000Y-86090000D01*
X151051787Y-95801920D02*
X153201834Y-93651872D01*
X153201834Y-93651872D02*
X153201834Y-87347232D01*
X164450000Y-86090000D02*
X164510000Y-86030000D01*
X144525797Y-101160000D02*
X148227708Y-101160000D01*
X153201834Y-87347232D02*
X153564066Y-86985000D01*
X153564066Y-86985000D02*
X162751190Y-86985000D01*
X150500000Y-98887708D02*
X150500000Y-97829500D01*
X148227708Y-101160000D02*
X150500000Y-98887708D01*
X162751190Y-86985000D02*
X163646190Y-86090000D01*
%TO.N,/BUZZER*%
X121296837Y-114121837D02*
X121300000Y-114125000D01*
X121096837Y-97704500D02*
X121296837Y-97904500D01*
X121296837Y-97904500D02*
X121296837Y-114121837D01*
%TO.N,/switch_control/CHAN_1*%
X152871833Y-93515184D02*
X150747017Y-95640000D01*
X162614500Y-86655000D02*
X153427376Y-86655000D01*
X152871834Y-87210542D02*
X152871833Y-93515184D01*
X151655500Y-105584500D02*
X144901190Y-105584500D01*
X153427376Y-86655000D02*
X152871834Y-87210542D01*
X152520000Y-104720000D02*
X151655500Y-105584500D01*
X145750000Y-95640000D02*
X143320000Y-98070000D01*
X163709500Y-85560000D02*
X162614500Y-86655000D01*
X143320000Y-104003310D02*
X143320000Y-98070000D01*
X150747017Y-95640000D02*
X145750000Y-95640000D01*
X144901190Y-105584500D02*
X143320000Y-104003310D01*
%TO.N,/switch_control/CHAN_2*%
X162000000Y-102474500D02*
X157225500Y-102474500D01*
X163750000Y-100025466D02*
X163755000Y-100030466D01*
X163755000Y-100719500D02*
X162000000Y-102474500D01*
X157225500Y-102474500D02*
X153675000Y-106025000D01*
X163750000Y-87270000D02*
X163750000Y-100025466D01*
X164080000Y-86940000D02*
X163750000Y-87270000D01*
X144875000Y-106025000D02*
X140925000Y-102075000D01*
X140925000Y-102075000D02*
X140925000Y-94950000D01*
X153675000Y-106025000D02*
X144875000Y-106025000D01*
X163755000Y-100030466D02*
X163755000Y-100719500D01*
%TO.N,/switch_control/CHAN_3*%
X165139731Y-85850000D02*
X167352942Y-85850000D01*
X167352942Y-85850000D02*
X172125000Y-90622058D01*
X163391279Y-84940000D02*
X164229731Y-84940000D01*
X162006279Y-86325000D02*
X153290686Y-86325000D01*
X152541834Y-87073852D02*
X152541834Y-93378493D01*
X172125000Y-100950000D02*
X173050000Y-101875000D01*
X152541834Y-93378493D02*
X151670327Y-94250000D01*
X162650721Y-85680558D02*
X163391279Y-84940000D01*
X164229731Y-84940000D02*
X165139731Y-85850000D01*
X151670327Y-94250000D02*
X151175000Y-94250000D01*
X172125000Y-90622058D02*
X172125000Y-100950000D01*
X162650721Y-85680558D02*
X162006279Y-86325000D01*
X153290686Y-86325000D02*
X152541834Y-87073852D01*
%TO.N,/switch_control/CHAN_4*%
X161325000Y-85995000D02*
X161590000Y-85730000D01*
X153153996Y-85995000D02*
X161325000Y-85995000D01*
X161590000Y-85730000D02*
X162709999Y-84610001D01*
X167518628Y-85450000D02*
X172525000Y-90456372D01*
X162709999Y-84610001D02*
X164564415Y-84610001D01*
X152150000Y-89548640D02*
X152150000Y-86998996D01*
X151290000Y-90150000D02*
X151548640Y-90150000D01*
X165404414Y-85450000D02*
X167518628Y-85450000D01*
X164564415Y-84610001D02*
X165404414Y-85450000D01*
X152150000Y-86998996D02*
X153153996Y-85995000D01*
X172525000Y-90456372D02*
X172525000Y-97300000D01*
X151548640Y-90150000D02*
X152150000Y-89548640D01*
X172525000Y-97300000D02*
X173050000Y-97825000D01*
%TO.N,/switch_control/CHAN_6*%
X167920000Y-84720000D02*
X172834500Y-89634500D01*
X165706789Y-84720000D02*
X167920000Y-84720000D01*
X164936789Y-83950000D02*
X165706789Y-84720000D01*
X160675000Y-83950000D02*
X164936789Y-83950000D01*
X144125000Y-85125000D02*
X143225000Y-86025000D01*
X159500000Y-85125000D02*
X144125000Y-85125000D01*
X160150000Y-84475000D02*
X159500000Y-85125000D01*
X172834500Y-89634500D02*
X173150000Y-89634500D01*
X160150000Y-84475000D02*
X160675000Y-83950000D01*
%TO.N,/switch_control/CHAN_5*%
X153017306Y-85665000D02*
X159895000Y-85665000D01*
X151820001Y-86862305D02*
X153017306Y-85665000D01*
X159895000Y-85665000D02*
X161020000Y-84540000D01*
X165570099Y-85050000D02*
X167684314Y-85050000D01*
X167684314Y-85050000D02*
X173125000Y-90490686D01*
X151820000Y-88020000D02*
X151820001Y-86862305D01*
X164800101Y-84280002D02*
X165570099Y-85050000D01*
X149640000Y-90200000D02*
X151820000Y-88020000D01*
X173125000Y-90490686D02*
X173125000Y-93750000D01*
X161020000Y-84540000D02*
X161279998Y-84280002D01*
X143190000Y-90200000D02*
X149640000Y-90200000D01*
X161279998Y-84280002D02*
X164800101Y-84280002D01*
%TO.N,/switch_control/CHAN_7*%
X158179803Y-82595197D02*
X160839458Y-82595197D01*
X169565686Y-85800000D02*
X173100000Y-85800000D01*
X161864261Y-83620000D02*
X165073480Y-83620001D01*
X165073480Y-83620001D02*
X165843479Y-84390000D01*
X165843479Y-84390000D02*
X168155686Y-84390000D01*
X160839458Y-82595197D02*
X161864261Y-83620000D01*
X156925000Y-83850000D02*
X158179803Y-82595197D01*
X155925000Y-83850000D02*
X156925000Y-83850000D01*
X168155686Y-84390000D02*
X169565686Y-85800000D01*
%TO.N,SWITCHING_3V3*%
X151600000Y-104734500D02*
X151600000Y-97397713D01*
X151600000Y-97397713D02*
X151581787Y-97379500D01*
X151280000Y-105054500D02*
X151600000Y-104734500D01*
%TO.N,/ESP-Wifi/ESP_INT*%
X121605204Y-96504045D02*
X121626837Y-96525678D01*
X121626837Y-101301837D02*
X127925000Y-107600000D01*
X121626837Y-96525678D02*
X121626837Y-101301837D01*
%TD*%
%TA.AperFunction,Conductor*%
%TO.N,GNDREF*%
G36*
X162593026Y-78779685D02*
G01*
X162638781Y-78832489D01*
X162648725Y-78901647D01*
X162640548Y-78931452D01*
X162614957Y-78993234D01*
X162614955Y-78993239D01*
X162594318Y-79149998D01*
X162594318Y-79150001D01*
X162614955Y-79306760D01*
X162614956Y-79306762D01*
X162675464Y-79452841D01*
X162771718Y-79578282D01*
X162897159Y-79674536D01*
X163043238Y-79735044D01*
X163118581Y-79744963D01*
X163199999Y-79755682D01*
X163200000Y-79755682D01*
X163200001Y-79755682D01*
X163252254Y-79748802D01*
X163356762Y-79735044D01*
X163502841Y-79674536D01*
X163628282Y-79578282D01*
X163724536Y-79452841D01*
X163785044Y-79306762D01*
X163805682Y-79150000D01*
X163803044Y-79129966D01*
X163785044Y-78993239D01*
X163785042Y-78993234D01*
X163759452Y-78931452D01*
X163751983Y-78861983D01*
X163783259Y-78799504D01*
X163843348Y-78763852D01*
X163874013Y-78760000D01*
X164945756Y-78760000D01*
X165012795Y-78779685D01*
X165058550Y-78832489D01*
X165068494Y-78901647D01*
X165065531Y-78916092D01*
X165064956Y-78918237D01*
X165044318Y-79074998D01*
X165044318Y-79075001D01*
X165064955Y-79231760D01*
X165064956Y-79231762D01*
X165125464Y-79377841D01*
X165221718Y-79503282D01*
X165347159Y-79599536D01*
X165493238Y-79660044D01*
X165521905Y-79663818D01*
X165649999Y-79680682D01*
X165650000Y-79680682D01*
X165650001Y-79680682D01*
X165702253Y-79673802D01*
X165806762Y-79660044D01*
X165952841Y-79599536D01*
X166078282Y-79503282D01*
X166174536Y-79377841D01*
X166235044Y-79231762D01*
X166248061Y-79132886D01*
X166276327Y-79068990D01*
X166334652Y-79030519D01*
X166404517Y-79029688D01*
X166463740Y-79066760D01*
X166493519Y-79129966D01*
X166495000Y-79149072D01*
X166495000Y-83059831D01*
X166475315Y-83126870D01*
X166422511Y-83172625D01*
X166353353Y-83182569D01*
X166295515Y-83158208D01*
X166252841Y-83125464D01*
X166239005Y-83119733D01*
X166106762Y-83064956D01*
X166088994Y-83062616D01*
X166029387Y-83054769D01*
X165965490Y-83026502D01*
X165931012Y-82979282D01*
X165928715Y-82973737D01*
X165868208Y-82827659D01*
X165771954Y-82702218D01*
X165646513Y-82605964D01*
X165629000Y-82598710D01*
X165500434Y-82545456D01*
X165500432Y-82545455D01*
X165343673Y-82524818D01*
X165343671Y-82524818D01*
X165180560Y-82546292D01*
X165111525Y-82535526D01*
X165059269Y-82489146D01*
X165040384Y-82421877D01*
X165060865Y-82355077D01*
X165088887Y-82324978D01*
X165178282Y-82256384D01*
X165274536Y-82130943D01*
X165335044Y-81984864D01*
X165355682Y-81828102D01*
X165354050Y-81815709D01*
X165338787Y-81699772D01*
X165349553Y-81630737D01*
X165395932Y-81578481D01*
X165420005Y-81568004D01*
X165419814Y-81567542D01*
X165427321Y-81564432D01*
X165427323Y-81564432D01*
X165573402Y-81503924D01*
X165698843Y-81407670D01*
X165795097Y-81282229D01*
X165855605Y-81136150D01*
X165876243Y-80979388D01*
X165855605Y-80822626D01*
X165795097Y-80676547D01*
X165698843Y-80551106D01*
X165573402Y-80454852D01*
X165427323Y-80394344D01*
X165427321Y-80394343D01*
X165270562Y-80373706D01*
X165270560Y-80373706D01*
X165113800Y-80394343D01*
X165113798Y-80394344D01*
X164967721Y-80454851D01*
X164842279Y-80551106D01*
X164746024Y-80676548D01*
X164702635Y-80781299D01*
X164658794Y-80835702D01*
X164592499Y-80857767D01*
X164524800Y-80840488D01*
X164512588Y-80832222D01*
X164506035Y-80827194D01*
X164462823Y-80794036D01*
X164398872Y-80744964D01*
X164252792Y-80684456D01*
X164252790Y-80684455D01*
X164096031Y-80663818D01*
X164096029Y-80663818D01*
X163939269Y-80684455D01*
X163939267Y-80684456D01*
X163793188Y-80744964D01*
X163743915Y-80782772D01*
X163678746Y-80807965D01*
X163620977Y-80798956D01*
X163609099Y-80794036D01*
X163527224Y-80760122D01*
X163527222Y-80760121D01*
X163370463Y-80739484D01*
X163370461Y-80739484D01*
X163213701Y-80760121D01*
X163213699Y-80760122D01*
X163067622Y-80820629D01*
X162942180Y-80916884D01*
X162845925Y-81042326D01*
X162785418Y-81188403D01*
X162785417Y-81188405D01*
X162764780Y-81345164D01*
X162764780Y-81345167D01*
X162785417Y-81501926D01*
X162785418Y-81501928D01*
X162838772Y-81630737D01*
X162845926Y-81648007D01*
X162942180Y-81773448D01*
X163067621Y-81869702D01*
X163213700Y-81930210D01*
X163292081Y-81940529D01*
X163370461Y-81950848D01*
X163370462Y-81950848D01*
X163370463Y-81950848D01*
X163422715Y-81943968D01*
X163527224Y-81930210D01*
X163673303Y-81869702D01*
X163722576Y-81831893D01*
X163787741Y-81806700D01*
X163845511Y-81815708D01*
X163939268Y-81854544D01*
X164057143Y-81870062D01*
X164121039Y-81898328D01*
X164159510Y-81956653D01*
X164163895Y-81976810D01*
X164164956Y-81984864D01*
X164225464Y-82130943D01*
X164321718Y-82256384D01*
X164447159Y-82352638D01*
X164593238Y-82413146D01*
X164659557Y-82421877D01*
X164749999Y-82433784D01*
X164750000Y-82433784D01*
X164906762Y-82413146D01*
X164906766Y-82413144D01*
X164913110Y-82412309D01*
X164982145Y-82423074D01*
X165034401Y-82469454D01*
X165053287Y-82536723D01*
X165032807Y-82603523D01*
X165004783Y-82633623D01*
X164915392Y-82702215D01*
X164819135Y-82827660D01*
X164758628Y-82973737D01*
X164758627Y-82973739D01*
X164740467Y-83111685D01*
X164712201Y-83175582D01*
X164653876Y-83214053D01*
X164617528Y-83219500D01*
X162081515Y-83219500D01*
X162014476Y-83199815D01*
X161993834Y-83183181D01*
X161480860Y-82670206D01*
X161447375Y-82608883D01*
X161445602Y-82598710D01*
X161438701Y-82546292D01*
X161424502Y-82438435D01*
X161363994Y-82292356D01*
X161267740Y-82166915D01*
X161142299Y-82070661D01*
X160996220Y-82010153D01*
X160996218Y-82010152D01*
X160839459Y-81989515D01*
X160839457Y-81989515D01*
X160682697Y-82010152D01*
X160682695Y-82010153D01*
X160536618Y-82070660D01*
X160536616Y-82070661D01*
X160536617Y-82070661D01*
X160411176Y-82166915D01*
X160411174Y-82166917D01*
X160408365Y-82169073D01*
X160343195Y-82194267D01*
X160332878Y-82194697D01*
X160084000Y-82194697D01*
X160016961Y-82175012D01*
X159971206Y-82122208D01*
X159960000Y-82070697D01*
X159960000Y-80949932D01*
X159979685Y-80882893D01*
X160032489Y-80837138D01*
X160101647Y-80827194D01*
X160131451Y-80835370D01*
X160177740Y-80854544D01*
X160256120Y-80864862D01*
X160334501Y-80875182D01*
X160334502Y-80875182D01*
X160334503Y-80875182D01*
X160386755Y-80868302D01*
X160491264Y-80854544D01*
X160637343Y-80794036D01*
X160762784Y-80697782D01*
X160859038Y-80572341D01*
X160919546Y-80426262D01*
X160940184Y-80269500D01*
X160919546Y-80112738D01*
X160859038Y-79966659D01*
X160762784Y-79841218D01*
X160637343Y-79744964D01*
X160491264Y-79684456D01*
X160491262Y-79684455D01*
X160334503Y-79663818D01*
X160334501Y-79663818D01*
X160177741Y-79684455D01*
X160177739Y-79684456D01*
X160131451Y-79703629D01*
X160061981Y-79711096D01*
X159999503Y-79679821D01*
X159963851Y-79619731D01*
X159960000Y-79589067D01*
X159960000Y-78884000D01*
X159979685Y-78816961D01*
X160032489Y-78771206D01*
X160084000Y-78760000D01*
X162525987Y-78760000D01*
X162593026Y-78779685D01*
G37*
%TD.AperFunction*%
%TD*%
%TA.AperFunction,Conductor*%
%TO.N,GND*%
G36*
X138953032Y-76125299D02*
G01*
X139014067Y-76131310D01*
X139132941Y-76143018D01*
X139156769Y-76147757D01*
X139321001Y-76197576D01*
X139343453Y-76206877D01*
X139463807Y-76271207D01*
X139494798Y-76287772D01*
X139515010Y-76301277D01*
X139647666Y-76410145D01*
X139664854Y-76427333D01*
X139773722Y-76559989D01*
X139787227Y-76580201D01*
X139868121Y-76731543D01*
X139877424Y-76754001D01*
X139927240Y-76918224D01*
X139931982Y-76942065D01*
X139949701Y-77121967D01*
X139950000Y-77128048D01*
X139950000Y-106550000D01*
X155896951Y-106550000D01*
X155903032Y-106550299D01*
X155964067Y-106556310D01*
X156082941Y-106568018D01*
X156106769Y-106572757D01*
X156271001Y-106622576D01*
X156293453Y-106631877D01*
X156311010Y-106641261D01*
X156444798Y-106712772D01*
X156465010Y-106726277D01*
X156597666Y-106835145D01*
X156614854Y-106852333D01*
X156723722Y-106984989D01*
X156737227Y-107005201D01*
X156818121Y-107156543D01*
X156827424Y-107179001D01*
X156877240Y-107343224D01*
X156881982Y-107367065D01*
X156899701Y-107546967D01*
X156900000Y-107553048D01*
X156900000Y-111230129D01*
X156880315Y-111297168D01*
X156827511Y-111342923D01*
X156758353Y-111352867D01*
X156728548Y-111344690D01*
X156656765Y-111314957D01*
X156656760Y-111314955D01*
X156500001Y-111294318D01*
X156499999Y-111294318D01*
X156343239Y-111314955D01*
X156343237Y-111314956D01*
X156197160Y-111375463D01*
X156071718Y-111471718D01*
X155975463Y-111597160D01*
X155914956Y-111743237D01*
X155914955Y-111743239D01*
X155894318Y-111899998D01*
X155894318Y-111900001D01*
X155914955Y-112056760D01*
X155914956Y-112056762D01*
X155974287Y-112200001D01*
X155975464Y-112202841D01*
X156071718Y-112328282D01*
X156197159Y-112424536D01*
X156343238Y-112485044D01*
X156380541Y-112489955D01*
X156499999Y-112505682D01*
X156500000Y-112505682D01*
X156500001Y-112505682D01*
X156552254Y-112498802D01*
X156656762Y-112485044D01*
X156728549Y-112455308D01*
X156798016Y-112447840D01*
X156860495Y-112479115D01*
X156896148Y-112539204D01*
X156900000Y-112569870D01*
X156900000Y-122896951D01*
X156899701Y-122903032D01*
X156881982Y-123082934D01*
X156877240Y-123106775D01*
X156827424Y-123270998D01*
X156818121Y-123293456D01*
X156737227Y-123444798D01*
X156723722Y-123465010D01*
X156614854Y-123597666D01*
X156597666Y-123614854D01*
X156465010Y-123723722D01*
X156444798Y-123737227D01*
X156293456Y-123818121D01*
X156270998Y-123827424D01*
X156106775Y-123877240D01*
X156082934Y-123881982D01*
X155903032Y-123899701D01*
X155896951Y-123900000D01*
X154446359Y-123900000D01*
X154379320Y-123880315D01*
X154333565Y-123827511D01*
X154323621Y-123758353D01*
X154352646Y-123694797D01*
X154381931Y-123670052D01*
X154456778Y-123624536D01*
X154464147Y-123620055D01*
X154687053Y-123438708D01*
X154883189Y-123228698D01*
X155048901Y-122993936D01*
X155181104Y-122738797D01*
X155277334Y-122468032D01*
X155335798Y-122186686D01*
X155355408Y-121900000D01*
X155335798Y-121613314D01*
X155277334Y-121331968D01*
X155266980Y-121302836D01*
X155181105Y-121061206D01*
X155181106Y-121061206D01*
X155048901Y-120806064D01*
X154883187Y-120571299D01*
X154770333Y-120450463D01*
X154687053Y-120361292D01*
X154464147Y-120179945D01*
X154464146Y-120179944D01*
X154218617Y-120030634D01*
X153955063Y-119916158D01*
X153955061Y-119916157D01*
X153955058Y-119916156D01*
X153809825Y-119875464D01*
X153678364Y-119838630D01*
X153678359Y-119838629D01*
X153678358Y-119838629D01*
X153506120Y-119814955D01*
X153393679Y-119799500D01*
X153393678Y-119799500D01*
X153106322Y-119799500D01*
X153106321Y-119799500D01*
X152821642Y-119838629D01*
X152821635Y-119838630D01*
X152645290Y-119888040D01*
X152544942Y-119916156D01*
X152544939Y-119916156D01*
X152544936Y-119916158D01*
X152544935Y-119916158D01*
X152281382Y-120030634D01*
X152035853Y-120179944D01*
X151812950Y-120361289D01*
X151616812Y-120571299D01*
X151451098Y-120806064D01*
X151318894Y-121061206D01*
X151222667Y-121331962D01*
X151222666Y-121331965D01*
X151164201Y-121613319D01*
X151144592Y-121899999D01*
X151164201Y-122186680D01*
X151164201Y-122186684D01*
X151164202Y-122186686D01*
X151173569Y-122231762D01*
X151222666Y-122468034D01*
X151222667Y-122468037D01*
X151318894Y-122738793D01*
X151318893Y-122738793D01*
X151451098Y-122993935D01*
X151616812Y-123228700D01*
X151677288Y-123293453D01*
X151812947Y-123438708D01*
X152035853Y-123620055D01*
X152035855Y-123620056D01*
X152035856Y-123620057D01*
X152118069Y-123670052D01*
X152165121Y-123721703D01*
X152176779Y-123790594D01*
X152149342Y-123854851D01*
X152091520Y-123894073D01*
X152053641Y-123900000D01*
X150011202Y-123900000D01*
X149944163Y-123880315D01*
X149898408Y-123827511D01*
X149888464Y-123758353D01*
X149917489Y-123694797D01*
X149963749Y-123661439D01*
X150052841Y-123624536D01*
X150178282Y-123528282D01*
X150274536Y-123402841D01*
X150335044Y-123256762D01*
X150351212Y-123133955D01*
X150355682Y-123100001D01*
X150355682Y-123099998D01*
X150335044Y-122943239D01*
X150335044Y-122943238D01*
X150274536Y-122797159D01*
X150178282Y-122671718D01*
X150052841Y-122575464D01*
X149906762Y-122514956D01*
X149906760Y-122514955D01*
X149750001Y-122494318D01*
X149749999Y-122494318D01*
X149593239Y-122514955D01*
X149593237Y-122514956D01*
X149447160Y-122575463D01*
X149321718Y-122671718D01*
X149225463Y-122797160D01*
X149164956Y-122943237D01*
X149164955Y-122943239D01*
X149144318Y-123099998D01*
X149144318Y-123100001D01*
X149164955Y-123256760D01*
X149164956Y-123256762D01*
X149225464Y-123402841D01*
X149321718Y-123528282D01*
X149447159Y-123624536D01*
X149536251Y-123661439D01*
X149590654Y-123705280D01*
X149612719Y-123771574D01*
X149595440Y-123839273D01*
X149544303Y-123886884D01*
X149488798Y-123900000D01*
X106129625Y-123900000D01*
X106062586Y-123880315D01*
X106016831Y-123827511D01*
X106006887Y-123758353D01*
X106035912Y-123694797D01*
X106050698Y-123680865D01*
X106053277Y-123678286D01*
X106053277Y-123678285D01*
X106053282Y-123678282D01*
X106149536Y-123552841D01*
X106210044Y-123406762D01*
X106230682Y-123250000D01*
X106227877Y-123228697D01*
X106210044Y-123093239D01*
X106210044Y-123093238D01*
X106149536Y-122947159D01*
X106053282Y-122821718D01*
X105927841Y-122725464D01*
X105781762Y-122664956D01*
X105781760Y-122664955D01*
X105625001Y-122644318D01*
X105624999Y-122644318D01*
X105468239Y-122664955D01*
X105468237Y-122664956D01*
X105322158Y-122725464D01*
X105261289Y-122772170D01*
X105196120Y-122797363D01*
X105127675Y-122783324D01*
X105077686Y-122734510D01*
X105062024Y-122666418D01*
X105068962Y-122632272D01*
X105127334Y-122468032D01*
X105185798Y-122186686D01*
X105193438Y-122075001D01*
X112019318Y-122075001D01*
X112039955Y-122231760D01*
X112039956Y-122231762D01*
X112100464Y-122377841D01*
X112196718Y-122503282D01*
X112322159Y-122599536D01*
X112468238Y-122660044D01*
X112505541Y-122664955D01*
X112624999Y-122680682D01*
X112625000Y-122680682D01*
X112625001Y-122680682D01*
X112677253Y-122673802D01*
X112781762Y-122660044D01*
X112927841Y-122599536D01*
X113053282Y-122503282D01*
X113149536Y-122377841D01*
X113210044Y-122231762D01*
X113230682Y-122075000D01*
X113210044Y-121918238D01*
X113149536Y-121772159D01*
X113053282Y-121646718D01*
X112927841Y-121550464D01*
X112865245Y-121524536D01*
X112781762Y-121489956D01*
X112781760Y-121489955D01*
X112625001Y-121469318D01*
X112624999Y-121469318D01*
X112468239Y-121489955D01*
X112468237Y-121489956D01*
X112322160Y-121550463D01*
X112196718Y-121646718D01*
X112100463Y-121772160D01*
X112039956Y-121918237D01*
X112039955Y-121918239D01*
X112019318Y-122074998D01*
X112019318Y-122075001D01*
X105193438Y-122075001D01*
X105205408Y-121900000D01*
X105185798Y-121613314D01*
X105127334Y-121331968D01*
X105116980Y-121302836D01*
X105031105Y-121061206D01*
X105031106Y-121061206D01*
X104986438Y-120975001D01*
X108169318Y-120975001D01*
X108189955Y-121131760D01*
X108189956Y-121131762D01*
X108200310Y-121156760D01*
X108250464Y-121277841D01*
X108346718Y-121403282D01*
X108472159Y-121499536D01*
X108618238Y-121560044D01*
X108696619Y-121570362D01*
X108774999Y-121580682D01*
X108775000Y-121580682D01*
X108775001Y-121580682D01*
X108827253Y-121573802D01*
X108931762Y-121560044D01*
X109077841Y-121499536D01*
X109203282Y-121403282D01*
X109292984Y-121286378D01*
X109349411Y-121245177D01*
X109419157Y-121241022D01*
X109480077Y-121275234D01*
X109498746Y-121299866D01*
X109500460Y-121302836D01*
X109500464Y-121302841D01*
X109596718Y-121428282D01*
X109722159Y-121524536D01*
X109868238Y-121585044D01*
X109946619Y-121595363D01*
X110024999Y-121605682D01*
X110025000Y-121605682D01*
X110025001Y-121605682D01*
X110077253Y-121598802D01*
X110181762Y-121585044D01*
X110327841Y-121524536D01*
X110453282Y-121428282D01*
X110549536Y-121302841D01*
X110610044Y-121156762D01*
X110613633Y-121129503D01*
X127884318Y-121129503D01*
X127904955Y-121286262D01*
X127904956Y-121286264D01*
X127953426Y-121403282D01*
X127965464Y-121432343D01*
X128061718Y-121557784D01*
X128187159Y-121654038D01*
X128333238Y-121714546D01*
X128411618Y-121724865D01*
X128489999Y-121735184D01*
X128490000Y-121735184D01*
X128490001Y-121735184D01*
X128542254Y-121728304D01*
X128646762Y-121714546D01*
X128792841Y-121654038D01*
X128918282Y-121557784D01*
X129006625Y-121442652D01*
X129063050Y-121401451D01*
X129132796Y-121397296D01*
X129193717Y-121431508D01*
X129203374Y-121442653D01*
X129266206Y-121524536D01*
X129291718Y-121557784D01*
X129417159Y-121654038D01*
X129563238Y-121714546D01*
X129641619Y-121724865D01*
X129719999Y-121735184D01*
X129720000Y-121735184D01*
X129720001Y-121735184D01*
X129772254Y-121728304D01*
X129876762Y-121714546D01*
X130022841Y-121654038D01*
X130148282Y-121557784D01*
X130192620Y-121500001D01*
X141169318Y-121500001D01*
X141189955Y-121656760D01*
X141189956Y-121656762D01*
X141222439Y-121735184D01*
X141250464Y-121802841D01*
X141346718Y-121928282D01*
X141472159Y-122024536D01*
X141618238Y-122085044D01*
X141696618Y-122095363D01*
X141774999Y-122105682D01*
X141775000Y-122105682D01*
X141775001Y-122105682D01*
X141827253Y-122098802D01*
X141931762Y-122085044D01*
X142077841Y-122024536D01*
X142203282Y-121928282D01*
X142299536Y-121802841D01*
X142360044Y-121656762D01*
X142380682Y-121500000D01*
X142360044Y-121343238D01*
X142299536Y-121197159D01*
X142203282Y-121071718D01*
X142077841Y-120975464D01*
X142076723Y-120975001D01*
X141931762Y-120914956D01*
X141931760Y-120914955D01*
X141775001Y-120894318D01*
X141774999Y-120894318D01*
X141618239Y-120914955D01*
X141618237Y-120914956D01*
X141472160Y-120975463D01*
X141346718Y-121071718D01*
X141250463Y-121197160D01*
X141189956Y-121343237D01*
X141189955Y-121343239D01*
X141169318Y-121499998D01*
X141169318Y-121500001D01*
X130192620Y-121500001D01*
X130244536Y-121432343D01*
X130305044Y-121286264D01*
X130322093Y-121156760D01*
X130325682Y-121129503D01*
X130325682Y-121129500D01*
X130306664Y-120985043D01*
X130305044Y-120972740D01*
X130244536Y-120826661D01*
X130148282Y-120701220D01*
X130022841Y-120604966D01*
X129942573Y-120571718D01*
X129876762Y-120544458D01*
X129876760Y-120544457D01*
X129720001Y-120523820D01*
X129719999Y-120523820D01*
X129563239Y-120544457D01*
X129563237Y-120544458D01*
X129417160Y-120604965D01*
X129291715Y-120701222D01*
X129203374Y-120816350D01*
X129146946Y-120857553D01*
X129077200Y-120861707D01*
X129016280Y-120827494D01*
X129006623Y-120816349D01*
X128918283Y-120701221D01*
X128912991Y-120697160D01*
X128792841Y-120604966D01*
X128712573Y-120571718D01*
X128646762Y-120544458D01*
X128646760Y-120544457D01*
X128490001Y-120523820D01*
X128489999Y-120523820D01*
X128333239Y-120544457D01*
X128333237Y-120544458D01*
X128187160Y-120604965D01*
X128061718Y-120701220D01*
X127965463Y-120826662D01*
X127904956Y-120972739D01*
X127904955Y-120972741D01*
X127884318Y-121129500D01*
X127884318Y-121129503D01*
X110613633Y-121129503D01*
X110630682Y-121000000D01*
X110627390Y-120974998D01*
X110612475Y-120861707D01*
X110610044Y-120843238D01*
X110549536Y-120697159D01*
X110453282Y-120571718D01*
X110327841Y-120475464D01*
X110290611Y-120460043D01*
X110181762Y-120414956D01*
X110181760Y-120414955D01*
X110025001Y-120394318D01*
X110024999Y-120394318D01*
X109868239Y-120414955D01*
X109868237Y-120414956D01*
X109722160Y-120475463D01*
X109680345Y-120507548D01*
X109596718Y-120571718D01*
X109596717Y-120571719D01*
X109596716Y-120571720D01*
X109507015Y-120688620D01*
X109450587Y-120729822D01*
X109380841Y-120733977D01*
X109319921Y-120699764D01*
X109301251Y-120675130D01*
X109299536Y-120672160D01*
X109299536Y-120672159D01*
X109203282Y-120546718D01*
X109077841Y-120450464D01*
X109040611Y-120435043D01*
X108931762Y-120389956D01*
X108931760Y-120389955D01*
X108775001Y-120369318D01*
X108774999Y-120369318D01*
X108618239Y-120389955D01*
X108618237Y-120389956D01*
X108472160Y-120450463D01*
X108346718Y-120546718D01*
X108250463Y-120672160D01*
X108189956Y-120818237D01*
X108189955Y-120818239D01*
X108169318Y-120974998D01*
X108169318Y-120975001D01*
X104986438Y-120975001D01*
X104898901Y-120806064D01*
X104733187Y-120571299D01*
X104620333Y-120450463D01*
X104537053Y-120361292D01*
X104314147Y-120179945D01*
X104314146Y-120179944D01*
X104068617Y-120030634D01*
X103805063Y-119916158D01*
X103805061Y-119916157D01*
X103805058Y-119916156D01*
X103659825Y-119875464D01*
X103528364Y-119838630D01*
X103528359Y-119838629D01*
X103528358Y-119838629D01*
X103356120Y-119814955D01*
X103243679Y-119799500D01*
X103243678Y-119799500D01*
X102956322Y-119799500D01*
X102956321Y-119799500D01*
X102671642Y-119838629D01*
X102671635Y-119838630D01*
X102495290Y-119888040D01*
X102394942Y-119916156D01*
X102394939Y-119916156D01*
X102394936Y-119916158D01*
X102394935Y-119916158D01*
X102131382Y-120030634D01*
X101885853Y-120179944D01*
X101662950Y-120361289D01*
X101466808Y-120571304D01*
X101350304Y-120736354D01*
X101295562Y-120779772D01*
X101226037Y-120786701D01*
X101163803Y-120754943D01*
X101128617Y-120694579D01*
X101125000Y-120664846D01*
X101125000Y-118557999D01*
X108194318Y-118557999D01*
X108214955Y-118714758D01*
X108214956Y-118714760D01*
X108275464Y-118860839D01*
X108371718Y-118986280D01*
X108497159Y-119082534D01*
X108643238Y-119143042D01*
X108721618Y-119153361D01*
X108799999Y-119163680D01*
X108800000Y-119163680D01*
X108800001Y-119163680D01*
X108852254Y-119156800D01*
X108956762Y-119143042D01*
X109102841Y-119082534D01*
X109228282Y-118986280D01*
X109324536Y-118860839D01*
X109385044Y-118714760D01*
X109405682Y-118557998D01*
X109403628Y-118542400D01*
X109401930Y-118529501D01*
X110219318Y-118529501D01*
X110239955Y-118686260D01*
X110239956Y-118686262D01*
X110248456Y-118706784D01*
X110300464Y-118832341D01*
X110396718Y-118957782D01*
X110522159Y-119054036D01*
X110668238Y-119114544D01*
X110746619Y-119124862D01*
X110824999Y-119135182D01*
X110825000Y-119135182D01*
X110825001Y-119135182D01*
X110880776Y-119127839D01*
X110981762Y-119114544D01*
X111127841Y-119054036D01*
X111206815Y-118993437D01*
X111271983Y-118968244D01*
X111340427Y-118982282D01*
X111380674Y-119016325D01*
X111471786Y-119135065D01*
X111597227Y-119231319D01*
X111743306Y-119291827D01*
X111795102Y-119298646D01*
X111900067Y-119312465D01*
X111900068Y-119312465D01*
X111900069Y-119312465D01*
X111952321Y-119305585D01*
X112056830Y-119291827D01*
X112202909Y-119231319D01*
X112328350Y-119135065D01*
X112424604Y-119009624D01*
X112485112Y-118863545D01*
X112505750Y-118706783D01*
X112503429Y-118689156D01*
X112485112Y-118550022D01*
X112485112Y-118550021D01*
X112454038Y-118475001D01*
X113994318Y-118475001D01*
X114014955Y-118631760D01*
X114014956Y-118631762D01*
X114075464Y-118777841D01*
X114171718Y-118903282D01*
X114297159Y-118999536D01*
X114443238Y-119060044D01*
X114521619Y-119070362D01*
X114599999Y-119080682D01*
X114600000Y-119080682D01*
X114600001Y-119080682D01*
X114652253Y-119073802D01*
X114756762Y-119060044D01*
X114902841Y-118999536D01*
X114958310Y-118956972D01*
X115023479Y-118931778D01*
X115080340Y-118943440D01*
X115067422Y-118887276D01*
X115091058Y-118821526D01*
X115092762Y-118819248D01*
X115124536Y-118777841D01*
X115185044Y-118631762D01*
X115205682Y-118475000D01*
X115196404Y-118404530D01*
X115185044Y-118318239D01*
X115185044Y-118318238D01*
X115124536Y-118172159D01*
X115028282Y-118046718D01*
X114902841Y-117950464D01*
X114888336Y-117944456D01*
X114756762Y-117889956D01*
X114756760Y-117889955D01*
X114600001Y-117869318D01*
X114599999Y-117869318D01*
X114443239Y-117889955D01*
X114443237Y-117889956D01*
X114297160Y-117950463D01*
X114171718Y-118046718D01*
X114075463Y-118172160D01*
X114014956Y-118318237D01*
X114014955Y-118318239D01*
X113994318Y-118474998D01*
X113994318Y-118475001D01*
X112454038Y-118475001D01*
X112424604Y-118403942D01*
X112328350Y-118278501D01*
X112202909Y-118182247D01*
X112198247Y-118180316D01*
X112056830Y-118121739D01*
X112056828Y-118121738D01*
X111900069Y-118101101D01*
X111900067Y-118101101D01*
X111743307Y-118121738D01*
X111743305Y-118121739D01*
X111597225Y-118182247D01*
X111518253Y-118242845D01*
X111453084Y-118268039D01*
X111384639Y-118254000D01*
X111344393Y-118219957D01*
X111253282Y-118101218D01*
X111127841Y-118004964D01*
X110981762Y-117944456D01*
X110981760Y-117944455D01*
X110825001Y-117923818D01*
X110824999Y-117923818D01*
X110668239Y-117944455D01*
X110668237Y-117944456D01*
X110522160Y-118004963D01*
X110396718Y-118101218D01*
X110300463Y-118226660D01*
X110239956Y-118372737D01*
X110239955Y-118372739D01*
X110219318Y-118529498D01*
X110219318Y-118529501D01*
X109401930Y-118529501D01*
X109385044Y-118401237D01*
X109385044Y-118401236D01*
X109324536Y-118255157D01*
X109228282Y-118129716D01*
X109102841Y-118033462D01*
X109050392Y-118011737D01*
X108956762Y-117972954D01*
X108956760Y-117972953D01*
X108800001Y-117952316D01*
X108799999Y-117952316D01*
X108643239Y-117972953D01*
X108643237Y-117972954D01*
X108497160Y-118033461D01*
X108371718Y-118129716D01*
X108275463Y-118255158D01*
X108214956Y-118401235D01*
X108214955Y-118401237D01*
X108194318Y-118557996D01*
X108194318Y-118557999D01*
X101125000Y-118557999D01*
X101125000Y-116943933D01*
X104765668Y-116943933D01*
X104794294Y-117106272D01*
X104796135Y-117116711D01*
X104865623Y-117277804D01*
X104865624Y-117277806D01*
X104865626Y-117277809D01*
X104940426Y-117378282D01*
X104970390Y-117418530D01*
X105104786Y-117531302D01*
X105139590Y-117548781D01*
X105261562Y-117610038D01*
X105261563Y-117610038D01*
X105261567Y-117610040D01*
X105432279Y-117650500D01*
X105432282Y-117650500D01*
X105563701Y-117650500D01*
X105563709Y-117650500D01*
X105694255Y-117635241D01*
X105859117Y-117575237D01*
X106005696Y-117478830D01*
X106126092Y-117351218D01*
X106213812Y-117199281D01*
X106264130Y-117031210D01*
X106269213Y-116943933D01*
X108575668Y-116943933D01*
X108604294Y-117106272D01*
X108606135Y-117116711D01*
X108675623Y-117277804D01*
X108675624Y-117277806D01*
X108675626Y-117277809D01*
X108750426Y-117378282D01*
X108780390Y-117418530D01*
X108914786Y-117531302D01*
X108949590Y-117548781D01*
X109071562Y-117610038D01*
X109071563Y-117610038D01*
X109071567Y-117610040D01*
X109242279Y-117650500D01*
X109242282Y-117650500D01*
X109373701Y-117650500D01*
X109373709Y-117650500D01*
X109504255Y-117635241D01*
X109669117Y-117575237D01*
X109815696Y-117478830D01*
X109936092Y-117351218D01*
X110023812Y-117199281D01*
X110056095Y-117091447D01*
X110094179Y-117032872D01*
X110157887Y-117004184D01*
X110226992Y-117014493D01*
X110238521Y-117021467D01*
X110238756Y-117021062D01*
X110245794Y-117025124D01*
X110245796Y-117025126D01*
X110391875Y-117085634D01*
X110470255Y-117095953D01*
X110548636Y-117106272D01*
X110548637Y-117106272D01*
X110548638Y-117106272D01*
X110600890Y-117099392D01*
X110705399Y-117085634D01*
X110838127Y-117030655D01*
X110907597Y-117023187D01*
X110961066Y-117046841D01*
X110997159Y-117074536D01*
X110997161Y-117074536D01*
X110997163Y-117074538D01*
X111032225Y-117089061D01*
X111143238Y-117135044D01*
X111221619Y-117145362D01*
X111299999Y-117155682D01*
X111300000Y-117155682D01*
X111300001Y-117155682D01*
X111352254Y-117148802D01*
X111456762Y-117135044D01*
X111602841Y-117074536D01*
X111728282Y-116978282D01*
X111824536Y-116852841D01*
X111885044Y-116706762D01*
X111905682Y-116550000D01*
X111903361Y-116532373D01*
X111885044Y-116393239D01*
X111885044Y-116393238D01*
X111824536Y-116247159D01*
X111728282Y-116121718D01*
X111602841Y-116025464D01*
X111601723Y-116025001D01*
X111456762Y-115964956D01*
X111456760Y-115964955D01*
X111300001Y-115944318D01*
X111299999Y-115944318D01*
X111143239Y-115964955D01*
X111143234Y-115964957D01*
X111010508Y-116019934D01*
X110941039Y-116027403D01*
X110887570Y-116003748D01*
X110875467Y-115994462D01*
X110851479Y-115976054D01*
X110851473Y-115976051D01*
X110705402Y-115915547D01*
X110705397Y-115915545D01*
X110548638Y-115894908D01*
X110548636Y-115894908D01*
X110391876Y-115915545D01*
X110391874Y-115915546D01*
X110245797Y-115976053D01*
X110120355Y-116072308D01*
X110024100Y-116197750D01*
X109995079Y-116267814D01*
X109951238Y-116322217D01*
X109884944Y-116344282D01*
X109817244Y-116327003D01*
X109800816Y-116315354D01*
X109745214Y-116268698D01*
X109743454Y-116267814D01*
X109588437Y-116189961D01*
X109553843Y-116181762D01*
X109417721Y-116149500D01*
X109286291Y-116149500D01*
X109181854Y-116161707D01*
X109155743Y-116164759D01*
X109155740Y-116164760D01*
X108990884Y-116224762D01*
X108990880Y-116224764D01*
X108844306Y-116321167D01*
X108844305Y-116321168D01*
X108723910Y-116448778D01*
X108636188Y-116600718D01*
X108585870Y-116768789D01*
X108585869Y-116768794D01*
X108575668Y-116943933D01*
X106269213Y-116943933D01*
X106274331Y-116856065D01*
X106243865Y-116683289D01*
X106174377Y-116522196D01*
X106174021Y-116521718D01*
X106083405Y-116400000D01*
X106069610Y-116381470D01*
X106049929Y-116364956D01*
X105935214Y-116268698D01*
X105935212Y-116268697D01*
X105778437Y-116189961D01*
X105743843Y-116181762D01*
X105607721Y-116149500D01*
X105476291Y-116149500D01*
X105371854Y-116161707D01*
X105345743Y-116164759D01*
X105345740Y-116164760D01*
X105180884Y-116224762D01*
X105180880Y-116224764D01*
X105034306Y-116321167D01*
X105034305Y-116321168D01*
X104913910Y-116448778D01*
X104826188Y-116600718D01*
X104775870Y-116768789D01*
X104775869Y-116768794D01*
X104765668Y-116943933D01*
X101125000Y-116943933D01*
X101125000Y-114100001D01*
X112069318Y-114100001D01*
X112089955Y-114256760D01*
X112089956Y-114256762D01*
X112142344Y-114383239D01*
X112150464Y-114402841D01*
X112246718Y-114528282D01*
X112372159Y-114624536D01*
X112518238Y-114685044D01*
X112596619Y-114695363D01*
X112674999Y-114705682D01*
X112675000Y-114705682D01*
X112675001Y-114705682D01*
X112742754Y-114696762D01*
X112831762Y-114685044D01*
X112977841Y-114624536D01*
X113103282Y-114528282D01*
X113199536Y-114402841D01*
X113260044Y-114256762D01*
X113260044Y-114256760D01*
X113260939Y-114254600D01*
X113304780Y-114200197D01*
X113371074Y-114178132D01*
X113438773Y-114195411D01*
X113486384Y-114246548D01*
X113499500Y-114302053D01*
X113499500Y-114588429D01*
X113499501Y-114588439D01*
X113506346Y-114609507D01*
X113510887Y-114628418D01*
X113514354Y-114650304D01*
X113514355Y-114650307D01*
X113524412Y-114670045D01*
X113531857Y-114688018D01*
X113538704Y-114709090D01*
X113551726Y-114727014D01*
X113561890Y-114743600D01*
X113576380Y-114772036D01*
X113574617Y-114772934D01*
X113593945Y-114827109D01*
X113578118Y-114895162D01*
X113545635Y-114932558D01*
X113499081Y-114968281D01*
X113472117Y-114988971D01*
X113375862Y-115114413D01*
X113315355Y-115260490D01*
X113313252Y-115268341D01*
X113310570Y-115267622D01*
X113287755Y-115319150D01*
X113229417Y-115357601D01*
X113222400Y-115359127D01*
X113222414Y-115359179D01*
X113214563Y-115361282D01*
X113068486Y-115421789D01*
X112943044Y-115518044D01*
X112846789Y-115643486D01*
X112786282Y-115789563D01*
X112786281Y-115789565D01*
X112765644Y-115946324D01*
X112765644Y-115946327D01*
X112786281Y-116103086D01*
X112786282Y-116103088D01*
X112844334Y-116243239D01*
X112846790Y-116249167D01*
X112943044Y-116374608D01*
X113068485Y-116470862D01*
X113214564Y-116531370D01*
X113292944Y-116541689D01*
X113371325Y-116552008D01*
X113371326Y-116552008D01*
X113371327Y-116552008D01*
X113423580Y-116545128D01*
X113528088Y-116531370D01*
X113674167Y-116470862D01*
X113799608Y-116374608D01*
X113895862Y-116249167D01*
X113956370Y-116103088D01*
X113956370Y-116103082D01*
X113958473Y-116095239D01*
X113961161Y-116095959D01*
X113983941Y-116044462D01*
X114042265Y-116005990D01*
X114049326Y-116004453D01*
X114049312Y-116004400D01*
X114057155Y-116002297D01*
X114057161Y-116002297D01*
X114203240Y-115941789D01*
X114328681Y-115845535D01*
X114383915Y-115773552D01*
X114440338Y-115732353D01*
X114510084Y-115728198D01*
X114569968Y-115761361D01*
X115633180Y-116824573D01*
X115666665Y-116885896D01*
X115669499Y-116912254D01*
X115669500Y-118011736D01*
X115669500Y-118138599D01*
X115669501Y-118138609D01*
X115676346Y-118159677D01*
X115680887Y-118178588D01*
X115684354Y-118200474D01*
X115684355Y-118200477D01*
X115694412Y-118220215D01*
X115701857Y-118238188D01*
X115708704Y-118259260D01*
X115721726Y-118277184D01*
X115731890Y-118293770D01*
X115741950Y-118313512D01*
X115762864Y-118334426D01*
X115762878Y-118334441D01*
X115764515Y-118336078D01*
X115764516Y-118336079D01*
X115832969Y-118404532D01*
X115866453Y-118465853D01*
X115861469Y-118535545D01*
X115843663Y-118567698D01*
X115750465Y-118689156D01*
X115706168Y-118796098D01*
X115662326Y-118850501D01*
X115607793Y-118871583D01*
X115468238Y-118889956D01*
X115468237Y-118889956D01*
X115322158Y-118950464D01*
X115266687Y-118993028D01*
X115201518Y-119018221D01*
X115144658Y-119006558D01*
X115157578Y-119062721D01*
X115133942Y-119128471D01*
X115132173Y-119130834D01*
X115100464Y-119172157D01*
X115039956Y-119318237D01*
X115039955Y-119318239D01*
X115019318Y-119474998D01*
X115019318Y-119475001D01*
X115039955Y-119631760D01*
X115039956Y-119631762D01*
X115075775Y-119718238D01*
X115100464Y-119777841D01*
X115196718Y-119903282D01*
X115322159Y-119999536D01*
X115468238Y-120060044D01*
X115546618Y-120070362D01*
X115624999Y-120080682D01*
X115625000Y-120080682D01*
X115625001Y-120080682D01*
X115677254Y-120073802D01*
X115781762Y-120060044D01*
X115927841Y-119999536D01*
X116053282Y-119903282D01*
X116056414Y-119899199D01*
X116112834Y-119857995D01*
X116182580Y-119853833D01*
X116243503Y-119888040D01*
X116269353Y-119927225D01*
X116279964Y-119952841D01*
X116376218Y-120078282D01*
X116501659Y-120174536D01*
X116647738Y-120235044D01*
X116709978Y-120243238D01*
X116804499Y-120255682D01*
X116804500Y-120255682D01*
X116804501Y-120255682D01*
X116899014Y-120243239D01*
X116961262Y-120235044D01*
X117107341Y-120174536D01*
X117232782Y-120078282D01*
X117329036Y-119952841D01*
X117361278Y-119875001D01*
X121869318Y-119875001D01*
X121889955Y-120031760D01*
X121889956Y-120031762D01*
X121950464Y-120177841D01*
X122046718Y-120303282D01*
X122172159Y-120399536D01*
X122318238Y-120460044D01*
X122396618Y-120470362D01*
X122474999Y-120480682D01*
X122475000Y-120480682D01*
X122475001Y-120480682D01*
X122527253Y-120473802D01*
X122631762Y-120460044D01*
X122777841Y-120399536D01*
X122903282Y-120303282D01*
X122999536Y-120177841D01*
X123060044Y-120031762D01*
X123073806Y-119927226D01*
X123080682Y-119875001D01*
X123080682Y-119874998D01*
X123060044Y-119718239D01*
X123060044Y-119718238D01*
X122999536Y-119572159D01*
X122905801Y-119450001D01*
X125698818Y-119450001D01*
X125719455Y-119606760D01*
X125719456Y-119606762D01*
X125765630Y-119718237D01*
X125779964Y-119752841D01*
X125876218Y-119878282D01*
X126001659Y-119974536D01*
X126147738Y-120035044D01*
X126226119Y-120045363D01*
X126304499Y-120055682D01*
X126304500Y-120055682D01*
X126304501Y-120055682D01*
X126356754Y-120048802D01*
X126461262Y-120035044D01*
X126607341Y-119974536D01*
X126732782Y-119878282D01*
X126754483Y-119850001D01*
X131169318Y-119850001D01*
X131189955Y-120006760D01*
X131189956Y-120006762D01*
X131200310Y-120031760D01*
X131250464Y-120152841D01*
X131346718Y-120278282D01*
X131472159Y-120374536D01*
X131618238Y-120435044D01*
X131696618Y-120445363D01*
X131774999Y-120455682D01*
X131775000Y-120455682D01*
X131775001Y-120455682D01*
X131827254Y-120448802D01*
X131931762Y-120435044D01*
X132016363Y-120400001D01*
X142394318Y-120400001D01*
X142414955Y-120556760D01*
X142414956Y-120556762D01*
X142474792Y-120701220D01*
X142475464Y-120702841D01*
X142571718Y-120828282D01*
X142697159Y-120924536D01*
X142843238Y-120985044D01*
X142921618Y-120995362D01*
X142999999Y-121005682D01*
X143000000Y-121005682D01*
X143000001Y-121005682D01*
X143052254Y-120998802D01*
X143156762Y-120985044D01*
X143302841Y-120924536D01*
X143428282Y-120828282D01*
X143524536Y-120702841D01*
X143585044Y-120556762D01*
X143605682Y-120400000D01*
X143585044Y-120243238D01*
X143524536Y-120097159D01*
X143428282Y-119971718D01*
X143302841Y-119875464D01*
X143301723Y-119875001D01*
X143156762Y-119814956D01*
X143156760Y-119814955D01*
X143000001Y-119794318D01*
X142999999Y-119794318D01*
X142843239Y-119814955D01*
X142843237Y-119814956D01*
X142697160Y-119875463D01*
X142571718Y-119971718D01*
X142475463Y-120097160D01*
X142414956Y-120243237D01*
X142414955Y-120243239D01*
X142394318Y-120399998D01*
X142394318Y-120400001D01*
X132016363Y-120400001D01*
X132077841Y-120374536D01*
X132203282Y-120278282D01*
X132299536Y-120152841D01*
X132360044Y-120006762D01*
X132377391Y-119874998D01*
X132380682Y-119850001D01*
X132380682Y-119849998D01*
X132360044Y-119693239D01*
X132360044Y-119693238D01*
X132299536Y-119547159D01*
X132203282Y-119421718D01*
X132077841Y-119325464D01*
X132060398Y-119318239D01*
X131931762Y-119264956D01*
X131931760Y-119264955D01*
X131775001Y-119244318D01*
X131774999Y-119244318D01*
X131618239Y-119264955D01*
X131618237Y-119264956D01*
X131472160Y-119325463D01*
X131346718Y-119421718D01*
X131250463Y-119547160D01*
X131189956Y-119693237D01*
X131189955Y-119693239D01*
X131169318Y-119849998D01*
X131169318Y-119850001D01*
X126754483Y-119850001D01*
X126829036Y-119752841D01*
X126889544Y-119606762D01*
X126910182Y-119450000D01*
X126889544Y-119293238D01*
X126829036Y-119147159D01*
X126773667Y-119075001D01*
X134119318Y-119075001D01*
X134139955Y-119231760D01*
X134139956Y-119231762D01*
X134175775Y-119318238D01*
X134200464Y-119377841D01*
X134296718Y-119503282D01*
X134422159Y-119599536D01*
X134568238Y-119660044D01*
X134646618Y-119670362D01*
X134724999Y-119680682D01*
X134725000Y-119680682D01*
X134725001Y-119680682D01*
X134777254Y-119673802D01*
X134881762Y-119660044D01*
X135027841Y-119599536D01*
X135153282Y-119503282D01*
X135249536Y-119377841D01*
X135310044Y-119231762D01*
X135330682Y-119075000D01*
X135329065Y-119062721D01*
X135315250Y-118957781D01*
X135310044Y-118918238D01*
X135249536Y-118772159D01*
X135153282Y-118646718D01*
X135027841Y-118550464D01*
X135026769Y-118550020D01*
X134881762Y-118489956D01*
X134881760Y-118489955D01*
X134725001Y-118469318D01*
X134724999Y-118469318D01*
X134568239Y-118489955D01*
X134568237Y-118489956D01*
X134422160Y-118550463D01*
X134296718Y-118646718D01*
X134200463Y-118772160D01*
X134139956Y-118918237D01*
X134139955Y-118918239D01*
X134119318Y-119074998D01*
X134119318Y-119075001D01*
X126773667Y-119075001D01*
X126732782Y-119021718D01*
X126607341Y-118925464D01*
X126589898Y-118918239D01*
X126461262Y-118864956D01*
X126461260Y-118864955D01*
X126304501Y-118844318D01*
X126304499Y-118844318D01*
X126147739Y-118864955D01*
X126147737Y-118864956D01*
X126001660Y-118925463D01*
X125876218Y-119021718D01*
X125779963Y-119147160D01*
X125719456Y-119293237D01*
X125719455Y-119293239D01*
X125698818Y-119449998D01*
X125698818Y-119450001D01*
X122905801Y-119450001D01*
X122903282Y-119446718D01*
X122777841Y-119350464D01*
X122717483Y-119325463D01*
X122631762Y-119289956D01*
X122631760Y-119289955D01*
X122475001Y-119269318D01*
X122474999Y-119269318D01*
X122318239Y-119289955D01*
X122318237Y-119289956D01*
X122172160Y-119350463D01*
X122046718Y-119446718D01*
X121950463Y-119572160D01*
X121889956Y-119718237D01*
X121889955Y-119718239D01*
X121869318Y-119874998D01*
X121869318Y-119875001D01*
X117361278Y-119875001D01*
X117389544Y-119806762D01*
X117410182Y-119650000D01*
X117404489Y-119606760D01*
X117389544Y-119493239D01*
X117389544Y-119493238D01*
X117329036Y-119347159D01*
X117328597Y-119346099D01*
X117319158Y-119298646D01*
X117319158Y-118825001D01*
X123714318Y-118825001D01*
X123734955Y-118981760D01*
X123734956Y-118981762D01*
X123773576Y-119075000D01*
X123795464Y-119127841D01*
X123891718Y-119253282D01*
X124017159Y-119349536D01*
X124163238Y-119410044D01*
X124241618Y-119420362D01*
X124319999Y-119430682D01*
X124320000Y-119430682D01*
X124320001Y-119430682D01*
X124372253Y-119423802D01*
X124476762Y-119410044D01*
X124622841Y-119349536D01*
X124748282Y-119253282D01*
X124844536Y-119127841D01*
X124905044Y-118981762D01*
X124920422Y-118864955D01*
X124925682Y-118825001D01*
X124925682Y-118824998D01*
X124910119Y-118706784D01*
X124905044Y-118668238D01*
X124844536Y-118522159D01*
X124748282Y-118396718D01*
X124622841Y-118300464D01*
X124606680Y-118293770D01*
X124476762Y-118239956D01*
X124476760Y-118239955D01*
X124320001Y-118219318D01*
X124319999Y-118219318D01*
X124163239Y-118239955D01*
X124163237Y-118239956D01*
X124017160Y-118300463D01*
X123891718Y-118396718D01*
X123795463Y-118522160D01*
X123734956Y-118668237D01*
X123734955Y-118668239D01*
X123714318Y-118824998D01*
X123714318Y-118825001D01*
X117319158Y-118825001D01*
X117319158Y-118355227D01*
X117319158Y-118355225D01*
X117312311Y-118334155D01*
X117307769Y-118315235D01*
X117304304Y-118293354D01*
X117294242Y-118273607D01*
X117286798Y-118255634D01*
X117286643Y-118255158D01*
X117279954Y-118234569D01*
X117275841Y-118228908D01*
X117266932Y-118216645D01*
X117256766Y-118200056D01*
X117246708Y-118180316D01*
X117226056Y-118159664D01*
X117226038Y-118159644D01*
X116836818Y-117770424D01*
X116803333Y-117709101D01*
X116800499Y-117682743D01*
X116800499Y-116494877D01*
X116800499Y-116494876D01*
X116793651Y-116473800D01*
X116790338Y-116460001D01*
X125989818Y-116460001D01*
X126010455Y-116616760D01*
X126010456Y-116616762D01*
X126070964Y-116762841D01*
X126167218Y-116888282D01*
X126292659Y-116984536D01*
X126438738Y-117045044D01*
X126517119Y-117055363D01*
X126595499Y-117065682D01*
X126603356Y-117065682D01*
X126670395Y-117085367D01*
X126716150Y-117138171D01*
X126726295Y-117173497D01*
X126739955Y-117277260D01*
X126739956Y-117277262D01*
X126781799Y-117378281D01*
X126800464Y-117423341D01*
X126896718Y-117548782D01*
X127022159Y-117645036D01*
X127168238Y-117705544D01*
X127246619Y-117715863D01*
X127324999Y-117726182D01*
X127325000Y-117726182D01*
X127325001Y-117726182D01*
X127377254Y-117719302D01*
X127481762Y-117705544D01*
X127627841Y-117645036D01*
X127753282Y-117548782D01*
X127849536Y-117423341D01*
X127910044Y-117277262D01*
X127928768Y-117135042D01*
X127930682Y-117120501D01*
X127930682Y-117120498D01*
X127912809Y-116984744D01*
X127910044Y-116963738D01*
X127849536Y-116817659D01*
X127753282Y-116692218D01*
X127627841Y-116595964D01*
X127516869Y-116549998D01*
X127481762Y-116535456D01*
X127481760Y-116535455D01*
X127325001Y-116514818D01*
X127317144Y-116514818D01*
X127250105Y-116495133D01*
X127204350Y-116442329D01*
X127194205Y-116407003D01*
X127185952Y-116344318D01*
X127180544Y-116303238D01*
X127120036Y-116157159D01*
X127023782Y-116031718D01*
X126898341Y-115935464D01*
X126850252Y-115915545D01*
X126752262Y-115874956D01*
X126752260Y-115874955D01*
X126595501Y-115854318D01*
X126595499Y-115854318D01*
X126438739Y-115874955D01*
X126438737Y-115874956D01*
X126292660Y-115935463D01*
X126167218Y-116031718D01*
X126070963Y-116157160D01*
X126010456Y-116303237D01*
X126010455Y-116303239D01*
X125989818Y-116459998D01*
X125989818Y-116460001D01*
X116790338Y-116460001D01*
X116789110Y-116454887D01*
X116785645Y-116433005D01*
X116775587Y-116413267D01*
X116768139Y-116395285D01*
X116761295Y-116374219D01*
X116748270Y-116356291D01*
X116738105Y-116339703D01*
X116728049Y-116319967D01*
X116707397Y-116299315D01*
X116707379Y-116299295D01*
X115378830Y-114970747D01*
X115345345Y-114909424D01*
X115350329Y-114839732D01*
X115378834Y-114795380D01*
X115382354Y-114791858D01*
X115382367Y-114791849D01*
X115478621Y-114666408D01*
X115539129Y-114520329D01*
X115559767Y-114363567D01*
X115539129Y-114206805D01*
X115509375Y-114134974D01*
X115501907Y-114065508D01*
X115533182Y-114003029D01*
X115593270Y-113967376D01*
X115607748Y-113964586D01*
X115631767Y-113961424D01*
X115777846Y-113900916D01*
X115903287Y-113804662D01*
X115983596Y-113700001D01*
X118119318Y-113700001D01*
X118139955Y-113856760D01*
X118139956Y-113856762D01*
X118188414Y-113973751D01*
X118200464Y-114002841D01*
X118296718Y-114128282D01*
X118422159Y-114224536D01*
X118568238Y-114285044D01*
X118646618Y-114295363D01*
X118724999Y-114305682D01*
X118725000Y-114305682D01*
X118725001Y-114305682D01*
X118777254Y-114298802D01*
X118881762Y-114285044D01*
X119027841Y-114224536D01*
X119153282Y-114128282D01*
X119191323Y-114078705D01*
X119247748Y-114037504D01*
X119317494Y-114033349D01*
X119365183Y-114055817D01*
X119422157Y-114099535D01*
X119422158Y-114099535D01*
X119422159Y-114099536D01*
X119568238Y-114160044D01*
X119646618Y-114170362D01*
X119724999Y-114180682D01*
X119725000Y-114180682D01*
X119725001Y-114180682D01*
X119777254Y-114173802D01*
X119881762Y-114160044D01*
X120027841Y-114099536D01*
X120153282Y-114003282D01*
X120249536Y-113877841D01*
X120310044Y-113731762D01*
X120324990Y-113618237D01*
X120330682Y-113575001D01*
X120330682Y-113574998D01*
X120310044Y-113418239D01*
X120310044Y-113418238D01*
X120249536Y-113272159D01*
X120153282Y-113146718D01*
X120027841Y-113050464D01*
X119881762Y-112989956D01*
X119881760Y-112989955D01*
X119725001Y-112969318D01*
X119724999Y-112969318D01*
X119568239Y-112989955D01*
X119568237Y-112989956D01*
X119422160Y-113050463D01*
X119296715Y-113146720D01*
X119258677Y-113196293D01*
X119202249Y-113237496D01*
X119132503Y-113241650D01*
X119084816Y-113219182D01*
X119027842Y-113175464D01*
X118881762Y-113114956D01*
X118881760Y-113114955D01*
X118725001Y-113094318D01*
X118724999Y-113094318D01*
X118568239Y-113114955D01*
X118568237Y-113114956D01*
X118422160Y-113175463D01*
X118296718Y-113271718D01*
X118200463Y-113397160D01*
X118139956Y-113543237D01*
X118139955Y-113543239D01*
X118119318Y-113699998D01*
X118119318Y-113700001D01*
X115983596Y-113700001D01*
X115999541Y-113679221D01*
X116060049Y-113533142D01*
X116079213Y-113387574D01*
X116080687Y-113376381D01*
X116080687Y-113376378D01*
X116064110Y-113250463D01*
X116060049Y-113219618D01*
X115999541Y-113073539D01*
X115903287Y-112948098D01*
X115777846Y-112851844D01*
X115631767Y-112791336D01*
X115631765Y-112791335D01*
X115475006Y-112770698D01*
X115475004Y-112770698D01*
X115318244Y-112791335D01*
X115318242Y-112791336D01*
X115172165Y-112851843D01*
X115046723Y-112948098D01*
X114950468Y-113073540D01*
X114889961Y-113219617D01*
X114889961Y-113219618D01*
X114877438Y-113314734D01*
X114849171Y-113378630D01*
X114847894Y-113379471D01*
X114873476Y-113419277D01*
X114877438Y-113438026D01*
X114885899Y-113502286D01*
X114889961Y-113533142D01*
X114917462Y-113599536D01*
X114919713Y-113604969D01*
X114927182Y-113674439D01*
X114895907Y-113736918D01*
X114835818Y-113772570D01*
X114821340Y-113775361D01*
X114797322Y-113778523D01*
X114789472Y-113780627D01*
X114788775Y-113778027D01*
X114732449Y-113784068D01*
X114669978Y-113752775D01*
X114634342Y-113692677D01*
X114630499Y-113662051D01*
X114630499Y-113454208D01*
X114650184Y-113387173D01*
X114660515Y-113378220D01*
X114631980Y-113317652D01*
X114630499Y-113298559D01*
X114630499Y-105800001D01*
X118069318Y-105800001D01*
X118089955Y-105956760D01*
X118089956Y-105956762D01*
X118139838Y-106077189D01*
X118150464Y-106102841D01*
X118246718Y-106228282D01*
X118372159Y-106324536D01*
X118518238Y-106385044D01*
X118596618Y-106395363D01*
X118674999Y-106405682D01*
X118675000Y-106405682D01*
X118675001Y-106405682D01*
X118727254Y-106398802D01*
X118831762Y-106385044D01*
X118977841Y-106324536D01*
X119103282Y-106228282D01*
X119199536Y-106102841D01*
X119260044Y-105956762D01*
X119280682Y-105800000D01*
X119260044Y-105643238D01*
X119199536Y-105497159D01*
X119103282Y-105371718D01*
X118977841Y-105275464D01*
X118976612Y-105274955D01*
X118831762Y-105214956D01*
X118831760Y-105214955D01*
X118675001Y-105194318D01*
X118674999Y-105194318D01*
X118518239Y-105214955D01*
X118518237Y-105214956D01*
X118372160Y-105275463D01*
X118246718Y-105371718D01*
X118150463Y-105497160D01*
X118089956Y-105643237D01*
X118089955Y-105643239D01*
X118069318Y-105799998D01*
X118069318Y-105800001D01*
X114630499Y-105800001D01*
X114630499Y-105312255D01*
X114650184Y-105245217D01*
X114666818Y-105224575D01*
X114667523Y-105223870D01*
X114728846Y-105190385D01*
X114798538Y-105195369D01*
X114830685Y-105213172D01*
X114910657Y-105274536D01*
X115056736Y-105335044D01*
X115135116Y-105345363D01*
X115213497Y-105355682D01*
X115213498Y-105355682D01*
X115213499Y-105355682D01*
X115265752Y-105348802D01*
X115370260Y-105335044D01*
X115516339Y-105274536D01*
X115641780Y-105178282D01*
X115738034Y-105052841D01*
X115798542Y-104906762D01*
X115819180Y-104750000D01*
X115817637Y-104738282D01*
X115801123Y-104612841D01*
X115798542Y-104593238D01*
X115738034Y-104447159D01*
X115641780Y-104321718D01*
X115516339Y-104225464D01*
X115473822Y-104207853D01*
X115370260Y-104164956D01*
X115370258Y-104164955D01*
X115213499Y-104144318D01*
X115213497Y-104144318D01*
X115056737Y-104164955D01*
X115056735Y-104164956D01*
X114910658Y-104225463D01*
X114910656Y-104225464D01*
X114910657Y-104225464D01*
X114785216Y-104321718D01*
X114785214Y-104321720D01*
X114782405Y-104323876D01*
X114717235Y-104349070D01*
X114706918Y-104349500D01*
X114513572Y-104349500D01*
X114446533Y-104329815D01*
X114400778Y-104277011D01*
X114390834Y-104207853D01*
X114415195Y-104150015D01*
X114419566Y-104144318D01*
X114424536Y-104137841D01*
X114485044Y-103991762D01*
X114498802Y-103887254D01*
X114505682Y-103835001D01*
X114505682Y-103834998D01*
X114491923Y-103730492D01*
X114485044Y-103678238D01*
X114424536Y-103532159D01*
X114328282Y-103406718D01*
X114202841Y-103310464D01*
X114125144Y-103278281D01*
X114056762Y-103249956D01*
X114056760Y-103249955D01*
X113900001Y-103229318D01*
X113899999Y-103229318D01*
X113743239Y-103249955D01*
X113743237Y-103249956D01*
X113597160Y-103310463D01*
X113471718Y-103406718D01*
X113375463Y-103532160D01*
X113314956Y-103678237D01*
X113314955Y-103678239D01*
X113294318Y-103834998D01*
X113294318Y-103835001D01*
X113314955Y-103991760D01*
X113314956Y-103991762D01*
X113375464Y-104137841D01*
X113471718Y-104263282D01*
X113471720Y-104263283D01*
X113473876Y-104266093D01*
X113499070Y-104331263D01*
X113499500Y-104341580D01*
X113499500Y-105214775D01*
X113479815Y-105281814D01*
X113427011Y-105327569D01*
X113357853Y-105337513D01*
X113328048Y-105329336D01*
X113196765Y-105274957D01*
X113196760Y-105274955D01*
X113040001Y-105254318D01*
X113039999Y-105254318D01*
X112883239Y-105274955D01*
X112883237Y-105274956D01*
X112737160Y-105335463D01*
X112611718Y-105431718D01*
X112515463Y-105557160D01*
X112454956Y-105703237D01*
X112454955Y-105703239D01*
X112434318Y-105859998D01*
X112434318Y-105860001D01*
X112447550Y-105960512D01*
X112436784Y-106029548D01*
X112400098Y-106075072D01*
X112321720Y-106135214D01*
X112225463Y-106260658D01*
X112164956Y-106406735D01*
X112164955Y-106406737D01*
X112144318Y-106563496D01*
X112144318Y-106563499D01*
X112164955Y-106720258D01*
X112164956Y-106720260D01*
X112219662Y-106852333D01*
X112225464Y-106866339D01*
X112321718Y-106991780D01*
X112447159Y-107088034D01*
X112593238Y-107148542D01*
X112654012Y-107156543D01*
X112749999Y-107169180D01*
X112750000Y-107169180D01*
X112750001Y-107169180D01*
X112808351Y-107161498D01*
X112906762Y-107148542D01*
X113052841Y-107088034D01*
X113178282Y-106991780D01*
X113274536Y-106866339D01*
X113274537Y-106866337D01*
X113277124Y-106862966D01*
X113333552Y-106821763D01*
X113403298Y-106817608D01*
X113464218Y-106851820D01*
X113496971Y-106913538D01*
X113499500Y-106938452D01*
X113499500Y-110847872D01*
X113479815Y-110914911D01*
X113427011Y-110960666D01*
X113375500Y-110971872D01*
X113370788Y-110971872D01*
X113214028Y-110992509D01*
X113214026Y-110992510D01*
X113067949Y-111053017D01*
X112942507Y-111149272D01*
X112846252Y-111274714D01*
X112785744Y-111420793D01*
X112783664Y-111428558D01*
X112747297Y-111488218D01*
X112684449Y-111518745D01*
X112680080Y-111519400D01*
X112660256Y-111522010D01*
X112514179Y-111582517D01*
X112388737Y-111678772D01*
X112292482Y-111804214D01*
X112231975Y-111950291D01*
X112231974Y-111950293D01*
X112211337Y-112107052D01*
X112211337Y-112107055D01*
X112231974Y-112263814D01*
X112231975Y-112263816D01*
X112279141Y-112377686D01*
X112292483Y-112409895D01*
X112388737Y-112535336D01*
X112514178Y-112631590D01*
X112624344Y-112677222D01*
X112678748Y-112721063D01*
X112699831Y-112775598D01*
X112703600Y-112804227D01*
X112692834Y-112873262D01*
X112656149Y-112918787D01*
X112603367Y-112959288D01*
X112507110Y-113084733D01*
X112446603Y-113230810D01*
X112446602Y-113230812D01*
X112425965Y-113387571D01*
X112425965Y-113387574D01*
X112434338Y-113451175D01*
X112423572Y-113520210D01*
X112377192Y-113572466D01*
X112373410Y-113574741D01*
X112372161Y-113575461D01*
X112246719Y-113671716D01*
X112150463Y-113797160D01*
X112089956Y-113943237D01*
X112089955Y-113943239D01*
X112069318Y-114099998D01*
X112069318Y-114100001D01*
X101125000Y-114100001D01*
X101125000Y-113637833D01*
X101144685Y-113570794D01*
X101197489Y-113525039D01*
X101266647Y-113515095D01*
X101313427Y-113531884D01*
X101332097Y-113543238D01*
X101504433Y-113648038D01*
X101624065Y-113700001D01*
X101761725Y-113759795D01*
X102031839Y-113835478D01*
X102276159Y-113869059D01*
X102309741Y-113873675D01*
X102309742Y-113873675D01*
X102590259Y-113873675D01*
X102620219Y-113869556D01*
X102868161Y-113835478D01*
X103138275Y-113759795D01*
X103367925Y-113660044D01*
X103395566Y-113648038D01*
X103395568Y-113648037D01*
X103635246Y-113502286D01*
X103852845Y-113325256D01*
X104044312Y-113120244D01*
X104206081Y-112891071D01*
X104279177Y-112750001D01*
X109244318Y-112750001D01*
X109264955Y-112906760D01*
X109264956Y-112906762D01*
X109325464Y-113052841D01*
X109421718Y-113178282D01*
X109547159Y-113274536D01*
X109693238Y-113335044D01*
X109771618Y-113345362D01*
X109849999Y-113355682D01*
X109850000Y-113355682D01*
X109850001Y-113355682D01*
X109902253Y-113348802D01*
X110006762Y-113335044D01*
X110152841Y-113274536D01*
X110278282Y-113178282D01*
X110374536Y-113052841D01*
X110435044Y-112906762D01*
X110455682Y-112750000D01*
X110452329Y-112724535D01*
X110435044Y-112593239D01*
X110435044Y-112593238D01*
X110374536Y-112447159D01*
X110278282Y-112321718D01*
X110152841Y-112225464D01*
X110098224Y-112202841D01*
X110006762Y-112164956D01*
X110006760Y-112164955D01*
X109850001Y-112144318D01*
X109849999Y-112144318D01*
X109693239Y-112164955D01*
X109693237Y-112164956D01*
X109547160Y-112225463D01*
X109421718Y-112321718D01*
X109325463Y-112447160D01*
X109264956Y-112593237D01*
X109264955Y-112593239D01*
X109244318Y-112749998D01*
X109244318Y-112750001D01*
X104279177Y-112750001D01*
X104335136Y-112642005D01*
X104429075Y-112377686D01*
X104429076Y-112377679D01*
X104429078Y-112377674D01*
X104465409Y-112202839D01*
X104486148Y-112103037D01*
X104505291Y-111823175D01*
X104486148Y-111543313D01*
X104453667Y-111387006D01*
X104429078Y-111268675D01*
X104429073Y-111268658D01*
X104340074Y-111018239D01*
X104335136Y-111004345D01*
X104206081Y-110755279D01*
X104044312Y-110526106D01*
X104044307Y-110526100D01*
X103852845Y-110321094D01*
X103635242Y-110144061D01*
X103395566Y-109998311D01*
X103174563Y-109902317D01*
X103120916Y-109857554D01*
X103099987Y-109790893D01*
X103118419Y-109723498D01*
X103139112Y-109701562D01*
X103139572Y-109696299D01*
X102672057Y-109228785D01*
X102638572Y-109167462D01*
X102643556Y-109097771D01*
X102685427Y-109041837D01*
X102705930Y-109029387D01*
X102706357Y-109029182D01*
X102805798Y-108936915D01*
X102828032Y-108898403D01*
X102878597Y-108850189D01*
X102947204Y-108836965D01*
X103012069Y-108862932D01*
X103023100Y-108872723D01*
X103493124Y-109342747D01*
X103536666Y-109280562D01*
X103629101Y-109082334D01*
X103629105Y-109082325D01*
X103685710Y-108871069D01*
X103685712Y-108871059D01*
X103704775Y-108653175D01*
X103704775Y-108653174D01*
X103685712Y-108435290D01*
X103685710Y-108435280D01*
X103629105Y-108224024D01*
X103629101Y-108224015D01*
X103536668Y-108025790D01*
X103493123Y-107963602D01*
X103025184Y-108431542D01*
X102963861Y-108465027D01*
X102894169Y-108460043D01*
X102840555Y-108421173D01*
X102759535Y-108319575D01*
X102759533Y-108319574D01*
X102687275Y-108270309D01*
X102642973Y-108216281D01*
X102634915Y-108146877D01*
X102665657Y-108084134D01*
X102669446Y-108080175D01*
X103139572Y-107610049D01*
X103139571Y-107610048D01*
X103077391Y-107566510D01*
X102879159Y-107474073D01*
X102879150Y-107474069D01*
X102667894Y-107417464D01*
X102667884Y-107417462D01*
X102543673Y-107406595D01*
X102478604Y-107381142D01*
X102449494Y-107340941D01*
X102430821Y-107373064D01*
X102368623Y-107404895D01*
X102356326Y-107406595D01*
X102232115Y-107417462D01*
X102232105Y-107417464D01*
X102020849Y-107474069D01*
X102020840Y-107474073D01*
X101822614Y-107566507D01*
X101822612Y-107566508D01*
X101760428Y-107610050D01*
X101760427Y-107610050D01*
X102227942Y-108077564D01*
X102261427Y-108138887D01*
X102256443Y-108208578D01*
X102214572Y-108264512D01*
X102194073Y-108276960D01*
X102193646Y-108277165D01*
X102193645Y-108277165D01*
X102094202Y-108369435D01*
X102094199Y-108369439D01*
X102071967Y-108407946D01*
X102021400Y-108456162D01*
X101952793Y-108469384D01*
X101887928Y-108443416D01*
X101876899Y-108433627D01*
X101406875Y-107963602D01*
X101406875Y-107963603D01*
X101363333Y-108025787D01*
X101363331Y-108025791D01*
X101361381Y-108029974D01*
X101315207Y-108082413D01*
X101248013Y-108101563D01*
X101181133Y-108081346D01*
X101135799Y-108028179D01*
X101125000Y-107977567D01*
X101125000Y-106113175D01*
X101394417Y-106113175D01*
X101414699Y-106319107D01*
X101440961Y-106405682D01*
X101474768Y-106517129D01*
X101572315Y-106699625D01*
X101589248Y-106720258D01*
X101703589Y-106859585D01*
X101769332Y-106913538D01*
X101863550Y-106990860D01*
X102046046Y-107088407D01*
X102244066Y-107148475D01*
X102244065Y-107148475D01*
X102268255Y-107150857D01*
X102357673Y-107159664D01*
X102422459Y-107185825D01*
X102450431Y-107225355D01*
X102468202Y-107194005D01*
X102504359Y-107175001D01*
X105044318Y-107175001D01*
X105064955Y-107331760D01*
X105064956Y-107331762D01*
X105123901Y-107474069D01*
X105125464Y-107477841D01*
X105221718Y-107603282D01*
X105347159Y-107699536D01*
X105493238Y-107760044D01*
X105571618Y-107770362D01*
X105649999Y-107780682D01*
X105650000Y-107780682D01*
X105650001Y-107780682D01*
X105702254Y-107773802D01*
X105806762Y-107760044D01*
X105952841Y-107699536D01*
X106078282Y-107603282D01*
X106174536Y-107477841D01*
X106235044Y-107331762D01*
X106255299Y-107177907D01*
X106255682Y-107175001D01*
X106255682Y-107174998D01*
X106235995Y-107025463D01*
X106235044Y-107018238D01*
X106174536Y-106872159D01*
X106078282Y-106746718D01*
X105952841Y-106650464D01*
X105930618Y-106641259D01*
X105806762Y-106589956D01*
X105806760Y-106589955D01*
X105650001Y-106569318D01*
X105649999Y-106569318D01*
X105493239Y-106589955D01*
X105493237Y-106589956D01*
X105347160Y-106650463D01*
X105221718Y-106746718D01*
X105125463Y-106872160D01*
X105064956Y-107018237D01*
X105064955Y-107018239D01*
X105044318Y-107174998D01*
X105044318Y-107175001D01*
X102504359Y-107175001D01*
X102530049Y-107161498D01*
X102542317Y-107159665D01*
X102655934Y-107148475D01*
X102853954Y-107088407D01*
X103036450Y-106990860D01*
X103196410Y-106859585D01*
X103327685Y-106699625D01*
X103425232Y-106517129D01*
X103485300Y-106319109D01*
X103505583Y-106113175D01*
X103485300Y-105907241D01*
X103425232Y-105709221D01*
X103327685Y-105526725D01*
X103268858Y-105455044D01*
X103196410Y-105366764D01*
X103048302Y-105245217D01*
X103036450Y-105235490D01*
X102853954Y-105137943D01*
X102655934Y-105077875D01*
X102655932Y-105077874D01*
X102655934Y-105077874D01*
X102450000Y-105057592D01*
X102244067Y-105077874D01*
X102046043Y-105137944D01*
X101959880Y-105184000D01*
X101863550Y-105235490D01*
X101863548Y-105235491D01*
X101863547Y-105235492D01*
X101703589Y-105366764D01*
X101572317Y-105526722D01*
X101474769Y-105709218D01*
X101414699Y-105907242D01*
X101394417Y-106113175D01*
X101125000Y-106113175D01*
X101125000Y-103573175D01*
X101394417Y-103573175D01*
X101414699Y-103779107D01*
X101431654Y-103835000D01*
X101474768Y-103977129D01*
X101572315Y-104159625D01*
X101576690Y-104164956D01*
X101703589Y-104319585D01*
X101775795Y-104378842D01*
X101863550Y-104450860D01*
X102046046Y-104548407D01*
X102244066Y-104608475D01*
X102244065Y-104608475D01*
X102264347Y-104610472D01*
X102450000Y-104628758D01*
X102655934Y-104608475D01*
X102853954Y-104548407D01*
X103036450Y-104450860D01*
X103196410Y-104319585D01*
X103327685Y-104159625D01*
X103425232Y-103977129D01*
X103485300Y-103779109D01*
X103505583Y-103573175D01*
X103485300Y-103367241D01*
X103425232Y-103169221D01*
X103327685Y-102986725D01*
X103275702Y-102923384D01*
X103215480Y-102850001D01*
X115723818Y-102850001D01*
X115744455Y-103006760D01*
X115744456Y-103006762D01*
X115776881Y-103085044D01*
X115804964Y-103152841D01*
X115901218Y-103278282D01*
X116026659Y-103374536D01*
X116172738Y-103435044D01*
X116172739Y-103435044D01*
X116178994Y-103437635D01*
X116233398Y-103481476D01*
X116255463Y-103547770D01*
X116254481Y-103568381D01*
X116234718Y-103718498D01*
X116234718Y-103718501D01*
X116255355Y-103875260D01*
X116255356Y-103875262D01*
X116309989Y-104007159D01*
X116315864Y-104021341D01*
X116412118Y-104146782D01*
X116537559Y-104243036D01*
X116683638Y-104303544D01*
X116732684Y-104310001D01*
X116840399Y-104324182D01*
X116840400Y-104324182D01*
X116840401Y-104324182D01*
X116892653Y-104317302D01*
X116997162Y-104303544D01*
X117143241Y-104243036D01*
X117268682Y-104146782D01*
X117364936Y-104021341D01*
X117425444Y-103875262D01*
X117442847Y-103743074D01*
X117446082Y-103718501D01*
X117446082Y-103718498D01*
X117432323Y-103613991D01*
X117425444Y-103561738D01*
X117364936Y-103415659D01*
X117268682Y-103290218D01*
X117143241Y-103193964D01*
X116997162Y-103133456D01*
X116997161Y-103133455D01*
X116990904Y-103130864D01*
X116936501Y-103087023D01*
X116914436Y-103020729D01*
X116915417Y-103000126D01*
X116935182Y-102850000D01*
X116928973Y-102802841D01*
X116914544Y-102693239D01*
X116914544Y-102693238D01*
X116854036Y-102547159D01*
X116757782Y-102421718D01*
X116632341Y-102325464D01*
X116486262Y-102264956D01*
X116486260Y-102264955D01*
X116329501Y-102244318D01*
X116329499Y-102244318D01*
X116172739Y-102264955D01*
X116172737Y-102264956D01*
X116026660Y-102325463D01*
X115901218Y-102421718D01*
X115804963Y-102547160D01*
X115744456Y-102693237D01*
X115744455Y-102693239D01*
X115723818Y-102849998D01*
X115723818Y-102850001D01*
X103215480Y-102850001D01*
X103196410Y-102826764D01*
X103078677Y-102730144D01*
X103036450Y-102695490D01*
X102853954Y-102597943D01*
X102655934Y-102537875D01*
X102655932Y-102537874D01*
X102655934Y-102537874D01*
X102468463Y-102519410D01*
X102450000Y-102517592D01*
X102449999Y-102517592D01*
X102244067Y-102537874D01*
X102046043Y-102597944D01*
X101936004Y-102656762D01*
X101863550Y-102695490D01*
X101863548Y-102695491D01*
X101863547Y-102695492D01*
X101703589Y-102826764D01*
X101572317Y-102986722D01*
X101572315Y-102986725D01*
X101533643Y-103059072D01*
X101474769Y-103169218D01*
X101414699Y-103367242D01*
X101394417Y-103573175D01*
X101125000Y-103573175D01*
X101125000Y-101033175D01*
X101394417Y-101033175D01*
X101414699Y-101239107D01*
X101438231Y-101316680D01*
X101474768Y-101437129D01*
X101572315Y-101619625D01*
X101572317Y-101619627D01*
X101703589Y-101779585D01*
X101772694Y-101836297D01*
X101863550Y-101910860D01*
X102046046Y-102008407D01*
X102244066Y-102068475D01*
X102244065Y-102068475D01*
X102264347Y-102070472D01*
X102450000Y-102088758D01*
X102655934Y-102068475D01*
X102853954Y-102008407D01*
X103036450Y-101910860D01*
X103196410Y-101779585D01*
X103327685Y-101619625D01*
X103425232Y-101437129D01*
X103485300Y-101239109D01*
X103505583Y-101033175D01*
X103485300Y-100827241D01*
X103461870Y-100750001D01*
X108819318Y-100750001D01*
X108839955Y-100906760D01*
X108839956Y-100906762D01*
X108879884Y-101003158D01*
X108900464Y-101052841D01*
X108996718Y-101178282D01*
X109122159Y-101274536D01*
X109268238Y-101335044D01*
X109346618Y-101345363D01*
X109424999Y-101355682D01*
X109425000Y-101355682D01*
X109425001Y-101355682D01*
X109477253Y-101348802D01*
X109581762Y-101335044D01*
X109727841Y-101274536D01*
X109853282Y-101178282D01*
X109949536Y-101052841D01*
X110010044Y-100906762D01*
X110030682Y-100750000D01*
X110025518Y-100710778D01*
X110010044Y-100593239D01*
X110010044Y-100593238D01*
X109949536Y-100447159D01*
X109853282Y-100321718D01*
X109727841Y-100225464D01*
X109718797Y-100221718D01*
X109581762Y-100164956D01*
X109581760Y-100164955D01*
X109425001Y-100144318D01*
X109424999Y-100144318D01*
X109268239Y-100164955D01*
X109268237Y-100164956D01*
X109122160Y-100225463D01*
X108996718Y-100321718D01*
X108900463Y-100447160D01*
X108839956Y-100593237D01*
X108839955Y-100593239D01*
X108819318Y-100749998D01*
X108819318Y-100750001D01*
X103461870Y-100750001D01*
X103425232Y-100629221D01*
X103327685Y-100446725D01*
X103229644Y-100327261D01*
X103196410Y-100286764D01*
X103036452Y-100155492D01*
X103036453Y-100155492D01*
X103036450Y-100155490D01*
X102853954Y-100057943D01*
X102655934Y-99997875D01*
X102655932Y-99997874D01*
X102655934Y-99997874D01*
X102468463Y-99979410D01*
X102450000Y-99977592D01*
X102449999Y-99977592D01*
X102244067Y-99997874D01*
X102046043Y-100057944D01*
X101980016Y-100093237D01*
X101863550Y-100155490D01*
X101863548Y-100155491D01*
X101863547Y-100155492D01*
X101703589Y-100286764D01*
X101572317Y-100446722D01*
X101572315Y-100446725D01*
X101547453Y-100493238D01*
X101474769Y-100629218D01*
X101474768Y-100629220D01*
X101474768Y-100629221D01*
X101468465Y-100650000D01*
X101414699Y-100827242D01*
X101394417Y-101033175D01*
X101125000Y-101033175D01*
X101125000Y-99825001D01*
X103494318Y-99825001D01*
X103514955Y-99981760D01*
X103514956Y-99981762D01*
X103561130Y-100093237D01*
X103575464Y-100127841D01*
X103671718Y-100253282D01*
X103797159Y-100349536D01*
X103943238Y-100410044D01*
X104021619Y-100420363D01*
X104099999Y-100430682D01*
X104100000Y-100430682D01*
X104100001Y-100430682D01*
X104152254Y-100423802D01*
X104256762Y-100410044D01*
X104402841Y-100349536D01*
X104528282Y-100253282D01*
X104624536Y-100127841D01*
X104685044Y-99981762D01*
X104705682Y-99825000D01*
X104685044Y-99668238D01*
X104624536Y-99522159D01*
X104528282Y-99396718D01*
X104402841Y-99300464D01*
X104401723Y-99300001D01*
X104256762Y-99239956D01*
X104256760Y-99239955D01*
X104100001Y-99219318D01*
X104099999Y-99219318D01*
X103943239Y-99239955D01*
X103943237Y-99239956D01*
X103797160Y-99300463D01*
X103671718Y-99396718D01*
X103575463Y-99522160D01*
X103514956Y-99668237D01*
X103514955Y-99668239D01*
X103494318Y-99824998D01*
X103494318Y-99825001D01*
X101125000Y-99825001D01*
X101125000Y-98493174D01*
X101394417Y-98493174D01*
X101414699Y-98699107D01*
X101433036Y-98759555D01*
X101474768Y-98897129D01*
X101572315Y-99079625D01*
X101572317Y-99079627D01*
X101703589Y-99239585D01*
X101794474Y-99314171D01*
X101863550Y-99370860D01*
X102046046Y-99468407D01*
X102244066Y-99528475D01*
X102244065Y-99528475D01*
X102262529Y-99530293D01*
X102450000Y-99548758D01*
X102655934Y-99528475D01*
X102853954Y-99468407D01*
X103036450Y-99370860D01*
X103196410Y-99239585D01*
X103278136Y-99140001D01*
X115394318Y-99140001D01*
X115414955Y-99296760D01*
X115414956Y-99296762D01*
X115437719Y-99351718D01*
X115475464Y-99442841D01*
X115571718Y-99568282D01*
X115697159Y-99664536D01*
X115843238Y-99725044D01*
X115916811Y-99734730D01*
X115999999Y-99745682D01*
X116000000Y-99745682D01*
X116000001Y-99745682D01*
X116083189Y-99734730D01*
X116156762Y-99725044D01*
X116302841Y-99664536D01*
X116428282Y-99568282D01*
X116524536Y-99442841D01*
X116585044Y-99296762D01*
X116605682Y-99140000D01*
X116603845Y-99126050D01*
X116586319Y-98992920D01*
X116585044Y-98983238D01*
X116524536Y-98837159D01*
X116428282Y-98711718D01*
X116302841Y-98615464D01*
X116266625Y-98600463D01*
X116156762Y-98554956D01*
X116156760Y-98554955D01*
X116000001Y-98534318D01*
X115999999Y-98534318D01*
X115843239Y-98554955D01*
X115843237Y-98554956D01*
X115697160Y-98615463D01*
X115571718Y-98711718D01*
X115475463Y-98837160D01*
X115414956Y-98983237D01*
X115414955Y-98983239D01*
X115394318Y-99139998D01*
X115394318Y-99140001D01*
X103278136Y-99140001D01*
X103327685Y-99079625D01*
X103425232Y-98897129D01*
X103485300Y-98699109D01*
X103505583Y-98493175D01*
X103485300Y-98287241D01*
X103425232Y-98089221D01*
X103352110Y-97952422D01*
X103337869Y-97884020D01*
X103362869Y-97818776D01*
X103419173Y-97777405D01*
X103488907Y-97773043D01*
X103508917Y-97779406D01*
X103643238Y-97835044D01*
X103704240Y-97843075D01*
X103799999Y-97855682D01*
X103800000Y-97855682D01*
X103800001Y-97855682D01*
X103852253Y-97848802D01*
X103956762Y-97835044D01*
X104102841Y-97774536D01*
X104228282Y-97678282D01*
X104324536Y-97552841D01*
X104385044Y-97406762D01*
X104405682Y-97250000D01*
X104385044Y-97093238D01*
X104324536Y-96947159D01*
X104228282Y-96821718D01*
X104102841Y-96725464D01*
X104097573Y-96723282D01*
X103956762Y-96664956D01*
X103956760Y-96664955D01*
X103800001Y-96644318D01*
X103799999Y-96644318D01*
X103643239Y-96664955D01*
X103643237Y-96664956D01*
X103497158Y-96725464D01*
X103482695Y-96736562D01*
X103417525Y-96761754D01*
X103349081Y-96747714D01*
X103299092Y-96698899D01*
X103283431Y-96630807D01*
X103307068Y-96565058D01*
X103311339Y-96559541D01*
X103327685Y-96539625D01*
X103425232Y-96357129D01*
X103485300Y-96159109D01*
X103505583Y-95953175D01*
X103485300Y-95747241D01*
X103425232Y-95549221D01*
X103327685Y-95366725D01*
X103196410Y-95206765D01*
X103191783Y-95202968D01*
X103152448Y-95145224D01*
X103150575Y-95075380D01*
X103186761Y-95015610D01*
X103249515Y-94984892D01*
X103286631Y-94984174D01*
X103293237Y-94985043D01*
X103293238Y-94985044D01*
X103373252Y-94995578D01*
X103449999Y-95005682D01*
X103450000Y-95005682D01*
X103450001Y-95005682D01*
X103502253Y-94998802D01*
X103606762Y-94985044D01*
X103752841Y-94924536D01*
X103878282Y-94828282D01*
X103974536Y-94702841D01*
X104035044Y-94556762D01*
X104055682Y-94400000D01*
X104055067Y-94395332D01*
X104035044Y-94243239D01*
X104035044Y-94243238D01*
X103975713Y-94100001D01*
X108119318Y-94100001D01*
X108139955Y-94256760D01*
X108139956Y-94256762D01*
X108199287Y-94400001D01*
X108200464Y-94402841D01*
X108296718Y-94528282D01*
X108422159Y-94624536D01*
X108568238Y-94685044D01*
X108646618Y-94695363D01*
X108724999Y-94705682D01*
X108725000Y-94705682D01*
X108725001Y-94705682D01*
X108777253Y-94698802D01*
X108881762Y-94685044D01*
X109027841Y-94624536D01*
X109153282Y-94528282D01*
X109174983Y-94500001D01*
X118408818Y-94500001D01*
X118429455Y-94656760D01*
X118429456Y-94656762D01*
X118481953Y-94783502D01*
X118489964Y-94802841D01*
X118586218Y-94928282D01*
X118711659Y-95024536D01*
X118857738Y-95085044D01*
X118936119Y-95095362D01*
X119014499Y-95105682D01*
X119014500Y-95105682D01*
X119014501Y-95105682D01*
X119066753Y-95098802D01*
X119171262Y-95085044D01*
X119252473Y-95051404D01*
X119321943Y-95043936D01*
X119384422Y-95075211D01*
X119420074Y-95135300D01*
X119417580Y-95205125D01*
X119398302Y-95241452D01*
X119359010Y-95292657D01*
X119298502Y-95438737D01*
X119298501Y-95438739D01*
X119277864Y-95595498D01*
X119277864Y-95595501D01*
X119298501Y-95752260D01*
X119298502Y-95752262D01*
X119356602Y-95892529D01*
X119359010Y-95898341D01*
X119455264Y-96023782D01*
X119455265Y-96023783D01*
X119455267Y-96023785D01*
X119466965Y-96032761D01*
X119508168Y-96089188D01*
X119514418Y-96147322D01*
X119494317Y-96299998D01*
X119494318Y-96300004D01*
X119498454Y-96331424D01*
X119487688Y-96400459D01*
X119441307Y-96452714D01*
X119374037Y-96471598D01*
X119359331Y-96470546D01*
X119350003Y-96469318D01*
X119349999Y-96469318D01*
X119193239Y-96489955D01*
X119193237Y-96489956D01*
X119047160Y-96550463D01*
X118921718Y-96646718D01*
X118825463Y-96772160D01*
X118764956Y-96918237D01*
X118764955Y-96918239D01*
X118744318Y-97074998D01*
X118744318Y-97075001D01*
X118764955Y-97231760D01*
X118764956Y-97231762D01*
X118820630Y-97366172D01*
X118825464Y-97377841D01*
X118921718Y-97503282D01*
X118984138Y-97551178D01*
X119025341Y-97607606D01*
X119029496Y-97677352D01*
X119023214Y-97697005D01*
X118992057Y-97772226D01*
X118992056Y-97772227D01*
X118971419Y-97928986D01*
X118971419Y-97928989D01*
X118992056Y-98085748D01*
X118992057Y-98085750D01*
X119048177Y-98221237D01*
X119052565Y-98231829D01*
X119148819Y-98357270D01*
X119274260Y-98453524D01*
X119420339Y-98514032D01*
X119498719Y-98524350D01*
X119577100Y-98534670D01*
X119577101Y-98534670D01*
X119577102Y-98534670D01*
X119629355Y-98527790D01*
X119733863Y-98514032D01*
X119879942Y-98453524D01*
X119948619Y-98400826D01*
X120013786Y-98375633D01*
X120071557Y-98384642D01*
X120193238Y-98435044D01*
X120224366Y-98439142D01*
X120349999Y-98455682D01*
X120350000Y-98455682D01*
X120350001Y-98455682D01*
X120402253Y-98448802D01*
X120506762Y-98435044D01*
X120652841Y-98374536D01*
X120696852Y-98340765D01*
X120762019Y-98315572D01*
X120830464Y-98329610D01*
X120880454Y-98378424D01*
X120896337Y-98439142D01*
X120896337Y-111651142D01*
X120876652Y-111718181D01*
X120823848Y-111763936D01*
X120754690Y-111773880D01*
X120696851Y-111749518D01*
X120600342Y-111675464D01*
X120454262Y-111614956D01*
X120454260Y-111614955D01*
X120297501Y-111594318D01*
X120297499Y-111594318D01*
X120140739Y-111614955D01*
X120140737Y-111614956D01*
X119994660Y-111675463D01*
X119869218Y-111771718D01*
X119772963Y-111897160D01*
X119712456Y-112043237D01*
X119712455Y-112043239D01*
X119691818Y-112199998D01*
X119691818Y-112200001D01*
X119712455Y-112356760D01*
X119712456Y-112356762D01*
X119753275Y-112455309D01*
X119772964Y-112502841D01*
X119869218Y-112628282D01*
X119994659Y-112724536D01*
X120140738Y-112785044D01*
X120188531Y-112791336D01*
X120297499Y-112805682D01*
X120297500Y-112805682D01*
X120297501Y-112805682D01*
X120349754Y-112798802D01*
X120454262Y-112785044D01*
X120600341Y-112724536D01*
X120696851Y-112650480D01*
X120762018Y-112625287D01*
X120830463Y-112639325D01*
X120880453Y-112688138D01*
X120896336Y-112748857D01*
X120896336Y-113622542D01*
X120876651Y-113689581D01*
X120870712Y-113698028D01*
X120775464Y-113822157D01*
X120714956Y-113968237D01*
X120714955Y-113968239D01*
X120694318Y-114124998D01*
X120694318Y-114125001D01*
X120714955Y-114281760D01*
X120714956Y-114281762D01*
X120747381Y-114360044D01*
X120775464Y-114427841D01*
X120871718Y-114553282D01*
X120997159Y-114649536D01*
X121143238Y-114710044D01*
X121195482Y-114716922D01*
X121299999Y-114730682D01*
X121300000Y-114730682D01*
X121300001Y-114730682D01*
X121352253Y-114723802D01*
X121456762Y-114710044D01*
X121602841Y-114649536D01*
X121728282Y-114553282D01*
X121738473Y-114540001D01*
X127744318Y-114540001D01*
X127764955Y-114696760D01*
X127764956Y-114696762D01*
X127818947Y-114827109D01*
X127825464Y-114842841D01*
X127921718Y-114968282D01*
X128047159Y-115064536D01*
X128193238Y-115125044D01*
X128319159Y-115141621D01*
X128383054Y-115169887D01*
X128421526Y-115228211D01*
X128422358Y-115298076D01*
X128417536Y-115312007D01*
X128414958Y-115318231D01*
X128414955Y-115318239D01*
X128394318Y-115474998D01*
X128394318Y-115475001D01*
X128414955Y-115631760D01*
X128414956Y-115631762D01*
X128475464Y-115777841D01*
X128571718Y-115903282D01*
X128611431Y-115933754D01*
X128652633Y-115990180D01*
X128656788Y-116059926D01*
X128626297Y-116114988D01*
X128626666Y-116115271D01*
X128624782Y-116117725D01*
X128623631Y-116119805D01*
X128621721Y-116121714D01*
X128525463Y-116247160D01*
X128464956Y-116393237D01*
X128464955Y-116393239D01*
X128444318Y-116549998D01*
X128444318Y-116550001D01*
X128464955Y-116706760D01*
X128464956Y-116706762D01*
X128510891Y-116817660D01*
X128525464Y-116852841D01*
X128621718Y-116978282D01*
X128682766Y-117025126D01*
X128692550Y-117032633D01*
X128733753Y-117089061D01*
X128737908Y-117158807D01*
X128706648Y-117215257D01*
X128706666Y-117215271D01*
X128706574Y-117215390D01*
X128704750Y-117218685D01*
X128701724Y-117221710D01*
X128605463Y-117347160D01*
X128544956Y-117493237D01*
X128544955Y-117493239D01*
X128524318Y-117649998D01*
X128524318Y-117650001D01*
X128544955Y-117806760D01*
X128544956Y-117806762D01*
X128605246Y-117952316D01*
X128605464Y-117952841D01*
X128701718Y-118078282D01*
X128827159Y-118174536D01*
X128973238Y-118235044D01*
X129010541Y-118239955D01*
X129129999Y-118255682D01*
X129130000Y-118255682D01*
X129130001Y-118255682D01*
X129182253Y-118248802D01*
X129286762Y-118235044D01*
X129432841Y-118174536D01*
X129558282Y-118078282D01*
X129654536Y-117952841D01*
X129715044Y-117806762D01*
X129735682Y-117650000D01*
X129735028Y-117645036D01*
X129715044Y-117493239D01*
X129715044Y-117493238D01*
X129654536Y-117347159D01*
X129558282Y-117221718D01*
X129487446Y-117167364D01*
X129446246Y-117110938D01*
X129442091Y-117041192D01*
X129473353Y-116984744D01*
X129473334Y-116984729D01*
X129473435Y-116984597D01*
X129475259Y-116981304D01*
X129478273Y-116978288D01*
X129478282Y-116978282D01*
X129499983Y-116950001D01*
X132469318Y-116950001D01*
X132489955Y-117106760D01*
X132489956Y-117106762D01*
X132550464Y-117252841D01*
X132646718Y-117378282D01*
X132772159Y-117474536D01*
X132918238Y-117535044D01*
X132996619Y-117545363D01*
X133074999Y-117555682D01*
X133075000Y-117555682D01*
X133075001Y-117555682D01*
X133127419Y-117548781D01*
X133231762Y-117535044D01*
X133377841Y-117474536D01*
X133503282Y-117378282D01*
X133599536Y-117252841D01*
X133660044Y-117106762D01*
X133673802Y-117002254D01*
X133680682Y-116950001D01*
X133680682Y-116949998D01*
X133660044Y-116793239D01*
X133660044Y-116793238D01*
X133599536Y-116647159D01*
X133503282Y-116521718D01*
X133377841Y-116425464D01*
X133348397Y-116413268D01*
X133316368Y-116400001D01*
X146019318Y-116400001D01*
X146039955Y-116556760D01*
X146039956Y-116556762D01*
X146100464Y-116702841D01*
X146196718Y-116828282D01*
X146322159Y-116924536D01*
X146468238Y-116985044D01*
X146535795Y-116993938D01*
X146624999Y-117005682D01*
X146625000Y-117005682D01*
X146625001Y-117005682D01*
X146677254Y-116998802D01*
X146781762Y-116985044D01*
X146927841Y-116924536D01*
X147053282Y-116828282D01*
X147149536Y-116702841D01*
X147210044Y-116556762D01*
X147230682Y-116400000D01*
X147230061Y-116395285D01*
X147213279Y-116267814D01*
X147210044Y-116243238D01*
X147149536Y-116097159D01*
X147094167Y-116025001D01*
X147744318Y-116025001D01*
X147764955Y-116181760D01*
X147764956Y-116181762D01*
X147822699Y-116321167D01*
X147825464Y-116327841D01*
X147921718Y-116453282D01*
X148047159Y-116549536D01*
X148193238Y-116610044D01*
X148244267Y-116616762D01*
X148349999Y-116630682D01*
X148350000Y-116630682D01*
X148350001Y-116630682D01*
X148402253Y-116623802D01*
X148506762Y-116610044D01*
X148652841Y-116549536D01*
X148778282Y-116453282D01*
X148874536Y-116327841D01*
X148935044Y-116181762D01*
X148955682Y-116025000D01*
X148953179Y-116005990D01*
X148935044Y-115868239D01*
X148935044Y-115868238D01*
X148874536Y-115722159D01*
X148778282Y-115596718D01*
X148652841Y-115500464D01*
X148506762Y-115439956D01*
X148506760Y-115439955D01*
X148350001Y-115419318D01*
X148349999Y-115419318D01*
X148193239Y-115439955D01*
X148193237Y-115439956D01*
X148047160Y-115500463D01*
X147921718Y-115596718D01*
X147825463Y-115722160D01*
X147764956Y-115868237D01*
X147764955Y-115868239D01*
X147744318Y-116024998D01*
X147744318Y-116025001D01*
X147094167Y-116025001D01*
X147053282Y-115971718D01*
X146927841Y-115875464D01*
X146926612Y-115874955D01*
X146781762Y-115814956D01*
X146781760Y-115814955D01*
X146625001Y-115794318D01*
X146624999Y-115794318D01*
X146468239Y-115814955D01*
X146468237Y-115814956D01*
X146322160Y-115875463D01*
X146196718Y-115971718D01*
X146100463Y-116097160D01*
X146039956Y-116243237D01*
X146039955Y-116243239D01*
X146019318Y-116399998D01*
X146019318Y-116400001D01*
X133316368Y-116400001D01*
X133231762Y-116364956D01*
X133231760Y-116364955D01*
X133075001Y-116344318D01*
X133074999Y-116344318D01*
X132918239Y-116364955D01*
X132918237Y-116364956D01*
X132772160Y-116425463D01*
X132646718Y-116521718D01*
X132550463Y-116647160D01*
X132489956Y-116793237D01*
X132489955Y-116793239D01*
X132469318Y-116949998D01*
X132469318Y-116950001D01*
X129499983Y-116950001D01*
X129574536Y-116852841D01*
X129635044Y-116706762D01*
X129655682Y-116550000D01*
X129653361Y-116532373D01*
X129635044Y-116393239D01*
X129635044Y-116393238D01*
X129574536Y-116247159D01*
X129478282Y-116121718D01*
X129478280Y-116121717D01*
X129478280Y-116121716D01*
X129463355Y-116110264D01*
X129438567Y-116091244D01*
X129397366Y-116034819D01*
X129393211Y-115965073D01*
X129423704Y-115910012D01*
X129423334Y-115909729D01*
X129425229Y-115907259D01*
X129426379Y-115905183D01*
X129428269Y-115903291D01*
X129428282Y-115903282D01*
X129524536Y-115777841D01*
X129585044Y-115631762D01*
X129605682Y-115475000D01*
X129602764Y-115452839D01*
X129585044Y-115318239D01*
X129585044Y-115318238D01*
X129524536Y-115172159D01*
X129507534Y-115150001D01*
X138244318Y-115150001D01*
X138264955Y-115306760D01*
X138264956Y-115306762D01*
X138325464Y-115452841D01*
X138421718Y-115578282D01*
X138547159Y-115674536D01*
X138693238Y-115735044D01*
X138771618Y-115745362D01*
X138849999Y-115755682D01*
X138850000Y-115755682D01*
X138850001Y-115755682D01*
X138902253Y-115748802D01*
X139006762Y-115735044D01*
X139152841Y-115674536D01*
X139278282Y-115578282D01*
X139374536Y-115452841D01*
X139435044Y-115306762D01*
X139455682Y-115150000D01*
X139452396Y-115125044D01*
X139435044Y-114993239D01*
X139435044Y-114993238D01*
X139374536Y-114847159D01*
X139278282Y-114721718D01*
X139152841Y-114625464D01*
X139114317Y-114609507D01*
X139006762Y-114564956D01*
X139006760Y-114564955D01*
X138850001Y-114544318D01*
X138849999Y-114544318D01*
X138693239Y-114564955D01*
X138693237Y-114564956D01*
X138547160Y-114625463D01*
X138421718Y-114721718D01*
X138325463Y-114847160D01*
X138264956Y-114993237D01*
X138264955Y-114993239D01*
X138244318Y-115149998D01*
X138244318Y-115150001D01*
X129507534Y-115150001D01*
X129428282Y-115046718D01*
X129302841Y-114950464D01*
X129156762Y-114889956D01*
X129096096Y-114881969D01*
X129030840Y-114873378D01*
X128966944Y-114845111D01*
X128928473Y-114786787D01*
X128927642Y-114716922D01*
X128932464Y-114702990D01*
X128935044Y-114696762D01*
X128949306Y-114588429D01*
X128955682Y-114540001D01*
X128955682Y-114539998D01*
X128937625Y-114402841D01*
X128935044Y-114383238D01*
X128874536Y-114237159D01*
X128778282Y-114111718D01*
X128652841Y-114015464D01*
X128622820Y-114003029D01*
X128506762Y-113954956D01*
X128506760Y-113954955D01*
X128350001Y-113934318D01*
X128349999Y-113934318D01*
X128193239Y-113954955D01*
X128193237Y-113954956D01*
X128047160Y-114015463D01*
X127921718Y-114111718D01*
X127825463Y-114237160D01*
X127764956Y-114383237D01*
X127764955Y-114383239D01*
X127744318Y-114539998D01*
X127744318Y-114540001D01*
X121738473Y-114540001D01*
X121824536Y-114427841D01*
X121885044Y-114281762D01*
X121905682Y-114125000D01*
X121903933Y-114111718D01*
X121885044Y-113968239D01*
X121885044Y-113968238D01*
X121824536Y-113822159D01*
X121788350Y-113775001D01*
X146769318Y-113775001D01*
X146789955Y-113931760D01*
X146789956Y-113931762D01*
X146824626Y-114015464D01*
X146850464Y-114077841D01*
X146946718Y-114203282D01*
X147072159Y-114299536D01*
X147218238Y-114360044D01*
X147245006Y-114363568D01*
X147374999Y-114380682D01*
X147375000Y-114380682D01*
X147375001Y-114380682D01*
X147427254Y-114373802D01*
X147531762Y-114360044D01*
X147677841Y-114299536D01*
X147803282Y-114203282D01*
X147899536Y-114077841D01*
X147960044Y-113931762D01*
X147980218Y-113778523D01*
X147980682Y-113775001D01*
X147980682Y-113774998D01*
X147960044Y-113618239D01*
X147960044Y-113618238D01*
X147899536Y-113472159D01*
X147803282Y-113346718D01*
X147677841Y-113250464D01*
X147656562Y-113241650D01*
X147531762Y-113189956D01*
X147531760Y-113189955D01*
X147375001Y-113169318D01*
X147374999Y-113169318D01*
X147218239Y-113189955D01*
X147218237Y-113189956D01*
X147072160Y-113250463D01*
X146946718Y-113346718D01*
X146850463Y-113472160D01*
X146789956Y-113618237D01*
X146789955Y-113618239D01*
X146769318Y-113774998D01*
X146769318Y-113775001D01*
X121788350Y-113775001D01*
X121728282Y-113696718D01*
X121728279Y-113696716D01*
X121723334Y-113690271D01*
X121726059Y-113688179D01*
X121700171Y-113640769D01*
X121697337Y-113614411D01*
X121697337Y-112770698D01*
X121697337Y-111898683D01*
X121717021Y-111831648D01*
X121769824Y-111785893D01*
X121837521Y-111775748D01*
X121874999Y-111780682D01*
X121875000Y-111780682D01*
X122001815Y-111763986D01*
X122070847Y-111774751D01*
X122123103Y-111821131D01*
X122141989Y-111888400D01*
X122136659Y-111922920D01*
X122077872Y-112116715D01*
X122057359Y-112324999D01*
X122077872Y-112533284D01*
X122096059Y-112593237D01*
X122134834Y-112721063D01*
X122138629Y-112733571D01*
X122237291Y-112918153D01*
X122370063Y-113079936D01*
X122531846Y-113212708D01*
X122531850Y-113212711D01*
X122716431Y-113311372D01*
X122916714Y-113372127D01*
X123125000Y-113392641D01*
X123333286Y-113372127D01*
X123533569Y-113311372D01*
X123718150Y-113212711D01*
X123879936Y-113079936D01*
X124012711Y-112918150D01*
X124111372Y-112733569D01*
X124172127Y-112533286D01*
X124192641Y-112325000D01*
X129657359Y-112325000D01*
X129677872Y-112533284D01*
X129696059Y-112593237D01*
X129734834Y-112721063D01*
X129738629Y-112733571D01*
X129837291Y-112918153D01*
X129970063Y-113079936D01*
X130131846Y-113212708D01*
X130131850Y-113212711D01*
X130316431Y-113311372D01*
X130516714Y-113372127D01*
X130725000Y-113392641D01*
X130933286Y-113372127D01*
X131133569Y-113311372D01*
X131318150Y-113212711D01*
X131479936Y-113079936D01*
X131483986Y-113075001D01*
X149194318Y-113075001D01*
X149214955Y-113231760D01*
X149214956Y-113231762D01*
X149253682Y-113325256D01*
X149275464Y-113377841D01*
X149371718Y-113503282D01*
X149497159Y-113599536D01*
X149643238Y-113660044D01*
X149658430Y-113662044D01*
X149799999Y-113680682D01*
X149800000Y-113680682D01*
X149800001Y-113680682D01*
X149858556Y-113672973D01*
X149956762Y-113660044D01*
X150102841Y-113599536D01*
X150228282Y-113503282D01*
X150324536Y-113377841D01*
X150385044Y-113231762D01*
X150405682Y-113075000D01*
X150402764Y-113052839D01*
X150385044Y-112918239D01*
X150385044Y-112918238D01*
X150324536Y-112772159D01*
X150228282Y-112646718D01*
X150102841Y-112550464D01*
X150066316Y-112535335D01*
X149956762Y-112489956D01*
X149956760Y-112489955D01*
X149800001Y-112469318D01*
X149799999Y-112469318D01*
X149643239Y-112489955D01*
X149643237Y-112489956D01*
X149497160Y-112550463D01*
X149371718Y-112646718D01*
X149275463Y-112772160D01*
X149214956Y-112918237D01*
X149214955Y-112918239D01*
X149194318Y-113074998D01*
X149194318Y-113075001D01*
X131483986Y-113075001D01*
X131612711Y-112918150D01*
X131711372Y-112733569D01*
X131772127Y-112533286D01*
X131792641Y-112325000D01*
X131772127Y-112116714D01*
X131711372Y-111916431D01*
X131661525Y-111823174D01*
X151194709Y-111823174D01*
X151213851Y-112103037D01*
X151213852Y-112103039D01*
X151270921Y-112377674D01*
X151270926Y-112377691D01*
X151364863Y-112642003D01*
X151364864Y-112642005D01*
X151493919Y-112891071D01*
X151655688Y-113120244D01*
X151655692Y-113120248D01*
X151655692Y-113120249D01*
X151777304Y-113250464D01*
X151847155Y-113325256D01*
X152064754Y-113502286D01*
X152064756Y-113502287D01*
X152064757Y-113502288D01*
X152304433Y-113648038D01*
X152424065Y-113700001D01*
X152561725Y-113759795D01*
X152831839Y-113835478D01*
X153076159Y-113869059D01*
X153109741Y-113873675D01*
X153109742Y-113873675D01*
X153390259Y-113873675D01*
X153420219Y-113869556D01*
X153668161Y-113835478D01*
X153938275Y-113759795D01*
X154167925Y-113660044D01*
X154195566Y-113648038D01*
X154195568Y-113648037D01*
X154435246Y-113502286D01*
X154652845Y-113325256D01*
X154844312Y-113120244D01*
X155006081Y-112891071D01*
X155135136Y-112642005D01*
X155229075Y-112377686D01*
X155229076Y-112377679D01*
X155229078Y-112377674D01*
X155265409Y-112202839D01*
X155286148Y-112103037D01*
X155305291Y-111823175D01*
X155286148Y-111543313D01*
X155253667Y-111387006D01*
X155229078Y-111268675D01*
X155229073Y-111268658D01*
X155140074Y-111018239D01*
X155135136Y-111004345D01*
X155006081Y-110755279D01*
X154844312Y-110526106D01*
X154844307Y-110526100D01*
X154652845Y-110321094D01*
X154435242Y-110144061D01*
X154195566Y-109998311D01*
X153938276Y-109886555D01*
X153668166Y-109810873D01*
X153668162Y-109810872D01*
X153668161Y-109810872D01*
X153522803Y-109790893D01*
X153390259Y-109772675D01*
X153390258Y-109772675D01*
X153109742Y-109772675D01*
X153109741Y-109772675D01*
X152831839Y-109810872D01*
X152831833Y-109810873D01*
X152561723Y-109886555D01*
X152304433Y-109998311D01*
X152064757Y-110144061D01*
X151847154Y-110321094D01*
X151655692Y-110526100D01*
X151655692Y-110526101D01*
X151655689Y-110526103D01*
X151655688Y-110526106D01*
X151604507Y-110598613D01*
X151493919Y-110755278D01*
X151364863Y-111004346D01*
X151270926Y-111268658D01*
X151270921Y-111268675D01*
X151213852Y-111543310D01*
X151213851Y-111543312D01*
X151194709Y-111823174D01*
X131661525Y-111823174D01*
X131612711Y-111731850D01*
X131601493Y-111718181D01*
X131479936Y-111570063D01*
X131318153Y-111437291D01*
X131318151Y-111437290D01*
X131318150Y-111437289D01*
X131133569Y-111338628D01*
X131025020Y-111305700D01*
X130933284Y-111277872D01*
X130725000Y-111257359D01*
X130516715Y-111277872D01*
X130316428Y-111338629D01*
X130131846Y-111437291D01*
X129970063Y-111570063D01*
X129837291Y-111731846D01*
X129738629Y-111916428D01*
X129677872Y-112116715D01*
X129657359Y-112325000D01*
X124192641Y-112325000D01*
X124172127Y-112116714D01*
X124111372Y-111916431D01*
X124012711Y-111731850D01*
X124001493Y-111718181D01*
X123879936Y-111570063D01*
X123718153Y-111437291D01*
X123718151Y-111437290D01*
X123718150Y-111437289D01*
X123533569Y-111338628D01*
X123425020Y-111305700D01*
X123333284Y-111277872D01*
X123125000Y-111257359D01*
X122916715Y-111277872D01*
X122716430Y-111338628D01*
X122652565Y-111372765D01*
X122584162Y-111387006D01*
X122518918Y-111362006D01*
X122477548Y-111305700D01*
X122471173Y-111247224D01*
X122480682Y-111175000D01*
X122467517Y-111075001D01*
X149169318Y-111075001D01*
X149189955Y-111231760D01*
X149189956Y-111231762D01*
X149224416Y-111314957D01*
X149250464Y-111377841D01*
X149346718Y-111503282D01*
X149472159Y-111599536D01*
X149618238Y-111660044D01*
X149696618Y-111670362D01*
X149774999Y-111680682D01*
X149775000Y-111680682D01*
X149775001Y-111680682D01*
X149827253Y-111673802D01*
X149931762Y-111660044D01*
X150077841Y-111599536D01*
X150203282Y-111503282D01*
X150299536Y-111377841D01*
X150360044Y-111231762D01*
X150380682Y-111075000D01*
X150360044Y-110918238D01*
X150299536Y-110772159D01*
X150203282Y-110646718D01*
X150077841Y-110550464D01*
X149931762Y-110489956D01*
X149931760Y-110489955D01*
X149775001Y-110469318D01*
X149774999Y-110469318D01*
X149618239Y-110489955D01*
X149618237Y-110489956D01*
X149472160Y-110550463D01*
X149346718Y-110646718D01*
X149250463Y-110772160D01*
X149189956Y-110918237D01*
X149189955Y-110918239D01*
X149169318Y-111074998D01*
X149169318Y-111075001D01*
X122467517Y-111075001D01*
X122460044Y-111018238D01*
X122399536Y-110872159D01*
X122303282Y-110746718D01*
X122177841Y-110650464D01*
X122168797Y-110646718D01*
X122031762Y-110589956D01*
X122031760Y-110589955D01*
X121875001Y-110569318D01*
X121874999Y-110569318D01*
X121837522Y-110574252D01*
X121768487Y-110563486D01*
X121716231Y-110517107D01*
X121697337Y-110451313D01*
X121697337Y-109075001D01*
X147744318Y-109075001D01*
X147764955Y-109231760D01*
X147764956Y-109231762D01*
X147810927Y-109342747D01*
X147825464Y-109377841D01*
X147921718Y-109503282D01*
X148047159Y-109599536D01*
X148193238Y-109660044D01*
X148271618Y-109670362D01*
X148349999Y-109680682D01*
X148350000Y-109680682D01*
X148350001Y-109680682D01*
X148402253Y-109673802D01*
X148506762Y-109660044D01*
X148652841Y-109599536D01*
X148778282Y-109503282D01*
X148874536Y-109377841D01*
X148935044Y-109231762D01*
X148953965Y-109088040D01*
X148955682Y-109075001D01*
X148955682Y-109074998D01*
X148935044Y-108918239D01*
X148935044Y-108918238D01*
X148874536Y-108772159D01*
X148778282Y-108646718D01*
X148652841Y-108550464D01*
X148506762Y-108489956D01*
X148506760Y-108489955D01*
X148350001Y-108469318D01*
X148349999Y-108469318D01*
X148193239Y-108489955D01*
X148193237Y-108489956D01*
X148047160Y-108550463D01*
X147921718Y-108646718D01*
X147825463Y-108772160D01*
X147764956Y-108918237D01*
X147764955Y-108918239D01*
X147744318Y-109074998D01*
X147744318Y-109075001D01*
X121697337Y-109075001D01*
X121697337Y-107829930D01*
X121717022Y-107762891D01*
X121769826Y-107717136D01*
X121838984Y-107707192D01*
X121868788Y-107715368D01*
X121983660Y-107762950D01*
X122062041Y-107773268D01*
X122140421Y-107783588D01*
X122140422Y-107783588D01*
X122140423Y-107783588D01*
X122192675Y-107776708D01*
X122297184Y-107762950D01*
X122443263Y-107702442D01*
X122568704Y-107606188D01*
X122611818Y-107550001D01*
X125069318Y-107550001D01*
X125089955Y-107706760D01*
X125089956Y-107706762D01*
X125100310Y-107731760D01*
X125150464Y-107852841D01*
X125246718Y-107978282D01*
X125372159Y-108074536D01*
X125518238Y-108135044D01*
X125547429Y-108138887D01*
X125674999Y-108155682D01*
X125675000Y-108155682D01*
X125675001Y-108155682D01*
X125741881Y-108146877D01*
X125831762Y-108135044D01*
X125977841Y-108074536D01*
X126103282Y-107978282D01*
X126199536Y-107852841D01*
X126260044Y-107706762D01*
X126277391Y-107574998D01*
X126280682Y-107550001D01*
X126280682Y-107549998D01*
X126260044Y-107393239D01*
X126260044Y-107393238D01*
X126199536Y-107247159D01*
X126103282Y-107121718D01*
X125977841Y-107025464D01*
X125963003Y-107019318D01*
X125831762Y-106964956D01*
X125831760Y-106964955D01*
X125675001Y-106944318D01*
X125674999Y-106944318D01*
X125518239Y-106964955D01*
X125518237Y-106964956D01*
X125372160Y-107025463D01*
X125246718Y-107121718D01*
X125150463Y-107247160D01*
X125089956Y-107393237D01*
X125089955Y-107393239D01*
X125069318Y-107549998D01*
X125069318Y-107550001D01*
X122611818Y-107550001D01*
X122664958Y-107480747D01*
X122725466Y-107334668D01*
X122743985Y-107194005D01*
X122746104Y-107177907D01*
X122746104Y-107177906D01*
X122743702Y-107159664D01*
X122728263Y-107042392D01*
X122739028Y-106973359D01*
X122775719Y-106927831D01*
X122795329Y-106912784D01*
X122795328Y-106912784D01*
X122795333Y-106912781D01*
X122891587Y-106787340D01*
X122952095Y-106641261D01*
X122972733Y-106484499D01*
X122962495Y-106406737D01*
X122957335Y-106367536D01*
X122952095Y-106327737D01*
X122891587Y-106181658D01*
X122795333Y-106056217D01*
X122669892Y-105959963D01*
X122662164Y-105956762D01*
X122523813Y-105899455D01*
X122523811Y-105899454D01*
X122367052Y-105878817D01*
X122367050Y-105878817D01*
X122210290Y-105899454D01*
X122210288Y-105899455D01*
X122064211Y-105959962D01*
X121938766Y-106056219D01*
X121919712Y-106081052D01*
X121863284Y-106122255D01*
X121793538Y-106126409D01*
X121732618Y-106092196D01*
X121699865Y-106030478D01*
X121697337Y-106005565D01*
X121697337Y-105526722D01*
X121697337Y-104989039D01*
X121717020Y-104922004D01*
X121769824Y-104876249D01*
X121838983Y-104866305D01*
X121868785Y-104874481D01*
X122011994Y-104933800D01*
X122090374Y-104944118D01*
X122168755Y-104954438D01*
X122168756Y-104954438D01*
X122168757Y-104954438D01*
X122225481Y-104946970D01*
X122325518Y-104933800D01*
X122471597Y-104873292D01*
X122597038Y-104777038D01*
X122693292Y-104651597D01*
X122753800Y-104505518D01*
X122770477Y-104378842D01*
X122774438Y-104348757D01*
X122774438Y-104348754D01*
X122753800Y-104191995D01*
X122753800Y-104191994D01*
X122693292Y-104045915D01*
X122597038Y-103920474D01*
X122471597Y-103824220D01*
X122378029Y-103785463D01*
X122325518Y-103763712D01*
X122325516Y-103763711D01*
X122168757Y-103743074D01*
X122168755Y-103743074D01*
X122011995Y-103763711D01*
X122011993Y-103763712D01*
X121868790Y-103823029D01*
X121799320Y-103830498D01*
X121736841Y-103799223D01*
X121701189Y-103739134D01*
X121697337Y-103708468D01*
X121697337Y-102238091D01*
X121717022Y-102171052D01*
X121769826Y-102125297D01*
X121838984Y-102115353D01*
X121902540Y-102144378D01*
X121909017Y-102150409D01*
X124624432Y-104865825D01*
X127283597Y-107524990D01*
X127317082Y-107586313D01*
X127318855Y-107596485D01*
X127320641Y-107610048D01*
X127336664Y-107731760D01*
X127339956Y-107756761D01*
X127339956Y-107756762D01*
X127350310Y-107781760D01*
X127400464Y-107902841D01*
X127496718Y-108028282D01*
X127622159Y-108124536D01*
X127768238Y-108185044D01*
X127846618Y-108195363D01*
X127924999Y-108205682D01*
X127925000Y-108205682D01*
X127925001Y-108205682D01*
X127977253Y-108198802D01*
X128081762Y-108185044D01*
X128227841Y-108124536D01*
X128353282Y-108028282D01*
X128449536Y-107902841D01*
X128510044Y-107756762D01*
X128529867Y-107606188D01*
X128530682Y-107600001D01*
X128530682Y-107599998D01*
X128524100Y-107550001D01*
X136694318Y-107550001D01*
X136714955Y-107706760D01*
X136714956Y-107706762D01*
X136725310Y-107731760D01*
X136775464Y-107852841D01*
X136871718Y-107978282D01*
X136997159Y-108074536D01*
X137143238Y-108135044D01*
X137172429Y-108138887D01*
X137299999Y-108155682D01*
X137300000Y-108155682D01*
X137300001Y-108155682D01*
X137366881Y-108146877D01*
X137456762Y-108135044D01*
X137602841Y-108074536D01*
X137728282Y-107978282D01*
X137824536Y-107852841D01*
X137885044Y-107706762D01*
X137895808Y-107625001D01*
X138644318Y-107625001D01*
X138664955Y-107781760D01*
X138664956Y-107781762D01*
X138725464Y-107927841D01*
X138821718Y-108053282D01*
X138947159Y-108149536D01*
X139093238Y-108210044D01*
X139140613Y-108216281D01*
X139249999Y-108230682D01*
X139250000Y-108230682D01*
X139250001Y-108230682D01*
X139302254Y-108223802D01*
X139406762Y-108210044D01*
X139552841Y-108149536D01*
X139678282Y-108053282D01*
X139774536Y-107927841D01*
X139835044Y-107781762D01*
X139855682Y-107625000D01*
X139853205Y-107606188D01*
X139842517Y-107525001D01*
X140669318Y-107525001D01*
X140689955Y-107681760D01*
X140689956Y-107681762D01*
X140731376Y-107781760D01*
X140750464Y-107827841D01*
X140846718Y-107953282D01*
X140972159Y-108049536D01*
X141118238Y-108110044D01*
X141196619Y-108120362D01*
X141274999Y-108130682D01*
X141275000Y-108130682D01*
X141275001Y-108130682D01*
X141327254Y-108123802D01*
X141431762Y-108110044D01*
X141577841Y-108049536D01*
X141703282Y-107953282D01*
X141799536Y-107827841D01*
X141860044Y-107681762D01*
X141874099Y-107575001D01*
X142644318Y-107575001D01*
X142664955Y-107731760D01*
X142664956Y-107731762D01*
X142705618Y-107829930D01*
X142725464Y-107877841D01*
X142821718Y-108003282D01*
X142947159Y-108099536D01*
X143093238Y-108160044D01*
X143171618Y-108170362D01*
X143249999Y-108180682D01*
X143250000Y-108180682D01*
X143250001Y-108180682D01*
X143302254Y-108173802D01*
X143406762Y-108160044D01*
X143552841Y-108099536D01*
X143678282Y-108003282D01*
X143774536Y-107877841D01*
X143835044Y-107731762D01*
X143852391Y-107599998D01*
X143855682Y-107575001D01*
X144669318Y-107575001D01*
X144689955Y-107731760D01*
X144689956Y-107731762D01*
X144730618Y-107829930D01*
X144750464Y-107877841D01*
X144846718Y-108003282D01*
X144972159Y-108099536D01*
X145118238Y-108160044D01*
X145196619Y-108170363D01*
X145274999Y-108180682D01*
X145275000Y-108180682D01*
X145275001Y-108180682D01*
X145327254Y-108173802D01*
X145431762Y-108160044D01*
X145577841Y-108099536D01*
X145703282Y-108003282D01*
X145799536Y-107877841D01*
X145860044Y-107731762D01*
X145877391Y-107599998D01*
X145880682Y-107575001D01*
X146694318Y-107575001D01*
X146714955Y-107731760D01*
X146714956Y-107731762D01*
X146755618Y-107829930D01*
X146775464Y-107877841D01*
X146871718Y-108003282D01*
X146997159Y-108099536D01*
X147143238Y-108160044D01*
X147221619Y-108170363D01*
X147299999Y-108180682D01*
X147300000Y-108180682D01*
X147300001Y-108180682D01*
X147352254Y-108173802D01*
X147456762Y-108160044D01*
X147602841Y-108099536D01*
X147728282Y-108003282D01*
X147824536Y-107877841D01*
X147885044Y-107731762D01*
X147902391Y-107599998D01*
X147905682Y-107575001D01*
X147905682Y-107574998D01*
X147885044Y-107418239D01*
X147885044Y-107418238D01*
X147824536Y-107272159D01*
X147728282Y-107146718D01*
X147602841Y-107050464D01*
X147577472Y-107039956D01*
X147456762Y-106989956D01*
X147456760Y-106989955D01*
X147300001Y-106969318D01*
X147299999Y-106969318D01*
X147143239Y-106989955D01*
X147143237Y-106989956D01*
X146997160Y-107050463D01*
X146871718Y-107146718D01*
X146775463Y-107272160D01*
X146714956Y-107418237D01*
X146714955Y-107418239D01*
X146694318Y-107574998D01*
X146694318Y-107575001D01*
X145880682Y-107575001D01*
X145880682Y-107574998D01*
X145860044Y-107418239D01*
X145860044Y-107418238D01*
X145799536Y-107272159D01*
X145703282Y-107146718D01*
X145577841Y-107050464D01*
X145552472Y-107039956D01*
X145431762Y-106989956D01*
X145431760Y-106989955D01*
X145275001Y-106969318D01*
X145274999Y-106969318D01*
X145118239Y-106989955D01*
X145118237Y-106989956D01*
X144972160Y-107050463D01*
X144846718Y-107146718D01*
X144750463Y-107272160D01*
X144689956Y-107418237D01*
X144689955Y-107418239D01*
X144669318Y-107574998D01*
X144669318Y-107575001D01*
X143855682Y-107575001D01*
X143855682Y-107574998D01*
X143835044Y-107418239D01*
X143835044Y-107418238D01*
X143774536Y-107272159D01*
X143678282Y-107146718D01*
X143552841Y-107050464D01*
X143527472Y-107039956D01*
X143406762Y-106989956D01*
X143406760Y-106989955D01*
X143250001Y-106969318D01*
X143249999Y-106969318D01*
X143093239Y-106989955D01*
X143093237Y-106989956D01*
X142947160Y-107050463D01*
X142821718Y-107146718D01*
X142725463Y-107272160D01*
X142664956Y-107418237D01*
X142664955Y-107418239D01*
X142644318Y-107574998D01*
X142644318Y-107575001D01*
X141874099Y-107575001D01*
X141880682Y-107525000D01*
X141874473Y-107477841D01*
X141860044Y-107368239D01*
X141860044Y-107368238D01*
X141799536Y-107222159D01*
X141703282Y-107096718D01*
X141577841Y-107000464D01*
X141574036Y-106998888D01*
X141431762Y-106939956D01*
X141431760Y-106939955D01*
X141275001Y-106919318D01*
X141274999Y-106919318D01*
X141118239Y-106939955D01*
X141118237Y-106939956D01*
X140972160Y-107000463D01*
X140846718Y-107096718D01*
X140750463Y-107222160D01*
X140689956Y-107368237D01*
X140689955Y-107368239D01*
X140669318Y-107524998D01*
X140669318Y-107525001D01*
X139842517Y-107525001D01*
X139836691Y-107480747D01*
X139835044Y-107468238D01*
X139774536Y-107322159D01*
X139678282Y-107196718D01*
X139552841Y-107100464D01*
X139543797Y-107096718D01*
X139406762Y-107039956D01*
X139406760Y-107039955D01*
X139250001Y-107019318D01*
X139249999Y-107019318D01*
X139093239Y-107039955D01*
X139093237Y-107039956D01*
X138947160Y-107100463D01*
X138821718Y-107196718D01*
X138725463Y-107322160D01*
X138664956Y-107468237D01*
X138664955Y-107468239D01*
X138644318Y-107624998D01*
X138644318Y-107625001D01*
X137895808Y-107625001D01*
X137902391Y-107574998D01*
X137905682Y-107550001D01*
X137905682Y-107549998D01*
X137885044Y-107393239D01*
X137885044Y-107393238D01*
X137824536Y-107247159D01*
X137728282Y-107121718D01*
X137602841Y-107025464D01*
X137588003Y-107019318D01*
X137456762Y-106964956D01*
X137456760Y-106964955D01*
X137300001Y-106944318D01*
X137299999Y-106944318D01*
X137143239Y-106964955D01*
X137143237Y-106964956D01*
X136997160Y-107025463D01*
X136871718Y-107121718D01*
X136775463Y-107247160D01*
X136714956Y-107393237D01*
X136714955Y-107393239D01*
X136694318Y-107549998D01*
X136694318Y-107550001D01*
X128524100Y-107550001D01*
X128510044Y-107443239D01*
X128510044Y-107443238D01*
X128449536Y-107297159D01*
X128353282Y-107171718D01*
X128227841Y-107075464D01*
X128081762Y-107014956D01*
X128007665Y-107005201D01*
X127921485Y-106993855D01*
X127857589Y-106965588D01*
X127849990Y-106958597D01*
X126362901Y-105471508D01*
X127538259Y-105471508D01*
X127558896Y-105628267D01*
X127558897Y-105628269D01*
X127619405Y-105774348D01*
X127715659Y-105899789D01*
X127841100Y-105996043D01*
X127987179Y-106056551D01*
X128065559Y-106066870D01*
X128143940Y-106077189D01*
X128143941Y-106077189D01*
X128143942Y-106077189D01*
X128196195Y-106070309D01*
X128300703Y-106056551D01*
X128446782Y-105996043D01*
X128572223Y-105899789D01*
X128668477Y-105774348D01*
X128728985Y-105628269D01*
X128749623Y-105471507D01*
X128728985Y-105314745D01*
X128668477Y-105168666D01*
X128572223Y-105043225D01*
X128446782Y-104946971D01*
X128414984Y-104933800D01*
X128300703Y-104886463D01*
X128300701Y-104886462D01*
X128143942Y-104865825D01*
X128143940Y-104865825D01*
X127987180Y-104886462D01*
X127987178Y-104886463D01*
X127841101Y-104946970D01*
X127715659Y-105043225D01*
X127619404Y-105168667D01*
X127558897Y-105314744D01*
X127558896Y-105314746D01*
X127538259Y-105471505D01*
X127538259Y-105471508D01*
X126362901Y-105471508D01*
X125201394Y-104310001D01*
X129954318Y-104310001D01*
X129974955Y-104466760D01*
X129974956Y-104466762D01*
X130033655Y-104608475D01*
X130035464Y-104612841D01*
X130131718Y-104738282D01*
X130257159Y-104834536D01*
X130403238Y-104895044D01*
X130481619Y-104905363D01*
X130559999Y-104915682D01*
X130560000Y-104915682D01*
X130560001Y-104915682D01*
X130627754Y-104906762D01*
X130716762Y-104895044D01*
X130862841Y-104834536D01*
X130988282Y-104738282D01*
X131084536Y-104612841D01*
X131145044Y-104466762D01*
X131165682Y-104310000D01*
X131159531Y-104263282D01*
X131146587Y-104164956D01*
X131145044Y-104153238D01*
X131084536Y-104007159D01*
X130988282Y-103881718D01*
X130862841Y-103785464D01*
X130716762Y-103724956D01*
X130716760Y-103724955D01*
X130560001Y-103704318D01*
X130559999Y-103704318D01*
X130403239Y-103724955D01*
X130403237Y-103724956D01*
X130257160Y-103785463D01*
X130131718Y-103881718D01*
X130035463Y-104007160D01*
X129974956Y-104153237D01*
X129974955Y-104153239D01*
X129954318Y-104309998D01*
X129954318Y-104310001D01*
X125201394Y-104310001D01*
X122063655Y-101172263D01*
X122056916Y-101159921D01*
X124373818Y-101159921D01*
X124394455Y-101316680D01*
X124394456Y-101316682D01*
X124437477Y-101420545D01*
X124454964Y-101462761D01*
X124551218Y-101588202D01*
X124676659Y-101684456D01*
X124822738Y-101744964D01*
X124864515Y-101750464D01*
X124979499Y-101765602D01*
X124979500Y-101765602D01*
X124979501Y-101765602D01*
X125031753Y-101758722D01*
X125136262Y-101744964D01*
X125282341Y-101684456D01*
X125407782Y-101588202D01*
X125504036Y-101462761D01*
X125564544Y-101316682D01*
X125585182Y-101159920D01*
X125580137Y-101121602D01*
X125564544Y-101003159D01*
X125564544Y-101003158D01*
X125504036Y-100857079D01*
X125487479Y-100835502D01*
X127294319Y-100835502D01*
X127314956Y-100992261D01*
X127314957Y-100992263D01*
X127375281Y-101137899D01*
X127375465Y-101138342D01*
X127471719Y-101263783D01*
X127597160Y-101360037D01*
X127743239Y-101420545D01*
X127821619Y-101430864D01*
X127900000Y-101441183D01*
X127900001Y-101441183D01*
X127900002Y-101441183D01*
X127952254Y-101434303D01*
X128056763Y-101420545D01*
X128202842Y-101360037D01*
X128328283Y-101263783D01*
X128373668Y-101204635D01*
X128430093Y-101163434D01*
X128499839Y-101159279D01*
X128519487Y-101165559D01*
X128598788Y-101198407D01*
X128677168Y-101208725D01*
X128755549Y-101219045D01*
X128755550Y-101219045D01*
X128755551Y-101219045D01*
X128807804Y-101212165D01*
X128912312Y-101198407D01*
X129058391Y-101137899D01*
X129137402Y-101077271D01*
X129202568Y-101052079D01*
X129260339Y-101061088D01*
X129261358Y-101061510D01*
X129407437Y-101122018D01*
X129468768Y-101130092D01*
X129553047Y-101141188D01*
X129616944Y-101169455D01*
X129655415Y-101227779D01*
X129659801Y-101280312D01*
X129643836Y-101401583D01*
X129643836Y-101401586D01*
X129664473Y-101558345D01*
X129664474Y-101558347D01*
X129724982Y-101704426D01*
X129821236Y-101829867D01*
X129946677Y-101926121D01*
X130092756Y-101986629D01*
X130141597Y-101993059D01*
X130249517Y-102007267D01*
X130249518Y-102007267D01*
X130249519Y-102007267D01*
X130301772Y-102000387D01*
X130406280Y-101986629D01*
X130552359Y-101926121D01*
X130677800Y-101829867D01*
X130774054Y-101704426D01*
X130834562Y-101558347D01*
X130855200Y-101401585D01*
X130834562Y-101244823D01*
X130774054Y-101098744D01*
X130677800Y-100973303D01*
X130552359Y-100877049D01*
X130406280Y-100816541D01*
X130388009Y-100814135D01*
X130260668Y-100797370D01*
X130196772Y-100769103D01*
X130158301Y-100710778D01*
X130153915Y-100658245D01*
X130155001Y-100650000D01*
X130169881Y-100536974D01*
X130157639Y-100443990D01*
X130153170Y-100410043D01*
X130149243Y-100380212D01*
X130088735Y-100234133D01*
X129992481Y-100108692D01*
X129867040Y-100012438D01*
X129831879Y-99997874D01*
X129720961Y-99951930D01*
X129720959Y-99951929D01*
X129564200Y-99931292D01*
X129564199Y-99931292D01*
X129558613Y-99932027D01*
X129548717Y-99933330D01*
X129479682Y-99922562D01*
X129427427Y-99876180D01*
X129408544Y-99808911D01*
X129429027Y-99742111D01*
X129434783Y-99735074D01*
X129434334Y-99734730D01*
X129439282Y-99728282D01*
X129523521Y-99618499D01*
X129579948Y-99577297D01*
X129649694Y-99573142D01*
X129697381Y-99595610D01*
X129727212Y-99618500D01*
X129767657Y-99649535D01*
X129767658Y-99649535D01*
X129767659Y-99649536D01*
X129913738Y-99710044D01*
X129992119Y-99720362D01*
X130070499Y-99730682D01*
X130070500Y-99730682D01*
X130070501Y-99730682D01*
X130131866Y-99722603D01*
X130227262Y-99710044D01*
X130373341Y-99649536D01*
X130498782Y-99553282D01*
X130595036Y-99427841D01*
X130655544Y-99281762D01*
X130670133Y-99170946D01*
X130676182Y-99125001D01*
X130676182Y-99124998D01*
X130661217Y-99011330D01*
X130655544Y-98968238D01*
X130597880Y-98829025D01*
X130590411Y-98759555D01*
X130621686Y-98697076D01*
X130681775Y-98661424D01*
X130728625Y-98658633D01*
X130770500Y-98664146D01*
X130770501Y-98664146D01*
X130822754Y-98657266D01*
X130927262Y-98643508D01*
X131073341Y-98583000D01*
X131198782Y-98486746D01*
X131295036Y-98361305D01*
X131355544Y-98215226D01*
X131376182Y-98058464D01*
X131373868Y-98040895D01*
X131384634Y-97971860D01*
X131431014Y-97919604D01*
X131436745Y-97916650D01*
X131436685Y-97916545D01*
X131443717Y-97912485D01*
X131443719Y-97912482D01*
X131443722Y-97912482D01*
X131569163Y-97816228D01*
X131665417Y-97690787D01*
X131700463Y-97606177D01*
X131744303Y-97551774D01*
X131810598Y-97529709D01*
X131878297Y-97546988D01*
X131925908Y-97598125D01*
X131937963Y-97637444D01*
X131940736Y-97658510D01*
X131943339Y-97678281D01*
X131944456Y-97686760D01*
X131944456Y-97686762D01*
X131979894Y-97772318D01*
X132004964Y-97832841D01*
X132101218Y-97958282D01*
X132226659Y-98054536D01*
X132372738Y-98115044D01*
X132436550Y-98123445D01*
X132529499Y-98135682D01*
X132529500Y-98135682D01*
X132529501Y-98135682D01*
X132581754Y-98128802D01*
X132686262Y-98115044D01*
X132832341Y-98054536D01*
X132957782Y-97958282D01*
X133054036Y-97832841D01*
X133114544Y-97686762D01*
X133132716Y-97548726D01*
X133160982Y-97484831D01*
X133219307Y-97446360D01*
X133271837Y-97441974D01*
X133300000Y-97445682D01*
X133379815Y-97435174D01*
X133448850Y-97445939D01*
X133501106Y-97492319D01*
X133520000Y-97558113D01*
X133520000Y-97853419D01*
X133500315Y-97920458D01*
X133494376Y-97928905D01*
X133395964Y-98057157D01*
X133335456Y-98203237D01*
X133335455Y-98203239D01*
X133314818Y-98359998D01*
X133314818Y-98360001D01*
X133335455Y-98516760D01*
X133335456Y-98516762D01*
X133392004Y-98653282D01*
X133395964Y-98662841D01*
X133492218Y-98788282D01*
X133617659Y-98884536D01*
X133763738Y-98945044D01*
X133810050Y-98951141D01*
X133920499Y-98965682D01*
X133920500Y-98965682D01*
X133920501Y-98965682D01*
X133994316Y-98955964D01*
X134077262Y-98945044D01*
X134223341Y-98884536D01*
X134348782Y-98788282D01*
X134445036Y-98662841D01*
X134505544Y-98516762D01*
X134523700Y-98378853D01*
X134526182Y-98360001D01*
X134526182Y-98359998D01*
X134505544Y-98203239D01*
X134505544Y-98203238D01*
X134445036Y-98057159D01*
X134445035Y-98057158D01*
X134445035Y-98057157D01*
X134346624Y-97928905D01*
X134321430Y-97863736D01*
X134321000Y-97853419D01*
X134321000Y-97099682D01*
X134340685Y-97032643D01*
X134393489Y-96986888D01*
X134445000Y-96975682D01*
X134450001Y-96975682D01*
X134502707Y-96968743D01*
X134606762Y-96955044D01*
X134752841Y-96894536D01*
X134878282Y-96798282D01*
X134974536Y-96672841D01*
X135035044Y-96526762D01*
X135055682Y-96370000D01*
X135052691Y-96347284D01*
X135035044Y-96213239D01*
X135035044Y-96213238D01*
X134974536Y-96067159D01*
X134878282Y-95941718D01*
X134752841Y-95845464D01*
X134606762Y-95784956D01*
X134550577Y-95777559D01*
X134446485Y-95763855D01*
X134382589Y-95735588D01*
X134374990Y-95728597D01*
X133869287Y-95222893D01*
X133869256Y-95222864D01*
X133848342Y-95201950D01*
X133848341Y-95201949D01*
X133828600Y-95191890D01*
X133812014Y-95181726D01*
X133794090Y-95168704D01*
X133794091Y-95168704D01*
X133773018Y-95161857D01*
X133755045Y-95154412D01*
X133735307Y-95144355D01*
X133735304Y-95144354D01*
X133713418Y-95140887D01*
X133694507Y-95136346D01*
X133673439Y-95129501D01*
X133673434Y-95129500D01*
X133673433Y-95129500D01*
X133673429Y-95129500D01*
X132418705Y-95129500D01*
X132351666Y-95109815D01*
X132305911Y-95057011D01*
X132295967Y-94987853D01*
X132304144Y-94958047D01*
X132325630Y-94906176D01*
X132339388Y-94801667D01*
X132346268Y-94749415D01*
X132346268Y-94749412D01*
X132327920Y-94610044D01*
X132325630Y-94592652D01*
X132265122Y-94446573D01*
X132168868Y-94321132D01*
X132043427Y-94224878D01*
X132011576Y-94211685D01*
X131897348Y-94164370D01*
X131897346Y-94164369D01*
X131740587Y-94143732D01*
X131740585Y-94143732D01*
X131605434Y-94161525D01*
X131536399Y-94150759D01*
X131484143Y-94104379D01*
X131466310Y-94054771D01*
X131451627Y-93943239D01*
X131445044Y-93893238D01*
X131384536Y-93747159D01*
X131288282Y-93621718D01*
X131162841Y-93525464D01*
X131137472Y-93514956D01*
X131016762Y-93464956D01*
X131016760Y-93464955D01*
X130860001Y-93444318D01*
X130859999Y-93444318D01*
X130703239Y-93464955D01*
X130703237Y-93464956D01*
X130557160Y-93525463D01*
X130431718Y-93621718D01*
X130335463Y-93747160D01*
X130274956Y-93893237D01*
X130274955Y-93893239D01*
X130255390Y-94041855D01*
X130254318Y-94050000D01*
X130271342Y-94179316D01*
X130260578Y-94248350D01*
X130214198Y-94300606D01*
X130148404Y-94319500D01*
X129425035Y-94319500D01*
X129357996Y-94299815D01*
X129312241Y-94247011D01*
X129302096Y-94211685D01*
X129298156Y-94181760D01*
X129284991Y-94081757D01*
X129232595Y-93955264D01*
X129225127Y-93885795D01*
X129248782Y-93832325D01*
X129263680Y-93812911D01*
X129324188Y-93666832D01*
X129342799Y-93525464D01*
X129344826Y-93510071D01*
X129344826Y-93510068D01*
X129329631Y-93394649D01*
X129324188Y-93353308D01*
X129263680Y-93207229D01*
X129206987Y-93133346D01*
X129181795Y-93068180D01*
X129195833Y-92999735D01*
X129244647Y-92949745D01*
X129312738Y-92934081D01*
X129352815Y-92943300D01*
X129393238Y-92960044D01*
X129471618Y-92970363D01*
X129549999Y-92980682D01*
X129550000Y-92980682D01*
X129550001Y-92980682D01*
X129602254Y-92973802D01*
X129706762Y-92960044D01*
X129852841Y-92899536D01*
X129978282Y-92803282D01*
X130074536Y-92677841D01*
X130135044Y-92531762D01*
X130139225Y-92500001D01*
X131244318Y-92500001D01*
X131264955Y-92656760D01*
X131264956Y-92656762D01*
X131290906Y-92719412D01*
X131325464Y-92802841D01*
X131421718Y-92928282D01*
X131547159Y-93024536D01*
X131693238Y-93085044D01*
X131744616Y-93091808D01*
X131849999Y-93105682D01*
X131850000Y-93105682D01*
X131850001Y-93105682D01*
X131902253Y-93098802D01*
X132006762Y-93085044D01*
X132152841Y-93024536D01*
X132278282Y-92928282D01*
X132296625Y-92904376D01*
X132353050Y-92863174D01*
X132422796Y-92859019D01*
X132483717Y-92893230D01*
X132493367Y-92904366D01*
X132511718Y-92928282D01*
X132637159Y-93024536D01*
X132783238Y-93085044D01*
X132834616Y-93091808D01*
X132939999Y-93105682D01*
X132940000Y-93105682D01*
X132940001Y-93105682D01*
X132992253Y-93098802D01*
X133096762Y-93085044D01*
X133242841Y-93024536D01*
X133368282Y-92928282D01*
X133464536Y-92802841D01*
X133525044Y-92656762D01*
X133540198Y-92541656D01*
X133545682Y-92500001D01*
X133545682Y-92499998D01*
X133529226Y-92375001D01*
X133525044Y-92343238D01*
X133464536Y-92197159D01*
X133368282Y-92071718D01*
X133242841Y-91975464D01*
X133197328Y-91956612D01*
X133096762Y-91914956D01*
X133096760Y-91914955D01*
X132940001Y-91894318D01*
X132939999Y-91894318D01*
X132783239Y-91914955D01*
X132783237Y-91914956D01*
X132637160Y-91975463D01*
X132617695Y-91990399D01*
X132511718Y-92071718D01*
X132493373Y-92095624D01*
X132436948Y-92136825D01*
X132367202Y-92140980D01*
X132306281Y-92106767D01*
X132296631Y-92095632D01*
X132278282Y-92071718D01*
X132152841Y-91975464D01*
X132107328Y-91956612D01*
X132006762Y-91914956D01*
X132006760Y-91914955D01*
X131850001Y-91894318D01*
X131849999Y-91894318D01*
X131693239Y-91914955D01*
X131693237Y-91914956D01*
X131547160Y-91975463D01*
X131421718Y-92071718D01*
X131325463Y-92197160D01*
X131264956Y-92343237D01*
X131264955Y-92343239D01*
X131244318Y-92499998D01*
X131244318Y-92500001D01*
X130139225Y-92500001D01*
X130155682Y-92375000D01*
X130151500Y-92343238D01*
X130138773Y-92246563D01*
X130135044Y-92218238D01*
X130074536Y-92072159D01*
X129978282Y-91946718D01*
X129852841Y-91850464D01*
X129847870Y-91848405D01*
X129706762Y-91789956D01*
X129706760Y-91789955D01*
X129550001Y-91769318D01*
X129549999Y-91769318D01*
X129393239Y-91789955D01*
X129393237Y-91789956D01*
X129247160Y-91850463D01*
X129121718Y-91946718D01*
X129025463Y-92072160D01*
X128964956Y-92218237D01*
X128964955Y-92218239D01*
X128944318Y-92374998D01*
X128944318Y-92375001D01*
X128964955Y-92531760D01*
X128964956Y-92531762D01*
X129025464Y-92677841D01*
X129082154Y-92751722D01*
X129107348Y-92816890D01*
X129093310Y-92885334D01*
X129044496Y-92935324D01*
X128976405Y-92950988D01*
X128936326Y-92941768D01*
X128895909Y-92925027D01*
X128895904Y-92925025D01*
X128739145Y-92904388D01*
X128739143Y-92904388D01*
X128582383Y-92925025D01*
X128582381Y-92925026D01*
X128436304Y-92985533D01*
X128310862Y-93081788D01*
X128214607Y-93207230D01*
X128154100Y-93353307D01*
X128154099Y-93353309D01*
X128133462Y-93510068D01*
X128133462Y-93510071D01*
X128154099Y-93666830D01*
X128154100Y-93666832D01*
X128206494Y-93793322D01*
X128213963Y-93862792D01*
X128190310Y-93916259D01*
X128175412Y-93935674D01*
X128175412Y-93935675D01*
X128114903Y-94081756D01*
X128114902Y-94081758D01*
X128094265Y-94238517D01*
X128094265Y-94238520D01*
X128114902Y-94395279D01*
X128114903Y-94395281D01*
X128175410Y-94541358D01*
X128178093Y-94546005D01*
X128194564Y-94613906D01*
X128178096Y-94669997D01*
X128175056Y-94675262D01*
X128114546Y-94821346D01*
X128114545Y-94821348D01*
X128093908Y-94978107D01*
X128093908Y-94978110D01*
X128114545Y-95134869D01*
X128114546Y-95134871D01*
X128169176Y-95266760D01*
X128175056Y-95280954D01*
X128175324Y-95281419D01*
X128175430Y-95281859D01*
X128178164Y-95288458D01*
X128177134Y-95288884D01*
X128191790Y-95349321D01*
X128177831Y-95396861D01*
X128178798Y-95397262D01*
X128115180Y-95550848D01*
X128115179Y-95550850D01*
X128094542Y-95707609D01*
X128094542Y-95707612D01*
X128115179Y-95864371D01*
X128115180Y-95864373D01*
X128162870Y-95979508D01*
X128175688Y-96010452D01*
X128271942Y-96135893D01*
X128397383Y-96232147D01*
X128543462Y-96292655D01*
X128621842Y-96302973D01*
X128700223Y-96313293D01*
X128700224Y-96313293D01*
X128700225Y-96313293D01*
X128752477Y-96306413D01*
X128856986Y-96292655D01*
X129003065Y-96232147D01*
X129128506Y-96135893D01*
X129224760Y-96010452D01*
X129256942Y-95932754D01*
X129283818Y-95892532D01*
X129617411Y-95558939D01*
X129678732Y-95525456D01*
X129748424Y-95530440D01*
X129804357Y-95572312D01*
X129828029Y-95630437D01*
X129841955Y-95736222D01*
X129841956Y-95736224D01*
X129898079Y-95871718D01*
X129902464Y-95882303D01*
X129998718Y-96007744D01*
X129998720Y-96007745D01*
X129998722Y-96007748D01*
X130004465Y-96013491D01*
X130002740Y-96015215D01*
X130036658Y-96061674D01*
X130042905Y-96119799D01*
X130021696Y-96280903D01*
X130021696Y-96280906D01*
X130042333Y-96437665D01*
X130042334Y-96437667D01*
X130079237Y-96526760D01*
X130102842Y-96583746D01*
X130199096Y-96709187D01*
X130324537Y-96805441D01*
X130470616Y-96865949D01*
X130542773Y-96875448D01*
X130606668Y-96903714D01*
X130645140Y-96962038D01*
X130645972Y-97031903D01*
X130624964Y-97073872D01*
X130616345Y-97085104D01*
X130555837Y-97231183D01*
X130555836Y-97231185D01*
X130535199Y-97387944D01*
X130535199Y-97387945D01*
X130537512Y-97405519D01*
X130526744Y-97474554D01*
X130480362Y-97526808D01*
X130474635Y-97529762D01*
X130474695Y-97529866D01*
X130467658Y-97533928D01*
X130342219Y-97630180D01*
X130245963Y-97755624D01*
X130185456Y-97901701D01*
X130185455Y-97901703D01*
X130164818Y-98058462D01*
X130164818Y-98058465D01*
X130185455Y-98215224D01*
X130185457Y-98215229D01*
X130243119Y-98354439D01*
X130250588Y-98423908D01*
X130219313Y-98486387D01*
X130159223Y-98522039D01*
X130112374Y-98524830D01*
X130070503Y-98519318D01*
X130070499Y-98519318D01*
X129913739Y-98539955D01*
X129913737Y-98539956D01*
X129767660Y-98600463D01*
X129725845Y-98632548D01*
X129642218Y-98696718D01*
X129642217Y-98696719D01*
X129642216Y-98696720D01*
X129557978Y-98806500D01*
X129501550Y-98847703D01*
X129431804Y-98851857D01*
X129384120Y-98829390D01*
X129313841Y-98775464D01*
X129312745Y-98775010D01*
X129311962Y-98774379D01*
X129306799Y-98771398D01*
X129307263Y-98770592D01*
X129258342Y-98731168D01*
X129236278Y-98664874D01*
X129245638Y-98612996D01*
X129250829Y-98600464D01*
X129278044Y-98534762D01*
X129298682Y-98378000D01*
X129298461Y-98376325D01*
X129284651Y-98271427D01*
X129278044Y-98221238D01*
X129217536Y-98075159D01*
X129121282Y-97949718D01*
X128995841Y-97853464D01*
X128995732Y-97853419D01*
X128849762Y-97792956D01*
X128849760Y-97792955D01*
X128693001Y-97772318D01*
X128692999Y-97772318D01*
X128536239Y-97792955D01*
X128536237Y-97792956D01*
X128390160Y-97853463D01*
X128264718Y-97949718D01*
X128168463Y-98075160D01*
X128107956Y-98221237D01*
X128107955Y-98221239D01*
X128087318Y-98377998D01*
X128087318Y-98378001D01*
X128107955Y-98534760D01*
X128107956Y-98534762D01*
X128141383Y-98615463D01*
X128168464Y-98680841D01*
X128264718Y-98806282D01*
X128390159Y-98902536D01*
X128391248Y-98902987D01*
X128392027Y-98903615D01*
X128397196Y-98906599D01*
X128396730Y-98907404D01*
X128445654Y-98946825D01*
X128467722Y-99013118D01*
X128458362Y-99065002D01*
X128425957Y-99143234D01*
X128425955Y-99143239D01*
X128405318Y-99299998D01*
X128405318Y-99300001D01*
X128425955Y-99456760D01*
X128425956Y-99456762D01*
X128484708Y-99598603D01*
X128486464Y-99602841D01*
X128582718Y-99728282D01*
X128681326Y-99803946D01*
X128722527Y-99860373D01*
X128726682Y-99930119D01*
X128692470Y-99991040D01*
X128630752Y-100023792D01*
X128622025Y-100025259D01*
X128598788Y-100028319D01*
X128598787Y-100028319D01*
X128452710Y-100088826D01*
X128446960Y-100093238D01*
X128327268Y-100185081D01*
X128327267Y-100185082D01*
X128327266Y-100185083D01*
X128281883Y-100244227D01*
X128225455Y-100285429D01*
X128155709Y-100289584D01*
X128136055Y-100283301D01*
X128056763Y-100250457D01*
X128056761Y-100250456D01*
X127900002Y-100229819D01*
X127900000Y-100229819D01*
X127743240Y-100250456D01*
X127743238Y-100250457D01*
X127597161Y-100310964D01*
X127471719Y-100407219D01*
X127375464Y-100532661D01*
X127314957Y-100678738D01*
X127314956Y-100678740D01*
X127294319Y-100835499D01*
X127294319Y-100835502D01*
X125487479Y-100835502D01*
X125407782Y-100731638D01*
X125282341Y-100635384D01*
X125267462Y-100629221D01*
X125136262Y-100574876D01*
X125136260Y-100574875D01*
X124979501Y-100554238D01*
X124979499Y-100554238D01*
X124822739Y-100574875D01*
X124822737Y-100574876D01*
X124676660Y-100635383D01*
X124551218Y-100731638D01*
X124454963Y-100857080D01*
X124394456Y-101003157D01*
X124394455Y-101003159D01*
X124373818Y-101159918D01*
X124373818Y-101159921D01*
X122056916Y-101159921D01*
X122030170Y-101110940D01*
X122027336Y-101084582D01*
X122027337Y-99722603D01*
X122047022Y-99655563D01*
X122099826Y-99609809D01*
X122151337Y-99598603D01*
X122156337Y-99598603D01*
X122230856Y-99588792D01*
X122299890Y-99599557D01*
X122352146Y-99645937D01*
X122371032Y-99713206D01*
X122369980Y-99727915D01*
X122363442Y-99777581D01*
X122363442Y-99777585D01*
X122384079Y-99934344D01*
X122384080Y-99934346D01*
X122438180Y-100064956D01*
X122444588Y-100080425D01*
X122540842Y-100205866D01*
X122666283Y-100302120D01*
X122812362Y-100362628D01*
X122856999Y-100368504D01*
X122920896Y-100396770D01*
X122955376Y-100443990D01*
X123000463Y-100552839D01*
X123000464Y-100552841D01*
X123096718Y-100678282D01*
X123222159Y-100774536D01*
X123368238Y-100835044D01*
X123446618Y-100845363D01*
X123524999Y-100855682D01*
X123525000Y-100855682D01*
X123525001Y-100855682D01*
X123577254Y-100848802D01*
X123681762Y-100835044D01*
X123827841Y-100774536D01*
X123953282Y-100678282D01*
X124049536Y-100552841D01*
X124110044Y-100406762D01*
X124130682Y-100250000D01*
X124110044Y-100093238D01*
X124049536Y-99947159D01*
X123953282Y-99821718D01*
X123827841Y-99725464D01*
X123790611Y-99710043D01*
X123783526Y-99707108D01*
X123681762Y-99664956D01*
X123637122Y-99659079D01*
X123573226Y-99630812D01*
X123538747Y-99583593D01*
X123493660Y-99474743D01*
X123397406Y-99349302D01*
X123271965Y-99253048D01*
X123239462Y-99239585D01*
X123125886Y-99192540D01*
X123125884Y-99192539D01*
X122969125Y-99171902D01*
X122969121Y-99171902D01*
X122894603Y-99181712D01*
X122825568Y-99170946D01*
X122773313Y-99124566D01*
X122754428Y-99057297D01*
X122755480Y-99042587D01*
X122755631Y-99041446D01*
X122762019Y-98992921D01*
X122760744Y-98983239D01*
X122747750Y-98884536D01*
X122741381Y-98836159D01*
X122680873Y-98690080D01*
X122584619Y-98564639D01*
X122459178Y-98468385D01*
X122428510Y-98455682D01*
X122313099Y-98407877D01*
X122313097Y-98407876D01*
X122156338Y-98387239D01*
X122151337Y-98387239D01*
X122119876Y-98378001D01*
X122994318Y-98378001D01*
X123014955Y-98534760D01*
X123014956Y-98534762D01*
X123048383Y-98615463D01*
X123075464Y-98680841D01*
X123171718Y-98806282D01*
X123297159Y-98902536D01*
X123443238Y-98963044D01*
X123521619Y-98973363D01*
X123599999Y-98983682D01*
X123600000Y-98983682D01*
X123600001Y-98983682D01*
X123652253Y-98976802D01*
X123756762Y-98963044D01*
X123902841Y-98902536D01*
X124028282Y-98806282D01*
X124124536Y-98680841D01*
X124180478Y-98545784D01*
X124224317Y-98491382D01*
X124290611Y-98469317D01*
X124358311Y-98486596D01*
X124393911Y-98522623D01*
X124395516Y-98521392D01*
X124400463Y-98527839D01*
X124400464Y-98527841D01*
X124496718Y-98653282D01*
X124622159Y-98749536D01*
X124768238Y-98810044D01*
X124846618Y-98820363D01*
X124924999Y-98830682D01*
X124925000Y-98830682D01*
X124925001Y-98830682D01*
X124989739Y-98822159D01*
X125081762Y-98810044D01*
X125227841Y-98749536D01*
X125353282Y-98653282D01*
X125449536Y-98527841D01*
X125491203Y-98427247D01*
X125535042Y-98372845D01*
X125601336Y-98350780D01*
X125669036Y-98368059D01*
X125681235Y-98376315D01*
X125776659Y-98449536D01*
X125922738Y-98510044D01*
X125973767Y-98516762D01*
X126079499Y-98530682D01*
X126079500Y-98530682D01*
X126079501Y-98530682D01*
X126131754Y-98523802D01*
X126236262Y-98510044D01*
X126382341Y-98449536D01*
X126507782Y-98353282D01*
X126604036Y-98227841D01*
X126664544Y-98081762D01*
X126680800Y-97958282D01*
X126685182Y-97925001D01*
X126685182Y-97924998D01*
X126666348Y-97781940D01*
X126664544Y-97768238D01*
X126604036Y-97622159D01*
X126507782Y-97496718D01*
X126382341Y-97400464D01*
X126372370Y-97396334D01*
X126236262Y-97339956D01*
X126236260Y-97339955D01*
X126079501Y-97319318D01*
X126079499Y-97319318D01*
X125922739Y-97339955D01*
X125922737Y-97339956D01*
X125776660Y-97400463D01*
X125651218Y-97496718D01*
X125554963Y-97622160D01*
X125513297Y-97722751D01*
X125469456Y-97777154D01*
X125403161Y-97799219D01*
X125335462Y-97781940D01*
X125323260Y-97773681D01*
X125227841Y-97700464D01*
X125219490Y-97697005D01*
X125081762Y-97639956D01*
X125081760Y-97639955D01*
X124956524Y-97623468D01*
X124892627Y-97595201D01*
X124858148Y-97547982D01*
X124852327Y-97533928D01*
X124827955Y-97475090D01*
X124731701Y-97349649D01*
X124606260Y-97253395D01*
X124598066Y-97250001D01*
X124460181Y-97192887D01*
X124460179Y-97192886D01*
X124303420Y-97172249D01*
X124303418Y-97172249D01*
X124146658Y-97192886D01*
X124146656Y-97192887D01*
X124000579Y-97253394D01*
X123875137Y-97349649D01*
X123778882Y-97475091D01*
X123718375Y-97621168D01*
X123718375Y-97621170D01*
X123712632Y-97664790D01*
X123684365Y-97728687D01*
X123626040Y-97767157D01*
X123605879Y-97771543D01*
X123461846Y-97790506D01*
X123443238Y-97792956D01*
X123443237Y-97792956D01*
X123297160Y-97853463D01*
X123171718Y-97949718D01*
X123075463Y-98075160D01*
X123014956Y-98221237D01*
X123014955Y-98221239D01*
X122994318Y-98377998D01*
X122994318Y-98378001D01*
X122119876Y-98378001D01*
X122084298Y-98367554D01*
X122038543Y-98314750D01*
X122027337Y-98263239D01*
X122027336Y-96982433D01*
X122047021Y-96915394D01*
X122052961Y-96906946D01*
X122055549Y-96903574D01*
X122129740Y-96806886D01*
X122190248Y-96660807D01*
X122206202Y-96539625D01*
X122210886Y-96504046D01*
X122210886Y-96504043D01*
X122193238Y-96369998D01*
X122190248Y-96347283D01*
X122129740Y-96201204D01*
X122033486Y-96075763D01*
X121908045Y-95979509D01*
X121761966Y-95919001D01*
X121761964Y-95919000D01*
X121605205Y-95898363D01*
X121605203Y-95898363D01*
X121448443Y-95919000D01*
X121448441Y-95919001D01*
X121302364Y-95979508D01*
X121176922Y-96075763D01*
X121080667Y-96201205D01*
X121020160Y-96347282D01*
X121020159Y-96347284D01*
X120999522Y-96504043D01*
X120999522Y-96504046D01*
X121020159Y-96660805D01*
X121020160Y-96660807D01*
X121080668Y-96806887D01*
X121154859Y-96903574D01*
X121180053Y-96968743D01*
X121166015Y-97037188D01*
X121117201Y-97087177D01*
X121072669Y-97101999D01*
X120967344Y-97115866D01*
X120940075Y-97119456D01*
X120940074Y-97119456D01*
X120793994Y-97179964D01*
X120678163Y-97268845D01*
X120612994Y-97294039D01*
X120555226Y-97285030D01*
X120506762Y-97264956D01*
X120506760Y-97264955D01*
X120350001Y-97244318D01*
X120349999Y-97244318D01*
X120193239Y-97264955D01*
X120193234Y-97264957D01*
X120113954Y-97297796D01*
X120044485Y-97305265D01*
X119982006Y-97273990D01*
X119946354Y-97213901D01*
X119943563Y-97167052D01*
X119955682Y-97075000D01*
X119951545Y-97043577D01*
X119962310Y-96974543D01*
X120008690Y-96922287D01*
X120075959Y-96903401D01*
X120090653Y-96904451D01*
X120100000Y-96905682D01*
X120256762Y-96885044D01*
X120402841Y-96824536D01*
X120528282Y-96728282D01*
X120624536Y-96602841D01*
X120685044Y-96456762D01*
X120704380Y-96309892D01*
X120705682Y-96300001D01*
X120705682Y-96299998D01*
X120685044Y-96143239D01*
X120685044Y-96143238D01*
X120624536Y-95997159D01*
X120528282Y-95871718D01*
X120528280Y-95871717D01*
X120528280Y-95871716D01*
X120516580Y-95862739D01*
X120475377Y-95806311D01*
X120469140Y-95748081D01*
X120469171Y-95747841D01*
X120497489Y-95683970D01*
X120544643Y-95649569D01*
X120687408Y-95590434D01*
X120812849Y-95494180D01*
X120909103Y-95368739D01*
X120969611Y-95222660D01*
X120984443Y-95110001D01*
X124784318Y-95110001D01*
X124804955Y-95266760D01*
X124804956Y-95266762D01*
X124842364Y-95357074D01*
X124865464Y-95412841D01*
X124961718Y-95538282D01*
X125087159Y-95634536D01*
X125233238Y-95695044D01*
X125311619Y-95705363D01*
X125389999Y-95715682D01*
X125390000Y-95715682D01*
X125390001Y-95715682D01*
X125451298Y-95707612D01*
X125546762Y-95695044D01*
X125692841Y-95634536D01*
X125818282Y-95538282D01*
X125914536Y-95412841D01*
X125975044Y-95266762D01*
X125995682Y-95110000D01*
X125994659Y-95102232D01*
X125975044Y-94953239D01*
X125975044Y-94953238D01*
X125914536Y-94807159D01*
X125818282Y-94681718D01*
X125692841Y-94585464D01*
X125623548Y-94556762D01*
X125546762Y-94524956D01*
X125546760Y-94524955D01*
X125390001Y-94504318D01*
X125389999Y-94504318D01*
X125233239Y-94524955D01*
X125233237Y-94524956D01*
X125087160Y-94585463D01*
X124961718Y-94681718D01*
X124865463Y-94807160D01*
X124804956Y-94953237D01*
X124804955Y-94953239D01*
X124784318Y-95109998D01*
X124784318Y-95110001D01*
X120984443Y-95110001D01*
X120990249Y-95065898D01*
X120989595Y-95060934D01*
X120971024Y-94919868D01*
X120969611Y-94909136D01*
X120909103Y-94763057D01*
X120812849Y-94637616D01*
X120687408Y-94541362D01*
X120687403Y-94541360D01*
X120597976Y-94504318D01*
X120541329Y-94480854D01*
X120496811Y-94474993D01*
X120430599Y-94466276D01*
X120366703Y-94438009D01*
X120332743Y-94386525D01*
X120331248Y-94387145D01*
X120313666Y-94344698D01*
X120267630Y-94233557D01*
X120171376Y-94108116D01*
X120045935Y-94011862D01*
X120016392Y-93999625D01*
X119899856Y-93951354D01*
X119899854Y-93951353D01*
X119743095Y-93930716D01*
X119743093Y-93930716D01*
X119586333Y-93951353D01*
X119586328Y-93951355D01*
X119457377Y-94004768D01*
X119387908Y-94012237D01*
X119334440Y-93988584D01*
X119317341Y-93975464D01*
X119171262Y-93914956D01*
X119171260Y-93914955D01*
X119014501Y-93894318D01*
X119014499Y-93894318D01*
X118857739Y-93914955D01*
X118857737Y-93914956D01*
X118711660Y-93975463D01*
X118586218Y-94071718D01*
X118489963Y-94197160D01*
X118429456Y-94343237D01*
X118429455Y-94343239D01*
X118408818Y-94499998D01*
X118408818Y-94500001D01*
X109174983Y-94500001D01*
X109249536Y-94402841D01*
X109310044Y-94256762D01*
X109329614Y-94108116D01*
X109330682Y-94100001D01*
X109330682Y-94099998D01*
X109310044Y-93943239D01*
X109310044Y-93943238D01*
X109249536Y-93797159D01*
X109153282Y-93671718D01*
X109027841Y-93575464D01*
X108994655Y-93561718D01*
X108881762Y-93514956D01*
X108881760Y-93514955D01*
X108725001Y-93494318D01*
X108724999Y-93494318D01*
X108568239Y-93514955D01*
X108568237Y-93514956D01*
X108422160Y-93575463D01*
X108296718Y-93671718D01*
X108200463Y-93797160D01*
X108139956Y-93943237D01*
X108139955Y-93943239D01*
X108119318Y-94099998D01*
X108119318Y-94100001D01*
X103975713Y-94100001D01*
X103974536Y-94097159D01*
X103878282Y-93971718D01*
X103752841Y-93875464D01*
X103735398Y-93868239D01*
X103606762Y-93814956D01*
X103577734Y-93811134D01*
X103513838Y-93782866D01*
X103475368Y-93724540D01*
X103474538Y-93654675D01*
X103475245Y-93652254D01*
X103485300Y-93619109D01*
X103505583Y-93413175D01*
X103485300Y-93207241D01*
X103425232Y-93009221D01*
X103327685Y-92826725D01*
X103266130Y-92751720D01*
X103196410Y-92666764D01*
X103036452Y-92535492D01*
X103036453Y-92535492D01*
X103036450Y-92535490D01*
X102853954Y-92437943D01*
X102783502Y-92416572D01*
X118660889Y-92416572D01*
X118681526Y-92573331D01*
X118681527Y-92573333D01*
X118741887Y-92719056D01*
X118742035Y-92719412D01*
X118838289Y-92844853D01*
X118963730Y-92941107D01*
X119109809Y-93001615D01*
X119167560Y-93009218D01*
X119266570Y-93022253D01*
X119266571Y-93022253D01*
X119423333Y-93001615D01*
X119423335Y-93001614D01*
X119427627Y-93001049D01*
X119496663Y-93011814D01*
X119536877Y-93044222D01*
X119537268Y-93043832D01*
X119540897Y-93047461D01*
X119542188Y-93048501D01*
X119543015Y-93049579D01*
X119668456Y-93145833D01*
X119814535Y-93206341D01*
X119814540Y-93206341D01*
X119822385Y-93208444D01*
X119821640Y-93211223D01*
X119872835Y-93233871D01*
X119911306Y-93292195D01*
X119912773Y-93298933D01*
X119912853Y-93298912D01*
X119914956Y-93306762D01*
X119971933Y-93444318D01*
X119975464Y-93452841D01*
X120071718Y-93578282D01*
X120197159Y-93674536D01*
X120343238Y-93735044D01*
X120421619Y-93745363D01*
X120499999Y-93755682D01*
X120500000Y-93755682D01*
X120500001Y-93755682D01*
X120576193Y-93745651D01*
X120656762Y-93735044D01*
X120802841Y-93674536D01*
X120833221Y-93651224D01*
X120898388Y-93626029D01*
X120966834Y-93640066D01*
X121016824Y-93688879D01*
X121031647Y-93733413D01*
X121040040Y-93797160D01*
X121052688Y-93893237D01*
X121053023Y-93895777D01*
X121053023Y-93895778D01*
X121106548Y-94025000D01*
X121113531Y-94041857D01*
X121209785Y-94167298D01*
X121335226Y-94263552D01*
X121481305Y-94324060D01*
X121510010Y-94327839D01*
X121638066Y-94344698D01*
X121638067Y-94344698D01*
X121638068Y-94344698D01*
X121690320Y-94337818D01*
X121794829Y-94324060D01*
X121940908Y-94263552D01*
X122066349Y-94167298D01*
X122162603Y-94041857D01*
X122169585Y-94025001D01*
X122844318Y-94025001D01*
X122864955Y-94181760D01*
X122864956Y-94181762D01*
X122910966Y-94292841D01*
X122925464Y-94327841D01*
X123021718Y-94453282D01*
X123147159Y-94549536D01*
X123293238Y-94610044D01*
X123371618Y-94620363D01*
X123449999Y-94630682D01*
X123450000Y-94630682D01*
X123450001Y-94630682D01*
X123502253Y-94623802D01*
X123606762Y-94610044D01*
X123752841Y-94549536D01*
X123878282Y-94453282D01*
X123974536Y-94327841D01*
X124035044Y-94181762D01*
X124048802Y-94077254D01*
X124055682Y-94025001D01*
X124055682Y-94024998D01*
X124041366Y-93916259D01*
X124035044Y-93868238D01*
X123974536Y-93722159D01*
X123878282Y-93596718D01*
X123752841Y-93500464D01*
X123738003Y-93494318D01*
X123606762Y-93439956D01*
X123606760Y-93439955D01*
X123450001Y-93419318D01*
X123449999Y-93419318D01*
X123293239Y-93439955D01*
X123293237Y-93439956D01*
X123147160Y-93500463D01*
X123021718Y-93596718D01*
X122925463Y-93722160D01*
X122864956Y-93868237D01*
X122864955Y-93868239D01*
X122844318Y-94024998D01*
X122844318Y-94025001D01*
X122169585Y-94025001D01*
X122223111Y-93895778D01*
X122242677Y-93747159D01*
X122243749Y-93739017D01*
X122243749Y-93739014D01*
X122228874Y-93626029D01*
X122223111Y-93582254D01*
X122162603Y-93436175D01*
X122066349Y-93310734D01*
X121940908Y-93214480D01*
X121921256Y-93206340D01*
X121794829Y-93153972D01*
X121794827Y-93153971D01*
X121638068Y-93133334D01*
X121638066Y-93133334D01*
X121481306Y-93153971D01*
X121481304Y-93153972D01*
X121335225Y-93214480D01*
X121304843Y-93237793D01*
X121239674Y-93262986D01*
X121171229Y-93248947D01*
X121121240Y-93200133D01*
X121106419Y-93155601D01*
X121103138Y-93130682D01*
X121085044Y-92993238D01*
X121024536Y-92847159D01*
X120928282Y-92721718D01*
X120802841Y-92625464D01*
X120656762Y-92564956D01*
X120648912Y-92562853D01*
X120649654Y-92560081D01*
X120598428Y-92537398D01*
X120559977Y-92479060D01*
X120558521Y-92472364D01*
X120558444Y-92472385D01*
X120556341Y-92464540D01*
X120556341Y-92464535D01*
X120495833Y-92318456D01*
X120399579Y-92193015D01*
X120274138Y-92096761D01*
X120274034Y-92096718D01*
X120128059Y-92036253D01*
X120128057Y-92036252D01*
X119971298Y-92015615D01*
X119971296Y-92015615D01*
X119810239Y-92036818D01*
X119741204Y-92026052D01*
X119700990Y-91993645D01*
X119700600Y-91994036D01*
X119696963Y-91990399D01*
X119695676Y-91989362D01*
X119694854Y-91988290D01*
X119678139Y-91975464D01*
X119569412Y-91892035D01*
X119469048Y-91850463D01*
X119423333Y-91831527D01*
X119423331Y-91831526D01*
X119266572Y-91810889D01*
X119266570Y-91810889D01*
X119109810Y-91831526D01*
X119109808Y-91831527D01*
X118963731Y-91892034D01*
X118838289Y-91988289D01*
X118742034Y-92113731D01*
X118681527Y-92259808D01*
X118681526Y-92259810D01*
X118660889Y-92416569D01*
X118660889Y-92416572D01*
X102783502Y-92416572D01*
X102655934Y-92377875D01*
X102655932Y-92377874D01*
X102655934Y-92377874D01*
X102468463Y-92359410D01*
X102450000Y-92357592D01*
X102449999Y-92357592D01*
X102244067Y-92377874D01*
X102046043Y-92437944D01*
X101996298Y-92464534D01*
X101863550Y-92535490D01*
X101863548Y-92535491D01*
X101863547Y-92535492D01*
X101703589Y-92666764D01*
X101580386Y-92816890D01*
X101572315Y-92826725D01*
X101540988Y-92885334D01*
X101474769Y-93009218D01*
X101474768Y-93009220D01*
X101474768Y-93009221D01*
X101473574Y-93013156D01*
X101414699Y-93207242D01*
X101394417Y-93413175D01*
X101414699Y-93619107D01*
X101434201Y-93683397D01*
X101474768Y-93817129D01*
X101572315Y-93999625D01*
X101606122Y-94040819D01*
X101703589Y-94159585D01*
X101767074Y-94211685D01*
X101863550Y-94290860D01*
X102046046Y-94388407D01*
X102244066Y-94448475D01*
X102244065Y-94448475D01*
X102264347Y-94450472D01*
X102450000Y-94468758D01*
X102655934Y-94448475D01*
X102703361Y-94434087D01*
X102773227Y-94433463D01*
X102832341Y-94470711D01*
X102861932Y-94534005D01*
X102862296Y-94536559D01*
X102864956Y-94556762D01*
X102916714Y-94681718D01*
X102925464Y-94702841D01*
X102987358Y-94783504D01*
X103012552Y-94848672D01*
X102998514Y-94917116D01*
X102949700Y-94967106D01*
X102881609Y-94982770D01*
X102852989Y-94977650D01*
X102655934Y-94917875D01*
X102655932Y-94917874D01*
X102655934Y-94917874D01*
X102450000Y-94897592D01*
X102244067Y-94917874D01*
X102046043Y-94977944D01*
X101958877Y-95024536D01*
X101863550Y-95075490D01*
X101863548Y-95075491D01*
X101863547Y-95075492D01*
X101703589Y-95206764D01*
X101580235Y-95357074D01*
X101572315Y-95366725D01*
X101547666Y-95412839D01*
X101474769Y-95549218D01*
X101474768Y-95549220D01*
X101474768Y-95549221D01*
X101474274Y-95550849D01*
X101414699Y-95747242D01*
X101394417Y-95953174D01*
X101414699Y-96159107D01*
X101437899Y-96235587D01*
X101474768Y-96357129D01*
X101572315Y-96539625D01*
X101588640Y-96559517D01*
X101703589Y-96699585D01*
X101783463Y-96765135D01*
X101863550Y-96830860D01*
X102046046Y-96928407D01*
X102244066Y-96988475D01*
X102244065Y-96988475D01*
X102264347Y-96990472D01*
X102450000Y-97008758D01*
X102655934Y-96988475D01*
X102853954Y-96928407D01*
X103036450Y-96830860D01*
X103091507Y-96785675D01*
X103155817Y-96758363D01*
X103224684Y-96770154D01*
X103276245Y-96817306D01*
X103294128Y-96884848D01*
X103277562Y-96943523D01*
X103275466Y-96947152D01*
X103214956Y-97093237D01*
X103214955Y-97093239D01*
X103194318Y-97249998D01*
X103194318Y-97250001D01*
X103214955Y-97406760D01*
X103214957Y-97406765D01*
X103248429Y-97487575D01*
X103255898Y-97557044D01*
X103224622Y-97619523D01*
X103164533Y-97655175D01*
X103094708Y-97652681D01*
X103055203Y-97630880D01*
X103036453Y-97615492D01*
X103036451Y-97615491D01*
X103036450Y-97615490D01*
X102853954Y-97517943D01*
X102655934Y-97457875D01*
X102655932Y-97457874D01*
X102655934Y-97457874D01*
X102468463Y-97439410D01*
X102450000Y-97437592D01*
X102449999Y-97437592D01*
X102244067Y-97457874D01*
X102046043Y-97517944D01*
X101970894Y-97558113D01*
X101863550Y-97615490D01*
X101863548Y-97615491D01*
X101863547Y-97615492D01*
X101703589Y-97746764D01*
X101590948Y-97884020D01*
X101572315Y-97906725D01*
X101560416Y-97928986D01*
X101474769Y-98089218D01*
X101414699Y-98287242D01*
X101394417Y-98493174D01*
X101125000Y-98493174D01*
X101125000Y-90873174D01*
X101394417Y-90873174D01*
X101414699Y-91079107D01*
X101441750Y-91168282D01*
X101474768Y-91277129D01*
X101572315Y-91459625D01*
X101599900Y-91493238D01*
X101703589Y-91619585D01*
X101770548Y-91674536D01*
X101863550Y-91750860D01*
X102046046Y-91848407D01*
X102244066Y-91908475D01*
X102244065Y-91908475D01*
X102262529Y-91910293D01*
X102450000Y-91928758D01*
X102655934Y-91908475D01*
X102853954Y-91848407D01*
X103036450Y-91750860D01*
X103196410Y-91619585D01*
X103327685Y-91459625D01*
X103425232Y-91277129D01*
X103463795Y-91150001D01*
X105819318Y-91150001D01*
X105839955Y-91306760D01*
X105839956Y-91306762D01*
X105872381Y-91385044D01*
X105900464Y-91452841D01*
X105996718Y-91578282D01*
X106122159Y-91674536D01*
X106268238Y-91735044D01*
X106346618Y-91745363D01*
X106424999Y-91755682D01*
X106425000Y-91755682D01*
X106425001Y-91755682D01*
X106477253Y-91748802D01*
X106581762Y-91735044D01*
X106727841Y-91674536D01*
X106759816Y-91650001D01*
X111169318Y-91650001D01*
X111189955Y-91806760D01*
X111189956Y-91806762D01*
X111250464Y-91952841D01*
X111346718Y-92078282D01*
X111472159Y-92174536D01*
X111618238Y-92235044D01*
X111696618Y-92245363D01*
X111774999Y-92255682D01*
X111775000Y-92255682D01*
X111775001Y-92255682D01*
X111844266Y-92246563D01*
X111931762Y-92235044D01*
X112077841Y-92174536D01*
X112203282Y-92078282D01*
X112299536Y-91952841D01*
X112360044Y-91806762D01*
X112376062Y-91685092D01*
X112380682Y-91650001D01*
X112380682Y-91649998D01*
X112360044Y-91493239D01*
X112360044Y-91493238D01*
X112299536Y-91347159D01*
X112203282Y-91221718D01*
X112077841Y-91125464D01*
X112023224Y-91102841D01*
X111931762Y-91064956D01*
X111931760Y-91064955D01*
X111775001Y-91044318D01*
X111774999Y-91044318D01*
X111618239Y-91064955D01*
X111618237Y-91064956D01*
X111472160Y-91125463D01*
X111346718Y-91221718D01*
X111250463Y-91347160D01*
X111189956Y-91493237D01*
X111189955Y-91493239D01*
X111169318Y-91649998D01*
X111169318Y-91650001D01*
X106759816Y-91650001D01*
X106853282Y-91578282D01*
X106949536Y-91452841D01*
X107010044Y-91306762D01*
X107028275Y-91168282D01*
X107030682Y-91150001D01*
X107030682Y-91149998D01*
X107010044Y-90993239D01*
X107010044Y-90993238D01*
X106961757Y-90876663D01*
X106954288Y-90807193D01*
X106977942Y-90753723D01*
X106978278Y-90753285D01*
X106978282Y-90753282D01*
X107074536Y-90627841D01*
X107135044Y-90481762D01*
X107149417Y-90372584D01*
X107155682Y-90325001D01*
X107155682Y-90324998D01*
X107141261Y-90215464D01*
X107135044Y-90168238D01*
X107115003Y-90119856D01*
X107724500Y-90119856D01*
X107724502Y-90119882D01*
X107727413Y-90144987D01*
X107727415Y-90144991D01*
X107772793Y-90247764D01*
X107772793Y-90247765D01*
X107772794Y-90247765D01*
X107852235Y-90327206D01*
X107955009Y-90372585D01*
X107980135Y-90375500D01*
X110619864Y-90375499D01*
X110619879Y-90375497D01*
X110619882Y-90375497D01*
X110644987Y-90372586D01*
X110644988Y-90372585D01*
X110644991Y-90372585D01*
X110747765Y-90327206D01*
X110827206Y-90247765D01*
X110872585Y-90144991D01*
X110875500Y-90119865D01*
X110875500Y-88800004D01*
X112520023Y-88800004D01*
X112539903Y-89065290D01*
X112539903Y-89065292D01*
X112599098Y-89324643D01*
X112599104Y-89324662D01*
X112696296Y-89572303D01*
X112829316Y-89802700D01*
X112880083Y-89866361D01*
X113439476Y-89306968D01*
X113500799Y-89273483D01*
X113570490Y-89278467D01*
X113621663Y-89314371D01*
X113667619Y-89368475D01*
X113712008Y-89420735D01*
X113740564Y-89442442D01*
X113781191Y-89473326D01*
X113822647Y-89529564D01*
X113827118Y-89599291D01*
X113793830Y-89659721D01*
X113230369Y-90223182D01*
X113218852Y-90282391D01*
X113184221Y-90323757D01*
X113121720Y-90371716D01*
X113121719Y-90371717D01*
X113121718Y-90371718D01*
X113062541Y-90448839D01*
X113025463Y-90497160D01*
X112964956Y-90643237D01*
X112964955Y-90643239D01*
X112944318Y-90799998D01*
X112944318Y-90800001D01*
X112964955Y-90956760D01*
X112964956Y-90956762D01*
X113025464Y-91102841D01*
X113121718Y-91228282D01*
X113247159Y-91324536D01*
X113393238Y-91385044D01*
X113471619Y-91395363D01*
X113549999Y-91405682D01*
X113550000Y-91405682D01*
X113550001Y-91405682D01*
X113602253Y-91398802D01*
X113706762Y-91385044D01*
X113852841Y-91324536D01*
X113978282Y-91228282D01*
X114074536Y-91102841D01*
X114135044Y-90956762D01*
X114150295Y-90840915D01*
X114155682Y-90800001D01*
X114155682Y-90799998D01*
X114144516Y-90715185D01*
X114155282Y-90646150D01*
X114201662Y-90593894D01*
X114267455Y-90575000D01*
X114433017Y-90575000D01*
X114433023Y-90574999D01*
X114696084Y-90535347D01*
X114696090Y-90535346D01*
X114950299Y-90456933D01*
X115189992Y-90341503D01*
X115345857Y-90235234D01*
X132759551Y-90235234D01*
X132780188Y-90391993D01*
X132780189Y-90391995D01*
X132827198Y-90505486D01*
X132840697Y-90538074D01*
X132936951Y-90663515D01*
X133062392Y-90759769D01*
X133208471Y-90820277D01*
X133286851Y-90830595D01*
X133365232Y-90840915D01*
X133365233Y-90840915D01*
X133365234Y-90840915D01*
X133417486Y-90834035D01*
X133521995Y-90820277D01*
X133668074Y-90759769D01*
X133793515Y-90663515D01*
X133889769Y-90538074D01*
X133950277Y-90391995D01*
X133965741Y-90274536D01*
X133970915Y-90235234D01*
X133970915Y-90235231D01*
X133950277Y-90078472D01*
X133950277Y-90078471D01*
X133930200Y-90030001D01*
X135684318Y-90030001D01*
X135704955Y-90186760D01*
X135704956Y-90186762D01*
X135762216Y-90325001D01*
X135765464Y-90332841D01*
X135861718Y-90458282D01*
X135987159Y-90554536D01*
X136133238Y-90615044D01*
X136164624Y-90619176D01*
X136289999Y-90635682D01*
X136290000Y-90635682D01*
X136290001Y-90635682D01*
X136346209Y-90628282D01*
X136446762Y-90615044D01*
X136592841Y-90554536D01*
X136718282Y-90458282D01*
X136814536Y-90332841D01*
X136875044Y-90186762D01*
X136895682Y-90030000D01*
X136875044Y-89873238D01*
X136814536Y-89727159D01*
X136718282Y-89601718D01*
X136592841Y-89505464D01*
X136535619Y-89481762D01*
X136446762Y-89444956D01*
X136446760Y-89444955D01*
X136290001Y-89424318D01*
X136289999Y-89424318D01*
X136133239Y-89444955D01*
X136133237Y-89444956D01*
X135987160Y-89505463D01*
X135861718Y-89601718D01*
X135765463Y-89727160D01*
X135704956Y-89873237D01*
X135704955Y-89873239D01*
X135684318Y-90029998D01*
X135684318Y-90030001D01*
X133930200Y-90030001D01*
X133889769Y-89932392D01*
X133793515Y-89806951D01*
X133668074Y-89710697D01*
X133666495Y-89710043D01*
X133521995Y-89650189D01*
X133521993Y-89650188D01*
X133365234Y-89629551D01*
X133365232Y-89629551D01*
X133208472Y-89650188D01*
X133208470Y-89650189D01*
X133062393Y-89710696D01*
X132936951Y-89806951D01*
X132840696Y-89932393D01*
X132780189Y-90078470D01*
X132780188Y-90078472D01*
X132759551Y-90235231D01*
X132759551Y-90235234D01*
X115345857Y-90235234D01*
X115367158Y-90220711D01*
X114809745Y-89663299D01*
X114776260Y-89601976D01*
X114781244Y-89532285D01*
X114814609Y-89487466D01*
X114812550Y-89485292D01*
X114817429Y-89480669D01*
X114817431Y-89480669D01*
X114951658Y-89353523D01*
X114970654Y-89325505D01*
X115024565Y-89281067D01*
X115093947Y-89272827D01*
X115156770Y-89303407D01*
X115160967Y-89307413D01*
X115719915Y-89866361D01*
X115770679Y-89802706D01*
X115770686Y-89802695D01*
X115903703Y-89572303D01*
X116000762Y-89325001D01*
X124919318Y-89325001D01*
X124939955Y-89481760D01*
X124939956Y-89481762D01*
X124993179Y-89610255D01*
X125000464Y-89627841D01*
X125096718Y-89753282D01*
X125222159Y-89849536D01*
X125368238Y-89910044D01*
X125446618Y-89920363D01*
X125524999Y-89930682D01*
X125525000Y-89930682D01*
X125525001Y-89930682D01*
X125577253Y-89923802D01*
X125681762Y-89910044D01*
X125827841Y-89849536D01*
X125953282Y-89753282D01*
X126049536Y-89627841D01*
X126110044Y-89481762D01*
X126130682Y-89325000D01*
X126124989Y-89281760D01*
X126110044Y-89168239D01*
X126110044Y-89168238D01*
X126092135Y-89125001D01*
X130744318Y-89125001D01*
X130764955Y-89281760D01*
X130764956Y-89281762D01*
X130822520Y-89420735D01*
X130825464Y-89427841D01*
X130921718Y-89553282D01*
X131047159Y-89649536D01*
X131193238Y-89710044D01*
X131263681Y-89719318D01*
X131349999Y-89730682D01*
X131350000Y-89730682D01*
X131350001Y-89730682D01*
X131402254Y-89723802D01*
X131506762Y-89710044D01*
X131652841Y-89649536D01*
X131778282Y-89553282D01*
X131874536Y-89427841D01*
X131935044Y-89281762D01*
X131955682Y-89125000D01*
X131954559Y-89116473D01*
X131935044Y-88968239D01*
X131935044Y-88968238D01*
X131874536Y-88822159D01*
X131778282Y-88696718D01*
X131652841Y-88600464D01*
X131614387Y-88584536D01*
X131506762Y-88539956D01*
X131506760Y-88539955D01*
X131350001Y-88519318D01*
X131349999Y-88519318D01*
X131193239Y-88539955D01*
X131193237Y-88539956D01*
X131047160Y-88600463D01*
X130921718Y-88696718D01*
X130825463Y-88822160D01*
X130764956Y-88968237D01*
X130764955Y-88968239D01*
X130744318Y-89124998D01*
X130744318Y-89125001D01*
X126092135Y-89125001D01*
X126049536Y-89022159D01*
X125953282Y-88896718D01*
X125827841Y-88800464D01*
X125826730Y-88800004D01*
X125681762Y-88739956D01*
X125681760Y-88739955D01*
X125525001Y-88719318D01*
X125524999Y-88719318D01*
X125368239Y-88739955D01*
X125368237Y-88739956D01*
X125222160Y-88800463D01*
X125096718Y-88896718D01*
X125000463Y-89022160D01*
X124939956Y-89168237D01*
X124939955Y-89168239D01*
X124919318Y-89324998D01*
X124919318Y-89325001D01*
X116000762Y-89325001D01*
X116000895Y-89324662D01*
X116000901Y-89324643D01*
X116060096Y-89065292D01*
X116060096Y-89065290D01*
X116079977Y-88800004D01*
X116079977Y-88799995D01*
X116060096Y-88534709D01*
X116060096Y-88534707D01*
X116000901Y-88275356D01*
X116000895Y-88275337D01*
X115981140Y-88225001D01*
X122419318Y-88225001D01*
X122439955Y-88381760D01*
X122439956Y-88381762D01*
X122496933Y-88519318D01*
X122500464Y-88527841D01*
X122596718Y-88653282D01*
X122722159Y-88749536D01*
X122868238Y-88810044D01*
X122946619Y-88820363D01*
X123024999Y-88830682D01*
X123025000Y-88830682D01*
X123025001Y-88830682D01*
X123089739Y-88822159D01*
X123181762Y-88810044D01*
X123327841Y-88749536D01*
X123453282Y-88653282D01*
X123549536Y-88527841D01*
X123610044Y-88381762D01*
X123630682Y-88225000D01*
X123629597Y-88216762D01*
X123613278Y-88092805D01*
X123610044Y-88068238D01*
X123549536Y-87922159D01*
X123453282Y-87796718D01*
X123327841Y-87700464D01*
X123266778Y-87675171D01*
X123181762Y-87639956D01*
X123181760Y-87639955D01*
X123025001Y-87619318D01*
X123024999Y-87619318D01*
X122868239Y-87639955D01*
X122868237Y-87639956D01*
X122722160Y-87700463D01*
X122596718Y-87796718D01*
X122500463Y-87922160D01*
X122439956Y-88068237D01*
X122439955Y-88068239D01*
X122419318Y-88224998D01*
X122419318Y-88225001D01*
X115981140Y-88225001D01*
X115903703Y-88027696D01*
X115770683Y-87797299D01*
X115719915Y-87733637D01*
X115719914Y-87733637D01*
X115160523Y-88293029D01*
X115099200Y-88326514D01*
X115029508Y-88321530D01*
X114978334Y-88285624D01*
X114907837Y-88202629D01*
X114887991Y-88179265D01*
X114887990Y-88179264D01*
X114818808Y-88126672D01*
X114777351Y-88070430D01*
X114772882Y-88000704D01*
X114806169Y-87940276D01*
X115367158Y-87379287D01*
X115189984Y-87258492D01*
X114950299Y-87143066D01*
X114696090Y-87064653D01*
X114696084Y-87064652D01*
X114433023Y-87025000D01*
X114166976Y-87025000D01*
X113903915Y-87064652D01*
X113903909Y-87064653D01*
X113649699Y-87143067D01*
X113649695Y-87143068D01*
X113410015Y-87258493D01*
X113410011Y-87258495D01*
X113232840Y-87379287D01*
X113790254Y-87936700D01*
X113823739Y-87998023D01*
X113818755Y-88067714D01*
X113785444Y-88112589D01*
X113787450Y-88114707D01*
X113648342Y-88246476D01*
X113629347Y-88274493D01*
X113575433Y-88318933D01*
X113506050Y-88327171D01*
X113443228Y-88296590D01*
X113439033Y-88292586D01*
X112880084Y-87733638D01*
X112829314Y-87797302D01*
X112696296Y-88027696D01*
X112599104Y-88275337D01*
X112599098Y-88275356D01*
X112539903Y-88534707D01*
X112539903Y-88534709D01*
X112520023Y-88799995D01*
X112520023Y-88800004D01*
X110875500Y-88800004D01*
X110875499Y-87480136D01*
X110875497Y-87480117D01*
X110872586Y-87455012D01*
X110872585Y-87455010D01*
X110872585Y-87455009D01*
X110827206Y-87352235D01*
X110747765Y-87272794D01*
X110715381Y-87258495D01*
X110644992Y-87227415D01*
X110619865Y-87224500D01*
X107980143Y-87224500D01*
X107980117Y-87224502D01*
X107955012Y-87227413D01*
X107955008Y-87227415D01*
X107852235Y-87272793D01*
X107772794Y-87352234D01*
X107727415Y-87455006D01*
X107727415Y-87455008D01*
X107724500Y-87480131D01*
X107724500Y-90119856D01*
X107115003Y-90119856D01*
X107074536Y-90022159D01*
X106978282Y-89896718D01*
X106852841Y-89800464D01*
X106706762Y-89739956D01*
X106706760Y-89739955D01*
X106550001Y-89719318D01*
X106549999Y-89719318D01*
X106393239Y-89739955D01*
X106393237Y-89739956D01*
X106247160Y-89800463D01*
X106121718Y-89896718D01*
X106025463Y-90022160D01*
X105964956Y-90168237D01*
X105964955Y-90168239D01*
X105944318Y-90324998D01*
X105944318Y-90325001D01*
X105964955Y-90481760D01*
X105964957Y-90481765D01*
X106013242Y-90598337D01*
X106020711Y-90667806D01*
X105997057Y-90721275D01*
X105900464Y-90847157D01*
X105839956Y-90993237D01*
X105839955Y-90993239D01*
X105819318Y-91149998D01*
X105819318Y-91150001D01*
X103463795Y-91150001D01*
X103485300Y-91079109D01*
X103505583Y-90873175D01*
X103485300Y-90667241D01*
X103425232Y-90469221D01*
X103327685Y-90286725D01*
X103245648Y-90186762D01*
X103196410Y-90126764D01*
X103036452Y-89995492D01*
X103036453Y-89995492D01*
X103036450Y-89995490D01*
X102853954Y-89897943D01*
X102655934Y-89837875D01*
X102655932Y-89837874D01*
X102655934Y-89837874D01*
X102468463Y-89819410D01*
X102450000Y-89817592D01*
X102449999Y-89817592D01*
X102244067Y-89837874D01*
X102068692Y-89891073D01*
X102050085Y-89896718D01*
X102046043Y-89897944D01*
X101984796Y-89930682D01*
X101863550Y-89995490D01*
X101863548Y-89995491D01*
X101863547Y-89995492D01*
X101703589Y-90126764D01*
X101572317Y-90286722D01*
X101572315Y-90286725D01*
X101551856Y-90325001D01*
X101474769Y-90469218D01*
X101414699Y-90667242D01*
X101394417Y-90873174D01*
X101125000Y-90873174D01*
X101125000Y-88333174D01*
X101394417Y-88333174D01*
X101414699Y-88539107D01*
X101438431Y-88617341D01*
X101449351Y-88653341D01*
X101474769Y-88737131D01*
X101476279Y-88739956D01*
X101572315Y-88919625D01*
X101602316Y-88956182D01*
X101703589Y-89079585D01*
X101782468Y-89144318D01*
X101863550Y-89210860D01*
X102046046Y-89308407D01*
X102244066Y-89368475D01*
X102244065Y-89368475D01*
X102264347Y-89370472D01*
X102450000Y-89388758D01*
X102655934Y-89368475D01*
X102853954Y-89308407D01*
X103036450Y-89210860D01*
X103196410Y-89079585D01*
X103327685Y-88919625D01*
X103425232Y-88737129D01*
X103485300Y-88539109D01*
X103505583Y-88333175D01*
X103485300Y-88127241D01*
X103425232Y-87929221D01*
X103327685Y-87746725D01*
X103275702Y-87683384D01*
X103196410Y-87586764D01*
X103066458Y-87480117D01*
X103036450Y-87455490D01*
X102853954Y-87357943D01*
X102655934Y-87297875D01*
X102655932Y-87297874D01*
X102655934Y-87297874D01*
X102450000Y-87277592D01*
X102244067Y-87297874D01*
X102046043Y-87357944D01*
X101935898Y-87416818D01*
X101863550Y-87455490D01*
X101863548Y-87455491D01*
X101863547Y-87455492D01*
X101703589Y-87586764D01*
X101583055Y-87733638D01*
X101572315Y-87746725D01*
X101545281Y-87797302D01*
X101474769Y-87929218D01*
X101414699Y-88127242D01*
X101394417Y-88333174D01*
X101125000Y-88333174D01*
X101125000Y-84427833D01*
X101144685Y-84360794D01*
X101197489Y-84315039D01*
X101266647Y-84305095D01*
X101313428Y-84321885D01*
X101504433Y-84438038D01*
X101703396Y-84524459D01*
X101761725Y-84549795D01*
X101909561Y-84591217D01*
X101974071Y-84609292D01*
X102033314Y-84646334D01*
X102063125Y-84709525D01*
X102054041Y-84778801D01*
X102008945Y-84832169D01*
X101999070Y-84838052D01*
X101952889Y-84862737D01*
X101863550Y-84910490D01*
X101863548Y-84910491D01*
X101863547Y-84910492D01*
X101703589Y-85041764D01*
X101572317Y-85201722D01*
X101572315Y-85201725D01*
X101546349Y-85250304D01*
X101474769Y-85384218D01*
X101414699Y-85582242D01*
X101394417Y-85788175D01*
X101414699Y-85994107D01*
X101442774Y-86086658D01*
X101474768Y-86192129D01*
X101572315Y-86374625D01*
X101572317Y-86374627D01*
X101703589Y-86534585D01*
X101726372Y-86553282D01*
X101863550Y-86665860D01*
X102046046Y-86763407D01*
X102244066Y-86823475D01*
X102244065Y-86823475D01*
X102262529Y-86825293D01*
X102450000Y-86843758D01*
X102655934Y-86823475D01*
X102853954Y-86763407D01*
X103036450Y-86665860D01*
X103196410Y-86534585D01*
X103327685Y-86374625D01*
X103425232Y-86192129D01*
X103485300Y-85994109D01*
X103505583Y-85788175D01*
X103485300Y-85582241D01*
X103425232Y-85384221D01*
X103327685Y-85201725D01*
X103263639Y-85123684D01*
X103196410Y-85041764D01*
X103050625Y-84922123D01*
X103036450Y-84910490D01*
X102900928Y-84838051D01*
X102851085Y-84789089D01*
X102835625Y-84720951D01*
X102859457Y-84655272D01*
X102915015Y-84612903D01*
X102925921Y-84609294D01*
X103138275Y-84549795D01*
X103395568Y-84438037D01*
X103635246Y-84292286D01*
X103852845Y-84115256D01*
X104044312Y-83910244D01*
X104206081Y-83681071D01*
X104309898Y-83480713D01*
X121315000Y-83480713D01*
X121330418Y-83632338D01*
X121391299Y-83826381D01*
X121391304Y-83826391D01*
X121490005Y-84004215D01*
X121490005Y-84004216D01*
X121622478Y-84158530D01*
X121622479Y-84158531D01*
X121783304Y-84283018D01*
X121965907Y-84372589D01*
X122065000Y-84398244D01*
X122065000Y-83834978D01*
X122084685Y-83767939D01*
X122137489Y-83722184D01*
X122206647Y-83712240D01*
X122222926Y-83715709D01*
X122286840Y-83733895D01*
X122398521Y-83723546D01*
X122398526Y-83723543D01*
X122407063Y-83721115D01*
X122476930Y-83721701D01*
X122535390Y-83759966D01*
X122563881Y-83823763D01*
X122565000Y-83840381D01*
X122565000Y-84403365D01*
X122566944Y-84403069D01*
X122566945Y-84403069D01*
X122757660Y-84332436D01*
X122757664Y-84332434D01*
X122930267Y-84224850D01*
X123077668Y-84084735D01*
X123077669Y-84084733D01*
X123193856Y-83917804D01*
X123274059Y-83730907D01*
X123315000Y-83531690D01*
X123315000Y-83010384D01*
X123334685Y-82943345D01*
X123387489Y-82897590D01*
X123456647Y-82887646D01*
X123486454Y-82895823D01*
X123594764Y-82940687D01*
X123707280Y-82955500D01*
X123707287Y-82955500D01*
X123782713Y-82955500D01*
X123782720Y-82955500D01*
X123895236Y-82940687D01*
X124035233Y-82882698D01*
X124155451Y-82790451D01*
X124247698Y-82670233D01*
X124305687Y-82530236D01*
X124325466Y-82380000D01*
X128944533Y-82380000D01*
X128964312Y-82530234D01*
X128964313Y-82530236D01*
X129013790Y-82649685D01*
X129022302Y-82670233D01*
X129114549Y-82790451D01*
X129234767Y-82882698D01*
X129374764Y-82940687D01*
X129487280Y-82955500D01*
X129487287Y-82955500D01*
X129562713Y-82955500D01*
X129562720Y-82955500D01*
X129675236Y-82940687D01*
X129783546Y-82895823D01*
X129853017Y-82888354D01*
X129915496Y-82919629D01*
X129951148Y-82979718D01*
X129955000Y-83010384D01*
X129955000Y-83480713D01*
X129970418Y-83632338D01*
X130031299Y-83826381D01*
X130031304Y-83826391D01*
X130130005Y-84004215D01*
X130130005Y-84004216D01*
X130262478Y-84158530D01*
X130262479Y-84158531D01*
X130423304Y-84283018D01*
X130611550Y-84375357D01*
X130610909Y-84376661D01*
X130661015Y-84413990D01*
X130685583Y-84479398D01*
X130678335Y-84524459D01*
X130679929Y-84524886D01*
X130677824Y-84532738D01*
X130657187Y-84689497D01*
X130657187Y-84689500D01*
X130677824Y-84846259D01*
X130677825Y-84846261D01*
X130706776Y-84916156D01*
X130738333Y-84992340D01*
X130834587Y-85117781D01*
X130960028Y-85214035D01*
X131106107Y-85274543D01*
X131196022Y-85286380D01*
X131212334Y-85288528D01*
X131276231Y-85316794D01*
X131310531Y-85368796D01*
X131311846Y-85368252D01*
X131314670Y-85375071D01*
X131314702Y-85375119D01*
X131314728Y-85375210D01*
X131314955Y-85375760D01*
X131314956Y-85375761D01*
X131375464Y-85521840D01*
X131471718Y-85647281D01*
X131597159Y-85743535D01*
X131743238Y-85804043D01*
X131821619Y-85814361D01*
X131899999Y-85824681D01*
X131900000Y-85824681D01*
X131900001Y-85824681D01*
X131952254Y-85817801D01*
X132056762Y-85804043D01*
X132202841Y-85743535D01*
X132328282Y-85647281D01*
X132424536Y-85521840D01*
X132485044Y-85375761D01*
X132505682Y-85218999D01*
X132505028Y-85214035D01*
X132485044Y-85062238D01*
X132485044Y-85062237D01*
X132424536Y-84916158D01*
X132424535Y-84916157D01*
X132424535Y-84916156D01*
X132389387Y-84870351D01*
X132328963Y-84791604D01*
X132303769Y-84726438D01*
X132317807Y-84657993D01*
X132351851Y-84617746D01*
X132403282Y-84578282D01*
X132468075Y-84493842D01*
X136603947Y-84493842D01*
X136624584Y-84650601D01*
X136624585Y-84650603D01*
X136666947Y-84752875D01*
X136685093Y-84796682D01*
X136781347Y-84922123D01*
X136906788Y-85018377D01*
X137012678Y-85062238D01*
X137055180Y-85079843D01*
X137109583Y-85123684D01*
X137127011Y-85168756D01*
X137128305Y-85168410D01*
X137130407Y-85176257D01*
X137177444Y-85289813D01*
X137190917Y-85322340D01*
X137287171Y-85447781D01*
X137412612Y-85544035D01*
X137558691Y-85604543D01*
X137637072Y-85614861D01*
X137715452Y-85625181D01*
X137715453Y-85625181D01*
X137715454Y-85625181D01*
X137767707Y-85618301D01*
X137872215Y-85604543D01*
X138018294Y-85544035D01*
X138143735Y-85447781D01*
X138239989Y-85322340D01*
X138300497Y-85176261D01*
X138321135Y-85019499D01*
X138320987Y-85018377D01*
X138300497Y-84862738D01*
X138300497Y-84862737D01*
X138239989Y-84716658D01*
X138143735Y-84591217D01*
X138135794Y-84585124D01*
X138094592Y-84528698D01*
X138090437Y-84458953D01*
X138124648Y-84398032D01*
X138134876Y-84389169D01*
X138135260Y-84388785D01*
X138135260Y-84388784D01*
X138135265Y-84388781D01*
X138231519Y-84263340D01*
X138292027Y-84117261D01*
X138312665Y-83960499D01*
X138306049Y-83910249D01*
X138292027Y-83803738D01*
X138292027Y-83803737D01*
X138231519Y-83657658D01*
X138135265Y-83532217D01*
X138009824Y-83435963D01*
X138002523Y-83432939D01*
X137863745Y-83375455D01*
X137863743Y-83375454D01*
X137706984Y-83354817D01*
X137706982Y-83354817D01*
X137550222Y-83375454D01*
X137550220Y-83375455D01*
X137404143Y-83435962D01*
X137278701Y-83532217D01*
X137182446Y-83657659D01*
X137121939Y-83803737D01*
X137120638Y-83813619D01*
X137092370Y-83877515D01*
X137045152Y-83911992D01*
X136906789Y-83969304D01*
X136781347Y-84065559D01*
X136685092Y-84191001D01*
X136624585Y-84337078D01*
X136624584Y-84337080D01*
X136603947Y-84493839D01*
X136603947Y-84493842D01*
X132468075Y-84493842D01*
X132499536Y-84452841D01*
X132560044Y-84306762D01*
X132580682Y-84150000D01*
X132572089Y-84084733D01*
X132560044Y-83993239D01*
X132560044Y-83993238D01*
X132499536Y-83847159D01*
X132403282Y-83721718D01*
X132277841Y-83625464D01*
X132131762Y-83564956D01*
X132121345Y-83563584D01*
X132062813Y-83555878D01*
X131998917Y-83527610D01*
X131960446Y-83469285D01*
X131955000Y-83432939D01*
X131955000Y-83130000D01*
X131379000Y-83130000D01*
X131311961Y-83110315D01*
X131266206Y-83057511D01*
X131255000Y-83006000D01*
X131255000Y-82754000D01*
X131274685Y-82686961D01*
X131327489Y-82641206D01*
X131379000Y-82630000D01*
X131955000Y-82630000D01*
X131955000Y-82279286D01*
X131939581Y-82127661D01*
X131878700Y-81933618D01*
X131878695Y-81933608D01*
X131779994Y-81755784D01*
X131779994Y-81755783D01*
X131647521Y-81601469D01*
X131647520Y-81601468D01*
X131486695Y-81476981D01*
X131304093Y-81387411D01*
X131205000Y-81361753D01*
X131205000Y-81925021D01*
X131185315Y-81992060D01*
X131132511Y-82037815D01*
X131063353Y-82047759D01*
X131047066Y-82044287D01*
X130983162Y-82026105D01*
X130983162Y-82026104D01*
X130871475Y-82036454D01*
X130862931Y-82038885D01*
X130793064Y-82038297D01*
X130734606Y-82000028D01*
X130706118Y-81936230D01*
X130705000Y-81919618D01*
X130704999Y-81356633D01*
X130703053Y-81356931D01*
X130703047Y-81356933D01*
X130512342Y-81427562D01*
X130512335Y-81427565D01*
X130339732Y-81535149D01*
X130192331Y-81675264D01*
X130192330Y-81675266D01*
X130076143Y-81842196D01*
X130063076Y-81872645D01*
X130018548Y-81926488D01*
X129951980Y-81947710D01*
X129884505Y-81929574D01*
X129873640Y-81922119D01*
X129815233Y-81877302D01*
X129815230Y-81877300D01*
X129724731Y-81839814D01*
X129675236Y-81819313D01*
X129661171Y-81817461D01*
X129562727Y-81804500D01*
X129562720Y-81804500D01*
X129487280Y-81804500D01*
X129487272Y-81804500D01*
X129374764Y-81819313D01*
X129374763Y-81819313D01*
X129234770Y-81877300D01*
X129234767Y-81877301D01*
X129234767Y-81877302D01*
X129114549Y-81969549D01*
X129046169Y-82058664D01*
X129022300Y-82089770D01*
X128964313Y-82229763D01*
X128964312Y-82229765D01*
X128944533Y-82379999D01*
X128944533Y-82380000D01*
X124325466Y-82380000D01*
X124305687Y-82229764D01*
X124247698Y-82089767D01*
X124155451Y-81969549D01*
X124035233Y-81877302D01*
X124035229Y-81877300D01*
X123950480Y-81842196D01*
X123895236Y-81819313D01*
X123881171Y-81817461D01*
X123782727Y-81804500D01*
X123782720Y-81804500D01*
X123707280Y-81804500D01*
X123707272Y-81804500D01*
X123594764Y-81819313D01*
X123594763Y-81819313D01*
X123454769Y-81877300D01*
X123454766Y-81877302D01*
X123395421Y-81922839D01*
X123330251Y-81948033D01*
X123261807Y-81933994D01*
X123211817Y-81885180D01*
X123211516Y-81884640D01*
X123139997Y-81755788D01*
X123139994Y-81755783D01*
X123007521Y-81601469D01*
X123007520Y-81601468D01*
X122846695Y-81476981D01*
X122664093Y-81387411D01*
X122565000Y-81361753D01*
X122565000Y-81925021D01*
X122545315Y-81992060D01*
X122492511Y-82037815D01*
X122423353Y-82047759D01*
X122407066Y-82044287D01*
X122343162Y-82026105D01*
X122343162Y-82026104D01*
X122231475Y-82036454D01*
X122222931Y-82038885D01*
X122153064Y-82038297D01*
X122094606Y-82000028D01*
X122066118Y-81936230D01*
X122065000Y-81919618D01*
X122064999Y-81356633D01*
X122063053Y-81356931D01*
X122063047Y-81356933D01*
X121872342Y-81427562D01*
X121872335Y-81427565D01*
X121699732Y-81535149D01*
X121552331Y-81675264D01*
X121552330Y-81675266D01*
X121436143Y-81842195D01*
X121355940Y-82029092D01*
X121315000Y-82228309D01*
X121315000Y-82630000D01*
X121891000Y-82630000D01*
X121958039Y-82649685D01*
X122003794Y-82702489D01*
X122015000Y-82754000D01*
X122015000Y-83006000D01*
X121995315Y-83073039D01*
X121942511Y-83118794D01*
X121891000Y-83130000D01*
X121315000Y-83130000D01*
X121315000Y-83480713D01*
X104309898Y-83480713D01*
X104335136Y-83432005D01*
X104429075Y-83167686D01*
X104429076Y-83167679D01*
X104429078Y-83167674D01*
X104473168Y-82955499D01*
X104486148Y-82893037D01*
X104505291Y-82613175D01*
X104486148Y-82333313D01*
X104462549Y-82219750D01*
X104429078Y-82058675D01*
X104429073Y-82058658D01*
X104403576Y-81986917D01*
X104335136Y-81794345D01*
X104206081Y-81545279D01*
X104044312Y-81316106D01*
X104044307Y-81316100D01*
X103963898Y-81230003D01*
X119234435Y-81230003D01*
X119254630Y-81409249D01*
X119254631Y-81409254D01*
X119314211Y-81579523D01*
X119328001Y-81601469D01*
X119410184Y-81732262D01*
X119537738Y-81859816D01*
X119565564Y-81877300D01*
X119636892Y-81922119D01*
X119690478Y-81955789D01*
X119729802Y-81969549D01*
X119860745Y-82015368D01*
X119860750Y-82015369D01*
X120039996Y-82035565D01*
X120040000Y-82035565D01*
X120040004Y-82035565D01*
X120219249Y-82015369D01*
X120219252Y-82015368D01*
X120219255Y-82015368D01*
X120389522Y-81955789D01*
X120542262Y-81859816D01*
X120669816Y-81732262D01*
X120765789Y-81579522D01*
X120825368Y-81409255D01*
X120825369Y-81409249D01*
X120845565Y-81230003D01*
X120845565Y-81229996D01*
X120825369Y-81050750D01*
X120825368Y-81050745D01*
X120765789Y-80880478D01*
X120669816Y-80727738D01*
X120542262Y-80600184D01*
X120482567Y-80562675D01*
X120389523Y-80504211D01*
X120219254Y-80444631D01*
X120219249Y-80444630D01*
X120040004Y-80424435D01*
X120039996Y-80424435D01*
X119860750Y-80444630D01*
X119860745Y-80444631D01*
X119690476Y-80504211D01*
X119537737Y-80600184D01*
X119410184Y-80727737D01*
X119314211Y-80880476D01*
X119254631Y-81050745D01*
X119254630Y-81050750D01*
X119234435Y-81229996D01*
X119234435Y-81230003D01*
X103963898Y-81230003D01*
X103852845Y-81111094D01*
X103635242Y-80934061D01*
X103395566Y-80788311D01*
X103138276Y-80676555D01*
X102868166Y-80600873D01*
X102868162Y-80600872D01*
X102868161Y-80600872D01*
X102729209Y-80581773D01*
X102590259Y-80562675D01*
X102590258Y-80562675D01*
X102309742Y-80562675D01*
X102309741Y-80562675D01*
X102031839Y-80600872D01*
X102031833Y-80600873D01*
X101761723Y-80676555D01*
X101504433Y-80788311D01*
X101313428Y-80904464D01*
X101245920Y-80922478D01*
X101179390Y-80901134D01*
X101134961Y-80847210D01*
X101125000Y-80798516D01*
X101125000Y-80356760D01*
X101125000Y-79688780D01*
X101144684Y-79621745D01*
X101197487Y-79575990D01*
X101266646Y-79566046D01*
X101313426Y-79582835D01*
X101474895Y-79681027D01*
X101551382Y-79727540D01*
X101738237Y-79808701D01*
X101814942Y-79842019D01*
X102091642Y-79919546D01*
X102341920Y-79953946D01*
X102376321Y-79958675D01*
X102376322Y-79958675D01*
X102663679Y-79958675D01*
X102694370Y-79954456D01*
X102948358Y-79919546D01*
X103225058Y-79842019D01*
X103338015Y-79792954D01*
X103488617Y-79727540D01*
X103488620Y-79727538D01*
X103488625Y-79727536D01*
X103734147Y-79578230D01*
X103957053Y-79396883D01*
X104153189Y-79186873D01*
X104318901Y-78952111D01*
X104397719Y-78800000D01*
X105240398Y-78800000D01*
X105260757Y-79006716D01*
X105321056Y-79205496D01*
X105418969Y-79388677D01*
X105418974Y-79388684D01*
X105550747Y-79549252D01*
X105630809Y-79614956D01*
X105711317Y-79681027D01*
X105711320Y-79681028D01*
X105711322Y-79681030D01*
X105894503Y-79778943D01*
X105894505Y-79778943D01*
X105894508Y-79778945D01*
X106093282Y-79839242D01*
X106300000Y-79859602D01*
X106506718Y-79839242D01*
X106705492Y-79778945D01*
X106707558Y-79777841D01*
X106888677Y-79681030D01*
X106888675Y-79681030D01*
X106888683Y-79681027D01*
X107049252Y-79549252D01*
X107181027Y-79388683D01*
X107278945Y-79205492D01*
X107339242Y-79006718D01*
X107359602Y-78800000D01*
X116240398Y-78800000D01*
X116260757Y-79006716D01*
X116321056Y-79205496D01*
X116418969Y-79388677D01*
X116418974Y-79388684D01*
X116550747Y-79549252D01*
X116630809Y-79614956D01*
X116711317Y-79681027D01*
X116711320Y-79681028D01*
X116711322Y-79681030D01*
X116894503Y-79778943D01*
X116894505Y-79778943D01*
X116894508Y-79778945D01*
X117093282Y-79839242D01*
X117300000Y-79859602D01*
X117506718Y-79839242D01*
X117705492Y-79778945D01*
X117707558Y-79777841D01*
X117888677Y-79681030D01*
X117888675Y-79681030D01*
X117888683Y-79681027D01*
X118049252Y-79549252D01*
X118181027Y-79388683D01*
X118278945Y-79205492D01*
X118325896Y-79050713D01*
X121315000Y-79050713D01*
X121330418Y-79202338D01*
X121391299Y-79396381D01*
X121391304Y-79396391D01*
X121490005Y-79574215D01*
X121490005Y-79574216D01*
X121622478Y-79728530D01*
X121622479Y-79728531D01*
X121783304Y-79853018D01*
X121965907Y-79942589D01*
X122065000Y-79968244D01*
X122065000Y-79404978D01*
X122084685Y-79337939D01*
X122137489Y-79292184D01*
X122206647Y-79282240D01*
X122222926Y-79285709D01*
X122286840Y-79303895D01*
X122398521Y-79293546D01*
X122398526Y-79293543D01*
X122407063Y-79291115D01*
X122476930Y-79291701D01*
X122535390Y-79329966D01*
X122563881Y-79393763D01*
X122565000Y-79410381D01*
X122565000Y-79973366D01*
X122566944Y-79973069D01*
X122566945Y-79973069D01*
X122757660Y-79902436D01*
X122757664Y-79902434D01*
X122930267Y-79794850D01*
X123077668Y-79654735D01*
X123077669Y-79654733D01*
X123193856Y-79487804D01*
X123274059Y-79300907D01*
X123315000Y-79101690D01*
X123315000Y-79050713D01*
X129955000Y-79050713D01*
X129970418Y-79202338D01*
X130031299Y-79396381D01*
X130031304Y-79396391D01*
X130130005Y-79574215D01*
X130130005Y-79574216D01*
X130262478Y-79728530D01*
X130262479Y-79728531D01*
X130423304Y-79853018D01*
X130605907Y-79942589D01*
X130705000Y-79968244D01*
X130705000Y-79404978D01*
X130724685Y-79337939D01*
X130777489Y-79292184D01*
X130846647Y-79282240D01*
X130862926Y-79285709D01*
X130926840Y-79303895D01*
X131038521Y-79293546D01*
X131038526Y-79293543D01*
X131047063Y-79291115D01*
X131116930Y-79291701D01*
X131175390Y-79329966D01*
X131203881Y-79393763D01*
X131205000Y-79410381D01*
X131205000Y-79973366D01*
X131206944Y-79973069D01*
X131206945Y-79973069D01*
X131397660Y-79902436D01*
X131397664Y-79902434D01*
X131508496Y-79833352D01*
X131575801Y-79814596D01*
X131642562Y-79835205D01*
X131687583Y-79888635D01*
X131696570Y-79957925D01*
X131688650Y-79986036D01*
X131664955Y-80043240D01*
X131644318Y-80199998D01*
X131644318Y-80200001D01*
X131664955Y-80356760D01*
X131664956Y-80356762D01*
X131701352Y-80444631D01*
X131725464Y-80502841D01*
X131821718Y-80628282D01*
X131947159Y-80724536D01*
X132093238Y-80785044D01*
X132118069Y-80788313D01*
X132249999Y-80805682D01*
X132250000Y-80805682D01*
X132250001Y-80805682D01*
X132304431Y-80798516D01*
X132406762Y-80785044D01*
X132552841Y-80724536D01*
X132678282Y-80628282D01*
X132774536Y-80502841D01*
X132835044Y-80356762D01*
X132855682Y-80200000D01*
X132835044Y-80043238D01*
X132774536Y-79897159D01*
X132678282Y-79771718D01*
X132552841Y-79675464D01*
X132406762Y-79614956D01*
X132406760Y-79614955D01*
X132250001Y-79594318D01*
X132249999Y-79594318D01*
X132093239Y-79614955D01*
X132093237Y-79614956D01*
X131993029Y-79656464D01*
X131923559Y-79663933D01*
X131861080Y-79632658D01*
X131825428Y-79572569D01*
X131827922Y-79502744D01*
X131831625Y-79493003D01*
X131839350Y-79475001D01*
X137819318Y-79475001D01*
X137839955Y-79631760D01*
X137839956Y-79631762D01*
X137879628Y-79727540D01*
X137900464Y-79777841D01*
X137996718Y-79903282D01*
X138122159Y-79999536D01*
X138268238Y-80060044D01*
X138346619Y-80070363D01*
X138424999Y-80080682D01*
X138425000Y-80080682D01*
X138425001Y-80080682D01*
X138477253Y-80073802D01*
X138581762Y-80060044D01*
X138727841Y-79999536D01*
X138853282Y-79903282D01*
X138949536Y-79777841D01*
X139010044Y-79631762D01*
X139023802Y-79527253D01*
X139030682Y-79475001D01*
X139030682Y-79474998D01*
X139010044Y-79318239D01*
X139010044Y-79318238D01*
X138949536Y-79172159D01*
X138853282Y-79046718D01*
X138727841Y-78950464D01*
X138699667Y-78938794D01*
X138581762Y-78889956D01*
X138581760Y-78889955D01*
X138425001Y-78869318D01*
X138424999Y-78869318D01*
X138268239Y-78889955D01*
X138268237Y-78889956D01*
X138122160Y-78950463D01*
X137996718Y-79046718D01*
X137900463Y-79172160D01*
X137839956Y-79318237D01*
X137839955Y-79318239D01*
X137819318Y-79474998D01*
X137819318Y-79475001D01*
X131839350Y-79475001D01*
X131914059Y-79300907D01*
X131955000Y-79101690D01*
X131955000Y-78950000D01*
X131379000Y-78950000D01*
X131311961Y-78930315D01*
X131266206Y-78877511D01*
X131255000Y-78826000D01*
X131255000Y-78574000D01*
X131274685Y-78506961D01*
X131327489Y-78461206D01*
X131379000Y-78450000D01*
X131955000Y-78450000D01*
X131955000Y-78349286D01*
X131939581Y-78197661D01*
X131878700Y-78003618D01*
X131878695Y-78003608D01*
X131779994Y-77825784D01*
X131779994Y-77825783D01*
X131647521Y-77671469D01*
X131647520Y-77671468D01*
X131486695Y-77546981D01*
X131304093Y-77457411D01*
X131205000Y-77431753D01*
X131205000Y-77995021D01*
X131185315Y-78062060D01*
X131132511Y-78107815D01*
X131063353Y-78117759D01*
X131047066Y-78114287D01*
X130983162Y-78096105D01*
X130983162Y-78096104D01*
X130871475Y-78106454D01*
X130862931Y-78108885D01*
X130793064Y-78108297D01*
X130734606Y-78070028D01*
X130706118Y-78006230D01*
X130705000Y-77989618D01*
X130704999Y-77426633D01*
X130703053Y-77426931D01*
X130703047Y-77426933D01*
X130512342Y-77497562D01*
X130512335Y-77497565D01*
X130339732Y-77605149D01*
X130192331Y-77745264D01*
X130192330Y-77745266D01*
X130076143Y-77912195D01*
X129995940Y-78099092D01*
X129955000Y-78298309D01*
X129955000Y-78450000D01*
X130531000Y-78450000D01*
X130598039Y-78469685D01*
X130643794Y-78522489D01*
X130655000Y-78574000D01*
X130655000Y-78826000D01*
X130635315Y-78893039D01*
X130582511Y-78938794D01*
X130531000Y-78950000D01*
X129955000Y-78950000D01*
X129955000Y-79050713D01*
X123315000Y-79050713D01*
X123315000Y-78950000D01*
X122739000Y-78950000D01*
X122671961Y-78930315D01*
X122626206Y-78877511D01*
X122615000Y-78826000D01*
X122615000Y-78574000D01*
X122634685Y-78506961D01*
X122687489Y-78461206D01*
X122739000Y-78450000D01*
X123315000Y-78450000D01*
X123315000Y-78349286D01*
X123299581Y-78197661D01*
X123238700Y-78003618D01*
X123238695Y-78003608D01*
X123139994Y-77825784D01*
X123139994Y-77825783D01*
X123007521Y-77671469D01*
X123007520Y-77671468D01*
X122846695Y-77546981D01*
X122664093Y-77457411D01*
X122565000Y-77431753D01*
X122565000Y-77995021D01*
X122545315Y-78062060D01*
X122492511Y-78107815D01*
X122423353Y-78117759D01*
X122407066Y-78114287D01*
X122343162Y-78096105D01*
X122343162Y-78096104D01*
X122231475Y-78106454D01*
X122222931Y-78108885D01*
X122153064Y-78108297D01*
X122094606Y-78070028D01*
X122066118Y-78006230D01*
X122065000Y-77989618D01*
X122064999Y-77426633D01*
X122063053Y-77426931D01*
X122063047Y-77426933D01*
X121872342Y-77497562D01*
X121872335Y-77497565D01*
X121699732Y-77605149D01*
X121552331Y-77745264D01*
X121552330Y-77745266D01*
X121436143Y-77912195D01*
X121355940Y-78099092D01*
X121315000Y-78298309D01*
X121315000Y-78450000D01*
X121891000Y-78450000D01*
X121958039Y-78469685D01*
X122003794Y-78522489D01*
X122015000Y-78574000D01*
X122015000Y-78826000D01*
X121995315Y-78893039D01*
X121942511Y-78938794D01*
X121891000Y-78950000D01*
X121315000Y-78950000D01*
X121315000Y-79050713D01*
X118325896Y-79050713D01*
X118339242Y-79006718D01*
X118359602Y-78800000D01*
X118339242Y-78593282D01*
X118278945Y-78394508D01*
X118278943Y-78394505D01*
X118278943Y-78394503D01*
X118181030Y-78211322D01*
X118181028Y-78211320D01*
X118181027Y-78211317D01*
X118111665Y-78126799D01*
X118049252Y-78050747D01*
X117888684Y-77918974D01*
X117888677Y-77918969D01*
X117705496Y-77821056D01*
X117506716Y-77760757D01*
X117322583Y-77742622D01*
X117300000Y-77740398D01*
X117299999Y-77740398D01*
X117093283Y-77760757D01*
X116894503Y-77821056D01*
X116711322Y-77918969D01*
X116711315Y-77918974D01*
X116550747Y-78050747D01*
X116418974Y-78211315D01*
X116418969Y-78211322D01*
X116321056Y-78394503D01*
X116260757Y-78593283D01*
X116240398Y-78800000D01*
X107359602Y-78800000D01*
X107339242Y-78593282D01*
X107278945Y-78394508D01*
X107278943Y-78394505D01*
X107278943Y-78394503D01*
X107181030Y-78211322D01*
X107181028Y-78211320D01*
X107181027Y-78211317D01*
X107111665Y-78126799D01*
X107049252Y-78050747D01*
X106888684Y-77918974D01*
X106888677Y-77918969D01*
X106705496Y-77821056D01*
X106506716Y-77760757D01*
X106300000Y-77740398D01*
X106093283Y-77760757D01*
X105894503Y-77821056D01*
X105711322Y-77918969D01*
X105711315Y-77918974D01*
X105550747Y-78050747D01*
X105418974Y-78211315D01*
X105418969Y-78211322D01*
X105321056Y-78394503D01*
X105260757Y-78593283D01*
X105240398Y-78800000D01*
X104397719Y-78800000D01*
X104451104Y-78696972D01*
X104547334Y-78426207D01*
X104605798Y-78144861D01*
X104625408Y-77858175D01*
X104605798Y-77571489D01*
X104547334Y-77290143D01*
X104451105Y-77019381D01*
X104451106Y-77019381D01*
X104318901Y-76764239D01*
X104153187Y-76529474D01*
X104041740Y-76410145D01*
X103970284Y-76333634D01*
X103938914Y-76271207D01*
X103946274Y-76201726D01*
X103990031Y-76147254D01*
X104056290Y-76125086D01*
X104060909Y-76125000D01*
X138946951Y-76125000D01*
X138953032Y-76125299D01*
G37*
%TD.AperFunction*%
%TA.AperFunction,Conductor*%
G36*
X102005828Y-108846305D02*
G01*
X102059443Y-108885175D01*
X102140464Y-108986774D01*
X102140466Y-108986775D01*
X102212723Y-109036040D01*
X102257025Y-109090069D01*
X102265083Y-109159472D01*
X102234340Y-109222215D01*
X102230552Y-109226174D01*
X101760426Y-109696299D01*
X101761145Y-109704507D01*
X101790782Y-109741585D01*
X101797974Y-109811084D01*
X101766452Y-109873438D01*
X101725435Y-109902317D01*
X101504433Y-109998311D01*
X101313428Y-110114464D01*
X101245920Y-110132478D01*
X101179390Y-110111134D01*
X101134961Y-110057210D01*
X101125000Y-110008516D01*
X101125000Y-109328783D01*
X101144685Y-109261744D01*
X101197489Y-109215989D01*
X101266647Y-109206045D01*
X101330203Y-109235070D01*
X101361383Y-109276380D01*
X101363335Y-109280567D01*
X101406873Y-109342746D01*
X101406874Y-109342747D01*
X101874814Y-108874806D01*
X101936137Y-108841321D01*
X102005828Y-108846305D01*
G37*
%TD.AperFunction*%
%TD*%
M02*
