%TF.GenerationSoftware,KiCad,Pcbnew,7.0.7*%
%TF.CreationDate,2023-08-17T16:49:06-04:00*%
%TF.ProjectId,eOPRA_interface,654f5052-415f-4696-9e74-657266616365,rev?*%
%TF.SameCoordinates,Original*%
%TF.FileFunction,Copper,L1,Top*%
%TF.FilePolarity,Positive*%
%FSLAX46Y46*%
G04 Gerber Fmt 4.6, Leading zero omitted, Abs format (unit mm)*
G04 Created by KiCad (PCBNEW 7.0.7) date 2023-08-17 16:49:06*
%MOMM*%
%LPD*%
G01*
G04 APERTURE LIST*
G04 Aperture macros list*
%AMRoundRect*
0 Rectangle with rounded corners*
0 $1 Rounding radius*
0 $2 $3 $4 $5 $6 $7 $8 $9 X,Y pos of 4 corners*
0 Add a 4 corners polygon primitive as box body*
4,1,4,$2,$3,$4,$5,$6,$7,$8,$9,$2,$3,0*
0 Add four circle primitives for the rounded corners*
1,1,$1+$1,$2,$3*
1,1,$1+$1,$4,$5*
1,1,$1+$1,$6,$7*
1,1,$1+$1,$8,$9*
0 Add four rect primitives between the rounded corners*
20,1,$1+$1,$2,$3,$4,$5,0*
20,1,$1+$1,$4,$5,$6,$7,0*
20,1,$1+$1,$6,$7,$8,$9,0*
20,1,$1+$1,$8,$9,$2,$3,0*%
G04 Aperture macros list end*
%TA.AperFunction,SMDPad,CuDef*%
%ADD10R,0.600000X0.500000*%
%TD*%
%TA.AperFunction,SMDPad,CuDef*%
%ADD11R,1.400000X1.100000*%
%TD*%
%TA.AperFunction,SMDPad,CuDef*%
%ADD12R,1.100000X1.400000*%
%TD*%
%TA.AperFunction,SMDPad,CuDef*%
%ADD13R,2.000000X1.200000*%
%TD*%
%TA.AperFunction,SMDPad,CuDef*%
%ADD14R,1.100000X1.700000*%
%TD*%
%TA.AperFunction,SMDPad,CuDef*%
%ADD15RoundRect,0.187500X0.312500X0.187500X-0.312500X0.187500X-0.312500X-0.187500X0.312500X-0.187500X0*%
%TD*%
%TA.AperFunction,SMDPad,CuDef*%
%ADD16R,0.800000X0.900000*%
%TD*%
%TA.AperFunction,SMDPad,CuDef*%
%ADD17R,1.200000X0.800000*%
%TD*%
%TA.AperFunction,ComponentPad*%
%ADD18C,1.508000*%
%TD*%
%TA.AperFunction,ComponentPad*%
%ADD19C,2.550000*%
%TD*%
%TA.AperFunction,ComponentPad*%
%ADD20R,2.550000X2.550000*%
%TD*%
%TA.AperFunction,SMDPad,CuDef*%
%ADD21RoundRect,0.175000X-0.425000X0.175000X-0.425000X-0.175000X0.425000X-0.175000X0.425000X0.175000X0*%
%TD*%
%TA.AperFunction,ComponentPad*%
%ADD22C,1.200000*%
%TD*%
%TA.AperFunction,SMDPad,CuDef*%
%ADD23R,0.600000X0.800000*%
%TD*%
%TA.AperFunction,ComponentPad*%
%ADD24C,3.600000*%
%TD*%
%TA.AperFunction,SMDPad,CuDef*%
%ADD25RoundRect,0.006000X-0.431500X-0.094000X0.431500X-0.094000X0.431500X0.094000X-0.431500X0.094000X0*%
%TD*%
%TA.AperFunction,SMDPad,CuDef*%
%ADD26RoundRect,0.020000X-0.080000X-0.417500X0.080000X-0.417500X0.080000X0.417500X-0.080000X0.417500X0*%
%TD*%
%TA.AperFunction,SMDPad,CuDef*%
%ADD27R,3.200000X3.200000*%
%TD*%
%TA.AperFunction,SMDPad,CuDef*%
%ADD28RoundRect,0.150000X0.150000X-0.825000X0.150000X0.825000X-0.150000X0.825000X-0.150000X-0.825000X0*%
%TD*%
%TA.AperFunction,SMDPad,CuDef*%
%ADD29R,3.750000X4.000000*%
%TD*%
%TA.AperFunction,SMDPad,CuDef*%
%ADD30R,2.500000X3.200000*%
%TD*%
%TA.AperFunction,ComponentPad*%
%ADD31C,3.000000*%
%TD*%
%TA.AperFunction,ComponentPad*%
%ADD32RoundRect,0.750000X0.750000X1.000000X-0.750000X1.000000X-0.750000X-1.000000X0.750000X-1.000000X0*%
%TD*%
%TA.AperFunction,SMDPad,CuDef*%
%ADD33R,1.300000X2.200000*%
%TD*%
%TA.AperFunction,SMDPad,CuDef*%
%ADD34R,1.300000X2.400000*%
%TD*%
%TA.AperFunction,SMDPad,CuDef*%
%ADD35RoundRect,0.175000X0.425000X-0.175000X0.425000X0.175000X-0.425000X0.175000X-0.425000X-0.175000X0*%
%TD*%
%TA.AperFunction,SMDPad,CuDef*%
%ADD36R,1.100000X1.100000*%
%TD*%
%TA.AperFunction,SMDPad,CuDef*%
%ADD37R,1.000000X2.700000*%
%TD*%
%TA.AperFunction,SMDPad,CuDef*%
%ADD38R,0.600000X1.700000*%
%TD*%
%TA.AperFunction,SMDPad,CuDef*%
%ADD39RoundRect,0.150000X0.250000X-0.150000X0.250000X0.150000X-0.250000X0.150000X-0.250000X-0.150000X0*%
%TD*%
%TA.AperFunction,SMDPad,CuDef*%
%ADD40RoundRect,0.150000X-0.250000X0.150000X-0.250000X-0.150000X0.250000X-0.150000X0.250000X0.150000X0*%
%TD*%
%TA.AperFunction,SMDPad,CuDef*%
%ADD41R,0.300000X1.150000*%
%TD*%
%TA.AperFunction,ComponentPad*%
%ADD42O,1.000000X2.100000*%
%TD*%
%TA.AperFunction,ComponentPad*%
%ADD43O,1.000000X1.600000*%
%TD*%
%TA.AperFunction,SMDPad,CuDef*%
%ADD44R,0.800000X0.600000*%
%TD*%
%TA.AperFunction,SMDPad,CuDef*%
%ADD45RoundRect,0.150000X0.150000X0.250000X-0.150000X0.250000X-0.150000X-0.250000X0.150000X-0.250000X0*%
%TD*%
%TA.AperFunction,SMDPad,CuDef*%
%ADD46C,0.500000*%
%TD*%
%TA.AperFunction,SMDPad,CuDef*%
%ADD47R,0.500000X0.600000*%
%TD*%
%TA.AperFunction,SMDPad,CuDef*%
%ADD48RoundRect,0.150000X-0.150000X-0.250000X0.150000X-0.250000X0.150000X0.250000X-0.150000X0.250000X0*%
%TD*%
%TA.AperFunction,SMDPad,CuDef*%
%ADD49R,0.650000X1.220000*%
%TD*%
%TA.AperFunction,SMDPad,CuDef*%
%ADD50RoundRect,0.083000X-0.332000X0.479500X-0.332000X-0.479500X0.332000X-0.479500X0.332000X0.479500X0*%
%TD*%
%TA.AperFunction,SMDPad,CuDef*%
%ADD51R,1.800000X0.850000*%
%TD*%
%TA.AperFunction,SMDPad,CuDef*%
%ADD52R,1.600000X0.600000*%
%TD*%
%TA.AperFunction,SMDPad,CuDef*%
%ADD53RoundRect,0.175000X0.175000X0.425000X-0.175000X0.425000X-0.175000X-0.425000X0.175000X-0.425000X0*%
%TD*%
%TA.AperFunction,SMDPad,CuDef*%
%ADD54R,0.520000X0.830000*%
%TD*%
%TA.AperFunction,SMDPad,CuDef*%
%ADD55R,2.150000X1.150000*%
%TD*%
%TA.AperFunction,SMDPad,CuDef*%
%ADD56O,0.850000X0.300000*%
%TD*%
%TA.AperFunction,SMDPad,CuDef*%
%ADD57O,0.300000X0.850000*%
%TD*%
%TA.AperFunction,SMDPad,CuDef*%
%ADD58RoundRect,0.150000X-0.150000X0.825000X-0.150000X-0.825000X0.150000X-0.825000X0.150000X0.825000X0*%
%TD*%
%TA.AperFunction,ComponentPad*%
%ADD59C,1.524000*%
%TD*%
%TA.AperFunction,SMDPad,CuDef*%
%ADD60R,4.000000X3.400000*%
%TD*%
%TA.AperFunction,SMDPad,CuDef*%
%ADD61RoundRect,0.125000X0.125000X-0.262500X0.125000X0.262500X-0.125000X0.262500X-0.125000X-0.262500X0*%
%TD*%
%TA.AperFunction,SMDPad,CuDef*%
%ADD62R,1.000000X0.370000*%
%TD*%
%TA.AperFunction,SMDPad,CuDef*%
%ADD63R,0.370000X1.000000*%
%TD*%
%TA.AperFunction,SMDPad,CuDef*%
%ADD64R,4.250000X4.250000*%
%TD*%
%TA.AperFunction,SMDPad,CuDef*%
%ADD65R,0.760000X2.600000*%
%TD*%
%TA.AperFunction,ComponentPad*%
%ADD66C,3.500000*%
%TD*%
%TA.AperFunction,ComponentPad*%
%ADD67C,1.500000*%
%TD*%
%TA.AperFunction,ViaPad*%
%ADD68C,0.600000*%
%TD*%
%TA.AperFunction,ViaPad*%
%ADD69C,1.000000*%
%TD*%
%TA.AperFunction,Conductor*%
%ADD70C,0.200000*%
%TD*%
%TA.AperFunction,Conductor*%
%ADD71C,0.600000*%
%TD*%
%TA.AperFunction,Conductor*%
%ADD72C,0.500000*%
%TD*%
G04 APERTURE END LIST*
%TA.AperFunction,EtchedComponent*%
%TO.C,NT2*%
G36*
X151750000Y-80450000D02*
G01*
X150750000Y-80450000D01*
X150750000Y-79950000D01*
X151750000Y-79950000D01*
X151750000Y-80450000D01*
G37*
%TD.AperFunction*%
%TD*%
D10*
%TO.P,R24,1*%
%TO.N,/USB_D-*%
X128225000Y-89150000D03*
%TO.P,R24,2*%
%TO.N,Net-(U10-USB_D-)*%
X128225000Y-90250000D03*
%TD*%
%TO.P,R23,1*%
%TO.N,/USB_D+*%
X127150000Y-89150000D03*
%TO.P,R23,2*%
%TO.N,Net-(U10-USB_D+)*%
X127150000Y-90250000D03*
%TD*%
D11*
%TO.P,Y1,1,1*%
%TO.N,Net-(C21-Pad1)*%
X110400000Y-108900000D03*
%TO.P,Y1,2,2*%
%TO.N,GND*%
X108200000Y-108900000D03*
%TO.P,Y1,3,3*%
%TO.N,Net-(U13-OSC1)*%
X108200000Y-110500000D03*
%TO.P,Y1,4,4*%
%TO.N,GND*%
X110400000Y-110500000D03*
%TD*%
D12*
%TO.P,Y3,1,1*%
%TO.N,Net-(C5-Pad1)*%
X125885000Y-104485000D03*
%TO.P,Y3,2,2*%
%TO.N,GNDD*%
X125885000Y-102285000D03*
%TO.P,Y3,3,3*%
%TO.N,Net-(U10-XIN)*%
X124285000Y-102285000D03*
%TO.P,Y3,4,4*%
%TO.N,GNDD*%
X124285000Y-104485000D03*
%TD*%
D13*
%TO.P,U16,1,RESET*%
%TO.N,Net-(U16-RESET)*%
X149800000Y-123075000D03*
%TO.P,U16,2,ADC*%
%TO.N,unconnected-(U16-ADC-Pad2)*%
X149800000Y-121075000D03*
%TO.P,U16,3,EN*%
%TO.N,/ESP-Wifi/EN*%
X149800000Y-119075000D03*
%TO.P,U16,4,IO16*%
%TO.N,/ESP-Wifi/LED_STATIC*%
X149800000Y-117075000D03*
%TO.P,U16,5,IO14*%
%TO.N,/SCL1*%
X149800000Y-115075000D03*
%TO.P,U16,6,IO12*%
%TO.N,Net-(U16-IO12)*%
X149800000Y-113075000D03*
%TO.P,U16,7,IO13*%
%TO.N,Net-(U16-IO13)*%
X149800000Y-111075000D03*
%TO.P,U16,8,VCC*%
%TO.N,+3V3*%
X149800000Y-109075000D03*
D14*
%TO.P,U16,9,CS0*%
%TO.N,Net-(U16-CS0)*%
X147300000Y-107575000D03*
%TO.P,U16,10,MISO*%
%TO.N,Net-(U16-MISO)*%
X145300000Y-107575000D03*
%TO.P,U16,11,IO9*%
%TO.N,Net-(U16-IO9)*%
X143300000Y-107575000D03*
%TO.P,U16,12,IO10*%
%TO.N,Net-(U16-IO10)*%
X141300000Y-107575000D03*
%TO.P,U16,13,MOSI*%
%TO.N,Net-(U16-MOSI)*%
X139300000Y-107575000D03*
%TO.P,U16,14,SCLK*%
%TO.N,Net-(U16-SCLK)*%
X137300000Y-107575000D03*
D13*
%TO.P,U16,15,GND*%
%TO.N,GND*%
X134800000Y-109075000D03*
%TO.P,U16,16,IO15*%
%TO.N,unconnected-(U16-IO15-Pad16)*%
X134800000Y-111075000D03*
%TO.P,U16,17,IO2*%
%TO.N,/SDA1*%
X134800000Y-113075000D03*
%TO.P,U16,18,IO0*%
%TO.N,/ESP-Wifi/GPIO0*%
X134800000Y-115075000D03*
%TO.P,U16,19,IO4*%
%TO.N,/ESP-Wifi/ESP_INT*%
X134800000Y-117075000D03*
%TO.P,U16,20,IO5*%
%TO.N,Net-(U16-IO5)*%
X134800000Y-119075000D03*
%TO.P,U16,21,RXD*%
%TO.N,/RXD*%
X134800000Y-121075000D03*
%TO.P,U16,22,TXD*%
%TO.N,/TXD*%
X134800000Y-123075000D03*
%TD*%
D15*
%TO.P,SW3,1,1*%
%TO.N,/peripherals/~{TFT_RESET}*%
X111150000Y-123255000D03*
%TO.P,SW3,2,2*%
%TO.N,GND*%
X111150000Y-121105000D03*
%TO.P,SW3,3,3*%
%TO.N,/peripherals/~{TFT_RESET}*%
X106650000Y-123255000D03*
%TO.P,SW3,4,4*%
%TO.N,GND*%
X106650000Y-121105000D03*
%TD*%
%TO.P,SW6,1,1*%
%TO.N,/~{RESET}*%
X143650000Y-78330000D03*
%TO.P,SW6,2,2*%
%TO.N,GND*%
X143650000Y-76180000D03*
%TO.P,SW6,3,3*%
%TO.N,/~{RESET}*%
X139150000Y-78330000D03*
%TO.P,SW6,4,4*%
%TO.N,GND*%
X139150000Y-76180000D03*
%TD*%
%TO.P,SW2,1,1*%
%TO.N,Net-(D3-K)*%
X137400000Y-78330000D03*
%TO.P,SW2,2,2*%
%TO.N,GND*%
X137400000Y-76180000D03*
%TO.P,SW2,3,3*%
%TO.N,Net-(D3-K)*%
X132900000Y-78330000D03*
%TO.P,SW2,4,4*%
%TO.N,GND*%
X132900000Y-76180000D03*
%TD*%
D10*
%TO.P,C33,1*%
%TO.N,+3V3*%
X120300000Y-108475000D03*
%TO.P,C33,2*%
%TO.N,GND*%
X120300000Y-107375000D03*
%TD*%
D16*
%TO.P,D1,1,A1*%
%TO.N,/CAN_L*%
X115825000Y-101500000D03*
%TO.P,D1,2,A2*%
%TO.N,/CAN_H*%
X113925000Y-101500000D03*
%TO.P,D1,3,common*%
%TO.N,GND*%
X114875000Y-103500000D03*
%TD*%
D17*
%TO.P,Q30,1*%
%TO.N,SWITCHING_3V3*%
X140820000Y-89520000D03*
%TO.P,Q30,2*%
%TO.N,Net-(Q30-Pad2)*%
X140820000Y-92060000D03*
%TO.P,Q30,3*%
%TO.N,CHAN_5B_OUT*%
X146970000Y-92060000D03*
%TO.P,Q30,4*%
%TO.N,EMG_LOW*%
X146970000Y-89520000D03*
%TD*%
D18*
%TO.P,U5,*%
%TO.N,*%
X106300000Y-78800000D03*
X117300000Y-78800000D03*
D19*
%TO.P,U5,1,-*%
%TO.N,GND*%
X114300000Y-88800000D03*
D20*
%TO.P,U5,2,+*%
%TO.N,Net-(U5-+)*%
X109300000Y-88800000D03*
%TD*%
D17*
%TO.P,Q27,1*%
%TO.N,SWITCHING_3V3*%
X140837500Y-85525000D03*
%TO.P,Q27,2*%
%TO.N,Net-(Q27-Pad2)*%
X140837500Y-88065000D03*
%TO.P,Q27,3*%
%TO.N,CHAN_6B_OUT*%
X146987500Y-88065000D03*
%TO.P,Q27,4*%
%TO.N,EMG_LOW*%
X146987500Y-85525000D03*
%TD*%
D21*
%TO.P,C20,1*%
%TO.N,GND*%
X105625000Y-103200000D03*
%TO.P,C20,2*%
%TO.N,+5V*%
X105625000Y-105200000D03*
%TD*%
D22*
%TO.P,SW4,*%
%TO.N,*%
X172505000Y-82025000D03*
X172505000Y-76945000D03*
%TO.P,SW4,1,A*%
%TO.N,Net-(D10-K)*%
X167425000Y-82025000D03*
%TO.P,SW4,2,B*%
%TO.N,GNDREF*%
X167425000Y-76945000D03*
%TD*%
D10*
%TO.P,C22,1*%
%TO.N,GND*%
X106675000Y-109750000D03*
%TO.P,C22,2*%
%TO.N,Net-(U13-OSC1)*%
X106675000Y-110850000D03*
%TD*%
D23*
%TO.P,D3,1,K*%
%TO.N,Net-(D3-K)*%
X136425000Y-79775000D03*
%TO.P,D3,2,A*%
%TO.N,Net-(D3-A)*%
X134725000Y-79775000D03*
%TD*%
%TO.P,C32,1*%
%TO.N,GND*%
X134920000Y-93470000D03*
%TO.P,C32,2*%
%TO.N,+3V3*%
X136620000Y-93470000D03*
%TD*%
D24*
%TO.P,U7,1*%
%TO.N,unconnected-(U7-Pad1)*%
X153250000Y-77850000D03*
%TD*%
D17*
%TO.P,Q7,1*%
%TO.N,SWITCHING_3V3*%
X148825000Y-97605000D03*
%TO.P,Q7,2*%
%TO.N,Net-(Q7-Pad2)*%
X148825000Y-100145000D03*
%TO.P,Q7,3*%
%TO.N,CHAN_0B_OUT*%
X154975000Y-100145000D03*
%TO.P,Q7,4*%
%TO.N,EMG_LOW*%
X154975000Y-97605000D03*
%TD*%
D25*
%TO.P,U10,1,IOVDD*%
%TO.N,+3V3*%
X122690000Y-93210000D03*
%TO.P,U10,2,GPIO0*%
%TO.N,/TX*%
X122690000Y-93610000D03*
%TO.P,U10,3,GPIO1*%
%TO.N,/RX*%
X122690000Y-94010000D03*
%TO.P,U10,4,GPIO2*%
%TO.N,/SCK0*%
X122690000Y-94410000D03*
%TO.P,U10,5,GPIO3*%
%TO.N,/MOSI0*%
X122690000Y-94810000D03*
%TO.P,U10,6,GPIO4*%
%TO.N,/MISO0*%
X122690000Y-95210000D03*
%TO.P,U10,7,GPIO5*%
%TO.N,/TFT_DC*%
X122690000Y-95610000D03*
%TO.P,U10,8,GPIO6*%
%TO.N,/SD_CS*%
X122690000Y-96010000D03*
%TO.P,U10,9,GPIO7*%
%TO.N,/ESP-Wifi/ESP_INT*%
X122690000Y-96410000D03*
%TO.P,U10,10,IOVDD*%
%TO.N,+3V3*%
X122690000Y-96810000D03*
%TO.P,U10,11,GPIO8*%
%TO.N,/BUZZER*%
X122690000Y-97210000D03*
%TO.P,U10,12,GPIO9*%
%TO.N,/TFT_CS*%
X122690000Y-97610000D03*
%TO.P,U10,13,GPIO10*%
%TO.N,/processor/SCK1*%
X122690000Y-98010000D03*
%TO.P,U10,14,GPIO11*%
%TO.N,/processor/MOSI1*%
X122690000Y-98410000D03*
D26*
%TO.P,U10,15,GPIO12*%
%TO.N,/processor/MISO1*%
X123525000Y-99245000D03*
%TO.P,U10,16,GPIO13*%
%TO.N,/processor/ENC_CTL_0*%
X123925000Y-99245000D03*
%TO.P,U10,17,GPIO14*%
%TO.N,/processor/ENC_CTL_1*%
X124325000Y-99245000D03*
%TO.P,U10,18,GPIO15*%
%TO.N,/processor/ENC_CTL_2*%
X124725000Y-99245000D03*
%TO.P,U10,19,TESTEN*%
%TO.N,GNDD*%
X125125000Y-99245000D03*
%TO.P,U10,20,XIN*%
%TO.N,Net-(U10-XIN)*%
X125525000Y-99245000D03*
%TO.P,U10,21,XOUT*%
%TO.N,Net-(U10-XOUT)*%
X125925000Y-99245000D03*
%TO.P,U10,22,IOVDD*%
%TO.N,+3V3*%
X126325000Y-99245000D03*
%TO.P,U10,23,DVDD*%
%TO.N,+1V1*%
X126725000Y-99245000D03*
%TO.P,U10,24,SWCLK*%
%TO.N,/SWCLK*%
X127125000Y-99245000D03*
%TO.P,U10,25,SWD*%
%TO.N,/SWDIO*%
X127525000Y-99245000D03*
%TO.P,U10,26,~{RUN}*%
%TO.N,/~{RESET}*%
X127925000Y-99245000D03*
%TO.P,U10,27,GPIO16*%
%TO.N,/processor/CAN_STBY*%
X128325000Y-99245000D03*
%TO.P,U10,28,GPIO17*%
%TO.N,/processor/~{Tx0RTS}*%
X128725000Y-99245000D03*
D25*
%TO.P,U10,29,GPIO18*%
%TO.N,/processor/CAN_RESET*%
X129560000Y-98410000D03*
%TO.P,U10,30,GPIO19*%
%TO.N,/processor/CAN_CS*%
X129560000Y-98010000D03*
%TO.P,U10,31,GPIO20*%
%TO.N,/SDA0*%
X129560000Y-97610000D03*
%TO.P,U10,32,GPIO21*%
%TO.N,/SCL0*%
X129560000Y-97210000D03*
%TO.P,U10,33,IOVDD*%
%TO.N,+3V3*%
X129560000Y-96810000D03*
%TO.P,U10,34,GPIO22*%
%TO.N,/processor/CAN_INT*%
X129560000Y-96410000D03*
%TO.P,U10,35,GPIO23*%
%TO.N,/processor/~{Rx0BF}*%
X129560000Y-96010000D03*
%TO.P,U10,36,GPIO24*%
%TO.N,/ROT_ENC_0*%
X129560000Y-95610000D03*
%TO.P,U10,37,GPIO25*%
%TO.N,/ROT_ENC_1*%
X129560000Y-95210000D03*
%TO.P,U10,38,GPIO26_ADC0*%
%TO.N,/SDA1*%
X129560000Y-94810000D03*
%TO.P,U10,39,GPIO27_ADC1*%
%TO.N,/SCL1*%
X129560000Y-94410000D03*
%TO.P,U10,40,GPIO28_ADC2*%
%TO.N,/processor/A_IN_2_PIN*%
X129560000Y-94010000D03*
%TO.P,U10,41,GPIO29_ADC3*%
%TO.N,/processor/A_IN_3_PIN*%
X129560000Y-93610000D03*
%TO.P,U10,42,IOVDD*%
%TO.N,+3V3*%
X129560000Y-93210000D03*
D26*
%TO.P,U10,43,ADC_AVDD*%
X128725000Y-92375000D03*
%TO.P,U10,44,VREG_VIN*%
X128325000Y-92375000D03*
%TO.P,U10,45,VREG_VOUT*%
%TO.N,+1V1*%
X127925000Y-92375000D03*
%TO.P,U10,46,USB_D-*%
%TO.N,Net-(U10-USB_D-)*%
X127525000Y-92375000D03*
%TO.P,U10,47,USB_D+*%
%TO.N,Net-(U10-USB_D+)*%
X127125000Y-92375000D03*
%TO.P,U10,48,USB_VDD*%
%TO.N,+3V3*%
X126725000Y-92375000D03*
%TO.P,U10,49,IOVDD*%
X126325000Y-92375000D03*
%TO.P,U10,50,DVDD*%
%TO.N,+1V1*%
X125925000Y-92375000D03*
%TO.P,U10,51,QSPI_SD3*%
%TO.N,/processor/QSPI_SD3*%
X125525000Y-92375000D03*
%TO.P,U10,52,QSPI_SCLK*%
%TO.N,/processor/QSPI_SCLK*%
X125125000Y-92375000D03*
%TO.P,U10,53,QSPI_SD0*%
%TO.N,/processor/QSPI_SD0*%
X124725000Y-92375000D03*
%TO.P,U10,54,QSPI_SD2*%
%TO.N,/processor/QSPI_SD2*%
X124325000Y-92375000D03*
%TO.P,U10,55,QSPI_SD1*%
%TO.N,/processor/QSPI_SD1*%
X123925000Y-92375000D03*
%TO.P,U10,56,QSPI_SS*%
%TO.N,/processor/QSPI_CS*%
X123525000Y-92375000D03*
D27*
%TO.P,U10,57,GND*%
%TO.N,GNDD*%
X126125000Y-95810000D03*
%TD*%
D23*
%TO.P,D2,1,K*%
%TO.N,GND*%
X151800000Y-118550000D03*
%TO.P,D2,2,A*%
%TO.N,Net-(D2-A)*%
X153500000Y-118550000D03*
%TD*%
D28*
%TO.P,U15,1,EN*%
%TO.N,/regulator/SYS_PWR*%
X145420000Y-83275000D03*
%TO.P,U15,2,VIN*%
X146690000Y-83275000D03*
%TO.P,U15,3,VOUT*%
%TO.N,SWITCHING_3V3*%
X147960000Y-83275000D03*
%TO.P,U15,4,BYP*%
%TO.N,Net-(U15-BYP)*%
X149230000Y-83275000D03*
%TO.P,U15,5,GND*%
%TO.N,GND*%
X149230000Y-78325000D03*
%TO.P,U15,6,GND*%
X147960000Y-78325000D03*
%TO.P,U15,7,GND*%
X146690000Y-78325000D03*
%TO.P,U15,8,GND*%
X145420000Y-78325000D03*
%TD*%
D17*
%TO.P,Q17,1*%
%TO.N,SWITCHING_3V3*%
X140860000Y-97600000D03*
%TO.P,Q17,2*%
%TO.N,Net-(Q17-Pad2)*%
X140860000Y-100140000D03*
%TO.P,Q17,3*%
%TO.N,CHAN_1B_OUT*%
X147010000Y-100140000D03*
%TO.P,Q17,4*%
%TO.N,EMG_LOW*%
X147010000Y-97600000D03*
%TD*%
D29*
%TO.P,SW7,*%
%TO.N,*%
X172325000Y-114400000D03*
D30*
X170950000Y-122600000D03*
X170950000Y-106200000D03*
D31*
X165950000Y-114400000D03*
D32*
X165950000Y-109900000D03*
D30*
X160950000Y-122600000D03*
X160950000Y-106200000D03*
D29*
X159575000Y-114400000D03*
D33*
%TO.P,SW7,A,A*%
%TO.N,Net-(R75-Pad1)*%
X168450000Y-106700000D03*
%TO.P,SW7,B,B*%
%TO.N,Net-(R76-Pad2)*%
X163450000Y-106700000D03*
%TO.P,SW7,C,C*%
%TO.N,GND*%
X165950000Y-106700000D03*
D34*
%TO.P,SW7,S1,S1*%
%TO.N,/ENC_BUTTON*%
X168450000Y-121400000D03*
%TO.P,SW7,S2,S2*%
%TO.N,GND*%
X163450000Y-121400000D03*
%TD*%
D35*
%TO.P,C31,1*%
%TO.N,GND*%
X105625000Y-108525000D03*
%TO.P,C31,2*%
%TO.N,+3V3*%
X105625000Y-106525000D03*
%TD*%
D10*
%TO.P,C24,1*%
%TO.N,GND*%
X112550000Y-102375000D03*
%TO.P,C24,2*%
%TO.N,/CAN_H*%
X112550000Y-101275000D03*
%TD*%
D36*
%TO.P,D4,1,K*%
%TO.N,/regulator/SYS_PWR*%
X120030000Y-84160000D03*
%TO.P,D4,2,A*%
%TO.N,VUSB*%
X120030000Y-86960000D03*
%TD*%
D37*
%TO.P,J2,*%
%TO.N,*%
X125200000Y-123050000D03*
X132650000Y-123050000D03*
D38*
%TO.P,J2,1,1*%
%TO.N,GND*%
X127050000Y-119850000D03*
%TO.P,J2,2,2*%
%TO.N,/SCL1*%
X128300000Y-119850000D03*
%TO.P,J2,3,3*%
%TO.N,/SDA1*%
X129550000Y-119850000D03*
%TO.P,J2,4,4*%
%TO.N,+3V3*%
X130800000Y-119850000D03*
%TD*%
D39*
%TO.P,R15,1*%
%TO.N,/processor/CAN_STBY*%
X110700000Y-103475000D03*
%TO.P,R15,2*%
%TO.N,GND*%
X110700000Y-101775000D03*
%TD*%
D17*
%TO.P,Q15,1*%
%TO.N,SWITCHING_3V3*%
X173300000Y-103025000D03*
%TO.P,Q15,2*%
%TO.N,Net-(Q15-Pad2)*%
X173300000Y-100485000D03*
%TO.P,Q15,3*%
%TO.N,CHAN_3A_OUT*%
X167150000Y-100485000D03*
%TO.P,Q15,4*%
%TO.N,EMG_HIGH*%
X167150000Y-103025000D03*
%TD*%
D10*
%TO.P,C14,1*%
%TO.N,+1V1*%
X123875000Y-89325000D03*
%TO.P,C14,2*%
%TO.N,GNDD*%
X123875000Y-88225000D03*
%TD*%
D17*
%TO.P,Q22,1*%
%TO.N,SWITCHING_3V3*%
X148845000Y-89515000D03*
%TO.P,Q22,2*%
%TO.N,Net-(Q22-Pad2)*%
X148845000Y-92055000D03*
%TO.P,Q22,3*%
%TO.N,CHAN_4B_OUT*%
X154995000Y-92055000D03*
%TO.P,Q22,4*%
%TO.N,EMG_LOW*%
X154995000Y-89515000D03*
%TD*%
D10*
%TO.P,C10,1*%
%TO.N,+3V3*%
X126050000Y-89325000D03*
%TO.P,C10,2*%
%TO.N,GNDD*%
X126050000Y-88225000D03*
%TD*%
%TO.P,C34,1*%
%TO.N,+3V3*%
X151800000Y-109125000D03*
%TO.P,C34,2*%
%TO.N,GND*%
X151800000Y-108025000D03*
%TD*%
D40*
%TO.P,R18,1*%
%TO.N,+3V3*%
X112625000Y-121300000D03*
%TO.P,R18,2*%
%TO.N,/peripherals/~{TFT_RESET}*%
X112625000Y-123000000D03*
%TD*%
D41*
%TO.P,U1,A1,GND*%
%TO.N,GND*%
X129985000Y-83445000D03*
%TO.P,U1,A4,VBUS*%
%TO.N,VUSB*%
X129185000Y-83445000D03*
%TO.P,U1,A5,CC1*%
%TO.N,Net-(U1-CC1)*%
X127885000Y-83445000D03*
%TO.P,U1,A6,D+*%
%TO.N,/USB_D+*%
X126885000Y-83445000D03*
%TO.P,U1,A7,D-*%
%TO.N,/USB_D-*%
X126385000Y-83445000D03*
%TO.P,U1,A8,SBU1*%
%TO.N,unconnected-(U1-SBU1-PadA8)*%
X125385000Y-83445000D03*
%TO.P,U1,A9,VBUS*%
%TO.N,VUSB*%
X124085000Y-83445000D03*
%TO.P,U1,A12,GND*%
%TO.N,GND*%
X123285000Y-83445000D03*
%TO.P,U1,B1,GND*%
X123585000Y-83445000D03*
%TO.P,U1,B4,VBUS*%
%TO.N,VUSB*%
X124385000Y-83445000D03*
%TO.P,U1,B5,CC2*%
%TO.N,Net-(U1-CC2)*%
X124885000Y-83445000D03*
%TO.P,U1,B6,D+*%
%TO.N,/USB_D+*%
X125885000Y-83445000D03*
%TO.P,U1,B7,D-*%
%TO.N,/USB_D-*%
X127385000Y-83445000D03*
%TO.P,U1,B8,SBU2*%
%TO.N,unconnected-(U1-SBU2-PadB8)*%
X128385000Y-83445000D03*
%TO.P,U1,B9,VBUS*%
%TO.N,VUSB*%
X128885000Y-83445000D03*
%TO.P,U1,B12,GND*%
%TO.N,GND*%
X129685000Y-83445000D03*
D42*
%TO.P,U1,S1,SHIELD*%
X130955000Y-82880000D03*
D43*
X130955000Y-78700000D03*
D42*
X122315000Y-82880000D03*
D43*
X122315000Y-78700000D03*
%TD*%
D44*
%TO.P,C19,1*%
%TO.N,GND*%
X110705000Y-104655000D03*
%TO.P,C19,2*%
%TO.N,+5V*%
X110705000Y-106355000D03*
%TD*%
D10*
%TO.P,C12,1*%
%TO.N,+3V3*%
X131450000Y-90250000D03*
%TO.P,C12,2*%
%TO.N,GNDD*%
X131450000Y-89150000D03*
%TD*%
D45*
%TO.P,R28,1*%
%TO.N,/A_IN_3*%
X114700000Y-119400000D03*
%TO.P,R28,2*%
%TO.N,/processor/A_IN_3_PIN*%
X113000000Y-119400000D03*
%TD*%
D17*
%TO.P,Q14,1*%
%TO.N,SWITCHING_3V3*%
X154900000Y-104835000D03*
%TO.P,Q14,2*%
%TO.N,Net-(Q14-Pad2)*%
X154900000Y-102295000D03*
%TO.P,Q14,3*%
%TO.N,CHAN_1A_OUT*%
X148750000Y-102295000D03*
%TO.P,Q14,4*%
%TO.N,EMG_HIGH*%
X148750000Y-104835000D03*
%TD*%
D44*
%TO.P,C2,1*%
%TO.N,Net-(U3-BYP)*%
X111775000Y-96050000D03*
%TO.P,C2,2*%
%TO.N,GND*%
X111775000Y-97750000D03*
%TD*%
D24*
%TO.P,U8,1*%
%TO.N,unconnected-(U8-Pad1)*%
X153250000Y-121900000D03*
%TD*%
D10*
%TO.P,R4,1*%
%TO.N,Net-(C5-Pad1)*%
X127275000Y-103275000D03*
%TO.P,R4,2*%
%TO.N,Net-(U10-XOUT)*%
X127275000Y-102175000D03*
%TD*%
D46*
%TO.P,NT2,1*%
%TO.N,GNDREF*%
X151750000Y-80200000D03*
%TO.P,NT2,2*%
%TO.N,GND*%
X150750000Y-80200000D03*
%TD*%
D17*
%TO.P,Q26,1*%
%TO.N,SWITCHING_3V3*%
X173300000Y-95025000D03*
%TO.P,Q26,2*%
%TO.N,Net-(Q26-Pad2)*%
X173300000Y-92485000D03*
%TO.P,Q26,3*%
%TO.N,CHAN_5A_OUT*%
X167150000Y-92485000D03*
%TO.P,Q26,4*%
%TO.N,EMG_HIGH*%
X167150000Y-95025000D03*
%TD*%
D10*
%TO.P,C8,1*%
%TO.N,+3V3*%
X128360000Y-102150000D03*
%TO.P,C8,2*%
%TO.N,GNDD*%
X128360000Y-103250000D03*
%TD*%
D17*
%TO.P,Q34,1*%
%TO.N,SWITCHING_3V3*%
X148837500Y-85510000D03*
%TO.P,Q34,2*%
%TO.N,Net-(Q34-Pad2)*%
X148837500Y-88050000D03*
%TO.P,Q34,3*%
%TO.N,CHAN_7B_OUT*%
X154987500Y-88050000D03*
%TO.P,Q34,4*%
%TO.N,EMG_LOW*%
X154987500Y-85510000D03*
%TD*%
D47*
%TO.P,C13,1*%
%TO.N,+3V3*%
X120525000Y-93225000D03*
%TO.P,C13,2*%
%TO.N,GNDD*%
X119425000Y-93225000D03*
%TD*%
D36*
%TO.P,D5,1,K*%
%TO.N,/regulator/SYS_PWR*%
X120040000Y-82430000D03*
%TO.P,D5,2,A*%
%TO.N,+BATT*%
X120040000Y-79630000D03*
%TD*%
D10*
%TO.P,C15,1*%
%TO.N,+1V1*%
X129450000Y-102150000D03*
%TO.P,C15,2*%
%TO.N,GNDD*%
X129450000Y-103250000D03*
%TD*%
D35*
%TO.P,C3,1*%
%TO.N,GND*%
X111750000Y-94525000D03*
%TO.P,C3,2*%
%TO.N,+3V3*%
X111750000Y-92525000D03*
%TD*%
D48*
%TO.P,R16,1*%
%TO.N,/processor/QSPI_CS*%
X113575000Y-99125000D03*
%TO.P,R16,2*%
%TO.N,+3V3*%
X115275000Y-99125000D03*
%TD*%
D39*
%TO.P,R7,1*%
%TO.N,Net-(Q3-G)*%
X120650000Y-118100000D03*
%TO.P,R7,2*%
%TO.N,/BUZZER*%
X120650000Y-116400000D03*
%TD*%
D48*
%TO.P,R25,1*%
%TO.N,+3V3*%
X117900000Y-113700000D03*
%TO.P,R25,2*%
%TO.N,/processor/CAN_RESET*%
X119600000Y-113700000D03*
%TD*%
D47*
%TO.P,C7,1*%
%TO.N,+3V3*%
X131835000Y-93235000D03*
%TO.P,C7,2*%
%TO.N,GNDD*%
X132935000Y-93235000D03*
%TD*%
D45*
%TO.P,R11,1*%
%TO.N,/processor/CAN_CS*%
X119600000Y-112300000D03*
%TO.P,R11,2*%
%TO.N,+3V3*%
X117900000Y-112300000D03*
%TD*%
D49*
%TO.P,U14,1,VIN*%
%TO.N,/regulator/SYS_PWR*%
X109225000Y-103425000D03*
%TO.P,U14,2,GND*%
%TO.N,GND*%
X108275000Y-103425000D03*
%TO.P,U14,3,EN*%
%TO.N,/regulator/SYS_PWR*%
X107325000Y-103425000D03*
%TO.P,U14,4,NC*%
%TO.N,unconnected-(U14-NC-Pad4)*%
X107325000Y-106045000D03*
%TO.P,U14,5,VOUT*%
%TO.N,+5V*%
X109225000Y-106045000D03*
%TD*%
D44*
%TO.P,C29,1*%
%TO.N,Net-(U15-BYP)*%
X150800000Y-83825000D03*
%TO.P,C29,2*%
%TO.N,GND*%
X150800000Y-82125000D03*
%TD*%
%TO.P,D10,1,K*%
%TO.N,Net-(D10-K)*%
X165675000Y-79100000D03*
%TO.P,D10,2,A*%
%TO.N,Net-(D10-A)*%
X165675000Y-77400000D03*
%TD*%
D10*
%TO.P,C23,1*%
%TO.N,GND*%
X117200000Y-102350000D03*
%TO.P,C23,2*%
%TO.N,/CAN_L*%
X117200000Y-101250000D03*
%TD*%
D48*
%TO.P,R2,1*%
%TO.N,Net-(U1-CC1)*%
X128825000Y-86075000D03*
%TO.P,R2,2*%
%TO.N,GND*%
X130525000Y-86075000D03*
%TD*%
D17*
%TO.P,Q20,1*%
%TO.N,SWITCHING_3V3*%
X173290000Y-99010000D03*
%TO.P,Q20,2*%
%TO.N,Net-(Q20-Pad2)*%
X173290000Y-96470000D03*
%TO.P,Q20,3*%
%TO.N,CHAN_4A_OUT*%
X167140000Y-96470000D03*
%TO.P,Q20,4*%
%TO.N,EMG_HIGH*%
X167140000Y-99010000D03*
%TD*%
D50*
%TO.P,D9,1,K*%
%TO.N,/processor/A_IN_3_PIN*%
X114300000Y-120850000D03*
%TO.P,D9,2,A*%
%TO.N,GND*%
X114300000Y-122950000D03*
%TD*%
D10*
%TO.P,C17,1*%
%TO.N,+3V3*%
X130375000Y-90250000D03*
%TO.P,C17,2*%
%TO.N,GNDD*%
X130375000Y-89150000D03*
%TD*%
D23*
%TO.P,C6,1*%
%TO.N,GND*%
X107730000Y-101585000D03*
%TO.P,C6,2*%
%TO.N,/regulator/SYS_PWR*%
X109430000Y-101585000D03*
%TD*%
D47*
%TO.P,C25,1*%
%TO.N,+3V3*%
X131825000Y-96800000D03*
%TO.P,C25,2*%
%TO.N,GNDD*%
X132925000Y-96800000D03*
%TD*%
D17*
%TO.P,Q11,1*%
%TO.N,SWITCHING_3V3*%
X140875000Y-93625000D03*
%TO.P,Q11,2*%
%TO.N,Net-(Q11-Pad2)*%
X140875000Y-96165000D03*
%TO.P,Q11,3*%
%TO.N,CHAN_2B_OUT*%
X147025000Y-96165000D03*
%TO.P,Q11,4*%
%TO.N,EMG_LOW*%
X147025000Y-93625000D03*
%TD*%
D24*
%TO.P,U6,1*%
%TO.N,unconnected-(U6-Pad1)*%
X103100000Y-121900000D03*
%TD*%
D51*
%TO.P,J6,*%
%TO.N,*%
X160348175Y-98315000D03*
X160348175Y-86665000D03*
D52*
%TO.P,J6,1,P1*%
%TO.N,CHAN_0A_OUT*%
X163548175Y-96990000D03*
%TO.P,J6,2,P2*%
%TO.N,CHAN_0B_OUT*%
X157948175Y-96990000D03*
%TO.P,J6,3,P3*%
%TO.N,CHAN_1A_OUT*%
X163548175Y-95990000D03*
%TO.P,J6,4,P4*%
%TO.N,CHAN_1B_OUT*%
X157948175Y-95990000D03*
%TO.P,J6,5,P5*%
%TO.N,CHAN_2A_OUT*%
X163548175Y-94990000D03*
%TO.P,J6,6,P6*%
%TO.N,CHAN_2B_OUT*%
X157948175Y-94990000D03*
%TO.P,J6,7,P7*%
%TO.N,CHAN_3A_OUT*%
X163548175Y-93990000D03*
%TO.P,J6,8,P8*%
%TO.N,CHAN_3B_OUT*%
X157948175Y-93990000D03*
%TO.P,J6,9,P9*%
%TO.N,CHAN_4A_OUT*%
X163548175Y-92990000D03*
%TO.P,J6,10,P10*%
%TO.N,CHAN_4B_OUT*%
X157948175Y-92990000D03*
%TO.P,J6,11,P11*%
%TO.N,CHAN_5A_OUT*%
X163548175Y-91990000D03*
%TO.P,J6,12,P12*%
%TO.N,CHAN_5B_OUT*%
X157948175Y-91990000D03*
%TO.P,J6,13,P13*%
%TO.N,CHAN_6A_OUT*%
X163548175Y-90990000D03*
%TO.P,J6,14,P14*%
%TO.N,CHAN_6B_OUT*%
X157948175Y-90990000D03*
%TO.P,J6,15,P15*%
%TO.N,CHAN_7A_OUT*%
X163548175Y-89990000D03*
%TO.P,J6,16,P16*%
%TO.N,CHAN_7B_OUT*%
X157948175Y-89990000D03*
%TO.P,J6,17,P17*%
%TO.N,unconnected-(J6-P17-Pad17)*%
X163548175Y-88990000D03*
%TO.P,J6,18,P18*%
%TO.N,unconnected-(J6-P18-Pad18)*%
X157948175Y-88990000D03*
%TO.P,J6,19,P19*%
%TO.N,unconnected-(J6-P19-Pad19)*%
X163548175Y-87990000D03*
%TO.P,J6,20,P20*%
%TO.N,unconnected-(J6-P20-Pad20)*%
X157948175Y-87990000D03*
%TD*%
D17*
%TO.P,Q23,1*%
%TO.N,SWITCHING_3V3*%
X173325000Y-91000000D03*
%TO.P,Q23,2*%
%TO.N,Net-(Q23-Pad2)*%
X173325000Y-88460000D03*
%TO.P,Q23,3*%
%TO.N,CHAN_6A_OUT*%
X167175000Y-88460000D03*
%TO.P,Q23,4*%
%TO.N,EMG_HIGH*%
X167175000Y-91000000D03*
%TD*%
D24*
%TO.P,U9,1*%
%TO.N,unconnected-(U9-Pad1)*%
X102520000Y-77858175D03*
%TD*%
D53*
%TO.P,C30,1*%
%TO.N,GND*%
X149200000Y-76175000D03*
%TO.P,C30,2*%
%TO.N,SWITCHING_3V3*%
X147200000Y-76175000D03*
%TD*%
D44*
%TO.P,C28,1*%
%TO.N,GND*%
X143900000Y-81575000D03*
%TO.P,C28,2*%
%TO.N,/regulator/SYS_PWR*%
X143900000Y-83275000D03*
%TD*%
D47*
%TO.P,C21,1*%
%TO.N,Net-(C21-Pad1)*%
X108825000Y-107525000D03*
%TO.P,C21,2*%
%TO.N,GND*%
X107725000Y-107525000D03*
%TD*%
%TO.P,C9,1*%
%TO.N,+3V3*%
X120625000Y-97000000D03*
%TO.P,C9,2*%
%TO.N,GNDD*%
X119525000Y-97000000D03*
%TD*%
D48*
%TO.P,R1,1*%
%TO.N,GND*%
X123310000Y-86090000D03*
%TO.P,R1,2*%
%TO.N,Net-(U1-CC2)*%
X125010000Y-86090000D03*
%TD*%
D54*
%TO.P,Q3,1,G*%
%TO.N,Net-(Q3-G)*%
X119275000Y-116505000D03*
%TO.P,Q3,2,S*%
%TO.N,GND*%
X117975000Y-116505000D03*
%TO.P,Q3,3,D*%
%TO.N,Net-(Q3-D)*%
X118625000Y-117975000D03*
%TD*%
D47*
%TO.P,R81,1*%
%TO.N,Net-(C21-Pad1)*%
X109800000Y-107525000D03*
%TO.P,R81,2*%
%TO.N,Net-(U13-OSC2)*%
X110900000Y-107525000D03*
%TD*%
D48*
%TO.P,R20,1*%
%TO.N,/ESP-Wifi/LED_STATIC*%
X151800000Y-117050000D03*
%TO.P,R20,2*%
%TO.N,Net-(D2-A)*%
X153500000Y-117050000D03*
%TD*%
D28*
%TO.P,U4,1,32khz*%
%TO.N,unconnected-(U4-32khz-Pad1)*%
X135020000Y-91500000D03*
%TO.P,U4,2,VCC*%
%TO.N,+3V3*%
X136290000Y-91500000D03*
%TO.P,U4,3,INT*%
%TO.N,unconnected-(U4-INT-Pad3)*%
X137560000Y-91500000D03*
%TO.P,U4,4,~{RST}*%
%TO.N,unconnected-(U4-~{RST}-Pad4)*%
X138830000Y-91500000D03*
%TO.P,U4,5,GND*%
%TO.N,GND*%
X138830000Y-86550000D03*
%TO.P,U4,6,VBAT*%
X137560000Y-86550000D03*
%TO.P,U4,7,SDA*%
%TO.N,/SDA1*%
X136290000Y-86550000D03*
%TO.P,U4,8,SCL*%
%TO.N,/SCL1*%
X135020000Y-86550000D03*
%TD*%
D17*
%TO.P,Q9,1*%
%TO.N,SWITCHING_3V3*%
X164125000Y-102800000D03*
%TO.P,Q9,2*%
%TO.N,Net-(Q9-Pad2)*%
X164125000Y-100260000D03*
%TO.P,Q9,3*%
%TO.N,CHAN_2A_OUT*%
X157975000Y-100260000D03*
%TO.P,Q9,4*%
%TO.N,EMG_HIGH*%
X157975000Y-102800000D03*
%TD*%
D10*
%TO.P,C4,1*%
%TO.N,GNDD*%
X122900000Y-104400000D03*
%TO.P,C4,2*%
%TO.N,Net-(U10-XIN)*%
X122900000Y-103300000D03*
%TD*%
D55*
%TO.P,U17,*%
%TO.N,*%
X162930000Y-83410000D03*
D56*
%TO.P,U17,1,A0*%
%TO.N,/processor/ENC_CTL_0*%
X164630000Y-83160000D03*
D57*
%TO.P,U17,2,A1*%
%TO.N,/processor/ENC_CTL_1*%
X164180000Y-82210000D03*
%TO.P,U17,3,A2*%
%TO.N,/processor/ENC_CTL_2*%
X163680000Y-82210000D03*
%TO.P,U17,4,~{G2A}*%
%TO.N,SWITCHING_3V3*%
X163180000Y-82210000D03*
%TO.P,U17,5,~{G2B}*%
X162680000Y-82210000D03*
%TO.P,U17,6,G1*%
%TO.N,Net-(D10-K)*%
X162180000Y-82210000D03*
%TO.P,U17,7,Y7*%
%TO.N,/switch_control/CHAN_7*%
X161680000Y-82210000D03*
D56*
%TO.P,U17,8,GND*%
%TO.N,GNDREF*%
X161230000Y-83160000D03*
%TO.P,U17,9,Y6*%
%TO.N,/switch_control/CHAN_6*%
X161230000Y-83660000D03*
D57*
%TO.P,U17,10,Y5*%
%TO.N,/switch_control/CHAN_5*%
X161680000Y-84610000D03*
%TO.P,U17,11,Y4*%
%TO.N,/switch_control/CHAN_4*%
X162180000Y-84610000D03*
%TO.P,U17,12,Y3*%
%TO.N,/switch_control/CHAN_3*%
X162680000Y-84610000D03*
%TO.P,U17,13,Y2*%
%TO.N,/switch_control/CHAN_2*%
X163180000Y-84610000D03*
%TO.P,U17,14,Y1*%
%TO.N,/switch_control/CHAN_1*%
X163680000Y-84610000D03*
%TO.P,U17,15,Y0*%
%TO.N,/switch_control/CHAN_0*%
X164180000Y-84610000D03*
D56*
%TO.P,U17,16,VDD*%
%TO.N,SWITCHING_3V3*%
X164630000Y-83660000D03*
%TD*%
D10*
%TO.P,C11,1*%
%TO.N,+3V3*%
X124975000Y-89325000D03*
%TO.P,C11,2*%
%TO.N,GNDD*%
X124975000Y-88225000D03*
%TD*%
D47*
%TO.P,R17,1*%
%TO.N,/processor/QSPI_CS*%
X132525000Y-79550000D03*
%TO.P,R17,2*%
%TO.N,Net-(D3-A)*%
X133625000Y-79550000D03*
%TD*%
D48*
%TO.P,R6,1*%
%TO.N,GND*%
X117900000Y-115075000D03*
%TO.P,R6,2*%
%TO.N,/BUZZER*%
X119600000Y-115075000D03*
%TD*%
D37*
%TO.P,J5,*%
%TO.N,*%
X116100000Y-123075000D03*
X123550000Y-123075000D03*
D38*
%TO.P,J5,1,1*%
%TO.N,GND*%
X117950000Y-119875000D03*
%TO.P,J5,2,2*%
%TO.N,/CAN_L*%
X119200000Y-119875000D03*
%TO.P,J5,3,3*%
%TO.N,/CAN_H*%
X120450000Y-119875000D03*
%TO.P,J5,4,4*%
%TO.N,+3V3*%
X121700000Y-119875000D03*
%TD*%
D39*
%TO.P,R29,1*%
%TO.N,SWITCHING_3V3*%
X163225000Y-79075000D03*
%TO.P,R29,2*%
%TO.N,Net-(D10-A)*%
X163225000Y-77375000D03*
%TD*%
D50*
%TO.P,D8,1,K*%
%TO.N,/processor/A_IN_2_PIN*%
X116275000Y-115900000D03*
%TO.P,D8,2,A*%
%TO.N,GND*%
X116275000Y-118000000D03*
%TD*%
D10*
%TO.P,C16,1*%
%TO.N,+1V1*%
X129300000Y-90250000D03*
%TO.P,C16,2*%
%TO.N,GNDD*%
X129300000Y-89150000D03*
%TD*%
D58*
%TO.P,U3,1,EN*%
%TO.N,/regulator/SYS_PWR*%
X109980000Y-93150000D03*
%TO.P,U3,2,VIN*%
X108710000Y-93150000D03*
%TO.P,U3,3,VOUT*%
%TO.N,+3V3*%
X107440000Y-93150000D03*
%TO.P,U3,4,BYP*%
%TO.N,Net-(U3-BYP)*%
X106170000Y-93150000D03*
%TO.P,U3,5,GND*%
%TO.N,GND*%
X106170000Y-98100000D03*
%TO.P,U3,6,GND*%
X107440000Y-98100000D03*
%TO.P,U3,7,GND*%
X108710000Y-98100000D03*
%TO.P,U3,8,GND*%
X109980000Y-98100000D03*
%TD*%
D59*
%TO.P,SP1,1,+*%
%TO.N,Net-(SP1-+)*%
X123125000Y-112325000D03*
%TO.P,SP1,2,-*%
%TO.N,Net-(Q3-D)*%
X130725000Y-112325000D03*
%TD*%
D60*
%TO.P,U11,*%
%TO.N,*%
X115455000Y-94272500D03*
D61*
%TO.P,U11,1,~{CS}*%
%TO.N,/processor/QSPI_CS*%
X113550000Y-96935000D03*
%TO.P,U11,2,DO(IO1)*%
%TO.N,/processor/QSPI_SD1*%
X114820000Y-96935000D03*
%TO.P,U11,3,WP(IO2)*%
%TO.N,/processor/QSPI_SD2*%
X116090000Y-96935000D03*
%TO.P,U11,4,GND*%
%TO.N,GND*%
X117360000Y-96935000D03*
%TO.P,U11,5,DI(IO0)*%
%TO.N,/processor/QSPI_SD0*%
X117360000Y-91610000D03*
%TO.P,U11,6,CLK*%
%TO.N,/processor/QSPI_SCLK*%
X116090000Y-91610000D03*
%TO.P,U11,7,HOLD(IO3)*%
%TO.N,/processor/QSPI_SD3*%
X114820000Y-91610000D03*
%TO.P,U11,8,VCC*%
%TO.N,+3V3*%
X113550000Y-91610000D03*
%TD*%
D62*
%TO.P,U13,1,~{CS}*%
%TO.N,/processor/CAN_CS*%
X118675000Y-109775000D03*
%TO.P,U13,2,~{RESET}*%
%TO.N,/processor/CAN_RESET*%
X118675000Y-109125000D03*
%TO.P,U13,3,VDD*%
%TO.N,+3V3*%
X118675000Y-108475000D03*
%TO.P,U13,4,TxCAN*%
%TO.N,Net-(U13-TXD)*%
X118675000Y-107825000D03*
%TO.P,U13,5,RxCAN*%
%TO.N,Net-(U13-RXD)*%
X118675000Y-107175000D03*
%TO.P,U13,6,CLKOUT*%
%TO.N,unconnected-(U13-CLKOUT-Pad6)*%
X118675000Y-106525000D03*
%TO.P,U13,7,~{Tx0RTS}*%
%TO.N,/processor/~{Tx0RTS}*%
X118675000Y-105875000D03*
D63*
%TO.P,U13,8,~{Tx1RTS}*%
%TO.N,unconnected-(U13-~{Tx1RTS}-Pad8)*%
X117775000Y-104975000D03*
%TO.P,U13,9,~{Tx2RTS}*%
%TO.N,unconnected-(U13-~{Tx2RTS}-Pad9)*%
X117125000Y-104975000D03*
%TO.P,U13,10,RXD*%
%TO.N,Net-(U13-RXD)*%
X116475000Y-104975000D03*
%TO.P,U13,11,VIO*%
%TO.N,+3V3*%
X115825000Y-104975000D03*
%TO.P,U13,12,CANL*%
%TO.N,/CAN_L*%
X115175000Y-104975000D03*
%TO.P,U13,13,CANH*%
%TO.N,/CAN_H*%
X114525000Y-104975000D03*
%TO.P,U13,14,NC*%
%TO.N,unconnected-(U13-NC-Pad14)*%
X113875000Y-104975000D03*
D62*
%TO.P,U13,15,STBY*%
%TO.N,/processor/CAN_STBY*%
X112975000Y-105875000D03*
%TO.P,U13,16,TXD*%
%TO.N,Net-(U13-TXD)*%
X112975000Y-106525000D03*
%TO.P,U13,17,NC*%
%TO.N,unconnected-(U13-NC-Pad17)*%
X112975000Y-107175000D03*
%TO.P,U13,18,VSS*%
%TO.N,GND*%
X112975000Y-107825000D03*
%TO.P,U13,19,VDDA*%
%TO.N,+5V*%
X112975000Y-108475000D03*
%TO.P,U13,20,OSC2*%
%TO.N,Net-(U13-OSC2)*%
X112975000Y-109125000D03*
%TO.P,U13,21,OSC1*%
%TO.N,Net-(U13-OSC1)*%
X112975000Y-109775000D03*
D63*
%TO.P,U13,22,GND*%
%TO.N,GND*%
X113875000Y-110675000D03*
%TO.P,U13,23,~{Rx1BF}*%
%TO.N,unconnected-(U13-~{Rx1BF}-Pad23)*%
X114525000Y-110675000D03*
%TO.P,U13,24,~{Rx0BF}*%
%TO.N,/processor/~{Rx0BF}*%
X115175000Y-110675000D03*
%TO.P,U13,25,~{INT}*%
%TO.N,/processor/CAN_INT*%
X115825000Y-110675000D03*
%TO.P,U13,26,SCK*%
%TO.N,/processor/SCK1*%
X116475000Y-110675000D03*
%TO.P,U13,27,MOSI*%
%TO.N,/processor/MOSI1*%
X117125000Y-110675000D03*
%TO.P,U13,28,MISO*%
%TO.N,/processor/MISO1*%
X117775000Y-110675000D03*
D64*
%TO.P,U13,29,EP*%
%TO.N,GND*%
X115825000Y-107825000D03*
%TD*%
D23*
%TO.P,C1,1*%
%TO.N,GND*%
X110150000Y-91150000D03*
%TO.P,C1,2*%
%TO.N,/regulator/SYS_PWR*%
X108450000Y-91150000D03*
%TD*%
D37*
%TO.P,J4,*%
%TO.N,*%
X161455000Y-76882500D03*
X156505000Y-76882500D03*
D38*
%TO.P,J4,1,1*%
%TO.N,EMG_HIGH*%
X159605000Y-80082500D03*
%TO.P,J4,2,2*%
%TO.N,EMG_LOW*%
X158355000Y-80082500D03*
%TD*%
D65*
%TO.P,U2,1,Vref*%
%TO.N,+3V3*%
X109965000Y-114750000D03*
%TO.P,U2,2,SWDIO/TMS*%
%TO.N,/SWDIO*%
X109965000Y-119050000D03*
%TO.P,U2,3,GND*%
%TO.N,GND*%
X108695000Y-114750000D03*
%TO.P,U2,4,SWDCLK/TCK*%
%TO.N,/SWCLK*%
X108695000Y-119050000D03*
%TO.P,U2,5,GND*%
%TO.N,GND*%
X107425000Y-114750000D03*
%TO.P,U2,6,SWO/TDO*%
%TO.N,unconnected-(U2-SWO{slash}TDO-Pad6)*%
X107425000Y-119050000D03*
%TO.P,U2,7,KEY*%
%TO.N,unconnected-(U2-KEY-Pad7)*%
X106155000Y-114750000D03*
%TO.P,U2,8,NC/TDI*%
%TO.N,unconnected-(U2-NC{slash}TDI-Pad8)*%
X106155000Y-119050000D03*
%TO.P,U2,9,GNDDetect*%
%TO.N,unconnected-(U2-GNDDetect-Pad9)*%
X104885000Y-114750000D03*
%TO.P,U2,10,~{RESET}*%
%TO.N,/~{RESET}*%
X104885000Y-119050000D03*
%TD*%
D17*
%TO.P,Q1,1*%
%TO.N,SWITCHING_3V3*%
X140780000Y-102280000D03*
%TO.P,Q1,2*%
%TO.N,Net-(Q1-Pad2)*%
X140780000Y-104820000D03*
%TO.P,Q1,3*%
%TO.N,CHAN_0A_OUT*%
X146930000Y-104820000D03*
%TO.P,Q1,4*%
%TO.N,EMG_HIGH*%
X146930000Y-102280000D03*
%TD*%
D47*
%TO.P,C5,1*%
%TO.N,Net-(C5-Pad1)*%
X127225000Y-104450000D03*
%TO.P,C5,2*%
%TO.N,GNDD*%
X128325000Y-104450000D03*
%TD*%
D66*
%TO.P,U12,*%
%TO.N,*%
X102450000Y-82613175D03*
X102450000Y-111823175D03*
X153250000Y-82613175D03*
X153250000Y-111823175D03*
D67*
%TO.P,U12,1,LITE*%
%TO.N,Net-(U12-LITE)*%
X102450000Y-85788175D03*
%TO.P,U12,2,MISO*%
%TO.N,/MISO0*%
X102450000Y-88333175D03*
%TO.P,U12,3,SCK*%
%TO.N,/SCK0*%
X102450000Y-90873175D03*
%TO.P,U12,4,MOSI*%
%TO.N,/MOSI0*%
X102450000Y-93413175D03*
%TO.P,U12,5,TFT_CS*%
%TO.N,/TFT_CS*%
X102450000Y-95953175D03*
%TO.P,U12,6,SD_CS*%
%TO.N,/SD_CS*%
X102450000Y-98493175D03*
%TO.P,U12,7,D/C*%
%TO.N,/TFT_DC*%
X102450000Y-101033175D03*
%TO.P,U12,8,~{RESET}*%
%TO.N,/peripherals/~{TFT_RESET}*%
X102450000Y-103573175D03*
%TO.P,U12,9,VCC*%
%TO.N,+3V3*%
X102450000Y-106113175D03*
%TO.P,U12,10,GND*%
%TO.N,GND*%
X102450000Y-108653175D03*
%TD*%
D17*
%TO.P,Q18,1*%
%TO.N,SWITCHING_3V3*%
X148835000Y-93610000D03*
%TO.P,Q18,2*%
%TO.N,Net-(Q18-Pad2)*%
X148835000Y-96150000D03*
%TO.P,Q18,3*%
%TO.N,CHAN_3B_OUT*%
X154985000Y-96150000D03*
%TO.P,Q18,4*%
%TO.N,EMG_LOW*%
X154985000Y-93610000D03*
%TD*%
D23*
%TO.P,C18,1*%
%TO.N,GND*%
X105420000Y-91150000D03*
%TO.P,C18,2*%
%TO.N,+3V3*%
X107120000Y-91150000D03*
%TD*%
D17*
%TO.P,Q31,1*%
%TO.N,SWITCHING_3V3*%
X173325000Y-87000000D03*
%TO.P,Q31,2*%
%TO.N,Net-(Q31-Pad2)*%
X173325000Y-84460000D03*
%TO.P,Q31,3*%
%TO.N,CHAN_7A_OUT*%
X167175000Y-84460000D03*
%TO.P,Q31,4*%
%TO.N,EMG_HIGH*%
X167175000Y-87000000D03*
%TD*%
D39*
%TO.P,R27,1*%
%TO.N,/A_IN_2*%
X114600000Y-118125000D03*
%TO.P,R27,2*%
%TO.N,/processor/A_IN_2_PIN*%
X114600000Y-116425000D03*
%TD*%
D68*
%TO.N,/peripherals/~{TFT_RESET}*%
X105625000Y-123250000D03*
%TO.N,/regulator/SYS_PWR*%
X109425000Y-100750000D03*
X108725000Y-94100000D03*
%TO.N,+3V3*%
X106550000Y-90325000D03*
X131850000Y-92500000D03*
X109850000Y-112750000D03*
X129050000Y-116550000D03*
X116000000Y-99140000D03*
X122475000Y-119875000D03*
X116329500Y-102850000D03*
X156500000Y-111900000D03*
X131775000Y-119850000D03*
X108775000Y-120975000D03*
X124320000Y-118825000D03*
X111775000Y-91650000D03*
X125675000Y-107550000D03*
X112625000Y-122075000D03*
X126304500Y-119450000D03*
X121875000Y-111175000D03*
X113550000Y-90800000D03*
X120500000Y-93150000D03*
X125525000Y-89325000D03*
X118725000Y-113700000D03*
X106425000Y-91150000D03*
X105650000Y-107175000D03*
X132529500Y-97530000D03*
X126079500Y-97925000D03*
X136290000Y-90030000D03*
X148350000Y-109075000D03*
X119577101Y-97928988D03*
X129550000Y-92375000D03*
X147375000Y-113775000D03*
X129130000Y-117650000D03*
%TO.N,/CAN_L*%
X115213498Y-104750000D03*
X116804500Y-119650000D03*
%TO.N,/CAN_H*%
X116275000Y-118992000D03*
X113900000Y-103835000D03*
%TO.N,/ROT_ENC_0*%
X128700224Y-95707611D03*
X133920500Y-98360000D03*
%TO.N,/ROT_ENC_1*%
X128699590Y-94978109D03*
X134450000Y-96370000D03*
D69*
%TO.N,+BATT*%
X120040000Y-81230000D03*
D68*
%TO.N,/ESP-Wifi/EN*%
X146625000Y-116400000D03*
%TO.N,/A_IN_2*%
X114600000Y-118475000D03*
%TO.N,/A_IN_3*%
X115625000Y-119475000D03*
%TO.N,Net-(D10-K)*%
X165270561Y-80979388D03*
X165650000Y-79075000D03*
%TO.N,/RX*%
X111300000Y-116550000D03*
X123450000Y-94025000D03*
%TO.N,/TX*%
X110025000Y-121000000D03*
X121638067Y-93739016D03*
X110548637Y-116500590D03*
%TO.N,/SCL1*%
X129000000Y-115475000D03*
X130860000Y-94050000D03*
X148350000Y-116025000D03*
X128490000Y-121129502D03*
%TO.N,/SDA1*%
X131740586Y-94749414D03*
X128350000Y-114540000D03*
X129720000Y-121129502D03*
%TO.N,EMG_HIGH*%
X148363498Y-104110000D03*
X145740000Y-101990000D03*
%TO.N,EMG_LOW*%
X155840000Y-90740000D03*
X155853819Y-92797760D03*
%TO.N,CHAN_0B_OUT*%
X158050000Y-96980000D03*
X154369500Y-100650000D03*
%TO.N,CHAN_1B_OUT*%
X147560000Y-99780000D03*
X153180000Y-99480500D03*
%TO.N,CHAN_3B_OUT*%
X155395242Y-95881610D03*
X157310000Y-93990000D03*
%TO.N,CHAN_4B_OUT*%
X155279500Y-92260000D03*
X158040000Y-93020000D03*
%TO.N,CHAN_5A_OUT*%
X167285586Y-92400000D03*
X164670000Y-91960000D03*
%TO.N,CHAN_6A_OUT*%
X167416488Y-88434591D03*
X164710000Y-90980000D03*
%TO.N,CHAN_7B_OUT*%
X155900000Y-88060000D03*
X156620000Y-89750000D03*
%TO.N,/SCL0*%
X131140881Y-97387946D03*
X127325000Y-117120500D03*
%TO.N,/SDA0*%
X130770500Y-98058464D03*
X126595500Y-116460000D03*
%TO.N,Net-(Q1-Pad2)*%
X141690000Y-104870000D03*
%TO.N,GNDD*%
X123025000Y-88225000D03*
X125390000Y-95110000D03*
X119350000Y-97075000D03*
X124979500Y-101159920D03*
X122168756Y-104348756D03*
X130560000Y-104310000D03*
X128143941Y-105471507D03*
X119971297Y-92621297D03*
X132940000Y-92500000D03*
X133300000Y-96840000D03*
X131350000Y-89125000D03*
%TO.N,Net-(Q7-Pad2)*%
X149859782Y-100277460D03*
%TO.N,Net-(Q9-Pad2)*%
X163225000Y-100250000D03*
%TO.N,Net-(Q11-Pad2)*%
X141850000Y-96295000D03*
%TO.N,Net-(Q14-Pad2)*%
X153725500Y-102500000D03*
%TO.N,Net-(Q15-Pad2)*%
X171525000Y-100175000D03*
%TO.N,Net-(Q17-Pad2)*%
X141966170Y-100135390D03*
%TO.N,Net-(Q18-Pad2)*%
X149866892Y-96198211D03*
%TO.N,Net-(Q20-Pad2)*%
X171425000Y-96100000D03*
%TO.N,Net-(Q22-Pad2)*%
X149978451Y-92113374D03*
%TO.N,Net-(Q23-Pad2)*%
X172390943Y-88281625D03*
%TO.N,Net-(Q26-Pad2)*%
X171424500Y-92100000D03*
%TO.N,Net-(Q27-Pad2)*%
X141857406Y-88103453D03*
%TO.N,Net-(Q30-Pad2)*%
X141850000Y-92525000D03*
%TO.N,Net-(Q31-Pad2)*%
X172323340Y-84341689D03*
%TO.N,Net-(Q34-Pad2)*%
X149922255Y-88092805D03*
%TO.N,/switch_control/CHAN_0*%
X150500000Y-97829500D03*
X143849500Y-101836297D03*
X164510000Y-86030000D03*
%TO.N,/BUZZER*%
X121096837Y-97704500D03*
X121300000Y-114125000D03*
%TO.N,/processor/CAN_CS*%
X130249518Y-101401585D03*
X120297500Y-112200000D03*
%TO.N,/processor/CAN_STBY*%
X122367051Y-106484499D03*
X128693000Y-98378000D03*
X113040000Y-105860000D03*
%TO.N,/processor/QSPI_CS*%
X132250000Y-80200000D03*
X119266571Y-92416571D03*
%TO.N,/switch_control/CHAN_1*%
X143320000Y-98070000D03*
X163709500Y-85560000D03*
X152520000Y-104720000D03*
%TO.N,/processor/CAN_RESET*%
X119725000Y-113575000D03*
X130070500Y-99125000D03*
%TO.N,/switch_control/CHAN_2*%
X140925000Y-94950000D03*
X164080000Y-86940000D03*
X162000000Y-102474500D03*
%TO.N,/switch_control/CHAN_3*%
X151175000Y-94250000D03*
X162650721Y-85680558D03*
X173050000Y-101875000D03*
%TO.N,/switch_control/CHAN_4*%
X173050000Y-97825000D03*
X161590000Y-85730000D03*
X151290000Y-90150000D03*
%TO.N,/switch_control/CHAN_6*%
X143225000Y-86025000D03*
X160150000Y-84475000D03*
X173150000Y-89634500D03*
%TO.N,/switch_control/CHAN_5*%
X173125000Y-93750000D03*
X161020000Y-84540000D03*
X143190000Y-90200000D03*
%TO.N,/switch_control/CHAN_7*%
X173100000Y-85800000D03*
X160839458Y-82595197D03*
X155925000Y-83850000D03*
%TO.N,Net-(R75-Pad1)*%
X167175000Y-105525000D03*
X168800000Y-106975000D03*
%TO.N,Net-(R76-Pad2)*%
X163525000Y-106950000D03*
%TO.N,/ENC_BUTTON*%
X168425000Y-120875000D03*
%TO.N,/~{RESET}*%
X111900068Y-118706783D03*
X129564199Y-100536974D03*
X133365233Y-90235233D03*
X138425000Y-79475000D03*
%TO.N,/TFT_CS*%
X120350000Y-97850000D03*
X104100000Y-99825000D03*
%TO.N,/SWDIO*%
X110825000Y-118529500D03*
X128755550Y-100613363D03*
%TO.N,/SWCLK*%
X108800000Y-118557998D03*
X127900001Y-100835501D03*
%TO.N,unconnected-(U7-Pad1)*%
X160334502Y-80269500D03*
%TO.N,/SCK0*%
X119014500Y-94500000D03*
%TO.N,/MOSI0*%
X119743094Y-94536398D03*
%TO.N,/MISO0*%
X103450000Y-94400000D03*
X120384567Y-95065898D03*
%TO.N,/SD_CS*%
X120100000Y-96300000D03*
%TO.N,/TFT_DC*%
X119883546Y-95595500D03*
X103800000Y-97250000D03*
%TO.N,/processor/SCK1*%
X122156337Y-98992921D03*
X113290555Y-112661976D03*
%TO.N,/processor/MOSI1*%
X113031647Y-113387573D03*
X122969124Y-99777584D03*
%TO.N,/processor/MISO1*%
X123525000Y-100250000D03*
X112675000Y-114100000D03*
%TO.N,/processor/ENC_CTL_0*%
X159924413Y-83374413D03*
X123600000Y-98378000D03*
X131975000Y-84150000D03*
X165343672Y-83130500D03*
X137706983Y-83960499D03*
%TO.N,/processor/ENC_CTL_1*%
X137209629Y-84493841D03*
X124303419Y-97777931D03*
X164096030Y-81269500D03*
X131262869Y-84689499D03*
X158825000Y-83879500D03*
%TO.N,/processor/ENC_CTL_2*%
X124925000Y-98225000D03*
X163370462Y-81345166D03*
X137715453Y-85019499D03*
X158365318Y-84595500D03*
X131900000Y-85218999D03*
%TO.N,/processor/~{Tx0RTS}*%
X122140422Y-107177906D03*
X118675000Y-105800000D03*
X129011000Y-99300000D03*
%TO.N,/processor/CAN_INT*%
X112817019Y-112107054D03*
X130627378Y-96280905D03*
X114954085Y-114363567D03*
%TO.N,/processor/~{Rx0BF}*%
X113370789Y-111577554D03*
X115475005Y-113376380D03*
X130427000Y-95579462D03*
%TO.N,Net-(U13-TXD)*%
X112750000Y-106563498D03*
X116840400Y-103718500D03*
%TO.N,GNDREF*%
X153957998Y-88350500D03*
X154700000Y-90860000D03*
X160334502Y-80999500D03*
X154450338Y-98708489D03*
X156405498Y-102275000D03*
X165860000Y-81770000D03*
X154358430Y-94919868D03*
X160330000Y-79050000D03*
%TO.N,SWITCHING_3V3*%
X151280000Y-105054500D03*
X172800000Y-83150000D03*
X151499606Y-89450207D03*
X165950000Y-83650000D03*
X163200000Y-79150000D03*
X151581787Y-97379500D03*
X148025000Y-83275000D03*
X151242000Y-86225000D03*
X164750000Y-81828102D03*
X148175000Y-86125000D03*
X147275000Y-76225000D03*
X151677149Y-93394649D03*
%TO.N,/processor/A_IN_2_PIN*%
X128699947Y-94238519D03*
X113900399Y-115417253D03*
%TO.N,/processor/A_IN_3_PIN*%
X113371326Y-115946326D03*
X128739144Y-93510070D03*
%TO.N,GND*%
X111750000Y-93625000D03*
X165875000Y-105450000D03*
X143925000Y-110850000D03*
X114875000Y-102625000D03*
X117375000Y-118000000D03*
X140525000Y-118450000D03*
X143850000Y-115225000D03*
X135675000Y-93475000D03*
X139275000Y-77225000D03*
X108750000Y-112975000D03*
X113445498Y-122475000D03*
X104850000Y-91125000D03*
X139475000Y-81000000D03*
X105625000Y-102300000D03*
X112700000Y-97750000D03*
X117875000Y-102375000D03*
X107525000Y-121100000D03*
X105650000Y-109325000D03*
X113041195Y-120594842D03*
X110425000Y-121725000D03*
X111100000Y-98625000D03*
X113225000Y-110675000D03*
X152425000Y-118575000D03*
X117350000Y-116500000D03*
D69*
X118425000Y-101700000D03*
D68*
X108550000Y-101550000D03*
X126304500Y-120475000D03*
X116825000Y-96984500D03*
X136825000Y-76227500D03*
X108275000Y-102525000D03*
X120750000Y-105200000D03*
X147250000Y-112600000D03*
X131000000Y-121129502D03*
X110850000Y-91150000D03*
X112550000Y-103025000D03*
X136350000Y-109075000D03*
X137019500Y-86575000D03*
X107150000Y-108900000D03*
X111525000Y-101775000D03*
X111550000Y-104675000D03*
X109326502Y-110450000D03*
X156475000Y-111075000D03*
X151775000Y-107375000D03*
X117950000Y-119750000D03*
X134150000Y-76202500D03*
X107075000Y-107525000D03*
%TO.N,/RXD*%
X143000000Y-120400000D03*
%TO.N,/TXD*%
X141775000Y-121500000D03*
%TO.N,/ESP-Wifi/GPIO0*%
X138850000Y-115150000D03*
%TO.N,Net-(U16-IO13)*%
X149775000Y-111075000D03*
%TO.N,Net-(U16-SCLK)*%
X137300000Y-107550000D03*
%TO.N,Net-(U16-CS0)*%
X147300000Y-107575000D03*
%TO.N,Net-(U16-MOSI)*%
X139250000Y-107625000D03*
%TO.N,Net-(U16-MISO)*%
X145275000Y-107575000D03*
%TO.N,Net-(U16-IO12)*%
X149800000Y-113075000D03*
%TO.N,Net-(U16-IO5)*%
X134725000Y-119075000D03*
%TO.N,Net-(U16-IO9)*%
X143250000Y-107575000D03*
%TO.N,Net-(U16-IO10)*%
X141275000Y-107525000D03*
%TO.N,Net-(U16-RESET)*%
X149750000Y-123100000D03*
%TO.N,/ESP-Wifi/ESP_INT*%
X127925000Y-107600000D03*
X133075000Y-116950000D03*
X121605204Y-96504045D03*
%TD*%
D70*
%TO.N,/peripherals/~{TFT_RESET}*%
X105630000Y-123255000D02*
X105625000Y-123250000D01*
X106650000Y-123255000D02*
X105630000Y-123255000D01*
%TO.N,Net-(U10-USB_D+)*%
X127125000Y-92375000D02*
X127125000Y-90350000D01*
X127125000Y-90350000D02*
X127100000Y-90325000D01*
D71*
%TO.N,/USB_D-*%
X128052500Y-87000000D02*
G75*
G03*
X128417500Y-87365000I365000J0D01*
G01*
X127350000Y-85325000D02*
X128052500Y-86027500D01*
X129052500Y-87730000D02*
G75*
G03*
X128687500Y-87365000I-365000J0D01*
G01*
X128417500Y-88095000D02*
G75*
G03*
X128052500Y-88460000I0J-365000D01*
G01*
X128225000Y-88699999D02*
X128225000Y-89150000D01*
X128687500Y-88095000D02*
G75*
G03*
X129052500Y-87730000I0J365000D01*
G01*
X128052500Y-86027500D02*
X128052500Y-87000000D01*
X128687500Y-88095000D02*
X128417500Y-88095000D01*
X127350000Y-84425000D02*
X127350000Y-85325000D01*
X128052500Y-88527499D02*
X128225000Y-88699999D01*
X128417500Y-87365000D02*
X128687500Y-87365000D01*
X128052500Y-88460000D02*
X128052500Y-88527499D01*
D70*
X127350000Y-84425000D02*
X127350000Y-84275000D01*
%TO.N,/USB_D+*%
X125925000Y-84350000D02*
X125925000Y-83350000D01*
D71*
X127150000Y-86157376D02*
X127150000Y-89150000D01*
X125925000Y-84350000D02*
X125925000Y-84932376D01*
X125925000Y-84932376D02*
X127150000Y-86157376D01*
D70*
%TO.N,/USB_D-*%
X126385000Y-83445000D02*
X126385000Y-83935000D01*
X127305000Y-84320000D02*
X127350000Y-84275000D01*
X126505000Y-84055000D02*
X126505000Y-84250000D01*
X126385000Y-83935000D02*
X126505000Y-84055000D01*
X126505000Y-84250000D02*
X126575000Y-84320000D01*
X126575000Y-84320000D02*
X127305000Y-84320000D01*
%TO.N,Net-(U1-CC1)*%
X128825000Y-86075000D02*
X128825000Y-85375000D01*
X127900000Y-84450000D02*
X127900000Y-83300000D01*
X128825000Y-85375000D02*
X127900000Y-84450000D01*
%TO.N,GND*%
X130025000Y-83625000D02*
X129875000Y-83475000D01*
X130525000Y-86075000D02*
X130025000Y-85575000D01*
X130025000Y-85575000D02*
X130025000Y-83625000D01*
%TO.N,Net-(U10-USB_D-)*%
X127525000Y-92375000D02*
X127525000Y-91025000D01*
X127525000Y-91025000D02*
X128300000Y-90250000D01*
%TO.N,+3V3*%
X126075000Y-90891968D02*
X126075000Y-89350000D01*
X126050000Y-89325000D02*
X125025000Y-89325000D01*
X126325000Y-92375000D02*
X126325000Y-91141968D01*
X126325000Y-91141968D02*
X126075000Y-90891968D01*
X126075000Y-89350000D02*
X126050000Y-89325000D01*
X125025000Y-89325000D02*
X125000000Y-89350000D01*
%TO.N,GNDD*%
X126050000Y-88225000D02*
X123925000Y-88225000D01*
%TO.N,+1V1*%
X129300000Y-90250000D02*
X129300000Y-90550000D01*
X129300000Y-90550000D02*
X127925000Y-91925000D01*
X127925000Y-91925000D02*
X127925000Y-92375000D01*
%TO.N,GNDD*%
X129300000Y-89150000D02*
X131325000Y-89150000D01*
X131325000Y-89150000D02*
X131350000Y-89125000D01*
%TO.N,+3V3*%
X129550000Y-92375000D02*
X129550000Y-91025000D01*
X129550000Y-91025000D02*
X130325000Y-90250000D01*
X130375000Y-90250000D02*
X131450000Y-90250000D01*
%TO.N,Net-(U10-XIN)*%
X122900000Y-102700000D02*
X123330000Y-102270000D01*
X124285000Y-100990000D02*
X125525000Y-99750000D01*
X125525000Y-99750000D02*
X125525000Y-99245000D01*
X123330000Y-102270000D02*
X124260000Y-102270000D01*
X124285000Y-102285000D02*
X124285000Y-100990000D01*
X122900000Y-103300000D02*
X122900000Y-102700000D01*
%TO.N,Net-(C5-Pad1)*%
X125890000Y-104485000D02*
X127225000Y-103150000D01*
X127225000Y-104450000D02*
X126075000Y-104450000D01*
X126075000Y-104450000D02*
X126050000Y-104475000D01*
X125885000Y-104485000D02*
X125890000Y-104485000D01*
D72*
%TO.N,/regulator/SYS_PWR*%
X107645000Y-90345000D02*
X107645000Y-87215000D01*
X109980000Y-93150000D02*
X108800000Y-93150000D01*
D70*
X120900000Y-81600000D02*
X120080000Y-82420000D01*
D72*
X108450000Y-91150000D02*
X107645000Y-90345000D01*
D70*
X109225000Y-101675000D02*
X109375000Y-101525000D01*
X143900000Y-83275000D02*
X142225000Y-81600000D01*
X109430000Y-101585000D02*
X109430000Y-100755000D01*
X143900000Y-83275000D02*
X146690000Y-83275000D01*
X109225000Y-103425000D02*
X109225000Y-101675000D01*
D72*
X110750000Y-84110000D02*
X120050000Y-84110000D01*
X108710000Y-93150000D02*
X108710000Y-91410000D01*
X108800000Y-93150000D02*
X108775000Y-93175000D01*
X107645000Y-87215000D02*
X110750000Y-84110000D01*
X108710000Y-91410000D02*
X108450000Y-91150000D01*
D70*
X142225000Y-81600000D02*
X120900000Y-81600000D01*
X108725000Y-94100000D02*
X108750000Y-94075000D01*
X108750000Y-94075000D02*
X108750000Y-93850000D01*
X109430000Y-100755000D02*
X109425000Y-100750000D01*
D72*
X120040000Y-84120000D02*
X119970000Y-84190000D01*
X120040000Y-82430000D02*
X120040000Y-84120000D01*
D70*
%TO.N,+3V3*%
X121875000Y-110958310D02*
X120300000Y-109383310D01*
X131825000Y-96825500D02*
X131825000Y-96800000D01*
X126725000Y-92375000D02*
X126325000Y-92375000D01*
X121875000Y-111175000D02*
X121875000Y-110958310D01*
X121700000Y-119875000D02*
X122475000Y-119875000D01*
X130800000Y-119850000D02*
X131775000Y-119850000D01*
X151800000Y-109125000D02*
X150025000Y-109125000D01*
X131835000Y-93235000D02*
X131835000Y-92515000D01*
X102875000Y-106525000D02*
X102300000Y-105950000D01*
X122690000Y-93210000D02*
X121350000Y-93210000D01*
X111750000Y-91675000D02*
X111775000Y-91650000D01*
X131835000Y-92515000D02*
X131850000Y-92500000D01*
X126325000Y-99245000D02*
X126325000Y-100533310D01*
X130995000Y-119655000D02*
X130995000Y-119300000D01*
X136310000Y-93100000D02*
X136530000Y-93320000D01*
X127486690Y-101695000D02*
X127905000Y-101695000D01*
X120130466Y-97320000D02*
X120305000Y-97320000D01*
X119577101Y-97873365D02*
X120130466Y-97320000D01*
X120535000Y-93210000D02*
X120525000Y-93200000D01*
X121350000Y-93210000D02*
X120535000Y-93210000D01*
X107120000Y-91150000D02*
X106425000Y-91150000D01*
X115985000Y-99125000D02*
X116000000Y-99140000D01*
X120560000Y-93210000D02*
X120500000Y-93150000D01*
X132529500Y-97530000D02*
X131825000Y-96825500D01*
X107440000Y-93150000D02*
X107440000Y-91315000D01*
X113550000Y-91610000D02*
X113550000Y-90800000D01*
X129560000Y-92385000D02*
X129550000Y-92375000D01*
X126325000Y-99245000D02*
X126325000Y-98170500D01*
X121890675Y-96950001D02*
X122090745Y-96950001D01*
X128325000Y-92375000D02*
X128725000Y-92375000D01*
X105625000Y-106525000D02*
X102875000Y-106525000D01*
X105625000Y-107150000D02*
X105650000Y-107175000D01*
X107440000Y-91315000D02*
X107275000Y-91150000D01*
X136310000Y-91520000D02*
X136310000Y-93100000D01*
X109870000Y-112770000D02*
X109850000Y-112750000D01*
X111750000Y-92525000D02*
X111750000Y-91675000D01*
X136290000Y-91500000D02*
X136310000Y-91520000D01*
X120800000Y-97175000D02*
X121665676Y-97175000D01*
X127905000Y-101695000D02*
X128360000Y-102150000D01*
X116129999Y-104021691D02*
X115825000Y-104326690D01*
X112625000Y-122075000D02*
X112625000Y-121300000D01*
X117900000Y-113700000D02*
X118725000Y-113700000D01*
X115275000Y-99125000D02*
X115985000Y-99125000D01*
X120625000Y-97000000D02*
X120800000Y-97175000D01*
X129560000Y-93210000D02*
X129560000Y-92385000D01*
X105625000Y-106525000D02*
X105625000Y-107150000D01*
X120300000Y-109383310D02*
X120300000Y-108625000D01*
X117900000Y-112300000D02*
X117900000Y-113700000D01*
X131810000Y-93210000D02*
X131835000Y-93235000D01*
X120305000Y-97320000D02*
X120625000Y-97000000D01*
X136290000Y-91500000D02*
X136290000Y-90030000D01*
X131840000Y-96810000D02*
X131850000Y-96800000D01*
X119577101Y-97928988D02*
X119577101Y-97873365D01*
X129560000Y-96810000D02*
X131840000Y-96810000D01*
X126325000Y-98170500D02*
X126079500Y-97925000D01*
X122620000Y-96880000D02*
X122690000Y-96810000D01*
X129560000Y-93210000D02*
X131810000Y-93210000D01*
X118675000Y-108475000D02*
X120375000Y-108475000D01*
X122090745Y-96950001D02*
X122160746Y-96880000D01*
X121665676Y-97175000D02*
X121890675Y-96950001D01*
X126325000Y-100533310D02*
X127486690Y-101695000D01*
X109870000Y-114660039D02*
X109870000Y-112770000D01*
X130800000Y-119850000D02*
X130995000Y-119655000D01*
X116130000Y-103049500D02*
X116129999Y-104021691D01*
X149800000Y-109075000D02*
X148350000Y-109075000D01*
X122160746Y-96880000D02*
X122620000Y-96880000D01*
X115825000Y-104326690D02*
X115825000Y-104975000D01*
X150025000Y-109125000D02*
X149975000Y-109075000D01*
X116329500Y-102850000D02*
X116130000Y-103049500D01*
X129550000Y-92375000D02*
X128725000Y-92375000D01*
%TO.N,+1V1*%
X127673380Y-101365000D02*
X128041691Y-101365001D01*
X127925000Y-92967811D02*
X127925000Y-92325000D01*
X129100000Y-101575000D02*
X129435000Y-101910000D01*
X126725000Y-98789000D02*
X127952000Y-97562000D01*
X126142689Y-93039500D02*
X127853311Y-93039500D01*
X126725000Y-99245000D02*
X126725000Y-100416620D01*
X127952000Y-93138189D02*
X127853311Y-93039500D01*
X128251690Y-101575000D02*
X129100000Y-101575000D01*
X128041691Y-101365001D02*
X128251690Y-101575000D01*
X126725000Y-100416620D02*
X127673380Y-101365000D01*
X124066342Y-89350000D02*
X123950000Y-89350000D01*
X125925000Y-92375000D02*
X125925000Y-91208658D01*
X127853311Y-93039500D02*
X127925000Y-92967811D01*
X126725000Y-99245000D02*
X126725000Y-98789000D01*
X125925000Y-92375000D02*
X125925000Y-92821811D01*
X125925000Y-91208658D02*
X124066342Y-89350000D01*
X127952000Y-97562000D02*
X127952000Y-93138189D01*
X125925000Y-92821811D02*
X126142689Y-93039500D01*
%TO.N,+5V*%
X110705000Y-106355000D02*
X109305000Y-106355000D01*
X112975000Y-108475000D02*
X112275000Y-108475000D01*
X105625000Y-105200000D02*
X106184000Y-105200000D01*
X112275000Y-108475000D02*
X112248000Y-108448000D01*
X109250000Y-105850000D02*
X109250000Y-106125000D01*
X108608000Y-105208000D02*
X109250000Y-105850000D01*
X106192000Y-105208000D02*
X108608000Y-105208000D01*
X112248000Y-107873000D02*
X110775000Y-106400000D01*
X112248000Y-108448000D02*
X112248000Y-107873000D01*
X109305000Y-106355000D02*
X109275000Y-106325000D01*
X106184000Y-105200000D02*
X106192000Y-105208000D01*
%TO.N,Net-(C21-Pad1)*%
X108875000Y-107525000D02*
X108850000Y-107500000D01*
X109800000Y-107525000D02*
X108875000Y-107525000D01*
X110400000Y-108150000D02*
X109850000Y-107600000D01*
X110400000Y-108900000D02*
X110400000Y-108150000D01*
%TO.N,Net-(U13-OSC1)*%
X108977000Y-111277000D02*
X111327000Y-111277000D01*
X111327000Y-111277000D02*
X111327000Y-110723000D01*
X112225000Y-109825000D02*
X112900000Y-109825000D01*
X111327000Y-110723000D02*
X112225000Y-109825000D01*
X108200000Y-110500000D02*
X108977000Y-111277000D01*
X107950000Y-110850000D02*
X108050000Y-110750000D01*
X106675000Y-110850000D02*
X107950000Y-110850000D01*
%TO.N,/CAN_L*%
X116804500Y-119650000D02*
X116804500Y-120212810D01*
X115800000Y-103885000D02*
X115800000Y-101475000D01*
X117200000Y-101250000D02*
X116125000Y-101250000D01*
X115175000Y-104510000D02*
X115800000Y-103885000D01*
X117570845Y-120979155D02*
X119145845Y-120979155D01*
X119200000Y-120925000D02*
X119200000Y-119875000D01*
X119145845Y-120979155D02*
X119200000Y-120925000D01*
X116125000Y-101250000D02*
X115850000Y-101525000D01*
X115175000Y-104975000D02*
X115175000Y-104510000D01*
X116804500Y-120212810D02*
X117570845Y-120979155D01*
%TO.N,/CAN_H*%
X117450000Y-121325000D02*
X116275000Y-120150000D01*
X114525000Y-104975000D02*
X114525000Y-104460000D01*
X120450000Y-119875000D02*
X120450000Y-120425000D01*
X113800000Y-101275000D02*
X113950000Y-101425000D01*
X120450000Y-120425000D02*
X119550000Y-121325000D01*
X112550000Y-101275000D02*
X113800000Y-101275000D01*
X113900000Y-103835000D02*
X113900000Y-101525000D01*
X116275000Y-120150000D02*
X116275000Y-118992000D01*
X114525000Y-104460000D02*
X113900000Y-103835000D01*
X119550000Y-121325000D02*
X117450000Y-121325000D01*
%TO.N,/ROT_ENC_0*%
X128797835Y-95610000D02*
X129560000Y-95610000D01*
X128700224Y-95707611D02*
X128797835Y-95610000D01*
%TO.N,/ROT_ENC_1*%
X128931481Y-95210000D02*
X129560000Y-95210000D01*
X128699590Y-94978109D02*
X128931481Y-95210000D01*
%TO.N,Net-(D3-K)*%
X137450000Y-78750000D02*
X137450000Y-78500000D01*
X137327500Y-78402500D02*
X133125000Y-78402500D01*
X137400000Y-78330000D02*
X137327500Y-78402500D01*
X137575000Y-78445000D02*
X137550000Y-78420000D01*
X137450000Y-78500000D02*
X137575000Y-78375000D01*
X136425000Y-79775000D02*
X137450000Y-78750000D01*
%TO.N,Net-(D3-A)*%
X133625000Y-79550000D02*
X134700000Y-79550000D01*
X134900000Y-79775000D02*
X134975000Y-79850000D01*
X134725000Y-79775000D02*
X134900000Y-79775000D01*
X134700000Y-79550000D02*
X135000000Y-79850000D01*
%TO.N,VUSB*%
X124270000Y-86110000D02*
X124270000Y-83430000D01*
X128365000Y-82240000D02*
X124905000Y-82240000D01*
X124430000Y-82715000D02*
X124430000Y-83475000D01*
X120030000Y-86960000D02*
X123420000Y-86960000D01*
X128835000Y-83395000D02*
X128835000Y-82710000D01*
X123420000Y-86960000D02*
X124270000Y-86110000D01*
X124905000Y-82240000D02*
X124430000Y-82715000D01*
X128835000Y-82710000D02*
X128365000Y-82240000D01*
D72*
%TO.N,+BATT*%
X120040000Y-79630000D02*
X120040000Y-81230000D01*
D70*
%TO.N,/ESP-Wifi/EN*%
X149800000Y-119075000D02*
X149300000Y-119075000D01*
X149300000Y-119075000D02*
X146625000Y-116400000D01*
%TO.N,/A_IN_2*%
X114600000Y-118475000D02*
X114600000Y-118100000D01*
%TO.N,/A_IN_3*%
X115550000Y-119400000D02*
X115625000Y-119475000D01*
X114700000Y-119400000D02*
X115550000Y-119400000D01*
%TO.N,Net-(D10-K)*%
X165650000Y-79075000D02*
X165675000Y-79100000D01*
X162180000Y-81280000D02*
X162180000Y-82210000D01*
X165270561Y-80979388D02*
X164701173Y-80410000D01*
X164701173Y-80410000D02*
X163050000Y-80410000D01*
X165650000Y-79925000D02*
X167425000Y-81700000D01*
X163050000Y-80410000D02*
X162180000Y-81280000D01*
X165650000Y-79075000D02*
X165650000Y-79925000D01*
X167425000Y-81700000D02*
X167425000Y-82025000D01*
%TO.N,/RX*%
X122690000Y-94010000D02*
X123435000Y-94010000D01*
X123435000Y-94010000D02*
X123450000Y-94025000D01*
%TO.N,/TX*%
X122690000Y-93610000D02*
X121767083Y-93610000D01*
X121767083Y-93610000D02*
X121638067Y-93739016D01*
%TO.N,/SCL1*%
X130860000Y-94050000D02*
X133130000Y-94050000D01*
X149800000Y-115075000D02*
X149300000Y-115075000D01*
X135000000Y-88633310D02*
X135000000Y-86410000D01*
X133950001Y-89683309D02*
X135000000Y-88633310D01*
X128300000Y-119850000D02*
X128490000Y-120040000D01*
X149300000Y-115075000D02*
X148350000Y-116025000D01*
X128495000Y-115980000D02*
X128495000Y-119655000D01*
X128490000Y-120040000D02*
X128490000Y-121129502D01*
X130500000Y-94410000D02*
X129560000Y-94410000D01*
X133950000Y-93230000D02*
X133950001Y-89683309D01*
X128495000Y-119655000D02*
X128300000Y-119850000D01*
X130860000Y-94050000D02*
X130500000Y-94410000D01*
X129000000Y-115475000D02*
X128495000Y-115980000D01*
X133130000Y-94050000D02*
X133950000Y-93230000D01*
%TO.N,/SDA1*%
X129550000Y-119850000D02*
X129720000Y-120020000D01*
X129745000Y-115170000D02*
X129745000Y-119655000D01*
X134280000Y-93366690D02*
X134280000Y-89820000D01*
X132897276Y-94749414D02*
X134280000Y-93366690D01*
X136350000Y-87750000D02*
X136350000Y-86640000D01*
X131840000Y-113075000D02*
X129745000Y-115170000D01*
X128350000Y-114540000D02*
X129115000Y-114540000D01*
X131680000Y-94810000D02*
X129560000Y-94810000D01*
X131740586Y-94749414D02*
X132897276Y-94749414D01*
X129745000Y-119655000D02*
X129550000Y-119850000D01*
X129115000Y-114540000D02*
X129745000Y-115170000D01*
X131740586Y-94749414D02*
X131680000Y-94810000D01*
X134280000Y-89820000D02*
X136350000Y-87750000D01*
X134800000Y-113075000D02*
X131840000Y-113075000D01*
X129720000Y-120020000D02*
X129720000Y-121129502D01*
%TO.N,EMG_HIGH*%
X167175000Y-95125000D02*
X167855000Y-95125000D01*
X156279314Y-102905000D02*
X157895000Y-102905000D01*
X145756853Y-101980000D02*
X145750000Y-101980000D01*
X157895000Y-102905000D02*
X157975000Y-102825000D01*
X148770000Y-104090000D02*
X155094314Y-104090000D01*
X167150000Y-103025000D02*
X167325000Y-103025000D01*
X167855000Y-95125000D02*
X168040000Y-95310000D01*
X167380000Y-89740000D02*
X168780000Y-89740000D01*
X167970000Y-102380000D02*
X167970000Y-99870000D01*
X159605000Y-79740000D02*
X164780707Y-79740000D01*
X167245000Y-95025000D02*
X168050000Y-94220000D01*
X168005000Y-86315000D02*
X167320000Y-87000000D01*
X167150000Y-95025000D02*
X167245000Y-95025000D01*
X167340000Y-98130000D02*
X167740000Y-98130000D01*
X167970000Y-99870000D02*
X167225000Y-99125000D01*
X146930000Y-102280000D02*
X146630000Y-101980000D01*
X168040000Y-95310000D02*
X168040000Y-96630000D01*
X167370000Y-91050000D02*
X167200000Y-91050000D01*
X168080000Y-90995000D02*
X168075000Y-91000000D01*
X168080000Y-90640000D02*
X168080000Y-90995000D01*
X165825000Y-101875000D02*
X159050000Y-101875000D01*
X167780000Y-90340000D02*
X167380000Y-90340000D01*
X167175000Y-91000000D02*
X168075000Y-91000000D01*
X155094314Y-104090000D02*
X156279314Y-102905000D01*
X148750000Y-104110000D02*
X148770000Y-104090000D01*
X168740000Y-97530000D02*
X167340000Y-97530000D01*
X148750000Y-104110000D02*
X148363498Y-104110000D01*
X168050000Y-91730000D02*
X167370000Y-91050000D01*
X148750000Y-104835000D02*
X148750000Y-104110000D01*
X164780707Y-79740000D02*
X166390000Y-81349293D01*
X159050000Y-101875000D02*
X158100000Y-102825000D01*
X166975000Y-103025000D02*
X165825000Y-101875000D01*
X168040000Y-98430000D02*
X168040000Y-98910000D01*
X167150000Y-103025000D02*
X166975000Y-103025000D01*
X167320000Y-87000000D02*
X167175000Y-87000000D01*
X168050000Y-94220000D02*
X168050000Y-91730000D01*
X146630000Y-101980000D02*
X145756853Y-101980000D01*
X166390000Y-81349293D02*
X166390000Y-82195000D01*
X158100000Y-102825000D02*
X158000000Y-102825000D01*
X168375000Y-89140000D02*
X168780000Y-89140000D01*
X167940000Y-99010000D02*
X167140000Y-99010000D01*
X166390000Y-82195000D02*
X168005000Y-83810000D01*
X145750000Y-101980000D02*
X145740000Y-101990000D01*
X168040000Y-98910000D02*
X167940000Y-99010000D01*
X168340000Y-96930000D02*
X168740000Y-96930000D01*
X168075000Y-87800000D02*
X168075000Y-88840000D01*
X168005000Y-83810000D02*
X168005000Y-86315000D01*
X167325000Y-103025000D02*
X167970000Y-102380000D01*
X167250000Y-86975000D02*
X168075000Y-87800000D01*
X168075000Y-88840000D02*
G75*
G03*
X168375000Y-89140000I300000J0D01*
G01*
X169080000Y-89440000D02*
G75*
G03*
X168780000Y-89140000I-300000J0D01*
G01*
X167040000Y-97830000D02*
G75*
G03*
X167340000Y-98130000I300000J0D01*
G01*
X168040000Y-96630000D02*
G75*
G03*
X168340000Y-96930000I300000J0D01*
G01*
X168780000Y-89740000D02*
G75*
G03*
X169080000Y-89440000I0J300000D01*
G01*
X168080000Y-90640000D02*
G75*
G03*
X167780000Y-90340000I-300000J0D01*
G01*
X169040000Y-97230000D02*
G75*
G03*
X168740000Y-96930000I-300000J0D01*
G01*
X168740000Y-97530000D02*
G75*
G03*
X169040000Y-97230000I0J300000D01*
G01*
X168040000Y-98430000D02*
G75*
G03*
X167740000Y-98130000I-300000J0D01*
G01*
X167380000Y-89740000D02*
G75*
G03*
X167080000Y-90040000I0J-300000D01*
G01*
X167080000Y-90040000D02*
G75*
G03*
X167380000Y-90340000I300000J0D01*
G01*
X167340000Y-97530000D02*
G75*
G03*
X167040000Y-97830000I0J-300000D01*
G01*
%TO.N,EMG_LOW*%
X155840000Y-90360000D02*
X154995000Y-89515000D01*
X146195000Y-93620000D02*
X146980000Y-93620000D01*
X158360000Y-80659466D02*
X157834733Y-81184733D01*
X154985000Y-93610000D02*
X154775000Y-93820000D01*
X145495000Y-95100000D02*
X146895000Y-95100000D01*
X157410468Y-81184733D02*
X157127625Y-80901890D01*
X146987500Y-85525000D02*
X147155000Y-85525000D01*
X146987500Y-85525000D02*
X147122500Y-85525000D01*
X156208387Y-83376765D02*
X155925545Y-83093923D01*
X154790000Y-93560000D02*
X155000000Y-93560000D01*
X146895000Y-94500000D02*
X146495000Y-94500000D01*
X154775000Y-93820000D02*
X154710000Y-93820000D01*
X147130000Y-97600000D02*
X147889500Y-98359500D01*
X154987500Y-84031966D02*
X154987500Y-85510000D01*
X145495000Y-96300000D02*
X145895000Y-96300000D01*
X146835000Y-85525000D02*
X146062500Y-86297500D01*
X155925545Y-83093923D02*
X155713411Y-82881789D01*
X156986203Y-81608996D02*
X157693311Y-82316105D01*
X157410467Y-81184733D02*
X157410468Y-81184733D01*
X147155000Y-85525000D02*
X147800000Y-84880000D01*
X155165000Y-89555000D02*
X155000000Y-89555000D01*
X146987500Y-85525000D02*
X146835000Y-85525000D01*
X155854833Y-82174683D02*
X156349807Y-82669657D01*
X155150000Y-93501579D02*
X155150000Y-93560000D01*
X154710000Y-93820000D02*
X153750000Y-94780000D01*
X147800000Y-84880000D02*
X154250000Y-84880000D01*
X147150000Y-89570000D02*
X148270000Y-90690000D01*
X152140283Y-94780000D02*
X148270000Y-94780000D01*
X155840000Y-90740000D02*
X155840000Y-90360000D01*
X158360000Y-80040000D02*
X158360000Y-80659466D01*
X146180748Y-97090748D02*
X146179064Y-97090748D01*
X154790000Y-97620000D02*
X154980000Y-97620000D01*
X145895000Y-95700000D02*
X145495000Y-95700000D01*
X153630000Y-90690000D02*
X154810000Y-89510000D01*
X155289146Y-82881790D02*
X155289147Y-82881789D01*
X157269047Y-82740369D02*
X156774073Y-82245395D01*
X153750000Y-94780000D02*
X153490000Y-94780000D01*
X147010000Y-97600000D02*
X147130000Y-97600000D01*
X145895000Y-96900000D02*
X145495000Y-96900000D01*
X146690000Y-97600000D02*
X146180748Y-97090748D01*
X154050500Y-98359500D02*
X154790000Y-97620000D01*
X148270000Y-94780000D02*
X147250000Y-93760000D01*
X153190000Y-95080000D02*
X153190000Y-95480000D01*
X147889500Y-98359500D02*
X154050500Y-98359500D01*
X146195000Y-94200000D02*
X146195000Y-93620000D01*
X156349807Y-82669657D02*
X156632651Y-82952501D01*
X152590000Y-95480000D02*
X152590000Y-95080000D01*
X152290000Y-94780000D02*
X152140283Y-94780000D01*
X156703361Y-81326154D02*
X156986203Y-81608996D01*
X147010000Y-97600000D02*
X146690000Y-97600000D01*
X154810000Y-89510000D02*
X154900000Y-89510000D01*
X155289147Y-83730317D02*
X154987500Y-84031966D01*
X155289146Y-83730318D02*
X155289147Y-83730317D01*
X148270000Y-90690000D02*
X153630000Y-90690000D01*
X146062500Y-86297500D02*
X146062500Y-88790000D01*
X154250000Y-84880000D02*
X154930000Y-85560000D01*
X146062500Y-88790000D02*
X146807500Y-89535000D01*
X156774073Y-82245395D02*
X156279097Y-81750419D01*
X155853819Y-92797760D02*
X155150000Y-93501579D01*
X156208388Y-83376764D02*
G75*
G03*
X156632650Y-83376764I212131J212131D01*
G01*
X155713431Y-82881769D02*
G75*
G03*
X155289147Y-82881791I-212131J-212131D01*
G01*
X157410467Y-81184733D02*
G75*
G03*
X157834733Y-81184733I212133J212134D01*
G01*
X157269048Y-82740368D02*
G75*
G03*
X157693310Y-82740368I212131J212131D01*
G01*
X152590000Y-95480000D02*
G75*
G03*
X152890000Y-95780000I300000J0D01*
G01*
X146195000Y-94200000D02*
G75*
G03*
X146495000Y-94500000I300000J0D01*
G01*
X152890000Y-95780000D02*
G75*
G03*
X153190000Y-95480000I0J300000D01*
G01*
X156632618Y-83376732D02*
G75*
G03*
X156632651Y-82952501I-212118J212132D01*
G01*
X155289161Y-83730333D02*
G75*
G03*
X155289147Y-83306053I-212161J212133D01*
G01*
X157693273Y-82740331D02*
G75*
G03*
X157693310Y-82316106I-212073J212131D01*
G01*
X155289126Y-82881768D02*
G75*
G03*
X155289147Y-83306053I212174J-212132D01*
G01*
X146179014Y-97090769D02*
G75*
G03*
X145895000Y-96900000I-288714J-123031D01*
G01*
X156279096Y-81750420D02*
G75*
G03*
X155854834Y-81750420I-212131J-212131D01*
G01*
X145495000Y-96300000D02*
G75*
G03*
X145195000Y-96600000I0J-300000D01*
G01*
X157127624Y-80901891D02*
G75*
G03*
X156703362Y-80901891I-212131J-212131D01*
G01*
X145195000Y-95400000D02*
G75*
G03*
X145495000Y-95700000I300000J0D01*
G01*
X146895000Y-95100000D02*
G75*
G03*
X147195000Y-94800000I0J300000D01*
G01*
X147195000Y-94800000D02*
G75*
G03*
X146895000Y-94500000I-300000J0D01*
G01*
X152590000Y-95080000D02*
G75*
G03*
X152290000Y-94780000I-300000J0D01*
G01*
X146195000Y-96000000D02*
G75*
G03*
X145895000Y-95700000I-300000J0D01*
G01*
X153490000Y-94780000D02*
G75*
G03*
X153190000Y-95080000I0J-300000D01*
G01*
X145495000Y-95100000D02*
G75*
G03*
X145195000Y-95400000I0J-300000D01*
G01*
X145195000Y-96600000D02*
G75*
G03*
X145495000Y-96900000I300000J0D01*
G01*
X155854882Y-81750468D02*
G75*
G03*
X155854833Y-82174683I212118J-212132D01*
G01*
X145895000Y-96300000D02*
G75*
G03*
X146195000Y-96000000I0J300000D01*
G01*
X156703339Y-80901868D02*
G75*
G03*
X156703361Y-81326154I212161J-212132D01*
G01*
%TO.N,CHAN_0A_OUT*%
X148320000Y-101265000D02*
X155265000Y-101265000D01*
X162809597Y-99240000D02*
X163550000Y-98499597D01*
X147833498Y-104036502D02*
X147833498Y-101751502D01*
X155265000Y-101265000D02*
X156545000Y-99985000D01*
X163550000Y-96991825D02*
X163548175Y-96990000D01*
X146930000Y-104820000D02*
X147050000Y-104820000D01*
X147050000Y-104820000D02*
X147833498Y-104036502D01*
X157173309Y-99240001D02*
X162809597Y-99240000D01*
X163550000Y-98499597D02*
X163550000Y-96991825D01*
X156545000Y-99985000D02*
X156545001Y-99868309D01*
X156545001Y-99868309D02*
X157173309Y-99240001D01*
X147833498Y-101751502D02*
X148320000Y-101265000D01*
%TO.N,CHAN_0B_OUT*%
X154470000Y-100650000D02*
X154975000Y-100145000D01*
X158050000Y-96980000D02*
X158020000Y-97010000D01*
X154369500Y-100650000D02*
X154470000Y-100650000D01*
X158020000Y-97010000D02*
X157880000Y-97010000D01*
%TO.N,CHAN_1A_OUT*%
X156875000Y-100121690D02*
X156875000Y-100005000D01*
X164570000Y-95970000D02*
X163550000Y-95970000D01*
X155331690Y-101665000D02*
X156875000Y-100121690D01*
X165050000Y-96450000D02*
X164570000Y-95970000D01*
X157310000Y-99570000D02*
X164670000Y-99570000D01*
X149535000Y-101665000D02*
X155331690Y-101665000D01*
X164670000Y-99570000D02*
X165050000Y-99190000D01*
X156875000Y-100005000D02*
X157310000Y-99570000D01*
X165050000Y-99190000D02*
X165050000Y-96450000D01*
X148905000Y-102295000D02*
X149535000Y-101665000D01*
X148750000Y-102295000D02*
X148905000Y-102295000D01*
%TO.N,CHAN_1B_OUT*%
X147560000Y-99780000D02*
X147370000Y-99780000D01*
X147370000Y-99780000D02*
X147010000Y-100140000D01*
X154459500Y-99480500D02*
X156230000Y-97710000D01*
X156230000Y-97710000D02*
X156230000Y-96800000D01*
X156230000Y-96800000D02*
X157010000Y-96020000D01*
X153180000Y-99480500D02*
X154459500Y-99480500D01*
X157010000Y-96020000D02*
X157950000Y-96020000D01*
%TO.N,CHAN_2A_OUT*%
X157975000Y-100260000D02*
X158120000Y-100260000D01*
X158747000Y-100887000D02*
X164983000Y-100887000D01*
X165520000Y-96020000D02*
X164490000Y-94990000D01*
X165520000Y-100350000D02*
X165520000Y-96020000D01*
X158120000Y-100260000D02*
X158747000Y-100887000D01*
X164490000Y-94990000D02*
X163548175Y-94990000D01*
X164983000Y-100887000D02*
X165520000Y-100350000D01*
%TO.N,CHAN_2B_OUT*%
X155640000Y-96850000D02*
X154120000Y-96850000D01*
X155910000Y-96580000D02*
X155640000Y-96850000D01*
X147175000Y-96175000D02*
X147025000Y-96175000D01*
X153220000Y-97150000D02*
X153220000Y-96450000D01*
X152320000Y-96850000D02*
X152240914Y-96850000D01*
X152240914Y-96850000D02*
X147850000Y-96850000D01*
X157948175Y-94990000D02*
X156925686Y-94990000D01*
X153220000Y-97550000D02*
X153220000Y-97150000D01*
X152620000Y-96450000D02*
X152620000Y-96550000D01*
X155910000Y-96005686D02*
X155910000Y-96580000D01*
X156925686Y-94990000D02*
X155910000Y-96005686D01*
X153820000Y-97150000D02*
X153820000Y-97550000D01*
X147850000Y-96850000D02*
X147175000Y-96175000D01*
X153520000Y-97850000D02*
G75*
G03*
X153820000Y-97550000I0J300000D01*
G01*
X153220000Y-97550000D02*
G75*
G03*
X153520000Y-97850000I300000J0D01*
G01*
X152920000Y-96150000D02*
G75*
G03*
X152620000Y-96450000I0J-300000D01*
G01*
X153220000Y-96450000D02*
G75*
G03*
X152920000Y-96150000I-300000J0D01*
G01*
X152320000Y-96850000D02*
G75*
G03*
X152620000Y-96550000I0J300000D01*
G01*
X154120000Y-96850000D02*
G75*
G03*
X153820000Y-97150000I0J-300000D01*
G01*
%TO.N,CHAN_3A_OUT*%
X164600000Y-93990000D02*
X163548175Y-93990000D01*
X166965000Y-100485000D02*
X165850000Y-99370000D01*
X165850000Y-99370000D02*
X165850000Y-95240000D01*
X167150000Y-100485000D02*
X166965000Y-100485000D01*
X165850000Y-95240000D02*
X164600000Y-93990000D01*
%TO.N,CHAN_3B_OUT*%
X157330000Y-94010000D02*
X158220000Y-94010000D01*
X155126852Y-96150000D02*
X154985000Y-96150000D01*
X157310000Y-93990000D02*
X157330000Y-94010000D01*
X155395242Y-95881610D02*
X155126852Y-96150000D01*
%TO.N,CHAN_4A_OUT*%
X164690000Y-92990000D02*
X163548175Y-92990000D01*
X166250000Y-95580000D02*
X166250000Y-94550000D01*
X167140000Y-96470000D02*
X166250000Y-95580000D01*
X166250000Y-94550000D02*
X164690000Y-92990000D01*
%TO.N,CHAN_4B_OUT*%
X155279500Y-92260000D02*
X155200000Y-92260000D01*
X155200000Y-92260000D02*
X154995000Y-92055000D01*
X157978175Y-93020000D02*
X157948175Y-92990000D01*
X158040000Y-93020000D02*
X157978175Y-93020000D01*
%TO.N,CHAN_5A_OUT*%
X167285586Y-92400000D02*
X167235000Y-92400000D01*
X164640000Y-91990000D02*
X164670000Y-91960000D01*
X163548175Y-91990000D02*
X164640000Y-91990000D01*
X167235000Y-92400000D02*
X167150000Y-92485000D01*
%TO.N,CHAN_5B_OUT*%
X146970000Y-92060000D02*
X147170000Y-92060000D01*
X156918175Y-91410000D02*
X157518175Y-92010000D01*
X147820000Y-91410000D02*
X156918175Y-91410000D01*
X147170000Y-92060000D02*
X147820000Y-91410000D01*
%TO.N,CHAN_6A_OUT*%
X167416488Y-88434591D02*
X167200409Y-88434591D01*
X167200409Y-88434591D02*
X167175000Y-88460000D01*
X164710000Y-90980000D02*
X164700000Y-90990000D01*
X164700000Y-90990000D02*
X163548175Y-90990000D01*
%TO.N,CHAN_6B_OUT*%
X156050000Y-89175000D02*
X155755000Y-88880000D01*
X157948175Y-90990000D02*
X156920000Y-90990000D01*
X155755000Y-88880000D02*
X147955000Y-88880000D01*
X156050000Y-90103310D02*
X156050000Y-89175000D01*
X147955000Y-88880000D02*
X147175000Y-88100000D01*
X156920000Y-90990000D02*
X156170000Y-90240000D01*
X147175000Y-88100000D02*
X146975000Y-88100000D01*
X156170000Y-90223310D02*
X156050000Y-90103310D01*
X156170000Y-90240000D02*
X156170000Y-90223310D01*
%TO.N,CHAN_7A_OUT*%
X166120000Y-85455000D02*
X167200000Y-84375000D01*
X163548175Y-89990000D02*
X164510000Y-89990000D01*
X166120000Y-88380000D02*
X166120000Y-85455000D01*
X164510000Y-89990000D02*
X166120000Y-88380000D01*
%TO.N,CHAN_7B_OUT*%
X156620000Y-89750000D02*
X156860000Y-89990000D01*
X156860000Y-89990000D02*
X157948175Y-89990000D01*
X155900000Y-88060000D02*
X155890000Y-88050000D01*
X155890000Y-88050000D02*
X154987500Y-88050000D01*
%TO.N,/SCL0*%
X131140881Y-97387946D02*
X130962935Y-97210000D01*
X130962935Y-97210000D02*
X129560000Y-97210000D01*
%TO.N,/SDA0*%
X130683464Y-98058464D02*
X130235000Y-97610000D01*
X130235000Y-97610000D02*
X129560000Y-97610000D01*
X130770500Y-98058464D02*
X130683464Y-98058464D01*
%TO.N,Net-(Q1-Pad2)*%
X140790000Y-104870000D02*
X140770000Y-104890000D01*
X141690000Y-104870000D02*
X140790000Y-104870000D01*
%TO.N,Net-(Q3-G)*%
X120650000Y-118100000D02*
X120100000Y-118100000D01*
X119275000Y-117275000D02*
X119275000Y-116505000D01*
X120100000Y-118100000D02*
X119275000Y-117275000D01*
%TO.N,GNDD*%
X128360000Y-103250000D02*
X129450000Y-103250000D01*
X125125000Y-99245000D02*
X125125000Y-98793947D01*
X130510000Y-104310000D02*
X129450000Y-103250000D01*
X126200000Y-102720000D02*
X127830000Y-102720000D01*
X127830000Y-102720000D02*
X128360000Y-103250000D01*
X128325000Y-105290448D02*
X128143941Y-105471507D01*
X133300000Y-96840000D02*
X133260000Y-96800000D01*
X123025000Y-88225000D02*
X123875000Y-88225000D01*
X125885000Y-102285000D02*
X125885000Y-102465000D01*
X125550000Y-97225000D02*
X125200000Y-96875000D01*
X125550000Y-98368947D02*
X125550000Y-97225000D01*
X132940000Y-92500000D02*
X132940000Y-93230000D01*
X130560000Y-104310000D02*
X130510000Y-104310000D01*
X125885000Y-102065420D02*
X125885000Y-102285000D01*
X119425000Y-93167594D02*
X119425000Y-93225000D01*
X126090000Y-95810000D02*
X125390000Y-95110000D01*
X132940000Y-93230000D02*
X132935000Y-93235000D01*
X119425000Y-97000000D02*
X119525000Y-97000000D01*
X122910000Y-104485000D02*
X122900000Y-104475000D01*
X126125000Y-95810000D02*
X126090000Y-95810000D01*
X125885000Y-102465000D02*
X126170000Y-102750000D01*
X124285000Y-104485000D02*
X122910000Y-104485000D01*
X124979500Y-101159920D02*
X125885000Y-102065420D01*
X122848756Y-104348756D02*
X122900000Y-104400000D01*
X125125000Y-98793947D02*
X125550000Y-98368947D01*
X133260000Y-96800000D02*
X132925000Y-96800000D01*
X126170000Y-102750000D02*
X126200000Y-102720000D01*
X119971297Y-92621297D02*
X119425000Y-93167594D01*
X119350000Y-97075000D02*
X119425000Y-97000000D01*
X122168756Y-104348756D02*
X122848756Y-104348756D01*
X128325000Y-104450000D02*
X128325000Y-105290448D01*
%TO.N,Net-(Q3-D)*%
X130725000Y-112325000D02*
X127400000Y-112325000D01*
X127400000Y-112325000D02*
X121000000Y-118725000D01*
X121000000Y-118725000D02*
X119200000Y-118725000D01*
X118625000Y-118150000D02*
X118625000Y-117975000D01*
X119200000Y-118725000D02*
X118625000Y-118150000D01*
%TO.N,Net-(Q7-Pad2)*%
X149859782Y-100277460D02*
X148977460Y-100277460D01*
X148977460Y-100277460D02*
X148975000Y-100275000D01*
%TO.N,Net-(Q9-Pad2)*%
X163225000Y-100250000D02*
X164200000Y-100250000D01*
%TO.N,Net-(Q11-Pad2)*%
X141000000Y-96295000D02*
X140925000Y-96220000D01*
X141850000Y-96295000D02*
X141000000Y-96295000D01*
%TO.N,Net-(Q14-Pad2)*%
X153725500Y-102500000D02*
X154000500Y-102225000D01*
X154000500Y-102225000D02*
X154925000Y-102225000D01*
%TO.N,Net-(Q15-Pad2)*%
X171525000Y-100175000D02*
X173040000Y-100175000D01*
X173040000Y-100175000D02*
X173375000Y-100510000D01*
%TO.N,Net-(Q17-Pad2)*%
X141966170Y-100135390D02*
X140855390Y-100135390D01*
X140855390Y-100135390D02*
X140825000Y-100105000D01*
%TO.N,Net-(Q18-Pad2)*%
X149866892Y-96198211D02*
X148888211Y-96198211D01*
%TO.N,Net-(Q20-Pad2)*%
X172940000Y-96100000D02*
X173375000Y-96535000D01*
X171425000Y-96100000D02*
X172940000Y-96100000D01*
%TO.N,Net-(Q22-Pad2)*%
X149978451Y-92113374D02*
X148953374Y-92113374D01*
X148953374Y-92113374D02*
X148900000Y-92060000D01*
%TO.N,Net-(Q23-Pad2)*%
X173146625Y-88281625D02*
X173250000Y-88385000D01*
X172390943Y-88281625D02*
X173146625Y-88281625D01*
%TO.N,Net-(Q26-Pad2)*%
X171424500Y-92100000D02*
X173040000Y-92100000D01*
X173040000Y-92100000D02*
X173375000Y-92435000D01*
%TO.N,Net-(Q27-Pad2)*%
X140837500Y-88065000D02*
X141818953Y-88065000D01*
X140857464Y-88020036D02*
X140837500Y-88040000D01*
X141818953Y-88065000D02*
X141857406Y-88103453D01*
%TO.N,Net-(Q30-Pad2)*%
X141475000Y-92525000D02*
X141035000Y-92085000D01*
X141850000Y-92525000D02*
X141475000Y-92525000D01*
X141035000Y-92085000D02*
X140850000Y-92085000D01*
%TO.N,Net-(Q31-Pad2)*%
X173306689Y-84341689D02*
X173325000Y-84360000D01*
X172323340Y-84341689D02*
X173306689Y-84341689D01*
%TO.N,Net-(Q34-Pad2)*%
X149922255Y-88092805D02*
X148930305Y-88092805D01*
X148930305Y-88092805D02*
X148862500Y-88025000D01*
%TO.N,Net-(U1-CC2)*%
X125010000Y-86090000D02*
X124905000Y-85985000D01*
X124905000Y-85985000D02*
X124905000Y-83450000D01*
%TO.N,/switch_control/CHAN_0*%
X164510000Y-86030000D02*
X164510000Y-84940000D01*
X164510000Y-84940000D02*
X164180000Y-84610000D01*
%TO.N,Net-(U10-XOUT)*%
X126775000Y-101465466D02*
X126775000Y-102175000D01*
X125925000Y-100615466D02*
X126775000Y-101465466D01*
X125925000Y-99245000D02*
X125925000Y-100615466D01*
X126775000Y-102175000D02*
X127275000Y-102175000D01*
%TO.N,/BUZZER*%
X121096837Y-97704500D02*
X121602866Y-97704500D01*
X120650000Y-116400000D02*
X120650000Y-115100000D01*
X120675000Y-115075000D02*
X121300000Y-114450000D01*
X119600000Y-115075000D02*
X120675000Y-115075000D01*
X122620000Y-97280000D02*
X122690000Y-97210000D01*
X120650000Y-115100000D02*
X120675000Y-115075000D01*
X122027365Y-97280001D02*
X122620000Y-97280000D01*
X121300000Y-114450000D02*
X121300000Y-114125000D01*
X121602866Y-97704500D02*
X122027365Y-97280001D01*
%TO.N,/processor/CAN_CS*%
X119600000Y-112300000D02*
X119700000Y-112200000D01*
X130550966Y-98588464D02*
X130240500Y-98277998D01*
X120325000Y-110750000D02*
X120325000Y-112350000D01*
X119700000Y-112200000D02*
X120297500Y-112200000D01*
X130249518Y-101401585D02*
X130600000Y-101051103D01*
X130019254Y-98010000D02*
X129560000Y-98010000D01*
X130240500Y-98231246D02*
X130019254Y-98010000D01*
X119400000Y-109825000D02*
X120325000Y-110750000D01*
X130600000Y-101051103D02*
X130600000Y-98590746D01*
X130600000Y-98590746D02*
X130597718Y-98588464D01*
X118700000Y-109825000D02*
X119400000Y-109825000D01*
X130240500Y-98277998D02*
X130240500Y-98231246D01*
X130597718Y-98588464D02*
X130550966Y-98588464D01*
%TO.N,/processor/CAN_STBY*%
X113040000Y-105415466D02*
X111099534Y-103475000D01*
X111099534Y-103475000D02*
X110750000Y-103475000D01*
X112990000Y-105860000D02*
X112975000Y-105875000D01*
X113040000Y-105860000D02*
X112990000Y-105860000D01*
X113040000Y-105860000D02*
X113040000Y-105415466D01*
X128693000Y-98378000D02*
X128325000Y-98746000D01*
X128325000Y-98746000D02*
X128325000Y-99245000D01*
%TO.N,/processor/QSPI_CS*%
X119225000Y-92375000D02*
X119125000Y-92375000D01*
X123197500Y-92047500D02*
X123200000Y-92050000D01*
X113610000Y-97875000D02*
X113610000Y-97010000D01*
X113617652Y-97882652D02*
X113610000Y-97875000D01*
X113610000Y-98485000D02*
X113610000Y-97875000D01*
X119125000Y-92375000D02*
X118485000Y-93015000D01*
X113575000Y-99125000D02*
X113610000Y-99090000D01*
X123197500Y-92047500D02*
X119552500Y-92047500D01*
X119552500Y-92047500D02*
X119225000Y-92375000D01*
X132525000Y-79925000D02*
X132250000Y-80200000D01*
X123200000Y-92050000D02*
X123525000Y-92050000D01*
X119225000Y-92375000D02*
X119266571Y-92416571D01*
X118484999Y-97161993D02*
X117764342Y-97882652D01*
X113610000Y-99090000D02*
X113610000Y-98485000D01*
X132525000Y-79550000D02*
X132525000Y-79925000D01*
X117764342Y-97882652D02*
X113617652Y-97882652D01*
X118485000Y-93015000D02*
X118484999Y-97161993D01*
%TO.N,/peripherals/~{TFT_RESET}*%
X106650000Y-123255000D02*
X112445000Y-123255000D01*
X112445000Y-123255000D02*
X112625000Y-123075000D01*
%TO.N,/switch_control/CHAN_1*%
X163709500Y-85560000D02*
X163680000Y-85530500D01*
X163680000Y-85530500D02*
X163680000Y-84610000D01*
%TO.N,/processor/CAN_RESET*%
X129560000Y-98614500D02*
X129560000Y-98410000D01*
X120827000Y-110377000D02*
X120827000Y-113098000D01*
X120225000Y-113700000D02*
X119600000Y-113700000D01*
X119600000Y-109150000D02*
X120827000Y-110377000D01*
X118725000Y-109150000D02*
X119600000Y-109150000D01*
X130070500Y-99125000D02*
X129560000Y-98614500D01*
X120827000Y-113098000D02*
X120225000Y-113700000D01*
%TO.N,/switch_control/CHAN_2*%
X164080000Y-86940000D02*
X163180000Y-86040000D01*
X163180000Y-86040000D02*
X163180000Y-84610000D01*
%TO.N,/switch_control/CHAN_3*%
X162650721Y-85680558D02*
X162680000Y-85651279D01*
X162680000Y-85651279D02*
X162680000Y-84610000D01*
%TO.N,/switch_control/CHAN_4*%
X161685000Y-85730000D02*
X162180000Y-85235000D01*
X162180000Y-85235000D02*
X162180000Y-84610000D01*
X161590000Y-85730000D02*
X161685000Y-85730000D01*
%TO.N,/switch_control/CHAN_6*%
X160965000Y-83660000D02*
X161230000Y-83660000D01*
X160150000Y-84475000D02*
X160965000Y-83660000D01*
%TO.N,/switch_control/CHAN_5*%
X161020000Y-84540000D02*
X161610000Y-84540000D01*
X161610000Y-84540000D02*
X161680000Y-84610000D01*
%TO.N,/switch_control/CHAN_7*%
X161224655Y-82210000D02*
X161680000Y-82210000D01*
X160839458Y-82595197D02*
X161224655Y-82210000D01*
%TO.N,Net-(R75-Pad1)*%
X168510000Y-106320000D02*
X168540000Y-106320000D01*
X167715000Y-105525000D02*
X168510000Y-106320000D01*
X168800000Y-106100000D02*
X168800000Y-106975000D01*
X167175000Y-105525000D02*
X167715000Y-105525000D01*
%TO.N,Net-(U13-OSC2)*%
X112975000Y-109125000D02*
X112225000Y-109125000D01*
X112225000Y-109125000D02*
X110925000Y-107825000D01*
X110925000Y-107825000D02*
X110925000Y-107550000D01*
%TO.N,/~{RESET}*%
X111880000Y-118726851D02*
X111880000Y-121495000D01*
X111100000Y-122275000D02*
X106550000Y-122275000D01*
X127925000Y-99800000D02*
X127925000Y-99245000D01*
X111900068Y-118706783D02*
X111880000Y-118726851D01*
X129002727Y-99975502D02*
X128100502Y-99975502D01*
X138425000Y-79285000D02*
X139330000Y-78380000D01*
X139370000Y-78380000D02*
X139300000Y-78450000D01*
X143600000Y-78380000D02*
X139370000Y-78380000D01*
X106550000Y-122275000D02*
X104885000Y-120610000D01*
X104885000Y-120610000D02*
X104885000Y-119050000D01*
X143650000Y-78330000D02*
X143600000Y-78380000D01*
X129564199Y-100536974D02*
X129002727Y-99975502D01*
X138425000Y-79475000D02*
X138425000Y-79285000D01*
X111880000Y-121495000D02*
X111100000Y-122275000D01*
X128100502Y-99975502D02*
X127925000Y-99800000D01*
%TO.N,/TFT_CS*%
X121539964Y-98234092D02*
X122164056Y-97610000D01*
X120350000Y-97850000D02*
X120734092Y-98234092D01*
X122164056Y-97610000D02*
X122690000Y-97610000D01*
X120734092Y-98234092D02*
X121539964Y-98234092D01*
%TO.N,/SWDIO*%
X110129500Y-118529500D02*
X110100000Y-118500000D01*
X110825000Y-118529500D02*
X110129500Y-118529500D01*
X128119535Y-100305501D02*
X127797191Y-100305501D01*
X128427397Y-100613363D02*
X128119535Y-100305501D01*
X127525000Y-100033310D02*
X127525000Y-99225000D01*
X109870000Y-118762998D02*
X109870000Y-118960039D01*
X127797191Y-100305501D02*
X127525000Y-100033310D01*
X128755550Y-100613363D02*
X128427397Y-100613363D01*
%TO.N,/SWCLK*%
X127860501Y-100835501D02*
X127125000Y-100100000D01*
X127125000Y-100100000D02*
X127125000Y-99225000D01*
X127900001Y-100835501D02*
X127860501Y-100835501D01*
%TO.N,/SCK0*%
X121560224Y-94410000D02*
X122690000Y-94410000D01*
X121356724Y-94206500D02*
X121560224Y-94410000D01*
X119518500Y-94006500D02*
X120569534Y-94006500D01*
X120769534Y-94206500D02*
X121356724Y-94206500D01*
X120569534Y-94006500D02*
X120769534Y-94206500D01*
X119025000Y-94500000D02*
X119518500Y-94006500D01*
X119014500Y-94500000D02*
X119025000Y-94500000D01*
%TO.N,/MOSI0*%
X119743094Y-94536398D02*
X121219932Y-94536398D01*
X121493534Y-94810000D02*
X122690000Y-94810000D01*
X121219932Y-94536398D02*
X121493534Y-94810000D01*
%TO.N,/MISO0*%
X120384567Y-95065898D02*
X120528669Y-95210000D01*
X103475000Y-89358175D02*
X102450000Y-88333175D01*
X103450000Y-94400000D02*
X103475000Y-94375000D01*
X103475000Y-94375000D02*
X103475000Y-89358175D01*
X120528669Y-95210000D02*
X122690000Y-95210000D01*
%TO.N,/SD_CS*%
X122655000Y-95975000D02*
X122690000Y-96010000D01*
X120425000Y-95975000D02*
X122655000Y-95975000D01*
X120100000Y-96300000D02*
X120425000Y-95975000D01*
%TO.N,/TFT_DC*%
X103525000Y-97525000D02*
X103800000Y-97250000D01*
X103525000Y-99958175D02*
X103525000Y-97525000D01*
X119883546Y-95595500D02*
X122675500Y-95595500D01*
X102450000Y-101033175D02*
X103525000Y-99958175D01*
X122675500Y-95595500D02*
X122690000Y-95610000D01*
%TO.N,/processor/SCK1*%
X113290555Y-112661976D02*
X113303579Y-112675000D01*
X121960580Y-98280166D02*
X122230746Y-98010000D01*
X116068000Y-111732000D02*
X116475000Y-111325000D01*
X114483380Y-112675000D02*
X115426380Y-111732000D01*
X121960580Y-98797164D02*
X121960580Y-98280166D01*
X113303579Y-112675000D02*
X114483380Y-112675000D01*
X115426380Y-111732000D02*
X116068000Y-111732000D01*
X116475000Y-111325000D02*
X116475000Y-110675000D01*
X122230746Y-98010000D02*
X122690000Y-98010000D01*
X122156337Y-98992921D02*
X121960580Y-98797164D01*
%TO.N,/processor/MOSI1*%
X113031647Y-113387573D02*
X113034665Y-113384555D01*
X116621310Y-112062000D02*
X117125000Y-111558310D01*
X115563070Y-112062000D02*
X116621310Y-112062000D01*
X117125000Y-111558310D02*
X117125000Y-110675000D01*
X113034665Y-113384555D02*
X114240515Y-113384555D01*
X122995500Y-99751208D02*
X122995500Y-98445500D01*
X122969124Y-99777584D02*
X122995500Y-99751208D01*
X114240515Y-113384555D02*
X115563070Y-112062000D01*
%TO.N,/processor/MISO1*%
X115699760Y-112392000D02*
X116758000Y-112392000D01*
X113996760Y-114095000D02*
X115699760Y-112392000D01*
X112675000Y-114100000D02*
X112680000Y-114095000D01*
X117775000Y-111375000D02*
X117775000Y-110675000D01*
X112680000Y-114095000D02*
X113996760Y-114095000D01*
X116758000Y-112392000D02*
X117775000Y-111375000D01*
X123525000Y-100250000D02*
X123525000Y-99245000D01*
%TO.N,/processor/ENC_CTL_0*%
X123600000Y-98378000D02*
X123925000Y-98703000D01*
X164630000Y-83160000D02*
X165314172Y-83160000D01*
X123925000Y-98703000D02*
X123925000Y-99245000D01*
X165314172Y-83160000D02*
X165343672Y-83130500D01*
%TO.N,/processor/ENC_CTL_1*%
X124325000Y-97799512D02*
X124325000Y-99245000D01*
X124303419Y-97777931D02*
X124325000Y-97799512D01*
X164180000Y-82210000D02*
X164180000Y-81353470D01*
X164180000Y-81353470D02*
X164096030Y-81269500D01*
%TO.N,/processor/ENC_CTL_2*%
X163680000Y-81654704D02*
X163370462Y-81345166D01*
X124725000Y-98425000D02*
X124925000Y-98225000D01*
X163680000Y-82210000D02*
X163680000Y-81654704D01*
X124725000Y-99245000D02*
X124725000Y-98425000D01*
%TO.N,/processor/~{Tx0RTS}*%
X118675000Y-105875000D02*
X118675000Y-105800000D01*
X128800000Y-99300000D02*
X128725000Y-99225000D01*
X129011000Y-99300000D02*
X128800000Y-99300000D01*
%TO.N,/processor/CAN_INT*%
X115587000Y-111402000D02*
X115825000Y-111164000D01*
X130627378Y-96280905D02*
X130498283Y-96410000D01*
X114584136Y-112107554D02*
X115289690Y-111402000D01*
X130498283Y-96410000D02*
X129560000Y-96410000D01*
X115289690Y-111402000D02*
X115587000Y-111402000D01*
X112817019Y-112107054D02*
X112817519Y-112107554D01*
X115825000Y-111164000D02*
X115825000Y-110675000D01*
X112817519Y-112107554D02*
X114584136Y-112107554D01*
%TO.N,/processor/~{Rx0BF}*%
X130019254Y-96010000D02*
X129560000Y-96010000D01*
X130427000Y-95579462D02*
X130227500Y-95778962D01*
X130227500Y-95801754D02*
X130019254Y-96010000D01*
X130227500Y-95778962D02*
X130227500Y-95801754D01*
X115175000Y-110675000D02*
X115175000Y-111050000D01*
X114647446Y-111577554D02*
X113370789Y-111577554D01*
X115175000Y-111050000D02*
X114647446Y-111577554D01*
%TO.N,/processor/QSPI_SD3*%
X125524999Y-91275345D02*
X124367152Y-90117500D01*
X125525000Y-92375000D02*
X125524999Y-91275345D01*
X114885000Y-91410000D02*
X114885000Y-91660000D01*
X124367152Y-90117500D02*
X116177500Y-90117500D01*
X116177500Y-90117500D02*
X114885000Y-91410000D01*
%TO.N,/processor/QSPI_SCLK*%
X125125000Y-92375000D02*
X125125000Y-91441031D01*
X116135000Y-91410000D02*
X116135000Y-91685000D01*
X125125000Y-91441031D02*
X124201467Y-90517500D01*
X124201467Y-90517500D02*
X117027500Y-90517500D01*
X117027500Y-90517500D02*
X116135000Y-91410000D01*
%TO.N,/processor/QSPI_SD0*%
X118102500Y-90917500D02*
X117385000Y-91635000D01*
X124035782Y-90917500D02*
X118102500Y-90917500D01*
X124725000Y-92375000D02*
X124725000Y-91606717D01*
X124725000Y-91606717D02*
X124035782Y-90917500D01*
%TO.N,/processor/QSPI_SD2*%
X117825000Y-92543629D02*
X117825000Y-96042500D01*
X116535000Y-96310000D02*
X116085000Y-96760000D01*
X116085000Y-96760000D02*
X116085000Y-97010000D01*
X119051129Y-91317500D02*
X117825000Y-92543629D01*
X117557500Y-96310000D02*
X116535000Y-96310000D01*
X124325000Y-92375000D02*
X124325000Y-91772403D01*
X123870097Y-91317500D02*
X119051129Y-91317500D01*
X117825000Y-96042500D02*
X117557500Y-96310000D01*
X124325000Y-91772403D02*
X123870097Y-91317500D01*
%TO.N,/processor/QSPI_SD1*%
X114820000Y-96935000D02*
X114820000Y-97070000D01*
X118155000Y-92779315D02*
X119216815Y-91717500D01*
X119216815Y-91717500D02*
X123704411Y-91717500D01*
X123925000Y-91938089D02*
X123925000Y-92375000D01*
X123704411Y-91717500D02*
X123925000Y-91938089D01*
X115302652Y-97552652D02*
X117627652Y-97552652D01*
X118155000Y-97025303D02*
X118155000Y-92779315D01*
X114820000Y-97070000D02*
X115302652Y-97552652D01*
X117627652Y-97552652D02*
X118155000Y-97025303D01*
%TO.N,Net-(U13-TXD)*%
X116840400Y-103718500D02*
X118269664Y-103718500D01*
X118269664Y-103718500D02*
X119731999Y-105180835D01*
X119731999Y-105180835D02*
X119732000Y-107257000D01*
X119164000Y-107825000D02*
X118675000Y-107825000D01*
X119732000Y-107257000D02*
X119164000Y-107825000D01*
%TO.N,Net-(U13-RXD)*%
X116425000Y-104600000D02*
X116425000Y-104925000D01*
X118675000Y-107175000D02*
X119100000Y-107175000D01*
X116777000Y-104248000D02*
X116425000Y-104600000D01*
X119402000Y-105317526D02*
X118332474Y-104248000D01*
X119100000Y-107175000D02*
X119402000Y-106873000D01*
X119402000Y-106873000D02*
X119402000Y-105317526D01*
X118332474Y-104248000D02*
X116777000Y-104248000D01*
%TO.N,GNDREF*%
X160309458Y-82864458D02*
X160605000Y-83160000D01*
X160330000Y-79050000D02*
X160282500Y-79002500D01*
X160605000Y-83160000D02*
X161230000Y-83160000D01*
X160334502Y-80999500D02*
X160309458Y-81024544D01*
X160309458Y-81024544D02*
X160309458Y-82864458D01*
X155997500Y-79002500D02*
X154750000Y-80250000D01*
X160282500Y-79002500D02*
X155997500Y-79002500D01*
X154750000Y-80250000D02*
X151775000Y-80250000D01*
%TO.N,Net-(U3-BYP)*%
X108425000Y-96050000D02*
X106175000Y-93800000D01*
X111775000Y-96050000D02*
X108425000Y-96050000D01*
X106175000Y-93800000D02*
X106175000Y-93150000D01*
%TO.N,Net-(U15-BYP)*%
X150225000Y-83275000D02*
X150775000Y-83825000D01*
X149230000Y-83275000D02*
X150225000Y-83275000D01*
%TO.N,SWITCHING_3V3*%
X139950000Y-94410000D02*
X139950000Y-96975000D01*
X165940000Y-83660000D02*
X164630000Y-83660000D01*
X174225000Y-90275000D02*
X174225000Y-87900000D01*
X174225000Y-87900000D02*
X173325000Y-87000000D01*
X164740561Y-81198922D02*
X164740561Y-80916078D01*
X173325000Y-91000000D02*
X173500000Y-91000000D01*
X162680000Y-82210000D02*
X163180000Y-82210000D01*
X174200000Y-94325000D02*
X174200000Y-91650000D01*
X173500000Y-91000000D02*
X174225000Y-90275000D01*
X140675000Y-97700000D02*
X139950000Y-96975000D01*
X164564483Y-80740000D02*
X163186690Y-80740000D01*
X174225000Y-86100000D02*
X173325000Y-87000000D01*
X173525000Y-103025000D02*
X174120000Y-102430000D01*
X148775000Y-93535000D02*
X148825000Y-93535000D01*
X174200000Y-91650000D02*
X173500000Y-90950000D01*
X151394813Y-89555000D02*
X148850000Y-89555000D01*
X148175000Y-86125000D02*
X148175000Y-85875000D01*
X151499606Y-89450207D02*
X151394813Y-89555000D01*
X139912500Y-88707500D02*
X140800000Y-89595000D01*
X174190000Y-95740000D02*
X173400000Y-94950000D01*
X151705500Y-105480000D02*
X154070000Y-105480000D01*
X139925000Y-90320000D02*
X139925000Y-92875000D01*
X140850000Y-89570000D02*
X140675000Y-89570000D01*
X144050000Y-105480000D02*
X140900000Y-102330000D01*
X139950000Y-94410000D02*
X140750000Y-93610000D01*
X164740561Y-80916078D02*
X164564483Y-80740000D01*
X151677149Y-93394649D02*
X151461798Y-93610000D01*
X150527000Y-85510000D02*
X148837500Y-85510000D01*
X148540000Y-85510000D02*
X148837500Y-85510000D01*
X140750000Y-93610000D02*
X140875000Y-93610000D01*
X174120000Y-99670000D02*
X173525000Y-99075000D01*
X173550000Y-83150000D02*
X172800000Y-83150000D01*
X151280000Y-105054500D02*
X151705500Y-105480000D01*
X148835000Y-93610000D02*
X148650000Y-93610000D01*
X140837500Y-85525000D02*
X140715000Y-85525000D01*
X148775000Y-89560000D02*
X148825000Y-89560000D01*
X151581787Y-97379500D02*
X151502287Y-97300000D01*
X173500000Y-95025000D02*
X174200000Y-94325000D01*
X164750000Y-81828102D02*
X164750000Y-81208361D01*
X173515000Y-99010000D02*
X174190000Y-98335000D01*
X162680000Y-81246690D02*
X162680000Y-82210000D01*
X174225000Y-83825000D02*
X174225000Y-86100000D01*
X151502287Y-97300000D02*
X149215000Y-97300000D01*
X149215000Y-97300000D02*
X148835000Y-97680000D01*
X173075000Y-103075000D02*
X173375000Y-103075000D01*
X154070000Y-105480000D02*
X154500000Y-105050000D01*
X164125000Y-102800000D02*
X164325000Y-102800000D01*
X148570000Y-97650000D02*
X148850000Y-97650000D01*
X173300000Y-103025000D02*
X173525000Y-103025000D01*
X174120000Y-102430000D02*
X174120000Y-99670000D01*
X151280000Y-105054500D02*
X150854500Y-105480000D01*
X151242000Y-86225000D02*
X150527000Y-85510000D01*
X164325000Y-102800000D02*
X165170000Y-103645000D01*
X150854500Y-105480000D02*
X144050000Y-105480000D01*
X148175000Y-85875000D02*
X148540000Y-85510000D01*
X139912500Y-86327500D02*
X139912500Y-88707500D01*
X151461798Y-93610000D02*
X148835000Y-93610000D01*
X173300000Y-95025000D02*
X173500000Y-95025000D01*
X140675000Y-89570000D02*
X139925000Y-90320000D01*
X172505000Y-103645000D02*
X173075000Y-103075000D01*
X174190000Y-98335000D02*
X174190000Y-95740000D01*
X165170000Y-103645000D02*
X172505000Y-103645000D01*
X154500000Y-105050000D02*
X154975000Y-105050000D01*
X140610000Y-93560000D02*
X140875000Y-93560000D01*
X173500000Y-90950000D02*
X173275000Y-90950000D01*
X173400000Y-94950000D02*
X173325000Y-94950000D01*
X140875000Y-97700000D02*
X140675000Y-97700000D01*
X164750000Y-81208361D02*
X164740561Y-81198922D01*
X165950000Y-83650000D02*
X165940000Y-83660000D01*
X163225000Y-79125000D02*
X163200000Y-79150000D01*
X173550000Y-83150000D02*
X174225000Y-83825000D01*
X139925000Y-92875000D02*
X140610000Y-93560000D01*
X173290000Y-99010000D02*
X173515000Y-99010000D01*
X163225000Y-79075000D02*
X163225000Y-79125000D01*
X163186690Y-80740000D02*
X162680000Y-81246690D01*
X140715000Y-85525000D02*
X139912500Y-86327500D01*
%TO.N,/USB_D-*%
X127350000Y-84275000D02*
X127350000Y-83475000D01*
%TO.N,/USB_D+*%
X125885000Y-83445000D02*
X125885000Y-82620000D01*
X126875000Y-82610000D02*
X126875000Y-83500000D01*
X125885000Y-82620000D02*
X125935000Y-82570000D01*
X125935000Y-82570000D02*
X126835000Y-82570000D01*
X126835000Y-82570000D02*
X126875000Y-82610000D01*
%TO.N,/processor/A_IN_2_PIN*%
X113900399Y-115775399D02*
X114550000Y-116425000D01*
X128928466Y-94010000D02*
X128699947Y-94238519D01*
X115250000Y-115900000D02*
X114800000Y-116350000D01*
X116275000Y-115900000D02*
X115250000Y-115900000D01*
X113900399Y-115417253D02*
X113900399Y-115775399D01*
X129560000Y-94010000D02*
X128928466Y-94010000D01*
X114800000Y-116350000D02*
X114650000Y-116350000D01*
%TO.N,/processor/A_IN_3_PIN*%
X128839074Y-93610000D02*
X128739144Y-93510070D01*
X113371326Y-119028674D02*
X113371326Y-115946326D01*
X114300000Y-120850000D02*
X113050000Y-119600000D01*
X113050000Y-119600000D02*
X113050000Y-119450000D01*
X129560000Y-93610000D02*
X128839074Y-93610000D01*
X113000000Y-119400000D02*
X113371326Y-119028674D01*
%TO.N,GND*%
X114975000Y-107825000D02*
X115025000Y-107775000D01*
X144870000Y-78320000D02*
X149330000Y-78320000D01*
X123310000Y-86090000D02*
X123310000Y-83615000D01*
X129985000Y-83445000D02*
X130895000Y-83445000D01*
X105396825Y-108653175D02*
X105600000Y-108450000D01*
X152400000Y-118550000D02*
X152425000Y-118575000D01*
X109376502Y-110500000D02*
X109326502Y-110450000D01*
X110705000Y-104655000D02*
X111530000Y-104655000D01*
X112550000Y-102375000D02*
X112550000Y-103025000D01*
X143395500Y-81070500D02*
X143900000Y-81575000D01*
X122395000Y-83445000D02*
X122375000Y-83425000D01*
X111150000Y-121105000D02*
X111045000Y-121105000D01*
X165925000Y-106700000D02*
X161550000Y-111075000D01*
X104850000Y-91125000D02*
X105395000Y-91125000D01*
X134800000Y-109075000D02*
X136350000Y-109075000D01*
X114875000Y-103500000D02*
X114875000Y-102625000D01*
X165975000Y-105550000D02*
X165875000Y-105450000D01*
X113225000Y-110675000D02*
X113875000Y-110675000D01*
X117900000Y-116450000D02*
X117950000Y-116500000D01*
X108275000Y-103425000D02*
X108275000Y-102525000D01*
X106675000Y-109750000D02*
X106675000Y-109375000D01*
X126304500Y-120475000D02*
X126700000Y-120475000D01*
X117355000Y-116505000D02*
X117350000Y-116500000D01*
X112975000Y-107825000D02*
X114975000Y-107825000D01*
X143650000Y-76180000D02*
X143600000Y-76230000D01*
X117900000Y-115075000D02*
X117900000Y-116450000D01*
X117875000Y-102375000D02*
X117850000Y-102350000D01*
X135670000Y-93470000D02*
X135675000Y-93475000D01*
X106170000Y-98100000D02*
X110575000Y-98100000D01*
X150750000Y-80200000D02*
X150750000Y-82125000D01*
X163450000Y-121400000D02*
X163450000Y-112950000D01*
X137400000Y-76180000D02*
X136872500Y-76180000D01*
X151800000Y-108025000D02*
X151800000Y-107400000D01*
X116825000Y-96984500D02*
X116874500Y-96935000D01*
X139545500Y-81070500D02*
X143395500Y-81070500D01*
X114050000Y-122475000D02*
X113445498Y-122475000D01*
X117975000Y-116505000D02*
X117355000Y-116505000D01*
X107730000Y-101585000D02*
X108515000Y-101585000D01*
X110400000Y-110500000D02*
X109376502Y-110500000D01*
X165950000Y-106700000D02*
X165925000Y-106700000D01*
X143780000Y-76180000D02*
X144505000Y-76905000D01*
X132922500Y-76202500D02*
X134150000Y-76202500D01*
X161575000Y-111075000D02*
X161550000Y-111075000D01*
X111775000Y-97750000D02*
X112700000Y-97750000D01*
X149200000Y-76175000D02*
X149200000Y-78175000D01*
X108800000Y-114750000D02*
X108825000Y-114775000D01*
X144505000Y-76905000D02*
X144505000Y-77955000D01*
X116275000Y-118000000D02*
X117375000Y-118000000D01*
X107425000Y-114750000D02*
X108800000Y-114750000D01*
X139475000Y-81000000D02*
X139545500Y-81070500D01*
X163450000Y-112950000D02*
X161575000Y-111075000D01*
X114300000Y-122950000D02*
X114300000Y-122725000D01*
X107725000Y-107525000D02*
X107075000Y-107525000D01*
X120734501Y-105217132D02*
X120734501Y-105215499D01*
X110150000Y-91150000D02*
X110850000Y-91150000D01*
X106650000Y-121105000D02*
X107520000Y-121105000D01*
X137560000Y-86550000D02*
X138825000Y-86550000D01*
X102450000Y-108653175D02*
X105396825Y-108653175D01*
X108750000Y-114695000D02*
X108750000Y-112975000D01*
X105395000Y-91125000D02*
X105420000Y-91150000D01*
X108695000Y-114750000D02*
X108750000Y-114695000D01*
X150750000Y-80200000D02*
X150450000Y-80200000D01*
X139420000Y-76230000D02*
X139400000Y-76250000D01*
X137019500Y-86575000D02*
X137535000Y-86575000D01*
X110575000Y-98100000D02*
X111100000Y-98625000D01*
X117850000Y-102350000D02*
X117200000Y-102350000D01*
X108200000Y-108900000D02*
X107150000Y-108900000D01*
X123285000Y-83445000D02*
X122395000Y-83445000D01*
X134920000Y-93470000D02*
X135670000Y-93470000D01*
X120300000Y-107375000D02*
X120300000Y-105651633D01*
X111530000Y-104655000D02*
X111550000Y-104675000D01*
X113875000Y-109400000D02*
X113900000Y-109375000D01*
X116874500Y-96935000D02*
X117360000Y-96935000D01*
X120734501Y-105215499D02*
X120750000Y-105200000D01*
X149275000Y-79025000D02*
X149275000Y-78625000D01*
X151800000Y-107400000D02*
X151775000Y-107375000D01*
X143600000Y-76230000D02*
X139420000Y-76230000D01*
X130895000Y-83445000D02*
X130900000Y-83450000D01*
X151800000Y-118550000D02*
X152400000Y-118550000D01*
X113875000Y-110675000D02*
X113875000Y-109400000D01*
X132900000Y-76180000D02*
X132922500Y-76202500D01*
X105625000Y-109300000D02*
X105650000Y-109325000D01*
X139275000Y-76305000D02*
X139150000Y-76180000D01*
X144505000Y-77955000D02*
X144870000Y-78320000D01*
X149330000Y-78320000D02*
X149350000Y-78300000D01*
X139275000Y-77225000D02*
X139275000Y-76305000D01*
X105625000Y-108525000D02*
X105625000Y-109300000D01*
X120300000Y-105651633D02*
X120734501Y-105217132D01*
X137535000Y-86575000D02*
X137560000Y-86550000D01*
X106675000Y-109375000D02*
X107150000Y-108900000D01*
X165975000Y-106275000D02*
X165975000Y-105550000D01*
X136872500Y-76180000D02*
X136825000Y-76227500D01*
X111750000Y-94525000D02*
X111750000Y-93625000D01*
X110700000Y-101775000D02*
X111525000Y-101775000D01*
X111045000Y-121105000D02*
X110425000Y-121725000D01*
X105625000Y-103200000D02*
X105625000Y-102300000D01*
X123310000Y-83615000D02*
X123425000Y-83500000D01*
X117950000Y-119750000D02*
X117950000Y-119875000D01*
X114300000Y-122725000D02*
X114050000Y-122475000D01*
X107520000Y-121105000D02*
X107525000Y-121100000D01*
X108515000Y-101585000D02*
X108550000Y-101550000D01*
X161550000Y-111075000D02*
X156475000Y-111075000D01*
X126700000Y-120475000D02*
X127050000Y-120125000D01*
X127050000Y-120125000D02*
X127050000Y-119850000D01*
X150450000Y-80200000D02*
X149275000Y-79025000D01*
%TO.N,/RXD*%
X141550000Y-120400000D02*
X140875000Y-121075000D01*
X139443253Y-121075000D02*
X134800000Y-121075000D01*
X143000000Y-120400000D02*
X141550000Y-120400000D01*
X139675000Y-121075000D02*
X139443253Y-121075000D01*
X140575000Y-120775000D02*
X140575000Y-120375000D01*
X139975000Y-120375000D02*
X139975000Y-120775000D01*
X140275000Y-120075000D02*
G75*
G03*
X139975000Y-120375000I0J-300000D01*
G01*
X140575000Y-120775000D02*
G75*
G03*
X140875000Y-121075000I300000J0D01*
G01*
X140575000Y-120375000D02*
G75*
G03*
X140275000Y-120075000I-300000J0D01*
G01*
X139675000Y-121075000D02*
G75*
G03*
X139975000Y-120775000I0J300000D01*
G01*
%TO.N,/TXD*%
X135175000Y-123075000D02*
X134800000Y-123075000D01*
X141775000Y-121500000D02*
X141680000Y-121405000D01*
X136845000Y-121405000D02*
X135175000Y-123075000D01*
X141680000Y-121405000D02*
X136845000Y-121405000D01*
%TO.N,/ESP-Wifi/LED_STATIC*%
X150025000Y-117050000D02*
X150000000Y-117075000D01*
X151800000Y-117050000D02*
X150025000Y-117050000D01*
%TO.N,/ESP-Wifi/GPIO0*%
X138775000Y-115075000D02*
X138850000Y-115150000D01*
X134800000Y-115075000D02*
X138775000Y-115075000D01*
%TO.N,Net-(U16-IO12)*%
X149875000Y-113125000D02*
X149850000Y-113125000D01*
X149850000Y-113125000D02*
X149800000Y-113075000D01*
%TO.N,Net-(U16-RESET)*%
X149825000Y-123100000D02*
X149750000Y-123100000D01*
%TO.N,/ESP-Wifi/ESP_INT*%
X133200000Y-117075000D02*
X133075000Y-116950000D01*
X121699249Y-96410000D02*
X122690000Y-96410000D01*
X121605204Y-96504045D02*
X121699249Y-96410000D01*
X134800000Y-117075000D02*
X133200000Y-117075000D01*
%TO.N,Net-(D2-A)*%
X153500000Y-118525000D02*
X153475000Y-118550000D01*
X153500000Y-117050000D02*
X153500000Y-118525000D01*
%TD*%
M02*
