M48
; DRILL file {KiCad 7.0.7} date 2023 September 03, Sunday 21:13:34
; FORMAT={-:-/ absolute / metric / decimal}
; #@! TF.CreationDate,2023-09-03T21:13:34-04:00
; #@! TF.GenerationSoftware,Kicad,Pcbnew,7.0.7
; #@! TF.FileFunction,MixedPlating,1,4
FMAT,2
METRIC
; #@! TA.AperFunction,Plated,PTH,ViaDrill
T1C0.300
; #@! TA.AperFunction,Plated,PTH,ViaDrill
T2C0.600
; #@! TA.AperFunction,Plated,PTH,ComponentDrill
T3C0.600
; #@! TA.AperFunction,Plated,PTH,ComponentDrill
T4C0.800
; #@! TA.AperFunction,Plated,PTH,ComponentDrill
T5C0.900
; #@! TA.AperFunction,Plated,PTH,ComponentDrill
T6C1.100
; #@! TA.AperFunction,Plated,PTH,ComponentDrill
T7C1.800
; #@! TA.AperFunction,Plated,PTH,ComponentDrill
T8C2.150
; #@! TA.AperFunction,Plated,PTH,ComponentDrill
T9C2.200
; #@! TA.AperFunction,Plated,PTH,ComponentDrill
T10C3.000
; #@! TA.AperFunction,NonPlated,NPTH,ComponentDrill
T11C0.650
; #@! TA.AperFunction,NonPlated,NPTH,ComponentDrill
T12C1.000
%
G90
G05
T1
X102.45Y-118.3
X103.9Y-98.48
X103.925Y-100.35
X103.975Y-87.3
X104.175Y-105.7
X104.925Y-90.95
X105.075Y-93.68
X105.12Y-92.73
X105.375Y-102.251
X105.8Y-122.6
X106.125Y-96.3
X106.274Y-102.204
X106.4Y-106.3
X106.5Y-104.475
X106.825Y-89.925
X106.826Y-99.229
X107.137Y-95.762
X107.425Y-116.675
X107.525Y-121.1
X107.75Y-107.525
X108.425Y-117.25
X108.438Y-105.762
X108.525Y-102.925
X108.625Y-101.3
X108.66Y-94.3
X108.775Y-121.25
X109.025Y-111.75
X109.125Y-104.775
X109.5Y-106.025
X109.85Y-112.125
X109.925Y-102.916
X110.232Y-109.778
X110.25Y-121.2
X110.534Y-102.264
X110.55Y-90.925
X110.669Y-107.025
X110.825Y-98.15
X110.825Y-118.529
X110.9Y-114.7
X111.016Y-116.989
X111.125Y-101.5
X111.248Y-107.603
X111.3Y-100.2
X111.723Y-101.087
X111.75Y-91.7
X111.78Y-94.27
X111.9Y-116.85
X111.9Y-118.707
X112.35Y-112.725
X112.575Y-121.375
X112.7Y-97.75
X113.371Y-115.946
X113.376Y-120.674
X113.475Y-123.625
X113.55Y-90.8
X113.801Y-114.9
X114.958Y-108.533
X115.08Y-84.9
X115.15Y-100.4
X115.399Y-119.901
X115.5Y-117.625
X115.628Y-101.077
X115.725Y-109.425
X115.75Y-99.75
X116.25Y-101.825
X116.259Y-108.929
X116.765Y-97.271
X117.175Y-99.4
X117.225Y-102.725
X117.275Y-117.95
X117.95Y-119.75
X118.025Y-98.7
X118.025Y-101.05
X118.075Y-116.95
X118.3Y-103.75
X118.403Y-108.338
X118.55Y-114.625
X118.575Y-116.4
X118.665Y-107.661
X118.91Y-97.89
X119.014Y-93.923
X119.028Y-106.928
X119.097Y-112.647
X119.267Y-92.417
X119.3Y-102.15
X119.442Y-109.392
X119.8Y-112.425
X119.95Y-114.625
X119.971Y-92.621
X120.03Y-97.16
X120.359Y-95.629
X120.371Y-94.57
X120.373Y-108.948
X120.45Y-118.675
X120.5Y-93.15
X121.033Y-96.907
X121.04Y-94.28
X121.08Y-95.739
X121.65Y-117.375
X122.051Y-107.271
X122.163Y-98.936
X122.169Y-104.349
X122.397Y-106.447
X122.475Y-119.875
X122.548Y-100.418
X122.573Y-99.597
X122.73Y-110.31
X123.025Y-88.225
X123.55Y-93.63
X123.6Y-98.378
X123.686Y-96.896
X123.936Y-94.249
X124.166Y-97.918
X124.979Y-101.16
X124.996Y-97.84
X125.644Y-90.125
X126.079Y-97.925
X126.12Y-94.57
X126.275Y-119.875
X127.05Y-121.2
X127.329Y-117.975
X127.9Y-100.836
X128.4Y-108.025
X128.481Y-94.658
X128.481Y-95.385
X128.525Y-114.9
X128.671Y-93.957
X128.693Y-98.378
X128.7Y-96.2
X128.756Y-100.613
X128.761Y-115.884
X128.919Y-118.713
X129.011Y-99.3
X129.27Y-100.04
X129.375Y-109.9
X129.475Y-91.475
X129.809Y-100.566
X129.908Y-104.458
X130.22Y-101.34
X130.46Y-94.32
X130.575Y-107.675
X130.596Y-95.786
X130.773Y-98.062
X130.825Y-121.13
X130.98Y-93.736
X131.108Y-103.258
X131.15Y-97.337
X131.175Y-96.283
X131.263Y-84.689
X131.35Y-89.125
X131.625Y-119.85
X131.85Y-92.5
X131.9Y-85.219
X131.9Y-116.55
X131.9Y-117.975
X131.93Y-98.74
X131.937Y-99.492
X131.97Y-97.65
X131.975Y-84.15
X132.1Y-109.9
X132.2Y-90.275
X132.24Y-113.11
X132.25Y-80.2
X132.31Y-115.075
X132.93Y-97.55
X132.94Y-92.5
X133.15Y-108.6
X133.44Y-111.05
X133.921Y-100.08
X134.15Y-76.203
X134.47Y-99.16
X134.8Y-108.0
X134.88Y-90.099
X135.19Y-94.21
X136.29Y-90.03
X136.725Y-115.075
X136.725Y-117.075
X136.75Y-111.05
X136.75Y-119.075
X136.79Y-113.11
X136.825Y-76.227
X137.019Y-86.575
X137.3Y-106.325
X137.8Y-111.025
X139.07Y-80.91
X139.275Y-77.225
X139.3Y-106.325
X139.3Y-119.85
X139.33Y-79.65
X139.451Y-83.741
X139.451Y-84.47
X139.451Y-85.2
X140.4Y-114.95
X140.425Y-110.45
X140.925Y-94.95
X141.3Y-106.35
X141.69Y-104.87
X141.775Y-121.5
X141.85Y-92.525
X141.85Y-96.295
X141.857Y-88.103
X141.966Y-100.135
X143.0Y-120.4
X143.19Y-90.2
X143.225Y-86.025
X143.3Y-106.3
X143.32Y-98.07
X143.87Y-117.98
X143.88Y-110.5
X143.88Y-115.0
X143.9Y-101.15
X145.3Y-106.253
X145.74Y-101.99
X146.43Y-112.91
X147.22Y-117.07
X147.26Y-118.05
X147.3Y-106.253
X147.875Y-99.376
X148.025Y-83.275
X148.075Y-76.85
X148.15Y-121.275
X148.175Y-86.125
X148.36Y-104.026
X149.76Y-114.045
X149.8Y-108.025
X149.85Y-122.105
X149.86Y-100.277
X149.867Y-96.198
X149.94Y-112.045
X149.95Y-88.28
X150.0Y-92.3
X150.5Y-97.829
X150.975Y-104.873
X151.175Y-94.25
X151.242Y-86.225
X151.29Y-90.15
X151.45Y-118.401
X151.47Y-120.03
X151.487Y-114.57
X151.5Y-89.45
X151.582Y-97.379
X151.677Y-93.395
X151.775Y-107.375
X152.41Y-116.62
X152.52Y-104.72
X152.79Y-119.06
X153.18Y-99.48
X153.725Y-102.5
X153.9Y-100.65
X153.958Y-88.35
X154.266Y-90.798
X154.28Y-114.76
X154.358Y-94.92
X154.55Y-119.83
X154.741Y-98.933
X154.95Y-84.75
X154.95Y-92.783
X155.2Y-95.34
X155.84Y-90.74
X155.854Y-92.798
X155.9Y-88.06
X156.405Y-102.275
X156.475Y-111.075
X156.5Y-112.1
X156.5Y-119.95
X156.62Y-89.75
X156.739Y-92.629
X156.77Y-94.01
X157.65Y-80.08
X157.92Y-97.74
X158.549Y-84.4
X159.11Y-84.19
X159.31Y-93.0
X159.31Y-95.0
X159.32Y-90.02
X159.32Y-90.97
X159.33Y-91.96
X159.33Y-95.99
X159.37Y-94.03
X159.924Y-83.374
X160.15Y-84.475
X160.34Y-78.321
X160.423Y-79.213
X160.525Y-81.209
X160.7Y-118.125
X160.839Y-82.595
X161.02Y-84.54
X161.45Y-80.816
X161.59Y-85.73
X162.0Y-102.474
X162.03Y-79.08
X162.25Y-90.99
X162.26Y-89.99
X162.26Y-92.99
X162.27Y-80.269
X162.27Y-91.99
X162.28Y-94.01
X162.28Y-94.99
X162.29Y-95.98
X162.29Y-96.99
X162.651Y-85.681
X163.225Y-100.25
X163.37Y-81.345
X163.525Y-106.95
X163.709Y-86.082
X163.75Y-87.26
X163.938Y-78.001
X164.096Y-81.269
X164.51Y-86.03
X164.75Y-81.828
X164.82Y-90.98
X164.89Y-92.38
X165.344Y-83.13
X165.92Y-104.94
X165.95Y-83.65
X166.05Y-81.075
X166.425Y-89.275
X166.98Y-93.29
X167.15Y-104.79
X168.45Y-114.5
X168.79Y-108.25
X171.424Y-92.1
X171.425Y-96.1
X171.525Y-100.175
X172.323Y-84.342
X172.391Y-88.282
X172.8Y-83.15
X173.05Y-97.825
X173.05Y-101.875
X173.1Y-85.8
X173.125Y-93.75
X173.15Y-89.635
T2
X112.91Y-79.85
T4
X123.125Y-112.325
X130.725Y-112.325
T5
X102.45Y-85.788
X102.45Y-88.328
X102.45Y-90.868
X102.45Y-93.408
X102.45Y-95.948
X102.45Y-98.488
X102.45Y-101.028
X102.45Y-103.568
X102.45Y-106.108
X102.45Y-108.648
X167.425Y-76.945
X167.425Y-82.025
X172.505Y-76.945
X172.505Y-82.025
T6
X106.3Y-78.8
X117.3Y-78.8
T7
X109.3Y-88.8
X114.3Y-88.8
T8
X165.95Y-114.4
T10
X102.45Y-82.613
X102.45Y-111.823
X102.52Y-77.858
X103.1Y-121.9
X153.25Y-77.85
X153.25Y-82.613
X153.25Y-111.823
X153.25Y-121.9
T11
X123.745Y-82.38
X129.525Y-82.38
T12
X105.52Y-116.9
X109.33Y-116.9
T3
G00X122.315Y-79.0
M15
G01X122.315Y-78.4
M16
G05
G00X122.315Y-83.43
M15
G01X122.315Y-82.33
M16
G05
G00X130.955Y-79.0
M15
G01X130.955Y-78.4
M16
G05
G00X130.955Y-83.43
M15
G01X130.955Y-82.33
M16
G05
T9
G00X165.95Y-110.3
M15
G01X165.95Y-109.5
M16
G05
T0
M30
